<?xml version="1.0" encoding="utf-8" standalone="yes"?><!-- Generator: Adobe Illustrator 21.0.0, SVG Export Plug-In . SVG Version: 6.00 Build 0)  --><svg xmlns="http://www.w3.org/2000/svg" xmlns:xlink="http://www.w3.org/1999/xlink" version="1.1" id="TrustDice" x="0px" y="0px" viewBox="0 0 512 512" style="enable-background:new 0 0 512 512;zoom: 1;" xml:space="preserve" visibility="visible"><style type="text/css" visibility="visible">
        .st0{fill:#ECB241;}
        .st1{fill:#341F3B;}
</style><g visibility="visible"><g><path class="st0" d="M424.6,256.8l-62.5-63.2c-2.9-3-7.7-3-10.7,0l-62.5,63.2c-2.9,3-2.9,7.8,0,10.8l62.5,63.2c2.9,3,7.7,3,10.7,0 l62.5-63.2C427.6,264.6,427.6,259.7,424.6,256.8z M334.1,261.2c-3.2,3.2-8.3,3.2-11.5,0c-3.2-3.2-3.2-8.4,0-11.7 c3.2-3.2,8.4-3.2,11.5,0C337.3,252.8,337.3,258,334.1,261.2z M351.8,279.2c-3.2,3.2-8.3,3.2-11.5,0c-3.2-3.2-3.2-8.4,0-11.7 c3.2-3.2,8.4-3.2,11.5,0C355,270.7,355,275.9,351.8,279.2z M344,239.6c-3.2-3.2-3.2-8.4,0-11.7c3.2-3.2,8.3-3.2,11.5,0 c3.2,3.2,3.2,8.4,0,11.7S347.2,242.8,344,239.6z M369.5,297.1c-3.2,3.2-8.3,3.2-11.5,0c-3.2-3.2-3.2-8.4,0-11.7 c3.2-3.2,8.4-3.2,11.5,0C372.7,288.6,372.7,293.8,369.5,297.1z M373.2,257.5c-3.2,3.2-8.3,3.2-11.5,0c-3.2-3.2-3.2-8.4,0-11.7 s8.3-3.2,11.5,0S376.4,254.3,373.2,257.5z M390.9,275.4c-3.2,3.2-8.3,3.2-11.5,0c-3.2-3.2-3.2-8.4,0-11.7c3.2-3.2,8.3-3.2,11.5,0 C394.1,267,394.1,272.2,390.9,275.4z" visibility="visible"></path><path class="st0" d="M86.2,267.6l62.5,63.2c2.9,3,7.7,3,10.7,0l62.5-63.2c2.9-3,2.9-7.8,0-10.8l-62.5-63.2c-2.9-3-7.7-3-10.7,0 l-62.5,63.2C83.3,259.7,83.3,264.6,86.2,267.6z M176.8,249.6c3.2-3.2,8.3-3.2,11.5,0c3.2,3.2,3.2,8.4,0,11.7 c-3.2,3.2-8.4,3.2-11.5,0C173.6,258,173.6,252.8,176.8,249.6z M159.1,267.5c3.2-3.2,8.3-3.2,11.5,0c3.2,3.2,3.2,8.4,0,11.7 c-3.2,3.2-8.4,3.2-11.5,0C155.9,275.9,155.9,270.7,159.1,267.5z M155.4,239.6c-3.2-3.2-3.2-8.4,0-11.7c3.2-3.2,8.3-3.2,11.5,0 c3.2,3.2,3.2,8.4,0,11.7S158.5,242.8,155.4,239.6z M141.3,285.4c3.2-3.2,8.3-3.2,11.5,0c3.2,3.2,3.2,8.4,0,11.7 c-3.2,3.2-8.4,3.2-11.5,0C138.1,293.8,138.1,288.6,141.3,285.4z M137.6,245.9c3.2-3.2,8.3-3.2,11.5,0c3.2,3.2,3.2,8.4,0,11.7 c-3.2,3.2-8.3,3.2-11.5,0C134.4,254.3,134.4,249.1,137.6,245.9z M119.9,263.8c3.2-3.2,8.3-3.2,11.5,0c3.2,3.2,3.2,8.4,0,11.7 c-3.2,3.2-8.3,3.2-11.5,0C116.7,272.2,116.7,267,119.9,263.8z" visibility="visible"></path></g><path d="M438.3,151.8 c-5.1,-3.7 -12.1,-2.5 -15.7,2.6 l0.1,-0.2 l0,0 l-0.1,0.1 l-0.3,0.2 c-0.2,0.2 -0.4,0.4 -0.6,0.6 c-0.5,0.4 -1,0.8 -1.5,1.2 c-1,0.8 -2.2,1.4 -3.4,2 c-2.4,1.1 -4.9,1.9 -7.5,2.2 c-0.6,0.1 -1.3,0.1 -2,0.2 c-0.3,0 -0.7,0.1 -1,0 l-1,0 l-1,0 c0,0 -0.1,0 -0.1,0 l0,0 l-0.1,0 c-0.1,0 -0.1,0 -0.2,0 c-0.1,0 -0.3,-0.1 -0.5,-0.1 c-0.2,-0.1 -0.4,-0.1 -0.7,-0.2 l-0.8,-0.3 l-0.9,-0.4 l-0.5,-0.2 l-0.5,-0.2 l-1,-0.4 c-0.7,-0.3 -1.4,-0.7 -2.2,-1 c-0.8,-0.4 -1.5,-0.7 -2.3,-1.2 c-3.1,-1.7 -6.3,-3.6 -9.6,-5.6 l-10.1,-6.2 c-6.9,-4.2 -14.1,-8.5 -21.9,-12.4 c-3.9,-1.9 -8,-3.8 -12.3,-5.4 c-4.3,-1.6 -8.8,-3.1 -13.7,-4.1 c-2.4,-0.5 -4.9,-1 -7.5,-1.3 c-0.6,-0.1 -1.3,-0.2 -1.9,-0.2 l-2,-0.1 l-2,-0.1 l-1.7,0 l-3.5,0 c-1.2,0 -2.3,0 -3.5,0 l-3.5,0.2 c-1.2,0.1 -2.3,0.1 -3.5,0.2 c-9.3,0.8 -18.5,2.7 -27.4,5.6 l-1.7,0.5 l-1.7,0.6 c-0.2,0.1 -0.3,0.1 -0.5,0.2 c-1.4,-4.3 -5.4,-7.6 -10.2,-7.8 c-5.1,-0.2 -9.6,3.1 -11.1,7.8 c-0.2,-0.1 -0.3,-0.1 -0.5,-0.2 l-1.7,-0.6 l-1.7,-0.5 c-8.9,-2.9 -18.1,-4.7 -27.4,-5.6 c-1.2,-0.1 -2.3,-0.2 -3.5,-0.2 l-3.5,-0.2 c-1.2,-0.1 -2.3,0 -3.5,0 l-3.5,0 l-1.7,0 l-2,0.1 l-2,0.1 c-0.7,0.1 -1.3,0.1 -1.9,0.2 c-2.6,0.3 -5,0.8 -7.5,1.3 c-4.8,1.1 -9.4,2.5 -13.7,4.1 c-4.3,1.6 -8.4,3.5 -12.3,5.4 c-7.8,3.9 -15,8.2 -21.9,12.4 l-10.1,6.2 c-3.3,2 -6.5,3.9 -9.6,5.6 c-0.8,0.4 -1.5,0.8 -2.3,1.2 c-0.7,0.4 -1.5,0.7 -2.2,1 l-1,0.4 l-0.5,0.2 l-0.5,0.2 l-0.9,0.4 l-0.8,0.3 c-0.3,0.1 -0.5,0.1 -0.7,0.2 c-0.2,0.1 -0.5,0.1 -0.5,0.1 c-0.1,0 -0.1,0 -0.2,0 l-0.1,0 l0,0 c0,0 -0.1,0 -0.1,0 l-1,0 l-1,0 c-0.3,0 -0.7,0 -1,0 c-0.7,0 -1.4,0 -2,-0.2 c-2.6,-0.3 -5.2,-1 -7.5,-2.2 c-1.2,-0.6 -2.3,-1.2 -3.4,-2 c-0.5,-0.4 -1,-0.8 -1.5,-1.2 c-0.3,-0.2 -0.4,-0.4 -0.6,-0.6 l-0.3,-0.2 l-0.1,-0.1 l0,0 l0.1,0.2 c-3.6,-5.1 -10.6,-6.3 -15.7,-2.6 c-5.1,3.7 -6.2,10.8 -2.6,15.9 l0.5,0.7 l0.4,0.5 l0.7,0.9 c0.5,0.5 0.9,1.1 1.4,1.6 c0.9,1 1.9,2 2.9,2.9 c2,1.8 4.1,3.4 6.3,4.8 c4.5,2.8 9.5,4.9 14.6,6.1 c1.3,0.4 2.6,0.5 3.9,0.7 c0.6,0.1 1.3,0.2 1.9,0.3 l1.9,0.2 l1.9,0.1 l0.3,0 l0.3,0 l0.6,0 l1.3,0 c0.9,0 1.6,-0.1 2.4,-0.2 c0.8,-0.1 1.6,-0.2 2.2,-0.3 c5.7,-1.1 10,-2.8 14.2,-4.4 c4.1,-1.7 7.9,-3.5 11.6,-5.3 l10.8,-5.3 c7,-3.4 13.9,-6.6 20.6,-9.1 c6.7,-2.5 13.2,-4.4 19.2,-5 c1.5,-0.2 2.9,-0.3 4.3,-0.3 c0.3,0 0.7,0 1,0 l1,0 l1,0 l1.2,0.1 l2.5,0.2 c0.8,0.1 1.6,0.1 2.4,0.3 l2.4,0.4 c0.8,0.1 1.6,0.2 2.4,0.4 c6.4,1.2 12.7,3.2 18.7,5.8 l1.1,0.5 l1.1,0.5 l2.2,1.1 c1.4,0.8 2.9,1.5 4.2,2.3 c0.7,0.4 1.4,0.8 2,1.2 c0.7,0.4 1.3,0.8 1.9,1.3 c0.6,0.4 1.2,0.8 1.7,1.2 c0.2,0.2 0.4,0.3 0.6,0.5 l-7.6,184.9 h-46.2 c-9.3,0 -16.9,7.6 -16.9,17 c0,9.4 7.6,17 16.9,17 h132.3 c9.3,0 16.9,-7.6 16.9,-17 c0,-9.4 -7.6,-17 -16.9,-17 h-45.1 l-7.6,-184.9 c0.2,-0.2 0.4,-0.3 0.6,-0.5 c0.6,-0.4 1.1,-0.8 1.7,-1.2 c0.6,-0.4 1.3,-0.9 1.9,-1.3 c0.7,-0.4 1.3,-0.8 2,-1.2 c1.4,-0.8 2.8,-1.6 4.2,-2.3 l2.2,-1.1 l1.1,-0.5 l1.1,-0.5 c6,-2.6 12.3,-4.6 18.7,-5.8 c0.8,-0.2 1.6,-0.3 2.4,-0.4 l2.4,-0.4 c0.8,-0.2 1.6,-0.2 2.4,-0.3 l2.5,-0.2 l1.2,-0.1 l1,0 l1,0 c0.3,0 0.7,0 1,0 c1.4,0 2.8,0.1 4.3,0.3 c6,0.6 12.5,2.5 19.2,5 c6.7,2.5 13.5,5.7 20.6,9.1 l10.8,5.3 c3.7,1.8 7.5,3.6 11.6,5.3 c4.1,1.7 8.5,3.4 14.2,4.4 c0.7,0.1 1.5,0.2 2.2,0.3 c0.8,0.1 1.5,0.2 2.4,0.2 l1.3,0 l0.6,0 l0.3,0 l0.3,0 l1.9,-0.1 l1.9,-0.2 c0.6,-0.1 1.3,-0.2 1.9,-0.3 c1.3,-0.2 2.6,-0.4 3.9,-0.7 c5.1,-1.2 10.1,-3.3 14.6,-6.1 c2.2,-1.4 4.4,-3 6.3,-4.8 c1,-0.9 2,-1.8 2.9,-2.9 c0.5,-0.5 0.9,-1.1 1.4,-1.6 l0.7,-0.9 l0.4,-0.5 l0.5,-0.7 C444.5,162.5 443.3,155.4 438.3,151.8  z " visibility="visible" class="st1"></path></g></svg>