<svg xmlns="http://www.w3.org/2000/svg" xmlns:xlink="http://www.w3.org/1999/xlink" viewBox="0 0 224.08 70"><defs><style>.cls-1{fill:url(#未命名的渐变_198);}.cls-2{fill:url(#未命名的渐变_198-2);}.cls-3{fill:url(#未命名的渐变_198-3);}</style><linearGradient id="未命名的渐变_198" x1="54.08" y1="35" x2="0" y2="35" gradientUnits="userSpaceOnUse"><stop offset="0" stop-color="#bf8a00"/><stop offset="0.6" stop-color="#dfb73f"/><stop offset="1" stop-color="#f5d76b"/></linearGradient><linearGradient id="未命名的渐变_198-2" x1="82.08" y1="35" x2="63.08" y2="35" xlink:href="#未命名的渐变_198"/><linearGradient id="未命名的渐变_198-3" x1="224.08" y1="35" x2="90.67" y2="35" xlink:href="#未命名的渐变_198"/></defs><title>资源 10</title><g id="图层_2" data-name="图层 2"><g id="图层_1-2" data-name="图层 1"><path class="cls-1" d="M45.55,54.46,26,54.8a1,1,0,0,1-.48-1.92c15-7.46,28.31-16.15,25.26-34A19.69,19.69,0,0,0,48,11.77C35.82-8.13,1.82-1.13.82,21.87c-.48,11.05,14.07,10.2,15,2,1.19-10.44,17-11,18,1,.32,3.73-2.64,7.34-6.75,10.09l-8.69,6.37C4.12,51.08-.69,56.94.08,62.9a7.86,7.86,0,0,0,8,7h39c3,0,7-3,7-7C54.08,57.65,50.86,54.46,45.55,54.46Z"/><path class="cls-2" d="M72.58,0a9.71,9.71,0,0,0-9.5,9.91V60.09a9.51,9.51,0,1,0,19,0V9.91A9.71,9.71,0,0,0,72.58,0Z"/><path class="cls-3" d="M212.36,9.66A33.56,33.56,0,0,0,191,2.09a32.77,32.77,0,0,0-16.29,4.14c-6.44,3.65-11.45,9.33-16.33,14.9q-9.07,10.36-18.16,20.74c-2.52,2.88-5.12,5.83-8.48,7.69a17.18,17.18,0,0,1-20.67-3.68,17.18,17.18,0,0,1-.63-21,16.58,16.58,0,0,1,29.75,8.82L152.9,19.44C147,8.58,134.66,1.34,122.25,1.89A31.88,31.88,0,0,0,111,4.51a35,35,0,0,0-9.72,6.31A33.73,33.73,0,0,0,94.23,20a31.35,31.35,0,0,0-3.36,11.1,33.56,33.56,0,0,0,.79,11.77,34.29,34.29,0,0,0,4.73,10.82,31.69,31.69,0,0,0,6.5,7.17,33.77,33.77,0,0,0,36.67,3.11c6.53-3.63,11.61-9.34,16.55-14.94l18.7-21.18c2.37-2.68,4.79-5.42,7.89-7.21A17.17,17.17,0,0,1,203.48,24a17.17,17.17,0,0,1,.91,21,16.58,16.58,0,0,1-29.85-8.57L161.92,50.61c5.78,10.57,17.6,17.72,29.69,17.53a34,34,0,0,0,30.68-22A34,34,0,0,0,212.36,9.66Z"/></g></g></svg>