<svg xmlns="http://www.w3.org/2000/svg" viewBox="0 0 182.03 182"><defs><style>.cls-1{fill:#162665;}.cls-2{fill:none;stroke:#0d153c;stroke-miterlimit:10;stroke-width:3px;}.cls-3{fill:#f4f4ec;}.cls-4{fill:#ebebe6;}.cls-5{font-size:75.02px;font-family:Arial-BoldMT, Arial;}.cls-5,.cls-6{fill:#f4d84c;font-weight:700;}.cls-6{font-size:24.85px;font-family:Verdana-Bold, Verdana;}</style></defs><title>888logo2</title><g id="Слой_2" data-name="Слой 2"><g id="Слой_1-2" data-name="Слой 1"><circle class="cls-1" cx="91.01" cy="91" r="91"/><circle class="cls-2" cx="91.01" cy="91" r="61"/><circle class="cls-3" cx="17.01" cy="52" r="2"/><circle class="cls-3" cx="22.01" cy="42" r="2"/><circle class="cls-3" cx="24.01" cy="50" r="2"/><circle class="cls-3" cx="32.01" cy="48" r="2"/><circle class="cls-3" cx="91.01" cy="11" r="2"/><circle class="cls-3" cx="26.01" cy="58" r="2"/><circle class="cls-3" cx="150.01" cy="48" r="2"/><circle class="cls-3" cx="158.01" cy="50" r="2"/><circle class="cls-3" cx="165.01" cy="52" r="2"/><circle class="cls-3" cx="86.01" cy="160" r="2"/><circle class="cls-3" cx="86.01" cy="166" r="2"/><circle class="cls-3" cx="86.01" cy="171" r="2"/><circle class="cls-3" cx="97.01" cy="160" r="2"/><circle class="cls-3" cx="97.01" cy="166" r="2"/><circle class="cls-3" cx="97.01" cy="171" r="2"/><circle class="cls-3" cx="22.01" cy="135" r="2"/><circle class="cls-3" cx="16.01" cy="125" r="2"/><circle class="cls-3" cx="26.01" cy="120" r="2"/><circle class="cls-3" cx="32.01" cy="130" r="2"/><circle class="cls-3" cx="166.01" cy="125" r="2"/><circle class="cls-3" cx="150.01" cy="129" r="2"/><path class="cls-4" d="M86.74,153.37a62.36,62.36,0,0,1-14.79-2.84l.92-2.86a59.41,59.41,0,0,0,14.08,2.71Zm15-.8-.52-3A60.33,60.33,0,0,0,115,145.46l1.21,2.75a62.94,62.94,0,0,1-7.11,2.62A63.66,63.66,0,0,1,101.79,152.57Zm-43.52-8.34a62.72,62.72,0,0,1-11.79-9.37l2.14-2.11a59.66,59.66,0,0,0,11.23,8.92Zm70.9-3.71-1.83-2.38a59.35,59.35,0,0,0,10.21-10.06L139.9,130A62.45,62.45,0,0,1,129.17,140.53ZM37.27,122.94a62.78,62.78,0,0,1-6.07-13.78l2.87-.87a59.74,59.74,0,0,0,5.77,13.12Zm110.52-5.81-2.72-1.26a59.63,59.63,0,0,0,4.39-13.65l2.95.57A62.6,62.6,0,0,1,147.79,117.13ZM36.93,66.19,34.2,64.94A62.92,62.92,0,0,1,42.08,52.1L44.43,54A59.88,59.88,0,0,0,36.93,66.19Zm105.21-5.66a59.18,59.18,0,0,0-8.77-11.34l2.13-2.11A62.23,62.23,0,0,1,144.72,59ZM54.64,43.89,52.8,41.52a62.29,62.29,0,0,1,13-7.69L67,36.57A59.21,59.21,0,0,0,54.64,43.89Zm67.49-3.61a59.85,59.85,0,0,0-13-6l.91-2.86a62.91,62.91,0,0,1,13.69,6.28ZM80.69,32.4l-.52-3a62.41,62.41,0,0,1,15-.82l-.2,3A59.43,59.43,0,0,0,80.69,32.4Z"/><path class="cls-4" d="M59.62,176.43a91.22,91.22,0,0,1-25.17-14.14l11.18-14.11a73.24,73.24,0,0,0,20.21,11.35Zm64.82-.77-6.59-16.75a72.4,72.4,0,0,0,19.9-11.81l11.54,13.82A90.34,90.34,0,0,1,124.44,175.66ZM1.35,106.56v-.08A91.82,91.82,0,0,1,0,90.9,90.81,90.81,0,0,1,1,77.67l17.81,2.63A72.7,72.7,0,0,0,18,90.9a73.83,73.83,0,0,0,1.08,12.52l0,.32-7.16,1ZM181,104.4l-17.8-2.65A72.67,72.67,0,0,0,164,91.1a73.77,73.77,0,0,0-1.08-12.52l0-.09,17.72-3.15,0,.17A91.89,91.89,0,0,1,182,91.1,90.83,90.83,0,0,1,181,104.4ZM44.23,34.94,32.68,21.13A90.34,90.34,0,0,1,57.52,6.37l6.61,16.74A72.4,72.4,0,0,0,44.23,34.94Zm92.11-1.17a73.21,73.21,0,0,0-20.21-11.34l6.21-16.89a91.13,91.13,0,0,1,25.18,14.12Z"/><text class="cls-5" transform="translate(25.59 102.12) scale(1.04 1)">888</text><text class="cls-6" transform="translate(55.59 126.82) scale(0.86 1)">TRON</text></g></g></svg>