<?xml version="1.0" encoding="utf-8"?>
<!-- Generator: Adobe Illustrator 22.0.1, SVG Export Plug-In . SVG Version: 6.00 Build 0)  -->
<svg version="1.1" id="레이어_1" xmlns="http://www.w3.org/2000/svg" xmlns:xlink="http://www.w3.org/1999/xlink" x="0px"
	 y="0px" viewBox="0 0 113.4 113.4" style="enable-background:new 0 0 113.4 113.4;" xml:space="preserve">
<style type="text/css">
	.st0{fill:#061933;}
	.st1{fill:#FEFEFE;}
	.st2{fill:#FFFFFF;}
</style>
<g id="Ebene_x0020_1">
	
		<ellipse transform="matrix(0.9999 -1.682823e-02 1.682823e-02 0.9999 -0.946 0.9621)" class="st0" cx="56.7" cy="56.7" rx="42.5" ry="42.5"/>
	<path class="st1" d="M49,98.5c5.1,0.9,10.3,0.9,15.4,0v-9.3H49V98.5z M72.6,77.2l1.2,2c-1.9,1.4-4,2.6-6.2,3.5l-1.2-2.1
		C68.7,79.9,70.7,78.7,72.6,77.2z M60.2,82.4v2.4c-2.3,0.3-4.7,0.3-7.1,0v-2.4C55.5,82.7,57.9,82.7,60.2,82.4z M39.6,79.3l1.2-2.1
		c0.9,0.7,1.9,1.4,2.9,2c1,0.6,2.1,1.1,3.2,1.6l-1.2,2.1c-1.1-0.5-2.1-1-3.2-1.6C41.5,80.6,40.5,80,39.6,79.3z M16.7,70.9l8.1-4.6
		l7.7,13.3l-8.1,4.7C20.9,80.3,18.4,75.7,16.7,70.9z M80.8,66.5l2.1,1.2c-0.5,1.1-1,2.1-1.6,3.2s-1.2,2-2,2.9l-2.1-1.2
		c0.7-0.9,1.4-1.9,2-2.9C79.8,68.7,80.3,67.6,80.8,66.5z M34.1,39.6l2.1,1.2c-0.7,0.9-1.4,1.9-2,2.9c-0.6,1-1.1,2.1-1.6,3.2
		l-2.1-1.2c0.5-1.1,1-2.1,1.6-3.2C32.7,41.5,33.4,40.5,34.1,39.6z M45.7,30.6l1.2,2.1c-2.2,0.9-4.3,2.1-6.2,3.5l-1.2-2
		C41.5,32.7,43.5,31.5,45.7,30.6z M60.2,28.6V31c-2.4-0.3-4.8-0.3-7.1,0v-2.4C55.5,28.3,57.9,28.3,60.2,28.6z M66.5,32.6l1.2-2.1
		c1.1,0.5,2.1,1,3.2,1.6s2,1.2,2.9,2l-1.2,2.1c-0.9-0.7-1.9-1.4-2.9-2C68.7,33.6,67.6,33.1,66.5,32.6z M82.4,53.1h2.4
		c0.3,2.4,0.3,4.7,0,7.1h-2.4C82.7,57.9,82.7,55.5,82.4,53.1z M28.6,53.1H31c-0.3,2.4-0.3,4.8,0,7.1h-2.4
		C28.3,57.9,28.3,55.5,28.6,53.1z M77.2,40.8l2-1.2c1.4,1.9,2.6,4,3.5,6.2l-2.1,1.2C79.9,44.7,78.7,42.7,77.2,40.8z M30.6,67.7
		l2.1-1.2c0.9,2.2,2.1,4.3,3.5,6.2l-2,1.2C32.7,71.9,31.5,69.8,30.6,67.7z M96.7,42.5c-1.7-4.8-4.3-9.4-7.7-13.3L81,33.8l7.7,13.3
		L96.7,42.5z M64.4,14.9v9.3H49v-9.3C54.1,14,59.2,13.9,64.4,14.9z M24.3,29.1l8.1,4.7l-7.7,13.3l-8.1-4.7c0.9-2.4,1.9-4.7,3.2-7
		C21.2,33.2,22.7,31.1,24.3,29.1z M89.1,84.2c1.6-1.9,3.1-4,4.5-6.3c1.3-2.3,2.4-4.6,3.2-7l-8.1-4.7L81,79.6L89.1,84.2z"/>
</g>
<g>
	<path class="st2" d="M48.5,42.4c1.2,0,2.1,0.4,2.9,1.2c1.5,1.5,3,2.9,4.4,4.5c0.5,0.5,0.8,0.5,1.2,0c1.3-1.4,2.7-2.7,4.1-4.1
		c2.1-2.1,4.5-2.1,6.6,0c3.3,3.3,6.6,6.5,9.8,9.8c1.9,1.9,2,4.3,0.1,6.3c-3.3,3.4-6.7,6.7-10,10c-1.9,1.9-4.4,1.9-6.3,0
		c-1.4-1.4-2.8-2.8-4.2-4.2c-0.5-0.5-0.8-0.5-1.2,0c-1.3,1.4-2.7,2.7-4,4c-2.1,2.1-4.5,2.1-6.7,0c-3.2-3.2-6.4-6.4-9.6-9.6
		c-2-2.1-2-4.4,0-6.5c3.3-3.3,6.7-6.7,10-10C46.4,42.8,47.3,42.3,48.5,42.4z M75.7,56.9c0-0.4-0.2-0.6-0.4-0.8
		c-3.3-3.3-6.7-6.7-10-10c-0.6-0.6-1.1-0.5-1.7,0c-1.5,1.5-2.9,2.9-4.4,4.4c-0.4,0.4-0.3,0.6,0,1c0.8,0.8,1.5,1.5,2.3,2.3
		c2,2,2,4.3,0,6.4c-0.8,0.8-1.5,1.6-2.3,2.3c-0.4,0.3-0.3,0.6,0,1c1.5,1.4,2.9,2.9,4.4,4.4c0.5,0.5,1.1,0.6,1.6,0
		c3.4-3.4,6.7-6.7,10.1-10.1C75.5,57.4,75.7,57.2,75.7,56.9z M53.3,53.3c0-0.9-0.8-1.6-1.6-1.6c-0.8,0-1.6,0.8-1.6,1.7
		c0,0.8,0.8,1.6,1.6,1.6C52.5,54.9,53.3,54.1,53.3,53.3z M44.9,61.5c1,0,1.6-0.6,1.6-1.5c0-0.9-0.7-1.7-1.6-1.7
		c-0.9,0-1.6,0.6-1.6,1.5C43.3,60.9,43.9,61.5,44.9,61.5z"/>
	<path class="st2" d="M66.7,56.5c0-1,0.9-1.8,1.8-1.8c1,0,1.8,0.9,1.8,1.9c0,1-0.9,1.8-1.9,1.8C67.5,58.4,66.7,57.5,66.7,56.5z"/>
</g>
</svg>
