<svg width="24" height="24" xmlns="http://www.w3.org/2000/svg" fill-rule="evenodd" clip-rule="evenodd"><path d="M6.109 21.289c1.703 1.083 3.724 1.711 5.891 1.711 2.166 0 4.187-.628 5.89-1.711l.618.792c-1.876 1.214-4.11 1.919-6.508 1.919-2.4 0-4.637-.706-6.513-1.922l.622-.789zm5.853-13.289c-3.037 0-5.5 2.462-5.5 5.5 0 3.037 2.463 5.5 5.5 5.5s5.5-2.463 5.5-5.5c0-3.038-2.463-5.5-5.5-5.5zm7.038 11h-1c0-1.104.896-2 2-2h2c.963 0 2 .76 2 2h-1c0-.619-.519-1-1-1h-2c-.552 0-1 .449-1 1zm-18 0h-1c0-1.104.896-2 2-2h2c.963 0 2 .76 2 2h-1c0-.619-.519-1-1-1h-2c-.552 0-1 .449-1 1zm11-10c2.639 0 4.5 1.861 4.5 4.5 0 2.639-1.861 4.5-4.5 4.5-2.639 0-4.5-1.861-4.5-4.5 0-2.639 1.861-4.5 4.5-4.5zm9 3c1.242 0 2.25 1.008 2.25 2.25s-1.008 2.25-2.25 2.25-2.25-1.008-2.25-2.25 1.008-2.25 2.25-2.25zm-18 0c1.242 0 2.25 1.008 2.25 2.25s-1.008 2.25-2.25 2.25-2.25-1.008-2.25-2.25 1.008-2.25 2.25-2.25zm9.25 4.5h-.5v-.499c-.518-.009-1.053-.133-1.5-.364l.227-.822c.478.186 1.114.383 1.613.27.574-.13.692-.721.057-1.005-.466-.217-1.889-.403-1.889-1.621 0-.682.519-1.292 1.492-1.425v-.534h.5v.509c.362.01.768.073 1.221.21l-.181.824c-.384-.135-.808-.257-1.221-.232-.745.043-.81.688-.291.958.856.402 1.972.7 1.972 1.772.001.859-.672 1.316-1.5 1.432v.527zm8.75-3.375c.621 0 1.125.504 1.125 1.125s-.504 1.125-1.125 1.125-1.125-.504-1.125-1.125.504-1.125 1.125-1.125zm-18 0c.621 0 1.125.504 1.125 1.125s-.504 1.125-1.125 1.125-1.125-.504-1.125-1.125.504-1.125 1.125-1.125zm-1.818-3.125h-1.016c.729-4.334 3.783-7.882 7.834-9.316v1.067c-3.496 1.367-6.123 4.471-6.818 8.249zm22.652 0h-1.016c-.695-3.778-3.322-6.882-6.818-8.249v-1.067c4.051 1.434 7.105 4.982 7.834 9.316zm-13.834-3h-1c0-1.104.896-2 2-2h2c.963 0 2 .76 2 2h-1c0-.619-.519-1-1-1h-2c-.552 0-1 .449-1 1zm2-7c1.242 0 2.25 1.008 2.25 2.25s-1.008 2.25-2.25 2.25-2.25-1.008-2.25-2.25 1.008-2.25 2.25-2.25zm0 1.125c.621 0 1.125.504 1.125 1.125s-.504 1.125-1.125 1.125-1.125-.504-1.125-1.125.504-1.125 1.125-1.125z"/></svg>