<?xml version="1.0" encoding="utf-8"?>
<!-- Generator: Adobe Illustrator 21.0.0, SVG Export Plug-In . SVG Version: 6.00 Build 0)  -->
<svg version="1.0" id="图层_1" xmlns="http://www.w3.org/2000/svg" xmlns:xlink="http://www.w3.org/1999/xlink" x="0px" y="0px"
	 viewBox="0 0 400 400" style="enable-background:new 0 0 400 400;" xml:space="preserve">
<style type="text/css">
	.st0{fill:#661516;}
	.st1{fill:#9A2324;}
	.st2{fill:#FFFFFF;}
	.st3{fill:#FFE000;}
</style>
<title>HASH SVG</title>
<g>
	<g>
		<rect class="st0" width="40" height="40"/>
		<rect x="40" class="st1" width="40" height="40"/>
		<rect x="80" class="st0" width="40" height="40"/>
		<rect x="120" class="st1" width="40" height="40"/>
		<rect x="40" y="40" class="st0" width="40" height="40"/>
		<rect y="40" class="st1" width="40" height="40"/>
		<rect x="120" y="40" class="st0" width="40" height="40"/>
		<rect x="80" y="40" class="st1" width="40" height="40"/>
		<polygon class="st0" points="99.9,50.2 91.4,60 99.9,69.8 108.6,60 		"/>
		<polygon class="st1" points="19.9,10.2 11.4,20 19.9,29.8 28.6,20 		"/>
		<path class="st1" d="M107.8,10.8c-4.4-2.4-7.7,2.3-7.7,2.3s-3.3-4.7-7.7-2.3s-2.9,7.7-1.3,9.5c2.3,2.5,7.5,5.8,9,9.7
			c1.5-3.8,6.8-7.2,9-9.7C110.7,18.5,112.1,13.1,107.8,10.8z"/>
		<path class="st0" d="M27.7,50.8c-4.4-2.4-7.7,2.3-7.7,2.3s-3.3-4.8-7.7-2.3c-4.4,2.4-2.9,7.7-1.3,9.5c2.3,2.5,7.5,5.8,9,9.7
			c1.5-3.8,6.8-7.2,9-9.7C30.6,58.5,32,53.1,27.7,50.8z"/>
		<path class="st1" d="M54,65.5c3.4,1.9,6-1.8,6-1.8s2.5,3.7,6,1.8s2.3-6,1-7.4c-1.8-2-5.9-4.6-7-7.6c-1.2,3-5.3,5.6-7,7.6
			C51.7,59.4,50.7,63.6,54,65.5z"/>
		<path class="st1" d="M60,62.5c0,0-0.4,6.8-3.6,7h7.2C60.4,69.3,60,62.5,60,62.5z"/>
		<path class="st0" d="M133.8,25.7c3.6,2,6.2-1.9,6.2-1.9s2.6,3.9,6.2,1.9s2.4-6.3,1.1-7.7c-1.8-2-6.1-4.7-7.3-7.8
			c-1.2,3.1-5.5,5.8-7.3,7.8C131.4,19.4,130.3,23.7,133.8,25.7z"/>
		<path class="st0" d="M140,22.6c0,0-0.4,7-3.7,7.3h7.5C140.5,29.6,140,22.6,140,22.6z"/>
		<path class="st1" d="M140,61.8c0,0-0.4,6.8-3.6,7h7.2C140.4,68.5,140,61.8,140,61.8z"/>
		<path class="st1" d="M145,56.8L145,56.8c0-0.2,0-0.4,0-0.6c0.4-2.7-1.5-5.3-4.2-5.7c-2.7-0.4-5.3,1.5-5.7,4.2
			c-0.1,0.5-0.1,0.9,0,1.4c0,0.2,0,0.4,0.1,0.6h-0.1c-2.8,0-5,2.2-5,5c0,2.8,2.2,5,5,5c2.8,0,5-2.2,5-5l0,0c0-0.2,0-0.4-0.1-0.6h0.1
			c0,0.2-0.1,0.4-0.1,0.6c0,2.8,2.2,5,5,5c2.8,0,5-2.2,5-5c0-2.8-2.2-5-5-5H145z"/>
		<path class="st0" d="M65.6,16.4L65.6,16.4c0-0.2,0-0.5,0-0.7c0-3.1-2.5-5.6-5.5-5.6c-3.1,0-5.6,2.5-5.6,5.5c0,0,0,0,0,0
			c0,0.2,0,0.5,0.1,0.7h-0.1c-3.1,0-5.5,2.5-5.5,5.6s2.5,5.5,5.5,5.5c2.7,0,4.9-1.9,5.4-4.4c-0.3,2.1-1.2,6.5-3.9,6.7h8.1
			c-2.7-0.2-3.6-4.5-3.9-6.7c0.5,2.5,2.8,4.4,5.4,4.4c3.1,0,5.6-2.5,5.6-5.5S68.7,16.4,65.6,16.4z M60,21.3h0.1
			c0,0.2-0.1,0.5-0.1,0.7C60.1,21.7,60,21.5,60,21.3z"/>
		<rect x="160" class="st0" width="40" height="40"/>
		<rect x="200" class="st1" width="40" height="40"/>
		<rect x="240" class="st0" width="40" height="40"/>
		<rect x="280" class="st1" width="40" height="40"/>
		<rect x="200" y="40" class="st0" width="40" height="40"/>
		<rect x="160" y="40" class="st1" width="40" height="40"/>
		<rect x="280" y="40" class="st0" width="40" height="40"/>
		<rect x="240" y="40" class="st1" width="40" height="40"/>
		<polygon class="st0" points="259.9,50.2 251.4,60 259.9,69.8 268.6,60 		"/>
		<polygon class="st1" points="179.9,10.2 171.4,20 179.9,29.8 188.6,20 		"/>
		<path class="st1" d="M267.7,10.7c-4.4-2.4-7.7,2.3-7.7,2.3s-3.2-4.7-7.6-2.3s-2.9,7.7-1.3,9.5c2.3,2.5,7.5,5.8,9,9.7
			c1.5-3.8,6.8-7.2,9-9.7C270.7,18.5,272,13.1,267.7,10.7z"/>
		<path class="st0" d="M187.7,50.8c-4.4-2.4-7.7,2.3-7.7,2.3s-3.3-4.8-7.7-2.3c-4.4,2.4-2.9,7.7-1.3,9.5c2.3,2.5,7.5,5.8,9,9.7
			c1.5-3.8,6.8-7.2,9-9.7C190.6,58.5,191.9,53.1,187.7,50.8z"/>
		<path class="st1" d="M214,65.5c3.5,1.9,6-1.8,6-1.8s2.5,3.7,6,1.8c3.5-1.9,2.3-6,1-7.4c-1.8-2-5.9-4.6-7-7.6c-1.2,3-5.3,5.6-7,7.6
			C211.7,59.4,210.7,63.6,214,65.5z"/>
		<path class="st1" d="M220,62.5c0,0-0.4,6.8-3.6,7h7.2C220.4,69.3,220,62.5,220,62.5z"/>
		<path class="st0" d="M293.9,25.7c3.6,2,6.2-1.9,6.2-1.9s2.6,3.9,6.2,1.9s2.4-6.3,1.1-7.7c-1.8-2-6.1-4.7-7.3-7.8
			c-1.2,3.1-5.5,5.8-7.3,7.8C291.5,19.4,290.4,23.7,293.9,25.7z"/>
		<path class="st0" d="M300.1,22.6c0,0-0.4,7-3.7,7.3h7.5C300.6,29.6,300.1,22.6,300.1,22.6z"/>
		<path class="st1" d="M300.1,62.9c0,0-0.4,6.8-3.6,7h7.2C300.5,69.7,300.1,62.9,300.1,62.9z"/>
		<path class="st1" d="M305,56.8L305,56.8c0-0.2,0-0.4,0-0.6c0.4-2.7-1.5-5.3-4.2-5.7c-2.7-0.4-5.3,1.5-5.7,4.2
			c-0.1,0.5-0.1,0.9,0,1.4c0,0.2,0,0.4,0.1,0.6H295c-2.8,0-5,2.2-5,5c0,2.8,2.2,5,5,5s5-2.2,5-5l0,0c0-0.2,0-0.4-0.1-0.6h0.1
			c0,0.2-0.1,0.4-0.1,0.6c0,2.8,2.2,5,5,5s5-2.2,5-5C310,59,307.8,56.8,305,56.8L305,56.8z"/>
		<path class="st0" d="M220,22c0,0-0.5,7.6-4,7.8h8.1C220.5,29.6,220,22,220,22z"/>
		<path class="st0" d="M225.6,16.4L225.6,16.4c0-0.2,0-0.5,0-0.7c0-3.1-2.5-5.6-5.6-5.6s-5.6,2.5-5.6,5.6c0,0.2,0,0.5,0.1,0.7h-0.1
			c-3.1,0-5.6,2.5-5.6,5.6s2.5,5.5,5.6,5.5c3.1,0,5.6-2.5,5.6-5.6c0-0.2,0-0.5-0.1-0.7h0.1c0,0.2-0.1,0.5-0.1,0.7
			c0,3.1,2.5,5.6,5.6,5.6c3.1,0,5.6-2.5,5.6-5.5S228.6,16.4,225.6,16.4L225.6,16.4z"/>
		<rect x="320" class="st0" width="40" height="40"/>
		<rect x="360" class="st1" width="40" height="40"/>
		<rect x="360" y="40" class="st0" width="40" height="40"/>
		<rect x="320" y="40" class="st1" width="40" height="40"/>
		<polygon class="st1" points="340.2,10.2 331.7,20 340.2,29.8 348.9,20 		"/>
		<path class="st0" d="M347.7,50.8c-4.4-2.4-7.7,2.3-7.7,2.3s-3.3-4.8-7.7-2.3c-4.4,2.4-2.9,7.7-1.3,9.5c2.3,2.5,7.5,5.8,9,9.7
			c1.5-3.8,6.8-7.2,9-9.7C350.6,58.5,352,53.1,347.7,50.8z"/>
		<path class="st1" d="M374.1,65.5c3.5,1.9,6-1.8,6-1.8s2.5,3.7,6,1.8s2.3-6,1-7.4c-1.8-2-5.9-4.6-7-7.6c-1.2,3-5.3,5.6-7,7.6
			C371.7,59.4,370.7,63.6,374.1,65.5z"/>
		<path class="st1" d="M380,62.5c0,0-0.4,6.8-3.6,7h7.2C380.4,69.3,380,62.5,380,62.5z"/>
		<path class="st0" d="M380,22c0,0-0.5,7.6-4,7.8h8.1C380.5,29.6,380,22,380,22z"/>
		<path class="st0" d="M385.5,16.4L385.5,16.4c0-0.2,0-0.5,0-0.7c0-3.1-2.5-5.6-5.6-5.6c-3.1,0-5.5,2.5-5.5,5.6c0,0.2,0,0.5,0.1,0.7
			h-0.1c-3.1,0-5.6,2.5-5.6,5.5s2.5,5.6,5.5,5.6S380,25,380,22c0,0,0,0,0,0c0-0.2,0-0.5-0.1-0.7h0.1c0,0.2-0.1,0.5-0.1,0.7
			c0,3.1,2.5,5.6,5.5,5.6c3.1,0,5.6-2.5,5.6-5.5S388.6,16.4,385.5,16.4L385.5,16.4L385.5,16.4z"/>
	</g>
	<g>
		<rect y="80" class="st0" width="40" height="40"/>
		<rect x="40" y="80" class="st1" width="40" height="40"/>
		<rect x="80" y="80" class="st0" width="40" height="40"/>
		<rect x="120" y="80" class="st1" width="40" height="40"/>
		<rect x="40" y="120" class="st0" width="40" height="40"/>
		<rect y="120" class="st1" width="40" height="40"/>
		<rect x="120" y="120" class="st0" width="40" height="40"/>
		<rect x="80" y="120" class="st1" width="40" height="40"/>
		<polygon class="st0" points="99.9,130.2 91.4,140 99.9,149.8 108.6,140 		"/>
		<polygon class="st1" points="19.9,90.2 11.4,100 19.9,109.8 28.6,100 		"/>
		<path class="st1" d="M107.8,90.8c-4.4-2.4-7.7,2.3-7.7,2.3s-3.3-4.7-7.7-2.3s-2.9,7.7-1.3,9.5c2.3,2.5,7.5,5.8,9,9.7
			c1.5-3.8,6.8-7.2,9-9.7C110.7,98.5,112.1,93.1,107.8,90.8z"/>
		<path class="st0" d="M27.7,130.8c-4.4-2.4-7.7,2.3-7.7,2.3s-3.3-4.8-7.7-2.3s-2.9,7.7-1.3,9.5c2.3,2.5,7.5,5.8,9,9.7
			c1.5-3.8,6.8-7.2,9-9.7C30.6,138.5,32,133.1,27.7,130.8z"/>
		<path class="st1" d="M54,145.5c3.4,1.9,6-1.8,6-1.8s2.5,3.7,6,1.8s2.3-6,1-7.4c-1.8-2-5.9-4.6-7-7.6c-1.2,3-5.3,5.6-7,7.6
			C51.7,139.4,50.7,143.6,54,145.5z"/>
		<path class="st1" d="M60,142.5c0,0-0.4,6.8-3.6,7h7.2C60.4,149.3,60,142.5,60,142.5z"/>
		<path class="st0" d="M133.8,105.7c3.6,2,6.2-1.9,6.2-1.9s2.6,3.9,6.2,1.9c3.6-2,2.4-6.3,1.1-7.7c-1.8-2-6.1-4.7-7.3-7.8
			c-1.2,3.1-5.5,5.8-7.3,7.8C131.4,99.4,130.3,103.7,133.8,105.7z"/>
		<path class="st0" d="M140,102.6c0,0-0.4,7-3.7,7.3h7.5C140.5,109.6,140,102.6,140,102.6z"/>
		<path class="st1" d="M140,141.8c0,0-0.4,6.8-3.6,7h7.2C140.4,148.5,140,141.8,140,141.8z"/>
		<path class="st1" d="M145,136.8L145,136.8c0-0.2,0-0.4,0-0.6c0.4-2.7-1.5-5.3-4.2-5.7c-2.7-0.4-5.3,1.5-5.7,4.2
			c-0.1,0.5-0.1,0.9,0,1.4c0,0.2,0,0.4,0.1,0.6h-0.1c-2.8,0-5,2.2-5,5s2.2,5,5,5c2.8,0,5-2.2,5-5l0,0c0-0.2,0-0.4-0.1-0.6h0.1
			c0,0.2-0.1,0.4-0.1,0.6c0,2.8,2.2,5,5,5c2.8,0,5-2.2,5-5c0-2.8-2.2-5-5-5H145z"/>
		<path class="st0" d="M65.6,96.4L65.6,96.4c0-0.2,0-0.5,0-0.7c0-3.1-2.5-5.6-5.5-5.6c-3.1,0-5.6,2.5-5.6,5.5c0,0,0,0,0,0
			c0,0.2,0,0.5,0.1,0.7h-0.1c-3.1,0-5.5,2.5-5.5,5.6s2.5,5.5,5.5,5.5c2.7,0,4.9-1.9,5.4-4.4c-0.3,2.1-1.2,6.5-3.9,6.7h8.1
			c-2.7-0.2-3.6-4.5-3.9-6.7c0.5,2.5,2.8,4.4,5.4,4.4c3.1,0,5.6-2.5,5.6-5.5S68.7,96.4,65.6,96.4z M60,101.3h0.1
			c0,0.2-0.1,0.5-0.1,0.7C60.1,101.7,60,101.5,60,101.3z"/>
		<rect x="160" y="80" class="st0" width="40" height="40"/>
		<rect x="200" y="80" class="st1" width="40" height="40"/>
		<rect x="240" y="80" class="st0" width="40" height="40"/>
		<rect x="280" y="80" class="st1" width="40" height="40"/>
		<rect x="200" y="120" class="st0" width="40" height="40"/>
		<rect x="160" y="120" class="st1" width="40" height="40"/>
		<rect x="280" y="120" class="st0" width="40" height="40"/>
		<rect x="240" y="120" class="st1" width="40" height="40"/>
		<polygon class="st0" points="259.9,130.2 251.4,140 259.9,149.8 268.6,140 		"/>
		<polygon class="st1" points="179.9,90.2 171.4,100 179.9,109.8 188.6,100 		"/>
		<path class="st1" d="M267.7,90.7c-4.4-2.4-7.7,2.3-7.7,2.3s-3.2-4.7-7.6-2.3s-2.9,7.7-1.3,9.5c2.3,2.5,7.5,5.8,9,9.7
			c1.5-3.8,6.8-7.2,9-9.7C270.7,98.5,272,93.1,267.7,90.7z"/>
		<path class="st0" d="M187.7,130.8c-4.4-2.4-7.7,2.3-7.7,2.3s-3.3-4.8-7.7-2.3c-4.4,2.4-2.9,7.7-1.3,9.5c2.3,2.5,7.5,5.8,9,9.7
			c1.5-3.8,6.8-7.2,9-9.7C190.6,138.5,191.9,133.1,187.7,130.8z"/>
		<path class="st1" d="M214,145.5c3.5,1.9,6-1.8,6-1.8s2.5,3.7,6,1.8c3.5-1.9,2.3-6,1-7.4c-1.8-2-5.9-4.6-7-7.6
			c-1.2,3-5.3,5.6-7,7.6C211.7,139.4,210.7,143.6,214,145.5z"/>
		<path class="st1" d="M220,142.5c0,0-0.4,6.8-3.6,7h7.2C220.4,149.3,220,142.5,220,142.5z"/>
		<path class="st0" d="M293.9,105.7c3.6,2,6.2-1.9,6.2-1.9s2.6,3.9,6.2,1.9c3.6-2,2.4-6.3,1.1-7.7c-1.8-2-6.1-4.7-7.3-7.8
			c-1.2,3.1-5.5,5.8-7.3,7.8C291.5,99.4,290.4,103.7,293.9,105.7z"/>
		<path class="st0" d="M300.1,102.6c0,0-0.4,7-3.7,7.3h7.5C300.6,109.6,300.1,102.6,300.1,102.6z"/>
		<path class="st1" d="M300.1,142.9c0,0-0.4,6.8-3.6,7h7.2C300.5,149.7,300.1,142.9,300.1,142.9z"/>
		<path class="st1" d="M305,136.8L305,136.8c0-0.2,0-0.4,0-0.6c0.4-2.7-1.5-5.3-4.2-5.7c-2.7-0.4-5.3,1.5-5.7,4.2
			c-0.1,0.5-0.1,0.9,0,1.4c0,0.2,0,0.4,0.1,0.6H295c-2.8,0-5,2.2-5,5s2.2,5,5,5s5-2.2,5-5l0,0c0-0.2,0-0.4-0.1-0.6h0.1
			c0,0.2-0.1,0.4-0.1,0.6c0,2.8,2.2,5,5,5s5-2.2,5-5C310,139,307.8,136.8,305,136.8L305,136.8z"/>
		<path class="st0" d="M220,102c0,0-0.5,7.6-4,7.8h8.1C220.5,109.6,220,102,220,102z"/>
		<path class="st0" d="M225.6,96.4L225.6,96.4c0-0.2,0-0.5,0-0.7c0-3.1-2.5-5.6-5.6-5.6s-5.6,2.5-5.6,5.6c0,0.2,0,0.5,0.1,0.7h-0.1
			c-3.1,0-5.6,2.5-5.6,5.6c0,3.1,2.5,5.5,5.6,5.5c3.1,0,5.6-2.5,5.6-5.6c0-0.2,0-0.5-0.1-0.7h0.1c0,0.2-0.1,0.5-0.1,0.7
			c0,3.1,2.5,5.6,5.6,5.6c3.1,0,5.6-2.5,5.6-5.6C231.1,98.9,228.6,96.4,225.6,96.4L225.6,96.4z"/>
		<rect x="320" y="80" class="st0" width="40" height="40"/>
		<rect x="360" y="80" class="st1" width="40" height="40"/>
		<rect x="360" y="120" class="st0" width="40" height="40"/>
		<rect x="320" y="120" class="st1" width="40" height="40"/>
		<polygon class="st1" points="340.2,90.2 331.7,100 340.2,109.8 348.9,100 		"/>
		<path class="st0" d="M347.7,130.8c-4.4-2.4-7.7,2.3-7.7,2.3s-3.3-4.8-7.7-2.3c-4.4,2.4-2.9,7.7-1.3,9.5c2.3,2.5,7.5,5.8,9,9.7
			c1.5-3.8,6.8-7.2,9-9.7C350.6,138.5,352,133.1,347.7,130.8z"/>
		<path class="st1" d="M374.1,145.5c3.5,1.9,6-1.8,6-1.8s2.5,3.7,6,1.8s2.3-6,1-7.4c-1.8-2-5.9-4.6-7-7.6c-1.2,3-5.3,5.6-7,7.6
			C371.7,139.4,370.7,143.6,374.1,145.5z"/>
		<path class="st1" d="M380,142.5c0,0-0.4,6.8-3.6,7h7.2C380.4,149.3,380,142.5,380,142.5z"/>
		<path class="st0" d="M380,102c0,0-0.5,7.6-4,7.8h8.1C380.5,109.6,380,102,380,102z"/>
		<path class="st0" d="M385.5,96.4L385.5,96.4c0-0.2,0-0.5,0-0.7c0-3.1-2.5-5.6-5.6-5.6c-3.1,0-5.5,2.5-5.5,5.6c0,0.2,0,0.5,0.1,0.7
			h-0.1c-3.1,0-5.6,2.5-5.6,5.5c0,3.1,2.5,5.6,5.5,5.6s5.6-2.5,5.6-5.5c0,0,0,0,0,0c0-0.2,0-0.5-0.1-0.7h0.1c0,0.2-0.1,0.5-0.1,0.7
			c0,3.1,2.5,5.6,5.5,5.6c3.1,0,5.6-2.5,5.6-5.6C391.1,98.9,388.6,96.4,385.5,96.4L385.5,96.4L385.5,96.4z"/>
	</g>
	<g>
		<rect y="160" class="st0" width="40" height="40"/>
		<rect x="40" y="160" class="st1" width="40" height="40"/>
		<rect x="80" y="160" class="st0" width="40" height="40"/>
		<rect x="120" y="160" class="st1" width="40" height="40"/>
		<rect x="40" y="200" class="st0" width="40" height="40"/>
		<rect y="200" class="st1" width="40" height="40"/>
		<rect x="120" y="200" class="st0" width="40" height="40"/>
		<rect x="80" y="200" class="st1" width="40" height="40"/>
		<polygon class="st0" points="99.9,210.2 91.4,220 99.9,229.8 108.6,220 		"/>
		<polygon class="st1" points="19.9,170.2 11.4,180 19.9,189.8 28.6,180 		"/>
		<path class="st1" d="M107.8,170.8c-4.4-2.4-7.7,2.3-7.7,2.3s-3.3-4.7-7.7-2.3c-4.4,2.4-2.9,7.7-1.3,9.5c2.3,2.5,7.5,5.8,9,9.7
			c1.5-3.8,6.8-7.2,9-9.7C110.7,178.5,112.1,173.1,107.8,170.8z"/>
		<path class="st0" d="M27.7,210.8c-4.4-2.4-7.7,2.3-7.7,2.3s-3.3-4.8-7.7-2.3c-4.4,2.4-2.9,7.7-1.3,9.5c2.3,2.5,7.5,5.8,9,9.7
			c1.5-3.8,6.8-7.2,9-9.7C30.6,218.5,32,213.1,27.7,210.8z"/>
		<path class="st1" d="M54,225.5c3.4,1.9,6-1.8,6-1.8s2.5,3.7,6,1.8s2.3-6,1-7.4c-1.8-2-5.9-4.5-7-7.5c-1.2,3-5.3,5.6-7,7.5
			C51.7,219.4,50.7,223.6,54,225.5z"/>
		<path class="st1" d="M60,222.5c0,0-0.4,6.8-3.6,7h7.2C60.4,229.3,60,222.5,60,222.5z"/>
		<path class="st0" d="M133.8,185.7c3.6,2,6.2-1.9,6.2-1.9s2.6,3.9,6.2,1.9c3.6-2,2.4-6.3,1.1-7.7c-1.8-2-6.1-4.7-7.3-7.8
			c-1.2,3.1-5.5,5.8-7.3,7.8C131.4,179.4,130.3,183.7,133.8,185.7z"/>
		<path class="st0" d="M140,182.6c0,0-0.4,7-3.7,7.3h7.5C140.5,189.6,140,182.6,140,182.6z"/>
		<path class="st1" d="M140,221.8c0,0-0.4,6.8-3.6,7h7.2C140.4,228.5,140,221.8,140,221.8z"/>
		<path class="st1" d="M145,216.8L145,216.8c0-0.2,0-0.4,0-0.6c0.4-2.7-1.5-5.3-4.2-5.7c-2.7-0.4-5.3,1.5-5.7,4.2
			c-0.1,0.5-0.1,0.9,0,1.4c0,0.2,0,0.4,0.1,0.6h-0.1c-2.8,0-5,2.2-5,5s2.2,5,5,5c2.8,0,5-2.2,5-5l0,0c0-0.2,0-0.4-0.1-0.6h0.1
			c0,0.2-0.1,0.4-0.1,0.6c0,2.8,2.2,5,5,5c2.8,0,5-2.2,5-5c0-2.8-2.2-5-5-5H145z"/>
		<path class="st0" d="M65.6,176.4L65.6,176.4c0-0.2,0-0.5,0-0.7c0-3.1-2.5-5.6-5.5-5.6c-3.1,0-5.6,2.5-5.6,5.5c0,0,0,0,0,0
			c0,0.2,0,0.5,0.1,0.7h-0.1c-3.1,0-5.5,2.5-5.5,5.6s2.5,5.5,5.5,5.5c2.7,0,4.9-1.9,5.4-4.4c-0.3,2.1-1.2,6.5-3.9,6.7h8.1
			c-2.7-0.2-3.6-4.5-3.9-6.7c0.5,2.5,2.8,4.4,5.4,4.4c3.1,0,5.6-2.5,5.6-5.5S68.7,176.4,65.6,176.4z M60,181.3h0.1
			c0,0.2-0.1,0.5-0.1,0.7C60.1,181.7,60,181.5,60,181.3z"/>
		<rect x="160" y="160" class="st0" width="40" height="40"/>
		<rect x="200" y="160" class="st1" width="40" height="40"/>
		<rect x="240" y="160" class="st0" width="40" height="40"/>
		<rect x="280" y="160" class="st1" width="40" height="40"/>
		<rect x="200" y="200" class="st0" width="40" height="40"/>
		<rect x="160" y="200" class="st1" width="40" height="40"/>
		<rect x="280" y="200" class="st0" width="40" height="40"/>
		<rect x="240" y="200" class="st1" width="40" height="40"/>
		<polygon class="st0" points="259.9,210.2 251.4,220 259.9,229.8 268.6,220 		"/>
		<polygon class="st1" points="179.9,170.2 171.4,180 179.9,189.8 188.6,180 		"/>
		<path class="st1" d="M267.7,170.7c-4.4-2.4-7.7,2.3-7.7,2.3s-3.2-4.7-7.6-2.3c-4.4,2.4-2.9,7.7-1.3,9.5c2.3,2.5,7.5,5.8,9,9.7
			c1.5-3.8,6.8-7.2,9-9.7C270.7,178.5,272,173.1,267.7,170.7z"/>
		<path class="st0" d="M187.7,210.8c-4.4-2.4-7.7,2.3-7.7,2.3s-3.3-4.8-7.7-2.3c-4.4,2.4-2.9,7.7-1.3,9.5c2.3,2.5,7.5,5.8,9,9.7
			c1.5-3.8,6.8-7.2,9-9.7C190.6,218.5,191.9,213.1,187.7,210.8z"/>
		<path class="st1" d="M214,225.5c3.5,1.9,6-1.8,6-1.8s2.5,3.7,6,1.8c3.5-1.9,2.3-6,1-7.4c-1.8-2-5.9-4.5-7-7.5
			c-1.2,3-5.3,5.6-7,7.5C211.7,219.4,210.7,223.6,214,225.5z"/>
		<path class="st1" d="M220,222.5c0,0-0.4,6.8-3.6,7h7.2C220.4,229.3,220,222.5,220,222.5z"/>
		<path class="st0" d="M293.9,185.7c3.6,2,6.2-1.9,6.2-1.9s2.6,3.8,6.2,1.9c3.6-2,2.4-6.3,1.1-7.7c-1.8-2-6.1-4.7-7.3-7.8
			c-1.2,3.1-5.5,5.8-7.3,7.8C291.5,179.4,290.4,183.7,293.9,185.7z"/>
		<path class="st0" d="M300.1,182.6c0,0-0.4,7-3.7,7.3h7.5C300.6,189.6,300.1,182.6,300.1,182.6z"/>
		<path class="st1" d="M300.1,222.9c0,0-0.4,6.8-3.6,7h7.2C300.5,229.7,300.1,222.9,300.1,222.9z"/>
		<path class="st1" d="M305,216.8L305,216.8c0-0.2,0-0.4,0-0.6c0.4-2.7-1.5-5.3-4.2-5.7c-2.7-0.4-5.3,1.5-5.7,4.2
			c-0.1,0.5-0.1,0.9,0,1.4c0,0.2,0,0.4,0.1,0.6H295c-2.8,0-5,2.2-5,5s2.2,5,5,5s5-2.2,5-5l0,0c0-0.2,0-0.4-0.1-0.6h0.1
			c0,0.2-0.1,0.4-0.1,0.6c0,2.8,2.2,5,5,5s5-2.2,5-5C310,219,307.8,216.8,305,216.8L305,216.8z"/>
		<path class="st0" d="M220,182c0,0-0.5,7.6-4,7.8h8.1C220.5,189.6,220,182,220,182z"/>
		<path class="st0" d="M225.6,176.4L225.6,176.4c0-0.2,0-0.5,0-0.7c0-3.1-2.5-5.6-5.6-5.6s-5.6,2.5-5.6,5.6c0,0.2,0,0.5,0.1,0.7
			h-0.1c-3.1,0-5.6,2.5-5.6,5.6s2.5,5.6,5.6,5.6c3.1,0,5.6-2.5,5.6-5.6c0-0.2,0-0.5-0.1-0.7h0.1c0,0.2-0.1,0.5-0.1,0.7
			c0,3.1,2.5,5.6,5.6,5.6c3.1,0,5.6-2.5,5.6-5.6C231.1,178.9,228.6,176.4,225.6,176.4L225.6,176.4z"/>
		<rect x="320" y="160" class="st0" width="40" height="40"/>
		<rect x="360" y="160" class="st1" width="40" height="40"/>
		<rect x="360" y="200" class="st0" width="40" height="40"/>
		<rect x="320" y="200" class="st1" width="40" height="40"/>
		<polygon class="st1" points="340.2,170.2 331.7,180 340.2,189.8 348.9,180 		"/>
		<path class="st0" d="M347.7,210.8c-4.4-2.4-7.7,2.3-7.7,2.3s-3.3-4.8-7.7-2.3c-4.4,2.4-2.9,7.7-1.3,9.5c2.3,2.5,7.5,5.8,9,9.7
			c1.5-3.8,6.8-7.2,9-9.7C350.6,218.5,352,213.1,347.7,210.8z"/>
		<path class="st1" d="M374.1,225.5c3.5,1.9,6-1.8,6-1.8s2.5,3.7,6,1.8s2.3-6,1-7.4c-1.8-2-5.9-4.5-7-7.5c-1.2,3-5.3,5.6-7,7.5
			C371.7,219.4,370.7,223.6,374.1,225.5z"/>
		<path class="st1" d="M380,222.5c0,0-0.4,6.8-3.6,7h7.2C380.4,229.3,380,222.5,380,222.5z"/>
		<path class="st0" d="M380,182c0,0-0.5,7.6-4,7.8h8.1C380.5,189.6,380,182,380,182z"/>
		<path class="st0" d="M385.5,176.4L385.5,176.4c0-0.2,0-0.5,0-0.7c0-3.1-2.5-5.6-5.6-5.6c-3.1,0-5.5,2.5-5.5,5.6
			c0,0.2,0,0.5,0.1,0.7h-0.1c-3.1,0-5.6,2.5-5.6,5.5c0,3.1,2.5,5.6,5.5,5.6c3.1,0,5.6-2.5,5.6-5.5c0,0,0,0,0,0c0-0.2,0-0.5-0.1-0.7
			h0.1c0,0.2-0.1,0.5-0.1,0.7c0,3.1,2.5,5.6,5.5,5.6c3.1,0,5.6-2.5,5.6-5.6C391.1,178.9,388.6,176.4,385.5,176.4L385.5,176.4
			L385.5,176.4z"/>
	</g>
	<g>
		<rect y="240" class="st0" width="40" height="40"/>
		<rect x="40" y="240" class="st1" width="40" height="40"/>
		<rect x="80" y="240" class="st0" width="40" height="40"/>
		<rect x="120" y="240" class="st1" width="40" height="40"/>
		<rect x="40" y="280" class="st0" width="40" height="40"/>
		<rect y="280" class="st1" width="40" height="40"/>
		<rect x="120" y="280" class="st0" width="40" height="40"/>
		<rect x="80" y="280" class="st1" width="40" height="40"/>
		<polygon class="st0" points="99.9,290.2 91.4,300 99.9,309.8 108.6,300 		"/>
		<polygon class="st1" points="19.9,250.2 11.4,260 19.9,269.8 28.6,260 		"/>
		<path class="st1" d="M107.8,250.8c-4.4-2.4-7.7,2.3-7.7,2.3s-3.3-4.7-7.7-2.3s-2.9,7.7-1.3,9.5c2.3,2.5,7.5,5.8,9,9.7
			c1.5-3.8,6.8-7.2,9-9.7C110.7,258.5,112.1,253.1,107.8,250.8z"/>
		<path class="st0" d="M27.7,290.8c-4.4-2.4-7.7,2.3-7.7,2.3s-3.3-4.8-7.7-2.3c-4.4,2.4-2.9,7.7-1.3,9.5c2.3,2.5,7.5,5.8,9,9.7
			c1.5-3.8,6.8-7.2,9-9.7C30.6,298.5,32,293.1,27.7,290.8z"/>
		<path class="st1" d="M54,305.5c3.4,1.9,6-1.8,6-1.8s2.5,3.7,6,1.8c3.5-1.9,2.3-6,1-7.4c-1.8-2-5.9-4.6-7-7.6c-1.2,3-5.3,5.6-7,7.6
			C51.7,299.4,50.7,303.6,54,305.5z"/>
		<path class="st1" d="M60,302.5c0,0-0.4,6.8-3.6,7h7.2C60.4,309.3,60,302.5,60,302.5z"/>
		<path class="st0" d="M133.8,265.7c3.6,2,6.2-1.9,6.2-1.9s2.6,3.8,6.2,1.9s2.4-6.3,1.1-7.7c-1.8-2-6.1-4.7-7.3-7.8
			c-1.2,3.1-5.5,5.8-7.3,7.8C131.4,259.4,130.3,263.7,133.8,265.7z"/>
		<path class="st0" d="M140,262.6c0,0-0.4,7-3.7,7.3h7.5C140.5,269.6,140,262.6,140,262.6z"/>
		<path class="st1" d="M140,301.8c0,0-0.4,6.8-3.6,7h7.2C140.4,308.5,140,301.8,140,301.8z"/>
		<path class="st1" d="M145,296.8L145,296.8c0-0.2,0-0.4,0-0.6c0.4-2.7-1.5-5.3-4.2-5.7c-2.7-0.4-5.3,1.5-5.7,4.2
			c-0.1,0.5-0.1,0.9,0,1.4c0,0.2,0,0.4,0.1,0.6h-0.1c-2.8,0-5,2.2-5,5s2.2,5,5,5c2.8,0,5-2.2,5-5l0,0c0-0.2,0-0.4-0.1-0.6h0.1
			c0,0.2-0.1,0.4-0.1,0.6c0,2.8,2.2,5,5,5c2.8,0,5-2.2,5-5c0-2.8-2.2-5-5-5H145z"/>
		<path class="st0" d="M65.6,256.4L65.6,256.4c0-0.2,0-0.5,0-0.7c0-3.1-2.5-5.6-5.5-5.6c-3.1,0-5.6,2.5-5.6,5.5c0,0,0,0,0,0
			c0,0.2,0,0.5,0.1,0.7h-0.1c-3.1,0-5.5,2.5-5.5,5.6s2.5,5.5,5.5,5.5c2.7,0,4.9-1.9,5.4-4.4c-0.3,2.1-1.2,6.5-3.9,6.7h8.1
			c-2.7-0.2-3.6-4.5-3.9-6.7c0.5,2.5,2.8,4.4,5.4,4.4c3.1,0,5.6-2.5,5.6-5.5S68.7,256.4,65.6,256.4z M60,261.3h0.1
			c0,0.2-0.1,0.5-0.1,0.7C60.1,261.7,60,261.5,60,261.3z"/>
		<rect x="160" y="240" class="st0" width="40" height="40"/>
		<rect x="200" y="240" class="st1" width="40" height="40"/>
		<rect x="240" y="240" class="st0" width="40" height="40"/>
		<rect x="280" y="240" class="st1" width="40" height="40"/>
		<rect x="200" y="280" class="st0" width="40" height="40"/>
		<rect x="160" y="280" class="st1" width="40" height="40"/>
		<rect x="280" y="280" class="st0" width="40" height="40"/>
		<rect x="240" y="280" class="st1" width="40" height="40"/>
		<polygon class="st0" points="259.9,290.2 251.4,300 259.9,309.8 268.6,300 		"/>
		<polygon class="st1" points="179.9,250.2 171.4,260 179.9,269.8 188.6,260 		"/>
		<path class="st1" d="M267.7,250.7c-4.4-2.4-7.7,2.3-7.7,2.3s-3.2-4.7-7.6-2.3c-4.4,2.4-2.9,7.7-1.3,9.5c2.3,2.5,7.5,5.8,9,9.7
			c1.5-3.8,6.8-7.2,9-9.7C270.7,258.5,272,253.1,267.7,250.7z"/>
		<path class="st0" d="M187.7,290.8c-4.4-2.4-7.7,2.3-7.7,2.3s-3.3-4.8-7.7-2.3c-4.4,2.4-2.9,7.7-1.3,9.5c2.3,2.5,7.5,5.8,9,9.7
			c1.5-3.8,6.8-7.2,9-9.7C190.6,298.5,191.9,293.1,187.7,290.8z"/>
		<path class="st1" d="M214,305.5c3.5,1.9,6-1.8,6-1.8s2.5,3.7,6,1.8c3.5-1.9,2.3-6,1-7.4c-1.8-2-5.9-4.6-7-7.6
			c-1.2,3-5.3,5.6-7,7.6C211.7,299.4,210.7,303.6,214,305.5z"/>
		<path class="st1" d="M220,302.5c0,0-0.4,6.8-3.6,7h7.2C220.4,309.3,220,302.5,220,302.5z"/>
		<path class="st0" d="M293.9,265.7c3.6,2,6.2-1.9,6.2-1.9s2.6,3.9,6.2,1.9c3.6-2,2.4-6.3,1.1-7.7c-1.8-2-6.1-4.7-7.3-7.8
			c-1.2,3.1-5.5,5.8-7.3,7.8C291.5,259.4,290.4,263.7,293.9,265.7z"/>
		<path class="st0" d="M300.1,262.6c0,0-0.4,7-3.7,7.3h7.5C300.6,269.6,300.1,262.6,300.1,262.6z"/>
		<path class="st1" d="M300.1,302.9c0,0-0.4,6.8-3.6,7h7.2C300.5,309.7,300.1,302.9,300.1,302.9z"/>
		<path class="st1" d="M305,296.8L305,296.8c0-0.2,0-0.4,0-0.6c0.4-2.7-1.5-5.3-4.2-5.7c-2.7-0.4-5.3,1.5-5.7,4.2
			c-0.1,0.5-0.1,0.9,0,1.4c0,0.2,0,0.4,0.1,0.6H295c-2.8,0-5,2.2-5,5s2.2,5,5,5s5-2.2,5-5l0,0c0-0.2,0-0.4-0.1-0.6h0.1
			c0,0.2-0.1,0.4-0.1,0.6c0,2.8,2.2,5,5,5s5-2.2,5-5C310,299,307.8,296.8,305,296.8L305,296.8z"/>
		<path class="st0" d="M220,262c0,0-0.5,7.6-4,7.8h8.1C220.5,269.6,220,262,220,262z"/>
		<path class="st0" d="M225.6,256.4L225.6,256.4c0-0.2,0-0.5,0-0.7c0-3.1-2.5-5.6-5.6-5.6s-5.6,2.5-5.6,5.6c0,0.2,0,0.5,0.1,0.7
			h-0.1c-3.1,0-5.6,2.5-5.6,5.6s2.5,5.5,5.6,5.5c3.1,0,5.6-2.5,5.6-5.5c0-0.2,0-0.5-0.1-0.7h0.1c0,0.2-0.1,0.5-0.1,0.7
			c0,3.1,2.5,5.5,5.6,5.5c3.1,0,5.6-2.5,5.6-5.5S228.6,256.4,225.6,256.4L225.6,256.4z"/>
		<rect x="320" y="240" class="st0" width="40" height="40"/>
		<rect x="360" y="240" class="st1" width="40" height="40"/>
		<rect x="360" y="280" class="st0" width="40" height="40"/>
		<rect x="320" y="280" class="st1" width="40" height="40"/>
		<polygon class="st1" points="340.2,250.2 331.7,260 340.2,269.8 348.9,260 		"/>
		<path class="st0" d="M347.7,290.8c-4.4-2.4-7.7,2.3-7.7,2.3s-3.3-4.8-7.7-2.3c-4.4,2.4-2.9,7.7-1.3,9.5c2.3,2.5,7.5,5.8,9,9.7
			c1.5-3.8,6.8-7.2,9-9.7C350.6,298.5,352,293.1,347.7,290.8z"/>
		<path class="st1" d="M374.1,305.5c3.5,1.9,6-1.8,6-1.8s2.5,3.7,6,1.8c3.5-1.9,2.3-6,1-7.4c-1.8-2-5.9-4.6-7-7.6
			c-1.2,3-5.3,5.6-7,7.6C371.7,299.4,370.7,303.6,374.1,305.5z"/>
		<path class="st1" d="M380,302.5c0,0-0.4,6.8-3.6,7h7.2C380.4,309.3,380,302.5,380,302.5z"/>
		<path class="st0" d="M380,262c0,0-0.5,7.6-4,7.8h8.1C380.5,269.6,380,262,380,262z"/>
		<path class="st0" d="M385.5,256.4L385.5,256.4c0-0.2,0-0.5,0-0.7c0-3.1-2.5-5.6-5.6-5.6c-3.1,0-5.5,2.5-5.5,5.6
			c0,0.2,0,0.5,0.1,0.7h-0.1c-3.1,0-5.6,2.5-5.6,5.5c0,3.1,2.5,5.5,5.5,5.5c3.1,0,5.6-2.5,5.6-5.5c0,0,0,0,0,0c0-0.2,0-0.5-0.1-0.7
			h0.1c0,0.2-0.1,0.5-0.1,0.7c0,3.1,2.5,5.5,5.5,5.5c3.1,0,5.6-2.5,5.6-5.5S388.6,256.4,385.5,256.4L385.5,256.4L385.5,256.4z"/>
	</g>
	<g>
		<rect y="320" class="st0" width="40" height="40"/>
		<rect x="40" y="320" class="st1" width="40" height="40"/>
		<rect x="80" y="320" class="st0" width="40" height="40"/>
		<rect x="120" y="320" class="st1" width="40" height="40"/>
		<rect x="40" y="360" class="st0" width="40" height="40"/>
		<rect y="360" class="st1" width="40" height="40"/>
		<rect x="120" y="360" class="st0" width="40" height="40"/>
		<rect x="80" y="360" class="st1" width="40" height="40"/>
		<polygon class="st0" points="99.9,370.2 91.4,380 99.9,389.8 108.6,380 		"/>
		<polygon class="st1" points="19.9,330.2 11.4,340 19.9,349.8 28.6,340 		"/>
		<path class="st1" d="M107.8,330.8c-4.4-2.4-7.7,2.3-7.7,2.3s-3.3-4.7-7.7-2.3s-2.9,7.7-1.3,9.5c2.3,2.5,7.5,5.8,9,9.7
			c1.5-3.8,6.8-7.2,9-9.7C110.7,338.5,112.1,333.1,107.8,330.8z"/>
		<path class="st0" d="M27.7,370.8c-4.4-2.4-7.7,2.3-7.7,2.3s-3.3-4.8-7.7-2.3c-4.4,2.4-2.9,7.7-1.3,9.5c2.3,2.5,7.5,5.8,9,9.7
			c1.5-3.8,6.8-7.2,9-9.7C30.6,378.5,32,373.1,27.7,370.8z"/>
		<path class="st1" d="M54,385.5c3.4,1.9,6-1.8,6-1.8s2.5,3.7,6,1.8c3.5-1.9,2.3-6,1-7.4c-1.8-2-5.9-4.6-7-7.6c-1.2,3-5.3,5.6-7,7.6
			C51.7,379.4,50.7,383.6,54,385.5z"/>
		<path class="st1" d="M60,382.5c0,0-0.4,6.8-3.6,7h7.2C60.4,389.3,60,382.5,60,382.5z"/>
		<path class="st0" d="M133.8,345.7c3.6,2,6.2-1.9,6.2-1.9s2.6,3.8,6.2,1.9s2.4-6.3,1.1-7.7c-1.8-2-6.1-4.7-7.3-7.8
			c-1.2,3.1-5.5,5.8-7.3,7.8C131.4,339.4,130.3,343.7,133.8,345.7z"/>
		<path class="st0" d="M140,342.6c0,0-0.4,7-3.7,7.3h7.5C140.5,349.6,140,342.6,140,342.6z"/>
		<path class="st1" d="M140,381.8c0,0-0.4,6.8-3.6,7h7.2C140.4,388.5,140,381.8,140,381.8z"/>
		<path class="st1" d="M145,376.8L145,376.8c0-0.2,0-0.4,0-0.6c0.4-2.7-1.5-5.3-4.2-5.7c-2.7-0.4-5.3,1.5-5.7,4.2
			c-0.1,0.5-0.1,0.9,0,1.4c0,0.2,0,0.4,0.1,0.6h-0.1c-2.8,0-5,2.2-5,5s2.2,5,5,5c2.8,0,5-2.2,5-5l0,0c0-0.2,0-0.4-0.1-0.6h0.1
			c0,0.2-0.1,0.4-0.1,0.6c0,2.8,2.2,5,5,5c2.8,0,5-2.2,5-5c0-2.8-2.2-5-5-5H145z"/>
		<path class="st0" d="M65.6,336.4L65.6,336.4c0-0.2,0-0.5,0-0.7c0-3.1-2.5-5.6-5.5-5.6c-3.1,0-5.6,2.5-5.6,5.5c0,0,0,0,0,0
			c0,0.2,0,0.5,0.1,0.7h-0.1c-3.1,0-5.5,2.5-5.5,5.6s2.5,5.5,5.5,5.5c2.7,0,4.9-1.9,5.4-4.4c-0.3,2.1-1.2,6.5-3.9,6.7h8.1
			c-2.7-0.2-3.6-4.5-3.9-6.7c0.5,2.5,2.8,4.4,5.4,4.4c3.1,0,5.6-2.5,5.6-5.5S68.7,336.4,65.6,336.4z M60,341.3h0.1
			c0,0.2-0.1,0.5-0.1,0.7C60.1,341.7,60,341.5,60,341.3z"/>
		<rect x="160" y="320" class="st0" width="40" height="40"/>
		<rect x="200" y="320" class="st1" width="40" height="40"/>
		<rect x="240" y="320" class="st0" width="40" height="40"/>
		<rect x="280" y="320" class="st1" width="40" height="40"/>
		<rect x="200" y="360" class="st0" width="40" height="40"/>
		<rect x="160" y="360" class="st1" width="40" height="40"/>
		<rect x="280" y="360" class="st0" width="40" height="40"/>
		<rect x="240" y="360" class="st1" width="40" height="40"/>
		<polygon class="st0" points="259.9,370.2 251.4,380 259.9,389.8 268.6,380 		"/>
		<polygon class="st1" points="179.9,330.2 171.4,340 179.9,349.8 188.6,340 		"/>
		<path class="st1" d="M267.7,330.7c-4.4-2.4-7.7,2.3-7.7,2.3s-3.2-4.7-7.6-2.3s-2.9,7.7-1.3,9.5c2.3,2.5,7.5,5.8,9,9.7
			c1.5-3.8,6.8-7.2,9-9.7C270.7,338.5,272,333.1,267.7,330.7z"/>
		<path class="st0" d="M187.7,370.8c-4.4-2.4-7.7,2.3-7.7,2.3s-3.3-4.8-7.7-2.3c-4.4,2.4-2.9,7.7-1.3,9.5c2.3,2.5,7.5,5.8,9,9.7
			c1.5-3.8,6.8-7.2,9-9.7C190.6,378.5,191.9,373.1,187.7,370.8z"/>
		<path class="st1" d="M214,385.5c3.5,1.9,6-1.8,6-1.8s2.5,3.7,6,1.8c3.5-1.9,2.3-6,1-7.4c-1.8-2-5.9-4.6-7-7.6
			c-1.2,3-5.3,5.6-7,7.6C211.7,379.4,210.7,383.6,214,385.5z"/>
		<path class="st1" d="M220,382.5c0,0-0.4,6.8-3.6,7h7.2C220.4,389.3,220,382.5,220,382.5z"/>
		<path class="st0" d="M293.9,345.7c3.6,2,6.2-1.9,6.2-1.9s2.6,3.9,6.2,1.9c3.6-2,2.4-6.3,1.1-7.7c-1.8-2-6.1-4.7-7.3-7.8
			c-1.2,3.1-5.5,5.8-7.3,7.8C291.5,339.4,290.4,343.7,293.9,345.7z"/>
		<path class="st0" d="M300.1,342.6c0,0-0.4,7-3.7,7.3h7.5C300.6,349.6,300.1,342.6,300.1,342.6z"/>
		<path class="st1" d="M300.1,382.9c0,0-0.4,6.8-3.6,7h7.2C300.5,389.7,300.1,382.9,300.1,382.9z"/>
		<path class="st1" d="M305,376.8L305,376.8c0-0.2,0-0.4,0-0.6c0.4-2.7-1.5-5.3-4.2-5.7c-2.7-0.4-5.3,1.5-5.7,4.2
			c-0.1,0.5-0.1,0.9,0,1.4c0,0.2,0,0.4,0.1,0.6H295c-2.8,0-5,2.2-5,5s2.2,5,5,5s5-2.2,5-5l0,0c0-0.2,0-0.4-0.1-0.6h0.1
			c0,0.2-0.1,0.4-0.1,0.6c0,2.8,2.2,5,5,5s5-2.2,5-5C310,379,307.8,376.8,305,376.8L305,376.8z"/>
		<path class="st0" d="M220,342c0,0-0.5,7.6-4,7.8h8.1C220.5,349.6,220,342,220,342z"/>
		<path class="st0" d="M225.6,336.4L225.6,336.4c0-0.2,0-0.5,0-0.7c0-3.1-2.5-5.5-5.6-5.5s-5.6,2.5-5.6,5.5c0,0.2,0,0.5,0.1,0.7
			h-0.1c-3.1,0-5.6,2.5-5.6,5.6s2.5,5.5,5.6,5.5c3.1,0,5.6-2.5,5.6-5.5c0-0.2,0-0.5-0.1-0.7h0.1c0,0.2-0.1,0.5-0.1,0.7
			c0,3.1,2.5,5.5,5.6,5.5c3.1,0,5.6-2.5,5.6-5.5S228.6,336.4,225.6,336.4L225.6,336.4z"/>
		<rect x="320" y="320" class="st0" width="40" height="40"/>
		<rect x="360" y="320" class="st1" width="40" height="40"/>
		<rect x="360" y="360" class="st0" width="40" height="40"/>
		<rect x="320" y="360" class="st1" width="40" height="40"/>
		<polygon class="st1" points="340.2,330.2 331.7,340 340.2,349.8 348.9,340 		"/>
		<path class="st0" d="M347.7,370.8c-4.4-2.4-7.7,2.3-7.7,2.3s-3.3-4.8-7.7-2.3c-4.4,2.4-2.9,7.7-1.3,9.5c2.3,2.5,7.5,5.8,9,9.7
			c1.5-3.8,6.8-7.2,9-9.7C350.6,378.5,352,373.1,347.7,370.8z"/>
		<path class="st1" d="M374.1,385.5c3.5,1.9,6-1.8,6-1.8s2.5,3.7,6,1.8c3.5-1.9,2.3-6,1-7.4c-1.8-2-5.9-4.6-7-7.6
			c-1.2,3-5.3,5.6-7,7.6C371.7,379.4,370.7,383.6,374.1,385.5z"/>
		<path class="st1" d="M380,382.5c0,0-0.4,6.8-3.6,7h7.2C380.4,389.3,380,382.5,380,382.5z"/>
		<path class="st0" d="M380,342c0,0-0.5,7.6-4,7.8h8.1C380.5,349.6,380,342,380,342z"/>
		<path class="st0" d="M385.5,336.4L385.5,336.4c0-0.2,0-0.5,0-0.7c0-3.1-2.5-5.6-5.6-5.6c-3.1,0-5.5,2.5-5.5,5.6
			c0,0.2,0,0.5,0.1,0.7h-0.1c-3.1,0-5.6,2.5-5.6,5.5c0,3.1,2.5,5.5,5.5,5.5c3.1,0,5.6-2.5,5.6-5.5c0,0,0,0,0,0c0-0.2,0-0.5-0.1-0.7
			h0.1c0,0.2-0.1,0.5-0.1,0.7c0,3.1,2.5,5.5,5.5,5.5c3.1,0,5.6-2.5,5.6-5.5S388.6,336.4,385.5,336.4L385.5,336.4L385.5,336.4z"/>
	</g>
</g>
<g>
	<path class="st2" d="M203.5,220.7c0,3.2-0.6,6.2-1.9,8.8c-1.3,2.7-3.5,5-6.6,7.1c-3.2,2.1-7.4,3.8-12.7,5.3
		c-5.3,1.5-12,2.6-20.1,3.4c0.1,4.8,1.1,8.3,3.2,10.5c2,2.2,5,3.3,8.9,3.3c1.9,0,3.5-0.2,4.8-0.5c1.4-0.3,2.5-0.7,3.6-1.2
		c1-0.5,1.9-1,2.7-1.6c0.8-0.5,1.6-1.1,2.3-1.6c0.7-0.5,1.5-0.9,2.3-1.2c0.8-0.3,1.7-0.5,2.8-0.5c0.7,0,1.3,0.2,2,0.5
		c0.6,0.3,1.2,0.8,1.7,1.3l5.4,6.3c-2.5,2.4-4.9,4.6-7.3,6.4c-2.4,1.8-4.8,3.3-7.3,4.4c-2.5,1.2-5.2,2-8,2.5
		c-2.8,0.5-5.9,0.8-9.3,0.8c-4.2,0-8-0.7-11.5-2.1c-3.5-1.4-6.5-3.4-9-6c-2.5-2.6-4.5-5.7-5.8-9.4c-1.4-3.7-2.1-7.7-2.1-12.2
		c0-3.8,0.4-7.4,1.3-11c0.8-3.6,2-6.9,3.6-10.1c1.6-3.1,3.5-6.1,5.7-8.7c2.3-2.7,4.8-4.9,7.6-6.8s5.9-3.4,9.3-4.5
		c3.4-1.1,7-1.6,10.8-1.6c3.8,0,7.1,0.5,10,1.6c2.9,1.1,5.4,2.5,7.4,4.2c2,1.7,3.5,3.7,4.6,5.9C203,216.3,203.5,218.5,203.5,220.7z
		 M178.8,216.6c-3.5,0-6.5,1.4-9.2,4.2c-2.6,2.8-4.6,6.6-5.9,11.5c4.4-0.7,8-1.4,10.7-2.1c2.7-0.7,4.8-1.6,6.3-2.4
		c1.5-0.9,2.5-1.8,3-2.9c0.5-1,0.8-2.1,0.8-3.3c0-1.2-0.5-2.3-1.4-3.3C182.2,217.1,180.8,216.6,178.8,216.6z"/>
	<path class="st2" d="M210.5,258.6c0-0.3,0-0.7,0-1.2c0-0.5,0-1.1,0.1-1.9c0.1-0.8,0.2-1.9,0.3-3.3c0.2-1.4,0.4-3.2,0.6-5.5
		l3.6-28.8h-5.6c-0.9,0-1.6-0.3-2.2-0.8c-0.6-0.6-0.9-1.4-0.9-2.5c0,0,0-0.4,0.1-1.2c0.1-0.7,0.2-1.5,0.3-2.4
		c0.1-0.8,0.2-1.6,0.3-2.3c0.1-0.7,0.1-1.1,0.1-1.2l0.2-1.8l10.7-2.2l5.9-17.2c0.7-2.2,2.2-3.3,4.6-3.3h11.4l-2.6,20.6h15.8
		l-1.8,14.4h-15.8l-3.4,27.7c-0.2,1.9-0.4,3.3-0.5,4.4c-0.1,1.1-0.2,1.9-0.3,2.4c-0.1,0.6-0.1,1-0.1,1.2c0,0.2,0,0.3,0,0.4
		c0,1.3,0.3,2.4,0.9,3.3c0.6,0.9,1.6,1.3,2.9,1.3c0.7,0,1.3-0.1,1.8-0.2c0.5-0.2,0.9-0.3,1.3-0.5c0.4-0.2,0.7-0.4,1-0.5
		c0.3-0.2,0.7-0.2,1.1-0.2c0.6,0,1.1,0.1,1.4,0.4c0.3,0.3,0.6,0.8,0.9,1.4l4.6,10c-2.8,2-5.8,3.6-9,4.6c-3.2,1-6.5,1.5-9.7,1.5
		c-2.7,0-5.2-0.4-7.3-1.1c-2.2-0.7-4-1.8-5.6-3.3c-1.6-1.4-2.8-3.1-3.7-5.1C211,263.4,210.6,261.1,210.5,258.6z"/>
	<g>
		<path class="st3" d="M343.2,233.3L331,273.8h-14.3c-2.2,0-4-0.8-5.4-2.4c-1.4-1.6-2-3.6-2-6.1c0-0.5,0-1.1,0.1-1.7
			c0.1-0.6,0.2-1.3,0.4-1.9l8.5-28.3h-17.6l-8.8,29.9c-0.5,1.9-1.3,3.5-2.4,4.9c-1.1,1.4-2.2,2.5-3.6,3.3c-1.3,0.8-2.8,1.5-4.3,1.8
			c-1.5,0.4-3.1,0.6-4.6,0.6h-13.7l12.3-40.5h-9.5c-2.2,0-4-0.5-5.2-1.5c-1.3-1-1.9-2.6-1.9-4.7c0-1.7,0.3-3.6,1-5.7l2.9-9.4h18.2
			l7.4-25H268l3.9-12.3c1-3.1,2.5-5.3,4.7-6.7c2.2-1.4,5.5-2.1,9.9-2.1h7.5l9.2-30.7c1-3.1,2.7-5.5,5.3-7.2c2.6-1.7,5.5-2.5,8.7-2.5
			h14.1L319.1,166h17.5l12.3-40.5h13.7c2.6,0,4.7,0.7,6.2,2c1.6,1.4,2.3,3.1,2.3,5.3c0,1-0.1,1.8-0.4,2.7l-9.1,30.5h20.1l-4.1,12.2
			c-1,3.1-2.6,5.3-4.8,6.7c-2.2,1.4-5.4,2.1-9.7,2.1h-7.1l-7.4,25h11.7c2.2,0,4,0.5,5.2,1.5c1.3,1,1.9,2.6,1.9,4.7
			c0,1.7-0.3,3.6-1,5.7l-2.9,9.4H343.2z M306.1,212h17.7l7.4-25h-17.5L306.1,212z"/>
	</g>
	<polygon class="st3" points="44.9,196.2 103.9,161.9 97.3,127.5 83.3,148.9 43.2,125.1 43.7,171.7 18.2,173.1 	"/>
	<path class="st3" d="M119.7,220.4c12.9-4.3,22-13.6,22-27c0-13.2-8.1-24.8-34.4-26.5l-59.2,34.4L34,274.3h49.4
		c39.4,0,52.1-13.6,52.1-31C135.5,233.5,129.5,224.4,119.7,220.4z M102.7,217.8c-0.3,1-0.8,1.7-1.5,2.1c-0.7,0.4-1.7,0.7-3.1,0.7
		h-2.2l-2.3,7.9h3.7c0.7,0,1.3,0.2,1.7,0.5c0.4,0.3,0.6,0.8,0.6,1.5c0,0.5-0.1,1.1-0.3,1.8l-0.9,3h-6.5L88,247.9h-4.5
		c-0.7,0-1.3-0.3-1.7-0.8c-0.4-0.5-0.6-1.1-0.6-1.9c0-0.2,0-0.4,0-0.5c0-0.2,0.1-0.4,0.1-0.6l2.7-8.9h-5.6l-2.8,9.4
		c-0.2,0.6-0.4,1.1-0.8,1.5c-0.3,0.4-0.7,0.8-1.1,1c-0.4,0.3-0.9,0.5-1.3,0.6c-0.5,0.1-1,0.2-1.5,0.2h-4.3l3.9-12.8h-3
		c-0.7,0-1.3-0.2-1.7-0.5c-0.4-0.3-0.6-0.8-0.6-1.5c0-0.5,0.1-1.1,0.3-1.8l0.9-3h5.7l2.3-7.9h-6.5l1.2-3.9c0.3-1,0.8-1.7,1.5-2.1
		c0.7-0.4,1.7-0.7,3.1-0.7h2.4l2.9-9.7c0.3-1,0.9-1.7,1.7-2.3c0.8-0.5,1.7-0.8,2.7-0.8h4.4l-3.9,12.8h5.5l3.9-12.8h4.3
		c0.8,0,1.5,0.2,2,0.6c0.5,0.4,0.7,1,0.7,1.7c0,0.3,0,0.6-0.1,0.8l-2.9,9.6h6.3L102.7,217.8z"/>
	<polygon class="st3" points="80.1,228.4 85.7,228.4 88.1,220.6 82.5,220.6 	"/>
</g>
</svg>
