<svg id="Layer_3" data-name="Layer 3" xmlns="http://www.w3.org/2000/svg" xmlns:xlink="http://www.w3.org/1999/xlink" viewBox="0 0 250 250"><defs><style>.cls-1{fill:#ff0;}.cls-2{fill:#fff;}.cls-3{fill:url(#linear-gradient);}.cls-4{fill:url(#linear-gradient-2);}.cls-5{opacity:0.85;}.cls-6{fill:url(#radial-gradient);}.cls-7{opacity:0.89;}.cls-8{opacity:0.56;}.cls-9{fill:#ffad09;}</style><linearGradient id="linear-gradient" x1="169.97" y1="227.29" x2="95.31" y2="97.97" gradientUnits="userSpaceOnUse"><stop offset="0" stop-color="#ffff6d"/><stop offset="0.23" stop-color="#fffa58"/><stop offset="0.71" stop-color="#ffed23"/><stop offset="1" stop-color="#ffe400"/></linearGradient><linearGradient id="linear-gradient-2" x1="73.95" y1="166.28" x2="184.73" y2="225.18" gradientUnits="userSpaceOnUse"><stop offset="0" stop-color="#ff9d00"/><stop offset="0.2" stop-color="#ffb600"/><stop offset="0.55" stop-color="#ffde00"/><stop offset="0.83" stop-color="#fff600"/><stop offset="1" stop-color="#ff0"/></linearGradient><radialGradient id="radial-gradient" cx="127.17" cy="149.28" r="47.77" gradientUnits="userSpaceOnUse"><stop offset="0" stop-color="#ff9d00"/><stop offset="0.08" stop-color="#ffa000" stop-opacity="0.96"/><stop offset="0.22" stop-color="#fa0" stop-opacity="0.87"/><stop offset="0.4" stop-color="#ffb900" stop-opacity="0.71"/><stop offset="0.6" stop-color="#ffce00" stop-opacity="0.5"/><stop offset="0.83" stop-color="#ffe900" stop-opacity="0.22"/><stop offset="1" stop-color="#ff0" stop-opacity="0"/></radialGradient></defs><title>b#SVG</title><g id="皇冠"><polygon class="cls-1" points="134.63 19.8 118.16 44.92 71.08 17 71.7 71.73 41.71 73.42 72.97 100.49 142.42 60.41 134.63 19.8"/><path class="cls-2" d="M113,71.62c3.83-2.55,7.7-5,11.59-7.47l5.84-3.65q2.92-1.83,5.87-3.61l-.53,1.17c-.9-4.15-1.79-8.3-2.63-12.46s-1.71-8.31-2.51-12.48l2.66.53c-2,3.14-4.07,6.29-6.15,9.41l-6.22,9.36,0,0a1.4,1.4,0,0,1-1.89.42L109.38,47l-9.55-6c-6.35-4-12.66-8.1-18.89-12.34,6.7,3.43,13.31,7,19.89,10.65l9.83,5.51,9.78,5.61-1.91.44,6.11-9.44c2-3.15,4.11-6.26,6.18-9.39h0a1.46,1.46,0,0,1,2.66.53q1.19,6.25,2.28,12.52c.75,4.18,1.47,8.36,2.16,12.55v0a1.08,1.08,0,0,1-.54,1.12q-3,1.66-6.06,3.28l-6.08,3.24C121.19,67.46,117.11,69.58,113,71.62Z"/><path class="cls-2" d="M90.75,84.53a38.13,38.13,0,0,1,5.41-3.7A37.7,37.7,0,0,1,102.07,78a37.69,37.69,0,0,1-5.41,3.7A38.13,38.13,0,0,1,90.75,84.53Z"/></g><path class="cls-3" d="M200.9,129.73A37.51,37.51,0,0,0,206.52,118a49,49,0,0,0,1.78-13.24,40.32,40.32,0,0,0-3-15.88,30.39,30.39,0,0,0-9.63-12.26,47.19,47.19,0,0,0-17-7.85,92.74,92.74,0,0,0-20.93-2.65L154.3,66,72.89,110.91,57.81,233h80.34a79.91,79.91,0,0,0,27.11-4.3A61.4,61.4,0,0,0,185.6,217a50.32,50.32,0,0,0,12.78-17.48,53.09,53.09,0,0,0,4.41-21.61q0-11.81-6.48-19.55t-20-11.4A56,56,0,0,0,191,139.53,43.15,43.15,0,0,0,200.9,129.73Zm-51.13,10.16a3.68,3.68,0,0,1-3.65,3.24h-5.39L139.2,155.7h4.49a3.68,3.68,0,0,1,3.67,4.12l-.55,4.53h-8.65l-1.56,12.92h-4.46a3.68,3.68,0,0,1-3.65-4.12l1.06-8.79h-8.63L119.74,174a3.68,3.68,0,0,1-3.65,3.24h-5.37l1.56-12.91h-4.16a3.68,3.68,0,0,1-3.66-4.12l.54-4.43,8.32,0,1.53-12.62h-8.31l.65-5.39a3.68,3.68,0,0,1,3.65-3.24h5.05l1.13-9.31a3.67,3.67,0,0,1,3.65-3.23H126l-1.52,12.54h8.62L134.66,122h4.47a3.68,3.68,0,0,1,3.65,4.12l-1,8.41h8.65Z"/><path class="cls-4" d="M177,147a203.82,203.82,0,0,0-36.67-.57l-1.12,9.27h4.49a3.68,3.68,0,0,1,3.67,4.12l-.55,4.53h-8.65l-1.56,12.92h-4.46a3.68,3.68,0,0,1-3.65-4.12l1.06-8.79h-8.63L119.74,174a3.68,3.68,0,0,1-3.65,3.24h-5.37l1.56-12.91h-4.16a3.68,3.68,0,0,1-3.66-4.12l.54-4.43,8.32,0,.58-4.81C75.47,161.57,64,185,64,185l-6,48h80c49,0,61.37-36,61.37-36C213.75,155.09,177,147,177,147Z"/><g class="cls-5"><path class="cls-6" d="M127.17,101.5a47.77,47.77,0,1,0,47.77,47.77A47.77,47.77,0,0,0,127.17,101.5Zm22.6,38.39a3.68,3.68,0,0,1-3.65,3.24h-5.39L139.2,155.7h4.49a3.68,3.68,0,0,1,3.67,4.12l-.55,4.53h-8.65l-1.56,12.92h-4.46a3.68,3.68,0,0,1-3.65-4.12l1.06-8.79h-8.63L119.74,174a3.68,3.68,0,0,1-3.65,3.24h-5.37l1.56-12.91h-4.16a3.68,3.68,0,0,1-3.66-4.12l.54-4.43,8.32,0,1.53-12.62h-8.31l.65-5.39a3.68,3.68,0,0,1,3.65-3.24h5.05l1.13-9.31a3.67,3.67,0,0,1,3.65-3.23H126l-1.52,12.54h8.62L134.66,122h4.47a3.68,3.68,0,0,1,3.65,4.12l-1,8.41h8.65Z"/></g><path class="cls-2" d="M198.45,89.37a31.45,31.45,0,0,1,4.65,13.52,45.88,45.88,0,0,1,.22,7.28,42.94,42.94,0,0,1-1.08,7.3,38.64,38.64,0,0,1-2.47,7.19,20.77,20.77,0,0,1-4.48,6.19,26.87,26.87,0,0,1-6.1,4.36,21.32,21.32,0,0,1-7,2.32.32.32,0,0,1-.36-.28.32.32,0,0,1,.08-.26c1.65-1.84,3.26-3.46,4.75-5.16s2.94-3.34,4.24-5,2.53-3.34,3.75-5.08a24.49,24.49,0,0,0,3-5.64,38.57,38.57,0,0,0,1.72-6.39,42.4,42.4,0,0,0,.75-6.68,31.9,31.9,0,0,0-2.18-13.37h0a.3.3,0,0,1,.53-.28Z"/><path class="cls-2" d="M201.07,113.45c-.1,1.33-.14,2.69-.37,4a29.59,29.59,0,0,1-1,4,32.36,32.36,0,0,1-1.54,3.89,33.17,33.17,0,0,1-2.13,3.66c-.8,1.17-1.58,2.37-2.46,3.5a11.69,11.69,0,0,1-3.16,2.81,13.94,13.94,0,0,1-8.31,2.19.36.36,0,0,1-.28-.52h0a25.8,25.8,0,0,1,2.39-3.49c.81-1,1.62-2,2.48-2.87a17.63,17.63,0,0,1,2.76-2.37,21,21,0,0,0,2.88-2.28,35.52,35.52,0,0,0,4.66-5.76,31.25,31.25,0,0,0,1.89-3.32c.3-.57.55-1.17.8-1.77l.78-1.81v0a.3.3,0,0,1,.58.14Z"/><g class="cls-7"><path class="cls-2" d="M184.18,157.07a20.83,20.83,0,0,1,9.39,6.68,22.82,22.82,0,0,1,4.39,11.1,38.58,38.58,0,0,1,.29,5.91,46.3,46.3,0,0,1-.48,5.87A43.92,43.92,0,0,1,194.47,198a42.88,42.88,0,0,1-15,17.93A49.36,49.36,0,0,1,158,224a75,75,0,0,0,19-11.17,46.13,46.13,0,0,0,16-27c.35-1.75.58-3.53.76-5.31a43.86,43.86,0,0,0,.2-5.34,22,22,0,0,0-2.52-10.09A24.39,24.39,0,0,0,184.18,157.07Z"/></g><g class="cls-8"><path class="cls-2" d="M127.17,226.54l-7.73.51-7.73.38-15.45.76-15.45.56c-5.15.2-10.3.28-15.45.43a2.76,2.76,0,0,1-2.83-3l0-.18c.87-9.3,1.92-18.58,2.92-27.87.48-4.65,1-9.28,1.58-13.92l1.65-13.91.82-7,.89-6.95,1.79-13.9c.59-4.63,1.19-9.26,1.85-13.89s1.37-9.24,2.21-13.84l0-.24a2.73,2.73,0,0,1,1.41-1.92l15.55-8.09,15.62-8,15.72-7.79,7.86-3.89,7.92-3.78h0a.2.2,0,0,1,.18.36L79.24,115.37l.15-.23L72.6,170.77l-7,55.6-.3-.34,61.82.1a.2.2,0,0,1,0,.4Z"/></g><polygon class="cls-9" points="120.5 157.5 131.5 157.5 133.5 141.5 122.5 141.5 120.5 157.5"/></svg>