<?xml version="1.0" encoding="utf-8"?>
<!-- Generator: Adobe Illustrator 23.0.0, SVG Export Plug-In . SVG Version: 6.00 Build 0)  -->
<svg version="1.1" id="Layer_1" xmlns="http://www.w3.org/2000/svg" xmlns:xlink="http://www.w3.org/1999/xlink" x="0px" y="0px"
	 viewBox="0 0 256 256" style="enable-background:new 0 0 256 256;" xml:space="preserve">
<style type="text/css">
	.st0{fill:#EB1C24;}
	.st1{fill:#FFFFFF;}
</style>
<rect x="0" y="0" width="256" height="256"/>
<g>
	<path class="st0" d="M59.4,118.9c-1.9-2.5-3.1-5.4-3.7-8.5c1.2-0.1,2.2-1.1,2.1-2.4c-0.1-1.2-1.1-2.2-2.4-2.1
		c-1.2,0.1-2.2,1.1-2.1,2.4c0.1,1.1,1,2.1,2.1,2.1l0,0c-0.6,1.4-1.2,2.8-1.8,4.1c-1.2,2.6-2.7,5-4.9,6.9c-2,1.6-4.2,2.3-6.8,1.5
		c-1.8-0.6-3.3-1.7-4.7-2.9c-2.9-2.6-5.3-5.8-7.4-9.1c-0.5-0.7-0.9-1.5-1.4-2.2c1-0.4,1.6-1.4,1.3-2.5c-0.2-1.2-1.4-2.1-2.6-1.8
		c-1.2,0.2-2.1,1.4-1.8,2.6c0.2,1.2,1.4,2.1,2.6,1.8c1.5,6.3,3.3,13.2,4.9,19.5c0.2,0.7,0.4,1.3,0.5,2l-0.9-12.1l0.6,0.7
		c2,2.1,4.1,4,6.7,5.4c4.2,2.2,8.4,1.3,11.4-2.3c1.4-1.7,2.5-3.7,3.4-5.8c0.3-0.6,0.5-1.1,0.8-1.8c2.2,5.4,5.6,9.1,11.6,9.7
		C63.9,123.3,61.2,121.5,59.4,118.9z"/>
	<path class="st0" d="M45.1,108.6c-0.2,4.5-0.9,8.7-4.1,12.1c3.3-1.8,4.8-4.8,5.2-8.5c1.3,1.8,2.8,3.3,4.7,4.4
		c-1.1-1.4-2.2-2.7-3.1-4.1c-1.4-1.9-2.2-4.2-2.4-6.6c0-0.1,0-0.2,0-0.3c1.2,0,2.1-1,2.1-2.2c0-1.2-1.1-2.2-2.2-2.2c0,0,0,0-0.1,0
		c-0.7,0-1.3,0.3-1.8,0.8c-0.3,0.3-0.5,0.7-0.5,1.1c0,0.1,0,0.1,0,0.2v0.1c0,1.2,1,2.2,2.2,2.1c0,0.1,0,0.2,0,0.4
		C45.2,106.8,45.2,107.7,45.1,108.6z"/>
	<path class="st0" d="M84.6,105.7c-1.1-0.4-2.3,0.1-2.8,1.2c-0.4,1.1,0.1,2.3,1.2,2.8c-0.1,0.2-0.1,0.4-0.2,0.5c-0.9,2-1.9,4-3,5.9
		c-0.9,1.6-2.2,2.9-3.8,3.8c-1.4,0.8-2.8,1.1-4.3,0.5c-1.7-0.7-2.7-2.1-3.4-3.8c-1.5-3.7-1.6-8-1.4-11.9v-0.1c1.2,0.1,2.4-0.7,2.5-2
		s-0.7-2.4-2-2.5c-1.2-0.1-2.4,0.7-2.5,2c-0.1,1.1,0.6,2.2,1.7,2.5l0,0c-0.9,4.2-2.8,8.9-6.2,11.8c0,0.1,0.1,0.2,0.1,0.3
		c1.7,3.7,5.1,7.1,9.8,6.8c0.9-0.1,1.8-0.2,2.6-0.4c2.7-0.6,4.7-2.2,6.3-4.4c1.9-2.5,3.1-5.9,3.9-8.8c0-0.1,0-0.1,0.1-0.2
		c1.1,0.4,2.3-0.2,2.7-1.4C86.3,107.1,85.7,106.1,84.6,105.7L84.6,105.7L84.6,105.7z"/>
	<path class="st1" d="M97.4,149.8c-4.3,0-9.9,0-13.9,0c-0.4,0-0.9,0-1.3-0.1c-1.7-0.4-3-2.4-2.9-3.8h17.9v-5.7H79.3
		c0.4-2.4,1.9-3.6,4.3-3.6h13.8v-6.2c-5.1,0-11.2,0-16.2,0c-4.8,0-8.1,2.5-9.4,6.9c-0.9,3-0.9,6.1-0.5,9.1c0.2,1.7,0.7,3.3,1.5,4.8
		c1.8,3.2,4.7,4.6,8.3,4.7c4.8,0.1,11.2,0,16.3,0L97.4,149.8z"/>
	<path class="st0" d="M200.7,139.2c0-0.5,0-1,0-1.5c0-2.1-0.7-4-2.4-5.3c-1.8-1.5-3.9-2-6.1-2c-3.8,0-7.7,0-11.5,0h-8.1V156h8.1
		v-19.1h0.8c2.9,0,5.8,0,8.6,0c1.6,0,2.5,0.8,2.5,2.4v6.1c0,3.2,0,6.5,0,9.7c0,0.1,0,0.2,0,0.3v0.6h8.1V139.2L200.7,139.2
		L200.7,139.2z"/>
	<path class="st1" d="M99.2,130.4v6.4h10.5v19.1h8.2v-19.1h0.9c2.6,0,6.7,0,9.7,0v-6.5C119.7,130.4,108,130.4,99.2,130.4z"/>
	<rect x="161.7" y="130.4" class="st0" width="8.1" height="25.6"/>
	<path class="st0" d="M149.5,155.8c0.1,0.1,0.1,0.1,0.2,0.2h10.4l-13.5-13.8c4.1-3.8,8.5-8,12.6-11.8h-9.5c-0.1,0.1-0.1,0.1-0.2,0.2
		c-2.9,2.7-6.3,5.8-9.1,8.6c-0.2,0.2-0.4,0.3-0.6,0.4h-1.4v-9.2h-8c0,7.6,0,18,0,25.6h8v-10.2l0,0h1.2"/>
	<path class="st0" d="M214.1,137.1c0.6-0.1,1.3-0.2,2-0.2c4.3,0,10.2,0,14.6,0v-6.5h-19.4c-3.7,0.5-6.3,2.5-7.5,6.1
		c-1.4,4.3-1.4,8.7-0.2,13c1.1,3.7,3.7,6.1,7.4,6.4h19.6v-15.4c-4.2,0-10.4,0-14.7,0v5h7.1v0.8c0,1.1,0,2.2,0,3.2l0,0v0.1h-7.3h-0.9
		c-1.5,0-2.9-1-3.3-2.5c-0.8-2.5-0.8-5.1,0-7.6C211.8,138.3,212.8,137.3,214.1,137.1z"/>
	<path class="st1" d="M66,142.6c1-0.4,1.7-1.1,2-2.1c0.5-1.4,0.6-2.8,0.4-4.3c-0.2-1.7-1.2-3.2-2.7-4.2c-1.6-1.1-3.5-1.5-5.4-1.6
		H40.1V156h1c6.5,0,14.1,0,20.3,0c1.5,0,3-0.3,4.4-0.9c2.3-1.2,3.4-3.1,3.6-5.6C69.8,146.7,69.1,144,66,142.6z M48.2,136.1H51
		c2.3,0,4.6,0,6.9,0c1.7,0,2.6,1.2,2.2,2.9c-0.2,1-1,1.6-2,1.6c-2.8,0-5.5,0-8.3,0h-1.7L48.2,136.1z M61,148.1
		c-0.2,1-0.9,1.6-2.1,1.6c-2.4,0-4.9,0-7.3,0h-3.4v-4.5h0.6c3.3,0,6.5,0,9.8,0C60.4,145.3,61.3,146.4,61,148.1L61,148.1z"/>
</g>
</svg>
