<svg id="Ebene_1" data-name="Ebene 1" xmlns="http://www.w3.org/2000/svg" viewBox="0 0 501 501"><defs><style>.cls-1{fill:#19222e;stroke:#1d1d1b;stroke-miterlimit:10;}.cls-2{fill:#fff;}.cls-3{fill:#ec407a;}</style></defs><title>Scatter-logo</title><rect class="cls-1" x="0.5" y="0.5" width="500" height="500"/><path class="cls-2" d="M166.84,165.09c3.86,1.93,9.17,5.18,12.14,8a49.86,49.86,0,0,1,0,70.06,47,47,0,0,1-34.84,14.68H85.54V100.12h44a42.56,42.56,0,0,1,31.31,13.12q12.51,12.72,12.52,30C173.4,150.83,169.76,159.9,166.84,165.09ZM129.57,131H117.14v28.86q4.22-.19,11.84-.78c7.5-.85,13.89-6.46,13.89-14.49A13.56,13.56,0,0,0,129.57,131Zm32.87,77.19a19.69,19.69,0,0,0-18.3-19.37c-9.38-.51-17.51-.1-27-.1v38.26h27A18.49,18.49,0,0,0,162.44,208.14Z" transform="translate(0.5 0.5)"/><path class="cls-2" d="M302.16,99.73v31.61h-63.4v31.79h47.55v31.61H238.76v31.8h63.4V258h-95.1V99.73Z" transform="translate(0.5 0.5)"/><path class="cls-2" d="M419.37,100.12v31.41H380.63V257.85h-31.8V131.53H310V100.12Z" transform="translate(0.5 0.5)"/><path class="cls-3" d="M85.84,361.5v-85h42.64a42.69,42.69,0,0,1,42.72,42.56,40.14,40.14,0,0,1-12.58,30,41.35,41.35,0,0,1-30.14,12.43H110.25V398H85.84Zm42.64-60.8H110.25v36.62l18.23.07a18.35,18.35,0,0,0,0-36.69Z" transform="translate(0.5 0.5)"/><path class="cls-3" d="M181.75,276.52h24.41V398H181.75Z" transform="translate(0.5 0.5)"/><path class="cls-3" d="M294.39,343.65V276.21h24.48V400.45l-73.23-69.76v67.43H221.23V274Z" transform="translate(0.5 0.5)"/><path class="cls-3" d="M358.28,276.52v53.72l31.12-53.72h28.17l-35.93,61.7L423.38,398H393.69L358.28,347V398H333.94V276.52Z" transform="translate(0.5 0.5)"/></svg>