<?xml version="1.0" encoding="utf-8"?>
<!-- Generator: Adobe Illustrator 22.1.0, SVG Export Plug-In . SVG Version: 6.00 Build 0)  -->
<svg version="1.1" id="图层_1" xmlns="http://www.w3.org/2000/svg" xmlns:xlink="http://www.w3.org/1999/xlink" x="0px" y="0px"
	 viewBox="0 0 200 200" style="enable-background:new 0 0 200 200;" xml:space="preserve">
<style type="text/css">
	.st0{fill:#3A0456;}
	.st1{fill:#F51874;}
	.st2{fill:#F7278A;}
	.st3{fill:#6D06C5;}
	.st4{fill:#5B07A3;}
	.st5{fill:#A4054E;}
	.st6{opacity:0.4643;fill:#3C0684;stroke:#3C0684;enable-background:new    ;}
	.st7{fill:#BD5B35;}
	.st8{fill:#FFB03B;}
	.st9{fill:#A40570;}
	.st10{fill:#F93573;}
	.st11{fill:#CA1E62;}
	.st12{fill:#FFBCDA;}
</style>
<g id="Logo">
	<g id="BiggameSVG">
		<path id="c" class="st0" d="M40,0h120c22.1,0,40,17.9,40,40v120c0,22.1-17.9,40-40,40H40c-22.1,0-40-17.9-40-40V40
			C0,17.9,17.9,0,40,0z"/>
		<g id="b" transform="translate(16.391304, 45.000000)">
			<path id="Combined-Shape" class="st1" d="M81.6,78.4h5.7l3.2-1.3c1.2-0.5,2.4-0.7,3.7-0.7h62.2c0.7,0,1.3-0.1,2-0.3
				c3.1-1.1,4.8-4.5,3.7-7.6l-16.8-47.9c-1.4-4-5.2-6.7-9.4-6.7h-34.3c-0.9,0-1.9-0.2-2.7-0.6L86.2,6.9c-1.1-0.6-2.5-0.6-3.6,0
				L70,13.2c-0.8,0.4-1.8,0.6-2.7,0.6H33c-4.2,0-8,2.7-9.4,6.7L6.8,68.5c-0.2,0.6-0.3,1.3-0.3,2c0,3.3,2.7,6,6,6h62.2
				c1.3,0,2.5,0.2,3.7,0.7L81.6,78.4z M153.9,82.4l-13.1,21.3c-1.1,1.8-3,2.9-5.1,2.9H98.3c-0.7,0-1.5,0.1-2.2,0.4l-9.6,3.7
				c-0.9,0.4-2,0.4-2.9,0l-9.6-3.7c-0.7-0.3-1.4-0.4-2.2-0.4H34.4c-2,0-3.9-1-5-2.7L15.1,82.4h-2.6c-6.6,0-12-5.4-12-12
				c0-1.3,0.2-2.7,0.7-4l16.8-47.9C20.2,12.1,26.2,7.8,33,7.8h34.3l12.6-6.3c2.8-1.4,6.1-1.4,8.9,0l12.6,6.3h34.3
				c6.8,0,12.9,4.3,15.1,10.7l16.8,47.9c2.2,6.3-1.1,13.1-7.4,15.3c-1.3,0.4-2.6,0.7-4,0.7H153.9z"/>
			<path id="Path" class="st2" d="M153.9,82.5l-12.1,19.7c-1.7,2.8-4.7,4.5-8,4.5H99c-1.2,0-2.3,0.2-3.4,0.6l-8.2,3.2
				c-1.5,0.6-3.1,0.6-4.5,0l-8.2-3.2c-1.1-0.4-2.2-0.6-3.4-0.6h-35c-3.1,0-6.1-1.6-7.8-4.2L15.1,82.5h1.1l13,19.3
				c1.6,2.3,4.2,3.7,7,3.7h35c1.3,0,2.6,0.2,3.8,0.7l8.2,3.2c1.2,0.5,2.6,0.5,3.8,0l8.2-3.2c1.2-0.5,2.5-0.7,3.8-0.7h34.8
				c2.9,0,5.6-1.5,7.1-4l11.8-19.2L153.9,82.5z"/>
			<path id="Rectangle-2" class="st3" d="M33,13.8h34.3c0.9,0,1.9-0.2,2.7-0.6l12.6-6.3c1.1-0.6,2.5-0.6,3.6,0l12.6,6.3
				c0.8,0.4,1.8,0.6,2.7,0.6h34.3c4.2,0,8,2.7,9.4,6.7L162,68.5c1.1,3.1-0.6,6.6-3.7,7.6c-0.6,0.2-1.3,0.3-2,0.3H94.1
				c-1.3,0-2.5,0.2-3.7,0.7L85.9,79c-1,0.4-2,0.4-3,0l-4.6-1.8c-1.2-0.5-2.4-0.7-3.7-0.7H12.5c-3.3,0-6-2.7-6-6c0-0.7,0.1-1.3,0.3-2
				l16.8-47.9C25,16.5,28.8,13.8,33,13.8z"/>
			<path id="Combined-Shape_1_" class="st4" d="M33,13.8h34.3c0.9,0,1.9-0.2,2.7-0.6l12.6-6.3c1.1-0.6,2.5-0.6,3.6,0l12.6,6.3
				c0.8,0.4,1.8,0.6,2.7,0.6h34.3c4.2,0,8,2.7,9.4,6.7L162,68.5c1.1,3.1-0.6,6.6-3.7,7.6c-0.6,0.2-1.3,0.3-2,0.3H94.1
				c-1.3,0-2.5,0.2-3.7,0.7L85.9,79c-1,0.4-2,0.4-3,0l-4.6-1.8c-1.2-0.5-2.4-0.7-3.7-0.7H12.5c-3.3,0-6-2.7-6-6c0-0.7,0.1-1.3,0.3-2
				l16.8-47.9C25,16.5,28.8,13.8,33,13.8z M33,16.8c-3,0-5.6,1.9-6.6,4.7L9.6,69.4c-0.1,0.3-0.2,0.7-0.2,1c0,1.7,1.3,3,3,3h62.2
				c1.7,0,3.3,0.3,4.8,0.9l4.6,1.8c0.2,0.1,0.5,0.1,0.7,0l4.6-1.8c1.5-0.6,3.2-0.9,4.8-0.9h62.2c0.3,0,0.7-0.1,1-0.2
				c1.6-0.5,2.4-2.3,1.8-3.8l-16.8-47.9c-1-2.8-3.6-4.7-6.6-4.7h-34.3c-1.4,0-2.8-0.3-4-1L84.8,9.6c-0.3-0.1-0.6-0.1-0.9,0
				l-12.6,6.3c-1.2,0.6-2.6,1-4,1H33z"/>
			<path id="Combined-Shape_2_" class="st5" d="M33,13.8h34.3c0.9,0,1.9-0.2,2.7-0.6l12.6-6.3c1.1-0.6,2.5-0.6,3.6,0l12.6,6.3
				c0.8,0.4,1.8,0.6,2.7,0.6h34.3c4.2,0,8,2.7,9.4,6.7L162,68.5c1.1,3.1-0.6,6.6-3.7,7.6c-0.6,0.2-1.3,0.3-2,0.3H94.1
				c-1.3,0-2.5,0.2-3.7,0.7L85.9,79c-1,0.4-2,0.4-3,0l-4.6-1.8c-1.2-0.5-2.4-0.7-3.7-0.7H12.5c-3.3,0-6-2.7-6-6c0-0.7,0.1-1.3,0.3-2
				l16.8-47.9C25,16.5,28.8,13.8,33,13.8z M33,15.8c-3.4,0-6.4,2.1-7.6,5.4L8.7,69.1c-0.1,0.4-0.2,0.9-0.2,1.3c0,2.2,1.8,4,4,4h62.2
				c1.5,0,3,0.3,4.5,0.9l4.6,1.8c0.5,0.2,1,0.2,1.5,0l4.6-1.8c1.4-0.6,2.9-0.9,4.5-0.9h62.2c0.4,0,0.9-0.1,1.3-0.2
				c2.1-0.7,3.2-3,2.5-5.1l-16.8-47.9c-1.1-3.2-4.2-5.4-7.6-5.4h-34.3c-1.2,0-2.5-0.3-3.6-0.8L85.3,8.7c-0.6-0.3-1.2-0.3-1.8,0
				L70.9,15c-1.1,0.6-2.3,0.8-3.6,0.8H33z"/>
		</g>
		<g id="a" transform="translate(37.173913, 57.826087)">
			<path id="Combined-Shape_3_" class="st6" d="M57.3,32.7L58,9.9c0.1-3.2,2.6-5.8,5.6-5.8H64c3,0,5.4,2.6,5.5,5.8l0.3,22.8
				c0,3.2-2.7,5.8-6.1,5.8h-0.5C59.9,38.6,57.2,36,57.3,32.7z M27.3,57.3H1.9c-0.6,0-1-0.4-1-1c0-0.1,0-0.2,0-0.2l9.3-39.6
				c0.8-3.6,4.1-6.2,7.8-6.2h15.6c9.2,0,14.4,4.5,13.8,11.7c-0.5,5.3-5.2,9.5-10.9,10.2l0,0.3c6.9,0.3,12,5,11.5,11.3
				C47.3,52,39.2,57.3,27.3,57.3z M21.7,20.2l-1.5,7.9c-0.1,0.8,0.4,1.4,1.2,1.4h5.3c4.7,0,7.7-2.1,8.2-5.4c0.4-3.3-1.7-5.2-5.8-5.2
				h-5.7C22.6,18.9,21.8,19.5,21.7,20.2z M17.8,48.9h6.7c5.7,0,9.2-2.1,9.7-6.1c0.5-3.8-2.3-6-7.8-6h-6.4c-0.8,0-1.7,0.6-1.8,1.4
				l-1.8,9.3C16.4,48.3,17,48.9,17.8,48.9z M125.3,57.3c-6.9,0-13.8,0-20.7,0c-15.1,0-24.6-8.6-25.3-23.6
				c-0.7-14.7,6.5-23.4,18.8-23.4c7.5,0,14.2,3.7,18.4,9.5c1.3,1.7,2.4,3.8,3.2,6.3h-6.3c-2.4,0-4.9-1.2-6.7-3.2
				c-0.1-0.1-0.1-0.2-0.2-0.2c-1.9-1.9-4.4-3-7.1-3c-6.1,0-9.2,5.1-8.4,14c0.8,9,5.8,14.4,12.7,14.4c5.4,0,8.7-3.1,8.3-7.6
				c0-0.4-0.4-0.7-0.8-0.7c0,0-1.2,0-3.7,0c-2.2,0-4.2-1.8-4.6-4c-0.3-2.2,1.2-4,3.3-4h11.9c1.9,0,3.5,1.3,3.9,3.2l4.3,21.1
				c0.1,0.5-0.2,1.1-0.8,1.2C125.4,57.3,125.4,57.3,125.3,57.3z"/>
			<polygon id="Rectangle-6" class="st7" points="124.7,52.2 126.3,52.2 126.3,55.3 124.7,55.3 			"/>
			<path id="Combined-Shape_4_" class="st7" d="M57.3,31.6L58,8.8C58.1,5.6,60.6,3,63.6,3H64c3,0,5.4,2.6,5.5,5.8l0.3,22.8
				c0,3.2-2.7,5.8-6.1,5.8h-0.5C59.9,37.4,57.2,34.8,57.3,31.6z M27.3,56.2H1.9c-0.6,0-1-0.4-1-1c0-0.1,0-0.2,0-0.2l9.3-39.6
				c0.8-3.6,4.1-6.2,7.8-6.2h15.6c9.2,0,14.4,4.5,13.8,11.7c-0.5,5.3-5.2,9.5-10.9,10.2l0,0.3c6.9,0.3,12,5,11.5,11.3
				C47.3,50.9,39.2,56.2,27.3,56.2z M21.7,19.1L20.2,27c-0.1,0.8,0.4,1.4,1.2,1.4h5.3c4.7,0,7.7-2.1,8.2-5.4
				c0.4-3.3-1.7-5.2-5.8-5.2h-5.7C22.6,17.7,21.8,18.3,21.7,19.1z M17.8,47.8h6.7c5.7,0,9.2-2.1,9.7-6.1c0.5-3.8-2.3-6-7.8-6h-6.4
				c-0.8,0-1.7,0.6-1.8,1.4l-1.8,9.3C16.4,47.1,17,47.8,17.8,47.8z M125.3,56.2c-6.9,0-13.8,0-20.7,0c-15.1,0-24.6-8.6-25.3-23.6
				C78.6,17.9,85.7,9.3,98.1,9.3c7.5,0,14.2,3.7,18.4,9.5c1.3,1.7,2.4,3.8,3.2,6.3l-6.3,0c-2.4,0-4.9-1.2-6.7-3.2
				c-0.1-0.1-0.1-0.2-0.2-0.2c-1.9-1.9-4.4-3-7.1-3c-6.1,0-9.2,5.1-8.4,14c0.8,9,5.8,14.4,12.7,14.4c5.4,0,8.7-3.1,8.3-7.6
				c0-0.4-0.4-0.7-0.8-0.7c0,0-1.2,0-3.7,0c-2.2,0-4.2-1.8-4.6-4c-0.3-2.2,1.2-4,3.3-4h11.9c1.9,0,3.5,1.3,3.9,3.2l4.3,21.1
				c0.1,0.5-0.2,1.1-0.8,1.2C125.4,56.2,125.4,56.2,125.3,56.2z"/>
			<polygon id="Rectangle" class="st7" points="0.8,52.2 2.4,52.2 2.4,55.3 0.8,55.3 			"/>
			<polygon id="Rectangle-5" class="st7" points="118.1,22 119.7,22 119.7,25 118.1,25 			"/>
			<path id="Combined-Shape_5_" class="st8" d="M57.3,28.6L58,5.8C58.1,2.6,60.6,0,63.6,0H64c3,0,5.4,2.6,5.5,5.8l0.3,22.8
				c0,3.2-2.7,5.8-6.1,5.8h-0.5C59.9,34.4,57.2,31.8,57.3,28.6z M27.3,53.2H1.9c-0.6,0-1-0.4-1-1c0-0.1,0-0.2,0-0.2l9.3-39.6
				c0.8-3.6,4.1-6.2,7.8-6.2h15.6c9.2,0,14.4,4.5,13.8,11.7c-0.5,5.3-5.2,9.5-10.9,10.2l0,0.3c6.9,0.3,12,5,11.5,11.3
				C47.3,47.9,39.2,53.2,27.3,53.2z M21.7,16.1L20.2,24c-0.1,0.8,0.4,1.4,1.2,1.4h5.3c4.7,0,7.7-2.1,8.2-5.4
				c0.4-3.3-1.7-5.2-5.8-5.2h-5.7C22.6,14.7,21.8,15.3,21.7,16.1z M17.8,44.8h6.7c5.7,0,9.2-2.1,9.7-6.1c0.5-3.8-2.3-6-7.8-6h-6.4
				c-0.8,0-1.7,0.6-1.8,1.4l-1.8,9.3C16.4,44.1,17,44.8,17.8,44.8z M125.3,53.2c-6.9,0-13.8,0-20.7,0c-15.1,0-24.6-8.6-25.3-23.6
				C78.6,14.9,85.7,6.3,98.1,6.3c7.5,0,14.2,3.7,18.4,9.5c1.3,1.7,2.4,3.8,3.2,6.3l-6.3,0c-2.4,0-4.9-1.2-6.7-3.2
				c-0.1-0.1-0.1-0.2-0.2-0.2c-1.9-1.9-4.4-3-7.1-3c-6.1,0-9.2,5.1-8.4,14c0.8,9,5.8,14.4,12.7,14.4c5.4,0,8.7-3.1,8.3-7.6
				c0-0.4-0.4-0.7-0.8-0.7c0,0-1.2,0-3.7,0c-2.2,0-4.2-1.8-4.6-4c-0.3-2.2,1.2-4,3.3-4h11.9c1.9,0,3.5,1.3,3.9,3.2l4.3,21.1
				c0.1,0.5-0.2,1.1-0.8,1.2C125.4,53.2,125.4,53.2,125.3,53.2z"/>
			<path id="Oval-3-Copy" class="st4" d="M63.9,45.5c4.9-3.2,8.3-2.9,10.2,0.7c1.9,3.8-1.6,9-10.4,15.8C54.7,55.3,51.2,50,53.2,46.2
				c1.9-3.7,5.3-3.9,10.2-0.7l0,0C63.5,45.6,63.7,45.6,63.9,45.5z"/>
			<path id="Oval-3-Copy_1_" class="st9" d="M63.9,44.4c4.9-3.2,8.3-2.9,10.2,0.7c1.9,3.8-1.6,9-10.4,15.8
				c-8.9-6.8-12.4-12.1-10.4-15.8c1.9-3.7,5.3-3.9,10.2-0.7l0,0C63.5,44.5,63.7,44.5,63.9,44.4z"/>
			<path id="Oval-3-Copy_2_" class="st10" d="M63.9,41.4c4.9-3.2,8.3-2.9,10.2,0.7c1.9,3.8-1.6,9-10.4,15.8
				c-8.9-6.8-12.4-12.1-10.4-15.8c1.9-3.7,5.3-3.9,10.2-0.7l0,0C63.5,41.5,63.7,41.5,63.9,41.4z"/>
		</g>
		<path id="Combined-Shape_6_" class="st11" d="M42,131.1h18.8c0.9,0,1.6,0.7,1.6,1.6c0,0.9-0.7,1.6-1.6,1.6H45.1
			C43.4,134.3,42,132.9,42,131.1z M157.8,131.1c0,1.7-1.4,3.1-3.1,3.1H139c-0.9,0-1.6-0.7-1.6-1.6c0-0.9,0.7-1.6,1.6-1.6H157.8z
			 M49.8,137.4h11c0.9,0,1.6,0.7,1.6,1.6c0,0.9-0.7,1.6-1.6,1.6H53C51.2,140.5,49.8,139.1,49.8,137.4z M150,137.4
			c0,1.7-1.4,3.1-3.1,3.1H139c-0.9,0-1.6-0.7-1.6-1.6c0-0.9,0.7-1.6,1.6-1.6H150z M83.5,137c0,4.1-2.6,6.6-7.1,6.6
			c-4.8,0-7.7-3-7.7-7.9c0-4.8,2.9-7.8,7.6-7.8c3.7,0,6.6,2.1,7,5.1l-2.6,0c-0.4,0-0.8-0.2-1-0.6c-0.1-0.2-0.1-0.3-0.2-0.4
			c-0.7-1-1.8-1.5-3.2-1.5c-2.6,0-4.2,1.9-4.2,5.1c0,3.3,1.7,5.3,4.4,5.3c2.2,0,3.7-1.3,3.8-3.1c0-0.1-0.1-0.2-0.2-0.2c0,0,0,0,0,0
			h-2c-0.7,0-1.2-0.5-1.2-1.2s0.5-1.2,1.2-1.2h5.5V137z M95.5,142.6l-0.7-2.2c-0.1-0.4-0.6-0.8-1.1-0.8h-4c-0.5,0-0.9,0.3-1.1,0.8
			l-0.7,2.2c-0.1,0.4-0.6,0.8-1.1,0.8h-2.6l4.9-13.4c0.4-1.1,1.4-1.8,2.6-1.8c1.2,0,2.2,0.7,2.6,1.8l4.9,13.4h-2.7
			C96.1,143.4,95.6,143.1,95.5,142.6z M90.4,137.4H93c0.3,0,0.6-0.2,0.6-0.5c0-0.1,0-0.1,0-0.2l-1.6-4.9c0-0.1-0.2-0.2-0.3-0.1
			c-0.1,0-0.1,0.1-0.1,0.1l-1.6,4.9c-0.1,0.3,0.1,0.6,0.4,0.7C90.3,137.3,90.3,137.4,90.4,137.4z M117.9,130.1v13.3h-1.9
			c-0.6,0-1.1-0.5-1.1-1.1v-8.1c0-0.1-0.1-0.2-0.2-0.2c-0.1,0-0.2,0.1-0.2,0.1l-3.6,8.2c-0.2,0.6-0.8,0.9-1.5,0.9
			c-0.6,0-1.2-0.4-1.5-0.9l-3.6-8.2c0-0.1-0.2-0.2-0.3-0.1c-0.1,0-0.1,0.1-0.1,0.2v8.1c0,0.6-0.5,1.1-1.1,1.1h-1.9v-13.3
			c0-1,0.9-1.8,1.9-1.8c1.2,0,2.2,0.7,2.7,1.7l3.7,8.5c0,0.1,0.2,0.2,0.3,0.1c0.1,0,0.1-0.1,0.1-0.1l3.7-8.5c0.4-1,1.5-1.7,2.7-1.7
			C117,128.3,117.9,129.1,117.9,130.1z M131.2,142.9v0.5h-8.4c-1.3,0-2.3-1-2.3-2.1v-10.8c0-1.2,1-2.1,2.3-2.1h8.4v0.5
			c0,1.2-1,2.1-2.3,2.1h-3.9c-0.6,0-1.1,0.5-1.1,1.1v1.5c0,0.6,0.5,1.1,1.1,1.1h4.4c0.7,0,1.3,0.5,1.3,1.2c0,0.7-0.6,1.2-1.3,1.2
			h-4.4c-0.6,0-1.1,0.5-1.1,1.1v1.7c0,0.6,0.5,1.1,1.1,1.1h3.9C130.2,140.8,131.2,141.7,131.2,142.9z"/>
		<path id="Combined-Shape_7_" class="st12" d="M42,132.1h18.8c0.9,0,1.6,0.7,1.6,1.6c0,0.9-0.7,1.6-1.6,1.6H45.1
			C43.4,135.3,42,133.9,42,132.1z M157.8,132.1c0,1.7-1.4,3.1-3.1,3.1H139c-0.9,0-1.6-0.7-1.6-1.6c0-0.9,0.7-1.6,1.6-1.6H157.8z
			 M49.8,138.4h11c0.9,0,1.6,0.7,1.6,1.6c0,0.9-0.7,1.6-1.6,1.6H53C51.2,141.5,49.8,140.1,49.8,138.4z M150,138.4
			c0,1.7-1.4,3.1-3.1,3.1H139c-0.9,0-1.6-0.7-1.6-1.6c0-0.9,0.7-1.6,1.6-1.6H150z M83.5,138c0,4.1-2.6,6.6-7.1,6.6
			c-4.8,0-7.7-3-7.7-7.9c0-4.8,2.9-7.8,7.6-7.8c3.7,0,6.6,2.1,7,5.1l-2.6,0c-0.4,0-0.8-0.2-1-0.6c-0.1-0.2-0.1-0.3-0.2-0.4
			c-0.7-1-1.8-1.5-3.2-1.5c-2.6,0-4.2,1.9-4.2,5.1c0,3.3,1.7,5.3,4.4,5.3c2.2,0,3.7-1.3,3.8-3.1c0-0.1-0.1-0.2-0.2-0.2c0,0,0,0,0,0
			h-2c-0.7,0-1.2-0.5-1.2-1.2s0.5-1.2,1.2-1.2h5.5V138z M95.5,143.6l-0.7-2.2c-0.1-0.4-0.6-0.8-1.1-0.8h-4c-0.5,0-0.9,0.3-1.1,0.8
			l-0.7,2.2c-0.1,0.4-0.6,0.8-1.1,0.8h-2.6l4.9-13.4c0.4-1.1,1.4-1.8,2.6-1.8c1.2,0,2.2,0.7,2.6,1.8l4.9,13.4h-2.7
			C96.1,144.4,95.6,144.1,95.5,143.6z M90.4,138.4H93c0.3,0,0.6-0.2,0.6-0.5c0-0.1,0-0.1,0-0.2l-1.6-4.9c0-0.1-0.2-0.2-0.3-0.1
			c-0.1,0-0.1,0.1-0.1,0.1l-1.6,4.9c-0.1,0.3,0.1,0.6,0.4,0.7C90.3,138.3,90.3,138.4,90.4,138.4z M117.9,131.1v13.3h-1.9
			c-0.6,0-1.1-0.5-1.1-1.1v-8.1c0-0.1-0.1-0.2-0.2-0.2c-0.1,0-0.2,0.1-0.2,0.1l-3.6,8.2c-0.2,0.6-0.8,0.9-1.5,0.9
			c-0.6,0-1.2-0.4-1.5-0.9l-3.6-8.2c0-0.1-0.2-0.2-0.3-0.1c-0.1,0-0.1,0.1-0.1,0.2v8.1c0,0.6-0.5,1.1-1.1,1.1h-1.9v-13.3
			c0-1,0.9-1.8,1.9-1.8c1.2,0,2.2,0.7,2.7,1.7l3.7,8.5c0,0.1,0.2,0.2,0.3,0.1c0.1,0,0.1-0.1,0.1-0.1l3.7-8.5c0.4-1,1.5-1.7,2.7-1.7
			C117,129.3,117.9,130.1,117.9,131.1z M131.2,143.9v0.5h-8.4c-1.3,0-2.3-1-2.3-2.1v-10.8c0-1.2,1-2.1,2.3-2.1h8.4v0.5
			c0,1.2-1,2.1-2.3,2.1h-3.9c-0.6,0-1.1,0.5-1.1,1.1v1.5c0,0.6,0.5,1.1,1.1,1.1h4.4c0.7,0,1.3,0.5,1.3,1.2c0,0.7-0.6,1.2-1.3,1.2
			h-4.4c-0.6,0-1.1,0.5-1.1,1.1v1.7c0,0.6,0.5,1.1,1.1,1.1h3.9C130.2,141.8,131.2,142.7,131.2,143.9z"/>
	</g>
</g>
</svg>
