<svg width="400" height="400" viewBox="0 0 400 400" fill="none" xmlns="http://www.w3.org/2000/svg">
<rect width="400" height="400" rx="25" fill="#070842"/>
<g filter="url(#filter0_d)">
<mask id="path-2-inside-1" fill="white">
<path d="M365 200C365 108.873 291.128 35 200 35C108.873 35 35 108.873 35 200C35 291.127 108.873 365 200 365C291.128 365 365 291.127 365 200Z"/>
</mask>
<path d="M365 200H356H365ZM200 35V26V35ZM35 200H26H35ZM200 365V356V365ZM374 200C374 103.902 296.098 26 200 26V44C286.157 44 356 113.843 356 200H374ZM200 26C103.903 26 26 103.902 26 200H44C44 113.843 113.844 44 200 44V26ZM26 200C26 296.098 103.903 374 200 374V356C113.844 356 44 286.156 44 200H26ZM200 374C296.098 374 374 296.097 374 200H356C356 286.156 286.157 356 200 356V374Z" fill="#03BAF5" mask="url(#path-2-inside-1)"/>
</g>
<g filter="url(#filter1_d)">
<mask id="path-4-inside-2" fill="white">
<path d="M343 200C343 121.023 278.977 57.0002 200 57.0002C121.023 57.0002 57.0002 121.023 57.0002 200C57.0002 278.977 121.023 343 200 343C278.977 343 343 278.977 343 200Z"/>
</mask>
<path d="M343 200H331.5H343ZM200 57.0002V68.5002V57.0002ZM57.0002 200H45.5002H57.0002ZM200 343V354.5V343ZM354.5 200C354.5 189.697 353.49 179.618 351.56 169.86L328.997 174.324C330.638 182.619 331.5 191.203 331.5 200H354.5ZM328.47 114.15C317.194 97.306 302.695 82.8066 285.851 71.5301L273.056 90.6424C287.401 100.246 299.754 112.6 309.358 126.945L328.47 114.15ZM230.14 48.4407C220.383 46.5104 210.304 45.5002 200 45.5002V68.5002C208.797 68.5002 217.382 69.3624 225.677 71.0034L230.14 48.4407ZM200 45.5002C189.697 45.5002 179.618 46.5104 169.86 48.4407L174.324 71.0034C182.619 69.3624 191.203 68.5002 200 68.5002V45.5002ZM114.149 71.5302C97.3059 82.8066 82.8065 97.306 71.5301 114.15L90.6424 126.945C100.246 112.6 112.6 100.246 126.945 90.6425L114.149 71.5302ZM48.4407 169.86C46.5104 179.618 45.5002 189.697 45.5002 200H68.5002C68.5002 191.203 69.3624 182.619 71.0034 174.324L48.4407 169.86ZM45.5002 200C45.5002 210.304 46.5104 220.383 48.4407 230.14L71.0034 225.677C69.3624 217.382 68.5002 208.797 68.5002 200H45.5002ZM71.5303 285.851C82.8067 302.695 97.3061 317.194 114.15 328.47L126.945 309.358C112.6 299.754 100.246 287.401 90.6425 273.056L71.5303 285.851ZM169.86 351.56C179.618 353.49 189.697 354.5 200 354.5V331.5C191.203 331.5 182.619 330.638 174.324 328.997L169.86 351.56ZM200 354.5C210.304 354.5 220.383 353.49 230.14 351.56L225.677 328.997C217.381 330.638 208.797 331.5 200 331.5V354.5ZM285.851 328.47C302.694 317.194 317.194 302.695 328.47 285.851L309.358 273.056C299.754 287.401 287.401 299.754 273.056 309.358L285.851 328.47ZM351.56 230.14C353.49 220.383 354.5 210.304 354.5 200H331.5C331.5 208.797 330.638 217.382 328.997 225.677L351.56 230.14ZM343 200H320H343ZM200 57.0002L200 80.0002L200 57.0002ZM57.0002 200H34.0002H57.0002ZM200 343L200 366L200 343ZM366 200C366 188.944 364.916 178.117 362.841 167.629L317.716 176.556C319.212 184.12 320 191.957 320 200H366ZM338.027 107.752C325.914 89.6592 310.341 74.0867 292.249 61.974L266.658 100.199C279.754 108.966 291.034 120.246 299.802 133.342L338.027 107.752ZM232.372 37.1593C221.884 35.0844 211.057 34.0002 200 34.0002L200 80.0002C208.044 80.0002 215.881 80.7884 223.445 82.2848L232.372 37.1593ZM200 34.0002C188.943 34.0002 178.117 35.0844 167.628 37.1593L176.556 82.2848C184.12 80.7884 191.957 80.0002 200 80.0002L200 34.0002ZM107.752 61.974C89.6591 74.0868 74.0866 89.6592 61.9739 107.752L100.199 133.343C108.966 120.246 120.246 108.966 133.342 100.199L107.752 61.974ZM37.1593 167.629C35.0844 178.117 34.0002 188.944 34.0002 200H80.0002C80.0002 191.957 80.7884 184.12 82.2848 176.556L37.1593 167.629ZM34.0002 200C34.0002 211.057 35.0844 221.884 37.1593 232.372L82.2848 223.445C80.7884 215.881 80.0002 208.044 80.0002 200H34.0002ZM61.9741 292.249C74.0869 310.341 89.6593 325.914 107.752 338.026L133.343 299.802C120.246 291.034 108.966 279.754 100.199 266.658L61.9741 292.249ZM167.628 362.841C178.117 364.916 188.943 366 200 366L200 320C191.957 320 184.12 319.212 176.556 317.716L167.628 362.841ZM200 366C211.057 366 221.884 364.916 232.372 362.841L223.445 317.716C215.881 319.212 208.044 320 200 320L200 366ZM292.249 338.027C310.341 325.914 325.914 310.341 338.026 292.249L299.802 266.658C291.034 279.754 279.754 291.034 266.658 299.802L292.249 338.027ZM362.841 232.372C364.916 221.884 366 211.057 366 200H320C320 208.044 319.212 215.881 317.716 223.445L362.841 232.372Z" fill="#03BAF5" mask="url(#path-4-inside-2)"/>
</g>
<g filter="url(#filter2_d)">
<path d="M112.424 200.001C112.424 151.712 151.709 112.426 199.998 112.426C248.287 112.426 287.573 151.712 287.573 200.001C287.573 248.289 248.287 287.575 199.998 287.575C151.709 287.575 112.424 248.289 112.424 200.001ZM108.332 200.001C108.332 250.745 149.254 291.667 199.998 291.667C250.742 291.667 291.665 250.745 291.665 200.001C291.665 149.257 250.742 108.334 199.998 108.334C149.254 109.152 108.332 150.075 108.332 200.001Z" fill="#FDCA16"/>
<path d="M108.332 200.001L104.832 200.001L108.332 200.001ZM199.998 108.334L199.998 104.834L199.97 104.834L199.942 104.834L199.998 108.334ZM115.924 200.001C115.924 153.645 153.642 115.926 199.998 115.926L199.998 108.926C149.776 108.926 108.924 149.779 108.924 200.001L115.924 200.001ZM199.998 115.926C246.354 115.926 284.073 153.645 284.073 200.001L291.073 200.001C291.073 149.779 250.22 108.926 199.998 108.926L199.998 115.926ZM284.073 200.001C284.073 246.356 246.354 284.075 199.998 284.075L199.998 291.075C250.22 291.075 291.073 250.222 291.073 200.001L284.073 200.001ZM199.998 284.075C153.642 284.075 115.924 246.356 115.924 200.001L108.924 200.001C108.924 250.222 149.776 291.075 199.998 291.075L199.998 284.075ZM104.832 200.001C104.832 252.678 147.322 295.167 199.998 295.167L199.998 288.167C151.187 288.167 111.832 248.812 111.832 200.001L104.832 200.001ZM199.998 295.167C252.675 295.167 295.165 252.678 295.165 200.001L288.165 200.001C288.165 248.812 248.809 288.167 199.998 288.167L199.998 295.167ZM295.165 200.001C295.165 147.324 252.675 104.834 199.998 104.834L199.998 111.834C248.809 111.834 288.165 151.19 288.165 200.001L295.165 200.001ZM199.942 104.834C147.34 105.682 104.832 148.111 104.832 200.001L111.832 200.001C111.832 152.038 151.169 112.621 200.055 111.833L199.942 104.834Z" fill="#FDCA16"/>
</g>
<g filter="url(#filter3_d)">
<path d="M223.052 247.665H201.377C198.248 247.665 196.007 246.733 194.652 244.868C193.33 242.961 192.668 239.948 192.668 235.829V164.167C192.668 159.961 193.346 156.948 194.7 155.128C196.087 153.263 198.313 152.331 201.377 152.331H224.358C227.745 152.331 230.68 152.613 233.164 153.177C235.647 153.74 237.873 154.824 239.84 156.428C241.518 157.772 243.001 159.485 244.291 161.565C245.582 163.603 246.565 165.879 247.243 168.394C247.92 170.865 248.259 173.488 248.259 176.262C248.259 185.8 244.711 192.78 237.615 197.202C246.936 201.19 251.597 208.95 251.597 220.482C251.597 225.815 250.581 230.627 248.549 234.919C246.517 239.167 243.775 242.311 240.324 244.348C238.163 245.562 235.68 246.429 232.873 246.949C230.067 247.426 226.793 247.665 223.052 247.665ZM221.988 205.33H207.038V233.163H222.471C232.18 233.163 237.034 228.459 237.034 219.052C237.034 214.239 235.776 210.75 233.26 208.582C230.745 206.414 226.987 205.33 221.988 205.33ZM207.038 166.833V191.479H220.197C223.778 191.479 226.535 191.024 228.471 190.113C230.438 189.203 231.938 187.469 232.97 184.911C233.777 183.09 234.18 181.053 234.18 178.798C234.18 173.986 232.906 170.8 230.358 169.239C227.809 167.635 223.923 166.833 218.698 166.833H207.038Z" fill="#FDCA16"/>
<path d="M177.213 247.665H198.888C202.017 247.665 204.258 246.733 205.613 244.868C206.936 242.961 207.597 239.948 207.597 235.829V164.167C207.597 159.961 206.919 156.948 205.565 155.128C204.178 153.263 201.952 152.331 198.888 152.331H175.907C172.52 152.331 169.585 152.613 167.102 153.177C164.618 153.74 162.392 154.824 160.425 156.428C158.748 157.772 157.264 159.485 155.974 161.565C154.684 163.603 153.7 165.879 153.023 168.394C152.345 170.865 152.007 173.488 152.007 176.262C152.007 185.8 155.555 192.78 162.65 197.202C153.329 201.19 148.668 208.95 148.668 220.482C148.668 225.815 149.684 230.627 151.716 234.919C153.748 239.167 156.49 242.311 159.941 244.348C162.102 245.562 164.586 246.429 167.392 246.949C170.198 247.426 173.472 247.665 177.213 247.665ZM178.278 205.33H193.228V233.163H177.794C168.085 233.163 163.231 228.459 163.231 219.052C163.231 214.239 164.489 210.75 167.005 208.582C169.521 206.414 173.278 205.33 178.278 205.33ZM193.228 166.833V191.479H180.068C176.488 191.479 173.73 191.024 171.795 190.113C169.827 189.203 168.327 187.469 167.295 184.911C166.489 183.09 166.086 181.053 166.086 178.798C166.086 173.986 167.36 170.8 169.908 169.239C172.456 167.635 176.342 166.833 181.568 166.833H193.228Z" fill="#FDCA16"/>
</g>
<defs>
<filter id="filter0_d" x="25" y="25" width="350" height="350" filterUnits="userSpaceOnUse" color-interpolation-filters="sRGB">
<feFlood flood-opacity="0" result="BackgroundImageFix"/>
<feColorMatrix in="SourceAlpha" type="matrix" values="0 0 0 0 0 0 0 0 0 0 0 0 0 0 0 0 0 0 127 0"/>
<feOffset/>
<feGaussianBlur stdDeviation="5"/>
<feColorMatrix type="matrix" values="0 0 0 0 0.0117647 0 0 0 0 0.729412 0 0 0 0 0.960784 0 0 0 0.8 0"/>
<feBlend mode="normal" in2="BackgroundImageFix" result="effect1_dropShadow"/>
<feBlend mode="normal" in="SourceGraphic" in2="effect1_dropShadow" result="shape"/>
</filter>
<filter id="filter1_d" x="47.0002" y="47.0002" width="306" height="306" filterUnits="userSpaceOnUse" color-interpolation-filters="sRGB">
<feFlood flood-opacity="0" result="BackgroundImageFix"/>
<feColorMatrix in="SourceAlpha" type="matrix" values="0 0 0 0 0 0 0 0 0 0 0 0 0 0 0 0 0 0 127 0"/>
<feOffset/>
<feGaussianBlur stdDeviation="5"/>
<feColorMatrix type="matrix" values="0 0 0 0 0.0117647 0 0 0 0 0.729412 0 0 0 0 0.960784 0 0 0 0.8 0"/>
<feBlend mode="normal" in2="BackgroundImageFix" result="effect1_dropShadow"/>
<feBlend mode="normal" in="SourceGraphic" in2="effect1_dropShadow" result="shape"/>
</filter>
<filter id="filter2_d" x="94.832" y="94.8338" width="210.333" height="210.333" filterUnits="userSpaceOnUse" color-interpolation-filters="sRGB">
<feFlood flood-opacity="0" result="BackgroundImageFix"/>
<feColorMatrix in="SourceAlpha" type="matrix" values="0 0 0 0 0 0 0 0 0 0 0 0 0 0 0 0 0 0 127 0"/>
<feOffset/>
<feGaussianBlur stdDeviation="5"/>
<feColorMatrix type="matrix" values="0 0 0 0 0.992157 0 0 0 0 0.792157 0 0 0 0 0.0862745 0 0 0 0.8 0"/>
<feBlend mode="normal" in2="BackgroundImageFix" result="effect1_dropShadow"/>
<feBlend mode="normal" in="SourceGraphic" in2="effect1_dropShadow" result="shape"/>
</filter>
<filter id="filter3_d" x="138.668" y="142.331" width="122.929" height="115.333" filterUnits="userSpaceOnUse" color-interpolation-filters="sRGB">
<feFlood flood-opacity="0" result="BackgroundImageFix"/>
<feColorMatrix in="SourceAlpha" type="matrix" values="0 0 0 0 0 0 0 0 0 0 0 0 0 0 0 0 0 0 127 0"/>
<feOffset/>
<feGaussianBlur stdDeviation="5"/>
<feColorMatrix type="matrix" values="0 0 0 0 0.992157 0 0 0 0 0.792157 0 0 0 0 0.0862745 0 0 0 0.8 0"/>
<feBlend mode="normal" in2="BackgroundImageFix" result="effect1_dropShadow"/>
<feBlend mode="normal" in="SourceGraphic" in2="effect1_dropShadow" result="shape"/>
</filter>
</defs>
</svg>
