<?xml version="1.0" encoding="UTF-8"?>
<!DOCTYPE svg PUBLIC "-//W3C//DTD SVG 1.1//EN" "http://www.w3.org/Graphics/SVG/1.1/DTD/svg11.dtd">
<!-- Creator: CorelDRAW X7 -->
<svg xmlns="http://www.w3.org/2000/svg" xml:space="preserve" width="100mm" height="100mm" version="1.1" style="shape-rendering:geometricPrecision; text-rendering:geometricPrecision; image-rendering:optimizeQuality; fill-rule:evenodd; clip-rule:evenodd"
viewBox="0 0 10000 10000"
 xmlns:xlink="http://www.w3.org/1999/xlink">
 <defs>
  <style type="text/css">
   <![CDATA[
    .str0 {stroke:black;stroke-width:150}
    .str7 {stroke:black;stroke-width:82;stroke-linecap:round;stroke-linejoin:round}
    .str2 {stroke:black;stroke-width:82;stroke-linecap:round;stroke-linejoin:round}
    .str3 {stroke:black;stroke-width:82;stroke-linecap:round;stroke-linejoin:round}
    .str1 {stroke:black;stroke-width:82;stroke-linecap:round;stroke-linejoin:round}
    .str8 {stroke:black;stroke-width:54.67;stroke-linecap:round;stroke-linejoin:round}
    .str5 {stroke:black;stroke-width:54.67;stroke-linecap:round;stroke-linejoin:round}
    .str4 {stroke:black;stroke-width:54.67;stroke-linecap:round;stroke-linejoin:round}
    .str6 {stroke:black;stroke-width:54.67;stroke-linecap:round;stroke-linejoin:round}
    .fil1 {fill:none}
    .fil19 {fill:black}
    .fil13 {fill:#E8A860}
    .fil6 {fill:#FFF3E6}
    .fil11 {fill:white}
    .fil18 {fill:black;fill-rule:nonzero}
    .fil5 {fill:#996633;fill-opacity:0.101961}
    .fil12 {fill:#996633;fill-opacity:0.200000}
    .fil15 {fill:black;fill-opacity:0.501961}
    .fil0 {fill:url(#id0)}
    .fil17 {fill:url(#id1)}
    .fil22 {fill:url(#id2)}
    .fil4 {fill:url(#id3)}
    .fil9 {fill:url(#id4)}
    .fil10 {fill:url(#id5)}
    .fil8 {fill:url(#id6)}
    .fil3 {fill:url(#id7)}
    .fil14 {fill:url(#id8)}
    .fil16 {fill:url(#id9)}
    .fil20 {fill:url(#id10)}
    .fil23 {fill:url(#id11)}
    .fil7 {fill:url(#id12)}
    .fil2 {fill:url(#id13)}
    .fil21 {fill:url(#id14)}
   ]]>
  </style>
  <linearGradient id="id0" gradientUnits="userSpaceOnUse" x1="1975.99" y1="9032" x2="8024.01" y2="968">
   <stop offset="0" style="stop-opacity:1; stop-color:#D23C97"/>
   <stop offset="1" style="stop-opacity:1; stop-color:#7252BA"/>
  </linearGradient>
  <linearGradient id="id1" gradientUnits="userSpaceOnUse" x1="3221.04" y1="4845.17" x2="3503.04" y2="6038.81">
   <stop offset="0" style="stop-opacity:1; stop-color:black"/>
   <stop offset="0.6" style="stop-opacity:1; stop-color:#1A0025"/>
   <stop offset="1" style="stop-opacity:1; stop-color:#34004A"/>
  </linearGradient>
  <linearGradient id="id2" gradientUnits="userSpaceOnUse" xlink:href="#id1" x1="6778.96" y1="4845.17" x2="6496.96" y2="6038.81">
  </linearGradient>
  <linearGradient id="id3" gradientUnits="userSpaceOnUse" x1="7895.09" y1="3107.78" x2="7181.57" y2="3842.02">
   <stop offset="0" style="stop-opacity:1; stop-color:#E4BBB9"/>
   <stop offset="1" style="stop-opacity:1; stop-color:#B88383"/>
  </linearGradient>
  <linearGradient id="id4" gradientUnits="userSpaceOnUse" xlink:href="#id3" x1="2104.91" y1="3107.78" x2="2818.43" y2="3842.02">
  </linearGradient>
  <linearGradient id="id5" gradientUnits="userSpaceOnUse" x1="5494.4" y1="7759.47" x2="4505.6" y2="2858.61">
   <stop offset="0" style="stop-opacity:1; stop-color:#F7E6AF"/>
   <stop offset="0.270588" style="stop-opacity:1; stop-color:#FDF0C4"/>
   <stop offset="1" style="stop-opacity:1; stop-color:#FFF3E7"/>
  </linearGradient>
  <linearGradient id="id6" gradientUnits="userSpaceOnUse" x1="1422.96" y1="2994.43" x2="2930.9" y2="4829.51">
   <stop offset="0" style="stop-opacity:1; stop-color:#F5E2E2"/>
   <stop offset="1" style="stop-opacity:1; stop-color:#C49D9D"/>
  </linearGradient>
  <linearGradient id="id7" gradientUnits="userSpaceOnUse" xlink:href="#id6" x1="8577.04" y1="2994.43" x2="7069.1" y2="4829.51">
  </linearGradient>
  <linearGradient id="id8" gradientUnits="userSpaceOnUse" x1="3410.24" y1="6384.89" x2="3010.02" y2="4600.91">
   <stop offset="0" style="stop-opacity:1; stop-color:#4E0082"/>
   <stop offset="1" style="stop-opacity:1; stop-color:black"/>
  </linearGradient>
  <linearGradient id="id9" gradientUnits="userSpaceOnUse" x1="2429.56" y1="6002.99" x2="4097.92" y2="6002.99">
   <stop offset="0" style="stop-opacity:1; stop-color:#580087"/>
   <stop offset="0.470588" style="stop-opacity:1; stop-color:#540082"/>
   <stop offset="0.501961" style="stop-opacity:1; stop-color:#A200E8"/>
   <stop offset="1" style="stop-opacity:1; stop-color:#4F007C"/>
  </linearGradient>
  <linearGradient id="id10" gradientUnits="userSpaceOnUse" xlink:href="#id8" x1="6589.76" y1="6384.89" x2="6989.98" y2="4600.91">
  </linearGradient>
  <linearGradient id="id11" gradientUnits="userSpaceOnUse" x1="4999.99" y1="5690.17" x2="4999.99" y2="5996.71">
   <stop offset="0" style="stop-opacity:1; stop-color:#FFCCCC"/>
   <stop offset="1" style="stop-opacity:1; stop-color:#DB9092"/>
  </linearGradient>
  <linearGradient id="id12" gradientUnits="userSpaceOnUse" x1="2884.4" y1="4654.93" x2="1849.58" y2="2978.71">
   <stop offset="0" style="stop-opacity:1; stop-color:#F2E0A4"/>
   <stop offset="1" style="stop-opacity:1; stop-color:#FFF3E6"/>
  </linearGradient>
  <linearGradient id="id13" gradientUnits="userSpaceOnUse" xlink:href="#id12" x1="7115.6" y1="4654.93" x2="8150.42" y2="2978.71">
  </linearGradient>
  <linearGradient id="id14" gradientUnits="userSpaceOnUse" xlink:href="#id9" x1="5902.08" y1="6002.99" x2="7570.44" y2="6002.99">
  </linearGradient>
 </defs>
 <g id="Layer_x0020_1">
  <metadata id="CorelCorpID_0Corel-Layer"/>
  <circle class="fil0" cx="5000" cy="5000" r="5000"/>
  <g id="_1929086932592">
   <ellipse class="fil1 str0" cx="5000" cy="7475" rx="2255" ry="660"/>
   <path class="fil2 str1" d="M8133 5344c646,-576 1016,-2380 599,-2968 -482,-254 -1923,81 -2375,606 537,694 1240,1669 1776,2362z"/>
   <path class="fil3" d="M6903 3392c142,-474 1014,-1007 1750,-820 284,907 -146,2200 -629,2718 -143,-558 -522,-1381 -1121,-1898z"/>
   <path class="fil4" d="M6945 3856c34,-821 1065,-1080 1174,-740 92,286 -325,340 -532,403 148,-13 482,22 452,259 -39,296 -393,183 -707,168 -113,-142 -340,-47 -387,-90z"/>
   <path class="fil5" d="M6903 3392c142,-474 1014,-1007 1750,-820 -658,22 -1585,625 -1006,1669 -36,-26 -75,-58 -116,-93 -171,-277 -381,-543 -628,-756z"/>
   <path class="fil6 str2" d="M4045 2724c-517,-45 -279,-706 376,-355 -468,-354 292,-984 852,-35 -136,-381 711,-256 746,455 -828,23 -1129,156 -1974,-65z"/>
   <path class="fil7 str3" d="M1867 5344c-646,-576 -1016,-2380 -599,-2968 482,-254 1923,81 2375,606 -537,694 -1240,1669 -1776,2362z"/>
   <path class="fil8" d="M3097 3392c-142,-474 -1014,-1007 -1750,-820 -284,907 146,2200 629,2718 143,-558 522,-1381 1121,-1898z"/>
   <path class="fil9" d="M3055 3856c-34,-821 -1065,-1080 -1174,-740 -92,286 325,340 532,403 -148,-13 -482,22 -452,259 39,296 393,183 707,168 113,-142 340,-47 387,-90z"/>
   <path class="fil5" d="M3097 3392c-142,-474 -1014,-1007 -1750,-820 658,22 1695,589 873,1742 235,-174 570,-657 877,-922z"/>
   <path class="fil10" d="M5000 8166l0 -5714c-1822,0 -3730,2330 -3345,4058 263,1182 1829,1656 3345,1656l0 -5714c1822,0 3730,2330 3345,4058 -263,1182 -1828,1656 -3345,1656z"/>
   <path class="fil11" d="M5000 4494c-635,0 -335,1273 -1432,1762 -634,283 272,1539 1432,1539 1160,0 2066,-1256 1432,-1539 -1097,-489 -797,-1762 -1432,-1762z"/>
   <path class="fil12" d="M2144 4331c-429,697 -643,1486 -489,2179 230,1033 1456,1526 2775,1633 -2212,-525 -2966,-1619 -2286,-3812z"/>
   <path class="fil13" d="M2569 4379c76,13 280,-140 569,-221 265,-74 516,-47 572,-138 62,-101 -123,-270 -271,-300 -122,-24 -405,44 -623,213 -259,199 -340,431 -247,446z"/>
   <g>
    <path class="fil14" d="M2703 6423c378,58 932,10 1206,-132 470,-243 314,-1583 -412,-1733 -363,-74 -695,69 -930,333 -497,557 -398,1449 136,1532z"/>
    <path class="fil15" d="M4148 5926c113,-488 -111,-1257 -651,-1368 -363,-74 -695,69 -930,333 -192,215 -295,480 -318,729 212,-560 789,-902 1181,-840 498,79 710,573 718,1146z"/>
    <path class="fil16" d="M2703 6423c378,58 932,10 1206,-132 93,-48 162,-139 206,-255 -180,-96 -237,-271 -300,-442 -263,-11 -525,-23 -788,-35 -413,225 -553,461 -614,700 74,87 171,145 290,164z"/>
    <circle class="fil11" transform="matrix(0.629508 -0.0534325 0.0732525 0.585453 2684.41 6234.8)" r="235"/>
    <circle class="fil11" transform="matrix(0.315556 0.00706861 -0.0101955 0.278939 2567.02 5900.16)" r="235"/>
    <path class="fil17" d="M3226 4845c316,-72 633,137 708,467 75,330 -120,655 -436,727 -316,72 -633,-137 -708,-467 -75,-330 120,-655 436,-727z"/>
    <path class="fil11" d="M3566 4953c-318,5 -469,724 -7,724 476,0 352,-729 7,-724z"/>
    <g>
     <path class="fil18" d="M3890 6255l38 73 0 0 -28 14 -29 13 -31 12 -32 12 -34 11 -34 11 -36 10 -36 9 -38 9 -38 8 -39 7 -40 7 -40 7 -41 5 -41 6 -42 4 -42 4 -42 3 -42 3 -43 2 -42 2 -42 1 -42 0 -42 0 -42 -1 -41 -1 -40 -2 -40 -3 -39 -4 -39 -4 -37 -4 -37 -6 12 -81 35 5 36 5 37 3 38 4 39 2 39 2 40 2 40 1 40 0 41 0 41 -1 41 -2 42 -2 41 -3 41 -3 41 -4 40 -4 40 -5 40 -6 39 -6 38 -7 38 -7 37 -8 35 -8 35 -9 34 -10 32 -9 31 -11 30 -11 29 -11 26 -12 25 -12 0 0zm-401 -1656l16 -81 0 0 71 19 67 25 63 32 60 38 56 43 52 49 48 53 45 57 41 60 37 64 34 66 30 69 26 70 22 72 20 73 15 74 12 74 8 74 5 73 1 73 -3 71 -6 70 -10 67 -14 65 -18 62 -21 59 -26 55 -30 51 -34 46 -38 41 -43 36 -47 29 -38 -73 38 -23 34 -29 31 -34 29 -39 26 -44 22 -48 19 -53 16 -56 13 -60 9 -62 6 -65 3 -67 -1 -69 -5 -69 -7 -70 -12 -70 -14 -70 -18 -69 -22 -68 -24 -66 -29 -65 -31 -62 -34 -59 -38 -56 -41 -52 -44 -48 -47 -44 -50 -39 -53 -33 -56 -28 -59 -23 -62 -16 0 0zm-892 319l-61 -55 0 0 23 -25 24 -24 24 -24 25 -23 25 -22 26 -21 27 -21 26 -20 28 -18 28 -18 28 -17 29 -16 30 -15 29 -15 31 -13 30 -12 31 -11 32 -10 32 -9 32 -8 33 -7 32 -5 34 -5 33 -3 34 -2 34 -1 34 0 35 1 35 3 35 4 35 5 35 7 -16 81 -32 -6 -33 -5 -32 -4 -32 -2 -31 -2 -32 0 -31 1 -31 2 -31 3 -30 4 -30 5 -30 6 -29 8 -29 8 -29 9 -29 10 -28 11 -28 13 -27 13 -27 13 -27 15 -26 16 -26 16 -25 18 -25 18 -25 19 -24 20 -23 20 -23 22 -23 22 -22 23 -22 23 0 0zm112 1464l-12 81 0 0 -53 -10 -50 -16 -48 -21 -44 -25 -42 -29 -39 -34 -35 -37 -33 -40 -29 -43 -26 -46 -23 -49 -20 -51 -16 -53 -14 -55 -10 -57 -7 -59 -5 -59 -1 -61 3 -62 5 -62 9 -63 12 -64 15 -63 18 -63 22 -63 26 -63 28 -61 32 -61 36 -60 39 -58 43 -57 46 -55 61 55 -43 52 -40 53 -37 54 -33 56 -30 57 -27 58 -24 59 -20 59 -18 60 -14 59 -11 59 -8 59 -5 58 -3 58 1 56 4 56 7 53 9 53 13 50 15 48 18 46 20 43 23 41 25 37 28 35 31 31 32 29 35 24 37 21 40 17 42 14 45 9 0 0z"/>
    </g>
   </g>
   <path class="fil1 str4" d="M2701 6768c-599,311 -1118,729 -1516,1311"/>
   <g>
    <path class="fil18" d="M4357 6463c-11,-20 -4,-45 15,-56 20,-12 45,-5 56,15l-71 41zm602 -291l82 3 -3 42 -5 40 -7 39 -10 37 -12 35 -14 33 -16 31 -18 29 -19 26 -21 25 -22 23 -24 20 -24 19 -26 16 -26 13 -27 12 -28 9 -28 7 -29 4 -28 2 -29 -1 -28 -3 -28 -5 -28 -8 -27 -11 -26 -13 -25 -16 -24 -19 -23 -21 -21 -23 -20 -26 -18 -28 71 -41 14 22 16 21 16 18 17 15 18 14 19 12 20 10 20 8 20 6 21 4 21 2 22 1 21 -2 22 -3 22 -5 21 -7 21 -9 20 -11 21 -12 19 -15 19 -16 17 -18 17 -20 16 -22 14 -24 14 -25 11 -28 10 -29 9 -31 6 -34 5 -35 2 -37zm0 0c1,-23 20,-40 42,-40 23,1 41,20 40,43l-82 -3z"/>
   </g>
   <g>
    <path class="fil19" d="M4993 6246c-20,134 -83,231 -163,289 67,-33 113,-76 170,-76l0 -213 -7 0z"/>
    <path id="1" class="fil18" d="M4812 6498l36 73 -42 -70 6 -4 7 -5 6 -6 7 -5 6 -6 6 -6 6 -6 6 -6 6 -7 5 -7 6 -7 5 -7 6 -7 5 -8 5 -8 5 -8 4 -8 5 -9 4 -8 5 -9 4 -9 4 -10 3 -9 4 -10 3 -10 3 -10 3 -11 3 -10 3 -11 2 -11 2 -12 2 -11 81 12 -2 13 -3 13 -2 13 -3 13 -4 12 -3 13 -4 12 -4 12 -4 11 -4 12 -5 11 -5 11 -5 11 -5 10 -6 10 -6 10 -6 10 -6 10 -6 9 -6 9 -7 9 -7 9 -7 8 -7 8 -8 8 -7 8 -8 7 -8 8 -7 6 -9 7 -8 7 -8 6 -42 -70zm42 70c-18,13 -44,9 -57,-9 -14,-19 -9,-44 9,-58l48 67zm105 -109l82 0 -41 41 -3 0 -4 1 -3 0 -4 0 -3 1 -4 1 -3 1 -4 1 -4 2 -4 1 -4 2 -4 2 -4 2 -5 2 -4 2 -5 3 -4 2 -5 3 -5 3 -5 3 -5 3 -6 3 -5 3 -5 3 -6 3 -6 4 -6 3 -6 4 -6 3 -7 3 -6 4 -7 3 -36 -73 5 -3 6 -3 6 -3 5 -3 6 -3 5 -3 6 -3 5 -3 5 -4 6 -3 5 -3 5 -3 6 -3 5 -3 6 -3 5 -3 6 -3 5 -3 6 -3 6 -3 6 -2 6 -3 6 -2 6 -2 6 -2 7 -2 6 -2 7 -1 7 -1 7 -1 7 0 7 -1 -41 41zm41 -41c23,0 41,19 41,41 0,23 -18,41 -41,41l0 -82zm41 -172l0 213 -82 0 0 -213 41 -41 41 41zm-82 0c0,-23 18,-41 41,-41 23,0 41,18 41,41l-82 0zm34 -41l7 0 0 82 -7 0 -40 -47 40 -35zm0 82c-22,0 -41,-19 -41,-41 0,-23 19,-41 41,-41l0 82z"/>
   </g>
   <path class="fil18" d="M4142 2619c-201,93 -465,229 -604,315 -209,128 -448,312 -592,429 70,-148 361,-380 552,-496 142,-85 423,-239 644,-248zm-2292 2285c-97,298 -158,599 -188,858 -28,253 -20,502 33,739 98,438 381,781 775,1040 361,238 1154,506 1750,582 -853,-17 -1518,-328 -1795,-509 -412,-268 -727,-629 -830,-1091 -55,-246 -64,-509 -34,-770 24,-210 162,-693 289,-849z"/>
   <path class="fil13" d="M7431 4379c-76,13 -280,-140 -569,-221 -265,-74 -516,-47 -572,-138 -62,-101 123,-270 271,-300 122,-24 405,44 623,213 259,199 340,431 247,446z"/>
   <g>
    <path class="fil20" d="M7297 6423c-378,58 -932,10 -1206,-132 -470,-243 -314,-1583 412,-1733 363,-74 695,69 930,333 497,557 398,1449 -136,1532z"/>
    <path class="fil15" d="M5852 5926c-113,-488 111,-1257 651,-1368 363,-74 695,69 930,333 192,215 295,480 318,729 -212,-560 -789,-902 -1181,-840 -498,79 -710,573 -718,1146z"/>
    <path class="fil21" d="M7297 6423c-378,58 -932,10 -1206,-132 -93,-48 -162,-139 -206,-255 180,-96 237,-271 300,-442 263,-11 525,-23 788,-35 413,225 553,461 614,700 -74,87 -171,145 -290,164z"/>
    <circle class="fil11" transform="matrix(-0.629508 -0.0534325 -0.0732525 0.585453 7315.59 6234.8)" r="235"/>
    <circle class="fil11" transform="matrix(-0.315556 0.00706861 0.0101955 0.278939 7432.98 5900.16)" r="235"/>
    <path class="fil22" d="M6774 4845c-316,-72 -633,137 -708,467 -75,330 120,655 436,727 316,72 633,-137 708,-467 75,-330 -120,-655 -436,-727z"/>
    <path class="fil11" d="M6434 4953c318,5 469,724 7,724 -476,0 -352,-729 -7,-724z"/>
    <g>
     <path class="fil18" d="M6110 6255l0 0 25 12 26 12 29 11 30 11 31 11 32 9 34 10 35 9 35 8 37 8 38 7 38 7 39 6 40 6 40 5 40 4 41 4 41 3 41 3 42 2 41 2 41 1 41 0 40 0 40 -1 40 -2 39 -2 39 -2 38 -4 37 -3 36 -5 35 -5 12 81 -37 6 -37 4 -39 4 -39 4 -40 3 -40 2 -41 1 -42 1 -42 0 -42 0 -42 -1 -42 -2 -43 -2 -42 -3 -42 -3 -42 -4 -42 -4 -41 -6 -41 -5 -40 -7 -40 -7 -39 -7 -38 -8 -38 -9 -36 -9 -36 -10 -34 -11 -34 -11 -32 -12 -31 -12 -29 -13 -28 -14 0 0 38 -73zm401 -1656l0 0 -62 16 -59 23 -56 28 -53 33 -50 39 -47 44 -44 48 -41 52 -38 56 -34 59 -31 62 -29 65 -24 66 -22 68 -18 69 -14 70 -12 70 -7 70 -5 69 -1 69 3 67 6 65 9 62 13 60 16 56 19 53 22 48 26 44 29 39 31 34 34 29 38 23 -38 73 -47 -29 -43 -36 -38 -41 -34 -46 -30 -51 -26 -55 -21 -59 -18 -62 -14 -65 -10 -67 -6 -70 -3 -71 1 -73 5 -73 8 -74 12 -74 15 -74 20 -73 22 -72 26 -70 30 -69 34 -66 37 -64 41 -60 45 -57 48 -53 52 -49 56 -43 60 -38 63 -32 67 -25 71 -19 0 0 16 81zm892 319l0 0 -22 -23 -22 -23 -23 -22 -23 -22 -23 -20 -24 -20 -25 -19 -25 -18 -25 -18 -26 -16 -26 -16 -27 -15 -27 -13 -27 -13 -28 -13 -28 -11 -29 -10 -29 -9 -29 -8 -29 -8 -30 -6 -30 -5 -30 -4 -31 -3 -31 -2 -31 -1 -32 0 -31 2 -32 2 -32 4 -33 5 -32 6 -16 -81 35 -7 35 -5 35 -4 35 -3 35 -1 34 0 34 1 34 2 33 3 34 5 32 5 33 7 32 8 32 9 32 10 31 11 30 12 31 13 29 15 30 15 29 16 28 17 28 18 28 18 26 20 27 21 26 21 25 22 25 23 24 24 24 24 23 25 0 0 -61 55zm-112 1464l0 0 45 -9 42 -14 40 -17 37 -21 35 -24 33 -29 30 -31 28 -35 25 -37 23 -41 20 -43 18 -46 15 -48 13 -50 9 -53 7 -53 4 -56 1 -56 -3 -58 -5 -58 -8 -59 -11 -59 -14 -59 -18 -60 -20 -59 -24 -59 -27 -58 -30 -57 -33 -56 -37 -54 -40 -53 -43 -52 61 -55 46 55 43 57 39 58 36 60 32 61 28 61 26 63 22 63 18 63 15 63 12 64 9 63 5 62 3 62 -1 61 -5 59 -7 59 -10 57 -14 55 -16 53 -20 51 -23 49 -26 46 -29 43 -33 40 -35 37 -39 34 -42 29 -44 25 -48 21 -50 16 -53 10 0 0 -12 -81z"/>
    </g>
   </g>
   <path class="fil1 str5" d="M7494 6635c580,67 1160,311 1586,666"/>
   <path class="fil1 str6" d="M7299 6768c599,311 1118,729 1516,1311"/>
   <g>
    <path class="fil18" d="M5643 6463l-71 -41c11,-20 36,-27 56,-15 19,11 26,36 15,56zm-602 -291l2 37 5 35 6 34 9 31 10 29 11 28 14 25 14 24 16 22 17 20 17 18 19 16 19 15 21 12 20 11 21 9 21 7 22 5 22 3 21 2 22 -1 21 -2 21 -4 20 -6 20 -8 20 -10 19 -12 18 -14 17 -15 16 -18 16 -21 14 -22 71 41 -18 28 -20 26 -21 23 -23 21 -24 19 -25 16 -26 13 -27 11 -28 8 -28 5 -28 3 -29 1 -28 -2 -29 -4 -28 -7 -28 -9 -27 -12 -26 -13 -26 -16 -24 -19 -24 -20 -22 -23 -21 -25 -19 -26 -18 -29 -16 -31 -14 -33 -12 -35 -10 -37 -7 -39 -5 -40 -3 -42 82 -3zm0 0l-82 3c-1,-23 17,-42 40,-43 22,0 41,17 42,40z"/>
   </g>
   <g>
    <path class="fil19" d="M5007 6246c20,134 83,231 163,289 -67,-33 -113,-76 -170,-76l0 -213 7 0z"/>
    <path id="1" class="fil18" d="M5188 6498l-42 70 -8 -6 -8 -7 -9 -7 -7 -6 -8 -8 -8 -7 -7 -8 -8 -8 -7 -8 -7 -8 -7 -9 -7 -9 -6 -9 -6 -9 -6 -10 -6 -10 -6 -10 -6 -10 -5 -10 -5 -11 -5 -11 -5 -11 -4 -12 -4 -11 -4 -12 -4 -12 -3 -13 -4 -12 -3 -13 -2 -13 -3 -13 -2 -13 81 -12 2 11 2 12 2 11 3 11 3 10 3 11 3 10 3 10 4 10 3 9 4 10 4 9 5 9 4 8 5 9 4 8 5 8 5 8 5 8 6 7 5 7 6 7 5 7 6 7 6 6 6 6 6 6 6 6 7 5 6 6 7 5 6 4 -42 70 36 -73zm-42 70l48 -67c18,14 23,39 9,58 -13,18 -39,22 -57,9zm-105 -109l-41 -41 7 1 7 0 7 1 7 1 7 1 6 2 7 2 6 2 6 2 6 2 6 3 6 2 6 3 6 3 5 3 6 3 5 3 6 3 5 3 6 3 5 3 5 3 6 3 5 4 5 3 6 3 5 3 6 3 5 3 6 3 6 3 5 3 -36 73 -7 -3 -6 -4 -7 -3 -6 -3 -6 -4 -6 -3 -6 -4 -6 -3 -5 -3 -5 -3 -6 -3 -5 -3 -5 -3 -5 -3 -5 -3 -4 -2 -5 -3 -4 -2 -5 -2 -4 -2 -4 -2 -4 -2 -4 -1 -4 -2 -4 -1 -3 -1 -4 -1 -3 -1 -4 0 -3 0 -4 -1 -3 0 -41 -41 82 0zm-41 -41l0 82c-23,0 -41,-18 -41,-41 0,-22 18,-41 41,-41zm-41 -172l41 -41 41 41 0 213 -82 0 0 -213zm82 0l-82 0c0,-23 18,-41 41,-41 23,0 41,18 41,41zm-34 -41l40 35 -40 47 -7 0 0 -82 7 0zm0 82l0 -82c22,0 41,18 41,41 0,22 -19,41 -41,41z"/>
   </g>
   <path class="fil23 str7" d="M5000 5690c-106,0 -254,51 -243,127 11,69 108,180 243,180 135,0 232,-111 243,-180 11,-76 -137,-127 -243,-127z"/>
   <path class="fil1 str8" d="M2506 6635c-580,67 -1160,311 -1586,666"/>
   <path class="fil18" d="M5858 2619c201,93 465,229 604,315 209,128 448,312 592,429 -70,-148 -361,-380 -552,-496 -142,-85 -423,-239 -644,-248zm2292 2285c97,298 158,599 188,858 28,253 20,502 -33,739 -98,438 -381,781 -775,1040 -361,238 -1154,506 -1750,582 853,-17 1518,-328 1795,-509 412,-268 727,-629 830,-1091 55,-246 64,-509 34,-770 -24,-210 -162,-693 -289,-849z"/>
  </g>
 </g>
</svg>
