<!DOCTYPE svg PUBLIC "-//W3C//DTD SVG 20010904//EN" "http://www.w3.org/TR/2001/REC-SVG-20010904/DTD/svg10.dtd">
<svg version="1.0" xmlns="http://www.w3.org/2000/svg" width="136px" height="136px" viewBox="0 0 1360 1360" preserveAspectRatio="xMidYMid meet">
<g id="layer101" fill="#46bcde" stroke="none">
 <path d="M512 1300 c-111 -29 -187 -74 -278 -165 -143 -142 -201 -288 -191 -485 10 -214 105 -381 287 -506 182 -124 437 -139 643 -37 91 46 227 178 275 270 96 183 96 423 -1 608 -42 80 -182 220 -264 263 -134 71 -320 91 -471 52z"/>
 </g>
<g id="layer102" fill="#44c5e3" stroke="none">
 <path d="M530 1304 c-111 -24 -203 -77 -295 -168 -144 -144 -202 -289 -192 -486 10 -214 105 -381 287 -506 182 -124 437 -139 643 -37 91 46 227 178 275 270 101 193 94 439 -18 628 -37 63 -157 195 -176 195 -6 0 -17 7 -24 15 -18 22 -116 64 -199 86 -87 22 -206 24 -301 3z"/>
 </g>
<g id="layer103" fill="#72b6e9" stroke="none">
 <path d="M575 1314 c-140 -35 -236 -82 -322 -159 -175 -156 -251 -404 -193 -629 45 -177 170 -335 327 -413 260 -130 544 -83 748 123 73 73 116 143 156 254 33 92 34 273 2 375 -63 197 -228 364 -423 426 -63 21 -247 35 -295 23z"/>
 </g>
<g id="layer104" fill="#8fb3ef" stroke="none">
 <path d="M580 1310 c-112 -19 -202 -61 -308 -143 -109 -83 -201 -250 -222 -400 -29 -208 31 -387 180 -537 205 -207 518 -249 770 -103 83 48 196 163 236 239 60 114 77 178 78 299 1 163 -38 282 -133 408 -129 172 -385 273 -601 237z"/>
 </g>
<g id="layer105" fill="#92c9f0" stroke="none">
 <path d="M602 1309 c-262 -33 -473 -221 -538 -477 -22 -88 -22 -251 0 -327 30 -102 85 -193 166 -275 205 -207 518 -249 770 -103 83 48 196 163 236 239 59 111 75 176 75 298 0 128 -15 198 -66 301 -116 237 -379 378 -643 344z"/>
 </g>
<g id="layer106" fill="#b2aff5" stroke="none">
 <path d="M602 1309 c-261 -33 -471 -219 -537 -474 -22 -82 -20 -242 3 -325 48 -173 165 -314 332 -401 71 -36 108 -47 205 -60 215 -27 445 67 571 235 97 129 136 243 136 396 -1 111 -19 187 -67 285 -116 237 -379 378 -643 344z"/>
 </g>
<g id="layer107" fill="#b3c8f5" stroke="none">
 <path d="M777 950 c-20 -16 -40 -20 -101 -20 -73 0 -76 -1 -66 -19 5 -11 10 -30 10 -43 0 -18 8 -26 35 -34 19 -6 38 -8 42 -4 4 4 19 11 33 14 22 6 23 6 6 -5 -15 -9 -16 -13 -5 -20 10 -6 7 -8 -11 -7 -21 3 -26 -2 -28 -25 -2 -17 4 -37 13 -47 16 -18 16 -18 -4 -13 -12 3 -33 -2 -48 -11 l-28 -17 27 23 c20 17 26 31 24 55 -1 18 -6 36 -10 40 -14 14 -85 31 -90 22 -2 -5 -3 -4 -2 3 2 7 10 12 20 10 31 -6 8 83 -24 91 -20 4 -93 -17 -85 -25 4 -4 14 -4 22 -1 13 5 13 3 3 -14 -17 -27 -5 -70 23 -79 12 -5 25 -7 28 -6 4 1 5 -8 2 -19 -6 -20 -6 -20 -25 1 -24 26 -52 26 -78 -2 -21 -23 -27 -58 -10 -58 6 0 10 5 10 12 0 6 3 8 6 5 4 -4 2 -13 -5 -21 -9 -11 -9 -15 1 -19 9 -4 10 -6 1 -6 -18 -1 -36 38 -29 65 5 17 2 24 -7 24 -41 0 -62 77 -30 112 15 17 15 18 -10 18 l-27 0 0 -143 0 -142 -137 0 c-76 1 -145 -1 -153 -3 -22 -5 -23 -47 -3 -127 32 -127 126 -268 227 -340 118 -83 182 -109 311 -126 215 -27 445 67 571 235 79 104 134 238 134 324 0 38 0 38 -222 37 l-178 0 0 38 c0 23 8 49 21 67 15 20 20 36 15 54 -4 15 -2 26 4 26 21 0 50 41 50 70 0 46 -33 73 -78 66 -58 -10 -65 -10 -93 -3 -19 5 -34 1 -52 -13z m166 -7 c-7 -2 -19 -2 -25 0 -7 3 -2 5 12 5 14 0 19 -2 13 -5z m-103 -14 c0 -4 -11 -9 -25 -11 -24 -5 -32 2 -19 15 8 8 44 5 44 -4z m57 -21 c1 -30 1 -31 -6 -8 -7 21 -5 40 2 40 2 0 3 -15 4 -32z m-125 10 c-19 -19 -14 -45 14 -67 21 -17 30 -19 48 -9 28 14 37 30 26 43 -5 6 -5 17 0 25 8 12 10 11 10 -6 0 -26 26 -49 54 -48 15 1 16 0 4 -3 -10 -3 -18 -9 -18 -16 0 -8 -3 -8 -12 1 -18 18 -32 15 -62 -13 -22 -20 -26 -21 -26 -7 0 10 -3 13 -8 7 -4 -5 -18 -11 -32 -12 -14 -1 -20 0 -14 3 8 4 9 16 2 44 -8 30 -7 44 2 55 7 8 15 15 18 15 3 0 1 -5 -6 -12z m178 -3 c15 -18 1 -40 -31 -48 -15 -4 -19 -2 -15 10 3 8 6 23 6 34 0 23 23 25 40 4z m27 -27 c-3 -7 -5 -2 -5 12 0 14 2 19 5 13 2 -7 2 -19 0 -25z m-427 18 c0 -2 -7 -7 -16 -10 -8 -3 -12 -2 -9 4 6 10 25 14 25 6z m237 -28 c-3 -8 -6 -5 -6 6 -1 11 2 17 5 13 3 -3 4 -12 1 -19z m-205 -102 c-3 -26 1 -37 19 -50 13 -9 19 -16 15 -16 -5 0 -18 7 -28 17 -17 15 -19 15 -39 -3 -22 -19 -22 -19 -8 4 8 12 17 22 21 22 5 0 8 11 8 23 0 19 7 37 15 37 0 0 -1 -15 -3 -34z m-92 20 c0 -2 -8 -10 -17 -17 -16 -13 -17 -12 -4 4 13 16 21 21 21 13z m437 -13 c-4 -3 -7 0 -7 7 0 7 3 10 7 7 3 -4 3 -10 0 -14z m-147 -17 c0 -3 -5 -8 -12 -12 -7 -4 -8 -3 -4 4 7 12 16 16 16 8z m15 -26 c-10 -11 -22 -20 -26 -20 -5 0 2 10 14 23 27 28 38 25 12 -3z m39 19 c-4 -8 1 -9 17 -5 13 3 18 3 11 0 -6 -3 -10 -10 -6 -15 7 -11 -7 -11 -25 0 -12 8 -8 31 5 31 3 0 2 -5 -2 -11z m69 -6 c9 -8 -12 -33 -27 -33 -6 0 -3 5 8 11 15 9 16 13 5 20 -8 5 -9 9 -3 9 6 0 14 -3 17 -7z m-156 -10 c-4 -3 -10 -3 -14 0 -3 4 0 7 7 7 7 0 10 -3 7 -7z m0 -38 c0 -8 -4 -12 -9 -9 -4 3 -8 9 -8 15 0 5 4 9 8 9 5 0 9 -7 9 -15z m-170 -1 c-3 -3 -12 -4 -19 -1 -8 3 -5 6 6 6 11 1 17 -2 13 -5z m-114 -11 c-7 -2 -19 -2 -25 0 -7 3 -2 5 12 5 14 0 19 -2 13 -5z m142 -3 c3 -5 4 -10 1 -10 -3 0 -8 5 -11 10 -3 6 -4 10 -1 10 3 0 8 -4 11 -10z m-185 -4 c0 -3 -5 -8 -12 -12 -7 -4 -8 -3 -4 4 7 12 16 16 16 8z m92 -18 c-7 -7 -12 -8 -12 -2 0 14 12 26 19 19 2 -3 -1 -11 -7 -17z"/>
 <path d="M770 840 c0 -5 5 -10 11 -10 5 0 7 5 4 10 -3 6 -8 10 -11 10 -2 0 -4 -4 -4 -10z"/>
 <path d="M420 929 c0 -6 -7 -17 -15 -25 -32 -32 -8 -94 36 -94 10 0 19 6 19 14 0 8 5 18 12 22 7 4 8 3 4 -4 -4 -7 -2 -12 3 -12 16 0 13 22 -4 48 -15 20 -15 21 1 15 15 -6 15 -4 -1 20 -17 26 -55 37 -55 16z m10 -33 c0 -3 -5 -8 -12 -12 -7 -4 -8 -3 -4 4 7 12 16 16 16 8z m-5 -56 c3 -5 4 -10 1 -10 -3 0 -8 5 -11 10 -3 6 -4 10 -1 10 3 0 8 -4 11 -10z"/>
 </g>
<g id="layer108" fill="#c5c2f7" stroke="none">
 <path d="M777 950 c-20 -16 -40 -20 -101 -20 -73 0 -76 -1 -66 -19 5 -11 10 -30 10 -43 0 -18 8 -26 35 -34 19 -6 38 -8 42 -4 4 4 19 11 33 14 22 6 23 6 6 -5 -15 -9 -16 -13 -5 -20 10 -6 7 -8 -11 -7 -21 3 -26 -2 -28 -25 -2 -17 4 -37 13 -47 16 -18 16 -18 -4 -13 -12 3 -33 -2 -48 -11 l-28 -17 27 23 c20 17 26 31 24 55 -1 18 -6 36 -10 40 -14 14 -85 31 -90 22 -2 -5 -3 -4 -2 3 2 7 10 12 20 10 31 -6 8 83 -24 91 -20 4 -93 -17 -85 -25 4 -4 14 -4 22 -1 13 5 13 3 3 -14 -17 -27 -5 -70 23 -79 12 -5 25 -7 28 -6 4 1 5 -8 2 -19 -6 -20 -6 -20 -25 1 -24 26 -52 26 -78 -2 -21 -23 -27 -58 -10 -58 6 0 10 5 10 12 0 6 3 8 6 5 4 -4 2 -13 -5 -21 -9 -11 -9 -15 1 -19 9 -4 10 -6 1 -6 -18 -1 -36 38 -29 65 5 17 2 24 -7 24 -41 0 -62 77 -30 112 15 17 15 18 -10 18 l-27 0 0 -143 0 -142 -137 0 c-76 1 -146 -1 -155 -3 -39 -9 2 -179 70 -291 212 -350 701 -409 990 -119 95 94 164 231 178 352 8 65 21 62 -218 61 l-178 0 0 38 c0 23 8 49 21 67 15 20 20 36 15 54 -4 15 -2 26 4 26 21 0 50 41 50 70 0 46 -33 73 -78 66 -58 -10 -65 -10 -93 -3 -19 5 -34 1 -52 -13z m166 -7 c-7 -2 -19 -2 -25 0 -7 3 -2 5 12 5 14 0 19 -2 13 -5z m-103 -14 c0 -4 -11 -9 -25 -11 -24 -5 -32 2 -19 15 8 8 44 5 44 -4z m57 -21 c1 -30 1 -31 -6 -8 -7 21 -5 40 2 40 2 0 3 -15 4 -32z m-125 10 c-19 -19 -14 -45 14 -67 21 -17 30 -19 48 -9 28 14 37 30 26 43 -5 6 -5 17 0 25 8 12 10 11 10 -6 0 -26 26 -49 54 -48 15 1 16 0 4 -3 -10 -3 -18 -9 -18 -16 0 -8 -3 -8 -12 1 -18 18 -32 15 -62 -13 -22 -20 -26 -21 -26 -7 0 10 -3 13 -8 7 -4 -5 -18 -11 -32 -12 -14 -1 -20 0 -14 3 8 4 9 16 2 44 -8 30 -7 44 2 55 7 8 15 15 18 15 3 0 1 -5 -6 -12z m178 -3 c15 -18 1 -40 -31 -48 -15 -4 -19 -2 -15 10 3 8 6 23 6 34 0 23 23 25 40 4z m27 -27 c-3 -7 -5 -2 -5 12 0 14 2 19 5 13 2 -7 2 -19 0 -25z m-427 18 c0 -2 -7 -7 -16 -10 -8 -3 -12 -2 -9 4 6 10 25 14 25 6z m237 -28 c-3 -8 -6 -5 -6 6 -1 11 2 17 5 13 3 -3 4 -12 1 -19z m-205 -102 c-3 -26 1 -37 19 -50 13 -9 19 -16 15 -16 -5 0 -18 7 -28 17 -17 15 -19 15 -39 -3 -22 -19 -22 -19 -8 4 8 12 17 22 21 22 5 0 8 11 8 23 0 19 7 37 15 37 0 0 -1 -15 -3 -34z m-92 20 c0 -2 -8 -10 -17 -17 -16 -13 -17 -12 -4 4 13 16 21 21 21 13z m437 -13 c-4 -3 -7 0 -7 7 0 7 3 10 7 7 3 -4 3 -10 0 -14z m-147 -17 c0 -3 -5 -8 -12 -12 -7 -4 -8 -3 -4 4 7 12 16 16 16 8z m15 -26 c-10 -11 -22 -20 -26 -20 -5 0 2 10 14 23 27 28 38 25 12 -3z m39 19 c-4 -8 1 -9 17 -5 13 3 18 3 11 0 -6 -3 -10 -10 -6 -15 7 -11 -7 -11 -25 0 -12 8 -8 31 5 31 3 0 2 -5 -2 -11z m69 -6 c9 -8 -12 -33 -27 -33 -6 0 -3 5 8 11 15 9 16 13 5 20 -8 5 -9 9 -3 9 6 0 14 -3 17 -7z m-156 -10 c-4 -3 -10 -3 -14 0 -3 4 0 7 7 7 7 0 10 -3 7 -7z m0 -38 c0 -8 -4 -12 -9 -9 -4 3 -8 9 -8 15 0 5 4 9 8 9 5 0 9 -7 9 -15z m-170 -1 c-3 -3 -12 -4 -19 -1 -8 3 -5 6 6 6 11 1 17 -2 13 -5z m-114 -11 c-7 -2 -19 -2 -25 0 -7 3 -2 5 12 5 14 0 19 -2 13 -5z m142 -3 c3 -5 4 -10 1 -10 -3 0 -8 5 -11 10 -3 6 -4 10 -1 10 3 0 8 -4 11 -10z m-185 -4 c0 -3 -5 -8 -12 -12 -7 -4 -8 -3 -4 4 7 12 16 16 16 8z m92 -18 c-7 -7 -12 -8 -12 -2 0 14 12 26 19 19 2 -3 -1 -11 -7 -17z"/>
 <path d="M770 840 c0 -5 5 -10 11 -10 5 0 7 5 4 10 -3 6 -8 10 -11 10 -2 0 -4 -4 -4 -10z"/>
 <path d="M420 929 c0 -6 -7 -17 -15 -25 -32 -32 -8 -94 36 -94 10 0 19 6 19 14 0 8 5 18 12 22 7 4 8 3 4 -4 -4 -7 -2 -12 3 -12 16 0 13 22 -4 48 -15 20 -15 21 1 15 15 -6 15 -4 -1 20 -17 26 -55 37 -55 16z m10 -33 c0 -3 -5 -8 -12 -12 -7 -4 -8 -3 -4 4 7 12 16 16 16 8z m-5 -56 c3 -5 4 -10 1 -10 -3 0 -8 5 -11 10 -3 6 -4 10 -1 10 3 0 8 -4 11 -10z"/>
 </g>
<g id="layer109" fill="#dee4f9" stroke="none">
 <path d="M891 954 c-17 -12 -26 -13 -34 -5 -15 15 -59 14 -81 -2 -17 -13 -17 -14 -2 -20 10 -4 19 -1 22 8 8 19 40 19 48 0 4 -11 11 -13 30 -6 13 6 27 7 32 3 4 -4 4 -2 1 4 -9 16 23 28 37 14 7 -7 4 -10 -9 -11 -17 0 -17 -1 3 -10 31 -12 26 -50 -8 -61 -19 -6 -17 -7 10 -3 34 4 35 4 10 -9 -14 -8 -28 -12 -32 -10 -5 3 -8 1 -8 -4 0 -5 -11 -7 -24 -5 -13 3 -32 1 -41 -4 -12 -7 -3 -9 29 -7 27 1 44 -1 41 -7 -4 -5 -1 -9 4 -9 6 0 11 -8 11 -18 0 -25 -42 -46 -77 -38 -23 5 -25 4 -10 -5 11 -6 30 -9 43 -6 16 3 23 0 21 -7 -5 -17 -50 -19 -71 -3 -17 12 -23 11 -52 -7 -26 -17 -31 -26 -27 -48 4 -20 -1 -33 -20 -52 -28 -28 -47 -32 -78 -16 -15 9 -26 5 -53 -17 -29 -22 -34 -32 -29 -54 8 -40 -37 -84 -75 -74 -41 10 -62 34 -62 71 0 23 -5 34 -19 39 -49 15 -47 108 4 121 26 6 32 18 15 29 -6 3 -10 21 -10 39 0 25 -6 35 -24 44 -31 14 -41 55 -22 93 13 27 13 29 -5 29 -18 0 -19 -10 -19 -270 l0 -270 275 0 275 0 0 165 c0 136 3 170 16 190 10 15 14 37 12 55 -3 16 -1 30 4 30 17 0 58 49 58 70 0 26 -43 70 -67 70 -10 0 -29 -7 -42 -16z m86 -50 c1 -18 0 -22 -4 -9 -3 11 -10 26 -17 34 -9 11 -8 13 4 9 8 -2 16 -18 17 -34z"/>
 <path d="M533 933 c9 -2 25 -2 35 0 9 3 1 5 -18 5 -19 0 -27 -2 -17 -5z"/>
 <path d="M616 908 c5 -13 8 -33 7 -45 -1 -17 5 -23 21 -23 12 0 27 -5 32 -10 8 -8 15 -6 24 5 7 8 22 15 34 15 19 0 21 5 18 40 l-4 40 -70 0 c-68 0 -69 -1 -62 -22z"/>
 <path d="M421 906 c-9 -11 -6 -12 14 -8 14 2 25 8 25 13 0 14 -26 11 -39 -5z"/>
 <path d="M523 912 c-7 -5 4 -8 26 -7 22 0 37 3 34 8 -6 9 -45 9 -60 -1z"/>
 <path d="M797 913 c-4 -3 -7 -16 -8 -27 -1 -18 -2 -18 -9 4 -7 21 -8 21 -9 5 0 -11 4 -27 9 -35 7 -11 10 -12 10 -2 0 8 7 11 19 7 22 -7 46 18 37 40 -5 15 -37 21 -49 8z"/>
 <path d="M882 900 c0 -14 2 -19 5 -12 2 6 2 18 0 25 -3 6 -5 1 -5 -13z"/>
 <path d="M900 900 c0 -7 3 -10 7 -7 3 4 3 10 0 14 -4 3 -7 0 -7 -7z"/>
 <path d="M448 893 c-16 -2 -28 -7 -29 -11 -5 -42 -4 -50 3 -46 15 10 31 -8 17 -18 -11 -8 -11 -9 1 -5 8 2 14 10 12 17 -2 7 3 10 10 8 9 -4 13 5 13 28 0 19 0 33 0 33 0 -1 -12 -4 -27 -6z"/>
 <path d="M536 891 c-4 -6 -13 -8 -21 -4 -11 4 -15 -2 -14 -18 1 -20 2 -21 6 -5 5 19 6 18 23 -4 22 -29 53 -21 48 12 -3 24 -32 36 -42 19z"/>
 <path d="M390 866 c0 -31 6 -34 13 -6 3 11 1 23 -4 26 -5 3 -9 -6 -9 -20z"/>
 <path d="M587 860 c-5 -24 -12 -30 -34 -31 -27 -2 -27 -2 -3 -6 14 -3 31 -10 38 -15 7 -6 15 -8 19 -4 3 3 1 6 -7 6 -10 0 -10 4 1 17 10 11 10 14 2 9 -7 -4 -13 -3 -13 3 0 5 5 13 10 16 12 8 13 35 1 35 -5 0 -11 -13 -14 -30z"/>
 <path d="M808 843 c7 -3 16 -2 19 1 4 3 -2 6 -13 5 -11 0 -14 -3 -6 -6z"/>
 <path d="M616 821 c-3 -5 8 -11 26 -13 28 -5 29 -4 13 9 -22 15 -32 16 -39 4z"/>
 <path d="M713 822 c-7 -5 4 -8 26 -7 22 0 37 3 34 8 -6 9 -45 9 -60 -1z"/>
 <path d="M486 811 c-3 -5 8 -11 25 -15 30 -6 31 -8 26 -44 -5 -25 -3 -32 3 -22 17 26 11 57 -15 74 -28 18 -32 19 -39 7z"/>
 <path d="M850 805 c-11 -13 -11 -19 3 -32 21 -21 49 -9 45 19 -4 28 -30 35 -48 13z"/>
 <path d="M720 795 c-11 -13 -11 -19 3 -32 21 -21 49 -9 45 19 -4 28 -30 35 -48 13z"/>
 <path d="M820 790 c0 -11 4 -20 8 -20 4 0 8 9 8 20 0 11 -4 20 -8 20 -4 0 -8 -9 -8 -20z"/>
 <path d="M606 783 c-5 -12 0 -23 14 -35 19 -15 19 -17 3 -21 -17 -4 -17 -5 0 -6 10 0 20 6 23 14 4 8 10 13 14 10 5 -3 12 0 16 6 4 7 3 9 -4 5 -6 -4 -12 3 -14 16 -4 29 -42 37 -52 11z"/>
 <path d="M692 780 c0 -14 2 -19 5 -12 2 6 2 18 0 25 -3 6 -5 1 -5 -13z"/>
 <path d="M780 780 c0 -24 15 -27 24 -4 9 22 8 24 -9 24 -8 0 -15 -9 -15 -20z"/>
 <path d="M474 775 c-8 -21 2 -45 19 -45 20 0 40 27 33 45 -7 19 -45 20 -52 0z"/>
 <path d="M580 770 c0 -11 2 -20 4 -20 2 0 6 9 9 20 3 11 1 20 -4 20 -5 0 -9 -9 -9 -20z"/>
 <path d="M450 764 c0 -10 5 -26 10 -34 8 -11 9 -7 4 15 -8 37 -14 45 -14 19z"/>
 <path d="M713 738 c15 -10 54 -10 60 0 3 4 -12 7 -34 7 -22 1 -33 -2 -26 -7z"/>
 <path d="M557 727 c-3 -8 9 -17 29 -23 19 -6 34 -10 34 -9 0 1 -13 11 -29 23 -21 15 -30 18 -34 9z"/>
 <path d="M681 720 c-9 -5 -3 -9 16 -13 34 -6 37 -5 14 10 -10 6 -23 8 -30 3z"/>
 <path d="M488 713 c6 -2 18 -2 25 0 6 3 1 5 -13 5 -14 0 -19 -2 -12 -5z"/>
 <path d="M533 683 c-23 -15 -34 -71 -13 -58 6 4 17 1 25 -5 21 -18 47 -4 43 22 -4 28 -35 36 -52 13 -12 -16 -13 -16 -13 -1 0 18 38 32 63 22 14 -5 15 -4 4 9 -16 19 -29 18 -57 -2z"/>
 <path d="M664 685 c-8 -21 2 -45 19 -45 20 0 40 27 33 45 -7 19 -45 20 -52 0z"/>
 <path d="M430 680 c0 -5 6 -10 13 -10 8 0 7 -4 -3 -10 -8 -5 -19 -10 -25 -10 -5 0 -3 5 5 10 10 7 11 10 2 10 -7 0 -15 -7 -18 -15 -9 -22 5 -67 17 -59 8 4 7 10 -2 16 -11 8 -11 9 1 5 8 -2 14 -11 12 -21 -4 -22 25 -21 36 2 5 9 12 33 15 52 3 19 3 29 0 23 -7 -18 -24 -16 -17 2 4 10 0 15 -15 15 -12 0 -21 -4 -21 -10z"/>
 <path d="M624 673 c-11 -10 -24 -30 -28 -45 -5 -21 -12 -28 -31 -28 -14 0 -25 5 -25 11 0 5 -5 7 -11 3 -14 -8 8 -24 36 -24 19 0 65 44 65 63 0 5 11 -2 25 -17 22 -23 28 -25 47 -15 34 18 34 19 -5 12 -34 -5 -36 -3 -44 26 -8 32 -9 32 -29 14z"/>
 <path d="M732 670 c0 -14 2 -19 5 -12 2 6 2 18 0 25 -3 6 -5 1 -5 -13z"/>
 <path d="M484 608 c-4 -7 -3 -8 4 -4 7 4 12 9 12 12 0 8 -9 4 -16 -8z"/>
 <path d="M470 565 c-23 -25 -23 -27 -8 -53 11 -18 26 -28 45 -29 25 -2 26 -1 8 7 -18 9 -17 10 7 7 44 -6 54 50 13 77 -32 21 -37 20 -65 -9z m69 -4 c10 -7 4 -9 -20 -8 -33 2 -34 1 -32 -32 1 -24 -1 -30 -8 -20 -10 17 -12 53 -2 62 9 10 45 8 62 -2z m11 -36 c0 -8 -4 -15 -10 -15 -5 0 -7 7 -4 15 4 8 8 15 10 15 2 0 4 -7 4 -15z"/>
 </g>
<g id="layer110" fill="#f5f8fc" stroke="none">
 <path d="M367 913 c-4 -3 -7 -123 -7 -265 l0 -258 275 0 275 0 0 128 c0 171 -6 202 -36 202 -14 0 -33 5 -44 12 -15 10 -22 9 -38 -5 -10 -9 -23 -17 -28 -17 -6 0 -8 -15 -6 -34 7 -57 -58 -98 -106 -67 -9 5 -22 0 -37 -15 -13 -13 -28 -24 -33 -24 -4 0 -6 -15 -4 -34 3 -27 -1 -37 -23 -55 -15 -11 -37 -21 -49 -21 -31 0 -66 36 -66 66 0 16 -12 37 -30 54 -40 37 -39 73 1 111 26 24 29 31 19 49 -6 11 -8 25 -5 30 4 6 -8 24 -26 40 -28 27 -31 35 -26 70 5 42 5 44 -6 33z"/>
 <path d="M626 913 c-1 -2 -1 -16 2 -32 5 -33 47 -60 66 -41 5 5 21 10 34 10 20 0 23 4 18 23 -3 12 -6 27 -6 32 0 9 -106 16 -114 8z"/>
 <path d="M800 905 c-15 -18 -5 -35 21 -35 12 0 19 7 19 19 0 24 -25 34 -40 16z"/>
 <path d="M771 894 c0 -11 3 -14 6 -6 3 7 2 16 -1 19 -3 4 -6 -2 -5 -13z"/>
 <path d="M881 894 c0 -11 3 -14 6 -6 3 7 2 16 -1 19 -3 4 -6 -2 -5 -13z"/>
 <path d="M543 893 c-18 -7 -16 -40 1 -46 19 -7 40 18 32 38 -6 15 -12 17 -33 8z"/>
 <path d="M424 875 c-4 -9 -2 -21 4 -27 15 -15 44 -1 40 19 -4 23 -36 29 -44 8z"/>
 <path d="M391 864 c0 -11 3 -14 6 -6 3 7 2 16 -1 19 -3 4 -6 -2 -5 -13z"/>
 <path d="M500 870 c0 -7 3 -10 7 -7 3 4 3 10 0 14 -4 3 -7 0 -7 -7z"/>
 <path d="M967 860 c-9 -11 -13 -20 -7 -20 5 0 14 9 20 20 6 11 9 20 8 20 -2 0 -11 -9 -21 -20z"/>
 <path d="M803 843 c4 -3 10 -3 14 0 3 4 0 7 -7 7 -7 0 -10 -3 -7 -7z"/>
 <path d="M868 833 c7 -3 16 -2 19 1 4 3 -2 6 -13 5 -11 0 -14 -3 -6 -6z"/>
 <path d="M918 828 c16 -16 15 -60 0 -78 -11 -12 -10 -12 5 -1 23 18 21 91 -2 91 -12 0 -12 -3 -3 -12z"/>
 <path d="M548 823 c7 -3 16 -2 19 1 4 3 -2 6 -13 5 -11 0 -14 -3 -6 -6z"/>
 <path d="M584 818 c-4 -7 -3 -8 4 -4 12 7 16 16 8 16 -3 0 -8 -5 -12 -12z"/>
 <path d="M738 823 c7 -3 16 -2 19 1 4 3 -2 6 -13 5 -11 0 -14 -3 -6 -6z"/>
 <path d="M854 806 c-9 -24 4 -48 23 -44 12 2 18 12 18 28 0 29 -32 41 -41 16z"/>
 <path d="M727 803 c-11 -10 -8 -41 4 -49 16 -9 43 21 36 40 -7 16 -28 21 -40 9z"/>
 <path d="M617 793 c-12 -12 -7 -41 7 -46 19 -7 40 18 32 38 -6 15 -28 20 -39 8z"/>
 <path d="M692 780 c0 -14 2 -19 5 -12 2 6 2 18 0 25 -3 6 -5 1 -5 -13z"/>
 <path d="M820 790 c0 -7 3 -10 7 -7 3 4 3 10 0 14 -4 3 -7 0 -7 -7z"/>
 <path d="M480 774 c-11 -12 -11 -18 2 -30 14 -14 17 -14 32 1 13 13 14 20 5 31 -15 18 -24 18 -39 -2z"/>
 <path d="M581 774 c0 -11 3 -14 6 -6 3 7 2 16 -1 19 -3 4 -6 -2 -5 -13z"/>
 <path d="M452 760 c0 -14 2 -19 5 -12 2 6 2 18 0 25 -3 6 -5 1 -5 -13z"/>
 <path d="M542 760 c0 -14 2 -19 5 -12 2 6 2 18 0 25 -3 6 -5 1 -5 -13z"/>
 <path d="M868 743 c7 -3 16 -2 19 1 4 3 -2 6 -13 5 -11 0 -14 -3 -6 -6z"/>
 <path d="M728 733 c6 -2 18 -2 25 0 6 3 1 5 -13 5 -14 0 -19 -2 -12 -5z"/>
 <path d="M565 720 c3 -5 11 -10 16 -10 6 0 7 5 4 10 -3 6 -11 10 -16 10 -6 0 -7 -4 -4 -10z"/>
 <path d="M618 723 c7 -3 16 -2 19 1 4 3 -2 6 -13 5 -11 0 -14 -3 -6 -6z"/>
 <path d="M488 713 c6 -2 18 -2 25 0 6 3 1 5 -13 5 -14 0 -19 -2 -12 -5z"/>
 <path d="M678 713 c6 -2 18 -2 25 0 6 3 1 5 -13 5 -14 0 -19 -2 -12 -5z"/>
 <path d="M664 685 c-8 -21 2 -45 19 -45 8 0 20 7 27 15 10 12 10 18 0 30 -7 8 -19 15 -27 15 -7 0 -16 -7 -19 -15z"/>
 <path d="M440 686 c0 -2 7 -7 16 -10 8 -3 12 -2 9 4 -6 10 -25 14 -25 6z"/>
 <path d="M543 683 c4 -3 10 -3 14 0 3 4 0 7 -7 7 -7 0 -10 -3 -7 -7z"/>
 <path d="M642 670 c0 -14 2 -19 5 -12 2 6 2 18 0 25 -3 6 -5 1 -5 -13z"/>
 <path d="M732 670 c0 -14 2 -19 5 -12 2 6 2 18 0 25 -3 6 -5 1 -5 -13z"/>
 <path d="M547 664 c-10 -10 -9 -42 2 -48 18 -11 42 6 39 28 -3 21 -28 33 -41 20z"/>
 <path d="M620 660 c0 -7 3 -10 7 -7 3 4 3 10 0 14 -4 3 -7 0 -7 -7z"/>
 <path d="M437 654 c-4 -4 -7 -16 -7 -26 0 -14 6 -19 23 -16 14 2 22 10 22 23 0 20 -25 32 -38 19z"/>
 <path d="M512 640 c0 -14 2 -19 5 -12 2 6 2 18 0 25 -3 6 -5 1 -5 -13z"/>
 <path d="M401 634 c0 -11 3 -14 6 -6 3 7 2 16 -1 19 -3 4 -6 -2 -5 -13z"/>
 <path d="M678 623 c6 -2 18 -2 25 0 6 3 1 5 -13 5 -14 0 -19 -2 -12 -5z"/>
 <path d="M548 593 c6 -2 18 -2 25 0 6 3 1 5 -13 5 -14 0 -19 -2 -12 -5z"/>
 <path d="M443 583 c4 -3 10 -3 14 0 3 4 0 7 -7 7 -7 0 -10 -3 -7 -7z"/>
 <path d="M498 573 c6 -2 18 -2 25 0 6 3 1 5 -13 5 -14 0 -19 -2 -12 -5z"/>
 <path d="M487 553 c-13 -12 -7 -41 10 -47 21 -9 46 16 37 37 -6 17 -35 23 -47 10z"/>
 <path d="M462 530 c0 -14 2 -19 5 -12 2 6 2 18 0 25 -3 6 -5 1 -5 -13z"/>
 <path d="M552 530 c0 -14 2 -19 5 -12 2 6 2 18 0 25 -3 6 -5 1 -5 -13z"/>
 <path d="M498 483 c6 -2 18 -2 25 0 6 3 1 5 -13 5 -14 0 -19 -2 -12 -5z"/>
 </g>

</svg>