<svg id="Слой_1" data-name="Слой 1" xmlns="http://www.w3.org/2000/svg" viewBox="0 0 100 100"><defs><style>.cls-1{fill:#1d47a2;}</style></defs><title>Монтажная область 1</title><path class="cls-1" d="M28.3,11.8C17.1,18.2,8,23.8,8,24.2,8,24.9,25.2,35,26.4,35c.4,0,5.8-3,12.1-6.6L50,21.8l11.5,6.6C67.8,32,73.2,35,73.6,35,74.8,35,92,24.9,92,24.2,92,23.2,51.4,0,49.8,0,49.1.1,39.4,5.4,28.3,11.8Z"/><path class="cls-1" d="M39.8,30.8C34.4,33.9,30,36.7,30,37s4.5,3.1,10,6.3l10,5.8,10-5.8c5.5-3.2,10-6,10-6.3,0-.5-19.3-12-20.1-12C49.7,25,45.1,27.6,39.8,30.8Z"/><path class="cls-1" d="M6,51.7V76.5L26.5,88.3C37.7,94.7,47.4,100,48,100s1-3.6.8-10.7l-.3-10.8L37,71.9,25.5,65.2l-.3-13.8-.3-13.9-3.7-2.1c-2-1.1-6.3-3.5-9.4-5.3L6,26.8Z"/><path class="cls-1" d="M84.3,32.3l-9.2,5.2-.3,13.9-.3,13.8L63,71.9,51.5,78.5l-.3,10.8c-.2,7.1.1,10.7.8,10.7s10.3-5.3,21.5-11.8L94,76.5V51.7c0-13.6-.1-24.7-.2-24.7S89.4,29.4,84.3,32.3Z"/><path class="cls-1" d="M28,51.8V63.6l10,5.7C43.5,72.4,48.2,75,48.5,75s.5-5.3.5-11.8V51.5l-9.9-5.8C33.6,42.6,28.9,40,28.6,40S28,45.3,28,51.8Z"/><path class="cls-1" d="M60.8,45.8,51,51.5V63.2c0,6.5.2,11.8.5,11.8s5-2.6,10.5-5.7l10-5.7V51.8c0-6.5-.3-11.8-.7-11.8S66.1,42.7,60.8,45.8Z"/></svg>