<?xml version="1.0" encoding="UTF-8"?>
<svg width="120px" height="120px" viewBox="0 0 120 120" version="1.1" xmlns="http://www.w3.org/2000/svg" xmlns:xlink="http://www.w3.org/1999/xlink">
    <!-- Generator: Sketch 52.5 (67469) - http://www.bohemiancoding.com/sketch -->
    <title>Artboard</title>
    <desc>Created with Sketch.</desc>
    <defs>
        <linearGradient x1="15.0451258%" y1="63.9538369%" x2="82.5234737%" y2="26.3858664%" id="linearGradient-1">
            <stop stop-color="#70FA77" offset="0%"></stop>
            <stop stop-color="#359769" offset="100%"></stop>
        </linearGradient>
    </defs>
    <g id="Artboard" stroke="none" stroke-width="1" fill="none" fill-rule="evenodd">
        <path d="M13.52,55.16 C13.7600012,54.893332 14.2999958,54.5466688 15.14,54.12 C15.9800042,53.6933312 16.8733286,53.48 17.82,53.48 C18.7666714,53.48 19.673329,53.6266652 20.54,53.92 C21.406671,54.2133348 22.2599958,54.6866634 23.1,55.34 C23.9400042,55.9933366 24.6199974,56.98666 25.14,58.32 C25.6600026,59.65334 25.92,61.2399908 25.92,63.08 C25.92,66.4400168 25.1600076,68.9999912 23.64,70.76 C22.1199924,72.5200088 20.1733452,73.4 17.8,73.4 C15.4266548,73.4 13.506674,72.4400096 12.04,70.52 C12.0133332,70.4666664 11.9866668,70.4266668 11.96,70.4 L11.28,73 L5.28,73 L4.2,47.04 L13.32,47.04 L13,55.8 C13.1066672,55.6399992 13.2799988,55.426668 13.52,55.16 Z M15.28,58.84 C13.5199912,58.84 12.64,60.439984 12.64,63.64 C12.64,64.7333388 12.8466646,65.713329 13.26,66.58 C13.6733354,67.446671 14.2666628,67.88 15.04,67.88 C15.8133372,67.88 16.399998,67.5866696 16.8,67 C17.200002,66.4133304 17.4399996,65.853336 17.52,65.32 C17.6000004,64.786664 17.64,64.2266696 17.64,63.64 C17.64,60.439984 16.8533412,58.84 15.28,58.84 Z M38.72,65.88 C38.6933332,67.4266744 39.2399944,68.2 40.36,68.2 C40.6800016,68.2 41.0666644,68.0533348 41.52,67.76 L42.36,71.64 C42.1999992,71.773334 41.9800014,71.939999 41.7,72.14 C41.4199986,72.340001 40.8200046,72.5999984 39.9,72.92 C38.9799954,73.2400016 38.0266716,73.4 37.04,73.4 C35.2266576,73.4 33.7466724,72.7800062 32.6,71.54 C31.4533276,70.2999938 30.8400004,68.7200096 30.76,66.8 L30.4,59.24 L27.32,59.24 L27.8,54.04 L30.2,54.04 L30.04,50.12 L39.52,48.2 L39.24,54.04 L41.56,54.04 L42.04,59.24 L39,59.24 L38.72,65.88 Z M52.32,73.4 C47.2799748,73.4 44.76,69.9733676 44.76,63.12 C44.76,61.2799908 45.0666636,58.2533544 45.68,54.04 L53.44,54.04 L53.44,62.68 C53.44,65.7733488 54.306658,67.32 56.04,67.32 C57.5600076,67.32 58.32,65.9333472 58.32,63.16 L58.32,62.48 L57.96,54.04 L66.96,54.04 L66.12,73 L59.36,73 L58.92,69.32 C58.8666664,69.4266672 58.8000004,69.5733324 58.72,69.76 C58.6399996,69.9466676 58.4200018,70.273331 58.06,70.74 C57.6999982,71.206669 57.2933356,71.6199982 56.84,71.98 C56.3866644,72.3400018 55.760004,72.6666652 54.96,72.96 C54.159996,73.2533348 53.2800048,73.4 52.32,73.4 Z M80.8,80.4 C79.4933268,80.4 78.2133396,80.2066686 76.96,79.82 C75.7066604,79.4333314 74.7866696,79.0533352 74.2,78.68 L73.32,78.08 L75.08,74.48 C76.2266724,75.0400028 77.2933284,75.32 78.28,75.32 C80.0933424,75.32 81.4266624,74.7466724 82.28,73.6 C83.1333376,72.4533276 83.56,71.1333408 83.56,69.64 C83.56,69.373332 83.5466668,69.106668 83.52,68.84 C82.2666604,71.3466792 80.2133476,72.6 77.36,72.6 C74.8533208,72.6 72.8600074,71.8400076 71.38,70.32 C69.8999926,68.7999924 69.16,66.3866832 69.16,63.08 C69.16,61.2399908 69.4199974,59.65334 69.94,58.32 C70.4600026,56.98666 71.1466624,55.98667 72,55.32 C73.5733412,54.0933272 75.3199904,53.48 77.24,53.48 C78.57334,53.48 79.706662,53.7999968 80.64,54.44 C81.4133372,55.0000028 82.066664,55.61333 82.6,56.28 L82.36,54.04 L91.64,54.04 L90.96,69.6 C90.6133316,76.800036 87.2266988,80.4 80.8,80.4 Z M79.8,58.88 C78.2266588,58.88 77.44,60.346652 77.44,63.28 C77.44,63.813336 77.4866662,64.3333308 77.58,64.84 C77.6733338,65.3466692 77.9266646,65.8533308 78.34,66.36 C78.7533354,66.8666692 79.3466628,67.12 80.12,67.12 C80.8933372,67.12 81.4733314,66.7466704 81.86,66 C82.2466686,65.2533296 82.44,64.346672 82.44,63.28 C82.44,60.346652 81.5600088,58.88 79.8,58.88 Z M100.68,73.4 C98.6266564,73.4 96.9400066,72.800006 95.62,71.6 C94.2999934,70.399994 93.64,68.700011 93.64,66.5 C93.64,64.299989 94.3866592,62.700005 95.88,61.7 C97.3733408,60.699995 99.1733228,60.2 101.28,60.2 C103.386677,60.2 105.213326,60.53333 106.76,61.2 C106.413332,58.9866556 105.013346,57.88 102.56,57.88 C101.439994,57.88 100.053342,58.1066644 98.4,58.56 L97.4,54.96 C99.800012,53.9733284 102.239988,53.48 104.72,53.48 C111.866702,53.48 115.44,56.5199696 115.44,62.6 C115.44,64.6800104 115.200002,67.5599816 114.72,71.24 L114.52,73 L107.92,73 L107.68,70.8 C105.866658,72.533342 103.533348,73.4 100.68,73.4 Z M104.28,68.44 C105.480006,68.44 106.506662,68.10667 107.36,67.44 L107.12,64.8 C106.45333,64.3466644 105.713337,64.12 104.9,64.12 C104.086663,64.12 103.420003,64.319998 102.9,64.72 C102.379997,65.120002 102.12,65.6133304 102.12,66.2 C102.12,66.7866696 102.319998,67.3066644 102.72,67.76 C103.120002,68.2133356 103.639997,68.44 104.28,68.44 Z" id="btuga" fill="url(#linearGradient-1)"></path>
    </g>
</svg>