<?xml version="1.0" encoding="UTF-8"?>
<!DOCTYPE svg PUBLIC "-//W3C//DTD SVG 1.1//EN" "http://www.w3.org/Graphics/SVG/1.1/DTD/svg11.dtd">
<!-- Creator: CorelDRAW 2018 (64-Bit) -->
<svg xmlns="http://www.w3.org/2000/svg" xml:space="preserve" width="200px" height="204px" version="1.1" style="shape-rendering:geometricPrecision; text-rendering:geometricPrecision; image-rendering:optimizeQuality; fill-rule:evenodd; clip-rule:evenodd"
viewBox="0 0 200 204.041"
 xmlns:xlink="http://www.w3.org/1999/xlink">
 <defs>
  <style type="text/css">
   <![CDATA[
    .fil32 {fill:#15140D}
    .fil12 {fill:#171712}
    .fil45 {fill:#19170E}
    .fil57 {fill:#1D1A11}
    .fil91 {fill:#211D12}
    .fil46 {fill:#221E13}
    .fil25 {fill:#242113}
    .fil74 {fill:#262215}
    .fil39 {fill:#282519}
    .fil71 {fill:#2A2516}
    .fil90 {fill:#2A2A24}
    .fil41 {fill:#2E2919}
    .fil97 {fill:#312E24}
    .fil70 {fill:#332D1C}
    .fil113 {fill:#36301E}
    .fil11 {fill:#383428}
    .fil79 {fill:#3A321E}
    .fil1 {fill:#3A3A34}
    .fil51 {fill:#3D3521}
    .fil108 {fill:#3E4244}
    .fil16 {fill:#423E32}
    .fil54 {fill:#433C25}
    .fil19 {fill:#484437}
    .fil56 {fill:#494028}
    .fil0 {fill:#494A46}
    .fil66 {fill:#4A4129}
    .fil103 {fill:#4F452C}
    .fil55 {fill:#50462D}
    .fil38 {fill:#53492E}
    .fil28 {fill:#544D3A}
    .fil47 {fill:#554C32}
    .fil107 {fill:#575449}
    .fil59 {fill:#584E32}
    .fil63 {fill:#5C5234}
    .fil104 {fill:#5C533A}
    .fil62 {fill:#615536}
    .fil112 {fill:#615E55}
    .fil109 {fill:#625639}
    .fil22 {fill:#64593A}
    .fil33 {fill:#665D43}
    .fil69 {fill:#6A5E3C}
    .fil4 {fill:#6B634C}
    .fil73 {fill:#6E6242}
    .fil95 {fill:#726644}
    .fil2 {fill:#74684A}
    .fil6 {fill:#75633C}
    .fil13 {fill:#756C56}
    .fil77 {fill:#766945}
    .fil5 {fill:#787469}
    .fil102 {fill:#7B6B46}
    .fil99 {fill:#7C6E49}
    .fil29 {fill:#7C7257}
    .fil76 {fill:#7E714B}
    .fil96 {fill:#83734C}
    .fil9 {fill:#837452}
    .fil114 {fill:#847C67}
    .fil43 {fill:#867852}
    .fil10 {fill:#887B5B}
    .fil27 {fill:#8C7B53}
    .fil111 {fill:#8E805B}
    .fil68 {fill:#917E55}
    .fil86 {fill:#93835A}
    .fil93 {fill:#958C76}
    .fil82 {fill:#968559}
    .fil26 {fill:#968967}
    .fil81 {fill:#99875A}
    .fil53 {fill:#9C9278}
    .fil75 {fill:#9D8B5D}
    .fil8 {fill:#9F906A}
    .fil67 {fill:#A18F61}
    .fil7 {fill:#A3946B}
    .fil84 {fill:#A49263}
    .fil15 {fill:#A69978}
    .fil85 {fill:#AA9666}
    .fil106 {fill:#AA9868}
    .fil42 {fill:#AC9C73}
    .fil78 {fill:#AD9A6A}
    .fil18 {fill:#B0A37B}
    .fil14 {fill:#B19F73}
    .fil50 {fill:#B3A37B}
    .fil24 {fill:#B3A583}
    .fil61 {fill:#B5A16E}
    .fil101 {fill:#BAA671}
    .fil17 {fill:#BCAB7B}
    .fil72 {fill:#BDA973}
    .fil20 {fill:#BEB18C}
    .fil64 {fill:#C3AE7B}
    .fil3 {fill:#C5B996}
    .fil92 {fill:#C7B687}
    .fil35 {fill:#C8B68A}
    .fil83 {fill:#C9B77C}
    .fil48 {fill:#CAB47B}
    .fil34 {fill:#CCC19B}
    .fil30 {fill:#CDBA83}
    .fil23 {fill:#D2BD86}
    .fil110 {fill:#D3AE59}
    .fil98 {fill:#D8C58A}
    .fil21 {fill:#D8C797}
    .fil100 {fill:#D8CC90}
    .fil60 {fill:#E2CD96}
    .fil44 {fill:#E9D499}
    .fil87 {fill:#ECE4AA}
    .fil37 {fill:#EDDAA4}
    .fil80 {fill:#F1DDA4}
    .fil115 {fill:#F3D967}
    .fil31 {fill:#F4DC9A}
    .fil89 {fill:#F5E2A4}
    .fil105 {fill:#F5E599}
    .fil36 {fill:#F9E4A5}
    .fil88 {fill:#F9F1A9}
    .fil58 {fill:#FBE8A7}
    .fil94 {fill:#FDECAA}
    .fil40 {fill:#FEF2AB}
    .fil65 {fill:#FEF5AE}
    .fil52 {fill:#FFF9AF}
    .fil49 {fill:#FFFAAE}
   ]]>
  </style>
 </defs>
 <g id="Layer_x0020_1">
  <metadata id="CorelCorpID_0Corel-Layer"/>
  <g id="_2678679702880">
   <g>
    <path class="fil0" d="M149.242 39.487c1.722,2.111 3.58,4.495 6.08,4.979l-4.821 -5.121 3.073 -1.388c0.36,-0.922 0.478,-0.624 -0.543,-0.781l-1.114 0 -2.675 2.311z"/>
    <path class="fil0" d="M96.091 36.85l3.288 -0.828 0.076 -1.156 -3.392 0.713 -6.005 -5.166c1.293,2.488 3.695,4.872 6.033,6.437z"/>
   </g>
   <g>
    <path class="fil1" d="M102.012 157.729c-2.863,-2.654 -4.795,-2.309 -8.557,-5.942 -0.672,3.445 5.761,5.491 8.557,5.942z"/>
    <path class="fil1" d="M96.088 185.292l-6.578 -5.1c0.643,2.49 4.076,4.557 6.578,5.1z"/>
    <polygon class="fil1" points="37.241,67.231 41.712,66.574 37.432,65.794 38.234,64.317 36.737,65.202 "/>
   </g>
   <g>
    <path class="fil2" d="M33.189 70.259l2.352 -3.685 1.7 0.657 -0.504 -2.029 1.497 -0.885 0.908 -0.258 -0.012 -1.332c-3.907,0.96 -5.659,3.773 -5.941,7.532z"/>
    <path class="fil2" d="M88.193 29.029c1.108,1.512 0.656,1.136 1.865,1.384 0.726,-1.978 2.485,-1.538 4.373,-3.731l-6.238 2.347z"/>
   </g>
   <g>
    <path class="fil3" d="M149.242 39.487l2.675 -2.311c-0.061,0.008 -1.823,0.067 -1.902,0.059l-1.102 -0.473c2.181,-1.067 6.569,-2.833 9.101,-2.687 -1.423,-1.029 0.308,-0.748 -2.688,-0.728l-7.179 2.743c-0.117,2.563 -0.621,1.927 1.095,3.397z"/>
    <path class="fil3" d="M80.954 72.374c2.045,-1.188 1.138,-1.042 2.462,-1.959 2.159,-1.494 0.563,0.523 2.739,-1.898l-3.227 -0.051c-1.539,1.898 -1.485,1.415 -1.974,3.908z"/>
   </g>
   <g>
    <path class="fil4" d="M38.173 91.525c-2.494,-0.513 -2.277,-0.651 -4.056,-2.187l0.769 2.411c5.119,1.191 5.488,-0.355 8.867,-0.012 0.162,-2.597 -0.172,-1.087 0.828,-2.437l0.118 -0.931 -6.526 3.156z"/>
    <path class="fil4" d="M34.884 135.104l2.95 -0.198 -0.761 1.977 1.827 0.194 0.632 0.523 1.334 -2.327 -2.459 0.712 2.336 -3.311c-2.85,-0.126 -4.323,0.047 -5.859,2.43z"/>
   </g>
   <g>
    <path class="fil5" d="M5.888 62.607c2.236,1.509 6.697,-1.977 7.537,-4.624 -3.062,0.625 -5.759,2.063 -7.537,4.624z"/>
    <path class="fil5" d="M30.718 157.729l3.657 -0.66c-1.8,-1.072 -2.068,-1.177 -3.657,0.66z"/>
   </g>
   <g>
    <polygon class="fil6" points="158.459,184.057 157.3,184.143 157.959,184.97 167.525,185.104 164.551,182.159 162.471,182.719 "/>
    <path class="fil6" d="M96.088 185.292l-0.655 1.153 8.852 0.13c-0.867,-1.894 -1.926,-2.375 -3.96,-2.576l-4.237 1.293z"/>
   </g>
   <g>
    <path class="fil7" d="M82.041 135.681l0.072 0.249c0.448,2.404 0.093,1.908 1.738,3.303l0.179 -1.547 6.87 -0.974 -0.174 -2.823c-0.048,-1.281 0.361,-2.324 -1.016,-2.813l0.43 4.187 -8.099 0.418z"/>
    <path class="fil7" d="M20.643 153.105c0.108,1.47 -0.857,0.611 0.988,1.982 0.587,-2.05 4.402,-1.397 6.306,-1.703l0.278 -1.683 -1.227 -1.066 -0.014 1.759 -6.331 0.711z"/>
   </g>
   <g>
    <path class="fil8" d="M7.235 149.145l-0.644 1.925 -6.591 0.268c0.626,2.187 0.729,2.486 2.618,3.749l0.174 -1.715 5.015 -0.311 0.204 -7.941c-0.977,1.729 -0.665,1.754 -0.776,4.025z"/>
    <path class="fil8" d="M150.05 144.518c0.206,2.209 -0.059,1.731 1.318,3.303l0.26 -3.518 7.596 -0.392 -0.26 -3.194 -0.666 -1.915 0.107 3.462 -8.289 0.495 -0.066 1.759z"/>
   </g>
   <g>
    <path class="fil9" d="M174.877 94.975l1.581 1.982 0.346 -1.088c1.65,-1.756 1.338,-1.32 4.195,-1.757 2.041,-0.312 2.346,-0.127 3.649,-1.178 -0.225,-2.197 0.048,-1.677 -1.284,-3.296l0.117 1.957 -8.329 1.624 -0.275 1.756z"/>
    <path class="fil9" d="M22.693 186.854l-0.315 0.987c3.049,-0.066 6.842,-0.717 8.496,1.592l-0.97 2.649 -0.625 3.352c1.695,-1.563 2.447,-4.306 2.889,-6.875l-3.869 -3.058 -2.229 0.232c-0.886,1.615 -1.324,1.282 -3.377,1.121z"/>
   </g>
   <g>
    <path class="fil10" d="M83.851 139.233c0.037,2.05 0.059,2.226 1.88,3.303l-0.18 -3.068 6.386 -0.385 -0.25 -2.096c0.045,-2.212 0.471,-1.349 -0.961,-3.098l0.174 2.823 -6.87 0.974 -0.179 1.547z"/>
    <path class="fil10" d="M111.913 164.595l-0.207 2.105c1.26,0 0.672,0.228 1.051,-1.534l1.001 -1.183 2.848 2.2 -1.722 -3.169c-0.385,-1.236 -4.238,-0.661 -5.857,-0.661l0.068 1.111 2.818 1.131z"/>
    <polygon class="fil10" points="35.542,36.184 38.185,36.184 37.93,34.422 36.158,34.561 "/>
   </g>
   <g>
    <path class="fil11" d="M30.279 35.51c-1.452,1.395 -1.016,0.953 -2.552,1.051l-0.034 0.594 -1.808 2.653 3.074 -0.455c1.567,-0.227 2.902,-0.657 4.02,-1.848 1.161,-3.734 1.225,-0.944 1.708,-4.191l-2.587 0.885 -1.821 1.311z"/>
    <path class="fil11" d="M46.071 87.069l-1.372 1.3 -0.118 0.931c4.026,-0.263 3.686,0.392 6.578,-2.454l-1.538 -0.523 -3.55 0.746z"/>
   </g>
   <g>
    <path class="fil12" d="M22.693 186.854c2.053,0.161 2.491,0.494 3.377,-1.121 -0.031,-2.125 -1.886,-3.158 -3.869,-3.953 -1.756,-0.705 -3.492,0.121 -5.272,-0.52 1.332,2.889 3.709,2.354 5.764,5.594z"/>
    <path class="fil12" d="M39.298 103.566c2.439,1.201 4.733,0.556 6.877,-0.643 -2.014,-2.181 -4.043,-2.35 -7.34,-2.029l-1.638 1.331 2.101 1.341z"/>
    <path class="fil12" d="M40.144 198.027l0 0.661c3.776,0.445 1.175,0.727 3.864,1.754 1.158,0.443 2.987,0.458 4.393,0.58l-6.32 -4.959 -1.937 1.964z"/>
   </g>
   <g>
    <path class="fil13" d="M52.656 145.863c-0.691,1.813 -6.945,6.174 -9.214,6.816l-2.807 3.068c4.2,-0.899 14.766,-8.784 17.283,-12.535l-0.728 -0.292c-2.551,0.755 -1.892,1.424 -4.534,2.943z"/>
    <path class="fil13" d="M105.967 200.667c3.436,-1.39 1.51,-1.921 5.042,-2.643l-1.268 -1.243c-1.772,1.092 -2.821,1.978 -3.774,3.886z"/>
    <path class="fil13" d="M23.135 22.312c-1.784,-2.244 -2.966,-1.909 -3.069,-4.812l-1.544 0.849c1.066,1.876 2.512,3.432 4.613,3.963z"/>
    <path class="fil13" d="M58.914 181.513c2.059,0.808 2.742,-0.111 3.172,-1.985l-1.185 -2.948 0.321 3.032 -2.308 1.901z"/>
    <path class="fil13" d="M3.226 70.534l1.616 0.661 0.477 -2.283c-1.628,0.388 -1.641,-0.028 -2.093,1.622z"/>
   </g>
   <g>
    <path class="fil14" d="M53.036 118.7l-0.448 2.04c-0.779,2.407 -0.743,2.472 -3.863,2.755 -2.438,0.221 -2.637,0.463 -4.628,-0.66l-1.316 2.788 9.236 -0.656 0.41 0.657c2.059,-4.998 2.094,-2.836 2.092,-9.264 -0.114,-2.949 0.068,-1.67 -0.87,-2.494l-0.613 4.834z"/>
    <path class="fil14" d="M13.163 77.601c0.467,1.968 0.598,2.164 1.975,3.21l5.769 -2.698c2.338,1.582 0.25,0.576 2.827,2.326l-1.997 -3.53c-4.779,-1.762 -3.804,0.634 -8.574,0.692z"/>
   </g>
   <g>
    <path class="fil15" d="M33.189 70.259l0.24 12.716 -0.035 5.844 0.723 0.519c1.779,1.536 1.562,1.674 4.056,2.187l-2.485 -1.982c-0.346,-3.464 -1.038,-7.746 -1.422,-11.167 -0.37,-3.302 1.221,-8.109 1.275,-11.802l-2.352 3.685z"/>
    <path class="fil15" d="M44.398 164.398l3.103 10.509 1.818 1.24c3.648,-0.992 6.652,-0.217 10.554,-0.481l1.028 0.914 1.185 2.948c2.872,-1.174 0.311,-3.035 -0.995,-4.506l-11.568 -0.149c-2.817,-3.831 -2.299,-7.601 -4.345,-11.65l-2.358 -0.87c2.455,1.595 0.97,0.398 1.578,2.045z"/>
    <path class="fil15" d="M31.592 163.604l6.984 0.434c0.191,3.043 -0.694,1.148 0.255,4.152l0.667 -2.248 0.005 -3.033 -5.741 -0.556 -2.17 1.251z"/>
    <polygon class="fil15" points="102.673,163.908 111.913,164.595 109.095,163.464 109.027,162.353 104.157,162.397 "/>
   </g>
   <g>
    <path class="fil16" d="M176.804 95.869l-0.346 1.088 1.09 1.466c1.928,-0.31 3.822,-0.869 5.69,-1.196 2.2,-0.385 3.861,-0.145 5.389,-1.591l-0.397 -1.892 -1.562 -1.427c-3.094,2.892 -5.12,2.633 -9.864,3.552z"/>
    <path class="fil16" d="M180.806 131.306l0.316 2.151 7.493 -1.252 2.034 -0.235 0.147 -1.985c-3.483,0 -7.255,-0.146 -9.99,1.321z"/>
    <path class="fil16" d="M159.944 177.43l-9.225 0.655c1.392,2.364 4.266,4.541 6.581,6.058l1.159 -0.086c-2.119,-2.073 -4.415,-3.336 -5.432,-5.543 4.348,-0.073 7.01,-0.485 10.606,1.267l-1.738 -3.131 -1.951 0.78z"/>
   </g>
   <g>
    <polygon class="fil17" points="148.086,139.237 150.05,144.518 150.116,142.759 158.405,142.264 158.298,138.802 156.998,132.116 157.496,139.445 "/>
    <path class="fil17" d="M32.977 10.395c1.215,0.987 0.831,1.001 2.971,1.005 2.373,0.588 3.281,0.346 5.433,0.014l2.332 -7.82 0.02 -3.081 -0.949 0.661c-0.536,3.119 -1.353,7.128 -3.328,9.269 -3.408,0.552 -3.417,-0.843 -6.479,-0.048z"/>
   </g>
   <g>
    <path class="fil18" d="M63.195 16.517c1.179,1.47 0.887,-1.405 1.162,2.126l-4.322 3.005 -5.462 2.763 -0.032 3.049c1.547,2.765 2.588,7.79 2.432,11.367l1.769 -1.12 -3.064 -12.02 3.536 -2.075c2.337,-1.339 10.16,-5.914 3.733,-7.906l0.248 0.811z"/>
    <path class="fil18" d="M119.13 26.239l6.325 0.694c-0.716,-4.044 -4.708,1.759 -6.49,-5.119 -0.397,-1.534 -0.81,-3.028 -1.269,-4.667 -0.74,-2.644 -0.814,-2.967 -2.937,-3.422 0.909,2.67 1.559,3.941 2.212,6.834 0.817,3.621 1.418,3.359 2.159,5.68z"/>
   </g>
   <g>
    <path class="fil19" d="M28.263 200.283c-3.982,2.658 -6.241,-0.966 -8.052,1.705 2.738,1.997 7.621,1.893 11.452,2.053 3.137,-2.486 4.474,-4.03 8.481,-5.353l0 -0.661c-2.074,-1.041 -1.686,-0.688 -3.942,0.037 -0.611,2.256 -4.922,4.692 -7.308,4.646 -0.893,-1.37 -0.601,0.514 -0.631,-2.427z"/>
    <path class="fil19" d="M95.38 47.544l-0.12 1.851c1.647,1.617 4.771,-0.436 6.842,-1.235 5.097,-1.969 3.104,-0.861 7.149,-0.689 -1.895,-1.782 -0.788,-0.625 -1.041,-2.165l-1.649 1.109c-1.941,-2.317 -0.645,-2.751 -3.885,-2.361l-0.288 0.138c-0.613,1.789 -1.037,1.284 -3.392,2.159 -1.253,0.465 -2.314,0.915 -3.616,1.193z"/>
    <path class="fil19" d="M163.355 53.042c-1.042,1.386 -4.505,2.129 -6.555,2.064l-2.79 1.723 0.784 1.02c2.417,0.245 7.863,-0.557 9.091,-1.848l1.765 -1.211 -1.107 -2.187 -1.188 0.439z"/>
    <path class="fil19" d="M168.744 198.685l0.068 -1.969 -1.631 -1.376c-1.259,1.388 -1.191,2.09 -3.307,2.11 -3.096,0.03 -2.416,-0.771 -3.28,-1.508l0.652 0.133 -5.92 0.141 1.455 1.667c4.563,0.496 7.058,0.802 11.963,0.802z"/>
   </g>
   <g>
    <path class="fil20" d="M179.622 173.762c3.998,3.147 5.61,1.511 10.7,2.375l0.286 2.07c1.15,-1.302 1.15,0.263 0.747,-3.133 -2.631,-2.087 -6.648,-1.491 -10.361,-1.491l-2.865 -10.194 -2.478 -0.375 -0.289 0.715c2.124,1.598 4.014,7.184 4.26,10.033z"/>
    <path class="fil20" d="M92.801 24.475l3.194 -1.289 0.1 2.481c1.501,-0.599 1.175,0.647 1.186,-1.14l0.742 -2.215c1.567,-0.081 4.61,0.869 6.628,1.36l4.802 0.364 0.457 -1.454c-3.05,0.812 -4.892,0.579 -7.576,-0.931 0.444,-3.887 5.545,-5.903 9.127,-6.009l-0.662 4.025c1.875,-1.504 2.702,-3.516 1.342,-5.942 -4.906,0.979 -9.375,2.748 -10.831,7.88 -2.099,0.063 -2.86,-0.176 -4.791,0.471l-3.718 2.399z"/>
    <path class="fil20" d="M154.01 56.829l2.79 -1.723 -2.341 0.277 -0.427 -1.364c-1.534,1.131 -0.671,1.788 -0.022,2.81z"/>
   </g>
   <g>
    <path class="fil21" d="M20.211 201.988c1.811,-2.671 4.07,0.953 8.052,-1.705l1.016 -4.849 0.625 -3.352c-1.767,2.003 -2.236,5.704 -3.516,8.343l-5.498 -1.192c-0.492,-3.286 -0.054,-3.052 1.065,-5.487 0.831,-1.81 0.392,-2.536 1.248,-5.12l7.671 0.807c-1.654,-2.309 -5.447,-1.658 -8.496,-1.592 -0.092,5.062 -3.073,7.713 -3.347,12.882l1.18 1.265z"/>
    <path class="fil21" d="M21.52 149.145l-2.042 3.3 1.165 0.66 6.331 -0.711 0.014 -1.759 -1.542 -1.529c-2.581,-0.817 -0.695,-0.591 -3.512,-0.299l-0.414 0.338z"/>
    <path class="fil21" d="M27.643 174.591c3.035,1.016 5.284,1.024 8.444,0.49 0.755,-2.84 -0.129,-0.733 1.414,-2.781l-0.211 0.304 -0.012 -1.66c-1.768,1.391 -1.177,0.261 -1.553,3.657l-6.827 -0.436 1.973 -8.509 -3.228 8.935z"/>
   </g>
   <g>
    <path class="fil22" d="M23.069 15.703l-2.431 0.463c-0.431,0.758 -0.471,1.161 -0.572,1.334 0.103,2.903 1.285,2.568 3.069,4.812l3.85 3.745 1.369 -0.12 0 -1.271c-1.976,-1.244 -3.639,-2.385 -4.766,-4.402 1.62,-1.989 3.042,-1.768 3.616,-4.494 -1.188,-2.231 -0.952,-0.636 -0.727,-3.351l0.217 -0.731c-1.951,2.319 -0.418,2.817 -3.625,4.015z"/>
    <path class="fil22" d="M152.936 150.463c-0.428,1.164 -0.434,0.66 1.07,0.66l-0.054 -2.097 7.352 -0.624 -0.812 -2.969 -0.555 1.608 -7.171 0.323 0.17 3.099z"/>
   </g>
   <g>
    <path class="fil23" d="M147.428 134.649l0.658 4.588 9.41 0.208 -0.498 -7.329c0.114,-1.734 0.442,-2.568 -0.684,-3.774 -0.819,3.4 0.347,3.592 0.222,6.801 -3.349,0.332 -6.025,0.816 -9.108,-0.494z"/>
    <path class="fil23" d="M153.351 75.948l-1.316 3.19c3.353,-1.47 5.768,-2.446 9.749,-2.731 -0.16,2.38 -0.059,2.953 -1.538,4.627l-1.035 5.277c2.021,-2.253 2.476,-4.177 3.103,-7.166l0.519 -4.53 -9.482 1.333z"/>
    <path class="fil23" d="M117.153 61.235l-0.659 1.045 3.608 -0.269 4.515 -1.022c0.412,4.527 -1.691,9.11 -1.231,13.325l0.852 -1.369 1.719 -11.215 0.016 -1.803c-4.288,-0.508 -5.023,1.255 -8.82,1.308z"/>
    <path class="fil23" d="M15.138 80.811l0 1.81 6.599 -3.001 1.682 1.24 0.315 -0.421c-2.577,-1.75 -0.489,-0.744 -2.827,-2.326l-5.769 2.698z"/>
   </g>
   <g>
    <path class="fil24" d="M123.853 44.108l0.76 4.627c2.208,-2.033 1.315,-2.929 0.6,-5.405 -0.707,-2.447 -1.575,-4.778 -2.137,-7.146 3.233,-1.649 7.654,-3.752 8.613,-7.352 -2.329,-2.966 -2.494,-3.188 -6.234,-1.899l4.361 1.985c-1.04,2.692 -5.464,4.334 -7.658,6.298 -0.28,3.079 1.262,5.554 1.695,8.892z"/>
    <path class="fil24" d="M51.337 80.721c-1.921,0.833 -1.446,2.068 -3.291,4.03 1.882,-0.811 3.239,-1.306 5.249,-1.886 3.002,-0.867 4.05,-0.616 4.948,-3.305l-6.906 1.161z"/>
   </g>
   <g>
    <path class="fil25" d="M113.567 199.345l0.295 -0.309 9.331 0.366c-1.473,-2.826 -4.418,-3.334 -4.727,-5.138l-3.512 -1.339 -4.059 3.971 2.672 2.449z"/>
    <path class="fil25" d="M179.674 83.144l-0.026 -0.056 2.238 0.897 -0.862 -4.279c-2.515,0.217 -0.812,-0.459 -2.142,0.697l0.792 2.741z"/>
   </g>
   <g>
    <path class="fil26" d="M123.763 192.725l1.487 7.281c3.311,-2.917 0.113,-6.338 -1.446,-13.707 1.904,-1.713 3.514,-3.016 5.363,-4.621 0.232,-0.202 2.266,-2.21 2.358,-2.345 0.827,-1.208 0.645,0.251 0.721,-1.801 0.111,-3.031 0.037,-1.139 -0.614,-1.31l-12.071 -0.704c2.633,1.983 6.764,0.448 10.618,1.368 0.353,2.657 0.426,1.999 -1.8,4.005 -8.436,7.599 -5.979,4.381 -4.616,11.834z"/>
    <path class="fil26" d="M54.51 71.191l3.912 -1.163 2.068 0.54 0.302 3.186c-0.322,4.307 -0.008,3.42 -2.549,5.806 -0.898,2.689 -1.946,2.438 -4.948,3.305 -2.01,0.58 -3.367,1.075 -5.249,1.886l-1.975 2.318 3.55 -0.746c0,-1.211 -0.216,-0.918 0.936,-0.378 2.552,-2.793 3.136,-0.708 5.303,-1.094 1.753,-0.312 2.522,-2.408 4.096,-3.317 1.785,-5.687 2.29,-3.023 1.505,-9.829l-0.954 -2.458c-1.782,-0.493 -1.344,-0.903 -3.74,0.032 -2.545,0.993 -1.414,0.847 -2.257,1.912z"/>
    <path class="fil26" d="M109.299 172.926l-0.741 1.832c-3.283,0.277 -6.078,0.261 -9.176,-0.708 -4.191,0.479 -8.487,-0.611 -11.846,1.198l8.57 1.022 -0.401 1.986 1.18 -0.052c0.325,-1.248 -0.096,-1.131 0.958,-0.846 0.534,-2.271 9.145,-0.816 11.623,-1.58l0.793 -3.401 -0.96 0.549z"/>
    <path class="fil26" d="M9.873 73.896l3.29 3.705c4.77,-0.058 3.795,-2.454 8.574,-0.692 -0.683,-1.879 -1.613,-3.4 -3.271,-4.619 -3.824,-0.229 -4.055,1.698 -8.593,1.606z"/>
    <path class="fil26" d="M43.733 0.513l-0.02 3.081c1.664,-1.665 0.257,-0.843 2.279,-2.097 2.102,2.109 3.214,6.57 3.12,9.53l1.929 3.54 5.561 0.469c-0.199,-4.804 -3.129,4.176 -6.196,-6.983 -0.995,-3.619 -1.078,-5.885 -4.429,-8.053l-2.244 0.513z"/>
    <path class="fil26" d="M42.781 125.623c-1.63,0.663 -2.315,1.528 -3.291,3.114 3.023,-1.242 4.453,-1.831 7.916,-1.344l-4.038 3.664 2.01 0.516 2.522 -1.317c1.538,-3.202 2.613,-1.793 4.117,-5.289l-9.236 0.656z"/>
    <path class="fil26" d="M25.276 10.422l-0.139 1.658 -2.068 3.623c3.207,-1.198 1.674,-1.696 3.625,-4.015l0.092 0.079 0.762 -1.572c3.029,0.366 2.635,0.848 5.429,0.2l0.093 -0.633c-3.33,-0.065 -5.739,-2.008 -7.794,0.66z"/>
   </g>
   <g>
    <path class="fil27" d="M97.281 24.527c3.394,0.279 6.592,5.385 9.41,7.495l-4.184 2.292 3.239 -0.225 2.453 -0.682c-1.686,-4.274 -0.916,-3.421 -0.915,-7.68 -2.868,-0.724 -1.396,0.299 -2.633,-2.055 -2.018,-0.491 -5.061,-1.441 -6.628,-1.36l-0.742 2.215z"/>
    <path class="fil27" d="M14.798 115.217c0.024,3.5 -1.901,6.989 -2.64,10.508l1.3 -0.123c0.753,-4.203 2.608,-7.764 3.356,-12.198 0.526,-3.117 2.436,-9.489 3.96,-11.576 2.389,-7.829 4.791,-7.945 4.259,-17.419 -0.355,-2.899 -0.341,-1.307 -0.956,-2.112 -0.088,9.873 -0.281,8.665 -3.807,17.077 -1.386,3.305 -4.678,14.579 -5.472,15.843z"/>
    <path class="fil27" d="M172.401 171.904c-0.097,3.256 -0.397,0.971 0.667,2.775 2.061,-2.742 2.33,-7.468 2.294,-10.95l0.289 -0.715c-1.95,0 -3.904,0.015 -5.853,-0.01 -2.49,-0.032 -3.834,-0.516 -5.258,0.83l9.164 0.936 -1.303 7.134z"/>
    <path class="fil27" d="M60.035 21.648l4.322 -3.005c-0.275,-3.531 0.017,-0.656 -1.162,-2.126l-0.354 2.196 -2.806 2.935z"/>
   </g>
   <g>
    <path class="fil28" d="M8.011 145.12l-0.204 7.941 -5.015 0.311 -0.174 1.715c1.444,1.259 1.385,1.487 3.772,1.205 2.036,-0.241 3.049,-0.395 5.453,-0.548 4.262,-0.274 4.453,-2.219 7.635,-3.299l2.042 -3.3 -1.772 0.254 -2.632 1.982c-0.118,2.397 -4.977,3.219 -7.283,3.094 -2.654,-6.953 -0.431,-8.835 -0.374,-14.772 -1.578,1.924 -1.563,2.773 -1.448,5.417z"/>
    <path class="fil28" d="M114.674 51.121c-3.211,-0.477 -3.384,-1.217 -5.423,-3.65 -0.526,2.586 3.536,5.053 5.58,4.838 1.305,-0.137 7.517,-2.215 8.578,-2.914 0.028,-2.847 -2.783,-4.685 -4.903,-6.254l0.025 1.276c1.732,1.191 2.561,1.799 3.407,3.663 -1.572,1.722 -4.896,2.654 -7.264,3.041z"/>
    <path class="fil28" d="M158.288 69.873l0.123 1.501 3.681 -0.501 2.574 -0.259 0.994 -1.251 -6.067 0.626c0.621,-1.867 -0.714,-0.668 1.305,-2.097l-2.61 1.981z"/>
   </g>
   <g>
    <path class="fil29" d="M39.49 128.737c-1.684,0.998 -7.103,5.911 -7.898,7.548l3.292 -1.181c1.536,-2.383 3.009,-2.556 5.859,-2.43l-2.336 3.311 2.459 -0.712c1.675,-0.077 3.576,-2.014 4.512,-3.7l-2.01 -0.516 4.038 -3.664c-3.463,-0.487 -4.893,0.102 -7.916,1.344z"/>
    <path class="fil29" d="M27.643 174.591c-5.173,0.843 -10.002,-0.892 -14.48,1.713 2.557,0.279 5.599,0.216 7.674,1.18 -1.361,2.315 0.068,1.706 -3.688,1.61 -2.116,-0.054 -2.416,-0.182 -4.644,0.106 1.668,2.348 0.424,2.362 2.562,1.653 0.178,-1.403 4.073,-0.709 5.326,-0.732 1.434,-1.8 0.357,-1.73 2.601,-2.206 1.532,-3.269 11.041,0.352 14.247,-2.404l0.26 -3.211c-1.543,2.048 -0.659,-0.059 -1.414,2.781 -3.16,0.534 -5.409,0.526 -8.444,-0.49z"/>
    <path class="fil29" d="M28.363 52.695c3.168,-0.666 6.011,-2.325 8.871,-1.792 2.766,-1.891 6.506,-1.045 10.066,-0.816 -0.466,-1.18 1.129,-0.329 -1.011,-1.352 -3.644,-1.436 -14.465,1.247 -15.967,1.986 -3.347,1.647 -0.842,-0.036 -1.959,1.974z"/>
    <path class="fil29" d="M39.498 165.942l0.344 0c1.628,-2.685 1.649,-2.151 4.556,-1.544 -0.608,-1.647 0.877,-0.45 -1.578,-2.045 0.229,-1.272 -2.054,-0.676 -3.972,-0.675 -2.194,0.002 -3.955,-0.436 -5.086,0.675l5.741 0.556 -0.005 3.033z"/>
    <path class="fil29" d="M31.291 103.683l0.32 0.262 -0.674 1.401c3.606,0.633 0.991,-1.396 5.253,-1.784l-0.485 -1.675 -2.135 -0.015c0.092,1.264 -0.907,1.274 -2.279,1.811z"/>
    <path class="fil29" d="M156.532 71.855c0.866,1.171 0.385,0.959 2.536,0.702 2.332,-0.279 2.166,-0.852 3.024,-1.684l-3.681 0.501 -0.123 -1.501c-1.806,0.403 -1.357,0.558 -1.756,1.982z"/>
   </g>
   <g>
    <path class="fil30" d="M79.637 127.25c0.046,2.268 1.332,7.072 2.476,8.68l-0.072 -0.249c1.185,-3.319 3.194,-2.548 6.817,-2.4l0.292 -3.693c0.036,-2.48 -0.156,-6.926 -1.237,-8.788l-0.272 7.087c-3.162,0.177 -5.346,0.873 -8.004,-0.637z"/>
    <path class="fil30" d="M102.507 34.314c-1.843,0.11 -0.631,-0.188 -1.058,0.898l3.75 -0.895 -0.929 3.423 -1.882 6.452 0.288 -0.138c2.7,-3.362 2.846,-4.945 4.161,-9.306l-1.091 -0.659 -3.239 0.225z"/>
   </g>
   <g>
    <path class="fil31" d="M161.249 28.31l-1.316 3.147 0.949 1.352 7.526 1.047c1.595,-2.746 2.446,-4.903 2.494,-7.994l-9.653 2.448z"/>
    <path class="fil31" d="M156.927 46.473c3.369,0.552 3.928,-1.202 6.957,0.432l-0.321 4.481c1.742,-1.7 2.274,-4.918 2.367,-7.325l-3.25 0.439c-2.097,0.036 -4.344,0.593 -5.753,1.973z"/>
    <path class="fil31" d="M152.035 79.138l0 1.301c1.558,-0.47 2.788,-0.538 4.098,-0.894 1.728,-0.47 2.47,-1.032 4.261,-1.346l-0.148 2.835c1.479,-1.674 1.378,-2.247 1.538,-4.627 -3.981,0.285 -6.396,1.261 -9.749,2.731z"/>
    <path class="fil31" d="M28.909 26.063l0.518 1.018c2.598,-0.056 2.506,0.227 4.682,-0.577l0.263 -3.366 -5.463 2.925z"/>
   </g>
   <g>
    <path class="fil32" d="M38.234 64.317l-0.802 1.477 4.28 0.78c7.893,1.187 8.004,4.91 15.549,1.318 -1.516,-1.912 -3.684,-2.246 -6.795,-2.993 -3.61,-0.866 -5.878,-1.272 -9.657,-1.165l-1.667 0.325 -0.908 0.258z"/>
    <path class="fil32" d="M7.698 68.759l-0.462 -0.186 -0.594 1.407c3.037,1.604 5.155,2.167 7.14,-0.767 -2.991,-2.445 -2.237,-0.745 -6.084,-0.454z"/>
   </g>
   <g>
    <path class="fil33" d="M85.731 142.536c0.288,2.461 2.175,5.634 4.434,6.606l-0.922 -2.711c2.591,-1.338 3.461,-0.28 6.249,-1.156 0.141,-1.648 -2.566,-7.432 -3.805,-8.288l0.25 2.096 -6.386 0.385 0.18 3.068z"/>
    <path class="fil33" d="M174.753 137.252l0.149 1.985 0.823 1.044c0.123,-5.132 4.439,-5.407 8.798,-5.782 2.169,2.473 0.4,0.064 0.754,2.576 1.976,-1.769 0.649,-0.752 1.585,-2.616 0.657,-1.308 0.608,-0.579 1.753,-2.254l-7.493 1.252 -0.316 -2.151c-2.189,0.693 -5.032,3.941 -6.053,5.946z"/>
    <path class="fil33" d="M36.158 34.561l1.772 -0.139 0.255 1.762c2.588,1.738 5.305,5.622 8.321,6.606 -1.753,-3.226 -5.217,-4.982 -7.63,-7.927l5.426 -4.157 0.186 -1.066 -1.977 0.106c-1.487,2.185 -4.216,1.74 -6.353,4.815z"/>
    <path class="fil33" d="M55.459 183.372c-2.262,4.015 -5.037,1.395 -4.209,7.383l1.514 2.24 -1.018 -4.897 1.565 -1.048c2.452,-1.136 5.144,-3.015 5.603,-5.537l-3.455 1.859z"/>
    <path class="fil33" d="M109.39 158.39c3.448,0 5.469,-0.593 8.179,-0.661l0.357 -1.48 -5.939 -0.861c-1.221,3.549 0.3,-0.061 -2.597,3.002z"/>
    <path class="fil33" d="M9.214 72.528c0,1.517 -0.458,1.268 0.659,1.368 4.538,0.092 4.769,-1.835 8.593,-1.606 -2.255,-3.937 -4.571,0.366 -9.252,0.238z"/>
    <path class="fil33" d="M155.322 44.466c-0.415,1.571 -0.654,0.389 0.004,1.855l1.601 0.152c1.409,-1.38 3.656,-1.937 5.753,-1.973l0 -1.203c-3.039,0.315 -4.894,2.119 -7.358,1.169z"/>
    <path class="fil33" d="M163.885 56.001l3.417 0.061c0.065,-1.91 0.459,-0.783 2.026,-3.021l-2.197 1.079 -2.588 -1.517 1.107 2.187 -1.765 1.211z"/>
    <path class="fil33" d="M53.144 202.648c1.854,0.123 1.525,-0.263 1.941,-1.321 -0.372,-2.18 0.027,-2.885 -1.629,-4.073 0.414,3.538 1.248,1.9 -0.312,5.394z"/>
    <polygon class="fil33" points="29.966,105.789 30.937,105.346 31.611,103.945 "/>
    <polygon class="fil33" points="28.402,137.823 26.591,136.579 "/>
   </g>
   <g>
    <path class="fil34" d="M26.985 26.057c-0.328,4.312 -4.724,9.509 -2.633,12.752l3.341 -1.654 0.034 -0.594 -3.73 0.394c1.372,-2.467 4.335,-3.76 6.841,-4.405 0.024,1.47 1.944,-3.023 -0.559,2.96l1.821 -1.311 3.099 -7.474 -1.09 -0.221c-2.176,0.804 -2.084,0.521 -4.682,0.577l-0.518 -1.018 -0.555 -0.126 -1.369 0.12z"/>
    <path class="fil34" d="M33.07 9.762l-0.093 0.633c3.062,-0.795 3.071,0.6 6.479,0.048 1.975,-2.141 2.792,-6.15 3.328,-9.269 -1.35,0.632 -4.07,2.259 -5.422,3.148 -3.483,2.293 -2.26,3.679 -4.292,5.44z"/>
    <path class="fil34" d="M18.522 18.349l1.544 -0.849c0.101,-0.173 0.141,-0.576 0.572,-1.334l-2.52 0.676c0.458,-1.718 -2.061,-0.365 2.868,-3.277 2.454,-1.45 1.442,-1.929 4.151,-1.485l0.139 -1.658c-3.301,0.755 -7.283,3.21 -8.22,6.662l1.466 1.265z"/>
   </g>
   <g>
    <path class="fil35" d="M182.314 56.662c3.512,-1.341 -0.205,-6.079 -0.662,-11.23 0.414,-0.37 0.998,-0.883 1.79,-1.506 0.879,-0.692 1.464,-1.045 2.282,-1.673 2.255,-1.73 2.455,-1.914 2.51,-4.748 -2.588,-1.712 -6.678,-2.356 -9.873,-2.642l-2.563 -8.688c-1.776,-2.944 -0.244,-1.665 -2.288,-1.224 5.377,5.052 -3.676,9.674 12.504,13.498 -1.376,3.371 -3.395,3.836 -5.789,6.286 -0.222,4.423 2.092,6.64 2.089,11.927z"/>
    <path class="fil35" d="M44.097 111.571l1.316 6.883 0.672 -4.841 5.949 -1.113 1.615 1.366 -0.171 -1.999c-0.805,-0.402 -1.355,-0.497 -2.197,-0.985l-7.184 0.689z"/>
   </g>
   <g>
    <path class="fil36" d="M29.904 192.082l0.97 -2.649 -7.671 -0.807c-0.856,2.584 -0.417,3.31 -1.248,5.12 -1.119,2.435 -1.557,2.201 -1.065,5.487l5.498 1.192c1.28,-2.639 1.749,-6.34 3.516,-8.343z"/>
    <path class="fil36" d="M154.032 54.019l0.427 1.364 2.341 -0.277c2.05,0.065 5.513,-0.678 6.555,-2.064l0.208 -1.656 0.321 -4.481c-3.029,-1.634 -3.588,0.12 -6.957,-0.432l-1.601 -0.152c-0.004,3.76 -1.268,4.185 -1.294,7.698z"/>
   </g>
   <g>
    <path class="fil37" d="M96.091 36.85c-0.306,3.444 -3.87,8.363 -1.974,11.157l1.263 -0.463c1.302,-0.278 2.363,-0.728 3.616,-1.193 2.355,-0.875 2.779,-0.37 3.392,-2.159l1.882 -6.452 -5.057 0.182c-0.718,-1.448 -0.724,0.089 0.166,-1.9l-3.288 0.828z"/>
    <path class="fil37" d="M15.138 82.621l1.971 5.748c-0.987,2.888 -1.038,1.652 -0.711,4.656 4.626,2.085 6.359,-1.335 6.641,-5.273 -1.404,1.09 -3.292,1.242 -5.253,1.523l-0.293 -5.805 5.546 -1.71 0.38 -0.9 -1.682 -1.24 -6.599 3.001z"/>
    <path class="fil37" d="M27.727 36.561c1.536,-0.098 1.1,0.344 2.552,-1.051 2.503,-5.983 0.583,-1.49 0.559,-2.96 -2.506,0.645 -5.469,1.938 -6.841,4.405l3.73 -0.394z"/>
    <path class="fil37" d="M20.638 16.166l2.431 -0.463 2.068 -3.623c-2.709,-0.444 -1.697,0.035 -4.151,1.485 -4.929,2.912 -2.41,1.559 -2.868,3.277l2.52 -0.676z"/>
   </g>
   <g>
    <path class="fil38" d="M41.381 11.414c-2.152,0.332 -3.06,0.574 -5.433,-0.014 -3.841,2.12 -0.87,0.544 -0.488,1.637l4.796 0.631c-0.062,0.291 0.567,14.851 3.54,14.725 -2.338,0.068 -0.671,-0.285 -1.285,1.353l1.977 -0.106 -0.186 1.066c2.42,-2.063 0.249,-0.709 3.053,-1.259l-2.43 -9.743c-0.634,-3.109 -0.819,-6.88 -1.345,-10.144 -2.164,2.687 -0.178,0.609 -2.199,1.854z"/>
    <path class="fil38" d="M50.992 62.872l5.242 1.288c-3.522,-4.323 -0.317,-4.364 -2.968,-9.619 0.883,-1.354 -0.173,-1.059 2.002,-1.242 -2.65,-0.495 -3.229,-1.079 -5.903,-1.264 -2.501,0.988 -0.661,0.233 -2.031,1.361 1.795,3.342 0.881,0.699 1.545,4.622 0.371,2.192 0.587,3.073 2.113,4.854z"/>
   </g>
   <g>
    <path class="fil39" d="M10.183 66.782l-2.281 1.093 -0.204 0.884c3.847,-0.291 3.093,-1.991 6.084,0.454 -1.985,2.934 -4.103,2.371 -7.14,0.767l0.594 -1.407 -1.917 0.339 -0.477 2.283c1.357,0.79 2.969,1.429 4.372,1.333 4.681,0.128 6.997,-4.175 9.252,-0.238 1.658,1.219 2.588,2.74 3.271,4.619l1.997 3.53 -0.315 0.421c0.613,0.302 0.703,-1.033 0.658,1.437 0.615,0.805 0.601,-0.787 0.956,2.112 2.709,3.498 0.463,1.25 1.839,0.813 -0.025,-6.786 -3.757,-9.257 -4.498,-12.976 -3.233,-2.251 -0.69,-2.34 -5.459,-5.023 -3.466,-1.949 -3.415,-3.391 -6.732,-0.441z"/>
    <path class="fil39" d="M51.337 40.811l0.661 0.658 1.405 -1.03 -0.278 -1.964c-2.919,0.711 -5.107,1.177 -5.751,3.624l3.963 -1.288z"/>
   </g>
   <g>
    <path class="fil40" d="M98.989 198.348l3.928 0.007c-0.182,-3.895 1.828,-5.009 1.494,-8.791l-0.404 -2.042 -7.52 -0.545c-1.081,2.924 -2.815,7.053 -2.414,9.614 2.703,0.511 2.971,0.157 4.916,1.757z"/>
    <path class="fil40" d="M109.299 172.926l0.96 -0.549 0.675 -5.407 -0.392 -2.008c-2.408,-0.265 -6.159,-0.936 -7.607,0.954 -1.362,1.776 -2.036,5.6 -1.418,7.551 3.246,0.357 4.936,0.861 7.782,-0.541z"/>
   </g>
   <g>
    <path class="fil41" d="M96.095 25.667l-1.664 1.015c-1.888,2.193 -3.647,1.753 -4.373,3.731l6.005 5.166 3.392 -0.713 1.994 0.346c0.427,-1.086 -0.785,-0.788 1.058,-0.898l4.184 -2.292c-2.818,-2.11 -6.016,-7.216 -9.41,-7.495 -0.011,1.787 0.315,0.541 -1.186,1.14z"/>
    <path class="fil41" d="M15.784 59.301c-1.453,0.465 -4.973,5.542 -5.601,7.481 3.317,-2.95 3.266,-1.508 6.732,0.441 4.769,2.683 2.226,2.772 5.459,5.023 -2.082,-2.997 -3.542,-9.838 -2.848,-13.605l-3.742 0.66z"/>
    <path class="fil41" d="M27.204 15.77c4.92,2.03 3.309,4.848 8.992,5.439l0.651 -0.101 -3.581 -3.991c-3.02,-1.586 -3.731,-4.191 -6.789,-4.698 -0.225,2.715 -0.461,1.12 0.727,3.351z"/>
   </g>
   <g>
    <path class="fil42" d="M104.4 89.761c0.241,2.596 -0.885,6.737 -1.074,9.817 -0.183,3.002 -0.132,7.456 0.356,10.389 1.278,7.686 1.834,12.111 2.159,20.015l2.218 5.054 1.406 0 -1.785 -5.051c-0.653,-2.187 -1.267,-12.393 -1.747,-15.823 -0.927,-6.624 -2.034,-9.708 -0.836,-16.753 1.638,-9.636 6.022,-22.683 2.214,-32.101l-2.618 -0.719c2.621,5.287 2.936,6.173 2.442,13.229 -0.245,3.492 -0.438,9.763 -2.735,11.943z"/>
    <path class="fil42" d="M185.523 196.599l-0.301 0.764c2.616,-0.087 2.036,-2.815 1.437,-4.956 -0.563,-2.006 -1.585,-3.66 -1.697,-5.732 -0.242,-4.499 5.384,-5.061 5.646,-8.468l-0.286 -2.07c-5.09,-0.864 -6.702,0.772 -10.7,-2.375 0.915,4.681 2.238,1.196 4.751,3.808 1.821,1.893 1.383,3.355 -0.028,5.333 -3.661,5.136 0.869,6.036 1.178,13.696z"/>
   </g>
   <g>
    <path class="fil43" d="M126.175 148.877c1.737,-1.035 2.373,-1.532 2.563,-3.551 -0.054,-4.344 1.406,-2.035 -0.25,-7.558 -1.228,-4.096 -4.987,-10.165 -5.759,-12.734 -0.779,-2.592 -0.285,-5.006 0.096,-7.708 -1.121,1.551 -1.07,5.595 -1.571,7.918 -1.282,5.938 -2.547,4.873 0.254,10.772l2.071 5.132c1.111,2.803 1.79,4.228 2.596,7.729z"/>
    <path class="fil43" d="M92.681 67.815l1.559 -2.332 5.977 0.834c1.159,2.521 0.007,2.38 1.583,5.745 1.211,2.587 1.39,6.634 1.658,8.433 0.583,3.907 0.231,0.51 0.969,2.614 0.862,2.461 -0.406,3.818 -0.027,6.652 2.297,-2.18 2.49,-8.451 2.735,-11.943 0.494,-7.056 0.179,-7.942 -2.442,-13.229l-0.045 0.657c-4.676,0.002 -7.308,-1.744 -11.473,-0.089l-0.494 2.658z"/>
    <path class="fil43" d="M165.66 69.363l-0.994 1.251c2.811,0.006 1.745,0.179 4.112,-0.867 0.546,-2.403 1.323,-1.533 2.465,-3.707 -2.549,0.379 -0.539,-0.281 -2.874,1.74 -1.037,0.898 -1.462,1.047 -2.709,1.583z"/>
   </g>
   <g>
    <path class="fil44" d="M80.954 72.374c-3.818,4.207 -3.291,20.732 -3.291,26.564 0,4.086 0.638,26.14 1.974,28.312 2.658,1.51 4.842,0.814 8.004,0.637l0.272 -7.087c0.373,-2.478 0.689,-2.239 -0.576,-4.086 -1.017,3.916 0.124,5.516 -0.249,9.195l-6.784 0.401 -2.325 -30.014c-0.001,-2.259 0.52,-2.832 0.46,-5.305 -0.087,-3.659 -1.49,-2.2 0.53,-4.924l0.956 -7.545 0.111 -2.987c3.737,-0.903 1.492,-1.311 7.159,-2.073 0.92,5.363 -1.964,5.034 -0.576,10.93 0.813,-0.427 0.834,0.522 0.689,-0.675l-0.092 -3.973c0.355,-4.651 2.376,-8.007 2.407,-11.448l-3.401 0.208 -0.067 0.013c-2.176,2.421 -0.58,0.404 -2.739,1.898 -1.324,0.917 -0.417,0.771 -2.462,1.959z"/>
    <path class="fil44" d="M147.428 134.649c3.083,1.31 5.759,0.826 9.108,0.494 0.125,-3.209 -1.041,-3.401 -0.222,-6.801l-0.549 -17.902c-1.965,3.242 -1.071,9.151 -0.508,13.301l0.118 5.083 -7.557 0.097c-3.41,-12.601 -0.58,-17.882 -0.393,-26.019 -2.381,0.842 -1.133,0.053 -1.393,3.27 -0.121,1.496 0.121,2.734 -0.102,4.475 -0.743,5.799 -0.246,22.229 1.498,24.002z"/>
    <path class="fil44" d="M109.91 22.582l0.889 -2.915 0.662 -4.025c-3.582,0.106 -8.683,2.122 -9.127,6.009 2.684,1.51 4.526,1.743 7.576,0.931z"/>
    <path class="fil44" d="M45.413 118.454l-1.316 4.381c1.991,1.123 2.19,0.881 4.628,0.66 3.12,-0.283 3.084,-0.348 3.863,-2.755l-6.026 0.141c-1.058,-5.504 1.626,-5.969 6.293,-6.293l0.181 4.112 0.613 -4.834 -1.615 -1.366 -5.949 1.113 -0.672 4.841z"/>
    <path class="fil44" d="M3.291 65.37l-1.545 3.158 1.48 2.006c0.452,-1.65 0.465,-1.234 2.093,-1.622l1.917 -0.339 0.462 0.186 0.204 -0.884c1.197,-1.537 1.609,-1.953 2.034,-4.252l-6.645 1.747z"/>
    <path class="fil44" d="M99.382 174.05c3.098,0.969 5.893,0.985 9.176,0.708l0.741 -1.832c-2.846,1.402 -4.536,0.898 -7.782,0.541 -0.618,-1.951 0.056,-5.775 1.418,-7.551 1.448,-1.89 5.199,-1.219 7.607,-0.954l0.392 2.008 0.772 -0.27 0.207 -2.105 -9.24 -0.687c-1.574,2.621 -2.443,7.108 -3.291,10.142z"/>
    <path class="fil44" d="M151.917 37.176l1.114 0 4.559 -0.915 -0.143 -0.869 0.567 -1.317c-2.532,-0.146 -6.92,1.62 -9.101,2.687l1.102 0.473c0.079,0.008 1.841,-0.051 1.902,-0.059z"/>
   </g>
   <g>
    <path class="fil45" d="M10.478 135.927l-1.278 1.945 0.259 1.831c-0.057,5.937 -2.28,7.819 0.374,14.772 2.306,0.125 7.165,-0.697 7.283,-3.094 0.126,-3.483 -1.295,-4.075 -1.958,-8.804 -0.922,-6.569 -2.053,-1.625 -1.956,-9.443 -1.528,1.89 -0.649,1.258 -2.724,2.793z"/>
    <path class="fil45" d="M108.099 44.537l0.111 0.769c0.253,1.54 -0.854,0.383 1.041,2.165 2.039,2.433 2.212,3.173 5.423,3.65l0.394 -7.064 -1.615 -0.906 -1.515 0.016 -3.839 1.37z"/>
   </g>
   <g>
    <path class="fil46" d="M36.202 198.064c2.256,-0.725 1.868,-1.078 3.942,-0.037l1.937 -1.964 6.32 4.959 2.958 -0.363c-1.544,-3.042 -7.629,-4.983 -8.908,-9.531l-4.868 -13.711 -4.013 0.787c-0.872,-0.9 1.184,-0.924 -0.989,-0.289l1.672 5.13c0.496,1.734 1.285,2.989 2.023,4.805l1.354 4.686c0.071,0.201 0.336,0.743 0.389,0.917 0.806,2.671 -0.484,1.204 -1.817,4.611z"/>
    <path class="fil46" d="M167.827 157.208c0.19,-2.902 -0.435,-2.171 -1.645,-4.939l-0.958 -1.149c-2.455,-1.487 -1.546,-1.085 -4.628,-0.84 -1.967,0.157 -3.845,0.147 -5.779,0.364 -0.215,5.839 7.737,8.628 13.01,6.564z"/>
   </g>
   <g>
    <path class="fil47" d="M156.504 103.2c0.207,2.225 0.337,6.102 -0.739,7.24l0.549 17.902c1.126,1.206 0.798,2.04 0.684,3.774l1.3 6.686 0.666 1.915 1.528 4.716 0.812 2.969 -7.352 0.624 0.054 2.097c-0.328,1.476 -0.551,1.402 1.141,3.445 0.848,1.024 1.859,1.704 2.912,2.4 3.868,2.558 4.121,2.082 8.843,2.082l0.925 -1.842c-5.273,2.064 -13.225,-0.725 -13.01,-6.564 1.934,-0.217 3.812,-0.207 5.779,-0.364 3.082,-0.245 2.173,-0.647 4.628,0.84 -1.261,-4.449 -3.41,-8.091 -4.648,-13.01 -1.194,-4.748 -2.078,-9.825 -2.365,-14.727l-0.362 -21.824c-1.009,2.224 -0.634,0.793 -1.345,1.641z"/>
    <path class="fil47" d="M176.76 140.879l-0.552 -1.444 4.79 -0.342c-0.338,0.75 1.042,0.73 -1.615,1.694 -1.859,0.674 -0.91,0.323 -2.623,0.092zm-1.035 -0.598c0.142,1.74 -0.258,0.446 1.035,0.598 0.499,2.676 4.611,0.202 5.987,-0.572 0.31,-2.466 0.409,-2.35 2.53,-3.232 -0.354,-2.512 1.415,-0.103 -0.754,-2.576 -4.359,0.375 -8.675,0.65 -8.798,5.782z"/>
    <path class="fil47" d="M39.487 104.299c-0.415,2.017 -0.472,2.001 1.319,1.909 5.332,2.344 5.367,-0.556 9.636,0.654l-1.51 -2.171c-3.258,-0.719 -5.816,2.486 -9.445,-0.392z"/>
   </g>
   <g>
    <path class="fil48" d="M175.729 50.102c1.984,1.63 5.584,4.973 6.666,7.221l-0.081 -0.661c0.003,-5.287 -2.311,-7.504 -2.089,-11.927 2.394,-2.45 4.413,-2.915 5.789,-6.286 -16.18,-3.824 -7.127,-8.446 -12.504,-13.498 1.346,3.342 -3.571,6.902 0.201,8.492 -0.009,4.584 0.405,3.23 1.108,6.27 0.626,2.706 -0.375,3.668 0.916,6.363 -0.952,2.13 0.565,0.596 -1.932,1.689 3.356,1.396 1.836,0.348 1.926,2.337z"/>
    <path class="fil48" d="M28.354 24.666l0 1.271 0.555 0.126 5.463 -2.925 -0.263 3.366 1.09 0.221c1.12,-2.046 1.322,-1.903 0.997,-4.381 -5.248,-0.449 -3.697,1.934 -7.842,2.322z"/>
   </g>
   <g>
    <path class="fil49" d="M147.972 106.201l-0.572 13.62 6.156 -0.038 1.701 3.958c-0.563,-4.15 -1.457,-10.059 0.508,-13.301 -1.604,-4.821 0.454,-10.661 0.299,-15.349 -2.131,2.255 -0.161,3.172 -4.51,5.057 -3.969,1.719 -2.446,2.921 -3.582,6.053z"/>
    <path class="fil49" d="M161.246 196.075l-0.652 -0.133 5.163 0.066 1.08 -4.703 0.807 -5.101c-3.205,-0.547 -6.595,-0.746 -9.553,-0.02l-1.382 7.978 3.42 1.14c0.161,0.064 0.442,0.518 0.557,0.35 0.123,-0.179 0.379,0.275 0.56,0.423z"/>
   </g>
   <g>
    <path class="fil50" d="M129.306 58.437c6.735,0.555 9.804,0.829 10.102,8.092 0.227,5.549 0.232,11.613 0.292,17.216 0.056,5.327 -0.064,29.012 -2.413,32.286 0.438,2.912 0.402,5.578 -1.378,7.853 0.147,2.74 0.255,4.375 -1.777,5.908 1,2.903 -2.767,13.822 -5.394,15.534 -0.19,2.019 -0.826,2.516 -2.563,3.551 -0.292,2.514 -1.66,1.933 -2.631,4.889 12.719,-8.514 15.27,-34.625 17.017,-48.509 1.288,-10.236 0.844,-20.561 0.28,-30.823 -0.75,-13.648 3.165,-17.163 -13.816,-17.108l2.281 1.111z"/>
    <path class="fil50" d="M116.606 166.183l2.955 9.335 12.071 0.704c-0.881,-2.033 1.004,-0.56 -1.559,-1.748l-9.483 -0.378c-2.546,-3.664 -1.469,-10.33 -5.706,-11.082l1.722 3.169z"/>
   </g>
   <g>
    <path class="fil51" d="M45.378 131.573c-0.936,1.686 -2.837,3.623 -4.512,3.7l-1.334 2.327 2.507 -0.522c0.312,3.516 0.195,5.628 1.698,8.547 3.292,6.396 1.693,2.168 -0.295,7.054 2.269,-0.642 8.523,-5.003 9.214,-6.816 1.254,-3.338 0.093,-3.941 -1.336,-7.347 -1.126,-2.682 -1.985,-4.372 -2.049,-8.104l-1.371 -0.156 -2.522 1.317z"/>
    <path class="fil51" d="M33.57 101.872l2.135 0.015 0.485 1.675c2.338,1.185 0.965,0.754 3.297,0.737l-0.189 -0.733 -2.101 -1.341 1.638 -1.331c3.033,-1.947 4.888,-1.024 8.155,-0.623 -1.721,-1.788 -1.618,-1.632 -4.173,-2.072 0.06,-4.458 -0.295,-1.192 -0.763,-4.995 -1.3,0.156 -2.598,0.499 -3.911,0.305 -3.194,-0.472 -2.173,-0.492 -3.257,-1.76l-0.769 -2.411 -0.723 -0.519c-0.249,2.18 0.063,6.164 0.889,8.327 1.185,3.102 2.328,0.283 0.436,3.13l-0.735 1.021c-0.074,-0.132 -0.279,0.381 -0.414,0.575z"/>
    <path class="fil51" d="M40.809 63.734c3.779,-0.107 6.047,0.299 9.657,1.165 3.111,0.747 5.279,1.081 6.795,2.993 -7.545,3.592 -7.656,-0.131 -15.549,-1.318 0.881,1.587 0.118,0.901 1.982,1.737 0.489,0.219 2.161,0.494 3.138,0.806 2.649,0.845 2.621,1.705 4.505,2.482l3.173 -0.408c0.843,-1.065 -0.288,-0.919 2.257,-1.912 2.396,-0.935 1.958,-0.525 3.74,-0.032l0.954 2.458c1.942,2.112 0.437,0.631 1.55,0.281l-0.743 -4.203 -6.034 -3.623 -5.242 -1.288 -1.451 -0.132c-3.861,-0.365 -5.909,-2.441 -8.732,0.994z"/>
    <polygon class="fil51" points="111.938,43.167 113.453,43.151 114.47,42.095 118.531,44.417 118.506,43.141 115.004,40.394 "/>
   </g>
   <g>
    <path class="fil52" d="M115.429 73.368l0.038 8.451c0.909,4.08 -0.683,7.298 -0.944,11.831 3.08,0.95 4.282,0.66 5.754,3.134 0.504,-6.181 0.26,-4.936 2.222,-7.09 0.344,-3.277 1.204,-10.221 0.4,-13.046l-0.478 -7.432c-1.162,3.197 -0.101,1.428 -3.113,3.438 -0.476,0.317 -1.525,1.112 -1.851,1.197 -3.159,0.823 -1.09,0.288 -2.028,-0.483z"/>
    <path class="fil52" d="M112.776 106.387l0.478 0.018 0.485 2.821c2.175,0.121 4.091,-0.137 5.213,0.668 1.567,-4.889 2.063,-6.185 1.151,-11.331 -0.21,0.045 -0.499,-0.053 -0.613,0.199 -0.111,0.245 -0.446,0.144 -0.598,0.192 -9.408,2.932 -2.85,3.19 -6.116,7.433z"/>
    <path class="fil52" d="M112.711 115.581l0.929 0.778c2.524,1.842 2.389,1.459 4.717,1.669l0.263 -7.253c-3.103,1.557 -4.762,1.078 -5.909,4.806z"/>
   </g>
   <g>
    <path class="fil53" d="M47.3 50.087l7.989 1.697c2.844,0.232 9.154,1.061 9.892,3.178 8.347,3.241 7.814,18.815 3.394,22.353 -0.52,3.752 -3.249,7.957 -4.864,11.552 -2.853,6.351 -1.465,8.747 -0.628,15.353 0.869,5.777 3.446,25.071 -0.226,28.881 -0.119,2.365 -0.012,2.652 -2.018,3.974 -0.396,2.39 -1.233,3.518 -3.313,4.669 -0.142,1.012 0.241,0.44 -0.336,1.176l0.728 0.292c17.941,-14.055 -0.127,-41.046 8.346,-56.371 4.135,-7.479 9.821,-19.037 5.316,-27.377 -4.826,-8.937 -16.161,-9.703 -25.291,-10.729 2.14,1.023 0.545,0.172 1.011,1.352z"/>
    <path class="fil53" d="M22.795 123.429c1.18,6.07 -0.514,7.782 3.796,13.15l1.811 1.244 1.893 0.222 0.149 -1.454c-10.079,-2.132 -4.717,-25.165 0.77,-29.499l-0.277 -1.746 -0.971 0.443c-7.405,9.478 -4.61,14.342 -7.171,17.64z"/>
    <path class="fil53" d="M13.425 57.983c-0.84,2.647 -5.301,6.133 -7.537,4.624l-2.597 2.763 6.645 -1.747c-0.425,2.299 -0.837,2.715 -2.034,4.252l2.281 -1.093c0.628,-1.939 4.148,-7.016 5.601,-7.481 1.159,-2.16 0.966,-2.043 3.391,-2.311 1.419,-1.475 4.381,-2.699 6.517,-2.66 1.036,-1.296 0.477,-1.232 2.671,-1.635 -2.091,-0.679 -1.66,-0.65 -4.221,0.437 -1.41,0.598 -2.384,1.002 -3.739,1.548 -2.341,0.943 -4.808,1.845 -6.978,3.303z"/>
    <path class="fil53" d="M52.764 192.995l0.692 4.259c1.656,1.188 1.257,1.893 1.629,4.073 2.029,-1.185 -0.057,-5.168 -0.585,-7.138 -0.87,-3.243 -2.091,-4.073 -1.189,-7.139l-1.565 1.048 1.018 4.897z"/>
   </g>
   <g>
    <path class="fil54" d="M87.308 83.717c0.145,1.197 0.124,0.248 -0.689,0.675l0.718 32.322c1.265,1.847 0.949,1.608 0.576,4.086 1.081,1.862 1.273,6.308 1.237,8.788 0.829,0.327 0.606,-0.695 0.56,1.488 1.377,0.489 0.968,1.532 1.016,2.813 1.432,1.749 1.006,0.886 0.961,3.098 1.239,0.856 3.946,6.64 3.805,8.288 -2.788,0.876 -3.658,-0.182 -6.249,1.156l0.922 2.711c0.04,2.149 1.258,2.653 3.29,2.645 -2.178,-1.692 -1.717,-0.946 -2.161,-3.473 1.929,-0.054 3.413,-0.137 5.303,-0.345 2.825,-0.31 1.501,-0.813 4.381,0.746 -4.742,-11.174 -8.965,-10.163 -10.786,-29.952 -0.515,-5.593 -2.429,-34.827 -1.445,-38.006 -0.194,4.218 -0.353,1.751 -1.439,2.96z"/>
    <path class="fil54" d="M44.302 30.706l-5.426 4.157c2.413,2.945 5.877,4.701 7.63,7.927 1.427,0.456 0.923,0.587 2.339,0.163 2.514,-0.752 1.715,-0.855 2.492,-2.142l-3.963 1.288c0.644,-2.447 2.832,-2.913 5.751,-3.624l0.278 1.964 2.269 -1.224c-0.224,-4.15 1.242,-0.721 -1.773,-3.653l-6.544 -6.115c-2.804,0.55 -0.633,-0.804 -3.053,1.259z"/>
    <path class="fil54" d="M47.9 130.256l1.371 0.156c0.064,3.732 0.923,5.422 2.049,8.104 1.429,3.406 2.59,4.009 1.336,7.347 2.642,-1.519 1.983,-2.188 4.534,-2.943 0.577,-0.736 0.194,-0.164 0.336,-1.176 0.2,-5.116 0.105,-1.834 -1.679,-7.147 -1.011,-3.012 -1.969,-5.361 -1.958,-8.664l-1.462 -0.309 -0.41 -0.657c-1.504,3.496 -2.579,2.087 -4.117,5.289z"/>
    <path class="fil54" d="M55.459 183.372l3.455 -1.859 2.308 -1.901 -0.321 -3.032 -12.384 0.13c2.698,1.358 7.676,1.056 11.013,1.143l-2.62 0.924c0.087,2.283 0.267,1.626 -1.128,4.092 -0.075,0.133 -0.232,0.326 -0.323,0.503z"/>
   </g>
   <g>
    <path class="fil55" d="M44.581 89.3c-1,1.35 -0.666,-0.16 -0.828,2.437 3.506,-0.225 5.855,-1.239 8.532,-2.445 -2.807,3.157 -0.053,0.831 1.691,10.614 1.147,6.433 7.099,33.086 6.863,37.169 2.006,-1.322 1.899,-1.609 2.018,-3.974l-0.09 -9.367c-0.775,-2.039 -2.096,-5.25 -2.409,-7.683 -0.295,-2.294 -0.629,-7.923 -1.123,-9.683 -1.253,-4.461 -2.286,-1.937 -2.382,-8.716 -0.048,-3.372 -0.714,-7.249 -0.639,-10.075 -3.242,-0.862 3.722,0.705 -1.737,-0.153 -1.641,-0.257 -0.661,-0.046 -1.638,-0.355 -0.043,-0.013 -1.385,-0.776 -2.282,-1.124 -1.152,-0.54 -0.936,-0.833 -0.936,0.378l1.538 0.523c-2.892,2.846 -2.552,2.191 -6.578,2.454z"/>
    <path class="fil55" d="M26.786 11.767l7.184 1.361 -0.704 3.989 3.581 3.991 -0.651 0.101 0 1.135c0.325,2.478 0.123,2.335 -0.997,4.381l-3.099 7.474 2.587 -0.885c-0.483,3.247 -0.547,0.457 -1.708,4.191 2.274,-0.404 1.154,0.761 2.563,-1.321l0.616 -1.623c2.137,-3.075 4.866,-2.63 6.353,-4.815 0.614,-1.638 -1.053,-1.285 1.285,-1.353 -2.973,0.126 -3.602,-14.434 -3.54,-14.725l-4.796 -0.631c-0.382,-1.093 -3.353,0.483 0.488,-1.637 -2.14,-0.004 -1.756,-0.018 -2.971,-1.005 -2.794,0.648 -2.4,0.166 -5.429,-0.2l-0.762 1.572z"/>
    <path class="fil55" d="M102.917 198.355l1.566 -0.326c0.373,4.252 0.999,1.249 -1.352,2.365l-0.214 -2.039zm-7.212 -20.099l-8.828 0.164c0.304,1.969 0.534,1.474 2.067,1.769 1.729,-1.286 4.043,-0.887 6.541,-0.891 3.439,-0.006 2.702,-0.229 5.398,2.123l-0.558 2.578c2.034,0.201 3.093,0.682 3.96,2.576l1.269 0.699c-0.403,3.348 -0.308,1.36 -1.143,2.29 0.334,3.782 -1.676,4.896 -1.494,8.791l-3.928 -0.007 -6.188 -0.111c1.476,3.2 6.087,2.986 9.214,1.772l3.431 0.769c0.523,-7.379 2.392,-12.551 2.158,-15.82 -2.454,-1.902 -7.759,-5.288 -8.832,-7.539l-1.887 0.785 -1.18 0.052z"/>
    <path class="fil55" d="M49.541 62.74l1.451 0.132c-1.526,-1.781 -1.742,-2.662 -2.113,-4.854 -0.664,-3.923 0.25,-1.28 -1.545,-4.622 1.37,-1.128 -0.47,-0.373 2.031,-1.361 -3.684,-1.418 -1.508,-0.012 -2.065,-1.948 -3.56,-0.229 -7.3,-1.075 -10.066,0.816l6.298 0.273c0.545,2.932 0.444,6.432 0.963,9.384 2.738,1.216 3.052,0.247 5.046,2.18z"/>
   </g>
   <g>
    <path class="fil56" d="M28.363 52.695c-2.194,0.403 -1.635,0.339 -2.671,1.635 2.83,0.324 3.811,-0.605 6.681,-1.306 -1.395,2.192 0.64,11.539 0.298,14.872 -0.666,6.48 -1.9,8.803 -0.483,15.939 1.851,0.455 0.708,1.024 1.241,-0.86l-0.24 -12.716c0.282,-3.759 2.034,-6.572 5.941,-7.532l0.012 1.332 1.667 -0.325c2.823,-3.435 4.871,-1.359 8.732,-0.994 -1.994,-1.933 -2.308,-0.964 -5.046,-2.18 -0.519,-2.952 -0.418,-6.452 -0.963,-9.384l-6.298 -0.273c-2.86,-0.533 -5.703,1.126 -8.871,1.792z"/>
    <path class="fil56" d="M162.471 182.719l2.08 -0.56 2.974 2.945 0.751 0.019 1.485 0.368 -0.204 -1.432c-1.504,-1.745 -3.839,-3.903 -5.924,-4.278l-1.162 2.938z"/>
    <path class="fil56" d="M26.786 11.767l-0.092 -0.079 -0.217 0.731c3.058,0.507 3.769,3.112 6.789,4.698l0.704 -3.989 -7.184 -1.361z"/>
    <path class="fil56" d="M177.183 78.7c0.15,3.369 0.239,1.575 1.422,4.491l1.069 -0.047 -0.792 -2.741c1.33,-1.156 -0.373,-0.48 2.142,-0.697l-0.549 -1.888c-2.632,-0.195 -1.262,-0.843 -3.292,0.882z"/>
   </g>
   <g>
    <path class="fil57" d="M15.067 180.853l1.862 0.407c1.78,0.641 3.516,-0.185 5.272,0.52 1.983,0.795 3.838,1.828 3.869,3.953l2.229 -0.232 3.869 3.058c-0.442,2.569 -1.194,5.312 -2.889,6.875l-1.016 4.849c0.03,2.941 -0.262,1.057 0.631,2.427 2.386,0.046 6.697,-2.39 7.308,-4.646 1.333,-3.407 2.623,-1.94 1.817,-4.611 -0.053,-0.174 -0.318,-0.716 -0.389,-0.917l-1.354 -4.686c-0.738,-1.816 -1.527,-3.071 -2.023,-4.805l-1.672 -5.13c2.173,-0.635 0.117,-0.611 0.989,0.289l-10.576 -0.289c-2.244,0.476 -1.167,0.406 -2.601,2.206 -1.253,0.023 -5.148,-0.671 -5.326,0.732z"/>
    <path class="fil57" d="M13.458 125.602l-1.3 0.123 -0.565 4.364 -1.115 5.838c2.075,-1.535 1.196,-0.903 2.724,-2.793 -0.097,7.818 1.034,2.874 1.956,9.443 0.663,4.729 2.084,5.321 1.958,8.804l2.632 -1.982c0.795,-1.91 0.631,-4.319 0.194,-6.851 -0.646,-3.75 -1.044,-0.902 -1.327,-5.935l-0.78 -5.282c-2.108,-6.29 -0.502,-5.148 -2.04,-7.384 -1.653,1.867 -0.273,0.542 -2.337,1.655z"/>
    <path class="fil57" d="M157.59 36.261l-4.559 0.915c1.021,0.157 0.903,-0.141 0.543,0.781l-3.073 1.388 4.821 5.121c2.464,0.95 4.319,-0.854 7.358,-1.169l0.586 0.382 2.001 -1.351 0.267 -1.712 -0.931 -0.472 -5.133 -4.421 -1.88 0.538z"/>
    <path class="fil57" d="M93.455 151.787c3.762,3.633 5.694,3.288 8.557,5.942l0.003 -0.657 6.4 0.315c-1.797,-1.046 -0.861,-0.929 -2.073,-1.998 -1.075,-0.948 -1.587,-0.916 -2.622,-1.708l-0.781 -2.682 -1.961 -2.284c-2.88,-1.559 -1.556,-1.056 -4.381,-0.746 -1.89,0.208 -3.374,0.291 -5.303,0.345 0.444,2.527 -0.017,1.781 2.161,3.473z"/>
    <path class="fil57" d="M89.51 180.192l6.578 5.1 4.237 -1.293 0.558 -2.578c-2.696,-2.352 -1.959,-2.129 -5.398,-2.123 -2.498,0.004 -4.812,-0.395 -6.541,0.891l0.566 0.003z"/>
    <path class="fil57" d="M114.674 51.121c2.368,-0.387 5.692,-1.319 7.264,-3.041 -0.846,-1.864 -1.675,-2.472 -3.407,-3.663l-4.061 -2.322 -1.017 1.056 1.615 0.906 -0.394 7.064z"/>
    <path class="fil57" d="M158.459 184.057l4.012 -1.338 1.162 -2.938c-3.596,-1.752 -6.258,-1.34 -10.606,-1.267 1.017,2.207 3.313,3.47 5.432,5.543z"/>
   </g>
   <g>
    <path class="fil58" d="M152.035 80.439c-0.992,0.489 -1.235,1.966 -1.902,4.021 -0.714,2.194 -1.109,3.268 -1.574,5.705 -0.651,3.415 -2.338,9.625 -1.134,12.737 -0.187,8.137 -3.017,13.418 0.393,26.019l7.557 -0.097 -0.118 -5.083 -1.701 -3.958 -6.156 0.038 0.572 -13.62c0.267,-6.093 1.15,-12.605 2.489,-18.273 0.899,-0.088 3.062,-0.418 3.863,-0.471l3.046 0.415c0.151,-0.214 0.481,0.151 0.7,0.272 -0.514,3.858 -2.594,6.845 -1.705,10.611l1.434 -4.444 1.412 -8 1.035 -5.277 0.148 -2.835c-1.791,0.314 -2.533,0.876 -4.261,1.346 -1.31,0.356 -2.54,0.424 -4.098,0.894z"/>
    <path class="fil58" d="M79.925 78.522l6.626 -1.791c-1.269,12.833 0.128,24.109 -0.725,35.466l-6.238 0.679 -0.619 -26.809c-2.02,2.724 -0.617,1.265 -0.53,4.924 0.06,2.473 -0.461,3.046 -0.46,5.305l2.325 30.014 6.784 -0.401c0.373,-3.679 -0.768,-5.279 0.249,-9.195l-0.718 -32.322c-1.388,-5.896 1.496,-5.567 0.576,-10.93 -5.667,0.762 -3.422,1.17 -7.159,2.073l-0.111 2.987z"/>
    <path class="fil58" d="M60.792 73.754l-0.302 -3.186 -2.068 -0.54c-2.145,2.604 -2.308,0.947 -5.768,3.126l0.048 5.797c6.429,-0.969 5.021,-1.316 8.09,-5.197z"/>
    <path class="fil58" d="M52.588 120.74l0.448 -2.04 -0.181 -4.112c-4.667,0.324 -7.351,0.789 -6.293,6.293l6.026 -0.141z"/>
   </g>
   <g>
    <path class="fil59" d="M50.557 85.945c0.897,0.348 2.239,1.111 2.282,1.124 0.977,0.309 -0.003,0.098 1.638,0.355 5.459,0.858 -1.505,-0.709 1.737,0.153 -0.075,2.826 0.591,6.703 0.639,10.075 0.096,6.779 1.129,4.255 2.382,8.716 0.494,1.76 0.828,7.389 1.123,9.683 0.313,2.433 1.634,5.644 2.409,7.683l0.09 9.367c3.672,-3.81 1.095,-23.104 0.226,-28.881 -1.659,-1.869 -1.824,-2.633 -1.927,-5.221l0.582 -17.918 -1.782 0.453c-1.574,0.909 -2.343,3.005 -4.096,3.317 -2.167,0.386 -2.751,-1.699 -5.303,1.094z"/>
    <path class="fil59" d="M28.354 24.666c4.145,-0.388 2.594,-2.771 7.842,-2.322l0 -1.135c-5.683,-0.591 -4.072,-3.409 -8.992,-5.439 -0.574,2.726 -1.996,2.505 -3.616,4.494 1.127,2.017 2.79,3.158 4.766,4.402z"/>
    <path class="fil59" d="M179.648 83.088c1.472,2.426 3.009,3.328 3.716,6.55 1.332,1.619 1.059,1.099 1.284,3.296 -1.303,1.051 -1.608,0.866 -3.649,1.178 -2.857,0.437 -2.545,0.001 -4.195,1.757 4.744,-0.919 6.77,-0.66 9.864,-3.552 -1.004,-3.013 -3.44,-11.156 -5.644,-12.611l0.862 4.279 -2.238 -0.897z"/>
    <path class="fil59" d="M21.934 148.807c2.817,-0.292 0.931,-0.518 3.512,0.299 1.033,-2.8 0.709,0.222 2.116,-2.555 -2.363,-1.62 -4.784,-0.288 -5.628,2.256z"/>
   </g>
   <g>
    <path class="fil60" d="M23.039 87.752c-0.282,3.938 -2.015,7.358 -6.641,5.273 -0.327,-3.004 -0.276,-1.768 0.711,-4.656 -2.583,2.775 -8.956,24.861 -10.376,29.877 -3.41,12.037 -6.745,20.194 -6.733,33.092l6.591 -0.268 0.644 -1.925 -5.887 -1.859c-1.186,-8.105 1.441,-9.274 2.633,-16.564 1.872,-11.443 7.351,-5.23 7.439,-12.005l-3.378 -1.061c1.314,-8.061 1.03,-9.699 8.394,-11.059l-1.638 8.62c0.794,-1.264 4.086,-12.538 5.472,-15.843 3.526,-8.412 3.719,-7.204 3.807,-17.077 0.045,-2.47 -0.045,-1.135 -0.658,-1.437l-0.38 0.9 0 5.992z"/>
    <path class="fil60" d="M92.801 198.237l6.188 0.111c-1.945,-1.6 -2.213,-1.246 -4.916,-1.757 -0.401,-2.561 1.333,-6.69 2.414,-9.614l7.52 0.545 0.404 2.042c0.835,-0.93 0.74,1.058 1.143,-2.29l-1.269 -0.699 -8.852 -0.13c-0.495,4.47 -2.629,6.965 -2.632,11.792z"/>
    <path class="fil60" d="M92.801 24.475c-2.877,-0.084 -3.631,0.829 -5.322,3.065l0.714 1.489 6.238 -2.347 1.664 -1.015 -0.1 -2.481 -3.194 1.289z"/>
    <path class="fil60" d="M150.719 178.085l9.225 -0.655 0.574 -1.549 -10.457 -0.827c0,2.009 -0.53,2.346 0.658,3.031z"/>
    <path class="fil60" d="M86.877 178.42l8.828 -0.164 0.401 -1.986 -8.57 -1.022c-0.935,1.874 -0.65,0.482 -0.659,3.172z"/>
    <path class="fil60" d="M12.505 179.2c2.228,-0.288 2.528,-0.16 4.644,-0.106 3.756,0.096 2.327,0.705 3.688,-1.61 -2.075,-0.964 -5.117,-0.901 -7.674,-1.18l-0.658 2.896z"/>
   </g>
   <g>
    <path class="fil61" d="M164.666 70.614l-2.574 0.259c-0.858,0.832 -0.692,1.405 -3.024,1.684 -2.151,0.257 -1.67,0.469 -2.536,-0.702l-1.342 1.321c1.716,1.918 1.52,1.265 4.513,0.446 2.01,-0.55 2.27,-0.677 4.336,-0.779 -0.012,2.712 -0.148,4.374 -1.725,6.302 -0.627,2.989 -1.082,4.913 -3.103,7.166l-1.412 8c1.148,-1.453 0.732,-1.214 1.273,-3.104 0.03,-0.106 0.649,-2.586 0.861,-3.447 1.847,2.105 1.448,-0.772 1.153,3.887 -0.475,7.517 -2.265,-0.488 1.206,11.247 0.011,0.038 2.484,14.687 2.532,15.362l2.251 1.06c0.294,-4.061 0.958,-11.285 0.909,-15.121 -0.041,-3.156 -5.367,-18.319 -3.827,-23.605 1.307,-4.484 3.831,-7.766 4.621,-10.843 -2.367,1.046 -1.301,0.873 -4.112,0.867z"/>
    <path class="fil61" d="M182.747 140.307c-1.376,0.774 -5.488,3.248 -5.987,0.572 -1.293,-0.152 -0.893,1.142 -1.035,-0.598l-0.823 -1.044c-1.883,1.841 -1.841,-2.161 -1.475,2.337 2.587,2.175 4.663,3.01 6.099,5.578 0.838,1.499 0.962,2.552 2.065,3.989 1.321,1.718 1.362,0.831 2.32,2.977 3.242,-0.933 5.303,-5.494 5.309,-5.624 -0.516,-1.964 -2.352,-5.978 -3.455,-7.806l1.149 -2.912 -4.167 2.531z"/>
    <path class="fil61" d="M173.751 92.333l1.126 2.642 0.275 -1.756 8.329 -1.624 -0.117 -1.957c-0.707,-3.222 -2.244,-4.124 -3.716,-6.55l0.026 0.056 -1.069 0.047c-1.562,-0.389 -2.023,-0.065 -2.638,-1.291 -0.465,0.698 -2.346,8.573 -2.216,10.433z"/>
    <path class="fil61" d="M117.045 129.989c-0.981,5.056 -1.944,5.917 -7.34,4.972 1.379,2.345 -0.18,0.419 2.201,2.14 1.793,0.04 4,-0.713 5.431,-2.184l1.339 -8.407c-1.637,1.76 -0.861,1.012 -1.631,3.479z"/>
   </g>
   <g>
    <path class="fil62" d="M62.268 67.783l0.743 4.203c-1.113,0.35 0.392,1.831 -1.55,-0.281 0.785,6.806 0.28,4.142 -1.505,9.829l1.782 -0.453 -0.582 17.918c0.103,2.588 0.268,3.352 1.927,5.221 -0.837,-6.606 -2.225,-9.002 0.628,-15.353 1.615,-3.595 4.344,-7.8 4.864,-11.552 -0.193,-2.654 0.426,-3.098 -0.047,-6.038l-3.347 -16.315c-0.738,-2.117 -7.048,-2.946 -9.892,-3.178 1.224,1.33 2.654,1.651 2.684,1.662 0.006,0.002 1.059,0.058 2.113,0.429 0.542,8.663 2.301,8.877 2.182,13.908z"/>
    <path class="fil62" d="M102.015 200.009c1.186,1.801 -0.079,0.819 2.019,1.242 1.972,0.398 1.404,-0.021 1.933,-0.584 0.953,-1.908 2.002,-2.794 3.774,-3.886l1.268 1.243c1.622,1.883 0.49,0.876 2.558,1.321l-2.672 -2.449 4.059 -3.971 3.512 1.339c-1.098,-3.144 -1.789,-3.047 -5.235,-2.25 -0.234,-1.533 -5.87,-11.976 -7.288,-13.552l2.421 -0.546 -10.521 -0.558c-1.054,-0.285 -0.633,-0.402 -0.958,0.846l1.887 -0.785c1.073,2.251 6.378,5.637 8.832,7.539 0.234,3.269 -1.635,8.441 -2.158,15.82l-3.431 -0.769z"/>
    <path class="fil62" d="M183.193 195.768c-1.06,-1.956 -2.079,-2.919 -4.197,-3.637l4.197 3.637z"/>
   </g>
   <g>
    <path class="fil63" d="M43.713 3.594l-2.332 7.82c2.021,-1.245 0.035,0.833 2.199,-1.854 0.526,3.264 0.711,7.035 1.345,10.144l2.43 9.743 6.544 6.115c3.015,2.932 1.549,-0.497 1.773,3.653l-2.269 1.224 -1.405 1.03 4.975 -2.642c0.156,-3.577 -0.885,-8.602 -2.432,-11.367 -2.521,-1.615 0.082,2.312 -0.601,-1.219l-0.091 -2.67c0.262,-4.785 0.07,-1.38 -0.49,-4.165 -0.208,-1.036 -0.198,-2.29 -0.262,-3.392l-3.319 -1.211 -0.666 -3.776c0.094,-2.96 -1.018,-7.421 -3.12,-9.53 -2.022,1.254 -0.615,0.432 -2.279,2.097z"/>
    <path class="fil63" d="M49.365 52.035c2.674,0.185 3.253,0.769 5.903,1.264 -2.175,0.183 -1.119,-0.112 -2.002,1.242 2.651,5.255 -0.554,5.296 2.968,9.619l6.034 3.623c0.119,-5.031 -1.64,-5.245 -2.182,-13.908 -1.054,-0.371 -2.107,-0.427 -2.113,-0.429 -0.03,-0.011 -1.46,-0.332 -2.684,-1.662l-7.989 -1.697c0.557,1.936 -1.619,0.53 2.065,1.948z"/>
    <path class="fil63" d="M175.528 192.346l3.468 -0.215c-0.308,-0.864 -0.087,-0.802 -0.392,-1.116 -2.203,-0.067 -2.106,-0.567 -3.076,1.331z"/>
   </g>
   <g>
    <path class="fil64" d="M174.858 63.268l-1.399 2.516c-0.049,3.171 0.255,6.93 1.13,9.95 0.978,3.377 -0.704,5.633 -1.705,9.256 -2.032,7.355 -3.731,12.699 -3.734,20.554 2.289,-1.81 0.707,0.268 1.563,-3.096 0.27,-1.061 0.36,-2.157 0.571,-3.349 0.523,-2.956 0.362,-4.713 2.467,-6.766 -0.13,-1.86 1.751,-9.735 2.216,-10.433 -0.019,-2.119 -0.41,-1.962 1.216,-3.2 2.03,-1.725 0.66,-1.077 3.292,-0.882l0.549 1.888c2.204,1.455 4.64,9.598 5.644,12.611l1.562 1.427c-0.74,-4.195 -1.826,-3.659 -2.007,-8.272 -0.252,-6.449 -2.283,-11.888 -2.727,-16.384 -0.749,-7.584 -1.085,-0.95 -3.157,-6.481l-5.481 0.661z"/>
    <path class="fil64" d="M161.249 28.31l9.653 -2.448c-0.048,3.091 -0.899,5.248 -2.494,7.994l-7.526 -1.047c1.811,2.034 4.554,2.489 7.408,2.951 0.231,3.198 0.63,1.983 0.984,3.488 0.711,3.021 -0.112,0.72 -0.125,3.598 -0.015,3.308 2.761,4.421 0.772,7.218l2.001 0.421 3.807 -0.383c-0.09,-1.989 1.43,-0.941 -1.926,-2.337 2.497,-1.093 0.98,0.441 1.932,-1.689 -1.291,-2.695 -0.29,-3.657 -0.916,-6.363 -0.703,-3.04 -1.117,-1.686 -1.108,-6.27 -3.772,-1.59 1.145,-5.15 -0.201,-8.492 -0.538,-2.78 -0.144,-1.306 -2.432,-0.863 -0.471,0.091 -2.844,1.05 -3.497,1.273 -2.459,0.837 -4.417,1.14 -6.332,2.949z"/>
    <path class="fil64" d="M153.351 75.948l9.482 -1.333 -0.519 4.53c1.577,-1.928 1.713,-3.59 1.725,-6.302 -2.066,0.102 -2.326,0.229 -4.336,0.779 -2.993,0.819 -2.797,1.472 -4.513,-0.446l-1.839 2.772z"/>
   </g>
   <g>
    <path class="fil65" d="M79.925 78.522l-0.956 7.545 0.619 26.809 6.238 -0.679c0.853,-11.357 -0.544,-22.633 0.725,-35.466l-6.626 1.791z"/>
    <path class="fil65" d="M112.711 115.581c1.147,-3.728 2.806,-3.249 5.909,-4.806l-0.263 7.253c-2.328,-0.21 -2.193,0.173 -4.717,-1.669l-0.929 -0.778zm0.065 -9.194c3.266,-4.243 -3.292,-4.501 6.116,-7.433 0.152,-0.048 0.487,0.053 0.598,-0.192 0.114,-0.252 0.403,-0.154 0.613,-0.199 0.912,5.146 0.416,6.442 -1.151,11.331 -1.122,-0.805 -3.038,-0.547 -5.213,-0.668l-0.485 -2.821c-0.941,1.458 -4.085,25.882 -4.084,25.919l6.065 0.023c1.179,-2.2 0.301,-0.878 1.81,-2.358 0.77,-2.467 -0.006,-1.719 1.631,-3.479l3.823 -36.816c-1.962,2.154 -1.718,0.909 -2.222,7.09 -1.472,-2.474 -2.674,-2.184 -5.754,-3.134 0.261,-4.533 1.853,-7.751 0.944,-11.831 -1.638,2.154 -1.205,8.594 -1.361,11.854 -0.19,3.951 -0.945,8.469 -1.33,12.714z"/>
    <path class="fil65" d="M147.972 106.201c1.136,-3.132 -0.387,-4.334 3.582,-6.053 4.349,-1.885 2.379,-2.802 4.51,-5.057 0.155,4.688 -1.903,10.528 -0.299,15.349 1.076,-1.138 0.946,-5.015 0.739,-7.24l-0.139 -4.445c-0.889,-3.766 1.191,-6.753 1.705,-10.611 -0.219,-0.121 -0.549,-0.486 -0.7,-0.272l-3.046 -0.415c-0.801,0.053 -2.964,0.383 -3.863,0.471 -1.339,5.668 -2.222,12.18 -2.489,18.273z"/>
    <path class="fil65" d="M120.102 62.011l-3.254 1.64 -1.419 9.717c0.938,0.771 -1.131,1.306 2.028,0.483 0.326,-0.085 1.375,-0.88 1.851,-1.197 3.012,-2.01 1.951,-0.241 3.113,-3.438l0.478 7.432c1.125,-1.314 0.856,0.285 0.487,-2.334 -0.46,-4.215 1.643,-8.798 1.231,-13.325l-4.515 1.022z"/>
   </g>
   <g>
    <path class="fil66" d="M43.753 91.737c-3.379,-0.343 -3.748,1.203 -8.867,0.012 1.084,1.268 0.063,1.288 3.257,1.76 1.313,0.194 2.611,-0.149 3.911,-0.305 0.468,3.803 0.823,0.537 0.763,4.995 2.555,0.44 2.452,0.284 4.173,2.072 4.918,2.669 11.166,11.609 8.852,17.707l-1.323 -1.618c0.002,6.428 -0.033,4.266 -2.092,9.264l1.462 0.309c-0.011,3.303 0.947,5.652 1.958,8.664 1.784,5.313 1.879,2.031 1.679,7.147 2.08,-1.151 2.917,-2.279 3.313,-4.669 0.236,-4.083 -5.716,-30.736 -6.863,-37.169 -1.744,-9.783 -4.498,-7.457 -1.691,-10.614 -2.677,1.206 -5.026,2.22 -8.532,2.445z"/>
    <path class="fil66" d="M102.015 157.072c0.804,2.121 0.117,1.266 3.269,1.415 1.076,0.05 2.902,-0.097 4.106,-0.097 2.897,-3.063 1.376,0.547 2.597,-3.002l-2.736 -0.872c-2.569,-0.78 -4.148,-2.277 -6.312,-3.517l0.781 2.682c1.035,0.792 1.547,0.76 2.622,1.708 1.212,1.069 0.276,0.952 2.073,1.998l-6.4 -0.315z"/>
    <path class="fil66" d="M30.205 139.075l1.485 0.815 4.035 -1.001 0.392 -2.208c-2.569,-0.541 -1.311,-0.628 -4.233,0.723l1.715 1.805 -3.394 -0.134z"/>
   </g>
   <g>
    <path class="fil67" d="M172.401 171.904c-1.146,0 -0.77,-0.189 -0.347,1.064l-0.938 2.7 -7.241 -0.211 -1.479 -1.376c1.764,1.676 -0.128,0.25 1.649,2.722 6.769,0.554 5.175,0.671 7.727,6.014 1.089,2.279 1.75,2.534 2.864,4.401 0.897,1.502 -0.366,0.408 1.198,1.948l2.77 1.849c0.305,0.314 0.084,0.252 0.392,1.116 2.118,0.718 3.137,1.681 4.197,3.637l2.33 0.831c-0.309,-7.66 -4.839,-8.56 -1.178,-13.696 1.411,-1.978 1.849,-3.44 0.028,-5.333 -2.513,-2.612 -3.836,0.873 -4.751,-3.808 -0.246,-2.849 -2.136,-8.435 -4.26,-10.033 0.036,3.482 -0.233,8.208 -2.294,10.95 -1.064,-1.804 -0.764,0.481 -0.667,-2.775z"/>
    <path class="fil67" d="M123.853 44.108c-0.433,-3.338 -1.975,-5.813 -1.695,-8.892 2.194,-1.964 6.618,-3.606 7.658,-6.298l-4.361 -1.985 -6.325 -0.694c3.062,6.921 0.485,14.627 4.723,17.869z"/>
   </g>
   <g>
    <path class="fil68" d="M122.825 117.326c-0.381,2.702 -0.875,5.116 -0.096,7.708 0.772,2.569 4.531,8.638 5.759,12.734 1.656,5.523 0.196,3.214 0.25,7.558 2.627,-1.712 6.394,-12.631 5.394,-15.534 -1.081,-3.321 -2.795,-6.522 -3.572,-9.439 -0.643,-2.413 -0.307,-3.278 -0.649,-5.426l-4.332 -14.108c-0.725,-3.776 0.46,-8.007 -0.192,-10.706l-2.562 27.213z"/>
    <path class="fil68" d="M105.746 34.089l1.091 0.659c-1.315,4.361 -1.461,5.944 -4.161,9.306 3.24,-0.39 1.944,0.044 3.885,2.361l1.649 -1.109 -0.111 -0.769 -1.186 -0.753c2.458,-2.567 3.265,-2.016 5.275,-3.965 0.535,-2.773 -1.398,-10.294 -0.703,-15.687l-2.032 -0.096 -4.802 -0.364c1.237,2.354 -0.235,1.331 2.633,2.055 -0.001,4.259 -0.771,3.406 0.915,7.68l-2.453 0.682z"/>
   </g>
   <g>
    <path class="fil69" d="M111.706 166.7l-0.772 0.27 -0.675 5.407 -0.793 3.401c-2.478,0.764 -11.089,-0.691 -11.623,1.58l10.521 0.558 -2.421 0.546c1.418,1.576 7.054,12.019 7.288,13.552 3.446,-0.797 4.137,-0.894 5.235,2.25 0.309,1.804 3.254,2.312 4.727,5.138l-9.331 -0.366c1.452,1.361 9.241,2.119 11.388,0.97l-1.487 -7.281c-4.603,-4.527 0.799,-5.362 -5.712,-13.433 -2.661,-3.299 -0.569,-2.839 -3.005,-6.249 -3.415,-4.78 0.804,-4.214 -2.289,-7.877 -0.379,1.762 0.209,1.534 -1.051,1.534z"/>
    <path class="fil69" d="M54.541 27.46l0.032 -3.049 5.462 -2.763 2.806 -2.935 0.354 -2.196 -0.248 -0.811c-1.588,-1.32 -3.833,-1.639 -6.345,-0.67l-5.561 -0.469 -1.929 -3.54 0.666 3.776 3.319 1.211c0.064,1.102 0.054,2.356 0.262,3.392 0.56,2.785 0.752,-0.62 0.49,4.165l0.091 2.67c0.683,3.531 -1.92,-0.396 0.601,1.219z"/>
    <path class="fil69" d="M68.575 77.315c4.42,-3.538 4.953,-19.112 -3.394,-22.353l3.347 16.315c0.473,2.94 -0.146,3.384 0.047,6.038z"/>
   </g>
   <g>
    <path class="fil70" d="M19.175 56.99c-2.425,0.268 -2.232,0.151 -3.391,2.311l3.742 -0.66c-0.694,3.767 0.766,10.608 2.848,13.605 0.741,3.719 4.473,6.19 4.498,12.976 -1.376,0.437 0.87,2.685 -1.839,-0.813 0.532,9.474 -1.87,9.59 -4.259,17.419l1.793 0.068c-0.15,5.977 1.687,6.353 1.572,10.402 -0.102,3.6 -2.305,6.994 -1.344,11.131 2.561,-3.298 -0.234,-8.162 7.171,-17.64l1.645 -1.844 -0.32 -0.262c0.53,-4.238 -3.161,-19.64 -4.155,-24.703 -0.488,-2.489 -0.057,-3.859 -0.84,-6.518 -0.686,-2.324 -1.129,-3.351 -1.358,-5.907 -0.951,-10.578 -3.782,-7.137 -0.993,-9.972l-4.77 0.407z"/>
    <path class="fil70" d="M35.725 138.889l-4.035 1.001 -0.376 0.319c2.787,0.923 1.447,0.142 2.189,3.957 0.576,2.956 0.065,1.939 1.319,3.744 4.399,6.331 0.393,3.384 3.435,6.654l-12.364 1.847 0.43 1.318 4.395 0c1.589,-1.837 1.857,-1.732 3.657,-0.66 3.538,0 3.283,0.463 6.26,-1.322l2.807 -3.068c1.988,-4.886 3.587,-0.658 0.295,-7.054 -1.503,-2.919 -1.386,-5.031 -1.698,-8.547l-2.507 0.522 -0.632 -0.523 -3.175 1.812z"/>
    <path class="fil70" d="M39.842 165.942c1.968,4.272 -2.647,-3.4 0.954,1.069 1.968,2.442 1.15,2.166 2.215,4.42 1.039,2.197 1.898,4.162 2.901,6.333 1.433,3.103 0.436,3.577 2.31,6.24 1.238,1.759 1.102,1.071 1.569,2.954 0.87,3.497 -1.009,1.629 1.459,3.797 -0.828,-5.988 1.947,-3.368 4.209,-7.383 0.091,-0.177 0.248,-0.37 0.323,-0.503 1.395,-2.466 1.215,-1.809 1.128,-4.092l2.62 -0.924c-3.337,-0.087 -8.315,0.215 -11.013,-1.143l-1.016 -1.803 -3.103 -10.509c-2.907,-0.607 -2.928,-1.141 -4.556,1.544z"/>
    <path class="fil70" d="M38.835 100.894c3.297,-0.321 5.326,-0.152 7.34,2.029 -2.144,1.199 -4.438,1.844 -6.877,0.643l0.189 0.733c3.629,2.878 6.187,-0.327 9.445,0.392l1.51 2.171c1.882,1.401 1.506,1.094 2.207,3.093l0.829 1.912 0.171 1.999c0.938,0.824 0.756,-0.455 0.87,2.494l1.323 1.618c2.314,-6.098 -3.934,-15.038 -8.852,-17.707 -3.267,-0.401 -5.122,-1.324 -8.155,0.623z"/>
   </g>
   <g>
    <path class="fil71" d="M38.831 168.19c0.197,2.516 0.217,2.525 -1.541,4.414l0.211 -0.304 -0.26 3.211c-3.206,2.756 -12.715,-0.865 -14.247,2.404l10.576 0.289 4.013 -0.787 4.868 13.711c1.279,4.548 7.364,6.489 8.908,9.531l-2.958 0.363c-1.406,-0.122 -3.235,-0.137 -4.393,-0.58 -2.689,-1.027 -0.088,-1.309 -3.864,-1.754 -0.119,2.58 2.665,3.692 5.291,3.94 2.349,0.222 6.466,0.968 7.709,0.02 1.56,-3.494 0.726,-1.856 0.312,-5.394l-0.692 -4.259 -1.514 -2.24c-2.468,-2.168 -0.589,-0.3 -1.459,-3.797 -0.467,-1.883 -0.331,-1.195 -1.569,-2.954 -1.874,-2.663 -0.877,-3.137 -2.31,-6.24 -1.003,-2.171 -1.862,-4.136 -2.901,-6.333 -1.065,-2.254 -0.247,-1.978 -2.215,-4.42 -3.601,-4.469 1.014,3.203 -0.954,-1.069l-0.344 0 -0.667 2.248z"/>
    <path class="fil71" d="M28.911 151.787l0.013 2.458 -5.691 0.777c1.209,1.947 0.741,1.527 2.66,1.389l12.364 -1.847c-3.042,-3.27 0.964,-0.323 -3.435,-6.654 -1.254,-1.805 -0.743,-0.788 -1.319,-3.744 -0.742,-3.815 0.598,-3.034 -2.189,-3.957 -2.237,1.287 -0.423,0.224 -1.852,1.518 0.898,3.968 1.051,1.714 1.288,3.418 0.597,4.292 -1.201,7.202 4.03,9.047l-4.375 0.95 -1.494 -3.355z"/>
   </g>
   <g>
    <path class="fil72" d="M168.778 69.747c-0.79,3.077 -3.314,6.359 -4.621,10.843 -1.54,5.286 3.786,20.449 3.827,23.605 0.049,3.836 -0.615,11.06 -0.909,15.121 -0.159,7.53 3.212,12.827 5.011,18.85 3.901,0.746 0.341,0.349 2.323,-0.914 -3.214,-4.423 -4.172,-9.196 -4.678,-14.459 -0.426,-4.432 0.361,-14.833 -0.581,-17.249 0.003,-7.855 1.702,-13.199 3.734,-20.554 1.001,-3.623 2.683,-5.879 1.705,-9.256 -0.875,-3.02 -1.179,-6.779 -1.13,-9.95l-2.216 0.256c-1.142,2.174 -1.919,1.304 -2.465,3.707z"/>
    <path class="fil72" d="M190.796 129.985l-0.147 1.985c-0.76,1.958 -3.646,4.155 -3.735,5.806l-1.149 2.912c1.103,1.828 2.939,5.842 3.455,7.806 -0.006,0.13 -2.067,4.691 -5.309,5.624l-0.267 1.629c1.56,-0.424 5.717,-4.049 7.085,-5.422 1.089,-1.093 1.791,-2.158 2.71,-3.243 2,-2.362 2.537,-1.659 2.038,-3.885 0.581,-2.282 1.447,-2.832 1.325,-5.164 -0.049,-0.96 -0.557,-3.897 -0.741,-5.177l-3.167 -1.643 0.605 -1.705 -2.703 0.477z"/>
    <path class="fil72" d="M155.326 33.347c2.996,-0.02 1.265,-0.301 2.688,0.728l-0.567 1.317 1.951 -1.379c2.022,1.651 4.191,3.759 5.205,6.131l0.931 0.472c1.682,0.823 1.238,-0.361 2.034,2.406l-4.302 0.657 -0.586 -0.382 0 1.203 3.25 -0.439c-0.093,2.407 -0.625,5.625 -2.367,7.325l-0.208 1.656 1.188 -0.439 2.588 1.517 2.197 -1.079 2.434 -1.006 0.16 -1.55 -2.001 -0.421c1.989,-2.797 -0.787,-3.91 -0.772,-7.218 0.013,-2.878 0.836,-0.577 0.125,-3.598 -0.354,-1.505 -0.753,-0.29 -0.984,-3.488 -2.854,-0.462 -5.597,-0.917 -7.408,-2.951l-0.949 -1.352c-2.324,1.394 -2.806,1.076 -4.607,1.89z"/>
    <path class="fil72" d="M82.041 135.681l8.099 -0.418 -0.43 -4.187c0.046,-2.183 0.269,-1.161 -0.56,-1.488l-0.292 3.693c-3.623,-0.148 -5.632,-0.919 -6.817,2.4z"/>
    <path class="fil72" d="M161.341 173.32l1.055 0.761 1.479 1.376 7.241 0.211 0.938 -2.7c-2.945,1.526 -7.386,0.967 -10.713,0.352z"/>
   </g>
   <g>
    <path class="fil73" d="M87.216 79.744l0.092 3.973c1.086,-1.209 1.245,1.258 1.439,-2.96 -0.984,3.179 0.93,32.413 1.445,38.006 1.821,19.789 6.044,18.778 10.786,29.952l1.961 2.284c2.164,1.24 3.743,2.737 6.312,3.517 -3.557,-11.112 -10.031,-21.997 -12.965,-33.484 -1.325,-5.189 -3.188,-14.093 -4.855,-18.91 -3.28,-9.473 -0.775,-13.025 -1.392,-21.809l-2.094 -0.858 -0.729 0.289z"/>
    <path class="fil73" d="M37.278 170.944l0.012 1.66c1.758,-1.889 1.738,-1.898 1.541,-4.414l-1.553 2.754z"/>
   </g>
   <g>
    <path class="fil74" d="M13.458 125.602c2.064,-1.113 0.684,0.212 2.337,-1.655 1.538,2.236 -0.068,1.094 2.04,7.384l0.78 5.282c0.283,5.033 0.681,2.185 1.327,5.935 0.437,2.532 0.601,4.941 -0.194,6.851l1.772 -0.254 0.414 -0.338c0.844,-2.544 3.265,-3.876 5.628,-2.256 -1.407,2.777 -1.083,-0.245 -2.116,2.555l1.542 1.529 1.227 1.066 0.696 0.086 1.494 3.355 4.375 -0.95c-5.231,-1.845 -3.433,-4.755 -4.03,-9.047 -0.237,-1.704 -0.39,0.55 -1.288,-3.418 1.429,-1.294 -0.385,-0.231 1.852,-1.518l0.376 -0.319 -1.485 -0.815c-2.248,-0.515 -1.03,-0.095 -1.803,-1.252l-1.811 -1.244c-4.31,-5.368 -2.616,-7.08 -3.796,-13.15 -0.961,-4.137 1.242,-7.531 1.344,-11.131 0.115,-4.049 -1.722,-4.425 -1.572,-10.402l-1.793 -0.068c-1.524,2.087 -3.434,8.459 -3.96,11.576 -0.748,4.434 -2.603,7.995 -3.356,12.198z"/>
    <path class="fil74" d="M176.76 140.879c1.713,0.231 0.764,0.582 2.623,-0.092 2.657,-0.964 1.277,-0.944 1.615,-1.694l-4.79 0.342 0.552 1.444z"/>
   </g>
   <g>
    <path class="fil75" d="M117.153 61.235c3.797,-0.053 4.532,-1.816 8.82,-1.308l-0.016 1.803 1.987 1.155 -1.192 17.671c0.787,2.077 0.986,-0.714 1.356,2.735 0.739,6.897 3.391,22.843 5.36,29.072 0.536,1.696 1.549,3.724 1.989,5.14 0.812,2.619 -0.002,3.459 0.452,6.381 1.78,-2.275 1.816,-4.941 1.378,-7.853 -0.275,-4.634 0.918,-11.213 0.969,-16.435l-4.226 -28.91c-0.632,-3.027 -0.359,-5.19 -0.835,-7.88 -0.701,-3.967 -1.135,-1.474 -3.889,-4.369l-2.281 -1.111 -9.872 3.909z"/>
    <path class="fil75" d="M175.967 81.9c0.615,1.226 1.076,0.902 2.638,1.291 -1.183,-2.916 -1.272,-1.122 -1.422,-4.491 -1.626,1.238 -1.235,1.081 -1.216,3.2z"/>
   </g>
   <g>
    <path class="fil76" d="M124.238 72.945l-0.852 1.369c0.369,2.619 0.638,1.02 -0.487,2.334 0.804,2.825 -0.056,9.769 -0.4,13.046l-3.823 36.816 -1.339 8.407c-1.431,1.471 -3.638,2.224 -5.431,2.184 -2.381,-1.721 -0.822,0.205 -2.201,-2.14l-0.24 0.075 -1.406 0c0.415,1.343 1.122,4.036 1.293,4.574 1.675,5.24 5.248,13.482 7.648,15.809l0.926 0.83 -0.357 1.48 5.975 -3.963c0.971,-2.956 2.339,-2.375 2.631,-4.889 -0.806,-3.501 -1.485,-4.926 -2.596,-7.729l-2.071 -5.132c-2.801,-5.899 -1.536,-4.834 -0.254,-10.772 0.501,-2.323 0.45,-6.367 1.571,-7.918l2.562 -27.213 0.197 -17.919 -1.346 0.751z"/>
    <path class="fil76" d="M92.681 67.815l-0.422 1.394c2.437,0.174 1.741,8.505 2.438,10.674 1.05,3.263 2.131,7.441 2.997,10.773 1.076,4.14 -0.323,6.868 1.91,11.996 1.71,3.926 1.401,8.615 1.949,12.883l1.663 -0.999c0.512,3.779 1.027,12.881 2.625,15.446 -0.325,-7.904 -0.881,-12.329 -2.159,-20.015 -0.488,-2.933 -0.539,-7.387 -0.356,-10.389 0.189,-3.08 1.315,-7.221 1.074,-9.817 -0.379,-2.834 0.889,-4.191 0.027,-6.652 -0.738,-2.104 -0.386,1.293 -0.969,-2.614 -0.268,-1.799 -0.447,-5.846 -1.658,-8.433 -1.576,-3.365 -0.424,-3.224 -1.583,-5.745l-5.977 -0.834 -1.559 2.332z"/>
    <path class="fil76" d="M185.277 137.075c-2.121,0.882 -2.22,0.766 -2.53,3.232l4.167 -2.531c0.089,-1.651 2.975,-3.848 3.735,-5.806l-2.034 0.235c-1.145,1.675 -1.096,0.946 -1.753,2.254 -0.936,1.864 0.391,0.847 -1.585,2.616z"/>
    <path class="fil76" d="M48.517 176.71l12.384 -0.13 -1.028 -0.914c-3.902,0.264 -6.906,-0.511 -10.554,0.481l-1.818 -1.24 1.016 1.803z"/>
    <path class="fil76" d="M9.2 137.872l1.278 -1.945 1.115 -5.838c-1.794,1.675 -2.198,5.045 -2.393,7.783z"/>
   </g>
   <g>
    <path class="fil77" d="M91.198 69.944l-3.253 9.511 2.094 0.858c0.617,8.784 -1.888,12.336 1.392,21.809 1.667,4.817 3.53,13.721 4.855,18.91 2.934,11.487 9.408,22.372 12.965,33.484l2.736 0.872 5.939 0.861 -0.926 -0.83c-2.4,-2.327 -5.973,-10.569 -7.648,-15.809 -0.171,-0.538 -0.878,-3.231 -1.293,-4.574l-2.218 -5.054c-1.598,-2.565 -2.113,-11.667 -2.625,-15.446l-1.663 0.999c-0.548,-4.268 -0.239,-8.957 -1.949,-12.883 -2.233,-5.128 -0.834,-7.856 -1.91,-11.996 -0.866,-3.332 -1.947,-7.51 -2.997,-10.773 -0.697,-2.169 -0.001,-10.5 -2.438,-10.674l-1.061 0.735z"/>
    <path class="fil77" d="M112.757 165.166c3.093,3.663 -1.126,3.097 2.289,7.877 2.436,3.41 0.344,2.95 3.005,6.249 6.511,8.071 1.109,8.906 5.712,13.433 -1.363,-7.453 -3.82,-4.235 4.616,-11.834 2.226,-2.006 2.153,-1.348 1.8,-4.005 -3.854,-0.92 -7.985,0.615 -10.618,-1.368l-2.955 -9.335 -2.848 -2.2 -1.001 1.183z"/>
    <path class="fil77" d="M168.276 185.123c0.267,2.629 0.208,4.365 -1.439,6.182l-1.08 4.703 -5.163 -0.066c0.864,0.737 0.184,1.538 3.28,1.508 2.116,-0.02 2.048,-0.722 3.307,-2.11l1.631 1.376c0.095,-4.393 1.261,-7.246 2.272,-11.449l-1.527 -1.208 0.204 1.432 -1.485 -0.368z"/>
    <path class="fil77" d="M163.266 43.679l4.302 -0.657c-0.796,-2.767 -0.352,-1.583 -2.034,-2.406l-0.267 1.712 -2.001 1.351z"/>
   </g>
   <path class="fil78" d="M157.799 94.311l-1.434 4.444 0.139 4.445c0.711,-0.848 0.336,0.583 1.345,-1.641l0.362 21.824c1.619,2.379 1.696,3.357 1.731,6.299 2.28,0.212 2.57,2.72 3.204,4.845 0.859,2.88 2.171,4.27 3.349,6.61l7.301 13.372c-0.933,2.382 -0.571,-1.735 -0.868,1.908l5.326 1.973 5.39 -2.643 0.267 -1.629c-0.958,-2.146 -0.999,-1.259 -2.32,-2.977 -1.103,-1.437 -1.227,-2.49 -2.065,-3.989 -1.436,-2.568 -3.512,-3.403 -6.099,-5.578 -0.366,-4.498 -0.408,-0.496 1.475,-2.337l-0.149 -1.985 -0.344 0c-1.982,1.263 1.578,1.66 -2.323,0.914 -1.799,-6.023 -5.17,-11.32 -5.011,-18.85l-2.251 -1.06c-0.048,-0.675 -2.521,-15.324 -2.532,-15.362 -3.471,-11.735 -1.681,-3.73 -1.206,-11.247 0.295,-4.659 0.694,-1.782 -1.153,-3.887 -0.212,0.861 -0.831,3.341 -0.861,3.447 -0.541,1.89 -0.125,1.651 -1.273,3.104z"/>
   <path class="fil79" d="M25.692 54.33c-2.136,-0.039 -5.098,1.185 -6.517,2.66l4.77 -0.407c-2.789,2.835 0.042,-0.606 0.993,9.972 0.229,2.556 0.672,3.583 1.358,5.907 0.783,2.659 0.352,4.029 0.84,6.518 0.994,5.063 4.685,20.465 4.155,24.703 1.372,-0.537 2.371,-0.547 2.279,-1.811 0.135,-0.194 0.34,-0.707 0.414,-0.575l0.735 -1.021c1.892,-2.847 0.749,-0.028 -0.436,-3.13 -0.826,-2.163 -1.138,-6.147 -0.889,-8.327l0.035 -5.844c-0.533,1.884 0.61,1.315 -1.241,0.86 -1.417,-7.136 -0.183,-9.459 0.483,-15.939 0.342,-3.333 -1.693,-12.68 -0.298,-14.872 -2.87,0.701 -3.851,1.63 -6.681,1.306z"/>
   <path class="fil80" d="M7.235 149.145c0.111,-2.271 -0.201,-2.296 0.776,-4.025 -0.115,-2.644 -0.13,-3.493 1.448,-5.417l-0.259 -1.831c0.195,-2.738 0.599,-6.108 2.393,-7.783l0.565 -4.364c0.739,-3.519 2.664,-7.008 2.64,-10.508l1.638 -8.62c-7.364,1.36 -7.08,2.998 -8.394,11.059l3.378 1.061c-0.088,6.775 -5.567,0.562 -7.439,12.005 -1.192,7.29 -3.819,8.459 -2.633,16.564l5.887 1.859z"/>
   <path class="fil81" d="M110.799 19.667l-0.889 2.915 -0.457 1.454 2.032 0.096c-0.695,5.393 1.238,12.914 0.703,15.687 -2.01,1.949 -2.817,1.398 -5.275,3.965l1.186 0.753 3.839 -1.37 3.066 -2.773 3.502 2.747c2.12,1.569 4.931,3.407 4.903,6.254l1.204 -0.66 -0.76 -4.627c-4.238,-3.242 -1.661,-10.948 -4.723,-17.869 -0.741,-2.321 -1.342,-2.059 -2.159,-5.68 -0.653,-2.893 -1.303,-4.164 -2.212,-6.834 -1.072,-1.148 -1.298,-1.115 -2.618,0 1.36,2.426 0.533,4.438 -1.342,5.942z"/>
   <path class="fil82" d="M124.238 72.945l1.346 -0.751 -0.197 17.919c0.652,2.699 -0.533,6.93 0.192,10.706l4.332 14.108c0.342,2.148 0.006,3.013 0.649,5.426 0.777,2.917 2.491,6.118 3.572,9.439 2.032,-1.533 1.924,-3.168 1.777,-5.908 -0.454,-2.922 0.36,-3.762 -0.452,-6.381 -0.44,-1.416 -1.453,-3.444 -1.989,-5.14 -1.969,-6.229 -4.621,-22.175 -5.36,-29.072 -0.37,-3.449 -0.569,-0.658 -1.356,-2.735l1.192 -17.671 -1.987 -1.155 -1.719 11.215z"/>
   <path class="fil83" d="M188.23 93.744l0.397 1.892c7.727,-4.455 6.751,-32.856 -8.288,-33.029 2.072,5.531 2.408,-1.103 3.157,6.481 0.444,4.496 2.475,9.935 2.727,16.384 0.181,4.613 1.267,4.077 2.007,8.272z"/>
   <path class="fil84" d="M137.287 116.031c2.349,-3.274 2.469,-26.959 2.413,-32.286 -0.06,-5.603 -0.065,-11.667 -0.292,-17.216 -0.298,-7.263 -3.367,-7.537 -10.102,-8.092 2.754,2.895 3.188,0.402 3.889,4.369 0.476,2.69 0.203,4.853 0.835,7.88l4.226 28.91c-0.051,5.222 -1.244,11.801 -0.969,16.435z"/>
   <path class="fil85" d="M165.224 151.12l0.958 1.149c3.222,1.565 2.903,3.233 6.746,4.148 0.297,-3.643 -0.065,0.474 0.868,-1.908l-7.301 -13.372c-1.178,-2.34 -2.49,-3.73 -3.349,-6.61 -0.634,-2.125 -0.924,-4.633 -3.204,-4.845 -0.035,-2.942 -0.112,-3.92 -1.731,-6.299 0.287,4.902 1.171,9.979 2.365,14.727 1.238,4.919 3.387,8.561 4.648,13.01z"/>
   <path class="fil86" d="M150.061 175.054l10.457 0.827 -0.574 1.549 1.951 -0.78 1.738 3.131c2.085,0.375 4.42,2.533 5.924,4.278l1.527 1.208c-1.011,4.203 -2.177,7.056 -2.272,11.449l-0.068 1.969 3.75 -1.982c0.219,-2.186 1.09,-3.058 3.034,-4.357 0.97,-1.898 0.873,-1.398 3.076,-1.331l-2.77 -1.849c-1.564,-1.54 -0.301,-0.446 -1.198,-1.948 -1.114,-1.867 -1.775,-2.122 -2.864,-4.401 -2.552,-5.343 -0.958,-5.46 -7.727,-6.014 -1.777,-2.472 0.115,-1.046 -1.649,-2.722l-1.055 -0.761 -0.75 0.079c-2.144,0.233 -3.945,0.019 -5.928,0.196 -2.693,0.241 -2.284,0.724 -4.602,1.459z"/>
   <path class="fil87" d="M116.494 62.28c-2.886,5.747 -3.088,26.155 -4.081,33.884 -0.966,7.519 -2.019,27.835 -4.733,33.821l1.785 5.051 0.24 -0.075c5.396,0.945 6.359,0.084 7.34,-4.972 -1.509,1.48 -0.631,0.158 -1.81,2.358l-6.065 -0.023c-0.001,-0.037 3.143,-24.461 4.084,-25.919l-0.478 -0.018c0.385,-4.245 1.14,-8.763 1.33,-12.714 0.156,-3.26 -0.277,-9.7 1.361,-11.854l-0.038 -8.451 1.419 -9.717 3.254 -1.64 -3.608 0.269z"/>
   <path class="fil88" d="M160.591 173.399l0.75 -0.079c3.327,0.615 7.768,1.174 10.713,-0.352 -0.423,-1.253 -0.799,-1.064 0.347,-1.064l1.303 -7.134 -9.164 -0.936c-2.932,1.624 -2.2,6.373 -3.949,9.565z"/>
   <path class="fil89" d="M30.871 165.656l-1.973 8.509 6.827 0.436c0.376,-3.396 -0.215,-2.266 1.553,-3.657l1.553 -2.754c-0.949,-3.004 -0.064,-1.109 -0.255,-4.152l-6.984 -0.434 -0.721 2.052z"/>
   <path class="fil90" d="M172.494 196.703c2.087,1.409 11.493,2.33 12.728,0.66l0.301 -0.764 -2.33 -0.831 -4.197 -3.637 -3.468 0.215c-1.944,1.299 -2.815,2.171 -3.034,4.357z"/>
   <path class="fil91" d="M169.328 53.041c-1.567,2.238 -1.961,1.111 -2.026,3.021 3.334,2.618 2.8,3.646 7.614,2.256 0.384,-2.366 0.591,-4.666 -0.583,-6.849l-2.571 0.566 -2.434 1.006z"/>
   <path class="fil92" d="M195.477 143.197c3.656,-1.573 4.885,-6.558 4.434,-10.4 -2.581,-2.978 -2.86,-2.283 -6.412,-3.289l-0.605 1.705 3.167 1.643c0.184,1.28 0.692,4.217 0.741,5.177 0.122,2.332 -0.744,2.882 -1.325,5.164z"/>
   <path class="fil93" d="M82.928 68.466l3.227 0.051 0.067 -0.013c0.933,-0.811 -0.344,-0.695 2.026,-1.521 2.215,-0.774 1.94,-0.283 3.626,-0.127l-0.676 3.088 1.061 -0.735 0.422 -1.394 0.494 -2.658c4.165,-1.655 6.797,0.091 11.473,0.089 -0.539,-1.446 1.05,-1.276 -5.338,-1.933 -4.179,-0.431 -14.416,2.42 -16.382,5.153z"/>
   <path class="fil94" d="M23.039 87.752l0 -5.992 -5.546 1.71 0.293 5.805c1.961,-0.281 3.849,-0.433 5.253,-1.523z"/>
   <path class="fil95" d="M167.827 157.208l-0.925 1.842c3.205,0 9.198,0.874 11.352,-0.66l-5.326 -1.973c-3.843,-0.915 -3.524,-2.583 -6.746,-4.148 1.21,2.768 1.835,2.037 1.645,4.939z"/>
   <path class="fil96" d="M151.368 147.821c0.516,2.11 0.17,1.433 1.568,2.642l-0.17 -3.099 7.171 -0.323 0.555 -1.608 -1.528 -4.716 0.26 3.194 -7.596 0.392 -0.26 3.518z"/>
   <path class="fil97" d="M160.898 67.892c-2.019,1.429 -0.684,0.23 -1.305,2.097l6.067 -0.626c1.247,-0.536 1.672,-0.685 2.709,-1.583 2.335,-2.021 0.325,-1.361 2.874,-1.74l-0.292 -1.451c-2.899,0.069 -7.585,1.731 -10.053,3.303z"/>
   <path class="fil98" d="M51.337 71.599c1.528,4.061 0.276,5.447 0,9.122l6.906 -1.161c2.541,-2.386 2.227,-1.499 2.549,-5.806 -3.069,3.881 -1.661,4.228 -8.09,5.197l-0.048 -5.797c3.46,-2.179 3.623,-0.522 5.768,-3.126l-3.912 1.163 -3.173 0.408z"/>
   <path class="fil99" d="M40.806 106.208l2.633 3.765c4.185,0.118 5.594,-1.487 9.21,-0.018 -0.701,-1.999 -0.325,-1.692 -2.207,-3.093 -4.269,-1.21 -4.304,1.69 -9.636,-0.654z"/>
   <path class="fil100" d="M155.326 196.216l5.92 -0.141c-0.181,-0.148 -0.437,-0.602 -0.56,-0.423 -0.115,0.168 -0.396,-0.286 -0.557,-0.35l-3.42 -1.14 1.382 -7.978c2.958,-0.726 6.348,-0.527 9.553,0.02l-0.807 5.101c1.647,-1.817 1.706,-3.553 1.439,-6.182l-0.751 -0.019 -9.566 -0.134 -2.633 11.246z"/>
   <path class="fil101" d="M86.222 68.504l3.401 -0.208c-0.031,3.441 -2.052,6.797 -2.407,11.448l0.729 -0.289 3.253 -9.511 0.676 -3.088c-1.686,-0.156 -1.411,-0.647 -3.626,0.127 -2.37,0.826 -1.093,0.71 -2.026,1.521z"/>
   <path class="fil102" d="M175.949 53.727c1.961,-0.124 0.632,-0.604 1.536,0.95l0.786 0.44c0.848,1.121 0.999,-1.333 0.753,2.339l-2.981 -0.559 -0.459 2.407 6.811 -1.981c-1.082,-2.248 -4.682,-5.591 -6.666,-7.221 0.357,1.751 0.624,1.577 0.22,3.625z"/>
   <path class="fil103" d="M171.922 50.485l-0.16 1.55 2.571 -0.566c1.174,2.183 0.967,4.483 0.583,6.849 -4.814,1.39 -4.28,0.362 -7.614,-2.256 0.843,2.51 1.601,3.009 3.989,4.393l4.293 -1.151 0.459 -2.407 -0.094 -3.17c0.404,-2.048 0.137,-1.874 -0.22,-3.625l-3.807 0.383z"/>
   <path class="fil104" d="M31.592 136.285c-0.979,0.069 -0.382,-0.321 -1.148,0.306l-0.149 1.454 -1.893 -0.222c0.773,1.157 -0.445,0.737 1.803,1.252l3.394 0.134 -1.715 -1.805c2.922,-1.351 1.664,-1.264 4.233,-0.723l-0.392 2.208 3.175 -1.812 -1.827 -0.194 0.761 -1.977 -2.95 0.198 -3.292 1.181z"/>
   <path class="fil105" d="M99.379 36.022c-0.89,1.989 -0.884,0.452 -0.166,1.9l5.057 -0.182 0.929 -3.423 -3.75 0.895 -1.994 -0.346 -0.076 1.156z"/>
   <path class="fil106" d="M43.439 109.973l0.658 1.598 7.184 -0.689c0.842,0.488 1.392,0.583 2.197,0.985l-0.829 -1.912c-3.616,-1.469 -5.025,0.136 -9.21,0.018z"/>
   <path class="fil107" d="M21.631 155.087c1.531,2.068 2.271,1.924 4.692,2.642l-0.43 -1.318c-1.919,0.138 -1.451,0.558 -2.66,-1.389l5.691 -0.777 -0.013 -2.458 -0.696 -0.086 -0.278 1.683c-1.904,0.306 -5.719,-0.347 -6.306,1.703z"/>
   <path class="fil108" d="M22.693 186.854c-2.055,-3.24 -4.432,-2.705 -5.764,-5.594l-1.862 -0.407c1.169,2.486 4.954,5.318 7.626,6.001z"/>
   <path class="fil109" d="M157.447 35.392l0.143 0.869 1.88 -0.538 5.133 4.421c-1.014,-2.372 -3.183,-4.48 -5.205,-6.131l-1.951 1.379z"/>
   <path class="fil110" d="M176.043 56.897l2.981 0.559c0.246,-3.672 0.095,-1.218 -0.753,-2.339l-1.088 1.378c-0.371,-1.926 -0.637,-1.589 0.302,-1.818 -0.904,-1.554 0.425,-1.074 -1.536,-0.95l0.094 3.17z"/>
   <polygon class="fil111" points="170.951,64.589 171.243,66.04 173.459,65.784 174.858,63.268 "/>
   <path class="fil112" d="M24.352 38.809l1.799 1.593c3.411,-0.269 1.563,-0.093 2.808,-1.049l-3.074 0.455 1.808 -2.653 -3.341 1.654z"/>
   <path class="fil113" d="M102.917 198.355l0.214 2.039c2.351,-1.116 1.725,1.887 1.352,-2.365l-1.566 0.326z"/>
   <polygon class="fil114" points="95.26,49.395 95.38,47.544 94.117,48.007 94.193,49.293 "/>
   <path class="fil115" d="M178.271 55.117l-0.786 -0.44c-0.939,0.229 -0.673,-0.108 -0.302,1.818l1.088 -1.378z"/>
  </g>
 </g>
</svg>
