<?xml version="1.0" encoding="UTF-8"?>
<svg width="79px" height="79px" viewBox="0 0 79 79" version="1.1" xmlns="http://www.w3.org/2000/svg" xmlns:xlink="http://www.w3.org/1999/xlink">
    <!-- Generator: Sketch 52.2 (67145) - http://www.bohemiancoding.com/sketch -->
    <title>分组2X</title>
    <desc>Created with Sketch.</desc>
    <g id="Page-1" stroke="none" stroke-width="1" fill="none" fill-rule="evenodd">
        <g id="分组">
            <circle id="椭圆形" fill="#5A5FD2" cx="39.42" cy="39.17" r="39.17"></circle>
            <path d="M42.09,49.03 C49.5567479,49.0516882 56.1710542,44.2179463 58.4182013,37.0973337 C60.6653483,29.976721 58.0237602,22.2219727 51.8971273,17.9538158 C45.7704943,13.685659 37.5808431,13.8947574 31.68,18.47 C31.39,15.97 30.12,14.88 27.87,14.88 C26.7941149,14.9532732 25.7267082,15.1205783 24.68,15.38 C27.55,20.78 26.23,42.49 25.68,59.71 C25.6195907,60.6743308 25.7072745,61.642225 25.94,62.58 C26.3008762,63.6543528 27.3641175,64.3298238 28.49,64.2 C30.2513527,64.0996854 31.9642938,63.5858031 33.49,62.7 C31.67,59.7 31.49,53.54 31.64,45.42 C32.8027901,46.3277107 34.0763501,47.0837819 35.43,47.67 C35.27,52.53 35.07,57.46 34.93,62.08 C34.8703758,63.0443197 34.9580488,64.0120948 35.19,64.95 C35.5577339,66.0178866 36.6177513,66.6871524 37.74,66.56 C39.5015081,66.4684028 41.2156934,65.9575756 42.74,65.07 C41.01,62.24 40.74,56.51 40.88,48.97 C41.27,49 41.68,49.03 42.09,49.03 Z M53.55,31.96 C53.5500011,35.2875481 52.2274537,38.4786626 49.8735842,40.8306564 C47.5197148,43.1826503 44.3275471,44.5026535 41,44.5 L40.94,44.5 C41.09,37.59 41.32,29.5 40.94,20.99 C40.8955028,20.4573497 40.7811905,19.9328581 40.6,19.429996 L41,19.43 C44.3258151,19.4273468 47.5164674,20.7459777 49.8700491,23.0958087 C52.2236309,25.4456398 53.5473489,28.6341849 53.55,31.96 Z M31.75,40.4 C31.86,35.23 31.99,29.48 31.86,23.4 C32.7325987,22.4553624 33.7442435,21.6494186 34.86,21.01 C35.75,25.9 35.76,34.21 35.52,43.25 C34.0928952,42.5494172 32.8131761,41.5819903 31.75,40.4 Z" id="形状" fill="#FFFFFF" fill-rule="nonzero"></path>
        </g>
    </g>
</svg>