<?xml version="1.0" encoding="utf-8"?>
<!-- Generator: Adobe Illustrator 21.1.0, SVG Export Plug-In . SVG Version: 6.00 Build 0)  -->
<svg version="1.1" id="Layer_1" xmlns="http://www.w3.org/2000/svg" xmlns:xlink="http://www.w3.org/1999/xlink" x="0px" y="0px"
	 viewBox="0 0 220.1 54.8" style="enable-background:new 0 0 220.1 54.8;" xml:space="preserve">
<style type="text/css">
	.st0{fill:#FF5B3F;}
	.st1{fill:#AEDFD4;}
</style>
<title>Chestnut_Icon</title>
<path class="st0" d="M25.2,0c4.7,2.9,9.7,5.1,14,8.3c3.8,2.6,6.8,6,8.9,10.1c1.2,2.5,1.9,5.2,1.9,8c0,1.1-0.1,1.2-1.2,1.3
	s-1.9,0-2.8,0c-0.6,0-1-0.3-1-0.9c-0.2-6.1-3.6-10.3-8.1-13.8c-2.6-1.9-5.4-3.6-8.3-5.1c-0.9-0.5-1.7-0.9-2.6-1.4
	C25.5,6.1,25,6,24.5,6.2c-4.6,2.4-9.4,4.7-13.3,8.3c-2.7,2.3-4.7,5.4-5.6,8.8c-0.2,1-0.3,1.9-0.4,2.9c-0.1,1.1-0.3,1.3-1.4,1.3
	c-0.9,0-1.7,0-2.6,0s-1.1-0.2-1.1-1.1c0-2.6,0.5-5.1,1.6-7.5c1.6-3.6,4.1-6.8,7.2-9.2c2.9-2.4,6.1-4.5,9.5-6.2c1.8-1,3.7-2,5.5-3
	L25.2,0z"/>
<path class="st0" d="M45,33.4c0.6,0,1.2-0.1,1.8-0.1s1.3,0,2,0c0.9,0,1.2,0.3,1.1,1.2c-0.1,4.4-1.6,8.6-4.3,12
	c-3.3,3.9-7.8,6.5-12.7,7.4c-2,0.4-4.1,0.6-6.2,0.8C22.3,55,18,54.4,13.8,53C9.4,51.6,5.6,48.7,3,44.8c-1.5-2.4-2.5-5.1-2.8-8
	C0.1,36,0,35.2,0,34.4c0-0.8,0.3-1,1.1-1.1s1.8,0,2.7,0c1.1,0,1.2,0.2,1.3,1.2c0.1,2.3,0.7,4.6,1.8,6.7c1.9,3.5,5.1,5.6,8.8,7
	c3.6,1.2,7.4,1.7,11.2,1.4c4,0,7.9-1.2,11.3-3.2c3.8-2.2,6.3-6.2,6.6-10.6c0-0.1,0-0.2,0-0.3C44.8,34.8,44.9,34.3,45,33.4z"/>
<path class="st1" d="M86.2,35.6c-1.9,1.9-4.5,2.9-7.1,2.8c-5.3,0-10-2.9-10-9.5c0-6.1,4.6-9.6,9.9-9.6c2.5-0.2,4.9,0.7,6.6,2.5
	l-3,3.4c-1-0.7-2.2-1.1-3.4-1.1c-2.5-0.1-4.7,1.8-4.8,4.3c0,0.2,0,0.3,0,0.5c-0.1,2.5,1.9,4.5,4.4,4.6c0.1,0,0.2,0,0.3,0
	c1.4,0,2.7-0.5,3.7-1.4L86.2,35.6z"/>
<path class="st1" d="M93.6,12.2V22c1.3-1.7,3.4-2.6,5.5-2.5c4.3,0,7.3,2.2,7.3,8.8V38h-5.3v-9.7c0-2.5-1.4-4-3.5-4s-4.1,1.5-4.1,4.5
	V38h-5.3V12.2H93.6z"/>
<path class="st1" d="M114.5,30.6c0.3,1.8,2,3.2,5,3.2c1.7,0.1,3.4-0.4,4.7-1.4l3,3.3c-2,1.9-5.1,2.7-7.8,2.7
	c-6.6,0-10.2-3.9-10.2-9.7c0-5.5,3.7-9.4,9.7-9.4c6.2,0,10.3,3.9,9.1,11.3L114.5,30.6z M123.2,26.8c-0.1-2-2.1-2.9-4.4-2.9
	c-1.9-0.1-3.7,1.1-4.3,2.9H123.2z"/>
<path class="st1" d="M142.4,24.9c-1.3-0.9-2.8-1.4-4.3-1.3c-1.7,0-2.6,0.6-2.6,1.5s0.9,1.5,2.7,1.6c3.6,0.1,7.9,0.9,7.9,5.9
	c0,3-2.2,6.1-8,6.1c-3.1,0.1-6.2-1-8.6-3.1l2.3-3.8c1.8,1.5,4,2.3,6.4,2.3c1.6,0,2.8-0.6,2.7-1.5s-0.6-1.5-3.1-1.6
	c-3.4-0.1-7.6-1.5-7.6-5.8s3.9-5.9,7.9-5.9c2.5-0.1,5,0.7,7,2.4L142.4,24.9z"/>
<path class="st1" d="M155.8,14.8v5.1h4.6v4.4h-4.7v6.9c0,1.9,1.1,2.4,2.1,2.4c0.8,0,1.5-0.1,2.2-0.4l1.2,4.4
	c-1.2,0.5-2.5,0.8-3.8,0.8c-4,0.2-6.9-1.5-6.9-7.2v-6.9h-3.2v-4.4h3.2v-4.5L155.8,14.8z"/>
<path class="st1" d="M176.6,38v-9.6c0-2.8-1.2-4.2-3.8-4.2c-2.3,0-4.2,2-4.1,4.3c0,0.1,0,0.1,0,0.2V38h-5.2V19.8h4.8l0.2,2.3
	c1.4-1.9,3.6-2.9,5.9-2.8c4.1,0,7.6,1.9,7.6,9V38H176.6z"/>
<path class="st1" d="M190.7,19.8v9.6c0,2.8,1.2,4.2,3.8,4.2c2.3,0,4.2-2,4.1-4.3c0-0.1,0-0.1,0-0.2v-9.4h5.2V38H199l-0.2-2.4
	c-1.4,1.9-3.6,2.9-5.9,2.8c-4.1,0-7.6-1.8-7.6-8.9v-9.7H190.7z"/>
<path class="st1" d="M214.6,14.8v5.1h4.6v4.4h-4.7v6.9c0,1.9,1.1,2.4,2.1,2.4c0.8,0,1.5-0.1,2.2-0.4l1.2,4.4
	c-1.2,0.5-2.5,0.8-3.8,0.8c-4,0.2-6.9-1.5-6.9-7.2v-6.9h-3.2v-4.4h3.2v-4.5L214.6,14.8z"/>
</svg>
