<?xml version="1.0" encoding="UTF-8" standalone="no"?>
<svg
   xmlns:dc="http://purl.org/dc/elements/1.1/"
   xmlns:cc="http://creativecommons.org/ns#"
   xmlns:rdf="http://www.w3.org/1999/02/22-rdf-syntax-ns#"
   xmlns:svg="http://www.w3.org/2000/svg"
   xmlns="http://www.w3.org/2000/svg"
   xmlns:sodipodi="http://sodipodi.sourceforge.net/DTD/sodipodi-0.dtd"
   xmlns:inkscape="http://www.inkscape.org/namespaces/inkscape"
   id="Layer_1"
   data-name="Layer 1"
   viewBox="0 0 401.06 450.06"
   version="1.1"
   sodipodi:docname="chintai-icon.svg"
   width="401.06"
   height="450.06"
   inkscape:version="0.92.4 (unknown)"
   inkscape:export-filename="/home/andrew/Projects/chintaihome/marketing/logo-with-slogan.svg.png"
   inkscape:export-xdpi="72"
   inkscape:export-ydpi="72">
  <sodipodi:namedview
     pagecolor="#ffffff"
     bordercolor="#666666"
     borderopacity="1"
     objecttolerance="10"
     gridtolerance="10"
     guidetolerance="10"
     inkscape:pageopacity="0"
     inkscape:pageshadow="2"
     inkscape:window-width="2675"
     inkscape:window-height="1518"
     id="namedview43"
     showgrid="false"
     inkscape:zoom="0.82731492"
     inkscape:cx="-187.10484"
     inkscape:cy="304.66028"
     inkscape:window-x="2003"
     inkscape:window-y="27"
     inkscape:window-maximized="0"
     inkscape:current-layer="g988"
     inkscape:pagecheckerboard="false"
     fit-margin-top="0"
     fit-margin-left="0"
     fit-margin-right="0"
     fit-margin-bottom="0" />
  <defs
     id="defs4">
    <style
       id="style2">.cls-1{fill:#0d78ca;}.cls-2{fill:none;stroke:#0d78ca;stroke-miterlimit:10;stroke-width:16px;}</style>
  </defs>
  <title
     id="title6">Artboard 1</title>
  <g
     id="g988"
     transform="translate(-57.420016,-91.443768)">
    <path
       style="fill:#0d78ca"
       inkscape:connector-curvature="0"
       d="m 257.65001,190.23377 a 126,126 0 1 0 126,126 126,126 0 0 0 -126,-126 z m 55.9,214.11 a 12.8,12.8 0 0 1 -11.08,6.41 h -90.24 a 12.8,12.8 0 0 1 -11.06,-6.38 l -47.71,-82.45 a 12.76,12.76 0 0 1 -0.14,-12.55 c 10.21,-18.6 40.56,-72.68 56.54,-88.66 15,-15 47.9,-12.92 47.9,-12.92 0,0 32.1,-2.08 47.1,12.92 16,15.95 46.16,70 56.3,88.6 a 12.76,12.76 0 0 1 -0.15,12.5 z"
       class="cls-1"
       data-name="Center shape"
       id="Center_shape" />
    <circle
       style="fill:none;stroke:#0d78ca;stroke-width:16px;stroke-miterlimit:10"
       r="178.94"
       cy="316.26376"
       cx="257.92001"
       class="cls-2"
       data-name="Bounding circle"
       id="Bounding_circle" />
    <g
       transform="translate(7.900012,65.923764)"
       data-name="Spoke 120deg"
       id="Spoke_120deg">
      <line
         style="fill:none;stroke:#0d78ca;stroke-width:16px;stroke-miterlimit:10"
         y2="159.98"
         x2="95.550003"
         y1="339.98001"
         x1="404.54999"
         class="cls-2"
         id="Connector" />
      <circle
         style="fill:none;stroke:#0d78ca;stroke-width:16px;stroke-miterlimit:10"
         r="38.029999"
         cy="159.98"
         cx="95.550003"
         class="cls-2"
         data-name="Top left circle"
         id="Top_left_circle" />
      <circle
         style="fill:#0d78ca"
         r="16.25"
         cy="159.87"
         cx="95.07"
         class="cls-1"
         data-name="Top left circle inner"
         id="Top_left_circle_inner" />
      <circle
         style="fill:#0d78ca"
         r="16.25"
         cy="339.98001"
         cx="404.54999"
         class="cls-1"
         data-name="Bottom right circle inner"
         id="Bottom_right_circle_inner" />
      <circle
         style="fill:none;stroke:#0d78ca;stroke-width:16px;stroke-miterlimit:10"
         r="38.029999"
         cy="339.98001"
         cx="404.54999"
         class="cls-2"
         data-name="Bottom right circle"
         id="Bottom_right_circle" />
    </g>
    <g
       transform="translate(7.900012,65.923764)"
       data-name="Spoke 60deg"
       id="Spoke_60deg">
      <line
         style="fill:none;stroke:#0d78ca;stroke-width:16px;stroke-miterlimit:10"
         y2="339.98001"
         x2="95.550003"
         y1="159.98"
         x1="404.54999"
         class="cls-2"
         data-name="Connector"
         id="Connector-2" />
      <circle
         style="fill:#0d78ca"
         r="16.25"
         cy="339.98001"
         cx="95.550003"
         class="cls-1"
         data-name="Bottom left circle inner"
         id="Bottom_left_circle_inner" />
      <circle
         style="fill:none;stroke:#0d78ca;stroke-width:16px;stroke-miterlimit:10"
         r="38.029999"
         cy="339.98001"
         cx="95.550003"
         class="cls-2"
         data-name="Bottom left circle"
         id="Bottom_left_circle" />
      <circle
         style="fill:#0d78ca"
         r="16.25"
         cy="159.98"
         cx="404.54999"
         class="cls-1"
         data-name="Top right circle inner"
         id="Top_right_circle_inner" />
      <circle
         style="fill:none;stroke:#0d78ca;stroke-width:16px;stroke-miterlimit:10"
         r="38.029999"
         cy="159.98"
         cx="404.54999"
         class="cls-2"
         data-name="Top right circle"
         id="Top_right_circle" />
    </g>
    <g
       transform="translate(7.900012,65.923764)"
       data-name="Spoke 0deg"
       id="Spoke_0deg">
      <line
         style="fill:none;stroke:#0d78ca;stroke-width:16px;stroke-miterlimit:10"
         y2="429.54999"
         x2="249.98"
         y1="71.550003"
         x1="249.98"
         class="cls-2"
         data-name="Connector"
         id="Connector-3" />
      <circle
         style="fill:none;stroke:#0d78ca;stroke-width:16px;stroke-miterlimit:10"
         r="38.029999"
         cy="429.54999"
         cx="249.98"
         class="cls-2"
         data-name="Bottom circle"
         id="Bottom_circle" />
      <circle
         style="fill:#0d78ca"
         r="16.25"
         cy="429.60001"
         cx="249.94"
         class="cls-1"
         data-name="Bottom circle inner"
         id="Bottom_circle_inner" />
      <circle
         style="fill:#0d78ca"
         r="16.25"
         cy="71.550003"
         cx="249.98"
         class="cls-1"
         data-name="Top circle inner"
         id="Top_circle_inner" />
      <circle
         style="fill:none;stroke:#0d78ca;stroke-width:16px;stroke-miterlimit:10"
         r="38.029999"
         cy="71.550003"
         cx="249.98"
         class="cls-2"
         data-name="Top circle"
         id="Top_circle" />
    </g>
    <g
       transform="translate(-21.159817,79.598978)"
       id="g863">
      <path
         class="cls-1"
         d="m 707.56983,111.57479 c 35,0 60.9,10.85 84.7,32.55 a 6.5,6.5 0 0 1 0.35,9.8 l -27.3,28.4 a 6.13,6.13 0 0 1 -8.75,0 71.5,71.5 0 0 0 -47.25,-17.85 c -39.56,0 -68.61,32.9 -68.61,72.1 0,38.85 29.4,71.05 69,71.05 16.45,0 34.3,-5.95 46.9,-16.8 2.45,-2.1 7,-2.1 9.1,0.35 l 27.3,29.05 c 2.45,2.45 2.1,7 -0.35,9.45 -23.8,23.1 -53.9,33.95 -85,33.95 -70,0 -126.36,-55.65 -126.36,-125.65 a 126.07,126.07 0 0 1 126.27,-126.4 z"
         id="path28"
         inkscape:connector-curvature="0"
         style="fill:#0d78ca" />
      <path
         class="cls-1"
         d="m 904.60983,121.72479 a 6.88,6.88 0 0 1 6.65,-6.65 h 41.65 a 6.65,6.65 0 0 1 6.65,6.65 v 88.2 h 100.09997 v -88.2 a 6.65,6.65 0 0 1 6.65,-6.65 h 41.65 a 6.88,6.88 0 0 1 6.65,6.65 v 231.7 a 6.88,6.88 0 0 1 -6.65,6.65 h -41.65 a 6.65,6.65 0 0 1 -6.65,-6.65 v -92.05 H 959.55983 v 92.05 a 6.65,6.65 0 0 1 -6.65,6.65 h -41.65 a 6.88,6.88 0 0 1 -6.65,-6.65 z"
         id="path30"
         inkscape:connector-curvature="0"
         style="fill:#0d78ca" />
      <path
         class="cls-1"
         d="m 1244.8098,121.72479 a 6.88,6.88 0 0 1 6.65,-6.65 h 42 a 6.88,6.88 0 0 1 6.65,6.65 v 231.7 a 6.88,6.88 0 0 1 -6.65,6.65 h -42 a 6.88,6.88 0 0 1 -6.65,-6.65 z"
         id="path32"
         inkscape:connector-curvature="0"
         style="fill:#0d78ca" />
      <path
         class="cls-1"
         d="m 1429.9498,117.87479 a 6.58,6.58 0 0 1 6.65,-6.3 h 8.75 l 139.65,134.4 h 0.35 v -124.25 a 6.65,6.65 0 0 1 6.65,-6.65 h 42 a 6.88,6.88 0 0 1 6.65,6.65 v 235.6 a 6.58,6.58 0 0 1 -6.65,6.3 h -5.6 a 10.31,10.31 0 0 1 -4.55,-1.75 l -138.25,-139 h -0.35 v 130.55 a 6.65,6.65 0 0 1 -6.65,6.65 h -41.65 a 6.88,6.88 0 0 1 -6.65,-6.65 z"
         id="path34"
         inkscape:connector-curvature="0"
         style="fill:#0d78ca" />
      <path
         class="cls-1"
         d="m 1802.3498,166.52479 h -50 a 6.65,6.65 0 0 1 -6.65,-6.65 v -38.15 a 6.65,6.65 0 0 1 6.65,-6.65 h 155.4 a 6.65,6.65 0 0 1 6.65,6.65 v 38.15 a 6.65,6.65 0 0 1 -6.65,6.65 h -50.05 v 186.9 a 6.88,6.88 0 0 1 -6.65,6.65 h -42 a 6.88,6.88 0 0 1 -6.65,-6.65 z"
         id="path36"
         inkscape:connector-curvature="0"
         style="fill:#0d78ca" />
      <path
         class="cls-1"
         d="m 1975.2498,350.97479 109.55,-235.55 a 7.11,7.11 0 0 1 6,-3.85 h 3.5 a 7.11,7.11 0 0 1 5.95,3.85 l 109.55,235.55 c 2.1,4.55 -0.7,9.1 -6,9.1 h -38.85 c -6.3,0 -9.1,-2.1 -12.25,-8.75 l -12.64,-27.65 h -95.2 l -12.6,28 a 13,13 0 0 1 -12.6,8.4 h -38.5 c -5.21,0 -8.01,-4.55 -5.91,-9.1 z m 143.81,-74.9 -26.56,-57.75 h -0.35 l -26.25,57.75 z"
         id="path38"
         inkscape:connector-curvature="0"
         style="fill:#0d78ca" />
      <path
         class="cls-1"
         d="m 2308.4398,121.72479 a 6.88,6.88 0 0 1 6.65,-6.65 h 42 a 6.88,6.88 0 0 1 6.65,6.65 v 231.7 a 6.88,6.88 0 0 1 -6.65,6.65 h -42 a 6.88,6.88 0 0 1 -6.65,-6.65 z"
         id="path40"
         inkscape:connector-curvature="0"
         style="fill:#0d78ca" />
    </g>
    <text
       id="text854"
       y="629.88959"
       x="730.45416"
       style="font-style:normal;font-weight:normal;font-size:40px;line-height:1.25;font-family:sans-serif;letter-spacing:0px;word-spacing:0px;fill:#324b56;fill-opacity:1;stroke:none"
       xml:space="preserve"><tspan
         style="font-style:normal;font-variant:normal;font-weight:normal;font-stretch:normal;font-size:133.33332825px;font-family:Catamaran;-inkscape-font-specification:Catamaran;fill:#324b56;fill-opacity:1"
         y="629.88959"
         x="730.45416"
         id="tspan852"
         sodipodi:role="line">Lease Everything</tspan></text>
  </g>
</svg>
