<svg id="图层_1" data-name="图层 1" xmlns="http://www.w3.org/2000/svg" xmlns:xlink="http://www.w3.org/1999/xlink" viewBox="0 0 883.75 753.71"><defs><style>.cls-1{fill:url(#未命名的渐变_15);}</style><linearGradient id="未命名的渐变_15" x1="600" y1="977.36" x2="600" y2="223.64" gradientUnits="userSpaceOnUse"><stop offset="0" stop-color="#9158e3"/><stop offset="1" stop-color="#d27de2"/></linearGradient></defs><title>TXT LOGO</title><path class="cls-1" d="M287.35,977.36a129.38,129.38,0,0,1-99.78-211.42L316.18,609.31c10.2-12.42,15-25.84,14-38.81-1-12.5-7.62-24.15-19.15-33.71l-105-83-.65-.53a128,128,0,0,1-32.43-39.87A129.44,129.44,0,0,1,324.12,229.19a127.88,127.88,0,0,1,44.81,23.54L550.59,392.47a45,45,0,1,1-54.85,71.31L313.57,323.65l-1.12-.89a39.43,39.43,0,0,0-50.31,60.73l105,83,.65.53c30.57,25.1,49,59.28,52,96.25,2.91,36.15-9.22,72.77-34.14,103.13L257.09,823a39.43,39.43,0,0,0,61,50.05L812.57,270.83a129.39,129.39,0,0,1,200,164.23L884,591.69c-19.83,24.14-16.47,55.16,8.15,75.5l99.83,80.29.36.29A129.39,129.39,0,0,1,828.55,948.16L649.3,808.34a45,45,0,0,1,55.34-70.94L884.28,877.53c.3.23.59.47.88.71a39.43,39.43,0,0,0,50.19-60.83l-99.81-80.27-.36-.29c-30.4-25-49.35-59.24-53.34-96.51-4-37.68,7.53-75.23,32.59-105.74L943,378a39.43,39.43,0,0,0-60.94-50.05L387.56,930.17a129.08,129.08,0,0,1-87.36,46.55Q293.77,977.37,287.35,977.36Z" transform="translate(-158.13 -223.64)"/></svg>