<svg id="Layer_1" data-name="Layer 1" xmlns="http://www.w3.org/2000/svg" xmlns:xlink="http://www.w3.org/1999/xlink" viewBox="0 0 254 240"><defs><style>.cls-1{fill:#fff;}.cls-2{fill:url(#linear-gradient);}.cls-3{fill:url(#linear-gradient-2);}.cls-4{fill:url(#linear-gradient-3);}.cls-5{fill:url(#linear-gradient-4);}.cls-6{fill:url(#linear-gradient-5);}.cls-7{fill:url(#linear-gradient-6);}.cls-8{fill:url(#linear-gradient-7);}.cls-9{fill:url(#linear-gradient-8);}.cls-10{fill:url(#linear-gradient-9);}.cls-11{fill:url(#linear-gradient-10);}.cls-12{fill:url(#linear-gradient-11);}.cls-13{fill:url(#linear-gradient-12);}.cls-14{fill:url(#linear-gradient-13);}.cls-15{fill:url(#linear-gradient-14);}.cls-16{fill:url(#linear-gradient-15);}.cls-17{fill:url(#linear-gradient-16);}.cls-18{fill:url(#linear-gradient-17);}.cls-19{fill:url(#linear-gradient-18);}.cls-20{fill:url(#linear-gradient-19);}.cls-21{fill:url(#linear-gradient-20);}.cls-22{fill:url(#linear-gradient-21);}.cls-23{fill:url(#linear-gradient-22);}.cls-24{fill:url(#linear-gradient-23);}</style><linearGradient id="linear-gradient" x1="76.9" y1="172.41" x2="197.55" y2="170.53" gradientUnits="userSpaceOnUse"><stop offset="0" stop-color="#17bac9"/><stop offset="1" stop-color="#0c75bc"/></linearGradient><linearGradient id="linear-gradient-2" x1="76.96" y1="176.73" x2="197.62" y2="174.85" xlink:href="#linear-gradient"/><linearGradient id="linear-gradient-3" x1="76.25" y1="173.07" x2="196.91" y2="171.18" xlink:href="#linear-gradient"/><linearGradient id="linear-gradient-4" x1="74.81" y1="177.11" x2="195.46" y2="175.22" xlink:href="#linear-gradient"/><linearGradient id="linear-gradient-5" x1="74.9" y1="173.64" x2="195.55" y2="171.76" xlink:href="#linear-gradient"/><linearGradient id="linear-gradient-6" x1="73.74" y1="174.25" x2="194.39" y2="172.37" xlink:href="#linear-gradient"/><linearGradient id="linear-gradient-7" x1="132.11" y1="127.25" x2="129.57" y2="145.27" gradientUnits="userSpaceOnUse"><stop offset="0" stop-color="#c01c74"/><stop offset="1" stop-color="#ed1c6e"/></linearGradient><linearGradient id="linear-gradient-8" x1="122.33" y1="125.87" x2="119.79" y2="143.89" xlink:href="#linear-gradient-7"/><linearGradient id="linear-gradient-9" x1="97.11" y1="70.28" x2="109.8" y2="54.29" xlink:href="#linear-gradient-7"/><linearGradient id="linear-gradient-10" x1="114.49" y1="57.46" x2="147.31" y2="49.08" xlink:href="#linear-gradient-7"/><linearGradient id="linear-gradient-11" x1="83.41" y1="136.84" x2="113.97" y2="136.84" xlink:href="#linear-gradient-7"/><linearGradient id="linear-gradient-12" x1="103.72" y1="138.33" x2="103.84" y2="142.53" xlink:href="#linear-gradient-7"/><linearGradient id="linear-gradient-13" x1="187.94" y1="136.84" x2="59.21" y2="136.84" gradientUnits="userSpaceOnUse"><stop offset="0" stop-color="#f37321"/><stop offset="1" stop-color="#fbce24"/></linearGradient><linearGradient id="linear-gradient-14" x1="126.59" y1="85.24" x2="123.1" y2="94.79" xlink:href="#linear-gradient-13"/><linearGradient id="linear-gradient-15" x1="106.32" y1="94.47" x2="116.64" y2="94.47" xlink:href="#linear-gradient-13"/><linearGradient id="linear-gradient-16" x1="104.16" y1="120" x2="116.61" y2="120" xlink:href="#linear-gradient-7"/><linearGradient id="linear-gradient-17" x1="103.42" y1="104.55" x2="111.3" y2="104.55" xlink:href="#linear-gradient-13"/><linearGradient id="linear-gradient-18" x1="136.57" y1="108.44" x2="147.94" y2="108.44" gradientUnits="userSpaceOnUse"><stop offset="0" stop-color="#3bc0c1"/><stop offset="1" stop-color="#0c96bf"/></linearGradient><linearGradient id="linear-gradient-19" x1="134.72" y1="91.93" x2="143.58" y2="91.93" xlink:href="#linear-gradient"/><linearGradient id="linear-gradient-20" x1="139.58" y1="128.3" x2="137.04" y2="146.32" xlink:href="#linear-gradient-18"/><linearGradient id="linear-gradient-21" x1="108.72" y1="77.69" x2="121.41" y2="61.7" xlink:href="#linear-gradient-13"/><linearGradient id="linear-gradient-22" x1="142.16" y1="65.42" x2="151.04" y2="42.58" xlink:href="#linear-gradient-7"/><linearGradient id="linear-gradient-23" x1="139.06" y1="75.37" x2="136.43" y2="108.29" xlink:href="#linear-gradient-13"/></defs><title>square</title><rect class="cls-1" width="254" height="240"/><path class="cls-2" d="M73.1,178.18c0,1.68.88,4.88,6.4,4.88,3,0,6.31-.72,6.31-3.92,0-2.36-2.27-3-5.47-3.75l-3.24-.76c-4.88-1.14-9.6-2.23-9.6-8.88,0-3.37,1.81-9.3,11.62-9.3,9.26,0,11.74,6.06,11.79,9.77H84.84c-0.17-1.35-.67-4.55-6.19-4.55-2.4,0-5.26.88-5.26,3.62,0,2.36,1.94,2.86,3.2,3.16L84,170.27c4.13,1,7.91,2.69,7.91,8.12,0,9.09-9.26,9.89-11.91,9.89-11,0-12.92-6.36-12.92-10.1H73.1Z"/><path class="cls-3" d="M118.35,187.48h-6.06l-3.49-16.33h-0.08l-3.49,16.33H99.15l-6.31-22.4h6.27l3.49,16.08h0.08l3.16-16.08h5.94l3.37,16.08h0.08l3.49-16.08h6.06Z"/><path class="cls-4" d="M133.31,162.44h-5.89V157h5.89v5.47Zm0,2.65v22.4h-5.89v-22.4h5.89Z"/><path class="cls-5" d="M137.4,165.09H143V169h0.08c1.22-2.27,2.57-4.46,6.15-4.46a10.32,10.32,0,0,1,1.14.08v6a11,11,0,0,0-1.68-.08c-4.59,0-5.43,2.86-5.43,5.35v11.66H137.4v-22.4Z"/><path class="cls-6" d="M159.39,187.48H153.5V157.26h5.89v30.23Z"/><path class="cls-7" d="M184.32,187.48h-5.77v-2.82h-0.08a7.11,7.11,0,0,1-6.48,3.41c-6.65,0-9.43-5.89-9.43-12,0-7.75,4.38-11.53,9.3-11.53a7.19,7.19,0,0,1,6.48,3.49h0.08V157.26h5.89v30.23Zm-10.86-4.25c3.75,0,5.22-3.12,5.22-6.44,0-3.58-1-7.2-5.05-7.2-3.75,0-5,3.33-5,6.86C168.62,179.11,169.67,183.23,173.46,183.23Z"/><path class="cls-8" d="M126.9,141.55h3.46a3.47,3.47,0,0,1-3,3.49l-0.48.12v3.53l0.77-.16a10.87,10.87,0,0,0,3.15-1.1,6.49,6.49,0,0,0,2.13-1.87,7.24,7.24,0,0,0,1.15-2.68,16.3,16.3,0,0,0,.33-3.46V134.2H126.9v7.34Z"/><path class="cls-9" d="M116.93,141.55h3.46a3.47,3.47,0,0,1-3,3.49l-0.48.12v3.53l0.77-.16a10.87,10.87,0,0,0,3.15-1.1,6.49,6.49,0,0,0,2.13-1.87,7.24,7.24,0,0,0,1.15-2.68,16.29,16.29,0,0,0,.33-3.46V134.2h-7.52v7.34Z"/><path class="cls-10" d="M104.14,55.9l0.26,0.19c2.62,1.94,6.15,3,10.48,3.11a105.73,105.73,0,0,1-10.74-9.11v5.8Z"/><path class="cls-11" d="M123.31,63.42v0.64h4.75V63.42c0-1,0-4.21,7.49-4.21,4.77,0,8.61-1.05,11.42-3.13l0.26-.19V50l-1,.76c-2.58,1.91-6.17,2.88-10.66,2.88-5,0-8.26,1.34-9.86,4-1.6-2.65-4.91-4-9.86-4-4.49,0-8.07-1-10.66-2.88l-1-.76V50.1a105.73,105.73,0,0,0,10.74,9.11h0.94C123.31,59.22,123.31,62.38,123.31,63.42Z"/><path class="cls-12" d="M83.41,134.2v5.28h10A160.76,160.76,0,0,0,114,134.35V134.2H83.41Z"/><path class="cls-13" d="M114,139.48v-5.13a160.76,160.76,0,0,1-20.58,5.13H114Z"/><rect class="cls-14" x="137.39" y="134.2" width="30.56" height="5.28"/><polygon class="cls-15" points="125.54 95.08 133.25 87.73 129.12 85.29 125.61 88.89 122.3 85.29 118.13 87.72 125.54 95.08"/><path class="cls-16" d="M112,98.05a38.56,38.56,0,0,1,4-9.25l0.58-1H111l-0.19.22a29.27,29.27,0,0,0-4.44,6.64,79.26,79.26,0,0,1,5,6.42C111.5,100.08,111.73,99.06,112,98.05Z"/><path class="cls-17" d="M105.3,118.4a31.53,31.53,0,0,0,5.45,9.57l0.19,0.23h5.67l-0.55-1a41.84,41.84,0,0,1-4-9.66,38.09,38.09,0,0,1-1.11-5.79c-2.31,1-4.57,1.82-6.76,2.6A32.57,32.57,0,0,0,105.3,118.4Z"/><path class="cls-18" d="M111.3,101.11a79.26,79.26,0,0,0-5-6.42,26.9,26.9,0,0,0-1.11,2.66,30.59,30.59,0,0,0-1.79,10.29,31.69,31.69,0,0,0,.73,6.76c2.19-.78,4.45-1.65,6.76-2.6a36.34,36.34,0,0,1-.23-4.07A35.47,35.47,0,0,1,111.3,101.11Z"/><path class="cls-19" d="M147.94,107.64a30.58,30.58,0,0,0-1.79-10.29,27.38,27.38,0,0,0-2.57-5.3q-2.41,2.08-4.89,4c0.24,0.68.46,1.36,0.65,2a35.45,35.45,0,0,1,1.34,9.67,37.4,37.4,0,0,1-1.35,9.86,40.87,40.87,0,0,1-2.77,7.25q4.65-2.49,9.1-5.4c0.14-.34.27-0.69,0.39-1A32,32,0,0,0,147.94,107.64Z"/><path class="cls-20" d="M140.6,88.05l-0.19-.22h-5.69l0.58,1A39.4,39.4,0,0,1,138.69,96q2.48-1.89,4.89-4A30.24,30.24,0,0,0,140.6,88.05Z"/><path class="cls-21" d="M135.29,127.24l-0.55,1h5.67l0.19-.23a31.53,31.53,0,0,0,5.06-8.54q-4.43,2.92-9.1,5.4Q136,126,135.29,127.24Z"/><path class="cls-22" d="M112.13,62a10.9,10.9,0,0,0-8.22,3.38,11.71,11.71,0,0,0-3,8.05c0,6.65,4.72,11.47,11.21,11.47S123.35,80,123.35,73.4a11.71,11.71,0,0,0-3-8.05A10.9,10.9,0,0,0,112.13,62Zm0,17.65c-3.63,0-5.28-3.22-5.28-6.22s1.65-6.18,5.28-6.18,5.28,3.1,5.28,6.18S115.78,79.62,112.13,79.62Z"/><path class="cls-23" d="M147.45,65.34a11.69,11.69,0,0,0-16.44,0,10.78,10.78,0,0,0-2,3.11q2.61,1.27,5.38,2.37a5,5,0,0,1,4.85-3.61c3.65,0,5.28,3.1,5.28,6.18,0,0.22,0,.44,0,0.66q2.85,0.69,5.84,1.16a13.42,13.42,0,0,0,.12-1.81A11.71,11.71,0,0,0,147.45,65.34Z"/><path class="cls-24" d="M139.23,79.62c-3.63,0-5.28-3.22-5.28-6.22a7.82,7.82,0,0,1,.43-2.57q-2.77-1.1-5.38-2.37a12.53,12.53,0,0,0-1,4.94c0,6.65,4.72,11.47,11.21,11.47a10.86,10.86,0,0,0,11.09-9.66q-3-.46-5.84-1.16C144.27,76.92,142.62,79.62,139.23,79.62Z"/></svg>