<?xml version="1.0" encoding="utf-8"?>
<!-- Generator: Adobe Illustrator 22.0.2, SVG Export Plug-In . SVG Version: 6.00 Build 0)  -->
<svg version="1.1" id="图层_1" xmlns="http://www.w3.org/2000/svg" xmlns:xlink="http://www.w3.org/1999/xlink" x="0px" y="0px"
	 viewBox="0 0 1000 1000" style="enable-background:new 0 0 1000 1000;" xml:space="preserve">
<style type="text/css">
	.st0{fill:#53B236;}
	.st1{opacity:0.6;}
	.st2{fill:#231815;}
	.st3{fill:#FFFFFF;}
</style>
<rect class="st0" width="1000" height="1000"/>
<g>
	<g id="XMLID_1_">
		<g class="st1">
			<path id="XMLID_306_" class="st2" d="M433.1,162.3L391,120.2l43.8-43.8c47-47,123.4-47,170.4,0c47,47,47,123.4,0,170.4
				l-42.1-42.1c23.8-23.8,23.8-62.4,0-86.2c-23.8-23.8-62.4-23.8-86.2,0L433.1,162.3z"/>
			<polygon id="XMLID_305_" class="st2" points="499.9,267.8 371.6,139.5 329.5,181.6 499.9,352 528.4,323.5 542,309.9 585.8,266.1 
				543.7,224 			"/>
			<path id="XMLID_304_" class="st2" d="M566.7,602.3l42.1,42.1L565,688.2c-47,47-123.4,47-170.4,0c-47-47-47-123.4,0-170.4
				l42.1,42.1c-23.8,23.8-23.8,62.4,0,86.2c23.8,23.8,62.4,23.8,86.2,0L566.7,602.3z"/>
			<polygon id="XMLID_303_" class="st2" points="499.9,496.7 628.2,625 670.3,582.9 499.9,412.5 471.4,441.1 457.8,454.6 414,498.4 
				456.1,540.5 			"/>
			<path id="XMLID_302_" class="st2" d="M719.9,315.5l42.1-42.1l43.8,43.8c47,47,47,123.4,0,170.4c-47,47-123.4,47-170.4,0
				l42.1-42.1c23.8,23.8,62.4,23.8,86.2,0c23.8-23.8,23.8-62.4,0-86.2L719.9,315.5z"/>
			<polygon id="XMLID_301_" class="st2" points="614.4,382.3 742.6,254 700.6,211.9 530.2,382.3 558.7,410.8 572.3,424.4 
				616.1,468.2 658.2,426.1 			"/>
			<path id="XMLID_300_" class="st2" d="M279.9,449.1l-42.1,42.1L194,447.4c-47-47-47-123.4,0-170.4c47-47,123.4-47,170.4,0
				l-42.1,42.1c-23.8-23.8-62.4-23.8-86.2,0c-23.8,23.8-23.8,62.4,0,86.2L279.9,449.1z"/>
			<polygon id="XMLID_299_" class="st2" points="385.4,382.3 257.2,510.6 299.2,552.7 469.6,382.3 441.1,353.8 427.5,340.2 
				383.7,296.4 341.6,338.5 			"/>
		</g>
		<g>
			<g>
				<g id="XMLID_271_">
					<g id="XMLID_273_">
						<path id="XMLID_274_" class="st3" d="M433.2,162.2l-42.1-42.1l43.8-43.8c47-47,123.4-47,170.4,0c47,47,47,123.4,0,170.4
							l-42.1-42.1c23.8-23.8,23.8-62.4,0-86.2c-23.8-23.8-62.4-23.8-86.2,0L433.2,162.2z"/>
					</g>
					<polygon id="XMLID_272_" class="st3" points="500,267.7 371.7,139.4 329.6,181.5 500,351.9 528.5,323.4 542.1,309.8 585.9,266 
						543.8,223.9 					"/>
				</g>
				<g id="XMLID_267_">
					<g id="XMLID_269_">
						<path id="XMLID_270_" class="st3" d="M566.8,602.2l42.1,42.1l-43.8,43.8c-47,47-123.4,47-170.4,0c-47-47-47-123.4,0-170.4
							l42.1,42.1c-23.8,23.8-23.8,62.4,0,86.2c23.8,23.8,62.4,23.8,86.2,0L566.8,602.2z"/>
					</g>
					<polygon id="XMLID_268_" class="st3" points="500,496.6 628.3,624.9 670.4,582.8 500,412.4 471.5,441 457.9,454.5 414.1,498.3 
						456.2,540.4 					"/>
				</g>
				<g id="XMLID_263_">
					<g id="XMLID_265_">
						<path id="XMLID_266_" class="st3" d="M720,315.4l42.1-42.1l43.8,43.8c47,47,47,123.4,0,170.4c-47,47-123.4,47-170.4,0
							l42.1-42.1c23.8,23.8,62.4,23.8,86.2,0c23.8-23.8,23.8-62.4,0-86.2L720,315.4z"/>
					</g>
					<polygon id="XMLID_264_" class="st3" points="614.5,382.2 742.7,253.9 700.7,211.8 530.3,382.2 558.8,410.7 572.4,424.3 
						616.2,468.1 658.3,426 					"/>
				</g>
				<g id="XMLID_259_">
					<g id="XMLID_261_">
						<path id="XMLID_262_" class="st3" d="M280,449l-42.1,42.1l-43.8-43.8c-47-47-47-123.4,0-170.4c47-47,123.4-47,170.4,0
							L322.4,319c-23.8-23.8-62.4-23.8-86.2,0c-23.8,23.8-23.8,62.4,0,86.2L280,449z"/>
					</g>
					<polygon id="XMLID_260_" class="st3" points="385.5,382.2 257.3,510.5 299.3,552.6 469.7,382.2 441.2,353.7 427.6,340.1 
						383.8,296.3 341.7,338.4 					"/>
				</g>
			</g>
		</g>
	</g>
	<g id="XMLID_18_">
		<g class="st1">
			<path id="XMLID_534_" class="st2" d="M733.3,888.7h-5.5c-21,0-38.1-17.1-38.1-38.1v-20.2c0-21,17.1-38.1,38.1-38.1h5.5
				c21,0,37.1,17.1,37.1,38.1v20.2C770.5,871.6,754.4,888.7,733.3,888.7z M727.9,821.3c-5,0-9.1,4.1-9.1,9.1v20.2c0,5,4,9,9,9h5.5
				c5,0,9.1-4.1,9.1-9.1v-20.2c0-5-4.1-9.1-9.1-9.1H727.9z"/>
			<polygon id="XMLID_533_" class="st2" points="154.1,888.4 86.5,888.4 86.5,752.4 115.6,752.4 115.6,859.4 154.1,859.4 			"/>
			<polygon id="XMLID_532_" class="st2" points="420.2,888.9 372.4,840.1 419.5,792 461,792 413.6,840.1 461.9,888.9 			"/>
			<path id="XMLID_531_" class="st2" d="M242.5,888.4h-43.7c-21,0-38.1-17.1-38.1-38.1v-58.1h29.1v58.1c0,5,4,9,9,9h14.6v-67.1h29.1
				V888.4z"/>
			<path id="XMLID_530_" class="st2" d="M913.3,888.1h-29.1V821h-14.6c-5,0-9,4-9,9v58.1h-29.1V830c0-21,17.1-38.1,38.1-38.1h43.7
				V888.1z"/>
			<path id="XMLID_529_" class="st2" d="M500.8,959.1h-22V930h22c10.8,0,19.6-8.8,19.6-19.6v-22h-14.6c-21,0-38.1-17.1-38.1-38.1
				v-58.1h29.1v58.1c0,5,4,9,9,9h14.6v-67.1h29.1v118.2C549.4,937.3,527.6,959.1,500.8,959.1z"/>
			<path id="XMLID_528_" class="st2" d="M330.7,888.4h-26.3c-26.6,0-48.2-21.6-48.2-48.2l0,0c0-26.6,21.6-48.2,48.2-48.2h26.2V821
				h-26.2c-10.6,0-19.2,8.6-19.2,19.2l0,0c0,10.6,8.6,19.2,19.2,19.2h26.3V888.4z"/>
			<path id="XMLID_527_" class="st2" d="M675.2,888.4h-14.5c-37.6,0-68.1-30.5-68.1-68.1v0c0-37.6,30.5-68.1,68.1-68.1h14.5v29.1
				h-14.5c-21.6,0-39.1,17.5-39.1,39.1l0,0c0,21.6,17.5,39.1,39.1,39.1h14.5V888.4z"/>
			<rect id="XMLID_526_" x="343.4" y="752.4" class="st2" width="29.1" height="136.1"/>
			<rect id="XMLID_525_" x="786.1" y="791.4" class="st2" width="29.1" height="97.2"/>
			<rect id="XMLID_524_" x="786.1" y="751.6" class="st2" width="29.1" height="28.7"/>
		</g>
		<g>
			<g>
				<g id="XMLID_473_">
					<path id="XMLID_474_" class="st3" d="M733.4,888.6h-5.5c-21,0-38.1-17.1-38.1-38.1v-20.2c0-21,17.1-38.1,38.1-38.1h5.5
						c21,0,37.1,17.1,37.1,38.1v20.2C770.6,871.5,754.5,888.6,733.4,888.6z M728,821.2c-5,0-9.1,4.1-9.1,9.1v20.2c0,5,4,9,9,9h5.5
						c5,0,9.1-4.1,9.1-9.1v-20.2c0-5-4.1-9.1-9.1-9.1H728z"/>
				</g>
				<g id="XMLID_470_">
					<g id="XMLID_471_">
						<polygon id="XMLID_472_" class="st3" points="154.2,888.3 86.6,888.3 86.6,752.3 115.7,752.3 115.7,859.3 154.2,859.3 						
							"/>
					</g>
				</g>
				<g id="XMLID_467_">
					<g id="XMLID_468_">
						<polygon id="XMLID_469_" class="st3" points="420.3,888.8 372.5,840 419.6,791.9 461.1,791.9 413.7,840 462,888.8 						"/>
					</g>
				</g>
				<g id="XMLID_464_">
					<g id="XMLID_465_">
						<path id="XMLID_466_" class="st3" d="M242.6,888.3H199c-21,0-38.1-17.1-38.1-38.1v-58.1H190v58.1c0,5,4,9,9,9h14.6v-67.1h29.1
							V888.3z"/>
					</g>
				</g>
				<g id="XMLID_461_">
					<g id="XMLID_462_">
						<path id="XMLID_463_" class="st3" d="M913.4,888h-29.1v-67.1h-14.6c-5,0-9,4-9,9V888h-29.1v-58.1c0-21,17.1-38.1,38.1-38.1
							h43.7V888z"/>
					</g>
				</g>
				<g id="XMLID_458_">
					<g id="XMLID_459_">
						<path id="XMLID_460_" class="st3" d="M500.9,959h-22v-29.1h22c10.8,0,19.6-8.8,19.6-19.6v-22h-14.6c-21,0-38.1-17.1-38.1-38.1
							v-58.1h29.1v58.1c0,5,4,9,9,9h14.6v-67.1h29.1v118.2C549.5,937.2,527.7,959,500.9,959z"/>
					</g>
				</g>
				<g id="XMLID_455_">
					<g id="XMLID_456_">
						<path id="XMLID_457_" class="st3" d="M330.8,888.3h-26.3c-26.6,0-48.2-21.6-48.2-48.2l0,0c0-26.6,21.6-48.2,48.2-48.2h26.2
							v29.1h-26.2c-10.6,0-19.2,8.6-19.2,19.2l0,0c0,10.6,8.6,19.2,19.2,19.2h26.3V888.3z"/>
					</g>
				</g>
				<g id="XMLID_452_">
					<g id="XMLID_453_">
						<path id="XMLID_454_" class="st3" d="M675.3,888.3h-14.5c-37.6,0-68.1-30.5-68.1-68.1v0c0-37.6,30.5-68.1,68.1-68.1h14.5v29.1
							h-14.5c-21.6,0-39.1,17.5-39.1,39.1l0,0c0,21.6,17.5,39.1,39.1,39.1h14.5V888.3z"/>
					</g>
				</g>
				<g id="XMLID_449_">
					<g id="XMLID_450_">
						<rect id="XMLID_451_" x="343.5" y="752.3" class="st3" width="29.1" height="136.1"/>
					</g>
				</g>
				<g id="XMLID_446_">
					<g id="XMLID_447_">
						<rect id="XMLID_448_" x="786.2" y="791.3" class="st3" width="29.1" height="97.2"/>
					</g>
				</g>
				<g id="XMLID_443_">
					<g id="XMLID_444_">
						<rect id="XMLID_445_" x="786.2" y="751.5" class="st3" width="29.1" height="28.7"/>
					</g>
				</g>
			</g>
		</g>
	</g>
</g>
</svg>
