<?xml version="1.0" encoding="UTF-8"?>
<!DOCTYPE svg PUBLIC "-//W3C//DTD SVG 1.1//EN"
  "http://www.w3.org/Graphics/SVG/1.1/DTD/svg11.dtd">
<!-- Created with Inkpad (http://www.taptrix.com/) --><svg xmlns:inkpad="http://taptrix.com/inkpad/svg_extensions" height="726pt" xmlns:xlink="http://www.w3.org/1999/xlink" xmlns="http://www.w3.org/2000/svg" width="940pt" version="1.1" viewBox="0,0,940,726">
<defs/>
<g id="Untitled" inkpad:layerName="Untitled">
<g opacity="1">
<path d="M172.406+24.1749L173.091+24.2251L173.725+24.2251L174.356+24.3224L174.944+24.3727L175.528+24.47L176.065+24.5674L176.505+24.6647L178.992+25.2016L181.432+25.7417L183.822+26.2786L186.164+26.8187L188.407+27.4059L190.652+27.9428L192.847+28.53L194.992+29.1173L197.14+29.7547L199.188+30.3418L201.235+30.9761L203.236+31.6135L205.189+32.2478L207.139+32.9323L209.042+33.6168L210.895+34.3045L212.748+34.989L214.554+35.7238L216.309+36.4554L218.065+37.2404L219.823+37.972L221.529+38.8041L223.237+39.586L224.895+40.4181L226.553+41.3005L228.212+42.1325L229.823+43.0619L231.434+43.9411L233.042+44.9208L234.653+45.8502L236.213+46.8268L237.821+47.8567L239.385+48.8835L240.946+49.9606L242.507+51.0344L244.068+52.1115L245.628+53.2858L247.189+54.4131L248.75+55.6345L250.311+56.8591L252.019+58.1308L253.724+59.3052L255.335+60.4795L256.994+61.5534L258.652+62.5833L260.31+63.5599L262.069+64.4893L263.921+65.3717L265.872+66.2038L267.922+66.9856L270.117+67.7203L272.507+68.452L275.042+69.0894L277.824+69.7268L280.848+70.2638L284.117+70.8007L287.628+71.3408L291.482+71.7804L295.63+72.22L300.118+72.6596L304.995+73.0521L310.265+73.3943L315.873+73.7366L321.972+74.0318L328.507+74.3238L335.482+74.5687L342.997+74.8639L350.996+75.0585L359.532+75.3035L368.655+75.4982L378.315+75.696L388.606+75.8907L399.484+76.0853L411.047+76.233L423.241+76.4276L436.12+76.5752L449.731+76.7699L464.073+76.9174L479.144+77.1122L495+77.2597L510.756+77.4544L525.779+77.6019L540.024+77.7966L553.538+77.9442L566.416+78.0918L578.564+78.2865L590.076+78.4341L601.002+78.6287L611.246+78.8266L620.953+79.0212L630.076+79.2159L638.662+79.4608L646.711+79.7058L654.273+79.9507L661.345+80.1956L667.978+80.4876L674.174+80.7828L679.93+81.125L685.297+81.5175L690.272+81.8598L694.954+82.2994L699.247+82.739L703.298+83.1786L707.004+83.7186L710.468+84.2556L713.687+84.8428L716.664+85.43L719.443+86.1145L722.078+86.799L724.518+87.5338L726.858+88.3188L729.053+89.1477L731.151+90.0301L733.201+90.9595L735.202+91.9392L737.152+92.966L739.102+94.043L741.103+95.2142L743.103+96.4389L745.151+97.6634L746.322+98.4453L747.544+99.2774L748.762+100.157L749.981+101.039L751.202+101.968L752.468+102.945L753.737+103.975L755.005+105.002L756.274+106.028L757.59+107.153L758.859+108.229L760.178+109.404L761.446+110.528L762.762+111.753L764.078+112.927L765.347+114.148L766.666+115.373L767.934+116.645L769.25+117.916L770.519+119.188L771.788+120.46L773.006+121.735L774.225+123.053L775.494+124.375L776.665+125.697L777.883+126.969L779.055+128.291L780.176+129.61L781.3+130.932L782.421+132.254L783.495+133.525L784.519+134.844L785.543+136.119L786.52+137.391L787.493+138.662L788.423+139.934L789.299+141.156L790.178+142.38L791.007+143.602L791.786+144.776L793.008+146.88L794.226+148.886L795.347+150.846L796.421+152.802L797.445+154.758L798.422+156.667L799.301+158.674L800.177+160.727L801.006+162.831L801.788+165.032L802.47+167.331L803.154+169.78L803.789+172.37L804.373+175.112L804.91+178.094L805.447+181.228L805.887+184.651L806.323+188.271L806.763+192.234L807.105+196.442L807.447+200.944L807.739+205.786L808.031+210.973L808.276+216.55L808.471+222.472L808.666+228.831L808.861+235.632L809.008+242.873L809.153+250.553L809.25+258.723L809.347+267.434L809.398+276.681L809.495+286.418L809.545+296.739L809.545+307.651L809.592+319.197L809.592+331.33L809.642+344.1L809.642+357.555L809.642+371.694L809.642+388.035L809.642+403.543L809.592+418.223L809.592+432.168L809.495+445.374L809.398+457.9L809.3+469.691L809.153+480.847L808.911+491.316L808.666+501.201L808.324+510.495L807.934+519.205L807.495+527.376L806.957+535.009L806.323+542.199L805.591+548.853L804.813+555.117L803.886+560.889L802.909+566.321L801.788+571.361L800.52+576.055L799.154+580.41L797.69+584.47L796.032+588.238L794.276+591.761L792.373+595.09L790.275+598.17L788.03+601.106L785.64+603.847L783.103+606.488L780.323+608.984L777.397+611.43L774.322+613.826L771.006+616.128L767.495+618.473L763.786+620.822L759.835+623.221L755.69+625.667L751.3+628.21L746.711+630.854L744.516+632.076L742.419+633.3L740.324+634.475L738.273+635.549L736.226+636.578L734.128+637.555L731.933+638.484L729.738+639.367L727.395+640.149L724.908+640.93L722.323+641.665L719.541+642.35L716.567+642.987L713.348+643.574L709.931+644.162L706.225+644.651L702.271+645.138L697.982+645.581L693.346+645.97L688.369+646.363L683.005+646.705L677.198+646.997L671.005+647.242L664.37+647.537L657.247+647.732L649.638+647.93L641.539+648.124L632.855+648.272L623.588+648.369L613.784+648.514L603.345+648.614L592.221+648.661L580.514+648.759L568.075+648.809L554.951+648.809L541.099+648.859L526.511+648.859L511.098+648.906L494.95+648.906L477.926+648.906L238.653+648.906L238.653+250.798L187.383+236.659L185.285+236.072L183.187+235.437L181.042+234.8L178.894+234.115L176.749+233.431L174.601+232.746L172.406+232.011L170.261+231.277L168.113+230.495L165.968+229.76L163.773+228.978L161.625+228.146L159.527+227.314L157.382+226.532L155.285+225.65L153.187+224.821L151.139+223.989L149.089+223.106L147.041+222.227L145.088+221.345L143.087+220.466L141.187+219.583L139.284+218.654L137.381+217.775L135.575+216.892L133.773+215.963L132.064+215.084L130.356+214.154L128.698+213.272L127.09+212.393L125.576+211.463L124.063+210.581L122.649+209.702L121.233+208.819L119.917+207.94L118.699+207.061L117.527+206.229L116.406+205.347L115.332+204.514L114.406+203.682L110.113+199.867L106.065+195.854L102.356+191.697L98.892+187.342L95.673+182.842L92.7933+178.195L90.1114+173.4L87.7215+168.505L85.6237+163.516L83.7708+158.429L82.1598+153.292L80.7937+148.054L79.7228+142.82L78.8906+137.488L78.3065+132.153L77.9642+126.821L77.9171+121.49L78.0615+116.155L78.5012+110.873L79.1356+105.636L80.0149+100.452L81.136+95.3147L82.5021+90.275L84.1131+85.2824L85.966+80.4406L88.0136+75.7431L90.3061+71.143L92.8435+66.6936L95.5757+62.3856L98.5497+58.2784L101.721+54.3126L105.135+50.5948L108.747+47.0717L112.6+43.7465L116.648+40.7133L120.894+37.8747L125.381+35.3313L130.064+33.0328L134.941+31.0734L140.016+29.3622L141.09+29.0669L142.114+28.775L143.188+28.53L144.259+28.2381L145.333+27.9931L146.407+27.698L147.528+27.4531L148.602+27.2081L149.676+26.9632L150.747+26.7685L151.821+26.5236L152.895+26.3289L153.966+26.1342L155.04+25.9364L156.063+25.7417L157.137+25.547L158.161+25.3994L159.188+25.2519L160.212+25.1043L161.185+24.9599L162.162+24.8123L163.139+24.7149L164.065+24.6176L165.042+24.5172L165.918+24.4198L166.844+24.3727L167.674+24.2722L168.553+24.2251L169.382+24.2251L170.164+24.1749L170.943+24.1749L171.674+24.1749L172.406+24.1749ZM462.365+272.034L460.804+272.034L459.29+272.081L457.73+272.081L456.219+272.131L454.705+272.178L453.242+272.279L451.778+272.326L450.315+272.423L448.852+272.473L447.486+272.571L446.072+272.668L444.706+272.816L443.387+272.913L442.071+273.01L440.803+273.158L439.534+273.306L438.315+273.403L437.144+273.551L436.023+273.695L434.902+273.893L433.828+274.037L432.804+274.185L431.777+274.383L430.851+274.527L429.924+274.725L429.048+274.92L428.266+275.114L427.487+275.312L426.756+275.507L426.121+275.701L425.487+275.946L424.95+276.141L424.413+276.339L423.973+276.584L423.584+276.778L423.241+277.023L422.996+277.268L422.755+277.513L422.56+277.758L422.315+278.295L422.07+278.98L421.875+279.909L421.634+280.986L421.436+282.308L421.241+283.825L420.999+285.489L420.801+287.348L420.607+289.401L420.412+291.602L420.217+294.001L420.07+296.545L419.875+299.283L419.68+302.121L419.536+305.155L419.338+308.285L419.193+311.614L419.046+315.039L418.901+318.609L418.754+322.327L418.606+326.146L418.462+330.108L418.364+334.118L418.267+338.326L418.119+342.583L418.022+346.939L417.925+351.438L417.827+355.988L417.73+360.638L417.68+365.383L417.633+370.178L417.535+375.07L417.485+380.012L417.438+385.052L417.388+390.139L417.388+395.276L417.341+400.463L417.341+405.697L417.341+410.982L417.341+538.972L454.608+562.503L456.122+563.482L457.683+564.412L459.193+565.341L460.707+566.224L462.217+567.153L463.731+568.032L465.194+568.915L466.705+569.794L468.168+570.673L469.682+571.505L471.145+572.337L472.559+573.169L474.022+573.951L475.438+574.736L476.805+575.518L478.171+576.253L479.537+576.984L480.903+577.672L482.171+578.357L483.487+578.991L484.706+579.628L485.927+580.263L487.146+580.85L488.317+581.39L489.438+581.927L490.512+582.467L491.583+582.906L492.61+583.346L493.584+583.786L494.51+584.178L495.39+584.52L496.219+584.812L497.048+585.108L497.779+585.353L498.511+585.597L499.145+585.745L499.78+585.889L500.317+585.987L500.804+586.037L501.243+586.087L501.73+586.037L502.267+585.889L502.757+585.645L503.193+585.302L503.633+584.863L504.073+584.326L504.512+583.641L504.902+582.856L505.291+581.977L505.634+580.997L505.976+579.873L506.318+578.649L506.657+577.33L506.953+575.813L507.245+574.246L507.537+572.535L507.782+570.673L508.074+568.67L508.316+566.566L508.513+564.264L508.708+561.916L508.95+559.372L509.097+556.681L509.292+553.843L509.44+550.86L509.584+547.776L509.732+544.498L509.879+541.075L509.977+537.502L510.074+533.734L510.172+529.822L510.269+525.762L510.316+521.554L510.413+517.149L510.464+512.599L510.464+507.854L510.511+502.962L510.561+497.872L510.561+492.591L510.561+487.158L510.561+482.951L510.611+478.841L510.611+474.73L510.658+470.623L510.756+466.61L510.806+462.597L510.903+458.635L511.001+454.722L511.098+450.857L511.242+447.039L511.39+443.274L511.538+439.553L511.682+435.932L511.83+432.362L512.024+428.839L512.219+425.413L512.414+422.038L512.659+418.76L512.853+415.579L513.098+412.448L513.34+409.415L513.585+406.479L513.83+403.644L514.072+400.852L514.367+398.212L514.609+395.668L514.901+393.222L515.196+390.873L515.488+388.672L515.78+386.569L516.123+384.562L516.415+382.703L516.757+380.942L517.049+379.328L517.391+377.858L517.73+376.489L518.073+375.265L518.415+374.191L518.757+373.261L519.097+372.526L519.926+371.01L520.902+369.54L521.976+368.074L523.148+366.655L524.464+365.188L525.83+363.769L527.343+362.35L528.951+360.93L530.609+359.561L532.415+358.189L534.221+356.87L536.124+355.548L538.121+354.277L540.122+353.052L542.22+351.831L544.368+350.656L546.513+349.532L548.708+348.455L550.953+347.378L553.195+346.399L555.441+345.469L557.733+344.54L560.026+343.708L562.268+342.926L564.564+342.191L566.806+341.557L569.051+340.969L571.247+340.429L573.442+339.99L575.587+339.6L577.684+339.305L579.732+339.06L581.732+338.913L583.686+338.815L585.539+338.866L587.344+338.963L589.05+339.158L590.708+339.453L592.221+339.842L593.685+340.332L596.514+341.359L599.247+342.389L601.831+343.416L604.271+344.442L606.611+345.519L608.806+346.596L610.904+347.721L612.857+348.945L614.757+350.167L616.516+351.536L618.174+352.955L619.684+354.471L621.148+356.085L622.514+357.847L623.783+359.756L624.954+361.81L626.028+364.014L627.052+366.41L627.978+368.953L628.807+371.694L629.589+374.677L630.321+377.858L630.955+381.284L631.539+384.904L632.077+388.817L632.516+392.977L632.953+397.43L633.295+402.174L633.587+407.164L633.882+412.546L634.124+418.173L634.319+424.192L634.466+430.503L634.564+437.204L634.661+444.301L634.758+451.736L634.809+459.564L634.809+467.832L634.856+476.492L634.856+485.592L634.856+601.79L728.079+601.79L728.079+493.42L727.982+484.417L727.932+475.66L727.784+467.245L727.64+459.124L727.492+451.344L727.297+443.761L727.103+436.52L726.858+429.524L726.566+422.773L726.274+416.314L725.931+410.053L725.542+404.083L725.152+398.309L724.663+392.83L724.226+387.498L723.689+382.408L723.102+377.516L722.518+372.869L721.883+368.366L721.152+364.061L720.42+359.951L719.638+355.988L718.809+352.223L717.933+348.603L717.006+345.127L716.03+341.802L715.006+338.571L713.932+335.537L712.76+332.601L711.589+329.766L710.323+327.075L709.005+324.481L707.638+321.985L706.175+319.539L704.712+317.241L703.151+314.942L701.493+312.788L699.784+310.634L698.029+308.58L696.223+306.527L693.393+303.688L690.419+300.947L687.248+298.306L683.978+295.86L680.565+293.512L677.004+291.31L673.298+289.254L669.492+287.348L665.588+285.586L661.59+283.922L657.492+282.405L653.296+281.036L649.051+279.812L644.711+278.735L640.32+277.758L635.88+276.973L631.392+276.289L626.857+275.752L622.319+275.359L617.784+275.114L613.196+275.017L608.611+275.067L604.026+275.262L599.441+275.554L594.903+276.044L590.416+276.631L585.928+277.366L581.491+278.295L577.1+279.322L572.757+280.496L568.514+281.818L564.366+283.284L560.271+284.902L556.27+286.66L552.366+288.569L548.563+290.626L544.905+292.777L541.343+295.126L537.927+297.622L534.66+300.263L532.513+302.024L530.512+303.735L528.609+305.302L526.756+306.819L525.001+308.188L523.342+309.51L521.782+310.734L520.268+311.859L518.855+312.838L517.536+313.768L516.267+314.597L515.099+315.331L513.975+315.969L512.904+316.506L511.927+316.945L511.001+317.241L510.172+317.485L509.342+317.633L508.611+317.68L507.926+317.633L507.292+317.485L506.708+317.241L506.221+316.898L505.731+316.408L505.291+315.871L504.902+315.234L504.56+314.499L504.22+313.62L503.976+312.691L503.731+311.614L503.536+310.489L503.341+309.215L503.193+307.896L503.096+306.426L502.999+304.863L502.901+303.198L502.854+301.437L502.804+299.578L502.804+297.622L502.804+295.565L502.804+293.904L502.757+292.287L502.757+290.77L502.757+289.351L502.707+287.982L502.609+286.71L502.512+285.489L502.415+284.362L502.267+283.284L502.123+282.258L501.878+281.328L501.633+280.399L501.341+279.567L500.998+278.832L500.609+278.1L500.169+277.416L499.683+276.829L499.145+276.242L498.511+275.701L497.83+275.212L497.098+274.822L496.269+274.383L495.39+274.037L494.413+273.745L493.342+273.453L492.218+273.208L490.999+272.963L489.683+272.766L488.267+272.621L486.757+272.473L485.098+272.376L483.39+272.279L481.584+272.178L479.634+272.131L477.583+272.081L475.438+272.034L473.146+272.034L470.706+271.984L468.168+271.984L465.486+271.984L463.926+271.984L462.365+272.034ZM320.213+483.978L361.388+507.559L401.827+531.093L401.827+271.984L315.581+271.984L320.213+483.978ZM166.895+61.0667L165.089+61.2111L163.283+61.4561L161.481+61.7512L159.675+62.0935L157.869+62.5331L156.114+63.023L154.308+63.6101L152.502+64.2444L150.7+64.932L148.894+65.714L147.088+66.546L145.286+67.4252L143.43+68.4049L141.577+69.4317L137.381+71.928L133.477+74.5687L129.869+77.3099L126.503+80.1453L123.381+83.0813L120.551+86.0674L117.967+89.1477L115.624+92.3285L113.577+95.5597L111.821+98.8378L110.257+102.213L108.992+105.589L107.965+109.062L107.186+112.534L106.699+116.058L106.404+119.631L106.404+123.251L106.649+126.821L107.136+130.442L107.867+134.113L108.844+137.733L110.062+141.353L111.576+145.021L113.285+148.594L115.235+152.215L117.43+155.785L119.87+159.358L122.502+162.881L125.429+166.354L128.553+169.78L131.967+173.155L135.575+176.481L139.381+179.759L143.48+182.99L147.773+186.12L152.307+189.154L157.04+192.137L162.015+195.025L167.237+197.861L172.651+200.552L176.991+202.558L181.089+204.417L185.04+206.179L188.796+207.843L192.408+209.359L195.821+210.779L199.04+212L202.115+213.175L205.041+214.154L207.774+215.033L210.358+215.768L212.845+216.305L215.138+216.748L217.333+217.09L219.334+217.235L221.287+217.235L223.042+217.04L224.701+216.748L226.261+216.305L227.678+215.671L229.041+214.889L230.262+213.909L231.383+212.785L232.457+211.51L233.384+210.044L234.263+208.43L235.042+206.618L235.774+204.612L236.408+202.461L236.992+200.112L237.529+197.569L237.969+194.828L238.358+191.942L238.751+188.811L239.09+185.533L239.385+182.01L239.627+178.292L239.822+174.427L240.067+170.317L240.214+166.012L242.554+114.933L272.068+138.515L273.481+139.739L274.8+140.961L276.116+142.186L277.435+143.407L278.653+144.632L279.872+145.806L281.093+147.027L282.214+148.202L283.335+149.376L284.409+150.55L285.484+151.725L286.507+152.899L287.484+154.074L288.457+155.198L289.384+156.372L290.263+157.499L291.092+158.623L291.921+159.748L292.703+160.875L293.435+161.949L294.167+163.076L294.848+164.153L295.483+165.227L296.067+166.304L296.654+167.381L297.191+168.458L297.678+169.535L298.117+170.562L298.557+171.588L298.946+172.615L299.289+173.642L299.628+174.672L299.923+175.699L300.165+176.678L300.36+177.655L300.507+178.635L300.655+179.611L300.752+180.591L300.799+181.52L300.799+182.5L300.897+185.678L301.239+188.811L301.726+191.845L302.41+194.781L303.239+197.616L304.263+200.357L305.435+203.048L306.801+205.592L308.264+208.038L309.922+210.386L311.678+212.638L313.531+214.789L315.531+216.795L317.679+218.704L319.874+220.466L322.167+222.13L324.557+223.647L327.044+225.063L329.581+226.287L332.166+227.411L334.851+228.441L337.58+229.273L340.312+229.958L343.095+230.545L345.924+230.934L348.754+231.179L351.58+231.277L354.46+231.23L357.289+231.032L360.119+230.642L362.948+230.055L365.728+229.321L368.51+228.441L371.239+227.364L373.874+226.093L376.509+224.673L379.046+223.059L381.533+221.248L383.974+219.241L386.266+217.04L388.508+214.644L390.509+212.148L392.362+209.604L394.023+206.961L395.486+204.32L396.752+201.579L397.826+198.79L398.705+196.002L399.437+193.163L400.021+190.278L400.411+187.392L400.608+184.506L400.655+181.618L400.511+178.779L400.266+175.893L399.826+173.055L399.242+170.267L398.511+167.478L397.584+164.74L396.557+162.049L395.389+159.456L394.07+156.912L392.607+154.416L391.046+152.017L389.29+149.718L387.437+147.467L385.484+145.363L383.386+143.36L381.191+141.498L378.851+139.739L376.411+138.122L373.827+136.606L371.192+135.287L368.413+134.113L365.533+133.083L362.556+132.254L359.485+131.566L356.363+131.079L353.094+130.737L349.777+130.637L328.799+130.637L351.288+154.221L352.849+155.835L354.312+157.352L355.678+158.868L356.997+160.288L358.266+161.606L359.434+162.928L360.508+164.153L361.532+165.374L362.509+166.502L363.388+167.576L364.217+168.653L364.949+169.632L365.63+170.609L366.265+171.538L366.802+172.468L367.288+173.3L367.728+174.132L368.07+174.964L368.362+175.746L368.607+176.481L368.752+177.215L368.899+177.95L368.947+178.682L368.947+179.366L368.849+180.054L368.752+180.738L368.557+181.423L368.312+182.107L368.02+182.792L367.678+183.477L367.288+184.161L366.849+184.849L366.362+185.58L365.778+186.315L365.191+187.05L364.509+187.832L363.825+188.614L363.046+189.399L362.264+190.231L361.388+191.11L360.559+191.989L359.729+192.774L358.897+193.509L358.068+194.193L357.289+194.781L356.507+195.317L355.678+195.807L354.9+196.197L354.117+196.492L353.288+196.737L352.459+196.884L351.63+196.931L350.751+196.931L349.825+196.834L348.898+196.639L347.972+196.344L346.948+195.955L345.874+195.465L344.8+194.878L343.632+194.143L342.41+193.361L341.141+192.432L339.825+191.405L338.409+190.278L336.946+189.006L335.385+187.637L333.777+186.12L332.021+184.506L330.216+182.745L328.313+180.836L326.312+178.829L324.214+176.678L321.972+174.377L319.68+171.931L317.24+169.337L314.655+166.646L311.97+163.76L309.191+160.727L306.213+157.546L303.142+154.221L301.286+152.164L299.336+150.061L297.386+147.957L295.385+145.853L293.385+143.749L291.337+141.598L289.239+139.494L287.142+137.341L285.044+135.237L282.896+133.083L280.751+130.979L278.603+128.875L276.408+126.771L274.263+124.667L272.068+122.614L269.872+120.51L267.724+118.504L265.529+116.45L263.384+114.494L261.189+112.487L259.044+110.578L256.896+108.622L254.798+106.763L252.701+104.904L250.603+103.092L248.555+101.331L246.555+99.6197L244.554+97.9052L242.604+96.2912L240.651+94.6773L238.798+93.1607L236.945+91.6943L235.139+90.2248L233.384+88.8557L231.628+87.584L229.97+86.3123L228.406+85.138L226.846+84.0107L225.335+82.9368L223.919+81.9572L221.139+80.2458L218.457+78.5816L215.823+77.0148L213.238+75.4982L210.701+74.0789L208.213+72.7601L205.773+71.4884L203.431+70.2638L201.091+69.1397L198.798+68.1098L196.553+67.083L194.358+66.2038L192.213+65.3717L190.115+64.5898L188.017+63.9022L185.967+63.315L183.969+62.7781L181.969+62.2882L180.015+61.8989L178.065+61.5534L176.162+61.3116L174.259+61.1139L172.406+61.0165L170.553+60.9662L168.7+60.9662L166.895+61.0667Z" opacity="1" fill="#e71e62"/>
<path stroke="#000000" stroke-opacity="0" stroke-width="1" d="M172.406+24.1749L173.091+24.2251L173.725+24.2251L174.356+24.3224L174.944+24.3727L175.528+24.47L176.065+24.5674L176.505+24.6647L178.992+25.2016L181.432+25.7417L183.822+26.2786L186.164+26.8187L188.407+27.4059L190.652+27.9428L192.847+28.53L194.992+29.1173L197.14+29.7547L199.188+30.3418L201.235+30.9761L203.236+31.6135L205.189+32.2478L207.139+32.9323L209.042+33.6168L210.895+34.3045L212.748+34.989L214.554+35.7238L216.309+36.4554L218.065+37.2404L219.823+37.972L221.529+38.8041L223.237+39.586L224.895+40.4181L226.553+41.3005L228.212+42.1325L229.823+43.0619L231.434+43.9411L233.042+44.9208L234.653+45.8502L236.213+46.8268L237.821+47.8567L239.385+48.8835L240.946+49.9606L242.507+51.0344L244.068+52.1115L245.628+53.2858L247.189+54.4131L248.75+55.6345L250.311+56.8591L252.019+58.1308L253.724+59.3052L255.335+60.4795L256.994+61.5534L258.652+62.5833L260.31+63.5599L262.069+64.4893L263.921+65.3717L265.872+66.2038L267.922+66.9856L270.117+67.7203L272.507+68.452L275.042+69.0894L277.824+69.7268L280.848+70.2638L284.117+70.8007L287.628+71.3408L291.482+71.7804L295.63+72.22L300.118+72.6596L304.995+73.0521L310.265+73.3943L315.873+73.7366L321.972+74.0318L328.507+74.3238L335.482+74.5687L342.997+74.8639L350.996+75.0585L359.532+75.3035L368.655+75.4982L378.315+75.696L388.606+75.8907L399.484+76.0853L411.047+76.233L423.241+76.4276L436.12+76.5752L449.731+76.7699L464.073+76.9174L479.144+77.1122L495+77.2597L510.756+77.4544L525.779+77.6019L540.024+77.7966L553.538+77.9442L566.416+78.0918L578.564+78.2865L590.076+78.4341L601.002+78.6287L611.246+78.8266L620.953+79.0212L630.076+79.2159L638.662+79.4608L646.711+79.7058L654.273+79.9507L661.345+80.1956L667.978+80.4876L674.174+80.7828L679.93+81.125L685.297+81.5175L690.272+81.8598L694.954+82.2994L699.247+82.739L703.298+83.1786L707.004+83.7186L710.468+84.2556L713.687+84.8428L716.664+85.43L719.443+86.1145L722.078+86.799L724.518+87.5338L726.858+88.3188L729.053+89.1477L731.151+90.0301L733.201+90.9595L735.202+91.9392L737.152+92.966L739.102+94.043L741.103+95.2142L743.103+96.4389L745.151+97.6634L746.322+98.4453L747.544+99.2774L748.762+100.157L749.981+101.039L751.202+101.968L752.468+102.945L753.737+103.975L755.005+105.002L756.274+106.028L757.59+107.153L758.859+108.229L760.178+109.404L761.446+110.528L762.762+111.753L764.078+112.927L765.347+114.148L766.666+115.373L767.934+116.645L769.25+117.916L770.519+119.188L771.788+120.46L773.006+121.735L774.225+123.053L775.494+124.375L776.665+125.697L777.883+126.969L779.055+128.291L780.176+129.61L781.3+130.932L782.421+132.254L783.495+133.525L784.519+134.844L785.543+136.119L786.52+137.391L787.493+138.662L788.423+139.934L789.299+141.156L790.178+142.38L791.007+143.602L791.786+144.776L793.008+146.88L794.226+148.886L795.347+150.846L796.421+152.802L797.445+154.758L798.422+156.667L799.301+158.674L800.177+160.727L801.006+162.831L801.788+165.032L802.47+167.331L803.154+169.78L803.789+172.37L804.373+175.112L804.91+178.094L805.447+181.228L805.887+184.651L806.323+188.271L806.763+192.234L807.105+196.442L807.447+200.944L807.739+205.786L808.031+210.973L808.276+216.55L808.471+222.472L808.666+228.831L808.861+235.632L809.008+242.873L809.153+250.553L809.25+258.723L809.347+267.434L809.398+276.681L809.495+286.418L809.545+296.739L809.545+307.651L809.592+319.197L809.592+331.33L809.642+344.1L809.642+357.555L809.642+371.694L809.642+388.035L809.642+403.543L809.592+418.223L809.592+432.168L809.495+445.374L809.398+457.9L809.3+469.691L809.153+480.847L808.911+491.316L808.666+501.201L808.324+510.495L807.934+519.205L807.495+527.376L806.957+535.009L806.323+542.199L805.591+548.853L804.813+555.117L803.886+560.889L802.909+566.321L801.788+571.361L800.52+576.055L799.154+580.41L797.69+584.47L796.032+588.238L794.276+591.761L792.373+595.09L790.275+598.17L788.03+601.106L785.64+603.847L783.103+606.488L780.323+608.984L777.397+611.43L774.322+613.826L771.006+616.128L767.495+618.473L763.786+620.822L759.835+623.221L755.69+625.667L751.3+628.21L746.711+630.854L744.516+632.076L742.419+633.3L740.324+634.475L738.273+635.549L736.226+636.578L734.128+637.555L731.933+638.484L729.738+639.367L727.395+640.149L724.908+640.93L722.323+641.665L719.541+642.35L716.567+642.987L713.348+643.574L709.931+644.162L706.225+644.651L702.271+645.138L697.982+645.581L693.346+645.97L688.369+646.363L683.005+646.705L677.198+646.997L671.005+647.242L664.37+647.537L657.247+647.732L649.638+647.93L641.539+648.124L632.855+648.272L623.588+648.369L613.784+648.514L603.345+648.614L592.221+648.661L580.514+648.759L568.075+648.809L554.951+648.809L541.099+648.859L526.511+648.859L511.098+648.906L494.95+648.906L477.926+648.906L238.653+648.906L238.653+250.798L187.383+236.659L185.285+236.072L183.187+235.437L181.042+234.8L178.894+234.115L176.749+233.431L174.601+232.746L172.406+232.011L170.261+231.277L168.113+230.495L165.968+229.76L163.773+228.978L161.625+228.146L159.527+227.314L157.382+226.532L155.285+225.65L153.187+224.821L151.139+223.989L149.089+223.106L147.041+222.227L145.088+221.345L143.087+220.466L141.187+219.583L139.284+218.654L137.381+217.775L135.575+216.892L133.773+215.963L132.064+215.084L130.356+214.154L128.698+213.272L127.09+212.393L125.576+211.463L124.063+210.581L122.649+209.702L121.233+208.819L119.917+207.94L118.699+207.061L117.527+206.229L116.406+205.347L115.332+204.514L114.406+203.682L110.113+199.867L106.065+195.854L102.356+191.697L98.892+187.342L95.673+182.842L92.7933+178.195L90.1114+173.4L87.7215+168.505L85.6237+163.516L83.7708+158.429L82.1598+153.292L80.7937+148.054L79.7228+142.82L78.8906+137.488L78.3065+132.153L77.9642+126.821L77.9171+121.49L78.0615+116.155L78.5012+110.873L79.1356+105.636L80.0149+100.452L81.136+95.3147L82.5021+90.275L84.1131+85.2824L85.966+80.4406L88.0136+75.7431L90.3061+71.143L92.8435+66.6936L95.5757+62.3856L98.5497+58.2784L101.721+54.3126L105.135+50.5948L108.747+47.0717L112.6+43.7465L116.648+40.7133L120.894+37.8747L125.381+35.3313L130.064+33.0328L134.941+31.0734L140.016+29.3622L141.09+29.0669L142.114+28.775L143.188+28.53L144.259+28.2381L145.333+27.9931L146.407+27.698L147.528+27.4531L148.602+27.2081L149.676+26.9632L150.747+26.7685L151.821+26.5236L152.895+26.3289L153.966+26.1342L155.04+25.9364L156.063+25.7417L157.137+25.547L158.161+25.3994L159.188+25.2519L160.212+25.1043L161.185+24.9599L162.162+24.8123L163.139+24.7149L164.065+24.6176L165.042+24.5172L165.918+24.4198L166.844+24.3727L167.674+24.2722L168.553+24.2251L169.382+24.2251L170.164+24.1749L170.943+24.1749L171.674+24.1749L172.406+24.1749ZM462.365+272.034L460.804+272.034L459.29+272.081L457.73+272.081L456.219+272.131L454.705+272.178L453.242+272.279L451.778+272.326L450.315+272.423L448.852+272.473L447.486+272.571L446.072+272.668L444.706+272.816L443.387+272.913L442.071+273.01L440.803+273.158L439.534+273.306L438.315+273.403L437.144+273.551L436.023+273.695L434.902+273.893L433.828+274.037L432.804+274.185L431.777+274.383L430.851+274.527L429.924+274.725L429.048+274.92L428.266+275.114L427.487+275.312L426.756+275.507L426.121+275.701L425.487+275.946L424.95+276.141L424.413+276.339L423.973+276.584L423.584+276.778L423.241+277.023L422.996+277.268L422.755+277.513L422.56+277.758L422.315+278.295L422.07+278.98L421.875+279.909L421.634+280.986L421.436+282.308L421.241+283.825L420.999+285.489L420.801+287.348L420.607+289.401L420.412+291.602L420.217+294.001L420.07+296.545L419.875+299.283L419.68+302.121L419.536+305.155L419.338+308.285L419.193+311.614L419.046+315.039L418.901+318.609L418.754+322.327L418.606+326.146L418.462+330.108L418.364+334.118L418.267+338.326L418.119+342.583L418.022+346.939L417.925+351.438L417.827+355.988L417.73+360.638L417.68+365.383L417.633+370.178L417.535+375.07L417.485+380.012L417.438+385.052L417.388+390.139L417.388+395.276L417.341+400.463L417.341+405.697L417.341+410.982L417.341+538.972L454.608+562.503L456.122+563.482L457.683+564.412L459.193+565.341L460.707+566.224L462.217+567.153L463.731+568.032L465.194+568.915L466.705+569.794L468.168+570.673L469.682+571.505L471.145+572.337L472.559+573.169L474.022+573.951L475.438+574.736L476.805+575.518L478.171+576.253L479.537+576.984L480.903+577.672L482.171+578.357L483.487+578.991L484.706+579.628L485.927+580.263L487.146+580.85L488.317+581.39L489.438+581.927L490.512+582.467L491.583+582.906L492.61+583.346L493.584+583.786L494.51+584.178L495.39+584.52L496.219+584.812L497.048+585.108L497.779+585.353L498.511+585.597L499.145+585.745L499.78+585.889L500.317+585.987L500.804+586.037L501.243+586.087L501.73+586.037L502.267+585.889L502.757+585.645L503.193+585.302L503.633+584.863L504.073+584.326L504.512+583.641L504.902+582.856L505.291+581.977L505.634+580.997L505.976+579.873L506.318+578.649L506.657+577.33L506.953+575.813L507.245+574.246L507.537+572.535L507.782+570.673L508.074+568.67L508.316+566.566L508.513+564.264L508.708+561.916L508.95+559.372L509.097+556.681L509.292+553.843L509.44+550.86L509.584+547.776L509.732+544.498L509.879+541.075L509.977+537.502L510.074+533.734L510.172+529.822L510.269+525.762L510.316+521.554L510.413+517.149L510.464+512.599L510.464+507.854L510.511+502.962L510.561+497.872L510.561+492.591L510.561+487.158L510.561+482.951L510.611+478.841L510.611+474.73L510.658+470.623L510.756+466.61L510.806+462.597L510.903+458.635L511.001+454.722L511.098+450.857L511.242+447.039L511.39+443.274L511.538+439.553L511.682+435.932L511.83+432.362L512.024+428.839L512.219+425.413L512.414+422.038L512.659+418.76L512.853+415.579L513.098+412.448L513.34+409.415L513.585+406.479L513.83+403.644L514.072+400.852L514.367+398.212L514.609+395.668L514.901+393.222L515.196+390.873L515.488+388.672L515.78+386.569L516.123+384.562L516.415+382.703L516.757+380.942L517.049+379.328L517.391+377.858L517.73+376.489L518.073+375.265L518.415+374.191L518.757+373.261L519.097+372.526L519.926+371.01L520.902+369.54L521.976+368.074L523.148+366.655L524.464+365.188L525.83+363.769L527.343+362.35L528.951+360.93L530.609+359.561L532.415+358.189L534.221+356.87L536.124+355.548L538.121+354.277L540.122+353.052L542.22+351.831L544.368+350.656L546.513+349.532L548.708+348.455L550.953+347.378L553.195+346.399L555.441+345.469L557.733+344.54L560.026+343.708L562.268+342.926L564.564+342.191L566.806+341.557L569.051+340.969L571.247+340.429L573.442+339.99L575.587+339.6L577.684+339.305L579.732+339.06L581.732+338.913L583.686+338.815L585.539+338.866L587.344+338.963L589.05+339.158L590.708+339.453L592.221+339.842L593.685+340.332L596.514+341.359L599.247+342.389L601.831+343.416L604.271+344.442L606.611+345.519L608.806+346.596L610.904+347.721L612.857+348.945L614.757+350.167L616.516+351.536L618.174+352.955L619.684+354.471L621.148+356.085L622.514+357.847L623.783+359.756L624.954+361.81L626.028+364.014L627.052+366.41L627.978+368.953L628.807+371.694L629.589+374.677L630.321+377.858L630.955+381.284L631.539+384.904L632.077+388.817L632.516+392.977L632.953+397.43L633.295+402.174L633.587+407.164L633.882+412.546L634.124+418.173L634.319+424.192L634.466+430.503L634.564+437.204L634.661+444.301L634.758+451.736L634.809+459.564L634.809+467.832L634.856+476.492L634.856+485.592L634.856+601.79L728.079+601.79L728.079+493.42L727.982+484.417L727.932+475.66L727.784+467.245L727.64+459.124L727.492+451.344L727.297+443.761L727.103+436.52L726.858+429.524L726.566+422.773L726.274+416.314L725.931+410.053L725.542+404.083L725.152+398.309L724.663+392.83L724.226+387.498L723.689+382.408L723.102+377.516L722.518+372.869L721.883+368.366L721.152+364.061L720.42+359.951L719.638+355.988L718.809+352.223L717.933+348.603L717.006+345.127L716.03+341.802L715.006+338.571L713.932+335.537L712.76+332.601L711.589+329.766L710.323+327.075L709.005+324.481L707.638+321.985L706.175+319.539L704.712+317.241L703.151+314.942L701.493+312.788L699.784+310.634L698.029+308.58L696.223+306.527L693.393+303.688L690.419+300.947L687.248+298.306L683.978+295.86L680.565+293.512L677.004+291.31L673.298+289.254L669.492+287.348L665.588+285.586L661.59+283.922L657.492+282.405L653.296+281.036L649.051+279.812L644.711+278.735L640.32+277.758L635.88+276.973L631.392+276.289L626.857+275.752L622.319+275.359L617.784+275.114L613.196+275.017L608.611+275.067L604.026+275.262L599.441+275.554L594.903+276.044L590.416+276.631L585.928+277.366L581.491+278.295L577.1+279.322L572.757+280.496L568.514+281.818L564.366+283.284L560.271+284.902L556.27+286.66L552.366+288.569L548.563+290.626L544.905+292.777L541.343+295.126L537.927+297.622L534.66+300.263L532.513+302.024L530.512+303.735L528.609+305.302L526.756+306.819L525.001+308.188L523.342+309.51L521.782+310.734L520.268+311.859L518.855+312.838L517.536+313.768L516.267+314.597L515.099+315.331L513.975+315.969L512.904+316.506L511.927+316.945L511.001+317.241L510.172+317.485L509.342+317.633L508.611+317.68L507.926+317.633L507.292+317.485L506.708+317.241L506.221+316.898L505.731+316.408L505.291+315.871L504.902+315.234L504.56+314.499L504.22+313.62L503.976+312.691L503.731+311.614L503.536+310.489L503.341+309.215L503.193+307.896L503.096+306.426L502.999+304.863L502.901+303.198L502.854+301.437L502.804+299.578L502.804+297.622L502.804+295.565L502.804+293.904L502.757+292.287L502.757+290.77L502.757+289.351L502.707+287.982L502.609+286.71L502.512+285.489L502.415+284.362L502.267+283.284L502.123+282.258L501.878+281.328L501.633+280.399L501.341+279.567L500.998+278.832L500.609+278.1L500.169+277.416L499.683+276.829L499.145+276.242L498.511+275.701L497.83+275.212L497.098+274.822L496.269+274.383L495.39+274.037L494.413+273.745L493.342+273.453L492.218+273.208L490.999+272.963L489.683+272.766L488.267+272.621L486.757+272.473L485.098+272.376L483.39+272.279L481.584+272.178L479.634+272.131L477.583+272.081L475.438+272.034L473.146+272.034L470.706+271.984L468.168+271.984L465.486+271.984L463.926+271.984L462.365+272.034ZM320.213+483.978L361.388+507.559L401.827+531.093L401.827+271.984L315.581+271.984L320.213+483.978ZM166.895+61.0667L165.089+61.2111L163.283+61.4561L161.481+61.7512L159.675+62.0935L157.869+62.5331L156.114+63.023L154.308+63.6101L152.502+64.2444L150.7+64.932L148.894+65.714L147.088+66.546L145.286+67.4252L143.43+68.4049L141.577+69.4317L137.381+71.928L133.477+74.5687L129.869+77.3099L126.503+80.1453L123.381+83.0813L120.551+86.0674L117.967+89.1477L115.624+92.3285L113.577+95.5597L111.821+98.8378L110.257+102.213L108.992+105.589L107.965+109.062L107.186+112.534L106.699+116.058L106.404+119.631L106.404+123.251L106.649+126.821L107.136+130.442L107.867+134.113L108.844+137.733L110.062+141.353L111.576+145.021L113.285+148.594L115.235+152.215L117.43+155.785L119.87+159.358L122.502+162.881L125.429+166.354L128.553+169.78L131.967+173.155L135.575+176.481L139.381+179.759L143.48+182.99L147.773+186.12L152.307+189.154L157.04+192.137L162.015+195.025L167.237+197.861L172.651+200.552L176.991+202.558L181.089+204.417L185.04+206.179L188.796+207.843L192.408+209.359L195.821+210.779L199.04+212L202.115+213.175L205.041+214.154L207.774+215.033L210.358+215.768L212.845+216.305L215.138+216.748L217.333+217.09L219.334+217.235L221.287+217.235L223.042+217.04L224.701+216.748L226.261+216.305L227.678+215.671L229.041+214.889L230.262+213.909L231.383+212.785L232.457+211.51L233.384+210.044L234.263+208.43L235.042+206.618L235.774+204.612L236.408+202.461L236.992+200.112L237.529+197.569L237.969+194.828L238.358+191.942L238.751+188.811L239.09+185.533L239.385+182.01L239.627+178.292L239.822+174.427L240.067+170.317L240.214+166.012L242.554+114.933L272.068+138.515L273.481+139.739L274.8+140.961L276.116+142.186L277.435+143.407L278.653+144.632L279.872+145.806L281.093+147.027L282.214+148.202L283.335+149.376L284.409+150.55L285.484+151.725L286.507+152.899L287.484+154.074L288.457+155.198L289.384+156.372L290.263+157.499L291.092+158.623L291.921+159.748L292.703+160.875L293.435+161.949L294.167+163.076L294.848+164.153L295.483+165.227L296.067+166.304L296.654+167.381L297.191+168.458L297.678+169.535L298.117+170.562L298.557+171.588L298.946+172.615L299.289+173.642L299.628+174.672L299.923+175.699L300.165+176.678L300.36+177.655L300.507+178.635L300.655+179.611L300.752+180.591L300.799+181.52L300.799+182.5L300.897+185.678L301.239+188.811L301.726+191.845L302.41+194.781L303.239+197.616L304.263+200.357L305.435+203.048L306.801+205.592L308.264+208.038L309.922+210.386L311.678+212.638L313.531+214.789L315.531+216.795L317.679+218.704L319.874+220.466L322.167+222.13L324.557+223.647L327.044+225.063L329.581+226.287L332.166+227.411L334.851+228.441L337.58+229.273L340.312+229.958L343.095+230.545L345.924+230.934L348.754+231.179L351.58+231.277L354.46+231.23L357.289+231.032L360.119+230.642L362.948+230.055L365.728+229.321L368.51+228.441L371.239+227.364L373.874+226.093L376.509+224.673L379.046+223.059L381.533+221.248L383.974+219.241L386.266+217.04L388.508+214.644L390.509+212.148L392.362+209.604L394.023+206.961L395.486+204.32L396.752+201.579L397.826+198.79L398.705+196.002L399.437+193.163L400.021+190.278L400.411+187.392L400.608+184.506L400.655+181.618L400.511+178.779L400.266+175.893L399.826+173.055L399.242+170.267L398.511+167.478L397.584+164.74L396.557+162.049L395.389+159.456L394.07+156.912L392.607+154.416L391.046+152.017L389.29+149.718L387.437+147.467L385.484+145.363L383.386+143.36L381.191+141.498L378.851+139.739L376.411+138.122L373.827+136.606L371.192+135.287L368.413+134.113L365.533+133.083L362.556+132.254L359.485+131.566L356.363+131.079L353.094+130.737L349.777+130.637L328.799+130.637L351.288+154.221L352.849+155.835L354.312+157.352L355.678+158.868L356.997+160.288L358.266+161.606L359.434+162.928L360.508+164.153L361.532+165.374L362.509+166.502L363.388+167.576L364.217+168.653L364.949+169.632L365.63+170.609L366.265+171.538L366.802+172.468L367.288+173.3L367.728+174.132L368.07+174.964L368.362+175.746L368.607+176.481L368.752+177.215L368.899+177.95L368.947+178.682L368.947+179.366L368.849+180.054L368.752+180.738L368.557+181.423L368.312+182.107L368.02+182.792L367.678+183.477L367.288+184.161L366.849+184.849L366.362+185.58L365.778+186.315L365.191+187.05L364.509+187.832L363.825+188.614L363.046+189.399L362.264+190.231L361.388+191.11L360.559+191.989L359.729+192.774L358.897+193.509L358.068+194.193L357.289+194.781L356.507+195.317L355.678+195.807L354.9+196.197L354.117+196.492L353.288+196.737L352.459+196.884L351.63+196.931L350.751+196.931L349.825+196.834L348.898+196.639L347.972+196.344L346.948+195.955L345.874+195.465L344.8+194.878L343.632+194.143L342.41+193.361L341.141+192.432L339.825+191.405L338.409+190.278L336.946+189.006L335.385+187.637L333.777+186.12L332.021+184.506L330.216+182.745L328.313+180.836L326.312+178.829L324.214+176.678L321.972+174.377L319.68+171.931L317.24+169.337L314.655+166.646L311.97+163.76L309.191+160.727L306.213+157.546L303.142+154.221L301.286+152.164L299.336+150.061L297.386+147.957L295.385+145.853L293.385+143.749L291.337+141.598L289.239+139.494L287.142+137.341L285.044+135.237L282.896+133.083L280.751+130.979L278.603+128.875L276.408+126.771L274.263+124.667L272.068+122.614L269.872+120.51L267.724+118.504L265.529+116.45L263.384+114.494L261.189+112.487L259.044+110.578L256.896+108.622L254.798+106.763L252.701+104.904L250.603+103.092L248.555+101.331L246.555+99.6197L244.554+97.9052L242.604+96.2912L240.651+94.6773L238.798+93.1607L236.945+91.6943L235.139+90.2248L233.384+88.8557L231.628+87.584L229.97+86.3123L228.406+85.138L226.846+84.0107L225.335+82.9368L223.919+81.9572L221.139+80.2458L218.457+78.5816L215.823+77.0148L213.238+75.4982L210.701+74.0789L208.213+72.7601L205.773+71.4884L203.431+70.2638L201.091+69.1397L198.798+68.1098L196.553+67.083L194.358+66.2038L192.213+65.3717L190.115+64.5898L188.017+63.9022L185.967+63.315L183.969+62.7781L181.969+62.2882L180.015+61.8989L178.065+61.5534L176.162+61.3116L174.259+61.1139L172.406+61.0165L170.553+60.9662L168.7+60.9662L166.895+61.0667Z" fill="#000000" fill-opacity="0" opacity="1"/>
</g>
</g>
</svg>
