<?xml version="1.0" encoding="UTF-8"?>
<svg width="120px" height="120px" viewBox="0 0 120 120" version="1.1" xmlns="http://www.w3.org/2000/svg" xmlns:xlink="http://www.w3.org/1999/xlink">
    <!-- Generator: Sketch 52.5 (67469) - http://www.bohemiancoding.com/sketch -->
    <title>decenttwitter.com</title>
    <desc>Created with Sketch.</desc>
    <g id="decenttwitter.com" stroke="none" stroke-width="1" fill="none" fill-rule="evenodd">
        <polygon id="Path-16" stroke="#363535" stroke-width="2" stroke-linejoin="round" points="60 15 39 42 29 85 60 105 91 86 82 42"></polygon>
        <path d="M59,23 L59,36 L47,55 L43,44 L59,23 Z M61,23 L77,44 L73,55 L61,36 L61,23 Z M79,50 L84,75 L75,60 L79,50 Z M74,64.12 L85,83 L68,83 L74,64.12 Z M66,86 L82,86 L63,98 L66,86 Z M57,86 L63,86 L60,96 L57,86 Z M56,83 L49,60 L60,40 L72,60 L64,83 L56,83 Z M41,50 L45,60 L36,75 L41,50 Z M46,64.12 L52,83 L35,83 L46,64.12 Z M54,86 L57,98 L38,86 L54,86 Z" id="Combined-Shape" fill="#363535"></path>
    </g>
</svg>