<svg width="512" height="512" viewBox="0 0 512 512" fill="none" xmlns="http://www.w3.org/2000/svg">
<path d="M128 128H407V384H128V128Z" fill="white"/>
<path fill-rule="evenodd" clip-rule="evenodd" d="M256 512C397.385 512 512 397.385 512 256C512 114.615 397.385 0 256 0C114.615 0 0 114.615 0 256C0 397.385 114.615 512 256 512ZM327.21 254.877C327.21 207.481 289.167 154.121 223.332 152.946V152.926H286.417C353.616 152.926 392.515 206.951 392.515 254.877C392.515 302.804 353.616 356.828 286.417 356.828H223.332V356.808C289.167 355.633 327.21 302.273 327.21 254.877ZM223.332 152.946V356.808C222.596 356.821 221.856 356.828 221.112 356.828H158.028V152.926H221.112C221.856 152.926 222.596 152.933 223.332 152.946Z" fill="#0000EE"/>
</svg>
