<svg id="图层_1" data-name="图层 1" xmlns="http://www.w3.org/2000/svg" xmlns:xlink="http://www.w3.org/1999/xlink" viewBox="0 0 464.76 400.41">
  <defs>
    <style>.cls-1{fill:#8c1111;}.cls-2{fill:#cd1919;}.cls-3{fill:#470808;}.cls-4{fill:url(#stages);}.cls-5{fill:url(#stages_2);}.cls-6{fill:url(#stages_3);}.cls-7{fill:url(#stages_4);}.cls-8{fill:url(#stages_5);}.cls-9{fill:url(#stages_6);}.cls-10{fill:url(#stages_7);}.cls-11{fill:url(#stages_8);}.cls-12{fill:url(#stages_9);}.cls-13{fill:url(#stages_10);}.cls-14{fill:url(#stages_11);}.cls-15{fill:url(#stages_12);}.cls-16{fill:url(#stages_13);}.cls-17{fill:url(#stages_14);}.cls-18{fill:url(#stages_15);}.cls-19{fill:url(#stages_16);}.cls-20{fill:url(#stages_17);}.cls-21{fill:#570a0a;}.cls-22{fill:#9a1212;}.cls-23{fill:#ce1919;}.cls-24{fill:url(#stages_18);}.cls-25{fill:url(#stages_19);}.cls-26{fill:url(#stages_20);}.cls-27{fill:url(#stages_21);}.cls-28{fill:url(#stages_22);}.cls-29{fill:url(#stages_23);}.cls-30{fill:url(#stages_24);}.cls-31{fill:url(#stages_25);}.cls-32{fill:url(#stages_26);}.cls-33{fill:url(#stages_27);}.cls-34{fill:url(#stages_28);}.cls-35{fill:url(#stages_29);}.cls-36{fill:url(#stages_30);}.cls-37{fill:url(#stages_31);}.cls-38{fill:url(#stages_32);}.cls-39{fill:url(#stages_33);}.cls-40{fill:url(#stages_34);}.cls-41{fill:url(#stages_35);}.cls-42{fill:url(#stages_36);}.cls-43{fill:url(#stages_37);}.cls-44{fill:url(#stages_38);}.cls-45{fill:url(#stages_39);}.cls-46{fill:url(#stages_40);}</style>
    <linearGradient id="stages" x1="30.24" y1="613.48" x2="30.35" y2="613.37" gradientTransform="translate(-4049.2 -57382.68) scale(140.34 93.92)" gradientUnits="userSpaceOnUse">
      <stop offset="0" stop-color="#470808"/>
      <stop offset="0.65" stop-color="#700d0d"/>
      <stop offset="1" stop-color="#8c1111"/>
    </linearGradient>
    <linearGradient id="stages_2" x1="29.99" y1="612.51" x2="30.17" y2="612.65" gradientTransform="translate(-1990.25 -101543.96) scale(71.55 165.92)" gradientUnits="userSpaceOnUse">
      <stop offset="0" stop-color="#cd1919"/>
      <stop offset="0.5" stop-color="#ca1919"/>
      <stop offset="1" stop-color="#8c1111"/>
    </linearGradient>
    <linearGradient id="stages_3" x1="30.37" y1="616.94" x2="30.15" y2="616.48" gradientTransform="translate(-3524.91 -21117.64) scale(118.95 34.56)" gradientUnits="userSpaceOnUse">
      <stop offset="0" stop-color="#470808"/>
      <stop offset="0.5" stop-color="#a91414"/>
      <stop offset="1" stop-color="#cd1919"/>
    </linearGradient>
    <linearGradient id="stages_4" x1="28.36" y1="635.24" x2="27.69" y2="634.45" gradientTransform="translate(-204.79 -4762) scale(12.14 7.79)" gradientUnits="userSpaceOnUse">
      <stop offset="0" stop-color="#700d0d"/>
      <stop offset="1" stop-color="#ca1919"/>
    </linearGradient>
    <linearGradient id="stages_5" x1="27.34" y1="630.17" x2="27.48" y2="629.24" gradientTransform="translate(-140.92 -6059.54) scale(9.91)" gradientUnits="userSpaceOnUse">
      <stop offset="0" stop-color="#a91414"/>
      <stop offset="1" stop-color="#cd1919"/>
    </linearGradient>
    <linearGradient id="stages_6" x1="27.82" y1="635.22" x2="27.25" y2="634.26" gradientTransform="translate(-131.01 -4697.18) scale(9.91 7.68)" xlink:href="#stages_4"/>
    <linearGradient id="stages_7" x1="28.24" y1="629.93" x2="27.7" y2="629.13" gradientTransform="translate(-201.56 -6017.25) scale(12.03 9.86)" gradientUnits="userSpaceOnUse">
      <stop offset="0" stop-color="#470808"/>
      <stop offset="1" stop-color="#a91414"/>
    </linearGradient>
    <linearGradient id="stages_8" x1="26.02" y1="635.69" x2="26.38" y2="634.5" gradientTransform="translate(-48.92 -4664.8) scale(6.94 7.63)" gradientUnits="userSpaceOnUse">
      <stop offset="0" stop-color="#a91414"/>
      <stop offset="1" stop-color="#ca1919"/>
    </linearGradient>
    <linearGradient id="stages_9" x1="26.34" y1="635.45" x2="25.35" y2="634.72" gradientTransform="translate(-29.04 -4697.18) scale(6.47 7.68)" xlink:href="#stages_4"/>
    <linearGradient id="stages_10" x1="28.5" y1="709.05" x2="27.67" y2="708.47" gradientTransform="translate(-201.56 -1129.22) scale(12.03 1.85)" gradientUnits="userSpaceOnUse">
      <stop offset="0" stop-color="#700d0d"/>
      <stop offset="1" stop-color="#b51616"/>
    </linearGradient>
    <linearGradient id="stages_11" x1="28.48" y1="615.35" x2="30.23" y2="616.47" gradientTransform="translate(-633.7 -24572.02) scale(29.37 40.12)" gradientUnits="userSpaceOnUse">
      <stop offset="0"/>
      <stop offset="1" stop-color="#fff"/>
    </linearGradient>
    <linearGradient id="stages_12" x1="31.95" y1="616.57" x2="28.7" y2="616.57" gradientTransform="translate(-694.61 -21857.68) scale(28.6 35.54)" xlink:href="#stages_11"/>
    <linearGradient id="stages_13" x1="31.9" y1="616.77" x2="28.65" y2="616.77" gradientTransform="translate(-726 -21017.04) scale(27.32 34.18)" xlink:href="#stages_11"/>
    <linearGradient id="stages_14" x1="31.96" y1="616.45" x2="28.71" y2="616.45" gradientTransform="translate(-736.9 -22281.67) scale(28.93 36.39)" xlink:href="#stages_11"/>
    <linearGradient id="stages_15" x1="31.9" y1="616.58" x2="28.65" y2="616.58" gradientTransform="translate(-758.31 -21668.74) scale(27.32 35.41)" xlink:href="#stages_11"/>
    <linearGradient id="stages_16" x1="30.23" y1="619.81" x2="28.73" y2="624.31" gradientTransform="translate(-1025.82 -11189.07) scale(39.03 18.35)" xlink:href="#stages_11"/>
    <linearGradient id="stages_17" x1="30.19" y1="620.72" x2="28.69" y2="625.22" gradientTransform="translate(-951.31 -10176.19) scale(36.78 16.79)" xlink:href="#stages_11"/>
    <linearGradient id="stages_18" x1="28.96" y1="613.11" x2="29.08" y2="612.99" gradientTransform="translate(-3813.42 -70594.83) scale(140.7 115.49)" gradientUnits="userSpaceOnUse">
      <stop offset="0" stop-color="#9a1212"/>
      <stop offset="0.7" stop-color="#da1a1a"/>
      <stop offset="1" stop-color="#ce1919"/>
    </linearGradient>
    <linearGradient id="stages_19" x1="26.98" y1="612.69" x2="26.69" y2="612.51" gradientTransform="translate(-1224.77 -97039.99) scale(57.24 158.95)" gradientUnits="userSpaceOnUse">
      <stop offset="0" stop-color="#570a0a"/>
      <stop offset="1" stop-color="#9a1212"/>
    </linearGradient>
    <linearGradient id="stages_20" x1="29.14" y1="614.29" x2="28.97" y2="614.06" gradientTransform="translate(-3838.12 -40656.62) scale(145.99 66.57)" gradientUnits="userSpaceOnUse">
      <stop offset="0" stop-color="#570a0a"/>
      <stop offset="0.5" stop-color="#ba1616"/>
      <stop offset="1" stop-color="#ce1919"/>
    </linearGradient>
    <linearGradient id="stages_21" x1="20.56" y1="633.21" x2="20.44" y2="632.17" gradientTransform="translate(-102.13 -5074.38) scale(20.99 8.43)" gradientUnits="userSpaceOnUse">
      <stop offset="0" stop-color="#570a0a"/>
      <stop offset="1" stop-color="#bd1717"/>
    </linearGradient>
    <linearGradient id="stages_22" x1="12.48" y1="628.48" x2="12.95" y2="627.33" gradientTransform="translate(176.12 -6603.69) scale(11.71 10.92)" gradientUnits="userSpaceOnUse">
      <stop offset="0" stop-color="#9a1212"/>
      <stop offset="1" stop-color="#da1a1a"/>
    </linearGradient>
    <linearGradient id="stages_23" x1="3.57" y1="636.3" x2="3.09" y2="635.3" gradientTransform="translate(305.18 -4401.6) scale(7.74 7.31)" gradientUnits="userSpaceOnUse">
      <stop offset="0" stop-color="#ba1616"/>
      <stop offset="1" stop-color="#da1a1a"/>
    </linearGradient>
    <linearGradient id="stages_24" x1="8.22" y1="629.54" x2="7.86" y2="628.5" gradientTransform="translate(259.33 -6177.2) scale(9.33 10.23)" xlink:href="#stages_21"/>
    <linearGradient id="stages_25" x1="4.03" y1="629.11" x2="2.96" y2="628.83" gradientTransform="translate(305.18 -6154.94) scale(7.74 10.18)" xlink:href="#stages_23"/>
    <radialGradient id="stages_26" cx="20.67" cy="619.87" r="0.5" gradientTransform="translate(-110.66 -12954.05) scale(21.31)" gradientUnits="userSpaceOnUse">
      <stop offset="0" stop-color="#bd1717"/>
      <stop offset="1" stop-color="#bd1717" stop-opacity="0"/>
    </radialGradient>
    <linearGradient id="stages_27" x1="22.94" y1="622.18" x2="25.84" y2="619.28" gradientTransform="translate(-683.1 -13214.07) scale(40.6 21.53)" xlink:href="#stages_11"/>
    <linearGradient id="stages_28" x1="23.04" y1="621.88" x2="25.94" y2="618.98" gradientTransform="translate(-793.22 -13686.06) scale(41.41 22.35)" xlink:href="#stages_11"/>
    <linearGradient id="stages_29" x1="22.97" y1="621.84" x2="25.87" y2="618.94" gradientTransform="translate(-653.4 -13748.95) scale(40.85 22.45)" xlink:href="#stages_11"/>
    <linearGradient id="stages_30" x1="23.09" y1="621.55" x2="25.99" y2="618.65" gradientTransform="translate(-768.61 -14255.4) scale(41.82 23.32)" xlink:href="#stages_11"/>
    <linearGradient id="stages_31" x1="23.03" y1="621.66" x2="25.93" y2="618.76" gradientTransform="translate(-629.85 -14036.22) scale(41.34 22.97)" xlink:href="#stages_11"/>
    <linearGradient id="stages_32" x1="23.15" y1="621.48" x2="26.05" y2="618.58" gradientTransform="translate(-746.63 -14353.69) scale(42.35 23.53)" xlink:href="#stages_11"/>
    <linearGradient id="stages_33" x1="22.84" y1="615.61" x2="25.44" y2="617.81" gradientTransform="translate(-304.69 -21968.05) scale(31.4 36.04)" xlink:href="#stages_11"/>
    <linearGradient id="stages_34" x1="22.91" y1="615.69" x2="25.51" y2="617.89" gradientTransform="translate(-367.94 -21559.22) scale(31.71 35.48)" xlink:href="#stages_11"/>
    <linearGradient id="stages_35" x1="22.99" y1="615.73" x2="25.59" y2="617.93" gradientTransform="translate(-433.42 -21322.67) scale(32.1 35.19)" xlink:href="#stages_11"/>
    <linearGradient id="stages_36" x1="23.12" y1="615.08" x2="22.52" y2="616.38" gradientTransform="translate(-370.79 -24691.2) scale(27 40.55)" xlink:href="#stages_11"/>
    <linearGradient id="stages_37" x1="22.81" y1="615.18" x2="22.21" y2="616.48" gradientTransform="translate(-384.23 -24118.81) scale(25.96 39.64)" xlink:href="#stages_11"/>
    <linearGradient id="stages_38" x1="23.32" y1="615.11" x2="22.72" y2="616.41" gradientTransform="translate(-366.67 -24410.06) scale(27.75 40.22)" xlink:href="#stages_11"/>
    <linearGradient id="stages_39" x1="23.54" y1="614.99" x2="22.94" y2="616.29" gradientTransform="translate(-371.22 -25191.12) scale(28.57 41.34)" xlink:href="#stages_11"/>
    <linearGradient id="stages_40" x1="23.12" y1="615.08" x2="22.52" y2="616.38" gradientTransform="translate(-397.49 -24754.71) scale(27 40.53)" xlink:href="#stages_11"/>
  </defs>
  <title>mylogo</title>
  <path class="cls-1" d="M188,15.38c-.16.26-2.23,6.73-4.61,14.47-6.52,21.2-9,28.94-10.6,34.18-.8,2.6-2.33,7.63-3.44,11.13s-3.71,12-5.83,18.81S156,118.1,151.58,132.41s-9.7,31.22-11.71,37.68-3.66,12-3.66,12.24c0,.53,8.43,6.25,86,58.14l44.94,30,1.48-2.07a21.5,21.5,0,0,0,2.12-3.6c.32-.79,10.76-35.24,23.21-76.48,25.12-83.16,24-78.7,21.2-84.48a15,15,0,0,0-3.66-4.72c-5-4-116.6-82.1-118.67-83.05C190.43,15,188.36,14.69,188,15.38Z" transform="translate(-13.27 -14.69)"/>
  <path class="cls-2" d="M185,14.85c-3.55.69-109.71,23.05-111.35,23.48A15.84,15.84,0,0,0,66,44c-2,3-52.31,150.2-52.63,154-.27,2.86-.21,3.07.79,3.07.58,0,8.32-1.06,17.17-2.38s35.83-5.25,60-8.69,44-6.47,44.15-6.62c.32-.26,4.24-12.83,16.06-50.93,4.4-14.31,9.8-31.59,11.92-38.42s4.77-15.32,5.83-18.81S172,66.63,172.78,64c6.36-20.35,14.95-48.23,15.05-48.71C187.88,14.69,186.77,14.53,185,14.85Z" transform="translate(-13.27 -14.69)"/>
  <path class="cls-3" d="M135.57,183.29c-.16.21-17.6,2.81-38.64,5.88-56.44,8.11-82.84,12-83.1,12.19a5.91,5.91,0,0,0,.42,2.33c1.43,4.77,1.91,5.09,65.88,43.94,38.16,23.16,61.21,36.89,62.75,37.26,2.23.64,8.69.05,59.73-5.09,32.28-3.23,58.19-6.1,59.41-6.52,2.81-1,5-2.6,4.29-3.23-.26-.27-22.58-15.21-49.55-33.23s-55.91-37.42-64.29-43C136.63,183.13,136.1,182.76,135.57,183.29Z" transform="translate(-13.27 -14.69)"/>
  <path class="cls-4" d="M131.12,195l126.46,78.92c7.9-.9,10.49-2.17,13.89-11.5L145.22,180Z" transform="translate(-13.27 -14.69)"/>
  <path class="cls-5" d="M126.25,176.66l20,4L197.8,19.41C189.37,14,188.73,14,179.4,16Z" transform="translate(-13.27 -14.69)"/>
  <path class="cls-6" d="M15.1,192.14C11.5,203.85,14,206,20.51,210.63l111.88-14.79-5.94-19.77Z" transform="translate(-13.27 -14.69)"/>
  <path class="cls-7" d="M141.46,186.09,129.32,186l7-7.74Z" transform="translate(-13.27 -14.69)"/>
  <path class="cls-8" d="M126.4,176.08l3,9.91,6.94-7.63Z" transform="translate(-13.27 -14.69)"/>
  <path class="cls-9" d="M146.23,180.69,141.4,186l-5.09-7.68Z" transform="translate(-13.27 -14.69)"/>
  <path class="cls-10" d="M132.34,195.85l9.06-9.8-12-.05Z" transform="translate(-13.27 -14.69)"/>
  <path class="cls-11" d="M129.37,186l6.94-7.63L135,184.24Z" transform="translate(-13.27 -14.69)"/>
  <path class="cls-12" d="M141.4,186l-5.09-7.68-1.38,5.88Z" transform="translate(-13.27 -14.69)"/>
  <path class="cls-13" d="M141.4,186l-12-.05,5.62-1.8Z" transform="translate(-13.27 -14.69)"/>
  <path class="cls-14" d="M227.69,124.3c-3.07.85-7.31,5.19-8.85,9.17-1.75,4.56-1.75,12.88.05,17.49,3,7.84,7.79,12.3,13.83,12.88,7.58.74,13.67-6.31,14.15-16.32a36.54,36.54,0,0,0-.42-7.58c-1.48-7.15-6.73-13.83-12.19-15.42C231.08,123.55,230.6,123.55,227.69,124.3Z" transform="translate(-13.27 -14.69)"/>
  <path class="cls-15" d="M151.79,36.1C140.56,40,130.43,57.94,134.3,67.22c1.59,3.76,5.94,4.61,11.24,2.17,3.6-1.64,9.65-7.58,12.3-12,5.46-9.27,5.67-19.24.42-21.41C155.87,34.94,155.13,35,151.79,36.1Z" transform="translate(-13.27 -14.69)"/>
  <path class="cls-16" d="M79.5,51.37c-7.53,4.29-14,13.57-15.48,22-.74,4.24-.26,6.89,1.7,9.06,1.32,1.54,1.8,1.7,4.35,1.7C75,84.12,81,79.67,85.59,72.73c5.62-8.43,7-17.28,3.44-21.15C87.77,50.2,87.18,50,84.69,50A9.44,9.44,0,0,0,79.5,51.37Z" transform="translate(-13.27 -14.69)"/>
  <path class="cls-17" d="M119.78,133.68c-6.47,2-14.63,11.08-17.44,19.4-2.23,6.73-2,11.45.9,14.63,5.25,5.83,17.86-2,23.69-14.63,3.18-6.84,3.71-13,1.54-16.69C126.88,133.73,123.33,132.62,119.78,133.68Z" transform="translate(-13.27 -14.69)"/>
  <path class="cls-18" d="M49,145.5c-8.53,3.07-17,15.32-17.65,25.39-.16,3.13,0,4.45.69,6,4.66,9.86,22.26-3,26-19.08C60.21,148.62,56,143,49,145.5Z" transform="translate(-13.27 -14.69)"/>
  <path class="cls-19" d="M119,204.27c-4.72,1.11-5.19,3.5-1.59,7.37,5.25,5.62,18.71,10.6,28.67,10.6,9.65,0,10.71-4.72,2.33-10.28S125.61,202.63,119,204.27Z" transform="translate(-13.27 -14.69)"/>
  <path class="cls-20" d="M125.61,261.46c-2.17.53-3.71,2.23-3.34,3.71.48,1.75,5.09,5.51,9.33,7.58a48.49,48.49,0,0,0,18.71,5c6.52.37,8.69-.42,8.69-3.13,0-4.5-13.25-11.45-25.12-13.09C129.27,260.88,128.26,260.88,125.61,261.46Z" transform="translate(-13.27 -14.69)"/>
  <path class="cls-21" d="M430,217.88c-25.49,8.43-58.78,19.34-74,24.33l-27.56,9.06-.9,3.82c-.48,2.12-6.15,27.14-12.56,55.54S300.67,374,297.44,388.22c-4.82,21.15-5.78,26-5.19,26.34a13.48,13.48,0,0,0,4.29.48c3.44,0,6.36-1.06,69.64-24.7C408.37,374.55,433.12,365,434.65,364a14.9,14.9,0,0,0,3.92-4c1.11-1.86,5.67-18.55,20.56-75.79,10.49-40.39,18.76-71,18.81-75.52,0-2.38-.64-6.09-1.22-6C476.52,202.57,455.48,209.51,430,217.88Z" transform="translate(-13.27 -14.69)"/>
  <path class="cls-22" d="M200.82,152.53a16.71,16.71,0,0,0-1.85,3.6c-.32.85-6.78,34.71-14.36,75.21-10.49,55.76-13.78,74.15-13.51,75.79a25.52,25.52,0,0,0,1.64,4.93c1.22,2.49,6.31,7,58,51.52,31.11,26.82,57.56,49.24,58.67,49.87s2.07.9,2.12.69c.16-.58,10.23-44.84,23.48-103.51,6.15-27.24,11.66-51.52,12.24-54s1-4.66,1-4.88-28-22.84-62.12-50.14-62.59-50-63.07-50.46C202.25,150.57,202,150.68,200.82,152.53Z" transform="translate(-13.27 -14.69)"/>
  <path class="cls-23" d="M274.75,127c-54,15.79-67.95,20.09-69.69,21.31-1.17.85-2.17,1.8-2.17,2.17s28.2,23.16,62.65,50.72l62.7,50.14,57.35-18.81c31.59-10.33,64.87-21.25,74-24.27s16.75-5.72,16.85-6c.64-2-4.66-6.09-62.43-48.49-32.75-24-60.84-44.31-62.43-45.16C346.25,105.84,349.38,105.1,274.75,127Z" transform="translate(-13.27 -14.69)"/>
  <path class="cls-24" d="M211.21,146a45.57,45.57,0,0,0-4.77,1.54,13.14,13.14,0,0,0-7.79,10l-.48,2.54L258.59,209c33.34,26.92,61.69,49.45,63,50.14l3,1.54,4.77.85,2.7-.42c5.25-.9,8.37-7.68,6-13.2-.74-1.8-4.45-5.78-8.32-8.9Z" transform="translate(-13.27 -14.69)"/>
  <path class="cls-25" d="M318,256.41l-17.28,74.36-17.81,77.38,3.92,3.29c3.44,3.07,5.09,3.6,8.9,3.66,2.6.05,6-1,9.22-2.17l35.19-156.77Z" transform="translate(-13.27 -14.69)"/>
  <path class="cls-26" d="M399.41,218c-38.21,12.88-67.15,22.68-67.36,22.84l2,10.86,4.82,9.54,69.11-23.16,68.85-23.27.69-2.76c1-4.61.58-6.94-.74-10.18-1.22-2.38-4.19-4.56-7.47-7.21Z" transform="translate(-13.27 -14.69)"/>
  <path class="cls-27" d="M318,256.41l21,4.82-9.33-8.43Z" transform="translate(-13.27 -14.69)"/>
  <path class="cls-28" d="M318,256.41l9.8-10.92,1.91,7.37Z" transform="translate(-13.27 -14.69)"/>
  <path class="cls-29" d="M335.54,251.06l-7.74-5.51,1.85,7.31Z" transform="translate(-13.27 -14.69)"/>
  <path class="cls-30" d="M335.54,251,339,261.24l-9.33-8.37Z" transform="translate(-13.27 -14.69)"/>
  <path class="cls-31" d="M332,240.88l-4.24,4.66,7.74,5.51Z" transform="translate(-13.27 -14.69)"/>
  <path class="cls-32" d="M340.31,252.86a10.65,10.65,0,1,1-10.65-10.65,10.65,10.65,0,0,1,10.65,10.65" transform="translate(-13.27 -14.69)"/>
  <path class="cls-33" d="M333.05,120.63c-5.62,1.59-8.37,4.56-7.68,8.16.9,4.29,8.37,9.7,16.43,11.71,5.14,1.33,13.14,1.43,17.17.21,3.55-1.06,6.89-4.13,6.89-6.31,0-5.09-7.1-10.71-16.69-13.25C344.5,119.89,336.55,119.67,333.05,120.63Z" transform="translate(-13.27 -14.69)"/>
  <path class="cls-34" d="M248.46,145.64c-4.5,1-7.79,3.39-8.74,6.31-1.7,5.14,5.83,11.87,16.38,14.57,5.19,1.38,13,1.48,17.17.26,3.23-1,6.52-3.39,7.31-5.51,2-5.14-5.78-12.3-16.27-14.95C260.44,145.33,251.54,145,248.46,145.64Z" transform="translate(-13.27 -14.69)"/>
  <path class="cls-35" d="M372,147.76c-7.58,1.7-10.71,5.41-8.74,10.44,1.27,3.34,8.48,8.21,14.84,10.07,13,3.76,25.44.58,25.44-6.47,0-3.76-5.78-9.22-12.4-11.71C385.26,147.92,376.19,146.81,372,147.76Z" transform="translate(-13.27 -14.69)"/>
  <path class="cls-36" d="M286.73,173.89a28.12,28.12,0,0,0-5.51,1.85c-8.27,4.08-5.72,12.14,5.41,17.49a36.36,36.36,0,0,0,16.16,3.6c6.36.05,10.44-1.17,13.36-3.87,1.75-1.7,2-2.28,2-4.29,0-5-4.82-9.65-13.2-12.67A37,37,0,0,0,286.73,173.89Z" transform="translate(-13.27 -14.69)"/>
  <path class="cls-37" d="M410.38,176c-6.2,1.11-9.54,3.76-9.54,7.47,0,2.65.9,4.45,3.55,6.89,5.83,5.56,15.85,8.85,25,8.27,5.78-.37,8.27-1.22,10.76-3.6,1.64-1.54,2-2.28,2-3.87,0-5.67-6.62-11.18-16.91-14C420.82,175.91,413.77,175.38,410.38,176Z" transform="translate(-13.27 -14.69)"/>
  <path class="cls-38" d="M322,203.78c-5.09,1.59-7.58,4.24-7.58,8,0,2.65,1.06,4.45,4.29,7.37,5.67,5.09,12.93,7.47,22.74,7.47,5.78,0,7-.16,9.33-1.22,7.31-3.29,8-9,1.7-14.68-5.46-4.88-13.89-7.68-22.9-7.63A35.64,35.64,0,0,0,322,203.78Z" transform="translate(-13.27 -14.69)"/>
  <path class="cls-39" d="M448.12,233.15c-13.41,4.77-24.8,25.23-18.34,33,5.41,6.41,19.56-1.27,26.45-14.42C462.74,239.29,458.45,229.49,448.12,233.15Z" transform="translate(-13.27 -14.69)"/>
  <path class="cls-40" d="M392.09,296.27c-7.95,3.76-15.21,12.61-17.49,21.31-1.06,3.82-1,6.15.21,8.8,1.33,2.91,3.55,4.08,7.16,3.76,7.79-.64,16.8-8.43,21.57-18.71,3.13-6.68,2.6-14-1.17-15.9C399.89,294.2,395.7,294.52,392.09,296.27Z" transform="translate(-13.27 -14.69)"/>
  <path class="cls-41" d="M337.77,358.65c-10.55,5.25-19.5,19.45-17.49,27.82,1.17,4.88,5.14,6.63,10.92,4.82,12.35-3.87,24-21.41,20.14-30.47-1.17-2.81-2.65-3.76-6.31-4C342.06,356.69,341.32,356.85,337.77,358.65Z" transform="translate(-13.27 -14.69)"/>
  <path class="cls-42" d="M235.48,264.63a8.63,8.63,0,0,0-4,4.13c-3.13,5.78-2.28,16.54,1.91,24.38,4.77,9,12.88,13.41,18,9.91,4-2.7,5.46-6.68,5.14-14.42-.37-8.21-3.23-15.16-8.53-20.4C243.75,263.89,239.35,262.61,235.48,264.63Z" transform="translate(-13.27 -14.69)"/>
  <path class="cls-43" d="M191.81,281c-4.08,1.22-6.68,6.41-6.68,13.14a30.18,30.18,0,0,0,3.71,14.68c4.5,9.27,12.24,13.73,17.54,10.18,5.94-3.87,6.31-17.33.85-27.67-2.49-4.61-7-9-10.49-10C193.61,280.32,193.93,280.37,191.81,281Z" transform="translate(-13.27 -14.69)"/>
  <path class="cls-44" d="M262.24,341.9c-1.59.64-3.82,3.18-4.77,5.51-4.13,9.91,2.54,28.14,12,32.86,7.15,3.55,12.72.05,14.2-9,1.75-10.65-5.46-25.6-14-29.2C267.7,341.32,263.94,341.16,262.24,341.9Z" transform="translate(-13.27 -14.69)"/>
  <path class="cls-45" d="M282.91,246.61c-4,2.17-6.09,6.15-6.47,12.4a31.63,31.63,0,0,0,8.11,23c3.55,3.82,6.41,5.3,10.33,5.3s6.25-1.64,8.21-5.62c6.25-12.77-4.45-35.77-16.59-35.72A9.76,9.76,0,0,0,282.91,246.61Z" transform="translate(-13.27 -14.69)"/>
  <path class="cls-46" d="M207.65,188.31c-2.49,2.17-3.82,4.82-4.5,9.06-1.32,8.43,2.23,19.13,8.43,25.33s12.67,5.88,16.11-.48c4.45-8.21,1.86-22.31-5.67-30.69-3.07-3.39-6.09-4.93-9.75-4.93C210,186.61,209.24,186.88,207.65,188.31Z" transform="translate(-13.27 -14.69)"/>
</svg>
