<?xml version="1.0" encoding="UTF-8" standalone="no"?>
<!DOCTYPE svg PUBLIC "-//W3C//DTD SVG 1.1//EN" "http://www.w3.org/Graphics/SVG/1.1/DTD/svg11.dtd">
<svg viewBox="0 0 200 200" height="200.0pt" width="200.0pt" xmlns="http://www.w3.org/2000/svg" version="1.1">
<path d="M 0.00 0.00 L 200.00 0.00 L 200.00 200.00 L 0.00 200.00 L 0.00 0.00 Z" fill="#000000" />
<path d="M 120.26 14.42 L 120.40 15.23 C 121.12 19.92 120.68 24.54 120.06 29.21 C 108.10 25.66 95.43 25.77 83.41 28.99 C 82.46 24.06 82.18 19.48 82.83 14.48 C 94.94 11.36 108.12 11.48 120.26 14.42 Z" fill="#fffffe" />
<path d="M 82.83 14.48 C 82.18 19.48 82.46 24.06 83.41 28.99 C 95.43 25.77 108.10 25.66 120.06 29.21 C 120.68 24.54 121.12 19.92 120.40 15.23 C 125.96 15.31 130.45 17.59 135.45 19.75 C 141.26 22.57 146.82 26.09 151.72 30.29 C 152.88 31.20 153.44 32.42 154.09 33.70 C 149.66 35.56 145.76 38.22 141.85 40.97 C 143.68 42.62 145.50 44.25 147.10 46.13 C 147.46 49.66 149.80 51.57 151.51 54.44 C 153.42 57.59 155.04 60.98 156.37 64.42 L 155.13 65.52 C 150.34 51.49 138.29 39.89 124.66 34.37 C 104.06 25.75 79.12 29.44 62.34 44.30 C 58.61 47.68 55.34 51.57 52.53 55.74 C 51.14 51.15 57.47 48.99 57.86 44.13 C 58.98 42.95 60.18 41.86 61.37 40.75 C 57.22 37.61 53.04 35.23 48.28 33.17 C 57.51 23.82 70.11 17.48 82.83 14.48 Z" fill="#494949" />
<path d="M 124.66 34.37 C 138.29 39.89 150.34 51.49 155.13 65.52 C 155.65 68.96 156.67 72.53 156.66 75.99 C 156.68 78.27 155.57 80.42 154.82 82.55 C 154.62 72.23 151.25 62.20 145.00 53.99 C 137.79 44.30 127.15 37.70 115.53 34.68 C 113.92 34.39 112.22 34.47 110.59 34.40 C 105.87 33.57 101.15 33.58 96.38 33.74 C 93.67 33.65 91.01 33.74 88.38 34.47 C 76.36 37.38 64.75 44.33 57.59 54.56 C 51.29 62.72 48.89 72.30 47.87 82.39 C 45.36 77.50 46.55 72.77 47.66 67.69 C 48.70 63.38 50.89 59.79 52.53 55.74 C 55.34 51.57 58.61 47.68 62.34 44.30 C 79.12 29.44 104.06 25.75 124.66 34.37 Z" fill="#1c1f24" />
<path d="M 48.28 33.17 C 53.04 35.23 57.22 37.61 61.37 40.75 C 60.18 41.86 58.98 42.95 57.86 44.13 C 50.55 51.16 45.46 60.23 43.02 70.06 C 38.95 68.56 35.01 67.02 31.33 64.69 L 30.05 63.81 L 29.00 63.01 C 31.78 54.03 36.40 45.63 42.57 38.52 C 44.37 36.51 45.87 34.50 48.28 33.17 Z" fill="#fefefd" />
<path d="M 88.38 34.47 C 91.01 33.74 93.67 33.65 96.38 33.74 C 91.47 35.10 86.53 35.69 81.77 37.64 C 65.86 43.81 53.12 57.67 50.34 74.78 C 48.96 82.69 50.92 90.74 52.98 98.35 C 49.10 93.94 50.93 88.90 48.37 83.66 L 48.18 83.16 L 47.87 82.39 C 48.89 72.30 51.29 62.72 57.59 54.56 C 64.75 44.33 76.36 37.38 88.38 34.47 Z" fill="#35537d" />
<path d="M 96.38 33.74 C 101.15 33.58 105.87 33.57 110.59 34.40 C 117.40 36.24 124.00 38.12 129.99 42.00 C 144.74 51.06 154.72 67.67 152.96 85.28 C 151.99 94.16 149.02 102.41 143.52 109.50 C 132.47 124.08 114.07 131.19 96.02 129.51 C 83.11 128.28 70.82 122.31 62.06 112.71 C 58.20 108.40 55.21 103.69 52.98 98.35 C 50.92 90.74 48.96 82.69 50.34 74.78 C 53.12 57.67 65.86 43.81 81.77 37.64 C 86.53 35.69 91.47 35.10 96.38 33.74 Z" fill="#90aed0" />
<path d="M 110.59 34.40 C 112.22 34.47 113.92 34.39 115.53 34.68 C 127.15 37.70 137.79 44.30 145.00 53.99 C 151.25 62.20 154.62 72.23 154.82 82.55 L 154.63 83.26 C 154.52 83.67 154.40 84.08 154.29 84.48 L 152.96 85.28 C 154.72 67.67 144.74 51.06 129.99 42.00 C 124.00 38.12 117.40 36.24 110.59 34.40 Z" fill="#35537c" />
<path d="M 154.09 33.70 L 155.22 33.23 C 164.21 41.29 170.36 51.71 174.12 63.14 C 173.63 63.50 173.15 63.86 172.66 64.22 C 171.38 65.11 170.09 65.99 168.73 66.76 C 165.87 68.07 162.99 69.33 160.05 70.44 C 157.92 61.36 153.44 52.97 147.10 46.13 C 145.50 44.25 143.68 42.62 141.85 40.97 C 145.76 38.22 149.66 35.56 154.09 33.70 Z" fill="#fefefd" />
<path d="M 129.80 44.03 C 129.71 45.61 129.67 47.18 129.63 48.76 C 128.28 48.34 126.83 47.78 125.41 47.68 C 124.15 48.08 122.96 48.72 121.77 49.28 C 116.90 46.09 111.62 43.96 105.73 43.98 C 98.43 43.26 91.98 45.44 85.27 47.93 C 80.28 49.67 75.49 51.55 71.40 54.99 C 70.58 55.65 69.78 56.33 69.00 57.03 C 68.79 56.19 68.58 55.36 68.36 54.53 C 66.87 54.55 65.45 54.47 64.00 54.16 C 65.51 52.15 67.56 50.99 67.57 48.29 C 84.36 33.43 111.05 31.99 129.80 44.03 Z" fill="#4d4e4e" />
<path d="M 105.73 43.98 C 106.91 44.39 108.07 44.84 109.24 45.29 C 109.22 46.14 109.21 46.99 109.20 47.83 C 110.98 48.34 112.91 48.75 114.60 49.54 C 115.40 50.49 115.97 51.65 116.61 52.71 C 117.90 52.94 119.20 53.17 120.49 53.40 C 120.45 53.78 120.41 54.16 120.36 54.54 C 117.19 54.08 112.81 54.20 111.79 57.95 L 111.65 58.32 C 110.32 57.67 109.00 57.02 107.67 56.38 C 107.68 56.05 107.70 55.72 107.71 55.39 C 111.37 55.33 113.05 54.86 115.37 51.99 C 111.55 48.47 107.19 48.94 103.94 52.87 L 103.16 53.59 C 98.93 53.19 96.39 51.25 93.22 48.71 C 90.92 48.67 88.62 49.86 86.29 50.03 L 85.27 47.93 C 91.98 45.44 98.43 43.26 105.73 43.98 Z" fill="#25304a" />
<path d="M 105.73 43.98 C 111.62 43.96 116.90 46.09 121.77 49.28 C 122.92 50.08 124.06 50.91 125.16 51.79 C 125.63 52.36 126.09 52.94 126.54 53.52 C 125.49 53.72 124.44 53.92 123.38 54.13 C 123.49 55.19 123.60 56.25 123.67 57.31 L 122.53 58.02 C 122.47 56.08 121.75 55.67 120.36 54.54 C 120.41 54.16 120.45 53.78 120.49 53.40 C 119.20 53.17 117.90 52.94 116.61 52.71 C 115.97 51.65 115.40 50.49 114.60 49.54 C 112.91 48.75 110.98 48.34 109.20 47.83 C 109.21 46.99 109.22 46.14 109.24 45.29 C 108.07 44.84 106.91 44.39 105.73 43.98 Z" fill="#14294d" />
<path d="M 129.80 44.03 C 134.07 46.80 138.13 50.21 141.22 54.28 C 141.76 57.08 143.02 59.53 144.18 62.10 C 141.03 62.25 138.65 62.76 136.06 60.47 C 135.93 60.69 135.80 60.90 135.67 61.12 C 136.90 63.25 136.70 64.34 136.20 66.68 C 135.64 65.75 135.08 64.82 134.51 63.89 C 132.33 58.97 129.70 54.85 125.16 51.79 C 124.06 50.91 122.92 50.08 121.77 49.28 C 122.96 48.72 124.15 48.08 125.41 47.68 C 126.83 47.78 128.28 48.34 129.63 48.76 C 129.67 47.18 129.71 45.61 129.80 44.03 Z" fill="#464646" />
<path d="M 57.86 44.13 C 57.47 48.99 51.14 51.15 52.53 55.74 C 50.89 59.79 48.70 63.38 47.66 67.69 C 46.55 72.77 45.36 77.50 47.87 82.39 L 48.18 83.16 C 41.42 82.09 35.56 79.21 29.32 76.60 C 29.04 72.36 30.02 68.67 31.33 64.69 C 35.01 67.02 38.95 68.56 43.02 70.06 C 45.46 60.23 50.55 51.16 57.86 44.13 Z" fill="#333333" />
<path d="M 107.05 47.18 C 107.50 49.29 105.33 50.11 103.74 50.73 C 100.62 51.53 98.35 51.01 96.15 48.65 C 98.27 44.98 103.98 44.50 107.05 47.18 Z" fill="#fdffff" />
<path d="M 147.10 46.13 C 153.44 52.97 157.92 61.36 160.05 70.44 C 162.99 69.33 165.87 68.07 168.73 66.76 C 170.08 66.66 171.43 66.60 172.78 66.54 C 173.30 69.92 173.66 73.28 173.73 76.69 C 167.70 79.59 161.27 82.20 154.63 83.26 L 154.82 82.55 C 155.57 80.42 156.68 78.27 156.66 75.99 C 156.67 72.53 155.65 68.96 155.13 65.52 L 156.37 64.42 C 155.04 60.98 153.42 57.59 151.51 54.44 C 149.80 51.57 147.46 49.66 147.10 46.13 Z" fill="#323232" />
<path d="M 85.27 47.93 L 86.29 50.03 C 88.62 49.86 90.92 48.67 93.22 48.71 C 96.39 51.25 98.93 53.19 103.16 53.59 L 103.94 52.87 C 105.17 53.75 106.40 54.62 107.71 55.39 C 107.70 55.72 107.68 56.05 107.67 56.38 C 109.00 57.02 110.32 57.67 111.65 58.32 L 111.79 57.95 C 115.00 60.89 119.13 60.28 122.53 58.02 L 123.67 57.31 C 123.60 56.25 123.49 55.19 123.38 54.13 C 124.44 53.92 125.49 53.72 126.54 53.52 C 128.01 55.87 127.70 56.84 126.80 59.32 C 124.33 60.05 121.89 61.06 119.37 61.58 C 117.21 61.97 114.76 61.29 112.61 60.92 C 108.86 60.20 105.15 60.42 101.34 60.46 C 101.72 61.81 102.13 63.15 102.47 64.51 C 98.08 61.51 95.08 62.01 91.20 65.41 C 88.33 65.00 85.70 64.77 83.33 62.91 L 82.16 61.65 C 79.76 60.85 77.11 60.51 74.80 59.48 C 72.83 58.55 72.40 56.77 71.40 54.99 C 75.49 51.55 80.28 49.67 85.27 47.93 Z" fill="#1f3a64" />
<path d="M 67.57 48.29 C 67.56 50.99 65.51 52.15 64.00 54.16 C 65.45 54.47 66.87 54.55 68.36 54.53 C 68.58 55.36 68.79 56.19 69.00 57.03 C 67.70 58.78 66.56 60.62 65.61 62.58 C 63.64 67.14 64.38 72.99 64.38 77.87 C 61.24 75.79 57.90 75.60 54.27 75.40 C 54.74 72.61 55.44 70.11 54.32 67.35 C 56.91 59.89 61.60 53.43 67.57 48.29 Z" fill="#3c3c3c" />
<path d="M 115.37 51.99 C 113.05 54.86 111.37 55.33 107.71 55.39 C 106.40 54.62 105.17 53.75 103.94 52.87 C 107.19 48.94 111.55 48.47 115.37 51.99 Z" fill="#fdfeff" />
<path d="M 125.16 51.79 C 129.70 54.85 132.33 58.97 134.51 63.89 C 131.84 62.51 129.21 61.12 126.80 59.32 C 127.70 56.84 128.01 55.87 126.54 53.52 C 126.09 52.94 125.63 52.36 125.16 51.79 Z" fill="#445ba8" />
<path d="M 87.06 56.18 C 84.23 60.10 79.03 60.81 75.75 56.99 C 78.28 52.91 83.84 52.78 87.06 56.18 Z" fill="#fcfefe" />
<path d="M 71.40 54.99 C 72.40 56.77 72.83 58.55 74.80 59.48 C 77.11 60.51 79.76 60.85 82.16 61.65 L 83.33 62.91 C 81.41 63.24 79.50 63.61 77.60 64.01 C 76.60 63.50 75.58 63.02 74.55 62.56 L 73.51 63.52 C 70.89 62.55 68.13 63.39 65.61 62.58 C 66.56 60.62 67.70 58.78 69.00 57.03 C 69.78 56.33 70.58 55.65 71.40 54.99 Z" fill="#214894" />
<path d="M 120.36 54.54 C 121.75 55.67 122.47 56.08 122.53 58.02 C 119.13 60.28 115.00 60.89 111.79 57.95 C 112.81 54.20 117.19 54.08 120.36 54.54 Z" fill="#fbfeff" />
<path d="M 141.22 54.28 C 146.77 61.01 150.56 69.71 151.01 78.46 C 150.32 80.75 149.75 83.04 149.31 85.40 C 145.49 86.37 141.63 87.15 137.76 87.93 C 138.10 84.40 138.06 80.89 137.85 77.35 C 137.83 73.67 137.14 70.21 136.20 66.68 C 136.70 64.34 136.90 63.25 135.67 61.12 C 135.80 60.90 135.93 60.69 136.06 60.47 C 138.65 62.76 141.03 62.25 144.18 62.10 C 143.02 59.53 141.76 57.08 141.22 54.28 Z" fill="#343434" />
<path d="M 95.08 60.25 C 92.74 64.16 86.36 65.22 83.86 61.02 C 86.54 57.06 91.76 57.00 95.08 60.25 Z" fill="#fafefd" />
<path d="M 126.80 59.32 C 129.21 61.12 131.84 62.51 134.51 63.89 C 135.08 64.82 135.64 65.75 136.20 66.68 C 137.14 70.21 137.83 73.67 137.85 77.35 C 136.41 72.27 135.13 67.56 130.57 64.35 C 128.72 62.89 125.83 64.01 123.77 64.55 C 116.66 67.00 109.70 70.27 103.47 74.50 C 100.62 76.39 99.72 79.15 98.26 82.06 C 97.54 83.18 96.77 84.27 96.00 85.37 C 94.92 85.05 93.84 84.76 92.75 84.50 L 92.10 84.33 C 90.25 80.97 89.06 77.39 87.75 73.81 C 89.73 75.11 91.79 76.52 94.00 77.42 C 95.81 76.88 96.98 74.53 98.26 73.21 C 100.70 69.59 106.51 70.41 110.18 67.98 C 105.95 67.86 102.04 68.94 97.97 69.90 C 95.89 70.41 94.16 69.52 92.14 69.04 C 89.47 68.26 86.78 68.35 84.10 67.71 C 81.78 67.00 79.68 65.25 77.60 64.01 C 79.50 63.61 81.41 63.24 83.33 62.91 C 85.70 64.77 88.33 65.00 91.20 65.41 C 93.69 69.67 101.01 69.41 102.47 64.51 C 102.13 63.15 101.72 61.81 101.34 60.46 C 105.15 60.42 108.86 60.20 112.61 60.92 C 114.76 61.29 117.21 61.97 119.37 61.58 C 121.89 61.06 124.33 60.05 126.80 59.32 Z" fill="#2b5b9b" />
<path d="M 65.61 62.58 C 68.13 63.39 70.89 62.55 73.51 63.52 C 78.78 66.43 83.32 69.74 87.75 73.81 C 89.06 77.39 90.25 80.97 92.10 84.33 C 90.93 85.88 89.74 87.08 88.12 88.17 C 86.81 87.90 85.51 87.64 84.20 87.38 C 84.00 88.57 83.81 89.76 83.61 90.95 C 83.23 89.91 82.86 88.88 82.47 87.85 C 81.74 85.68 80.40 84.13 78.70 82.64 C 78.08 82.05 77.47 81.44 76.87 80.83 C 78.39 80.65 79.63 81.10 81.02 81.63 C 80.87 80.79 80.73 79.95 80.58 79.11 C 77.12 77.70 74.50 78.67 71.02 79.17 C 69.33 78.23 67.86 76.70 66.41 75.41 C 66.28 78.35 66.07 81.27 65.84 84.21 C 65.33 82.09 64.73 80.02 64.38 77.87 C 64.38 72.99 63.64 67.14 65.61 62.58 Z" fill="#1e3c6c" />
<path d="M 74.55 62.56 C 75.58 63.02 76.60 63.50 77.60 64.01 C 79.68 65.25 81.78 67.00 84.10 67.71 C 86.78 68.35 89.47 68.26 92.14 69.04 C 94.16 69.52 95.89 70.41 97.97 69.90 C 102.04 68.94 105.95 67.86 110.18 67.98 C 106.51 70.41 100.70 69.59 98.26 73.21 C 96.98 74.53 95.81 76.88 94.00 77.42 C 91.79 76.52 89.73 75.11 87.75 73.81 C 83.32 69.74 78.78 66.43 73.51 63.52 L 74.55 62.56 Z" fill="#4b6cb2" />
<path d="M 102.47 64.51 C 101.01 69.41 93.69 69.67 91.20 65.41 C 95.08 62.01 98.08 61.51 102.47 64.51 Z" fill="#fdfefe" />
<path d="M 30.05 63.81 L 31.33 64.69 C 30.02 68.67 29.04 72.36 29.32 76.60 C 35.56 79.21 41.42 82.09 48.18 83.16 L 48.37 83.66 C 48.35 86.96 48.52 90.17 49.08 93.43 C 48.50 93.48 47.91 93.53 47.32 93.57 C 48.58 96.10 48.75 98.74 48.96 101.51 C 44.75 98.93 46.32 94.50 43.94 90.38 C 40.35 92.37 36.70 94.20 33.01 96.01 L 33.90 97.59 C 32.54 98.37 31.21 99.24 29.93 100.15 C 27.04 96.64 27.08 92.73 26.48 88.43 C 25.82 81.54 26.00 74.40 27.55 67.63 C 27.87 65.90 28.77 64.93 30.05 63.81 Z" fill="#1e1e1e" />
<path d="M 130.57 64.35 C 135.13 67.56 136.41 72.27 137.85 77.35 C 138.06 80.89 138.10 84.40 137.76 87.93 C 137.65 88.69 137.52 89.45 137.38 90.21 C 137.39 87.25 137.17 84.33 136.95 81.38 C 135.42 81.70 133.83 82.23 132.27 82.25 C 130.43 81.87 128.65 81.11 126.84 80.58 L 126.65 80.53 C 126.02 81.12 125.39 81.71 124.76 82.31 C 123.92 82.29 123.08 82.26 122.24 82.23 C 122.82 83.82 123.41 85.41 123.97 87.00 C 123.48 86.68 122.99 86.36 122.49 86.04 C 121.45 84.83 120.91 83.16 119.03 83.28 C 115.17 83.54 112.32 87.46 113.31 91.28 C 109.76 90.05 106.02 89.26 102.35 88.45 C 100.75 89.99 99.19 91.58 97.56 93.10 C 97.48 89.38 97.47 85.71 98.26 82.06 C 99.72 79.15 100.62 76.39 103.47 74.50 C 109.70 70.27 116.66 67.00 123.77 64.55 C 125.83 64.01 128.72 62.89 130.57 64.35 Z" fill="#162b51" />
<path d="M 172.66 64.22 C 174.50 65.16 175.01 65.60 175.45 67.61 C 177.77 78.02 177.26 88.76 174.56 99.04 C 170.68 97.68 166.34 93.29 162.21 94.69 C 161.45 94.47 160.70 94.25 159.96 94.00 L 158.07 93.29 C 157.89 94.39 157.71 95.49 157.53 96.58 C 157.06 96.13 156.59 95.67 156.13 95.20 C 155.03 93.95 154.25 92.56 153.60 91.03 C 153.85 88.85 154.06 86.67 154.29 84.48 C 154.40 84.08 154.52 83.67 154.63 83.26 C 161.27 82.20 167.70 79.59 173.73 76.69 C 173.66 73.28 173.30 69.92 172.78 66.54 C 171.43 66.60 170.08 66.66 168.73 66.76 C 170.09 65.99 171.38 65.11 172.66 64.22 Z" fill="#1d1d1d" />
<path d="M 54.32 67.35 C 55.44 70.11 54.74 72.61 54.27 75.40 C 57.90 75.60 61.24 75.79 64.38 77.87 C 64.73 80.02 65.33 82.09 65.84 84.21 C 66.13 85.54 66.42 86.86 66.78 88.17 C 61.71 87.37 56.71 86.24 51.73 84.98 C 51.64 78.96 52.18 73.03 54.32 67.35 Z" fill="#2f2f2f" />
<path d="M 69.05 68.62 C 72.73 69.05 75.98 75.65 72.10 78.05 C 69.66 76.18 67.76 74.23 67.61 70.96 C 67.73 69.79 68.21 69.02 69.05 68.62 Z" fill="#fcfeff" />
<path d="M 66.41 75.41 C 67.86 76.70 69.33 78.23 71.02 79.17 C 74.50 78.67 77.12 77.70 80.58 79.11 C 80.73 79.95 80.87 80.79 81.02 81.63 C 79.63 81.10 78.39 80.65 76.87 80.83 C 77.47 81.44 78.08 82.05 78.70 82.64 C 76.68 82.63 75.90 84.20 76.24 86.03 C 76.58 88.07 77.92 89.72 79.08 91.36 C 78.02 91.57 76.96 91.81 75.90 92.07 C 74.82 90.43 72.89 86.72 70.50 88.45 C 68.43 91.26 72.26 98.62 76.13 96.33 L 75.94 96.84 C 75.47 97.52 75.01 98.21 74.55 98.90 C 74.57 99.63 74.58 100.37 74.60 101.10 C 71.19 97.47 69.04 92.57 66.78 88.17 C 66.42 86.86 66.13 85.54 65.84 84.21 C 66.07 81.27 66.28 78.35 66.41 75.41 Z" fill="#285084" />
<path d="M 84.82 77.51 C 87.30 79.27 89.43 81.82 89.15 85.03 C 88.70 86.85 87.33 87.31 85.84 86.22 C 83.43 84.28 80.84 79.31 84.82 77.51 Z" fill="#fcfeff" />
<path d="M 106.32 78.32 C 109.15 76.64 112.13 78.87 111.37 82.04 C 110.59 85.21 105.93 89.14 103.04 85.87 C 101.30 83.14 103.84 79.59 106.32 78.32 Z" fill="#fcfefe" />
<path d="M 151.01 78.46 C 151.39 83.39 151.42 88.21 150.03 93.00 C 146.00 108.51 133.55 120.59 118.49 125.56 C 99.77 131.91 77.96 127.18 64.19 112.83 C 57.00 105.35 52.27 95.38 51.73 84.98 C 56.71 86.24 61.71 87.37 66.78 88.17 C 69.04 92.57 71.19 97.47 74.60 101.10 C 78.45 104.77 82.58 108.02 87.45 110.23 C 94.27 113.73 101.40 113.17 108.71 111.87 C 112.89 110.89 116.97 109.08 120.77 107.12 C 124.96 105.19 128.97 103.01 132.48 99.98 C 135.59 97.48 136.68 93.99 137.38 90.21 C 137.52 89.45 137.65 88.69 137.76 87.93 C 141.63 87.15 145.49 86.37 149.31 85.40 C 149.75 83.04 150.32 80.75 151.01 78.46 Z" fill="#161616" />
<path d="M 126.65 80.53 L 126.84 80.58 C 128.65 81.11 130.43 81.87 132.27 82.25 C 133.83 82.23 135.42 81.70 136.95 81.38 C 137.17 84.33 137.39 87.25 137.38 90.21 C 136.68 93.99 135.59 97.48 132.48 99.98 L 131.97 98.30 C 130.04 98.49 128.06 98.83 126.12 98.82 C 124.59 98.24 123.49 96.48 122.42 95.29 C 123.27 92.95 123.94 90.59 124.38 88.14 C 122.75 89.88 121.18 91.90 119.24 93.31 C 117.77 94.46 116.20 93.95 114.44 94.02 C 114.61 93.46 114.79 92.90 114.96 92.34 C 119.21 93.22 121.42 89.53 122.49 86.04 C 122.99 86.36 123.48 86.68 123.97 87.00 C 123.41 85.41 122.82 83.82 122.24 82.23 C 123.08 82.26 123.92 82.29 124.76 82.31 C 125.39 81.71 126.02 81.12 126.65 80.53 Z" fill="#203d69" />
<path d="M 98.26 82.06 C 97.47 85.71 97.48 89.38 97.56 93.10 C 97.59 94.38 97.65 95.66 97.73 96.95 C 98.00 98.65 98.30 100.34 98.70 102.02 C 99.36 104.09 100.22 106.60 102.00 107.99 C 104.11 109.47 106.50 110.56 108.71 111.87 C 101.40 113.17 94.27 113.73 87.45 110.23 C 89.15 109.30 91.88 108.59 92.79 106.75 C 94.21 104.00 94.24 100.39 94.39 97.36 C 94.43 92.97 94.22 88.68 92.75 84.50 C 93.84 84.76 94.92 85.05 96.00 85.37 C 96.77 84.27 97.54 83.18 98.26 82.06 Z" fill="#6a93cb" />
<path d="M 78.70 82.64 C 80.40 84.13 81.74 85.68 82.47 87.85 C 82.53 90.38 82.06 92.25 79.08 91.36 C 77.92 89.72 76.58 88.07 76.24 86.03 C 75.90 84.20 76.68 82.63 78.70 82.64 Z" fill="#fcfefd" />
<path d="M 48.37 83.66 C 50.93 88.90 49.10 93.94 52.98 98.35 C 55.21 103.69 58.20 108.40 62.06 112.71 C 61.58 114.39 60.97 115.85 60.06 117.35 C 55.11 112.85 52.17 107.24 48.96 101.51 C 48.75 98.74 48.58 96.10 47.32 93.57 C 47.91 93.53 48.50 93.48 49.08 93.43 C 48.52 90.17 48.35 86.96 48.37 83.66 Z" fill="#262c36" />
<path d="M 92.10 84.33 L 92.75 84.50 C 94.22 88.68 94.43 92.97 94.39 97.36 C 92.57 96.71 90.74 96.06 88.92 95.41 C 88.88 95.63 88.84 95.85 88.80 96.08 C 89.30 97.23 89.60 98.27 89.76 99.51 C 88.54 98.53 87.25 97.75 85.88 97.17 C 84.56 98.94 84.66 100.21 84.79 102.31 C 84.13 101.55 83.49 100.78 82.86 100.00 C 83.30 98.44 84.06 97.09 84.78 95.64 C 81.87 96.33 78.92 96.63 75.94 96.84 L 76.13 96.33 C 76.19 94.92 76.11 93.50 75.90 92.07 C 76.96 91.81 78.02 91.57 79.08 91.36 C 82.06 92.25 82.53 90.38 82.47 87.85 C 82.86 88.88 83.23 89.91 83.61 90.95 C 83.81 89.76 84.00 88.57 84.20 87.38 C 85.51 87.64 86.81 87.90 88.12 88.17 C 89.74 87.08 90.93 85.88 92.10 84.33 Z" fill="#2d6198" />
<path d="M 119.03 83.28 C 120.91 83.16 121.45 84.83 122.49 86.04 C 121.42 89.53 119.21 93.22 114.96 92.34 C 114.41 91.99 113.86 91.64 113.31 91.28 C 112.32 87.46 115.17 83.54 119.03 83.28 Z" fill="#fdfefe" />
<path d="M 152.96 85.28 L 154.29 84.48 C 154.06 86.67 153.85 88.85 153.60 91.03 C 152.41 97.71 149.29 104.10 145.68 109.79 C 137.95 118.10 130.01 125.34 118.85 128.63 C 110.57 131.55 102.66 130.83 94.04 130.61 C 94.70 130.25 95.36 129.88 96.02 129.51 C 114.07 131.19 132.47 124.08 143.52 109.50 C 149.02 102.41 151.99 94.16 152.96 85.28 Z" fill="#22385a" />
<path d="M 75.90 92.07 C 76.11 93.50 76.19 94.92 76.13 96.33 C 72.26 98.62 68.43 91.26 70.50 88.45 C 72.89 86.72 74.82 90.43 75.90 92.07 Z" fill="#fcfefe" />
<path d="M 102.35 88.45 C 106.02 89.26 109.76 90.05 113.31 91.28 C 113.86 91.64 114.41 91.99 114.96 92.34 C 114.79 92.90 114.61 93.46 114.44 94.02 C 116.20 93.95 117.77 94.46 119.24 93.31 C 121.18 91.90 122.75 89.88 124.38 88.14 C 123.94 90.59 123.27 92.95 122.42 95.29 C 115.46 96.08 108.13 96.02 101.18 95.29 C 99.98 95.73 98.88 96.35 97.73 96.95 C 97.65 95.66 97.59 94.38 97.56 93.10 C 99.19 91.58 100.75 89.99 102.35 88.45 Z" fill="#284c7e" />
<path d="M 128.13 89.09 C 130.45 87.83 132.57 88.41 133.49 90.96 C 134.07 94.51 129.27 99.36 125.77 97.25 C 122.74 94.71 125.49 90.62 128.13 89.09 Z" fill="#fbfffe" />
<path d="M 43.94 90.38 C 46.32 94.50 44.75 98.93 48.96 101.51 C 52.17 107.24 55.11 112.85 60.06 117.35 C 63.75 120.96 67.74 124.23 72.29 126.71 C 76.84 129.37 81.72 130.77 86.52 132.82 C 85.54 133.57 84.55 134.32 83.57 135.07 L 83.04 135.47 C 82.92 135.98 82.81 136.50 82.71 137.02 C 82.23 136.34 81.74 135.67 81.24 134.99 C 80.91 139.63 80.93 144.27 80.87 148.91 C 69.58 145.86 58.34 140.45 49.77 132.40 C 50.46 131.37 51.11 130.38 51.44 129.18 C 54.83 127.39 57.97 125.23 61.12 123.04 C 52.13 115.42 45.54 105.15 42.92 93.61 C 39.85 94.80 36.80 96.00 33.90 97.59 L 33.01 96.01 C 36.70 94.20 40.35 92.37 43.94 90.38 Z" fill="#141414" />
<path d="M 153.60 91.03 C 154.25 92.56 155.03 93.95 156.13 95.20 C 154.78 101.71 151.32 107.07 147.34 112.28 C 146.79 111.45 146.23 110.62 145.68 109.79 C 149.29 104.10 152.41 97.71 153.60 91.03 Z" fill="#2a2b2c" />
<path d="M 158.07 93.29 L 159.96 94.00 C 157.31 105.49 150.67 115.64 141.69 123.19 C 145.76 126.27 149.89 128.67 154.56 130.72 C 152.07 133.25 149.69 135.78 146.66 137.69 C 139.19 142.62 130.84 146.82 122.07 148.77 C 122.02 144.94 121.97 141.11 121.84 137.28 C 121.25 137.47 120.66 137.66 120.07 137.85 C 119.91 136.90 119.74 135.96 119.57 135.02 C 118.25 135.34 116.92 135.68 115.58 135.95 C 113.21 135.49 111.14 135.36 108.77 135.88 C 102.09 137.21 94.90 136.40 88.33 134.87 C 87.78 134.21 87.23 133.55 86.69 132.89 C 93.49 133.79 100.11 134.80 107.00 134.06 C 122.47 132.63 138.00 124.89 147.34 112.28 C 151.32 107.07 154.78 101.71 156.13 95.20 C 156.59 95.67 157.06 96.13 157.53 96.58 C 157.71 95.49 157.89 94.39 158.07 93.29 Z" fill="#141414" />
<path d="M 42.92 93.61 C 45.54 105.15 52.13 115.42 61.12 123.04 C 57.97 125.23 54.83 127.39 51.44 129.18 C 50.21 129.73 48.98 130.28 47.75 130.81 C 38.98 122.70 32.55 112.32 28.96 100.94 L 29.93 100.15 C 31.21 99.24 32.54 98.37 33.90 97.59 C 36.80 96.00 39.85 94.80 42.92 93.61 Z" fill="#fdfefa" />
<path d="M 159.96 94.00 C 160.70 94.25 161.45 94.47 162.21 94.69 C 166.40 96.36 170.44 98.23 174.08 100.95 C 170.39 112.12 164.31 122.46 155.57 130.42 L 154.56 130.72 C 149.89 128.67 145.76 126.27 141.69 123.19 C 150.67 115.64 157.31 105.49 159.96 94.00 Z" fill="#fefefb" />
<path d="M 84.78 95.64 C 84.06 97.09 83.30 98.44 82.86 100.00 C 83.49 100.78 84.13 101.55 84.79 102.31 C 86.15 103.92 87.05 105.62 88.97 106.60 C 92.51 105.85 90.31 101.72 89.76 99.51 C 89.60 98.27 89.30 97.23 88.80 96.08 C 88.84 95.85 88.88 95.63 88.92 95.41 C 90.74 96.06 92.57 96.71 94.39 97.36 C 94.24 100.39 94.21 104.00 92.79 106.75 C 91.88 108.59 89.15 109.30 87.45 110.23 C 82.58 108.02 78.45 104.77 74.60 101.10 C 74.58 100.37 74.57 99.63 74.55 98.90 C 75.01 98.21 75.47 97.52 75.94 96.84 C 78.92 96.63 81.87 96.33 84.78 95.64 Z" fill="#3577b2" />
<path d="M 101.18 95.29 C 108.13 96.02 115.46 96.08 122.42 95.29 C 123.49 96.48 124.59 98.24 126.12 98.82 C 128.06 98.83 130.04 98.49 131.97 98.30 L 132.48 99.98 C 128.97 103.01 124.96 105.19 120.77 107.12 C 122.17 105.49 123.52 103.81 124.88 102.15 C 120.13 101.09 115.78 102.34 111.00 102.24 C 107.76 102.26 104.53 101.89 101.30 101.86 C 100.43 101.91 99.57 101.96 98.70 102.02 C 98.30 100.34 98.00 98.65 97.73 96.95 C 98.88 96.35 99.98 95.73 101.18 95.29 Z" fill="#2b5990" />
<path d="M 85.88 97.17 C 87.25 97.75 88.54 98.53 89.76 99.51 C 90.31 101.72 92.51 105.85 88.97 106.60 C 87.05 105.62 86.15 103.92 84.79 102.31 C 84.66 100.21 84.56 98.94 85.88 97.17 Z" fill="#f8ffff" />
<path d="M 101.30 101.86 C 104.53 101.89 107.76 102.26 111.00 102.24 C 115.78 102.34 120.13 101.09 124.88 102.15 C 123.52 103.81 122.17 105.49 120.77 107.12 C 116.97 109.08 112.89 110.89 108.71 111.87 C 106.50 110.56 104.11 109.47 102.00 107.99 C 100.22 106.60 99.36 104.09 98.70 102.02 C 99.57 101.96 100.43 101.91 101.30 101.86 Z" fill="#3268a7" />
<path d="M 145.68 109.79 C 146.23 110.62 146.79 111.45 147.34 112.28 C 138.00 124.89 122.47 132.63 107.00 134.06 C 100.11 134.80 93.49 133.79 86.69 132.89 L 86.52 132.82 C 81.72 130.77 76.84 129.37 72.29 126.71 C 67.74 124.23 63.75 120.96 60.06 117.35 C 60.97 115.85 61.58 114.39 62.06 112.71 C 70.82 122.31 83.11 128.28 96.02 129.51 C 95.36 129.88 94.70 130.25 94.04 130.61 C 102.66 130.83 110.57 131.55 118.85 128.63 C 130.01 125.34 137.95 118.10 145.68 109.79 Z" fill="#30363c" />
<path d="M 86.52 132.82 L 86.69 132.89 C 87.23 133.55 87.78 134.21 88.33 134.87 C 94.90 136.40 102.09 137.21 108.77 135.88 C 111.14 135.36 113.21 135.49 115.58 135.95 C 105.15 138.47 93.88 137.96 83.57 135.07 C 84.55 134.32 85.54 133.57 86.52 132.82 Z" fill="#1d1d1d" />
<path d="M 83.04 135.47 L 83.57 135.07 C 93.88 137.96 105.15 138.47 115.58 135.95 C 116.92 135.68 118.25 135.34 119.57 135.02 C 119.74 135.96 119.91 136.90 120.07 137.85 C 120.44 141.43 121.18 146.24 119.81 149.60 C 108.81 152.49 94.20 152.50 83.20 149.60 C 81.48 146.48 82.48 140.60 82.71 137.02 C 82.81 136.50 82.92 135.98 83.04 135.47 Z" fill="#fefefb" />
<path d="M 122.53 160.05 C 124.11 160.02 125.68 160.00 127.26 159.98 C 126.94 161.65 126.63 163.32 126.34 165.00 C 124.75 165.00 123.16 165.01 121.56 165.01 C 121.89 163.36 122.21 161.70 122.53 160.05 Z" fill="#fefefe" />
<path d="M 43.39 161.03 C 48.28 161.02 53.17 160.93 58.05 161.02 C 60.12 161.11 62.33 161.81 63.00 163.99 C 64.15 167.49 61.99 170.04 59.38 172.03 C 63.56 175.66 60.72 183.08 55.52 183.79 C 50.20 184.31 44.73 183.85 39.37 184.00 C 40.66 176.33 42.07 168.69 43.39 161.03 Z" fill="#fefefe" />
<path d="M 85.64 161.13 C 87.17 160.97 88.73 160.98 90.27 160.95 C 89.94 162.96 89.57 164.97 89.23 166.98 C 90.68 166.99 92.12 167.00 93.57 167.02 C 93.34 168.33 93.10 169.65 92.87 170.97 C 91.41 171.00 89.96 171.03 88.51 171.06 C 87.94 174.09 87.15 176.93 87.69 180.03 C 88.89 180.02 90.08 180.01 91.27 179.99 C 91.04 181.34 90.80 182.68 90.56 184.02 C 87.76 183.88 84.40 184.76 82.62 181.97 C 82.01 178.44 83.33 174.50 83.81 170.98 L 80.86 171.01 C 81.09 169.69 81.32 168.37 81.55 167.05 C 82.55 167.01 83.55 166.97 84.55 166.92 C 84.88 164.99 85.17 163.03 85.64 161.13 Z" fill="#fefefe" />
<path d="M 98.38 161.04 C 102.63 161.04 106.91 160.85 111.15 161.08 C 114.10 161.43 117.23 162.82 117.92 166.01 C 118.93 170.48 117.76 175.55 115.46 179.47 C 113.80 182.16 111.19 183.60 108.07 183.90 C 103.52 184.17 98.93 183.92 94.37 184.00 C 95.67 176.34 97.07 168.70 98.38 161.04 Z" fill="#fefefe" />
<path d="M 47.63 165.02 C 50.40 165.02 53.20 164.86 55.96 165.10 C 58.68 165.48 57.64 168.98 55.75 169.76 C 52.85 170.24 49.79 169.95 46.86 169.98 C 47.11 168.33 47.39 166.68 47.63 165.02 Z" fill="#000000" />
<path d="M 102.73 165.13 C 105.39 165.06 109.67 164.25 111.73 166.28 C 113.67 169.51 112.59 174.55 110.59 177.56 C 108.48 180.95 103.47 179.83 100.09 179.99 C 100.94 175.03 101.72 170.05 102.73 165.13 Z" fill="#010101" />
<path d="M 80.23 167.01 C 79.97 168.33 79.72 169.65 79.47 170.98 C 76.65 171.01 73.84 171.01 71.03 170.99 C 70.34 171.65 69.65 172.30 68.97 172.95 C 72.36 173.01 75.75 173.01 79.14 173.01 C 78.91 174.31 78.67 175.62 78.44 176.93 C 75.05 177.04 71.65 177.00 68.26 177.00 C 68.75 178.48 69.07 180.01 70.97 179.96 C 73.25 180.09 75.55 180.00 77.82 179.98 C 77.66 181.29 77.50 182.60 77.34 183.91 C 73.23 183.77 67.38 185.26 64.60 181.42 C 61.92 176.99 64.29 170.18 68.85 167.88 C 72.20 166.41 76.62 167.16 80.23 167.01 Z" fill="#fefefe" />
<path d="M 121.25 167.03 C 122.83 167.01 124.41 167.00 126.00 166.98 C 124.93 172.64 123.98 178.32 122.99 184.00 C 121.40 184.00 119.82 184.00 118.24 184.00 C 119.31 178.36 120.26 172.69 121.25 167.03 Z" fill="#ffffff" />
<path d="M 145.55 167.00 C 145.30 168.33 145.04 169.67 144.78 171.00 C 142.30 171.01 139.76 170.85 137.29 171.13 C 133.84 171.61 132.41 176.23 134.08 178.95 C 136.47 180.70 140.46 179.80 143.28 179.99 C 143.01 181.31 142.73 182.63 142.46 183.95 C 138.86 183.77 133.45 184.92 130.51 182.51 C 126.98 179.28 128.44 172.59 131.51 169.50 C 134.91 165.86 141.07 167.26 145.55 167.00 Z" fill="#fefefe" />
<path d="M 162.22 167.00 C 161.97 168.32 161.73 169.64 161.48 170.96 C 158.65 171.01 155.83 171.02 153.00 171.00 C 152.32 171.65 151.65 172.30 150.97 172.95 C 154.36 173.01 157.74 173.00 161.13 173.00 C 160.90 174.31 160.67 175.61 160.45 176.92 C 157.05 177.03 153.65 177.00 150.25 177.01 C 150.49 177.97 150.89 178.81 151.47 179.53 C 153.92 180.45 157.20 179.85 159.83 180.00 C 159.67 181.30 159.50 182.60 159.34 183.91 C 155.21 183.77 149.41 185.27 146.60 181.42 C 143.65 176.54 146.82 168.62 152.47 167.32 C 155.62 166.70 159.01 167.08 162.22 167.00 Z" fill="#fefefe" />
<path d="M 46.09 174.03 C 49.51 174.12 53.20 173.40 56.25 174.96 C 55.75 176.93 55.78 178.69 53.78 179.80 C 50.92 180.20 47.95 179.97 45.07 179.99 C 45.40 178.00 45.74 176.02 46.09 174.03 Z" fill="#000000" /></svg>
