<svg width="200" height="200" viewBox="0 0 200 200" fill="none" xmlns="http://www.w3.org/2000/svg">
<g clip-path="url(#clip0)">
<rect width="250" height="250" fill="white"/>
<path d="M42.6324 7.20001H115.302C149.648 7.20001 177.491 35.0428 177.491 69.3885V69.3885C177.491 103.734 149.648 131.577 115.302 131.577H42.6324V7.20001Z" fill="white"/>
<path fill-rule="evenodd" clip-rule="evenodd" d="M115.313 7.20001H42.6323H11.2L42.6323 21.9128V59.3493C50.8482 60.8631 57.339 58.1122 66.2498 54.3357C71.43 52.1402 77.4281 49.5981 85.0584 47.3458C100.482 43.8272 115.951 48.7823 116.53 55.8182C116.693 57.7954 114.912 59.4057 112.928 59.4C111.793 59.3968 110.445 58.8672 109.789 58.0441C108.599 61.004 106.12 63.5714 103.038 63.5627C101.22 63.5575 99.899 62.1466 99.9039 60.4108C99.906 59.6683 100.143 59.0279 100.657 58.6169C100.654 59.6915 101.523 60.565 102.597 60.5681C103.672 60.5711 104.546 59.7025 104.549 58.6279C104.552 57.5534 103.683 56.6798 102.609 56.6768C99.8808 56.669 97.6633 58.874 97.6556 61.6017C97.6478 64.3294 99.7031 66.5465 102.431 66.5543C104.968 66.5615 107.826 65.3574 109.325 63.1957C110.229 63.449 111.482 63.5866 112.467 63.5894C116.6 63.6011 119.38 61.5524 120.804 58.4795C122.448 59.2325 126.396 59.8872 130.783 59.8996C131.592 58.991 132.624 58.1624 133.834 57.4977C136.462 56.0552 139.307 55.7678 141.373 56.4873C142.034 56.4892 142.572 55.8877 142.574 55.1437C142.576 54.3998 142.041 53.9449 141.38 53.943C140.542 53.9406 139.046 54.246 137.279 54.6069L137.279 54.607C134.313 55.2127 130.581 55.9748 127.905 55.7008C122.865 55.1847 118.26 51.0715 115.692 48.7783C115.126 48.2727 114.659 47.8555 114.308 47.5849C110.682 44.7881 107.056 44.716 102.942 44.7044L95.4585 44.6832C92.531 44.6749 89.474 43.9179 88.7325 41.5211C91.4235 42.5764 93.1187 43.1798 104.443 43.212C110.321 43.2286 115.813 45.7174 119.541 49.6904C122.519 52.5721 126.581 54.0507 131.053 54.0634C137.366 54.0813 141.161 52.2498 144.232 50.7678C145.624 50.096 146.867 49.496 148.129 49.1728C148.129 49.1728 148.578 49.0244 149.626 49.0274C153.676 49.0389 156.95 52.3316 156.938 56.3818C156.929 59.6163 156.924 61.5027 153.185 62.8068L153.124 62.828C152.15 63.1666 149.989 63.9175 147.928 67.2819C147.779 66.8824 147.572 65.874 147.934 65.0369C145.005 64.8455 143.611 65.5832 141.994 66.4387C140.968 66.9817 139.852 67.5722 138.197 68.0027C137.368 68.2184 135.459 68.4437 132.954 68.7393C126.863 69.4582 117.252 70.5926 111.093 73.0145L132.643 73.9736C133.094 73.1268 134.656 71.2554 137.292 70.5444C139.928 69.8335 143.577 70.8616 145.072 71.4645C144.889 71.478 144.676 71.4924 144.444 71.5081C143.029 71.6036 140.895 71.7478 140.431 72.05C138.099 73.5679 135.211 74.31 132.64 74.9705C130.416 75.542 128.429 76.0524 127.246 76.9516C130.737 77.3108 139.398 77.2854 146.112 74.3111L151.043 77.0191C151.883 79.7155 151.287 86.0597 142.176 89.8653L142.219 89.7477C142.834 88.0752 143.944 85.0565 142.193 84.0283C141.471 83.6045 139.483 84.9236 136.749 86.7371L136.749 86.7371C132.693 89.4283 126.996 93.2082 121.361 93.997C122.911 92.7541 126.164 89.0716 126.022 86.5268C125.879 83.9821 120.944 82.7708 114.957 82.7538C105.442 82.7268 96.5065 87.4455 89.8846 90.9425C85.9864 93.001 82.89 94.6362 80.949 94.6307C78.5519 94.6239 76.7613 93.5712 77.0734 89.0821C64.9365 92.9507 53.2075 98.461 42.6323 105.564V131.556H115.313C149.653 131.556 177.491 103.718 177.491 69.378C177.491 35.038 149.653 7.20001 115.313 7.20001ZM42.6323 83.3926C59.8944 72.492 76.2262 66.9783 81.9229 65.1491C77.7444 62.0863 71.7214 60.9698 65.775 62.1632C53.4033 65.0332 46.8329 67.3323 42.6323 68.9892V73.4141C48.7727 71.7024 55.6188 69.1909 63.8226 64.6488C68.0724 62.2958 72.8004 65.4225 72.7983 66.1709C61.7917 69.3731 51.7248 73.6914 42.6323 78.9867V83.3926Z" fill="#FF495B"/>
<path d="M32.8 142.949H39.934C41.6615 142.949 43.2977 143.142 44.8423 143.528C46.4073 143.914 47.7691 144.544 48.9276 145.418C50.0861 146.272 51.0007 147.39 51.6714 148.772C52.3624 150.154 52.7079 151.831 52.7079 153.802C52.7079 155.55 52.3726 157.095 51.7019 158.436C51.0515 159.757 50.1674 160.875 49.0495 161.79C47.9317 162.684 46.6411 163.365 45.1777 163.832C43.7143 164.3 42.1798 164.533 40.5742 164.533H32.8V142.949ZM37.556 160.143H40.0254C41.1229 160.143 42.1392 160.032 43.0741 159.808C44.0294 159.584 44.8525 159.219 45.5435 158.71C46.2346 158.182 46.7732 157.501 47.1593 156.668C47.5658 155.814 47.7691 154.778 47.7691 153.558C47.7691 152.501 47.5658 151.587 47.1593 150.814C46.7732 150.022 46.2447 149.371 45.574 148.863C44.9033 148.355 44.1107 147.979 43.1961 147.735C42.3018 147.471 41.3567 147.339 40.3608 147.339H37.556V160.143Z" fill="#676A6F"/>
<path d="M55.9331 142.949H64.2865C65.384 142.949 66.4206 143.061 67.3961 143.284C68.392 143.487 69.2558 143.843 69.9875 144.351C70.7395 144.839 71.3289 145.51 71.7558 146.363C72.2029 147.197 72.4265 148.243 72.4265 149.503C72.4265 151.028 72.0301 152.329 71.2375 153.406C70.4448 154.463 69.2863 155.133 67.762 155.418L73.2496 164.533H67.5486L63.0365 155.906H60.689V164.533H55.9331V142.949ZM60.689 151.881H63.4938C63.9206 151.881 64.3678 151.871 64.8353 151.851C65.323 151.81 65.76 151.719 66.1462 151.577C66.5324 151.414 66.8474 151.17 67.0913 150.845C67.3555 150.52 67.4876 150.062 67.4876 149.473C67.4876 148.924 67.3758 148.487 67.1523 148.162C66.9287 147.837 66.6441 147.593 66.2986 147.43C65.9531 147.247 65.5568 147.125 65.1096 147.064C64.6625 147.004 64.2255 146.973 63.7987 146.973H60.689V151.881Z" fill="#676A6F"/>
<path d="M82.8053 142.949H86.7381L96.1281 164.533H90.7624L88.9027 159.96H80.5188L78.7201 164.533H73.4764L82.8053 142.949ZM84.6345 149.229L82.0127 155.936H87.2869L84.6345 149.229Z" fill="#676A6F"/>
<path d="M117.841 163.009C116.439 163.741 114.975 164.269 113.451 164.594C111.927 164.92 110.372 165.082 108.787 165.082C107.1 165.082 105.545 164.818 104.122 164.29C102.699 163.761 101.47 163.009 100.433 162.034C99.3966 161.038 98.5836 159.838 97.9942 158.436C97.4251 157.034 97.1406 155.469 97.1406 153.741C97.1406 152.014 97.4251 150.449 97.9942 149.046C98.5836 147.644 99.3966 146.455 100.433 145.479C101.47 144.483 102.699 143.721 104.122 143.193C105.545 142.664 107.1 142.4 108.787 142.4C110.514 142.4 112.099 142.613 113.542 143.04C115.006 143.447 116.286 144.158 117.384 145.174L114.03 148.833C113.38 148.162 112.648 147.654 111.835 147.308C111.022 146.963 110.006 146.79 108.787 146.79C107.77 146.79 106.846 146.963 106.012 147.308C105.199 147.654 104.498 148.142 103.909 148.772C103.319 149.381 102.862 150.113 102.537 150.967C102.232 151.82 102.079 152.745 102.079 153.741C102.079 154.757 102.232 155.692 102.537 156.546C102.862 157.379 103.319 158.111 103.909 158.741C104.498 159.351 105.199 159.828 106.012 160.174C106.846 160.519 107.77 160.692 108.787 160.692C109.823 160.692 110.717 160.58 111.469 160.357C112.221 160.113 112.821 159.869 113.268 159.625V156.119H109.396V151.729H117.841V163.009Z" fill="#676A6F"/>
<path d="M120.869 153.741C120.869 152.014 121.154 150.449 121.723 149.046C122.312 147.644 123.125 146.455 124.162 145.479C125.198 144.483 126.428 143.721 127.851 143.193C129.273 142.664 130.828 142.4 132.515 142.4C134.202 142.4 135.757 142.664 137.179 143.193C138.602 143.721 139.832 144.483 140.868 145.479C141.905 146.455 142.708 147.644 143.277 149.046C143.866 150.449 144.161 152.014 144.161 153.741C144.161 155.469 143.866 157.034 143.277 158.436C142.708 159.838 141.905 161.038 140.868 162.034C139.832 163.009 138.602 163.761 137.179 164.29C135.757 164.818 134.202 165.082 132.515 165.082C130.828 165.082 129.273 164.818 127.851 164.29C126.428 163.761 125.198 163.009 124.162 162.034C123.125 161.038 122.312 159.838 121.723 158.436C121.154 157.034 120.869 155.469 120.869 153.741ZM125.808 153.741C125.808 154.757 125.96 155.692 126.265 156.546C126.59 157.379 127.048 158.111 127.637 158.741C128.227 159.351 128.928 159.828 129.741 160.174C130.574 160.519 131.499 160.692 132.515 160.692C133.531 160.692 134.446 160.519 135.259 160.174C136.092 159.828 136.803 159.351 137.393 158.741C137.982 158.111 138.429 157.379 138.734 156.546C139.06 155.692 139.222 154.757 139.222 153.741C139.222 152.745 139.06 151.82 138.734 150.967C138.429 150.113 137.982 149.381 137.393 148.772C136.803 148.142 136.092 147.654 135.259 147.308C134.446 146.963 133.531 146.79 132.515 146.79C131.499 146.79 130.574 146.963 129.741 147.308C128.928 147.654 128.227 148.142 127.637 148.772C127.048 149.381 126.59 150.113 126.265 150.967C125.96 151.82 125.808 152.745 125.808 153.741Z" fill="#676A6F"/>
<path d="M147.394 142.949H153.857L163.033 157.948H163.094V142.949H167.85V164.533H161.631L152.21 149.168H152.149V164.533H147.394V142.949Z" fill="#676A6F"/>
<path d="M56 181.022C56 178.557 56.9036 176.44 58.7107 174.671C60.5103 172.901 62.6728 172.017 65.1982 172.017C67.6934 172.017 69.8332 172.909 71.6177 174.693C73.4097 176.478 74.3057 178.621 74.3057 181.124C74.3057 183.642 73.4059 185.778 71.6063 187.532C69.7992 189.294 67.6178 190.175 65.0621 190.175C62.8013 190.175 60.7711 189.392 58.9716 187.827C56.9905 186.096 56 183.827 56 181.022ZM58.6653 181.056C58.6653 182.992 59.3156 184.583 60.6161 185.831C61.9091 187.079 63.4024 187.702 65.0961 187.702C66.9335 187.702 68.4836 187.067 69.7463 185.797C71.009 184.512 71.6404 182.946 71.6404 181.101C71.6404 179.234 71.0166 177.669 69.769 176.406C68.5289 175.136 66.994 174.501 65.1642 174.501C63.3419 174.501 61.8032 175.136 60.5481 176.406C59.2929 177.661 58.6653 179.211 58.6653 181.056Z" fill="#676A6F"/>
<path d="M80.2715 182.746V189.857H77.6288V172.346H80.6231C82.09 172.346 83.1977 172.448 83.9462 172.652C84.7024 172.856 85.3677 173.242 85.9424 173.809C86.948 174.792 87.4509 176.032 87.4509 177.529C87.4509 179.132 86.914 180.402 85.8403 181.34C84.7666 182.277 83.3187 182.746 81.4964 182.746H80.2715ZM80.2715 180.296H81.2582C83.6854 180.296 84.899 179.362 84.899 177.495C84.899 175.688 83.6476 174.784 81.1448 174.784H80.2715V180.296Z" fill="#676A6F"/>
<path d="M95.0045 174.829V189.857H92.3619V174.829H88.3355V172.346H99.0195V174.829H95.0045Z" fill="#676A6F"/>
<path d="M104.021 172.346V189.857H101.379V172.346H104.021Z" fill="#676A6F"/>
<path d="M107.356 181.022C107.356 178.557 108.259 176.44 110.066 174.671C111.866 172.901 114.029 172.017 116.554 172.017C119.049 172.017 121.189 172.909 122.973 174.693C124.765 176.478 125.661 178.621 125.661 181.124C125.661 183.642 124.762 185.778 122.962 187.532C121.155 189.294 118.974 190.175 116.418 190.175C114.157 190.175 112.127 189.392 110.327 187.827C108.346 186.096 107.356 183.827 107.356 181.022ZM110.021 181.056C110.021 182.992 110.671 184.583 111.972 185.831C113.265 187.079 114.758 187.702 116.452 187.702C118.289 187.702 119.839 187.067 121.102 185.797C122.365 184.512 122.996 182.946 122.996 181.101C122.996 179.234 122.372 177.669 121.125 176.406C119.885 175.136 118.35 174.501 116.52 174.501C114.698 174.501 113.159 175.136 111.904 176.406C110.649 177.661 110.021 179.211 110.021 181.056Z" fill="#676A6F"/>
<path d="M128.985 189.857V171.155L141.755 184.515V172.346H144.398V190.923L131.627 177.597V189.857H128.985Z" fill="#676A6F"/>
</g>
<defs>
<clipPath id="clip0">
<rect width="200" height="200" fill="white"/>
</clipPath>
</defs>
</svg>
