<?xml version="1.0" standalone="no"?>
<!DOCTYPE svg PUBLIC "-//W3C//DTD SVG 20010904//EN"
 "http://www.w3.org/TR/2001/REC-SVG-20010904/DTD/svg10.dtd">
<svg version="1.0" xmlns="http://www.w3.org/2000/svg"
 width="274.000000pt" height="264.000000pt" viewBox="0 0 274.000000 264.000000"
 preserveAspectRatio="xMidYMid meet">
<metadata>
Created by potrace 1.15, written by Peter Selinger 2001-2017
</metadata>
<g transform="translate(0.000000,264.000000) scale(0.100000,-0.100000)"
fill="#000000" stroke="none">
<path d="M190 2463 c0 -3 18 -43 39 -87 71 -145 257 -348 409 -446 l70 -45 16
-105 c42 -277 45 -424 11 -705 -27 -229 -20 -209 -84 -251 -160 -106 -325
-316 -410 -522 -30 -73 -58 -188 -48 -198 2 -3 42 33 88 79 93 92 188 167 322
251 177 111 247 125 662 136 197 6 346 14 387 23 214 44 477 344 576 657 46
146 57 227 56 410 -1 194 -18 290 -61 347 -48 63 -154 142 -258 193 -150 73
-222 91 -403 97 -172 6 -291 -6 -418 -43 -183 -53 -325 -51 -495 6 -111 37
-315 129 -391 175 -57 36 -68 40 -68 28z m160 -128 c52 -27 283 -117 350 -137
137 -39 287 -32 505 26 172 46 413 50 558 9 84 -23 196 -75 276 -127 74 -49
159 -132 165 -162 3 -17 -2 -19 -44 -18 l-48 1 5 -153 c6 -150 -7 -289 -28
-324 -7 -11 -8 -6 -5 15 22 126 27 181 21 265 -7 110 -21 185 -42 218 -32 52
-235 155 -344 174 -54 9 -61 8 -74 -8 -13 -18 -14 -17 -15 11 0 24 -8 35 -42
57 -23 15 -44 25 -46 23 -3 -2 10 -21 27 -42 34 -41 42 -66 13 -40 -10 10 -35
17 -55 17 -28 0 -40 -6 -58 -31 -14 -20 -25 -27 -31 -21 -7 7 -3 18 11 33 26
28 26 36 1 77 -30 49 -41 41 -34 -25 7 -57 7 -58 -13 -40 -19 17 -25 16 -134
-12 -134 -33 -260 -90 -287 -129 -50 -69 -53 -106 -52 -575 1 -566 10 -640 81
-667 19 -7 95 -14 169 -16 74 -2 126 -1 116 2 -14 4 -15 8 -6 14 16 10 4 47
-18 53 -9 3 3 5 28 6 137 4 329 81 415 167 56 56 131 195 159 297 16 53 18 57
47 57 21 0 28 4 23 13 -5 8 -2 8 9 -2 15 -12 21 -9 18 12 0 4 21 7 48 7 27 0
58 3 68 7 17 6 17 5 1 -13 -9 -10 -29 -53 -44 -94 -21 -59 -36 -83 -70 -113
-64 -56 -86 -92 -89 -145 -3 -43 -9 -52 -71 -114 -82 -82 -98 -89 -125 -54
-11 14 -30 31 -41 37 -19 10 -20 9 -13 -33 4 -23 13 -52 20 -64 13 -19 12 -21
-13 -21 -15 0 -54 -7 -87 -17 -96 -27 -286 -32 -482 -11 -161 17 -172 17 -224
0 -137 -44 -338 -199 -517 -400 l-63 -70 44 70 c23 39 41 77 39 86 -4 23 87
156 167 241 38 40 105 98 149 128 l79 55 24 190 c19 150 24 238 24 417 0 125
3 220 6 211 5 -14 7 -14 15 -2 8 14 10 19 12 52 1 9 9 17 17 17 9 0 15 10 15
26 0 14 -4 23 -9 19 -5 -3 -9 9 -8 27 2 28 -1 33 -20 32 -19 0 -20 2 -11 20 9
17 8 19 -3 9 -7 -7 -18 -13 -23 -13 -6 0 -5 4 3 9 13 8 13 12 0 27 -9 11 -9
15 -1 10 15 -9 16 6 0 22 -10 10 -5 15 19 24 33 12 55 39 45 55 -4 5 -61 38
-128 71 -135 69 -283 164 -362 232 -66 57 -71 76 -12 45z m1276 -356 c110 -19
144 -53 189 -189 58 -179 60 -367 6 -530 -40 -117 -90 -210 -144 -262 -46 -44
-175 -109 -257 -129 -56 -14 -273 -19 -285 -8 -3 4 -13 67 -22 140 -23 185
-23 677 0 799 20 104 43 129 147 161 120 36 226 41 366 18z"/>
</g>
</svg>
