<?xml version="1.0" encoding="utf-8"?>
<!-- Generator: Adobe Illustrator 22.0.0, SVG Export Plug-In . SVG Version: 6.00 Build 0)  -->
<svg version="1.1" xmlns="http://www.w3.org/2000/svg" xmlns:xlink="http://www.w3.org/1999/xlink" x="0px" y="0px"
	 viewBox="0 0 200 200" style="enable-background:new 0 0 200 200;" xml:space="preserve">
<style type="text/css">
	.st0{fill:#16193A;}
	.st1{fill:#68AEDF;}
	
		.st2{fill:none;stroke:#356B91;stroke-width:10;stroke-linecap:round;stroke-linejoin:round;stroke-dasharray:17.8024,29.6707,17.8024,29.6707,17.8024,29.6707;}
	.st3{fill:#FAB244;}
	.st4{fill:#F2CD49;}
	.st5{fill:#FCB253;}
	.st6{fill:#FBE94A;stroke:#FBE94A;stroke-miterlimit:10;}
</style>
<g id="图层_2">
	<rect x="-0.8" y="-0.9" class="st0" width="201" height="201"/>
</g>
<g id="图层_1">
	<g id="Logo">
		<g id="BiggameSVG">
			<path id="c" class="st0" d="M40.1,0.6h120c22.1,0,40,17.9,40,40v120c0,22.1-17.9,40-40,40h-120c-22.1,0-40-17.9-40-40v-120
				C0.1,18.5,18,0.6,40.1,0.6z"/>
		</g>
	</g>
	
		<image style="display:none;overflow:visible;" width="512" height="512" xlink:href="C:\Users\Administrator\Desktop\logo-icon.png"  transform="matrix(0.3621 0 0 0.3621 7.1254 9.8575)">
	</image>
	<g>
		<path class="st1" d="M100.1,21.6c43.6,0,79,35.4,79,79s-35.4,79-79,79s-79-35.4-79-79S56.5,21.6,100.1,21.6 M100.1,18.6
			c-45.3,0-82,36.7-82,82s36.7,82,82,82s82-36.7,82-82S145.4,18.6,100.1,18.6L100.1,18.6z"/>
	</g>
	<g>
		
			<ellipse transform="matrix(0.7071 -0.7071 0.7071 0.7071 -41.8088 100.2277)" class="st2" cx="100.1" cy="100.6" rx="68" ry="68"/>
	</g>
	<g>
		<path class="st3" d="M152.3,118.1c-7.3,21.8-27.9,37.6-52.2,37.6c-24.3,0-44.9-15.7-52.2-37.6h-3.1c7.4,23.5,29.4,40.5,55.4,40.5
			c25.9,0,47.9-17,55.4-40.5H152.3z"/>
		<path class="st3" d="M47.8,83c7.3-21.8,27.9-37.6,52.2-37.6S145,61.2,152.3,83h3.1C148,59.5,126,42.5,100.1,42.5
			c-25.9,0-47.9,17-55.4,40.5H47.8z"/>
	</g>
	<g>
		<path class="st3" d="M131.8,83h5.1c-7.2-17.5-24.5-29.9-44.6-29.9c-8.2,0-15.9,2-22.6,5.6c5.6-2.3,11.8-3.6,18.2-3.6
			C107.2,55.2,124,66.6,131.8,83z"/>
		<path class="st4" d="M141.3,83h7.6c-6.2-19.9-24.8-34.3-46.7-34.3c-7,0-13.6,1.5-19.7,4.1c3.7-0.8,7.5-1.3,11.5-1.3
			C115.3,51.5,133.5,64.5,141.3,83z"/>
		<path class="st5" d="M68.4,118.1h-5.1C70.6,135.7,87.8,148,108,148c8.2,0,15.9-2,22.6-5.6c-5.6,2.3-11.8,3.6-18.2,3.6
			C92.9,145.9,76.2,134.6,68.4,118.1z"/>
		<path class="st4" d="M58.9,118.1h-7.6c6.2,19.9,24.8,34.3,46.7,34.3c7,0,13.6-1.5,19.7-4.1c-3.7,0.8-7.5,1.3-11.5,1.3
			C84.9,149.6,66.6,136.6,58.9,118.1z"/>
	</g>
	<g>
		<g>
			<g>
				<path class="st6" d="M68.6,114H48.3V87.2h19.3v3H52.9v8.3h13.5v3H52.9v9.6h15.7V114z"/>
			</g>
		</g>
		<g>
			<path class="st6" d="M124.9,114h-20.3V87.2h19.3v3h-14.7v8.3h13.5v3h-13.5v9.6h15.7V114z"/>
		</g>
		<g>
			<path class="st6" d="M151.8,90.2h-8V114h-4.6V90.2h-8v-3h20.5V90.2z"/>
		</g>
		<g>
			<path class="st6" d="M96.1,106c0,3-1,5.1-3,6.3c-2,1.2-4.6,1.7-7.8,1.7h-9.5V87.2h9.9c3.2,0,5.5,0.7,7.1,2c1.6,1.4,2.4,3,2.4,4.9
				s-0.5,3.3-1.6,4.2c-1.1,0.9-2.2,1.5-3.3,1.8c1.5,0.3,2.9,1,4.1,2C95.5,103,96.1,104.3,96.1,106z M90.8,94.1c0-1.4-0.5-2.3-1.4-3
				s-2.1-0.9-3.5-0.9h-5.7v8.3h5.5c1.4,0,2.6-0.3,3.6-1C90.3,96.8,90.8,95.6,90.8,94.1z M91.6,106c0-1.7-0.7-2.8-2-3.5
				c-1.3-0.7-2.8-1-4.5-1h-4.9v9.6h4.4c2.3,0,4-0.4,5.2-1.1C91,109.2,91.6,107.9,91.6,106z"/>
		</g>
	</g>
</g>
</svg>
