<svg id="svg" version="1.1" xmlns="http://www.w3.org/2000/svg" xmlns:xlink="http://www.w3.org/1999/xlink" width="400" height="400" viewBox="0, 0, 400,400"><g id="svgg"><path id="path0" d="M312.400 180.967 C 312.400 186.783,312.393 186.800,309.957 186.800 L 308.000 186.800 308.000 189.579 L 308.000 192.358 310.100 192.479 L 312.200 192.600 312.306 204.300 L 312.412 216.000 316.606 216.000 L 320.800 216.000 320.800 204.443 C 320.800 191.582,320.608 192.400,323.633 192.400 L 325.200 192.400 325.200 189.600 L 325.200 186.800 323.480 186.800 C 320.947 186.800,320.800 186.489,320.800 181.120 L 320.800 176.400 316.600 176.400 L 312.400 176.400 312.400 180.967 M124.576 185.952 C 115.258 188.356,110.172 199.466,114.396 208.192 C 119.714 219.176,136.217 219.596,141.755 208.888 L 142.421 207.600 138.910 207.537 C 134.168 207.451,133.968 207.485,132.810 208.566 C 129.636 211.532,123.170 210.041,121.683 206.000 C 120.944 203.992,120.899 204.000,132.615 204.000 L 143.564 204.000 143.824 202.611 C 145.583 193.236,134.275 183.449,124.576 185.952 M160.851 186.649 C 159.693 187.227,158.534 188.037,158.276 188.449 C 157.562 189.594,156.800 189.362,156.800 188.000 L 156.800 186.800 153.000 186.800 L 149.200 186.800 149.200 201.414 L 149.200 216.028 153.300 215.914 L 157.400 215.800 157.614 206.400 C 157.878 194.774,158.488 193.200,162.731 193.200 C 166.852 193.200,167.595 195.322,167.598 207.100 L 167.600 216.000 171.769 216.000 L 175.938 216.000 176.069 206.300 C 176.212 195.740,176.291 195.343,178.526 193.980 C 181.231 192.330,184.800 193.494,185.573 196.279 C 185.812 197.140,185.997 201.747,185.998 206.900 L 186.000 216.000 190.217 216.000 L 194.434 216.000 194.317 204.264 L 194.200 192.529 192.725 190.308 C 188.893 184.539,180.783 183.979,175.829 189.142 L 174.258 190.779 172.928 189.225 C 169.886 185.670,164.935 184.614,160.851 186.649 M210.000 186.332 C 194.523 192.088,197.151 215.874,213.357 216.718 C 217.329 216.925,219.417 216.399,221.784 214.592 L 223.600 213.205 223.600 214.616 L 223.600 216.027 227.900 215.914 L 232.200 215.800 232.200 201.400 L 232.200 187.000 227.900 186.886 L 223.600 186.773 223.600 187.986 C 223.600 189.497,223.596 189.497,221.394 187.816 C 218.388 185.522,213.788 184.923,210.000 186.332 M251.450 186.164 C 250.597 186.481,249.329 187.294,248.631 187.970 C 247.051 189.501,246.800 189.505,246.800 188.000 L 246.800 186.800 243.000 186.800 L 239.200 186.800 239.200 201.414 L 239.200 216.028 243.300 215.914 L 247.400 215.800 247.627 206.200 C 247.752 200.920,248.000 196.187,248.178 195.682 C 248.876 193.708,252.894 192.608,255.149 193.774 C 257.379 194.927,257.385 194.952,257.600 205.760 L 257.800 215.800 262.133 215.914 L 266.466 216.028 266.307 204.914 C 266.141 193.246,266.045 192.565,264.142 189.522 C 262.096 186.250,255.742 184.569,251.450 186.164 M282.600 185.953 C 269.567 189.400,267.453 209.338,279.475 215.420 C 283.803 217.610,290.689 217.182,293.480 214.550 C 295.073 213.048,295.300 213.066,295.360 214.693 L 295.400 215.800 299.700 215.914 L 304.000 216.027 304.000 201.400 L 304.000 186.773 299.739 186.886 C 295.567 186.998,295.475 187.020,295.330 187.976 C 295.113 189.407,294.907 189.450,293.696 188.317 C 291.287 186.063,286.244 184.989,282.600 185.953 M337.200 186.395 C 326.250 190.438,323.208 204.423,331.522 212.497 C 338.762 219.529,350.449 217.751,355.726 208.817 L 356.445 207.600 352.072 207.600 C 348.590 207.600,347.592 207.728,347.178 208.226 C 344.633 211.293,337.809 210.345,335.931 206.664 C 334.555 203.967,334.334 204.025,346.485 203.906 L 357.400 203.800 357.520 201.734 C 358.134 191.142,347.034 182.763,337.200 186.395 M131.319 192.940 C 132.907 193.604,135.290 196.238,135.117 197.139 C 134.908 198.224,121.600 198.352,121.600 197.269 C 121.600 193.847,127.355 191.284,131.319 192.940 M345.462 193.056 C 347.092 193.830,348.800 195.918,348.800 197.138 C 348.800 197.986,348.692 198.000,342.224 198.000 C 335.210 198.000,334.822 197.887,335.746 196.112 C 337.479 192.780,341.931 191.380,345.462 193.056 M219.429 194.014 C 226.616 197.493,223.567 210.209,215.724 209.463 C 205.910 208.530,206.145 193.202,215.974 193.200 C 216.949 193.200,218.504 193.566,219.429 194.014 M291.454 194.211 C 299.026 198.648,294.478 211.326,286.073 209.210 C 277.123 206.956,278.571 193.200,287.759 193.200 C 289.145 193.200,290.241 193.500,291.454 194.211 " stroke="none" fill="#f3f6f6" fill-rule="evenodd"></path><path id="path1" d="M0.000 200.000 L 0.000 400.000 200.000 400.000 L 400.000 400.000 400.000 200.000 L 400.000 0.000 200.000 0.000 L 0.000 0.000 0.000 200.000 M79.400 171.392 C 93.657 176.332,102.566 190.708,100.245 205.032 C 94.996 237.433,51.992 241.183,40.973 210.200 C 40.077 207.679,39.672 196.565,40.371 193.680 C 44.569 176.364,63.140 165.760,79.400 171.392 M63.200 174.239 C 43.014 179.620,36.069 205.091,50.746 219.908 C 69.267 238.604,100.840 222.911,96.977 196.930 C 94.581 180.805,78.668 170.116,63.200 174.239 M321.209 176.417 C 321.449 176.866,321.624 178.891,321.598 180.917 C 321.571 182.943,321.560 184.915,321.574 185.300 C 321.595 185.871,321.972 186.000,323.615 186.000 L 325.630 186.000 325.515 189.700 L 325.400 193.400 323.499 193.400 L 321.599 193.400 321.594 204.200 C 321.588 218.169,322.109 216.851,316.650 216.713 L 312.200 216.600 312.094 205.121 L 311.988 193.641 309.894 193.521 L 307.800 193.400 307.685 189.700 L 307.570 186.000 309.785 186.000 L 312.000 186.000 312.000 181.067 C 312.000 178.353,312.120 176.013,312.267 175.867 C 313.016 175.117,320.769 175.594,321.209 176.417 M134.533 186.130 C 140.911 189.014,144.206 194.457,143.919 201.633 L 143.800 204.600 132.900 204.706 C 121.222 204.820,121.368 204.789,122.859 206.884 C 124.912 209.766,130.234 210.089,133.076 207.503 C 133.809 206.836,134.631 206.685,138.145 206.576 C 143.313 206.414,143.618 206.638,142.025 209.427 C 136.310 219.434,122.831 220.444,115.751 211.397 C 105.614 198.444,119.740 179.442,134.533 186.130 M169.400 185.741 C 170.500 186.254,172.051 187.397,172.846 188.279 L 174.293 189.884 175.342 188.569 C 179.167 183.775,188.206 183.726,192.204 188.477 C 194.878 191.655,194.973 192.222,194.987 205.000 L 195.000 216.600 190.400 216.600 L 185.800 216.600 185.600 206.800 C 185.354 194.727,185.106 194.025,181.080 194.005 C 177.187 193.986,176.714 195.336,176.488 207.100 L 176.302 216.800 171.758 216.800 C 166.264 216.800,166.837 218.084,166.702 205.465 L 166.600 195.929 165.478 194.965 C 163.483 193.251,159.972 193.935,158.778 196.270 C 158.341 197.125,158.151 199.736,158.000 207.000 L 157.800 216.600 153.200 216.600 L 148.600 216.600 148.600 201.400 L 148.600 186.200 152.982 186.200 C 157.269 186.200,157.369 186.221,157.589 187.153 C 157.802 188.056,157.845 188.068,158.407 187.388 C 160.413 184.959,165.947 184.130,169.400 185.741 M218.931 185.608 C 220.119 186.053,221.414 186.773,221.808 187.208 C 222.771 188.273,223.200 188.205,223.200 186.987 L 223.200 185.975 227.900 186.087 L 232.600 186.200 232.600 201.400 L 232.600 216.600 228.000 216.600 L 223.400 216.600 223.273 215.500 L 223.147 214.400 221.774 215.447 C 214.363 221.099,202.752 216.234,200.006 206.326 C 196.405 193.329,207.398 181.293,218.931 185.608 M260.175 185.625 C 265.729 187.703,266.600 190.357,266.600 205.200 L 266.600 216.600 262.000 216.600 L 257.400 216.600 257.194 206.600 C 256.946 194.552,256.749 194.000,252.703 194.000 C 248.604 194.000,248.241 194.989,248.000 206.800 L 247.800 216.600 243.200 216.600 L 238.600 216.600 238.495 201.300 L 238.390 186.000 242.795 186.000 L 247.200 186.000 247.200 187.278 L 247.200 188.557 248.508 187.289 C 251.110 184.767,256.012 184.068,260.175 185.625 M290.889 185.742 C 292.050 186.260,293.360 187.090,293.800 187.586 L 294.600 188.488 294.804 187.344 L 295.008 186.200 299.604 186.200 L 304.200 186.200 304.200 201.400 L 304.200 216.600 299.604 216.600 L 295.008 216.600 294.804 215.437 C 294.616 214.367,294.555 214.329,294.027 214.967 C 290.439 219.297,280.017 218.194,275.252 212.981 C 264.158 200.842,276.510 179.326,290.889 185.742 M348.488 186.110 C 354.576 188.864,358.280 195.096,357.931 202.000 L 357.800 204.600 346.700 204.706 C 340.399 204.767,335.600 204.970,335.600 205.176 C 335.600 208.534,343.253 210.534,346.201 207.946 C 347.601 206.716,347.715 206.690,352.052 206.611 C 357.070 206.520,357.443 206.744,356.179 209.091 C 348.820 222.755,328.725 219.103,326.321 203.666 C 324.389 191.252,337.281 181.041,348.488 186.110 M80.687 189.868 C 83.245 191.082,84.441 194.917,83.147 197.757 C 82.754 198.619,82.861 199.006,83.947 200.645 C 87.254 205.638,83.987 211.800,78.032 211.800 C 72.046 211.800,68.745 205.640,72.053 200.645 C 73.139 199.006,73.246 198.619,72.853 197.757 C 70.499 192.591,75.600 187.454,80.687 189.868 M59.883 191.600 C 62.269 193.530,63.319 193.979,63.764 193.258 C 64.522 192.031,68.490 189.498,68.825 190.027 C 69.225 190.658,69.346 209.953,68.957 210.967 C 68.586 211.935,68.084 211.769,64.209 209.398 C 59.698 206.638,59.600 206.638,59.600 209.400 L 59.600 211.600 58.200 211.600 L 56.800 211.600 56.800 206.157 C 56.800 199.830,56.288 200.107,61.852 203.423 C 63.861 204.621,65.616 205.600,65.752 205.600 C 65.888 205.600,66.000 203.440,66.000 200.800 C 66.000 195.601,66.007 195.621,64.509 196.800 C 63.233 197.804,62.611 197.805,61.207 196.805 L 60.091 196.010 59.851 196.905 C 59.719 197.397,59.608 198.216,59.605 198.725 C 59.601 199.527,59.427 199.634,58.300 199.525 L 57.000 199.400 56.888 194.500 C 56.758 188.863,56.641 188.977,59.883 191.600 M76.176 193.780 C 74.913 195.708,76.681 197.682,78.911 196.834 C 79.809 196.492,80.000 196.175,80.000 195.024 C 80.000 192.771,77.393 191.923,76.176 193.780 M125.314 193.644 C 124.207 193.964,122.000 196.157,122.000 196.938 C 122.000 197.082,124.790 197.200,128.200 197.200 C 134.743 197.200,134.902 197.146,133.533 195.405 C 131.958 193.403,128.621 192.688,125.314 193.644 M338.966 193.769 C 337.779 194.285,336.000 196.136,336.000 196.854 C 336.000 197.044,338.790 197.200,342.200 197.200 C 348.966 197.200,349.110 197.137,347.046 195.072 C 345.155 193.182,341.623 192.612,338.966 193.769 M213.000 194.538 C 206.045 197.731,208.364 208.587,216.000 208.587 C 225.153 208.587,225.599 194.638,216.463 194.116 C 215.118 194.040,213.713 194.211,213.000 194.538 M284.800 194.448 C 282.126 195.511,280.048 199.397,280.594 202.310 C 281.946 209.516,291.105 211.097,294.041 204.631 C 296.881 198.380,291.056 191.961,284.800 194.448 M76.526 201.588 C 74.566 202.411,74.183 205.420,75.829 207.066 C 77.807 209.043,81.170 207.461,81.191 204.544 C 81.208 202.209,78.752 200.652,76.526 201.588 " stroke="none" fill="#04242c" fill-rule="evenodd"></path><path id="path2" d="M65.800 170.658 C 41.148 174.610,31.244 205.705,49.251 222.619 C 68.711 240.898,100.104 227.432,100.118 200.800 C 100.127 182.491,83.436 167.830,65.800 170.658 M75.517 173.421 C 96.975 177.746,105.138 204.975,89.601 220.400 C 75.776 234.126,53.394 230.235,45.178 212.678 C 35.515 192.030,53.350 168.954,75.517 173.421 M314.700 176.295 C 315.855 176.376,317.745 176.376,318.900 176.295 C 320.055 176.214,319.110 176.148,316.800 176.148 C 314.490 176.148,313.545 176.214,314.700 176.295 M312.153 181.400 C 312.153 184.040,312.218 185.068,312.297 183.684 C 312.375 182.301,312.374 180.141,312.295 178.884 C 312.216 177.628,312.152 178.760,312.153 181.400 M320.880 181.220 C 320.789 186.493,320.932 186.800,323.480 186.800 L 325.200 186.800 325.200 189.600 L 325.200 192.400 323.633 192.400 C 320.602 192.400,320.790 191.581,320.891 204.343 L 320.981 215.800 321.191 204.400 L 321.400 193.000 323.400 192.800 L 325.400 192.600 325.400 189.600 L 325.400 186.600 323.400 186.400 L 321.400 186.200 321.180 181.400 L 320.961 176.600 320.880 181.220 M214.100 185.476 C 214.485 185.576,215.115 185.576,215.500 185.476 C 215.885 185.375,215.570 185.293,214.800 185.293 C 214.030 185.293,213.715 185.375,214.100 185.476 M254.705 185.483 C 255.202 185.579,255.922 185.575,256.305 185.475 C 256.687 185.375,256.280 185.296,255.400 185.301 C 254.520 185.305,254.207 185.387,254.705 185.483 M285.500 185.482 C 285.995 185.578,286.805 185.578,287.300 185.482 C 287.795 185.387,287.390 185.309,286.400 185.309 C 285.410 185.309,285.005 185.387,285.500 185.482 M341.500 185.482 C 341.995 185.578,342.805 185.578,343.300 185.482 C 343.795 185.387,343.390 185.309,342.400 185.309 C 341.410 185.309,341.005 185.387,341.500 185.482 M170.000 186.843 C 170.770 187.306,171.834 188.070,172.365 188.542 C 172.895 189.014,173.192 189.163,173.025 188.874 C 172.622 188.177,169.601 186.000,169.040 186.001 C 168.798 186.002,169.230 186.381,170.000 186.843 M187.633 186.128 C 188.269 186.615,190.800 187.936,190.800 187.781 C 190.800 187.513,188.282 186.003,187.833 186.001 C 187.632 186.001,187.542 186.057,187.633 186.128 M220.000 186.799 C 220.770 187.286,221.804 188.056,222.298 188.510 C 222.793 188.965,223.270 189.261,223.360 189.168 C 223.586 188.935,220.355 186.502,219.389 186.179 C 218.955 186.034,219.230 186.313,220.000 186.799 M148.895 201.286 L 149.000 216.200 152.965 216.315 C 155.145 216.379,157.072 216.289,157.246 216.115 C 157.421 215.942,155.682 215.857,153.382 215.926 L 149.200 216.051 149.200 201.426 L 149.200 186.800 153.000 186.800 L 156.800 186.800 156.800 188.000 C 156.800 188.879,156.988 189.198,157.500 189.194 C 157.950 189.190,158.036 189.083,157.740 188.894 C 157.488 188.732,157.218 188.150,157.140 187.600 C 157.002 186.616,156.934 186.598,152.895 186.486 L 148.790 186.372 148.895 201.286 M224.800 186.659 C 228.116 186.953,232.402 186.976,232.401 186.700 C 232.400 186.535,230.375 186.430,227.900 186.467 C 225.425 186.504,224.030 186.590,224.800 186.659 M238.895 201.300 L 239.000 216.200 242.400 216.223 L 245.800 216.247 242.500 216.108 L 239.200 215.969 239.200 201.399 L 239.200 186.829 243.100 186.698 L 247.000 186.567 242.895 186.484 L 238.790 186.400 238.895 201.300 M279.100 187.029 C 277.549 187.870,277.725 188.161,279.300 187.359 C 280.808 186.593,281.075 186.394,280.567 186.416 C 280.365 186.425,279.705 186.701,279.100 187.029 M295.199 186.700 C 295.199 186.865,296.594 186.951,298.299 186.892 C 303.778 186.700,304.319 186.536,299.700 186.467 C 297.225 186.430,295.200 186.535,295.199 186.700 M307.767 186.942 C 307.652 187.240,307.613 188.635,307.679 190.042 L 307.800 192.600 309.894 192.721 L 311.988 192.841 312.103 204.121 L 312.218 215.400 312.209 204.000 L 312.200 192.600 310.100 192.479 L 308.000 192.358 308.000 189.600 L 308.000 186.842 310.100 186.695 L 312.200 186.548 310.087 186.474 C 308.624 186.423,307.911 186.567,307.767 186.942 M248.412 187.788 C 247.901 188.331,247.330 188.680,247.142 188.564 C 246.954 188.448,246.800 188.543,246.800 188.776 C 246.800 189.506,247.408 189.244,248.600 188.000 C 249.232 187.340,249.657 186.800,249.545 186.800 C 249.432 186.800,248.922 187.244,248.412 187.788 M175.768 188.783 C 174.943 189.653,174.090 190.255,173.872 190.121 C 173.651 189.984,173.602 190.080,173.762 190.338 C 174.142 190.953,174.001 191.037,176.000 189.000 C 176.972 188.010,177.654 187.200,177.517 187.200 C 177.380 187.200,176.593 187.912,175.768 188.783 M293.688 188.213 C 294.286 188.843,294.847 189.277,294.935 189.179 C 295.023 189.080,294.533 188.565,293.847 188.034 L 292.600 187.069 293.688 188.213 M350.600 187.879 C 351.888 189.194,354.481 191.243,353.600 190.250 C 353.050 189.629,352.060 188.750,351.400 188.296 C 350.740 187.842,350.380 187.654,350.600 187.879 M137.200 188.125 C 137.200 188.194,137.785 188.779,138.500 189.425 L 139.800 190.600 138.625 189.300 C 137.530 188.088,137.200 187.816,137.200 188.125 M275.578 189.900 L 274.200 191.400 275.700 190.022 C 277.096 188.738,277.384 188.400,277.078 188.400 C 277.012 188.400,276.337 189.075,275.578 189.900 M331.155 189.900 C 329.881 191.308,329.056 192.400,329.266 192.400 C 329.357 192.400,330.108 191.590,330.935 190.600 C 332.587 188.624,332.735 188.153,331.155 189.900 M75.800 190.161 C 73.154 191.329,72.148 193.886,73.128 196.955 C 73.520 198.185,73.609 199.065,73.372 199.386 C 71.837 201.459,71.477 202.221,71.304 203.758 C 70.553 210.417,78.525 214.100,82.990 209.158 C 84.610 207.366,84.974 206.220,84.699 203.782 C 84.523 202.223,84.166 201.465,82.627 199.383 C 82.386 199.058,82.487 198.154,82.909 196.848 C 84.436 192.118,80.262 188.192,75.800 190.161 M66.800 191.251 C 66.030 191.922,64.819 192.923,64.108 193.476 L 62.817 194.482 60.252 192.441 C 56.990 189.846,57.200 189.698,57.200 194.600 L 57.200 198.800 58.378 198.800 C 59.490 198.800,59.563 198.699,59.678 196.992 L 59.800 195.185 61.336 196.231 L 62.871 197.277 64.336 196.233 L 65.800 195.190 66.082 197.095 C 66.383 199.137,66.300 205.833,65.968 206.165 C 65.858 206.275,63.975 205.295,61.784 203.986 C 59.593 202.677,57.665 201.605,57.500 201.603 C 57.335 201.602,57.200 203.772,57.200 206.427 L 57.200 211.253 58.300 211.127 C 59.341 211.007,59.406 210.877,59.520 208.700 C 59.665 205.919,59.264 205.924,63.940 208.655 C 66.063 209.896,67.912 210.972,68.048 211.047 C 68.185 211.122,68.327 206.417,68.365 200.592 C 68.402 194.766,68.380 190.007,68.316 190.016 C 68.252 190.025,67.570 190.581,66.800 191.251 M79.669 193.062 C 80.580 193.887,80.617 195.898,79.738 196.869 C 78.252 198.511,75.600 197.292,75.600 194.967 C 75.600 192.650,77.981 191.535,79.669 193.062 M125.300 192.812 C 124.024 193.325,124.180 193.629,125.500 193.202 C 126.105 193.007,126.960 192.767,127.400 192.670 C 128.028 192.531,127.985 192.488,127.200 192.472 C 126.650 192.460,125.795 192.613,125.300 192.812 M342.500 192.676 C 342.885 192.776,343.515 192.776,343.900 192.676 C 344.285 192.575,343.970 192.493,343.200 192.493 C 342.430 192.493,342.115 192.575,342.500 192.676 M130.833 192.921 C 130.925 192.988,131.540 193.358,132.200 193.745 L 133.400 194.447 132.456 193.624 C 131.936 193.171,131.321 192.800,131.089 192.800 C 130.857 192.800,130.742 192.854,130.833 192.921 M337.476 194.100 C 336.754 194.815,336.621 195.019,337.181 194.554 C 337.742 194.088,338.560 193.508,339.000 193.266 C 339.440 193.023,339.572 192.819,339.294 192.812 C 339.016 192.805,338.198 193.385,337.476 194.100 M160.663 193.500 C 160.562 193.665,161.525 193.800,162.802 193.800 C 164.080 193.800,164.917 193.668,164.663 193.506 C 164.054 193.120,160.899 193.115,160.663 193.500 M179.246 193.563 C 178.907 193.778,179.451 193.832,180.646 193.704 C 181.721 193.588,182.675 193.428,182.767 193.347 C 183.129 193.028,179.765 193.235,179.246 193.563 M214.900 193.487 C 215.505 193.578,216.495 193.578,217.100 193.487 C 217.705 193.395,217.210 193.320,216.000 193.320 C 214.790 193.320,214.295 193.395,214.900 193.487 M251.900 193.482 C 252.395 193.578,253.205 193.578,253.700 193.482 C 254.195 193.387,253.790 193.309,252.800 193.309 C 251.810 193.309,251.405 193.387,251.900 193.482 M285.800 193.401 C 286.716 193.717,290.795 193.843,290.317 193.540 C 290.033 193.360,288.810 193.224,287.600 193.238 C 286.390 193.252,285.580 193.325,285.800 193.401 M177.229 195.054 C 176.773 195.634,176.405 196.309,176.412 196.554 C 176.419 196.799,176.624 196.640,176.868 196.200 C 177.112 195.760,177.585 195.085,177.918 194.700 C 178.251 194.315,178.419 194.000,178.291 194.000 C 178.163 194.000,177.685 194.474,177.229 195.054 M200.444 195.244 C 200.198 195.951,200.066 196.600,200.152 196.685 C 200.238 196.771,200.509 196.262,200.756 195.556 C 201.002 194.849,201.134 194.200,201.048 194.115 C 200.962 194.029,200.691 194.538,200.444 195.244 M134.168 195.589 C 135.456 197.604,135.323 197.647,128.199 197.519 C 124.569 197.453,121.599 197.539,121.599 197.710 C 121.600 197.880,124.613 197.970,128.295 197.910 C 135.628 197.790,136.161 197.584,134.385 195.565 L 133.536 194.600 134.168 195.589 M194.493 205.686 L 194.400 215.973 190.100 216.102 L 185.800 216.230 190.113 216.315 C 195.356 216.418,194.840 217.646,194.700 205.393 L 194.585 195.400 194.493 205.686 M335.302 197.200 C 335.480 197.852,348.799 198.355,348.801 197.710 C 348.801 197.539,345.892 197.454,342.336 197.520 C 337.379 197.611,335.786 197.518,335.505 197.120 C 335.222 196.718,335.176 196.736,335.302 197.200 M176.092 206.886 L 176.000 215.973 171.700 216.102 L 167.400 216.230 171.713 216.315 C 176.939 216.418,176.444 217.467,176.300 206.591 L 176.184 197.800 176.092 206.886 M326.531 201.400 C 326.533 202.940,326.605 203.521,326.692 202.691 C 326.779 201.861,326.777 200.601,326.689 199.891 C 326.600 199.181,326.529 199.860,326.531 201.400 M271.314 201.000 C 271.317 202.100,271.395 202.503,271.487 201.895 C 271.579 201.286,271.577 200.386,271.482 199.895 C 271.387 199.403,271.311 199.900,271.314 201.000 M357.693 201.600 C 357.693 202.370,357.775 202.685,357.876 202.300 C 357.976 201.915,357.976 201.285,357.876 200.900 C 357.775 200.515,357.693 200.830,357.693 201.600 M80.478 201.875 C 82.063 203.393,82.043 205.618,80.431 207.231 C 77.017 210.644,72.132 205.411,75.475 201.922 C 76.925 200.408,78.927 200.389,80.478 201.875 M143.600 203.327 C 143.600 203.922,142.505 203.998,132.500 204.100 L 121.400 204.213 132.513 204.307 C 143.700 204.401,145.155 204.222,143.849 202.916 C 143.712 202.779,143.600 202.964,143.600 203.327 M350.800 204.000 L 344.200 204.230 350.676 204.315 C 354.657 204.367,357.248 204.246,357.400 204.000 C 357.536 203.780,357.592 203.638,357.524 203.685 C 357.456 203.732,354.430 203.873,350.800 204.000 M335.338 204.617 C 335.208 204.957,335.213 205.347,335.351 205.484 C 335.488 205.621,335.600 205.439,335.600 205.080 C 335.600 204.524,336.241 204.408,339.900 204.298 L 344.200 204.170 339.887 204.085 C 336.316 204.015,335.534 204.106,335.338 204.617 M292.830 206.968 C 292.330 207.500,291.393 208.154,290.748 208.422 C 290.102 208.689,289.653 208.987,289.750 209.083 C 290.051 209.384,292.153 208.127,293.170 207.038 C 293.703 206.467,294.049 206.000,293.939 206.000 C 293.829 206.000,293.330 206.436,292.830 206.968 M132.494 208.412 C 131.775 209.065,131.342 209.600,131.532 209.600 C 131.721 209.600,132.219 209.219,132.638 208.753 C 133.057 208.287,133.760 207.758,134.200 207.578 C 134.710 207.369,134.783 207.246,134.400 207.237 C 134.070 207.230,133.212 207.758,132.494 208.412 M137.312 207.495 C 138.364 207.577,139.984 207.576,140.912 207.492 C 141.840 207.408,140.980 207.341,139.000 207.342 C 137.020 207.343,136.260 207.412,137.312 207.495 M346.400 208.469 C 345.630 209.149,345.270 209.565,345.600 209.393 C 345.930 209.221,346.565 208.754,347.010 208.355 C 347.666 207.767,348.657 207.604,352.210 207.499 L 356.600 207.370 352.200 207.301 C 347.810 207.233,347.797 207.235,346.400 208.469 M272.428 207.800 C 272.428 208.020,272.686 208.650,273.000 209.200 C 273.314 209.750,273.572 210.020,273.572 209.800 C 273.572 209.580,273.314 208.950,273.000 208.400 C 272.686 207.850,272.428 207.580,272.428 207.800 M123.944 208.776 C 124.464 209.229,125.079 209.600,125.311 209.600 C 125.803 209.600,125.779 209.580,124.200 208.655 L 123.000 207.953 123.944 208.776 M216.200 209.200 L 214.600 209.486 216.000 209.537 C 216.770 209.565,217.670 209.413,218.000 209.200 C 218.655 208.777,218.562 208.777,216.200 209.200 M354.799 210.100 C 354.210 210.904,354.113 211.184,354.545 210.833 C 355.201 210.300,356.193 208.800,355.889 208.800 C 355.813 208.800,355.322 209.385,354.799 210.100 M331.183 212.500 C 332.164 213.545,333.019 214.400,333.083 214.400 C 333.384 214.400,333.066 214.041,331.300 212.383 L 329.400 210.600 331.183 212.500 M117.200 212.600 C 117.946 213.370,118.647 214.000,118.757 214.000 C 118.867 214.000,118.346 213.370,117.600 212.600 C 116.854 211.830,116.153 211.200,116.043 211.200 C 115.933 211.200,116.454 211.830,117.200 212.600 M138.778 212.700 L 137.400 214.200 138.900 212.822 C 140.296 211.538,140.584 211.200,140.278 211.200 C 140.212 211.200,139.537 211.875,138.778 212.700 M204.000 213.000 C 204.746 213.770,205.447 214.400,205.557 214.400 C 205.667 214.400,205.146 213.770,204.400 213.000 C 203.654 212.230,202.953 211.600,202.843 211.600 C 202.733 211.600,203.254 212.230,204.000 213.000 M275.600 213.000 C 276.346 213.770,277.047 214.400,277.157 214.400 C 277.267 214.400,276.746 213.770,276.000 213.000 C 275.254 212.230,274.553 211.600,274.443 211.600 C 274.333 211.600,274.854 212.230,275.600 213.000 M352.575 212.900 L 351.400 214.200 352.700 213.025 C 353.415 212.379,354.000 211.794,354.000 211.725 C 354.000 211.416,353.670 211.688,352.575 212.900 M135.897 214.766 C 134.253 215.819,134.025 216.191,135.475 215.454 C 136.176 215.097,136.861 214.624,136.998 214.403 C 137.319 213.884,137.223 213.915,135.897 214.766 M349.989 214.694 C 349.445 215.076,348.100 215.700,347.000 216.081 C 345.900 216.462,345.360 216.776,345.800 216.778 C 346.716 216.783,349.417 215.589,350.600 214.656 C 351.684 213.801,351.220 213.830,349.989 214.694 M206.744 215.176 C 207.264 215.629,207.879 216.000,208.111 216.000 C 208.603 216.000,208.579 215.980,207.000 215.055 L 205.800 214.353 206.744 215.176 M278.400 215.164 C 278.950 215.614,279.580 215.983,279.800 215.985 C 280.228 215.988,279.505 215.434,278.200 214.760 C 277.669 214.485,277.736 214.621,278.400 215.164 M333.600 214.579 C 333.600 214.689,334.140 215.059,334.800 215.400 C 335.460 215.741,336.000 215.931,336.000 215.821 C 336.000 215.711,335.460 215.341,334.800 215.000 C 334.140 214.659,333.600 214.469,333.600 214.579 M220.200 215.627 C 219.540 216.050,219.205 216.397,219.456 216.398 C 219.706 216.399,220.336 216.046,220.856 215.613 C 222.045 214.623,221.759 214.629,220.200 215.627 M227.800 216.000 L 223.400 216.242 227.676 216.321 C 230.185 216.367,232.055 216.235,232.200 216.000 C 232.336 215.780,232.392 215.636,232.324 215.679 C 232.256 215.723,230.220 215.867,227.800 216.000 M257.954 216.115 C 258.128 216.289,260.055 216.378,262.235 216.313 L 266.200 216.195 261.918 215.998 C 259.563 215.889,257.779 215.942,257.954 216.115 M295.553 216.115 C 295.727 216.288,297.744 216.377,300.035 216.312 L 304.200 216.196 299.718 215.998 C 297.253 215.889,295.379 215.942,295.553 216.115 M209.200 216.382 C 209.530 216.605,210.145 216.791,210.567 216.794 C 211.590 216.802,211.271 216.573,209.800 216.244 C 208.924 216.048,208.762 216.085,209.200 216.382 M314.700 216.295 C 315.855 216.376,317.745 216.376,318.900 216.295 C 320.055 216.214,319.110 216.148,316.800 216.148 C 314.490 216.148,313.545 216.214,314.700 216.295 M126.691 217.089 C 127.401 217.177,128.661 217.179,129.491 217.092 C 130.321 217.005,129.740 216.933,128.200 216.931 C 126.660 216.929,125.981 217.000,126.691 217.089 M212.900 217.091 C 213.725 217.178,215.075 217.178,215.900 217.091 C 216.725 217.005,216.050 216.934,214.400 216.934 C 212.750 216.934,212.075 217.005,212.900 217.091 M284.500 217.091 C 285.325 217.178,286.675 217.178,287.500 217.091 C 288.325 217.005,287.650 216.934,286.000 216.934 C 284.350 216.934,283.675 217.005,284.500 217.091 M340.691 217.089 C 341.401 217.177,342.661 217.179,343.491 217.092 C 344.321 217.005,343.740 216.933,342.200 216.931 C 340.660 216.929,339.981 217.000,340.691 217.089 " stroke="none" fill="#6ae0df" fill-rule="evenodd"></path><path id="path3" d="M315.300 175.891 C 316.125 175.978,317.475 175.978,318.300 175.891 C 319.125 175.805,318.450 175.734,316.800 175.734 C 315.150 175.734,314.475 175.805,315.300 175.891 M321.115 179.336 C 321.288 184.128,321.484 184.713,321.539 180.600 C 321.566 178.620,321.455 176.791,321.293 176.536 C 321.130 176.281,321.050 177.541,321.115 179.336 M123.125 185.761 C 118.338 187.451,112.763 193.572,112.809 197.087 C 112.815 197.479,113.234 196.791,113.742 195.557 C 119.129 182.462,136.421 181.825,142.418 194.502 C 143.068 195.876,143.600 196.755,143.600 196.456 C 143.600 195.338,140.945 190.986,139.231 189.296 C 134.976 185.101,128.821 183.750,123.125 185.761 M161.836 185.429 C 160.976 185.744,159.684 186.451,158.964 187.000 L 157.655 187.998 157.528 187.099 C 157.404 186.229,157.257 186.200,153.000 186.200 L 148.600 186.200 148.488 200.600 C 148.348 218.732,147.785 216.852,153.311 216.713 L 157.800 216.600 157.816 207.600 L 157.832 198.600 157.616 207.400 L 157.400 216.200 153.200 216.200 L 149.000 216.200 148.895 201.286 L 148.790 186.372 152.895 186.486 L 157.000 186.600 157.127 187.700 C 157.281 189.045,157.293 189.046,158.675 187.765 C 162.477 184.242,169.627 184.792,172.895 188.858 L 174.158 190.429 175.700 188.840 C 180.612 183.779,189.051 184.394,192.900 190.092 C 193.505 190.988,194.000 191.527,194.000 191.291 C 194.000 190.308,191.250 187.398,189.270 186.285 C 184.756 183.750,178.349 184.801,175.342 188.569 L 174.293 189.884 172.846 188.279 C 170.053 185.180,165.636 184.037,161.836 185.429 M209.891 185.581 C 205.911 186.853,200.382 192.097,200.404 194.578 C 200.406 194.810,200.926 194.096,201.559 192.992 C 205.679 185.810,215.656 183.037,221.454 187.462 C 223.586 189.089,223.600 189.090,223.600 187.613 L 223.600 186.426 228.001 186.293 L 232.401 186.159 227.901 186.179 C 223.545 186.199,223.396 186.229,223.272 187.100 C 223.115 188.208,222.738 188.236,221.808 187.208 C 219.804 184.994,214.145 184.222,209.891 185.581 M251.408 185.419 C 250.532 185.751,249.227 186.592,248.508 187.289 L 247.200 188.557 247.200 187.265 L 247.200 185.973 242.900 186.086 L 238.600 186.200 238.495 201.255 C 238.397 215.320,238.437 216.328,239.095 216.579 C 239.660 216.794,239.701 216.748,239.300 216.344 C 238.918 215.959,238.800 212.361,238.800 201.120 L 238.800 186.400 242.800 186.400 C 246.774 186.400,246.800 186.406,246.800 187.376 C 246.800 188.777,247.347 188.921,248.402 187.798 C 252.083 183.880,261.503 184.896,264.440 189.527 C 265.078 190.533,265.600 191.155,265.600 190.909 C 265.600 187.021,256.488 183.496,251.408 185.419 M281.341 185.660 C 277.541 186.935,271.965 192.498,272.007 194.973 C 272.011 195.208,272.549 194.410,273.203 193.200 C 277.176 185.847,287.137 182.946,293.012 187.430 C 295.192 189.094,295.200 189.094,295.200 187.600 L 295.200 186.400 299.595 186.400 L 303.990 186.400 304.103 201.300 L 304.215 216.200 304.208 201.200 L 304.200 186.200 299.604 186.200 L 295.008 186.200 294.804 187.335 L 294.600 188.470 293.634 187.439 C 291.287 184.935,285.848 184.147,281.341 185.660 M321.327 185.400 C 321.409 186.203,325.600 187.096,325.600 186.311 C 325.600 186.140,324.713 186.000,323.629 186.000 C 322.098 186.000,321.613 185.844,321.452 185.300 C 321.292 184.755,321.264 184.777,321.327 185.400 M337.535 185.544 C 332.095 187.340,327.404 192.519,326.591 197.625 C 326.454 198.487,326.659 198.144,327.141 196.705 C 331.499 183.703,347.391 181.276,355.309 192.404 L 356.018 193.400 355.429 192.158 C 352.886 186.798,343.850 183.458,337.535 185.544 M307.600 186.311 C 307.600 186.481,308.365 186.562,309.300 186.489 C 312.102 186.272,312.341 186.096,309.900 186.046 C 308.635 186.021,307.600 186.140,307.600 186.311 M232.397 201.400 L 232.200 216.200 227.925 216.313 L 223.650 216.427 223.525 214.958 L 223.400 213.489 221.714 214.901 C 219.012 217.164,212.163 217.986,209.202 216.401 C 208.723 216.145,208.232 216.035,208.110 216.156 C 207.688 216.579,210.216 217.292,212.862 217.496 C 216.699 217.793,218.899 217.349,221.173 215.818 L 223.155 214.484 223.278 215.542 L 223.400 216.600 227.889 216.713 C 233.413 216.852,232.853 218.703,232.709 200.800 L 232.594 186.600 232.397 201.400 M194.317 193.400 C 194.473 194.280,194.600 199.770,194.600 205.600 L 194.600 216.200 190.307 216.313 L 186.015 216.427 185.896 207.213 L 185.777 198.000 185.789 207.300 L 185.800 216.600 190.400 216.600 L 195.000 216.600 195.000 205.000 C 195.000 196.651,194.865 193.176,194.517 192.600 C 194.109 191.924,194.079 192.048,194.317 193.400 M126.263 193.003 C 124.317 193.497,123.001 194.432,122.330 195.796 C 122.113 196.238,122.408 196.021,122.986 195.314 C 125.329 192.446,131.245 192.497,133.533 195.405 C 134.936 197.189,134.756 197.245,128.037 197.119 C 124.538 197.054,121.759 197.135,121.861 197.300 C 122.172 197.801,134.800 197.666,134.800 197.162 C 134.800 194.352,130.055 192.040,126.263 193.003 M307.599 192.900 C 307.600 193.065,308.185 193.202,308.900 193.205 C 309.615 193.208,310.605 193.319,311.100 193.452 C 311.604 193.587,312.000 193.513,312.000 193.284 C 312.000 193.058,311.010 192.812,309.799 192.737 C 308.589 192.662,307.599 192.735,307.599 192.900 M323.431 192.795 C 322.148 192.929,321.406 193.209,321.301 193.600 C 321.195 193.993,321.253 194.045,321.470 193.751 C 321.651 193.504,322.570 193.304,323.512 193.306 C 324.454 193.307,325.339 193.195,325.479 193.055 C 325.901 192.632,325.493 192.580,323.431 192.795 M340.600 192.812 C 338.944 193.156,337.970 193.733,336.801 195.063 L 335.803 196.200 337.001 195.125 C 339.959 192.474,344.451 192.489,347.146 195.159 C 348.125 196.128,348.391 196.277,347.960 195.613 C 346.526 193.402,343.429 192.223,340.600 192.812 M160.098 194.197 C 159.237 194.819,157.980 196.802,158.018 197.480 C 158.027 197.656,158.396 197.117,158.836 196.283 C 160.130 193.831,163.402 193.181,165.478 194.965 L 166.600 195.929 166.800 205.865 C 166.910 211.329,167.146 216.025,167.324 216.300 C 167.682 216.853,175.805 217.037,176.139 216.500 C 176.242 216.335,174.363 216.256,171.963 216.325 L 167.600 216.450 167.600 208.045 C 167.600 195.815,167.039 194.007,163.151 193.709 C 161.592 193.590,160.752 193.724,160.098 194.197 M178.903 194.012 C 177.850 194.435,176.396 196.652,176.419 197.800 C 176.431 198.382,177.546 196.018,177.594 195.310 C 177.621 194.912,180.226 194.006,181.280 194.028 C 183.255 194.070,184.023 194.501,184.833 196.023 C 185.242 196.791,185.574 197.109,185.583 196.742 C 185.641 194.482,181.720 192.879,178.903 194.012 M212.808 194.025 C 211.584 194.540,210.461 195.534,209.904 196.596 C 209.617 197.143,209.852 197.031,210.641 196.244 C 212.125 194.764,213.949 194.000,216.000 194.000 C 218.043 194.000,219.861 194.758,221.386 196.244 C 222.451 197.282,222.508 197.299,221.946 196.413 C 220.426 194.018,215.741 192.793,212.808 194.025 M250.044 194.158 C 249.518 194.450,248.850 195.118,248.558 195.644 C 247.727 197.143,247.914 197.547,248.780 196.126 C 250.677 193.014,255.638 193.238,256.770 196.486 C 257.028 197.225,257.200 201.351,257.200 206.780 C 257.200 217.407,256.957 216.828,261.380 216.725 L 264.600 216.651 261.200 216.425 L 257.800 216.200 257.600 206.400 C 257.391 196.158,257.270 195.455,255.508 194.221 C 254.430 193.465,251.357 193.430,250.044 194.158 M284.042 194.287 C 282.670 194.963,280.393 198.030,280.409 199.178 C 280.414 199.520,280.750 199.080,281.156 198.200 C 284.455 191.053,294.833 193.432,294.791 201.326 C 294.749 209.339,284.535 211.492,281.158 204.200 C 280.751 203.320,280.414 202.832,280.409 203.116 C 280.314 208.695,289.437 211.036,293.315 206.428 C 298.724 200.000,291.540 190.594,284.042 194.287 M356.467 194.820 C 356.701 195.492,356.967 195.967,357.057 195.876 C 357.256 195.678,356.501 193.600,356.231 193.600 C 356.127 193.600,356.233 194.149,356.467 194.820 M266.493 205.280 C 266.409 214.971,266.335 215.998,265.700 216.368 C 265.315 216.592,265.203 216.781,265.451 216.788 C 266.688 216.821,266.813 215.657,266.700 205.151 L 266.586 194.600 266.493 205.280 M335.606 196.900 C 335.600 197.638,348.089 198.025,348.539 197.300 C 348.641 197.135,345.923 197.054,342.499 197.120 C 337.720 197.212,336.195 197.119,335.942 196.720 C 335.696 196.332,335.611 196.378,335.606 196.900 M270.984 199.391 C 270.833 200.596,270.872 202.441,271.070 203.491 C 271.381 205.145,271.427 204.853,271.416 201.300 C 271.402 196.584,271.358 196.393,270.984 199.391 M208.776 199.121 C 208.251 200.876,208.560 204.204,209.291 204.656 C 209.593 204.843,209.637 204.686,209.429 204.166 C 208.831 202.677,208.708 200.440,209.153 199.163 C 209.401 198.452,209.525 197.792,209.430 197.696 C 209.334 197.600,209.040 198.242,208.776 199.121 M222.633 198.200 C 225.115 206.289,216.704 212.277,210.947 206.520 C 210.156 205.729,209.693 205.426,209.917 205.846 C 213.981 213.438,226.770 206.343,222.976 198.600 C 222.653 197.940,222.498 197.760,222.633 198.200 M112.493 199.200 C 112.493 199.970,112.575 200.285,112.676 199.900 C 112.776 199.515,112.776 198.885,112.676 198.500 C 112.575 198.115,112.493 198.430,112.493 199.200 M247.596 206.992 L 247.400 216.183 246.254 216.271 C 245.623 216.320,245.000 216.467,244.868 216.598 C 244.737 216.730,245.303 216.763,246.127 216.673 C 248.161 216.449,248.028 217.172,247.904 206.959 L 247.792 197.800 247.596 206.992 M357.693 199.200 C 357.693 199.970,357.775 200.285,357.876 199.900 C 357.976 199.515,357.976 198.885,357.876 198.500 C 357.775 198.115,357.693 198.430,357.693 199.200 M199.324 201.400 C 199.326 202.720,199.401 203.212,199.490 202.493 C 199.579 201.774,199.577 200.694,199.486 200.093 C 199.395 199.492,199.322 200.080,199.324 201.400 M66.109 201.600 C 66.109 202.590,66.187 202.995,66.282 202.500 C 66.378 202.005,66.378 201.195,66.282 200.700 C 66.187 200.205,66.109 200.610,66.109 201.600 M280.093 201.200 C 280.093 201.970,280.175 202.285,280.276 201.900 C 280.376 201.515,280.376 200.885,280.276 200.500 C 280.175 200.115,280.093 200.430,280.093 201.200 M326.101 201.400 C 326.105 202.280,326.187 202.593,326.283 202.095 C 326.379 201.598,326.375 200.878,326.275 200.495 C 326.175 200.113,326.096 200.520,326.101 201.400 M112.595 203.902 C 112.687 205.059,112.960 206.319,113.201 206.702 C 113.572 207.294,113.599 207.258,113.381 206.464 C 113.239 205.950,112.967 204.690,112.775 203.664 L 112.427 201.800 112.595 203.902 M357.508 203.508 L 357.276 204.395 346.583 204.386 C 340.702 204.381,335.795 204.472,335.678 204.588 C 335.562 204.705,340.452 204.800,346.546 204.800 C 358.095 204.800,358.449 204.748,357.908 203.124 C 357.816 202.847,357.636 203.020,357.508 203.508 M132.700 204.300 C 122.463 204.404,121.602 204.467,121.632 205.106 C 121.651 205.524,121.743 205.601,121.865 205.300 C 122.019 204.917,124.590 204.800,132.810 204.800 C 139.540 204.800,143.645 204.651,143.800 204.400 C 143.936 204.180,143.992 204.042,143.924 204.093 C 143.856 204.145,138.805 204.238,132.700 204.300 M122.004 206.225 C 121.970 209.512,130.156 211.014,132.796 208.204 C 133.691 207.252,133.963 207.200,138.070 207.200 C 143.026 207.200,143.074 207.246,141.161 210.134 C 135.041 219.372,121.864 219.519,115.507 210.420 C 114.678 209.234,114.000 208.458,114.000 208.696 C 114.000 209.316,116.848 212.831,118.444 214.181 C 124.198 219.047,133.634 218.565,139.145 213.123 C 140.987 211.303,143.292 207.673,142.954 207.125 C 142.550 206.472,133.745 206.743,133.178 207.426 C 130.971 210.086,125.238 209.897,123.026 207.091 C 122.467 206.381,122.007 205.991,122.004 206.225 M336.343 207.064 C 337.842 209.964,343.501 210.777,346.335 208.500 C 347.931 207.218,348.010 207.200,352.177 207.200 C 356.567 207.200,356.768 207.291,355.978 208.926 C 355.570 209.770,355.577 209.774,356.178 209.024 C 357.715 207.105,357.173 206.800,352.218 206.800 C 347.899 206.800,347.581 206.856,346.664 207.772 C 344.264 210.172,339.995 209.941,337.048 207.251 C 336.033 206.325,335.949 206.303,336.343 207.064 M200.407 207.713 C 200.369 209.361,205.866 216.000,207.268 216.000 C 207.490 216.000,206.801 215.310,205.736 214.466 C 203.376 212.597,203.095 212.263,201.599 209.550 C 200.948 208.367,200.411 207.541,200.407 207.713 M272.404 208.622 C 272.388 210.387,276.905 215.123,279.932 216.515 C 283.978 218.375,291.098 217.645,293.900 215.083 L 294.800 214.261 294.800 215.287 C 294.800 216.661,295.368 216.814,300.133 216.721 L 304.200 216.642 299.800 216.421 L 295.400 216.200 295.275 214.900 C 295.122 213.321,295.180 213.325,293.605 214.796 C 288.342 219.712,277.661 217.169,273.462 210.000 C 272.882 209.010,272.406 208.390,272.404 208.622 M321.342 211.800 C 321.341 213.780,321.408 214.640,321.492 213.712 C 321.576 212.784,321.577 211.164,321.495 210.112 C 321.412 209.060,321.343 209.820,321.342 211.800 M328.025 209.000 C 328.002 209.563,330.752 212.915,332.265 214.166 C 338.994 219.732,349.894 218.225,354.895 211.038 C 355.369 210.357,354.686 210.893,353.378 212.229 C 345.973 219.793,334.823 218.604,328.720 209.600 C 328.347 209.050,328.034 208.780,328.025 209.000 M312.083 216.000 C 312.331 216.810,320.873 216.895,321.037 216.090 C 321.094 215.810,321.049 215.764,320.937 215.990 C 320.634 216.600,313.088 216.521,312.430 215.900 C 312.002 215.496,311.935 215.516,312.083 216.000 M241.107 216.690 C 241.826 216.779,242.906 216.777,243.507 216.686 C 244.108 216.595,243.520 216.522,242.200 216.524 C 240.880 216.526,240.388 216.601,241.107 216.690 " stroke="none" fill="#5f7375" fill-rule="evenodd"></path><path id="path4" d="M64.430 170.410 C 54.058 172.592,45.460 179.844,41.679 189.600 C 40.514 192.607,39.895 195.309,40.111 196.449 C 40.258 197.224,40.301 197.167,40.346 196.142 C 40.556 191.273,44.239 184.129,48.984 179.384 C 65.000 163.368,91.084 169.649,98.824 191.385 C 99.219 192.493,99.555 193.160,99.571 192.867 C 99.587 192.573,99.065 190.998,98.412 189.366 C 93.036 175.940,78.004 167.555,64.430 170.410 M64.800 173.426 C 57.075 175.097,49.989 180.099,46.465 186.370 C 45.141 188.726,45.702 188.375,47.216 185.900 C 58.542 167.384,86.717 170.175,95.462 190.679 C 96.007 191.956,96.340 192.460,96.203 191.800 C 93.751 179.986,77.751 170.625,64.800 173.426 M44.650 189.991 C 43.747 192.247,43.887 192.583,44.837 190.442 C 45.266 189.475,45.545 188.612,45.458 188.525 C 45.371 188.438,45.008 189.098,44.650 189.991 M75.302 189.858 C 74.009 190.495,72.399 192.597,72.401 193.647 C 72.401 193.951,72.716 193.574,73.101 192.808 C 75.198 188.634,80.829 188.637,82.881 192.814 C 83.255 193.576,83.570 193.930,83.579 193.600 C 83.671 190.505,78.621 188.222,75.302 189.858 M56.800 190.000 C 56.800 190.220,56.958 190.355,57.152 190.300 C 57.345 190.245,58.698 191.153,60.159 192.318 C 63.130 194.686,62.675 194.726,66.141 191.800 C 68.647 189.685,68.485 189.098,68.435 200.100 C 68.409 205.945,68.550 210.038,68.790 210.400 C 69.304 211.176,69.340 190.841,68.825 190.027 C 68.490 189.498,64.522 192.031,63.764 193.258 C 63.319 193.979,62.269 193.530,59.883 191.600 C 57.383 189.577,56.800 189.274,56.800 190.000 M56.977 195.200 L 57.000 199.400 58.300 199.525 C 59.015 199.594,59.600 199.490,59.600 199.295 C 59.600 199.099,59.067 199.017,58.414 199.113 L 57.229 199.287 57.091 195.143 L 56.954 191.000 56.977 195.200 M76.262 193.131 C 75.898 193.534,75.600 194.024,75.600 194.220 C 75.600 194.417,75.880 194.178,76.223 193.689 C 77.455 191.930,80.000 192.829,80.000 195.024 C 80.000 196.154,79.805 196.494,78.974 196.810 C 77.553 197.350,77.312 197.312,76.400 196.400 C 75.960 195.960,75.600 195.752,75.600 195.938 C 75.600 196.603,77.081 197.600,78.070 197.600 C 79.387 197.600,80.400 196.439,80.400 194.930 C 80.400 192.703,77.708 191.533,76.262 193.131 M96.666 194.487 C 96.786 195.306,97.023 196.926,97.192 198.087 L 97.500 200.200 97.519 198.200 C 97.530 197.100,97.293 195.480,96.993 194.600 L 96.448 193.000 96.666 194.487 M308.705 193.483 C 309.202 193.579,309.922 193.575,310.305 193.475 C 310.687 193.375,310.280 193.296,309.400 193.301 C 308.520 193.305,308.207 193.387,308.705 193.483 M42.845 196.111 C 42.280 199.356,42.277 202.989,42.839 205.608 C 43.476 208.576,43.605 207.891,43.087 204.295 C 42.753 201.980,42.757 200.256,43.104 197.513 C 43.644 193.234,43.490 192.404,42.845 196.111 M321.293 195.200 C 321.293 195.970,321.375 196.285,321.476 195.900 C 321.576 195.515,321.576 194.885,321.476 194.500 C 321.375 194.115,321.293 194.430,321.293 195.200 M59.646 196.286 C 59.675 196.973,59.763 197.130,59.877 196.694 C 60.047 196.043,60.159 196.057,61.330 196.870 L 62.600 197.751 61.804 196.839 C 60.380 195.204,59.593 195.003,59.646 196.286 M64.294 196.265 C 63.470 196.851,62.883 197.417,62.989 197.523 C 63.231 197.765,65.994 195.907,65.997 195.500 C 66.001 195.066,65.940 195.093,64.294 196.265 M72.414 196.281 C 72.406 196.546,72.604 197.210,72.853 197.757 C 73.246 198.619,73.139 199.006,72.053 200.645 C 70.745 202.620,70.324 205.837,71.196 207.200 C 71.454 207.603,71.501 207.130,71.341 205.755 C 71.069 203.430,71.648 201.243,72.815 200.186 C 73.247 199.796,73.594 199.099,73.586 198.638 C 73.571 197.745,72.438 195.467,72.414 196.281 M82.865 197.017 C 82.221 198.432,82.284 199.406,83.062 200.051 C 84.619 201.342,85.280 205.078,84.375 207.474 C 84.032 208.382,84.048 208.503,84.456 208.099 C 85.630 206.937,85.366 202.751,83.988 200.690 C 82.818 198.940,82.753 198.679,83.209 197.577 C 83.821 196.101,83.512 195.598,82.865 197.017 M100.279 199.200 C 100.402 201.070,100.570 202.675,100.651 202.767 C 100.939 203.089,100.750 198.982,100.405 197.400 C 100.156 196.257,100.120 196.772,100.279 199.200 M321.355 203.400 C 321.356 206.260,321.420 207.378,321.497 205.883 C 321.574 204.389,321.574 202.049,321.496 200.683 C 321.418 199.318,321.355 200.540,321.355 203.400 M56.800 201.224 C 56.800 201.504,56.903 201.630,57.030 201.504 C 57.229 201.304,58.599 202.054,64.653 205.674 C 65.770 206.342,65.932 206.355,66.148 205.791 C 66.290 205.422,66.224 205.261,65.991 205.405 C 65.772 205.541,63.929 204.661,61.896 203.450 C 57.527 200.846,56.800 200.528,56.800 201.224 M75.436 202.031 C 73.987 203.753,74.037 205.698,75.569 207.231 C 78.955 210.616,83.664 205.714,80.564 202.031 C 79.741 201.052,79.216 200.800,78.000 200.800 C 76.784 200.800,76.259 201.052,75.436 202.031 M80.500 202.446 C 82.114 204.390,80.885 207.442,78.320 207.858 C 75.694 208.284,73.874 205.279,75.226 202.751 C 76.140 201.043,79.189 200.866,80.500 202.446 M97.260 202.600 C 97.187 204.175,96.328 208.636,95.796 210.200 C 95.578 210.843,95.608 210.882,95.953 210.400 C 96.649 209.425,97.668 204.241,97.495 202.557 L 97.334 201.000 97.260 202.600 M56.885 207.100 L 56.800 211.600 58.300 211.536 C 59.758 211.474,59.764 211.467,58.513 211.312 L 57.227 211.151 57.098 206.876 L 56.970 202.600 56.885 207.100 M100.093 204.400 C 100.093 205.170,100.175 205.485,100.276 205.100 C 100.376 204.715,100.376 204.085,100.276 203.700 C 100.175 203.315,100.093 203.630,100.093 204.400 M59.600 206.800 C 59.600 207.020,59.833 207.200,60.118 207.200 C 60.404 207.200,61.979 208.027,63.618 209.039 C 67.558 211.468,68.162 211.786,67.834 211.255 C 67.182 210.200,59.600 206.098,59.600 206.800 M137.305 206.687 C 137.914 206.779,138.814 206.777,139.305 206.682 C 139.797 206.587,139.300 206.511,138.200 206.514 C 137.100 206.517,136.697 206.595,137.305 206.687 M354.500 206.676 C 354.885 206.776,355.515 206.776,355.900 206.676 C 356.285 206.575,355.970 206.493,355.200 206.493 C 354.430 206.493,354.115 206.575,354.500 206.676 M40.590 208.400 C 40.830 209.891,42.031 213.303,42.241 213.092 C 42.310 213.023,41.916 211.624,41.366 209.983 C 40.815 208.342,40.466 207.630,40.590 208.400 M71.944 208.696 C 73.844 212.246,79.500 213.021,82.654 210.164 L 84.200 208.763 82.485 209.949 C 79.198 212.222,76.307 212.076,73.366 209.486 C 72.128 208.397,71.639 208.125,71.944 208.696 M98.526 210.893 C 98.046 212.264,97.713 213.447,97.787 213.521 C 97.990 213.724,99.647 209.142,99.515 208.745 C 99.452 208.555,99.007 209.521,98.526 210.893 M44.212 210.400 C 45.132 213.690,48.837 219.131,52.030 221.882 C 65.404 233.403,86.603 229.446,94.414 213.972 C 96.092 210.648,95.876 210.475,94.094 213.715 C 83.389 233.171,55.805 232.828,45.815 213.115 C 44.780 211.072,44.058 209.850,44.212 210.400 M42.690 214.300 C 48.394 229.389,69.802 236.060,85.200 227.545 C 89.715 225.049,98.650 215.317,97.492 214.158 C 97.385 214.051,96.755 214.925,96.092 216.099 C 84.734 236.224,54.084 235.751,43.646 215.291 C 42.782 213.596,42.193 212.987,42.690 214.300 " stroke="none" fill="#1f7377" fill-rule="evenodd"></path></g></svg>