<?xml version="1.0" encoding="UTF-8"?>
<svg width="512px" height="512px" viewBox="0 0 512 512" version="1.1" xmlns="http://www.w3.org/2000/svg" xmlns:xlink="http://www.w3.org/1999/xlink">
    <!-- Generator: Sketch 52.2 (67145) - http://www.bohemiancoding.com/sketch -->
    <title>Group 5</title>
    <desc>Created with Sketch.</desc>
    <defs>
        <linearGradient x1="100%" y1="0%" x2="8.20876885%" y2="93.4019122%" id="linearGradient-1">
            <stop stop-color="#FFA817" offset="0%"></stop>
            <stop stop-color="#FF4905" offset="100%"></stop>
        </linearGradient>
    </defs>
    <g id="Page-1" stroke="none" stroke-width="1" fill="none" fill-rule="evenodd">
        <g id="logo" transform="translate(-614.000000, -1434.000000)">
            <g id="Group-5" transform="translate(614.000000, 1434.000000)">
                <polygon id="App-Icon" fill="#191A3D" points="0 0 512 0 512 512 0 512"></polygon>
                <g id="Group-13-Copy-6" transform="translate(255.500000, 256.500000) rotate(-45.000000) translate(-255.500000, -256.500000) translate(105.000000, 101.000000)">
                    <path d="M35.3640171,55.2437308 L150.384885,0.223600007 L145.296377,43.8054483 L298.938165,13.8222222 L256.023029,155.093391 L301.00004,148.18228 L244.80974,273.788329 C234.79314,296.179125 212.554007,310.593395 188.02484,310.593401 L62.2079848,310.59346 C27.8514551,310.593468 -2.1771435e-05,282.742004 -2.99004971e-05,248.385475 C-2.99004994e-05,248.385465 -2.99004994e-05,248.385455 -2.99004972e-05,248.385445 L3.10348249e-05,111.361754 C3.65916516e-05,87.4071206 13.7544646,65.5806412 35.3640171,55.2437308 Z" id="Rectangle" fill="url(#linearGradient-1)"></path>
                    <path d="M69.1577011,96.7555556 L179.945747,96.7555556 C199.032708,96.7555556 214.505747,112.228595 214.505747,131.315556 L214.505747,241.884444 C214.505747,260.971405 199.032708,276.444444 179.945747,276.444444 L69.1577011,276.444444 C50.0707402,276.444444 34.5977011,260.971405 34.5977011,241.884444 L34.5977011,131.315556 C34.5977011,112.228595 50.0707402,96.7555556 69.1577011,96.7555556 Z M89.954023,172.777778 C101.418693,172.777778 110.712644,163.495148 110.712644,152.044444 C110.712644,140.593741 101.418693,131.311111 89.954023,131.311111 C78.4893534,131.311111 69.1954023,140.593741 69.1954023,152.044444 C69.1954023,163.495148 78.4893534,172.777778 89.954023,172.777778 Z M89.954023,241.888889 C101.418693,241.888889 110.712644,232.606259 110.712644,221.155556 C110.712644,209.704852 101.418693,200.422222 89.954023,200.422222 C78.4893534,200.422222 69.1954023,209.704852 69.1954023,221.155556 C69.1954023,232.606259 78.4893534,241.888889 89.954023,241.888889 Z M159.149425,172.777778 C170.614095,172.777778 179.908046,163.495148 179.908046,152.044444 C179.908046,140.593741 170.614095,131.311111 159.149425,131.311111 C147.684756,131.311111 138.390805,140.593741 138.390805,152.044444 C138.390805,163.495148 147.684756,172.777778 159.149425,172.777778 Z M159.149425,241.888889 C170.614095,241.888889 179.908046,232.606259 179.908046,221.155556 C179.908046,209.704852 170.614095,200.422222 159.149425,200.422222 C147.684756,200.422222 138.390805,209.704852 138.390805,221.155556 C138.390805,232.606259 147.684756,241.888889 159.149425,241.888889 Z" id="Combined-Shape" fill="#191A3D"></path>
                </g>
            </g>
        </g>
    </g>
</svg>