<?xml version="1.0" encoding="UTF-8"?>
<svg width="120px" height="120px" viewBox="0 0 120 120" version="1.1" xmlns="http://www.w3.org/2000/svg" xmlns:xlink="http://www.w3.org/1999/xlink">
    <!-- Generator: Sketch 52.5 (67469) - http://www.bohemiancoding.com/sketch -->
    <title>eosavatarimg.now.sh</title>
    <desc>Created with Sketch.</desc>
    <defs>
        <linearGradient x1="50%" y1="0%" x2="50%" y2="100%" id="linearGradient-1">
            <stop stop-color="#BD3A2E" offset="0%"></stop>
            <stop stop-color="#5A1507" offset="100%"></stop>
        </linearGradient>
    </defs>
    <g id="eosavatarimg.now.sh" stroke="none" stroke-width="1" fill="none" fill-rule="evenodd">
        <path d="" id="Path-5" stroke="#979797"></path>
        <path d="M29.1666667,58 C26.1567925,30.6666667 36.3790148,17 59.8333333,17 C83.2876519,17 93.398763,30.6666667 90.1666667,58 C94.1666667,58.6666667 95.5,61.3333333 94.1666667,66 C92.8333333,70.6666667 90.8333333,74.3333333 88.1666667,77 C81.5278266,94.3333333 71.8611599,103 59.1666667,103 C46.4721734,103 36.8055067,94.3333333 30.1666667,77 C27.5,76.3333333 25.8333333,73 25.1666667,67 C24.5,61 25.8333333,58 29.1666667,58 Z M33.1666667,49.5 L36.1666667,66 C35.5,66 34.8333333,66 34.1666667,66 C33.1666667,61 29.1666667,62 29.1666667,65 C29.1666667,67 30.8333333,70 34.1666667,74 C40.375,90 49.0416667,98 60.1666667,98 C76.8541667,98 83.1666667,77 84.1666667,74 C88.1666667,73 90.1666667,62 88.1666667,62 C86.8333333,62 85.1666667,63.6666667 83.1666667,67 L82.1666667,67 L85.1666667,52 C78.5,52 71.5,51.1666667 64.1666667,49.5 C53.1666667,47 47.1666667,37 45.1666667,37 C43.1666667,37 41.1666667,38 38.1666667,41 C36.1666667,43 34.5,45.8333333 33.1666667,49.5 Z" id="Combined-Shape" fill="url(#linearGradient-1)"></path>
    </g>
</svg>