<?xml version="1.0" encoding="UTF-8"?>
<svg width="255px" height="255px" viewBox="0 0 255 255" version="1.1" xmlns="http://www.w3.org/2000/svg" xmlns:xlink="http://www.w3.org/1999/xlink">
    <!-- Generator: Sketch 50.2 (55047) - http://www.bohemiancoding.com/sketch -->
    <title>Group 2</title>
    <desc>Created with Sketch.</desc>
    <defs>
        <linearGradient x1="14.2184397%" y1="14.4477541%" x2="85.7992514%" y2="85.6112687%" id="linearGradient-1">
            <stop stop-color="#F4C439" offset="34.18%"></stop>
            <stop stop-color="#F1A618" offset="100%"></stop>
        </linearGradient>
        <linearGradient x1="14.6740931%" y1="14.7650631%" x2="85.4065063%" y2="85.3583202%" id="linearGradient-2">
            <stop stop-color="#231815" offset="34.18%"></stop>
            <stop stop-color="#231815" offset="100%"></stop>
        </linearGradient>
        <linearGradient x1="8.13733645%" y1="8.24509346%" x2="91.9581776%" y2="91.9010748%" id="linearGradient-3">
            <stop stop-color="#231815" offset="34.18%"></stop>
            <stop stop-color="#231815" offset="100%"></stop>
        </linearGradient>
        <linearGradient x1="21.0895369%" y1="3.47315609%" x2="78.6985849%" y2="96.2409091%" id="linearGradient-4">
            <stop stop-color="#FFFFFF" offset="42.31%"></stop>
            <stop stop-color="#CCCCCC" offset="100%"></stop>
        </linearGradient>
        <linearGradient x1="9.60164591%" y1="9.86205516%" x2="90.4171263%" y2="90.2064057%" id="linearGradient-5">
            <stop stop-color="#F4C439" offset="34.18%"></stop>
            <stop stop-color="#F1A618" offset="100%"></stop>
        </linearGradient>
        <linearGradient x1="0.0249506254%" y1="50.0291447%" x2="100.027452%" y2="50.0291447%" id="linearGradient-6">
            <stop stop-color="#F4C439" offset="34.18%"></stop>
            <stop stop-color="#F1A618" offset="100%"></stop>
        </linearGradient>
        <linearGradient x1="-0.0340909091%" y1="50.0314631%" x2="100.024716%" y2="50.0314631%" id="linearGradient-7">
            <stop stop-color="#3A3A3A" offset="34.18%"></stop>
            <stop stop-color="#231815" offset="100%"></stop>
        </linearGradient>
        <linearGradient x1="7.63205318%" y1="-18.1838257%" x2="92.061226%" y2="117.772378%" id="linearGradient-8">
            <stop stop-color="#FFFFFF" offset="42.31%"></stop>
            <stop stop-color="#CCCCCC" offset="100%"></stop>
        </linearGradient>
        <linearGradient x1="-0.12382199%" y1="-30.7772926%" x2="99.7582897%" y2="130.203319%" id="linearGradient-9">
            <stop stop-color="#FFFFFF" offset="42.31%"></stop>
            <stop stop-color="#CCCCCC" offset="100%"></stop>
        </linearGradient>
        <linearGradient x1="-11.1184834%" y1="-10.7203791%" x2="111.146998%" y2="110.832306%" id="linearGradient-10">
            <stop stop-color="#F4C439" offset="34.18%"></stop>
            <stop stop-color="#F1A618" offset="100%"></stop>
        </linearGradient>
        <linearGradient x1="1.0729983%" y1="-28.7381601%" x2="98.5718058%" y2="128.264055%" id="linearGradient-11">
            <stop stop-color="#FFFFFF" offset="42.31%"></stop>
            <stop stop-color="#CCCCCC" offset="100%"></stop>
        </linearGradient>
    </defs>
    <g id="Page-1" stroke="none" stroke-width="1" fill="none" fill-rule="evenodd">
        <g id="Group-2">
            <g id="EOSABC">
                <path d="M254.7,127.2 C254.7,197.3 197.9,254.1 127.8,254.1 C57.7,254.1 0.9,197.3 0.9,127.2 C0.9,57.1 57.7,0.3 127.8,0.3 C197.9,0.4 254.7,57.2 254.7,127.2 Z" id="XMLID_12_" fill="url(#linearGradient-1)"></path>
                <g id="XMLID_1_" transform="translate(1.000000, 0.000000)">
                    <path d="M154.3,3.4 C145.4,1.4 136.2,0.4 126.8,0.4 C117.3,0.4 108.1,1.5 99.3,3.4 L99.3,99.7 L3,99.7 C1,108.6 0,117.8 0,127.2 C0,136.7 1.1,145.9 3,154.7 L99.3,154.7 L99.3,251 C108.2,253 117.4,254 126.8,254 C136.3,254 145.5,252.9 154.3,251 L154.3,154.7 L250.6,154.7 C252.6,145.8 253.6,136.6 253.6,127.2 C253.6,117.7 252.5,108.5 250.6,99.7 L154.3,99.7 L154.3,3.4 Z" id="XMLID_11_" fill="url(#linearGradient-2)"></path>
                    <path d="M58.7,20.2 C51,25.1 43.8,30.8 37.1,37.5 C30.4,44.2 24.7,51.5 19.8,59.1 L87.9,127.2 L19.8,195.3 C24.7,203 30.4,210.2 37.1,216.9 C43.8,223.6 51.1,229.3 58.7,234.2 L126.8,166.1 L194.9,234.2 C202.6,229.3 209.8,223.6 216.5,216.9 C223.2,210.2 228.9,202.9 233.8,195.3 L165.7,127.2 L233.8,59.1 C228.9,51.4 223.2,44.2 216.5,37.5 C209.8,30.8 202.5,25.1 194.9,20.2 L126.8,88.3 L58.7,20.2 Z" id="XMLID_10_" fill="url(#linearGradient-3)"></path>
                </g>
                <path d="M244.4,127.2 C244.4,191.6 192.2,243.8 127.8,243.8 C63.4,243.8 11.2,191.6 11.2,127.2 C11.2,62.8 63.4,10.6 127.8,10.6 C192.2,10.6 244.4,62.8 244.4,127.2 Z" id="XMLID_9_" fill="url(#linearGradient-4)"></path>
                <path d="M240.2,127.2 C240.2,189.3 189.9,239.6 127.8,239.6 C65.7,239.6 15.4,189.3 15.4,127.2 C15.4,65.1 65.7,14.8 127.8,14.8 C189.9,14.8 240.2,65.1 240.2,127.2 Z" id="XMLID_8_" fill="url(#linearGradient-5)"></path>
                <path d="M203.7,127.2 C203.7,169.1 169.7,203.2 127.8,203.2 C85.9,203.2 51.8,169.2 51.8,127.2 C51.8,85.2 85.8,51.2 127.8,51.2 C169.7,51.3 203.7,85.3 203.7,127.2 Z" id="XMLID_7_" fill="url(#linearGradient-6)"></path>
                <path d="M127.8,54.6 C87.7,54.6 55.1,87.1 55.1,127.3 C55.1,167.4 87.6,200 127.8,200 C167.9,200 200.5,167.5 200.5,127.3 C200.5,87.1 167.9,54.6 127.8,54.6 Z" id="XMLID_6_" fill="#FFFFFF" fill-rule="nonzero"></path>
                <path d="M198.2,127.2 C198.2,166.1 166.7,197.6 127.8,197.6 C88.9,197.6 57.4,166.1 57.4,127.2 C57.4,88.3 88.9,56.8 127.8,56.8 C166.7,56.8 198.2,88.3 198.2,127.2 Z" id="XMLID_5_" fill="url(#linearGradient-7)"></path>
                <path d="M142.5,61.1 C137.8,60.1 132.9,59.5 127.8,59.5 C122.8,59.5 117.8,60.1 113.1,61.1 L113.1,112.5 L61.7,112.5 C60.7,117.2 60.1,122.1 60.1,127.2 C60.1,132.2 60.7,137.2 61.7,141.9 L113.1,141.9 L113.1,193.3 C117.8,194.3 122.7,194.9 127.8,194.9 C132.8,194.9 137.8,194.3 142.5,193.3 L142.5,141.9 L193.9,141.9 C194.9,137.2 195.5,132.3 195.5,127.2 C195.5,122.1 194.9,117.2 193.9,112.5 L142.5,112.5 L142.5,61.1 Z" id="XMLID_4_" fill="url(#linearGradient-8)"></path>
                <path d="M91.4,70 C87.3,72.6 83.4,75.7 79.8,79.3 C76.2,82.9 73.1,86.8 70.5,90.8 L106.9,127.2 L70.5,163.6 C73.1,167.7 76.2,171.6 79.8,175.2 C83.4,178.8 87.3,181.8 91.4,184.5 L127.8,148.1 L164.2,184.5 C168.3,181.9 172.2,178.8 175.8,175.2 C179.4,171.6 182.5,167.7 185.1,163.6 L148.7,127.2 L185.1,90.8 C182.5,86.7 179.4,82.8 175.8,79.3 C172.2,75.7 168.3,72.6 164.2,70 L127.8,106.4 L91.4,70 Z" id="XMLID_3_" fill="url(#linearGradient-9)"></path>
                <path d="M191.1,127.2 C191.1,162.2 162.7,190.5 127.8,190.5 C92.8,190.5 64.5,162.1 64.5,127.2 C64.5,92.2 92.9,63.9 127.8,63.9 C162.8,63.9 191.1,92.3 191.1,127.2 Z" id="XMLID_2_" fill="url(#linearGradient-10)"></path>
                <path d="M186.4,127.7 C186.4,160.1 160.1,186.4 127.7,186.4 C95.3,186.4 69,160.1 69,127.7 C69,95.3 95.3,69 127.7,69 C160.1,69 186.4,95.3 186.4,127.7 Z" id="XMLID_13_" fill="url(#linearGradient-11)"></path>
            </g>
            <g id="eos-(3)" transform="translate(97.000000, 83.000000)" fill="#231815" fill-rule="nonzero">
                <path d="M28.2374284,89 L9.86632715,30.2227122 L0,72.1223815 L28.2374284,89 Z M62,71.8672547 L52.3901973,30.6544653 L34.2756206,88.430871 L62,71.8672547 Z M50.0222788,26.3958103 L31.0986633,0 L12.4907703,26.2584344 L31.0986633,86.2524807 L50.0222788,26.3958103 Z" id="Shape"></path>
            </g>
            <g id="Group" transform="translate(18.000000, 102.000000)" fill="#231815" font-family="Arial-Black, Arial Black" font-size="36" font-weight="700">
                <text id="E">
                    <tspan x="0" y="40">E</tspan>
                </text>
                <text id="O">
                    <tspan x="17" y="91">O</tspan>
                </text>
                <text id="S">
                    <tspan x="66" y="124">S</tspan>
                </text>
                <text id="A">
                    <tspan x="130" y="124">A</tspan>
                </text>
                <text id="B">
                    <tspan x="178" y="87">B</tspan>
                </text>
                <text id="C">
                    <tspan x="189" y="40">C</tspan>
                </text>
            </g>
        </g>
    </g>
</svg>