<?xml version="1.0" encoding="utf-8"?>
<!-- Generator: Adobe Illustrator 16.0.0, SVG Export Plug-In . SVG Version: 6.00 Build 0)  -->
<!DOCTYPE svg PUBLIC "-//W3C//DTD SVG 1.1//EN" "http://www.w3.org/Graphics/SVG/1.1/DTD/svg11.dtd">
<svg version="1.1" id="Layer_1" xmlns="http://www.w3.org/2000/svg" xmlns:xlink="http://www.w3.org/1999/xlink" x="0px" y="0px"
	 width="546.667px" height="611.501px" viewBox="0 0 546.667 611.501" enable-background="new 0 0 546.667 611.501"
	 xml:space="preserve">
<g>
	<linearGradient id="SVGID_1_" gradientUnits="userSpaceOnUse" x1="274.1763" y1="607.8154" x2="274.1763" y2="424.4756">
		<stop  offset="0" style="stop-color:#231F20;stop-opacity:0.5"/>
		<stop  offset="1" style="stop-color:#FFFFFF;stop-opacity:0"/>
	</linearGradient>
	<path fill-rule="evenodd" clip-rule="evenodd" fill="url(#SVGID_1_)" d="M268.344,440.679
		c-28.33,20.703-238.943,167.137-238.943,167.137l-2.688-0.245L5.21,605.372l239.706-165.547c0,0,11.597-8.812,19.203-12.521
		c12.793-6.237,21.054-0.683,26.023,2.55c6.99,4.546,13.293,9.354,13.293,9.354l239.706,165.547l-21.503,2.197l-2.688,0.245
		c0,0-199.975-139.6-227.53-158.838c-2.04-1.425-10.068-7.015-10.068-7.015S274.629,437.012,268.344,440.679z"/>
</g>
<g>
	<linearGradient id="SVGID_2_" gradientUnits="userSpaceOnUse" x1="275.4263" y1="124.7344" x2="275.4263" y2="7.7754">
		<stop  offset="0" style="stop-color:#00368C;stop-opacity:0.9919"/>
		<stop  offset="1" style="stop-color:#2B75FF"/>
	</linearGradient>
	<path fill-rule="evenodd" clip-rule="evenodd" fill="url(#SVGID_2_)" d="M271.621,124.734c0,0,3.099-2.294,7.61-0.458
		l-0.152-104.261l-0.536-12.239h-6.655L271.621,124.734z"/>
</g>
<g>
	<path fill-rule="evenodd" clip-rule="evenodd" fill="none" d="M83.068,469.154l10.375,8.007l363.433-0.411l9.752-8.006
		L83.068,469.154z"/>
</g>
<g>
	<linearGradient id="SVGID_3_" gradientUnits="userSpaceOnUse" x1="360.4697" y1="253.375" x2="406.0381" y2="253.375">
		<stop  offset="0.2" style="stop-color:#00368C"/>
		<stop  offset="1" style="stop-color:#2B75FF"/>
	</linearGradient>
	<path fill-rule="evenodd" clip-rule="evenodd" fill="url(#SVGID_3_)" d="M366.289,321.743l39.749-123.041l-2.444-11.155
		c0,0-0.658-0.894-1.869-2.54L360.47,313.321L366.289,321.743z"/>
	<linearGradient id="SVGID_4_" gradientUnits="userSpaceOnUse" x1="144.8784" y1="251.4678" x2="189.0107" y2="251.4678">
		<stop  offset="0" style="stop-color:#2B75FF"/>
		<stop  offset="0.8" style="stop-color:#00368C"/>
	</linearGradient>
	<path fill-rule="evenodd" clip-rule="evenodd" fill="url(#SVGID_4_)" d="M189.011,308.653L149.546,185.86l-2.744,3.826
		c0,0-0.691,3.146-1.924,8.756l38.314,118.633L189.011,308.653z"/>
</g>
<rect x="1479" y="679" fill="#FFFFFF" stroke="#231F20" stroke-miterlimit="10" width="4" height="0"/>
<g>
	<linearGradient id="SVGID_5_" gradientUnits="userSpaceOnUse" x1="274.5044" y1="126.4731" x2="274.5044" y2="470.5981">
		<stop  offset="0" style="stop-color:#0CB083"/>
		<stop  offset="1" style="stop-color:#00AEFF"/>
	</linearGradient>
	<path fill-rule="evenodd" clip-rule="evenodd" fill="url(#SVGID_5_)" d="M469.494,469.201c0,0-17.025,1.314-24.642,1.314
		c0.231,1.926-17.68-30.146-42.238-74.48c-25.178-45.448-58.686-105.033-87.998-157.42c-8.85-15.849-17.752-31.75-26.602-47.6
		c-3.51-5.912-5.576-9.713-9.428-16.992c-0.576-0.819-1.686-1.292-2.309-1.351c-1.98-0.186-2.669,0.888-3.165,1.752
		c-39.543,68.832-79.19,137.395-118.727,206.228c-12.762,22.229-25.466,44.465-38.228,66.695
		c-3.885,6.558-9.101,15.644-13.127,22.274c-6.175,0-23.515,0.019-23.515,0.019s3.685-10.03,10.577-23.092
		c10.547-19.988,26.689-47.559,34.708-60.956c34.461-57.577,66.031-116.751,100.104-174.15
		c11.527-19.966,23.117-39.938,34.644-59.903c3.075-5.185,11.477-21.199,12.844-23.004c0.313-0.413,1.873-2.025,3.414-2.063
		c0.988-0.024,2.078,0.526,2.801,1.007c0.427,0.285,1.264,1.471,1.489,1.874c43.993,78.818,87.997,157.659,131.987,236.476
		c10.704,19.143,21.409,38.291,32.113,57.433C452.162,436.826,469.494,469.201,469.494,469.201z"/>
	<linearGradient id="SVGID_6_" gradientUnits="userSpaceOnUse" x1="3.2637" y1="545.2305" x2="90.0356" y2="545.2305">
		<stop  offset="0" style="stop-color:#2B75FF"/>
		<stop  offset="1" style="stop-color:#1993C2"/>
	</linearGradient>
	<path fill-rule="evenodd" clip-rule="evenodd" fill="url(#SVGID_6_)" d="M70.263,482.55c6.792,4.116,12.98,8.234,19.773,12.351
		c-20.996,37.666-41.693,75.346-62.688,113.012c-7.41-0.205-14.822-0.411-22.232-0.618c-0.618-0.411-1.235-0.822-1.853-1.235
		c0.243-4.645,3.878-8.973,6.454-13.742c4.414-8.17,9.095-16.604,12.69-22.692C38.257,540.602,54.414,511.57,70.263,482.55z"/>
	<linearGradient id="SVGID_7_" gradientUnits="userSpaceOnUse" x1="457.5166" y1="545.1016" x2="543.4385" y2="545.1016">
		<stop  offset="0" style="stop-color:#1993C2"/>
		<stop  offset="1" style="stop-color:#2B75FF"/>
	</linearGradient>
	<path fill-rule="evenodd" clip-rule="evenodd" fill="url(#SVGID_7_)" d="M475.946,482.293c4.458,7.319,10.459,19.188,14.566,26.193
		c12.967,22.847,25.523,45.924,38.491,68.771c2.903,5.309,11.167,20.583,14.206,26.396c0.579,1.107-0.112,1.858-0.205,2.406
		c-0.411,0.618-0.823,1.141-1.234,1.759c-7.825,0.208-22.298-0.002-22.298-0.002s-32.667-58.573-48.104-86.979
		c-4.518-7.712-10.406-17.264-13.853-26.162C463.279,490.559,470.183,486.411,475.946,482.293z"/>
</g>
<g>
	<path fill="#2B75FF" d="M82.619,469.565l10.266,8.007l140.689-0.158c-0.839-2.663-1.68-5.334-2.522-8.007L82.619,469.565z"/>
	<polygon fill="#2B75FF" points="303.059,477.329 305.628,469.32 243.839,469.397 246.364,477.404 	"/>
	<path fill="#2B75FF" d="M467.087,469.154l-149.368,0.156c-0.857,2.673-1.717,5.344-2.573,8.009l142.291-0.158L467.087,469.154z"/>
</g>
<path fill-rule="evenodd" clip-rule="evenodd" fill="#2B75FF" d="M473.555,471.876l-64.072-288.479
	c0,0-126.084-171.164-130.63-177.391c-4.545-6.227-8.41,1.863-8.41,1.863L158.736,159.86l-17.475,24.257
	c0,0-62.537,281.221-63.533,285.829c-0.996,4.606,1.121,5.602,1.121,5.602s190.348,120.05,192.901,122.043
	c2.552,1.991,4.67,0.996,4.67,0.996s193.212-121.294,195.577-122.852C474.364,474.18,473.555,471.876,473.555,471.876z
	 M463.408,472.019c-2.262,1.49-187.027,117.506-187.027,117.506s-2.022,0.951-4.464-0.953
	c-2.44-1.905-184.525-116.389-184.525-116.389s-2.024-0.951-1.071-5.355c0.951-4.405,61.167-277.59,61.167-277.59l16.399-23.133
	L275.292,14.83L403.31,188.594l61.587,279.735C464.896,468.329,465.671,470.53,463.408,472.019z"/>
<g>
	<linearGradient id="SVGID_8_" gradientUnits="userSpaceOnUse" x1="274.9722" y1="598.6055" x2="274.9722" y2="327.8472">
		<stop  offset="0" style="stop-color:#00368C;stop-opacity:0.9919"/>
		<stop  offset="0.5323" style="stop-color:#2B75FF"/>
	</linearGradient>
	<path fill-rule="evenodd" clip-rule="evenodd" fill="url(#SVGID_8_)" d="M355.959,327.847l5.396,8.971
		c0,0-71.242,223.475-82.359,255.21c-1.085,3.102-1.494,4.865-2.653,5.799c-1.851,1.488-4.373,0.601-5.396-0.629
		c-0.587-0.704-1.207-2.304-1.605-3.732c-2.391-8.539-80.752-256.733-80.752-256.733l5.157-8.596l80.351,254.867L355.959,327.847z"
		/>
</g>
</svg>
