<?xml version="1.0" encoding="UTF-8"?>
<svg width="120px" height="120px" viewBox="0 0 120 120" version="1.1" xmlns="http://www.w3.org/2000/svg" xmlns:xlink="http://www.w3.org/1999/xlink">
    <!-- Generator: Sketch 52.5 (67469) - http://www.bohemiancoding.com/sketch -->
    <title>eosbooks.io</title>
    <desc>Created with Sketch.</desc>
    <g id="eosbooks.io" stroke="none" stroke-width="1" fill="none" fill-rule="evenodd">
        <path d="" id="Path-5" stroke="#979797"></path>
        <g id="iconfinder_78_111113" transform="translate(21.000000, 13.000000)" fill="#010101">
            <path d="M0,7.83315371 L0,86.1670618 C0,90.4947925 3.49068576,94 7.8001717,94 L73.1245439,94 C75.815102,94 78,91.8068204 78,89.104737 C78,86.4015758 75.815102,84.2083962 73.1245439,84.2083962 L13.6500322,84.2083962 C11.5046255,84.2083962 9.75026828,82.4452307 9.75026828,80.291496 C9.75026828,78.1388391 11.5048401,76.375458 13.6500322,76.375458 L70.199399,76.375458 C74.5086704,76.375458 78,72.8691728 78,68.5412266 L78,7.83315371 C78,3.50563859 74.5086704,0.000215545904 70.199399,0.000215545904 L42.8999785,0.000215545904 L42.8999785,35.2311936 C42.8999785,35.739882 42.7057415,36.2483547 42.334223,36.6404327 C41.5748744,37.4034652 40.3248895,37.4034652 39.5651116,36.6404327 C39.0579492,36.1108365 31.1998283,29.5511279 31.1998283,29.5511279 C31.1998283,29.5511279 23.3419221,36.1108365 22.8343303,36.6404327 C22.0745524,37.4034652 20.8256407,37.4034652 20.0654336,36.6404327 C19.6952028,36.2483547 19.4998927,35.739882 19.4998927,35.2311936 L19.4998927,0 L7.8001717,0 C3.49047113,0 0,3.50563859 0,7.83315371 Z" id="Path"></path>
        </g>
    </g>
</svg>