<?xml version="1.0" encoding="UTF-8"?>
<svg width="128px" height="128px" viewBox="0 0 128 128" version="1.1" xmlns="http://www.w3.org/2000/svg" xmlns:xlink="http://www.w3.org/1999/xlink">
    <!-- Generator: Sketch 53 (72520) - https://sketchapp.com -->
    <title>eosbet</title>
    <desc>Created with Sketch.</desc>
    <g id="eosbet" stroke="none" stroke-width="1" fill="none" fill-rule="evenodd">
        <g id="Group-3" fill-rule="nonzero">
            <g id="__eosbet__token">
                <circle id="Oval" fill="#FFFFFF" cx="63.6035398" cy="63.6035398" r="63.6035398"></circle>
                <path d="M126.040115,71.5179332 L120.160458,71.5179332 C117.65539,71.480557 115.644417,69.4500437 115.644699,66.9582944 L115.644699,61.1105576 C115.682279,58.6190887 117.723876,56.6190331 120.229226,56.6193134 L126.108883,56.6193134 C126.755112,56.622509 127.392792,56.7664727 127.977077,57.04108 C126.028582,39.2803075 116.693318,23.1418307 102.234957,12.5390053 C102.155542,13.1329537 101.960918,13.7059134 101.661891,14.2260716 L98.7048711,19.2644725 C97.4264451,21.4148117 94.646295,22.1416558 92.469914,20.8945434 L87.4269341,17.9535763 C85.2852237,16.6833392 84.5570692,13.9435278 85.7879656,11.7866648 L88.7449857,6.73686487 C89.0368815,6.22936311 89.4263214,5.78393859 89.8911175,5.42596871 C73.5001927,-1.75241733 54.842472,-1.81025127 38.4068768,5.26638135 C38.8704035,5.61657462 39.259888,6.05430288 39.5530086,6.55447932 L42.4756447,11.6384766 C43.6833986,13.8019081 42.9357102,16.528549 40.7908309,17.7825899 L35.6905444,20.6893596 C33.515304,21.8905569 30.7737799,21.1469275 29.512894,19.0136924 L26.5902579,13.9410942 C26.3038971,13.4417549 26.1171017,12.8921517 26.0401146,12.3224224 C11.5704298,22.828794 2.16523931,38.8638582 0.0916905444,56.5623179 C0.649812496,56.3277742 1.25090303,56.2113144 1.85673352,56.220345 L7.73638968,56.220345 C10.2414581,56.2577212 12.2524309,58.2882346 12.252149,60.7799838 L12.252149,66.6277206 C12.2145688,69.1191895 10.172972,71.1192452 7.66762178,71.1189648 L1.78796562,71.1189648 C1.16666726,71.101102 0.556656335,70.9494272 5.43454171e-14,70.6744 C1.8726379,88.4997495 11.1777713,104.726345 25.6504298,115.404457 C25.7052408,114.742653 25.9047324,114.100743 26.234957,113.523606 L29.2034384,108.473806 C29.8046553,107.439046 30.7957438,106.685277 31.957333,106.379341 C33.1189222,106.073405 34.3552092,106.240534 35.3925501,106.843735 L40.469914,109.784702 C42.6048817,111.054489 43.3321592,113.785942 42.1088825,115.940214 L39.1518625,121.001413 C38.8044845,121.577533 38.335165,122.071533 37.7765043,122.449099 C54.2995345,129.774463 73.1579417,129.853061 89.7421203,122.665682 C89.1609132,122.284823 88.6779818,121.773273 88.3323782,121.1724 L85.4097421,116.099802 C84.2019882,113.93637 84.9496766,111.209729 87.0945559,109.955688 L92.1948424,107.048919 C94.3671223,105.845765 97.1077519,106.584095 98.3724928,108.713187 L101.295129,113.797184 C101.632366,114.391162 101.828396,115.054046 101.868195,115.735031 C116.501199,105.170844 125.986495,88.9678749 128,71.0961666 C127.386002,71.3788717 126.716699,71.5229055 126.040115,71.5179332 Z" id="Path" fill="#0070EF"></path>
                <path d="M94.4572997,33.6457991 C79.9750919,19.1146512 57.2442049,16.8389012 40.1686658,28.2105797 C23.0931267,39.5822582 16.4299413,61.4333748 24.2548463,80.3980405 C32.0797513,99.3627061 52.2128379,110.157631 72.3391013,106.179776 C92.4653647,102.201921 106.97791,84.5594608 106.999705,64.0439342 C107.042052,52.6436619 102.526356,41.6992911 94.4572997,33.6457991 Z" id="Path" fill="#172131"></path>
                <g id="Group" transform="translate(20.389381, 20.389381)" fill="#439AFF">
                    <path d="M18.3730973,8.46510833 L44.0863717,42.5494863 L44.0863717,0.391833589 C34.8747455,0.37567835 25.8869748,3.19757167 18.3730973,8.46510833 Z" id="Path"></path>
                    <path d="M2.6619469,30.6166819 C-0.207849391,39.0550334 -0.207849391,48.1895033 2.6619469,56.6278547 L44.2902655,43.6166697 L2.6619469,30.6166819 Z" id="Path"></path>
                    <path d="M68.3125664,79.1377398 C75.7486897,73.9810094 81.3276943,66.614764 84.2389381,58.1093358 L42.6106195,45.109348 L68.3125664,79.1377398 Z" id="Path"></path>
                    <path d="M45.2141593,86.6106195 L45.2141593,45.2885037 L19.500885,79.3168955 C27.0147624,84.5844322 36.0025331,87.0162248 45.2141593,87.0003953 L45.2141593,86.6106195 Z" id="Path"></path>
                    <path d="M68.3125664,8.51164683 L42.6106195,42.5400387 L84.2389381,29.5288536 C81.3241692,21.028271 75.7456598,13.6666013 68.3125664,8.51164683 Z" id="Path"></path>
                </g>
                <circle id="Oval" fill="#0070EF" cx="63.6035398" cy="63.6035398" r="35.9079646"></circle>
            </g>
            <g id="Group-4" transform="translate(44.000000, 41.000000)">
                <path d="M41.2567216,11.1104269 C41.3862468,10.3414017 41.4680685,9.56515546 41.5017216,8.78610258 C41.6474887,6.17387063 40.4133328,3.67543128 38.2467216,2.19664312 C36.0922771,0.732318796 33.0706105,0.000156633469 29.1817216,0.000156633469 L8.18172156,0.000156633469 C7.61121721,-0.00911306561 7.11768345,0.394022076 7.0150549,0.953129606 L0.0150548961,41.4079945 C-0.040122998,41.7469183 0.0579737462,42.0928007 0.283030727,42.3528588 C0.508087708,42.6129169 0.837067544,42.7605306 1.18172156,42.7561026 L22.1817216,42.7561026 C26.8483882,42.7561026 30.5894993,41.7372738 33.4050549,39.6996161 C36.2536955,37.6333681 38.1495592,34.5137116 38.6667216,31.041508 C38.7907982,30.3823764 38.8532877,29.7132088 38.8533882,29.0425891 C38.9662596,25.0856537 36.2034543,21.6221786 32.3083882,20.8377242 C34.5448193,20.2876432 36.5718828,19.1003318 38.1417216,17.4209674 C39.7855737,15.6718967 40.8698996,13.4752089 41.2567216,11.1104269 Z" id="Path" fill="#FFFFFF"></path>
                <path d="M25.2267216,21.2212377 C24.8091913,20.3919722 24.2661847,19.6315624 23.6167216,18.9666431 C22.0864942,17.3749056 20.6565431,15.6904298 19.3350549,13.9228593 L18.6817216,13.0163728 L18.6817216,13.0163728 L18.6817216,13.0163728 L17.9933882,13.9228593 C16.6725002,15.6912834 15.2466214,17.3794323 13.7233882,18.9782647 C13.0704804,19.6385892 12.5235182,20.395108 12.1017216,21.2212377 C11.6899293,21.9991163 11.5117177,22.8786645 11.5883882,23.7547512 C11.6543328,24.4468701 11.9643446,25.0933225 12.4633882,25.5793458 C13.1614927,26.2711524 14.1037103,26.6632702 15.0883882,26.6717783 C16.1163682,26.7130596 17.134093,26.454562 18.0167216,25.9279945 L18.1333882,25.8582647 C18.1333882,26.0442107 18.1333882,26.2069134 18.1333882,26.3696161 C18.0243674,26.903739 17.823042,27.4149401 17.5383882,27.8804269 C17.2000549,28.4731296 16.8383882,29.0425891 16.5000549,29.6352918 L16.4417216,29.7398864 L21.1083882,29.7398864 C21.1127805,29.7051588 21.1127805,29.6700194 21.1083882,29.6352918 L20.0583882,27.8920485 C19.7792776,27.4250726 19.5820149,26.9141698 19.4750549,26.3812377 C19.4750549,26.218535 19.4750549,26.0558323 19.4050549,25.8582647 L19.5333882,25.9279945 C20.4144985,26.4592586 21.4324996,26.7218666 22.4617216,26.6833999 C23.4451405,26.6688222 24.3851673,26.2776162 25.0867216,25.5909674 C25.5793052,25.1003659 25.8881424,24.4563629 25.9617216,23.7663728 C25.9808942,22.8634541 25.7246063,21.9759882 25.2267216,21.2212377 Z" id="Path" fill="#0070EF"></path>
            </g>
        </g>
    </g>
</svg>