<?xml version="1.0" encoding="UTF-8"?>
<svg width="120px" height="120px" viewBox="0 0 120 120" version="1.1" xmlns="http://www.w3.org/2000/svg" xmlns:xlink="http://www.w3.org/1999/xlink">
    <!-- Generator: Sketch 52.5 (67469) - http://www.bohemiancoding.com/sketch -->
    <title>eosbingo.net</title>
    <desc>Created with Sketch.</desc>
    <g id="eosbingo.net" stroke="none" stroke-width="1" fill="none" fill-rule="evenodd">
        <path d="" id="Path-5" stroke="#979797"></path>
        <circle id="Oval" fill="#FF0000" cx="60" cy="60" r="48"></circle>
        <circle id="Oval-Copy" fill="#FFFFFF" cx="60" cy="60" r="32"></circle>
        <path d="M45,41 L66.53125,41 C70.1198096,41 72.8746649,41.888663 74.7958984,43.6660156 C76.717132,45.4433683 77.6777344,47.6438671 77.6777344,50.2675781 C77.6777344,52.46811 76.9921944,54.3554609 75.6210938,55.9296875 C74.7070267,56.9791719 73.3698005,57.8085907 71.609375,58.4179688 C74.2838675,59.0612011 76.2516213,60.1656823 77.5126953,61.7314453 C78.7737693,63.2972083 79.4042969,65.2649621 79.4042969,67.6347656 C79.4042969,69.5644628 78.9557337,71.2994715 78.0585938,72.8398438 C77.1614538,74.380216 75.9342526,75.5989538 74.3769531,76.4960938 C73.4121046,77.0546903 71.9563899,77.4609362 70.0097656,77.7148438 C67.4199089,78.0533871 65.7018271,78.2226562 64.8554688,78.2226562 L45,78.2226562 L45,41 Z M56.6035156,55.5996094 L61.6054688,55.5996094 C63.3997486,55.5996094 64.6481085,55.2906932 65.3505859,54.6728516 C66.0530634,54.0550099 66.4042969,53.1621152 66.4042969,51.9941406 C66.4042969,50.9108019 66.0530634,50.0644562 65.3505859,49.4550781 C64.6481085,48.8457001 63.4251389,48.5410156 61.6816406,48.5410156 L56.6035156,48.5410156 L56.6035156,55.5996094 Z M56.6035156,70.2246094 L62.46875,70.2246094 C64.4492287,70.2246094 65.8456991,69.8733759 66.6582031,69.1708984 C67.4707072,68.468421 67.8769531,67.5247455 67.8769531,66.3398438 C67.8769531,65.2395778 67.4749389,64.3551466 66.6708984,63.6865234 C65.866858,63.0179003 64.4576924,62.6835938 62.4433594,62.6835938 L56.6035156,62.6835938 L56.6035156,70.2246094 Z" id="B" fill="#111111"></path>
    </g>
</svg>