<svg id="svg" version="1.1" width="380" height="530" xmlns="http://www.w3.org/2000/svg" xmlns:xlink="http://www.w3.org/1999/xlink" ><g id="svgg"><path id="path0" d="M195.733 37.305 C 120.149 57.724,55.840 75.250,52.824 76.252 C 40.103 80.477,29.609 90.491,24.929 102.869 C 21.386 112.243,20.790 189.251,24.207 196.309 C 27.359 202.820,38.030 214.027,45.258 218.418 C 51.497 222.208,53.230 224.584,52.032 227.706 C 49.446 234.444,29.273 224.576,16.526 210.338 C 6.774 199.446,0.503 201.926,0.547 216.656 C 0.580 227.487,11.013 245.263,17.336 245.263 C 21.187 245.263,21.579 248.071,21.579 275.689 L 21.579 302.632 24.417 308.687 C 27.922 316.167,35.958 324.807,44.721 330.516 C 52.078 335.309,53.547 338.032,50.448 341.131 C 45.338 346.241,25.597 334.432,12.819 318.619 C 9.788 314.869,5.821 315.135,2.736 319.296 C -4.244 328.709,5.129 353.722,18.268 360.743 C 20.057 361.699,20.288 364.037,21.027 388.763 C 21.824 415.411,21.870 415.814,24.787 421.817 C 28.246 428.935,39.519 440.744,46.017 444.059 C 53.094 447.668,54.304 453.396,48.386 455.274 C 42.927 457.007,21.389 442.827,14.689 433.088 C 5.461 419.675,-4.388 437.704,3.040 454.412 C 5.287 459.466,14.487 469.601,19.200 472.214 C 20.777 473.089,21.161 475.859,21.958 492.141 C 23.963 533.072,48.091 557.287,86.842 557.262 L 98.421 557.254 168.947 538.040 C 265.749 511.668,363.410 484.959,377.498 481.005 C 391.481 477.080,395.332 474.927,397.695 469.714 C 399.341 466.083,399.495 451.359,399.753 272.625 L 400.033 79.460 397.648 74.738 C 390.722 61.027,395.230 60.349,276.299 93.012 L 175.263 120.760 174.737 198.307 L 174.211 275.853 164.906 267.227 C 159.719 262.418,155.294 259.071,154.906 259.664 C 154.523 260.248,150.421 265.987,145.789 272.417 L 137.368 284.108 137.098 207.187 L 136.828 130.266 133.941 130.878 C 132.352 131.215,124.109 133.127,115.621 135.127 C 79.227 143.704,74.752 143.597,63.983 133.888 C 54.114 124.990,53.340 113.713,62.287 109.165 C 64.213 108.186,123.975 91.733,195.090 72.603 L 324.390 37.822 331.180 44.173 C 338.014 50.565,352.141 61.053,353.918 61.053 C 356.302 61.053,354.368 11.306,351.826 7.217 C 345.123 -3.560,351.663 -4.821,195.733 37.305 " stroke="none" fill="#000000" fill-rule="evenodd"></path></g></svg>
