<?xml version="1.0" encoding="utf-8"?>
<!-- Generator: Adobe Illustrator 22.1.0, SVG Export Plug-In . SVG Version: 6.00 Build 0)  -->
<svg version="1.1" id="Layer_1" xmlns="http://www.w3.org/2000/svg" xmlns:xlink="http://www.w3.org/1999/xlink" x="0px" y="0px"
	 viewBox="0 0 922 166" style="enable-background:new 0 0 922 166;" xml:space="preserve">
<style type="text/css">
	.st0{fill:#172A39;}
	.st1{fill:#22BB8B;}
	.st2{fill:#7AD6B9;}
</style>
<title>Eosfinex_logo_UI</title>
<path class="st0" d="M189.7,105.6c0-34.1,23.7-55.2,48.4-55.2c28.4,0,43.4,20.5,43.4,49.9c0,4.7-0.4,12-0.4,12h-67.4
	c2.1,18.6,14,29.3,31,29.3c9,0,16.7-2.8,24.4-7.6l8.4,15.3c-10.6,7.3-23.1,11.2-36,11.4C212.5,160.6,189.7,140.2,189.7,105.6z
	 M260.2,95.5c0-16.2-7.2-26-21.5-26c-12.2,0-23,9.1-25.1,26H260.2z"/>
<path class="st0" d="M303.6,105.6c0-35,23.8-55.2,50-55.2s50,20.2,50,55.2c0,34.8-23.8,55-50,55S303.6,140.4,303.6,105.6z
	 M378.2,105.6c0-21-9.2-35.1-24.6-35.1s-24.6,14-24.6,35.1s9.2,34.9,24.6,34.9S378.2,126.6,378.2,105.6z"/>
<path class="st0" d="M417.9,146l11.5-15.7c9.3,7.3,18.3,11.7,29,11.7c11.5,0,16.8-5.4,16.8-12.6c0-8.8-11.4-12.8-22.6-17
	c-13.8-5.2-29.5-13.1-29.5-30.6c0-18.2,14.7-31.4,38.2-31.4c14.6,0,26.3,6,34.9,12.6L485,78.1c-7.4-5.4-14.8-9.1-23-9.1
	c-10.6,0-15.6,5-15.6,11.6c0,8.3,10.6,11.5,22,15.6c14.2,5.3,30.1,12.1,30.1,31.7c0,18-14.3,32.6-40.8,32.6
	C443.3,160.6,428.2,154.4,417.9,146z"/>
<path class="st0" d="M535.8,58.3h33v8.2h-47.3l0.1-8.2H535.8 M535.6,35.5c0-20.4,9.2-30.9,25.4-30.9c5.2,0.1,10.3,1.3,15,3.5
	l-2.6,7.7c-3.8-1.9-8-2.9-12.2-2.9c-11.1,0-16.1,8.4-16.1,23.3V161h-9.5L535.6,35.5z"/>
<path class="st0" d="M596.7,58.3h9.5V161h-9.5V58.3z"/>
<path class="st0" d="M643.3,58.3v16h0.5c10.5-10.4,21.2-18.5,35.3-18.5c21.2,0,31.1,12.9,31.1,39.4V161h-9.5V96.4
	c0-21.8-6.9-32.1-23.4-32.1c-12.2,0-21.1,6.5-33.6,19.3V161h-9.5V58.3L643.3,58.3z"/>
<path class="st0" d="M736,106.9c0-33.5,21.8-54.1,44.8-54.1c24.3,0,39.3,17.3,39.3,47.5v7.7h-74.4c0.3,25.9,15.5,44.5,38.7,44.5
	c11.1,0,19.9-3.7,27.6-9.1l3.9,7.2c-8.1,5-17.3,10.1-32.4,10.1C757.3,160.6,736,140.5,736,106.9z M811.2,100.2
	c0-26.2-11.9-39.3-30.3-39.3c-17.4,0-33.1,14.7-35.2,39.3H811.2z"/>
<path class="st0" d="M870.1,107.4l-31.9-49h10.5l16.5,26.1c3.4,5.6,7.1,11.2,10.9,16.9h0.8c3.7-5.6,7-11.2,10.7-16.9l15.9-26.1h10
	l-31.9,49.8l34.7,52.8h-10.5l-18.2-28c-3.8-6.4-7.9-12.8-12.1-18.8h-0.8c-4.1,6-7.8,12.4-11.9,18.8l-17.5,28h-10L870.1,107.4z"/>
<polygon class="st1" points="88,80 134.7,160.6 152.4,105 88,15.5 "/>
<circle class="st0" cx="601.6" cy="24.1" r="8.4"/>
<polygon class="st2" points="68.4,80 21.7,160.6 4,105 68.4,15.5 "/>
</svg>
