<?xml version="1.0" encoding="UTF-8"?>
<svg width="120px" height="120px" viewBox="0 0 120 120" version="1.1" xmlns="http://www.w3.org/2000/svg" xmlns:xlink="http://www.w3.org/1999/xlink">
    <!-- Generator: Sketch 52.5 (67469) - http://www.bohemiancoding.com/sketch -->
    <title>eosfilestore.now.sh</title>
    <desc>Created with Sketch.</desc>
    <g id="eosfilestore.now.sh" stroke="none" stroke-width="1" fill="none" fill-rule="evenodd">
        <g id="iconfinder_file-directory_298771" transform="translate(15.000000, 21.000000)" fill="#000000" fill-rule="nonzero">
            <path d="M84.5,13 C84.5,13 52,13 48.75,13 C45.5,13 45.5,9.75 45.5,9.75 C45.5,9.75 45.5,7.59179688 45.5,6.5 C45.5,0 39,0 39,0 C39,0 13,0 6.5,0 C0,0 0,6.5 0,6.5 L0,78 L91,78 C91,78 91,26.203125 91,19.5 C91,12.796875 84.5,13 84.5,13 Z M39,13 L6.5,13 L6.5,9.75 C6.5,9.75 6.5,6.5 9.75,6.5 L35.75,6.5 C39,6.5 39,9.75 39,9.75 L39,13 Z" id="Shape"></path>
        </g>
    </g>
</svg>