<?xml version="1.0" encoding="utf-8"?>
<!-- Generator: Adobe Illustrator 16.0.0, SVG Export Plug-In . SVG Version: 6.00 Build 0)  -->
<!DOCTYPE svg PUBLIC "-//W3C//DTD SVG 1.1//EN" "http://www.w3.org/Graphics/SVG/1.1/DTD/svg11.dtd">
<svg version="1.1" id="Layer_1" xmlns="http://www.w3.org/2000/svg" xmlns:xlink="http://www.w3.org/1999/xlink" x="0px" y="0px"
	 width="100%" height="100%" viewBox="0 0 500 500" enable-background="new 0 0 500 500" xml:space="preserve">
<g>
	<path fill="#FF5522" d="M305,232.7c-25.9-20.9-39.4-31.4-54.2-61c-15.3,29.3-29,39.5-55.2,60c-40.9,32.2-18.8,74.8,13,77.1
		c19.8,1.5,31.9-12.6,37.6-21.5c-1.8,12.1-5.6,33.4-10.2,43l26.9,0.2c-4.4-9.6-7.8-31.1-9.5-43c5.5,8.9,17.4,23.2,37.2,22
		C322.5,307.8,345.4,265.6,305,232.7z"/>
	<path fill="#FF5522" d="M443.1,108.6l-166.2-96C260.2,3,239.7,3,223,12.6l-166.2,96c-16.6,9.6-26.9,27.4-26.9,46.6v191.9
		c0,19.2,10.3,37,26.9,46.6l166.2,96c8.3,4.8,17.6,7.2,26.9,7.2c9.3,0,18.6-2.4,26.9-7.2l166.2-96c16.6-9.6,26.9-27.4,26.9-46.6
		V155.2C470,136,459.7,118.2,443.1,108.6z M390.2,94.2l-26,45l-16.3-9.4l26-45L390.2,94.2z M344.8,68l16.3,9.4v0l-26,45l-16.3-9.4
		L344.8,68L344.8,68z M332.1,60.6l-26,45l-16.3-9.4l26-45L332.1,60.6z M95.8,294.3h-52v-18.8h52V294.3z M95.8,260.7h-52v-18.8h52
		V260.7z M95.8,227.2h-52v-18.8h52V227.2z M194.5,45.3l17.6,30.6c3.9,6.8,1.6,15.5-5.2,19.4L136.2,136c-6.8,3.9-15.5,1.6-19.4-5.2
		l-17.6-30.6L194.5,45.3z M212.2,426.8l-17.6,30.6l-95.3-55l17.7-30.6c3.9-6.8,12.6-9.1,19.4-5.2l70.7,40.8
		C213.8,411.3,216.1,419.9,212.2,426.8z M265.6,390.2c-4.8,2.8-10.2,4.2-15.6,4.2c-5.4,0-10.8-1.4-15.7-4.2l-96.9-55.9
		c-9.7-5.6-15.7-16-15.7-27.2V195.2c0-11.2,6-21.5,15.7-27.2l96.9-55.9c9.7-5.6,21.6-5.6,31.3,0l96.9,55.9
		c9.7,5.6,15.7,16,15.7,27.2v111.9c0,11.2-6,21.5-15.7,27.2L265.6,390.2z M315.8,451.2l-26-45l16.3-9.4l26,45L315.8,451.2z
		 M344.9,434.5l-26-45l16.3-9.4l26,45L344.9,434.5z M374,417.7l-26-45l16.3-9.4l26,45L374,417.7z M456.1,306.2h-35.3
		c-7.8,0-14.2-6.4-14.2-14.2v-81.6c0-7.8,6.4-14.2,14.2-14.2h35.3V306.2z"/>
</g>
</svg>
