<?xml version="1.0" standalone="no"?>
<!DOCTYPE svg PUBLIC "-//W3C//DTD SVG 20010904//EN"
 "http://www.w3.org/TR/2001/REC-SVG-20010904/DTD/svg10.dtd">
<svg version="1.0" xmlns="http://www.w3.org/2000/svg"
 width="512.000000pt" height="512.000000pt" viewBox="0 0 512.000000 512.000000"
 preserveAspectRatio="xMidYMid meet">

<g transform="translate(0.000000,512.000000) scale(0.100000,-0.100000)"
fill="#000000" stroke="none">
<path d="M2360 4819 c-275 -24 -563 -105 -814 -231 -447 -224 -805 -586 -1027
-1041 -416 -853 -253 -1878 411 -2571 305 -319 719 -548 1165 -645 214 -46
570 -56 800 -21 637 96 1192 448 1549 984 173 259 276 505 345 831 20 94 41
310 41 430 0 378 -104 781 -282 1100 -443 789 -1294 1242 -2188 1164z m555
-278 c563 -105 1030 -411 1335 -876 387 -592 440 -1333 141 -1970 -259 -551
-763 -961 -1351 -1099 -189 -45 -242 -50 -470 -50 -245 0 -317 9 -529 65 -264
70 -528 203 -741 376 -98 79 -269 257 -345 358 -198 262 -316 539 -381 895
-27 145 -25 485 4 645 56 314 170 589 352 847 76 107 260 303 369 390 294 237
656 389 1047 438 119 15 445 4 569 -19z"/>
<path d="M2334 4481 c-76 -9 -109 -48 -69 -81 24 -20 294 8 309 33 8 12 8 22
0 35 -9 14 -27 17 -100 18 -49 1 -112 -1 -140 -5z"/>
<path d="M2674 4483 c-18 -14 -23 -40 -10 -58 8 -12 43 -20 126 -31 152 -19
170 -20 181 -3 13 20 11 45 -3 56 -29 23 -272 52 -294 36z"/>
<path d="M2085 4433 c-62 -13 -210 -71 -219 -85 -17 -28 5 -53 45 -52 53 1
250 67 263 87 23 37 -24 64 -89 50z"/>
<path d="M3062 4408 c-16 -16 -15 -43 1 -56 16 -14 214 -83 254 -89 24 -4 34
0 42 15 23 42 3 57 -152 111 -96 34 -126 38 -145 19z"/>
<path d="M1705 4289 c-91 -47 -195 -114 -200 -130 -3 -9 -3 -23 1 -32 13 -34
42 -28 136 25 51 29 105 60 120 67 36 18 45 47 22 72 -21 24 -29 23 -79 -2z"/>
<path d="M3436 4254 c-18 -17 -19 -24 -8 -41 13 -21 232 -153 253 -153 11 0
25 11 31 26 11 24 10 29 -20 54 -46 38 -204 130 -224 130 -9 0 -24 -7 -32 -16z"/>
<path d="M1383 4081 c-28 -17 -139 -116 -175 -155 -10 -10 -18 -26 -18 -36 0
-38 55 -55 81 -23 8 9 50 48 94 86 93 82 99 90 86 116 -15 28 -35 31 -68 12z"/>
<path d="M3777 4032 c-10 -10 -17 -25 -17 -33 0 -20 193 -209 213 -209 20 0
47 27 47 46 0 26 -192 214 -219 214 -4 0 -15 -8 -24 -18z"/>
<path d="M2452 3829 c-349 -33 -646 -197 -842 -464 -46 -62 -143 -244 -159
-299 -66 -219 -76 -287 -75 -501 0 -173 5 -212 40 -365 47 -199 158 -404 296
-543 159 -160 334 -252 608 -319 75 -18 545 -18 650 0 235 41 349 76 395 122
l30 30 0 606 c0 588 -1 606 -19 620 -16 12 -97 14 -473 14 -440 0 -454 -1
-473 -20 -18 -18 -20 -33 -20 -185 0 -224 -27 -205 298 -205 l255 0 -6 -112
c-4 -62 -7 -192 -7 -289 l0 -176 -57 -14 c-39 -9 -121 -13 -248 -13 -171 -1
-197 2 -265 23 -215 67 -365 195 -464 396 -71 143 -108 374 -87 546 16 138 37
212 91 324 81 167 186 273 345 349 130 62 179 71 395 70 198 -1 298 -15 480
-69 84 -25 85 -25 102 -5 9 11 19 44 23 72 4 29 15 97 26 152 24 126 24 142
-4 161 -54 35 -288 80 -494 95 -155 11 -220 11 -341 -1z"/>
<path d="M1092 3795 c-42 -36 -152 -194 -152 -220 0 -27 22 -48 46 -43 10 2
48 46 86 98 106 145 101 136 89 158 -16 31 -38 33 -69 7z"/>
<path d="M4052 3738 c-22 -22 -13 -46 52 -145 93 -142 105 -152 140 -117 25
25 19 44 -40 134 -87 132 -120 160 -152 128z"/>
<path d="M869 3458 c-24 -27 -97 -186 -106 -229 -15 -78 68 -77 92 1 4 14 25
62 46 108 44 94 47 117 20 132 -27 14 -30 13 -52 -12z"/>
<path d="M4255 3391 c-17 -19 -15 -24 29 -134 25 -62 46 -118 46 -124 0 -5 9
-18 20 -28 28 -25 70 -7 70 31 0 29 -71 217 -95 252 -20 27 -46 28 -70 3z"/>
<path d="M723 3088 c-16 -20 -31 -76 -49 -181 -18 -107 -13 -127 32 -127 28 0
39 19 49 80 4 25 15 79 24 121 20 87 14 119 -22 119 -14 0 -29 -6 -34 -12z"/>
<path d="M4385 3007 c-11 -17 -12 -32 -6 -57 5 -19 15 -73 21 -120 16 -111 23
-130 54 -130 35 0 56 34 49 79 -29 201 -45 251 -83 251 -11 0 -26 -10 -35 -23z"/>
<path d="M664 2696 c-17 -13 -19 -27 -19 -151 0 -131 2 -138 24 -156 17 -14
27 -16 42 -9 17 10 19 23 19 157 0 127 -2 147 -17 159 -23 17 -25 17 -49 0z"/>
<path d="M4438 2613 c-11 -13 -17 -54 -22 -152 -6 -118 -5 -136 10 -152 22
-24 36 -24 60 2 16 18 20 40 22 155 4 140 -2 164 -38 164 -9 0 -24 -8 -32 -17z"/>
<path d="M680 2285 c-15 -18 -9 -72 19 -186 24 -97 36 -119 65 -119 47 0 50
21 22 134 -14 57 -26 112 -26 123 0 48 -53 80 -80 48z"/>
<path d="M4406 2217 c-16 -12 -70 -182 -83 -263 -10 -63 60 -75 88 -14 24 52
70 237 63 255 -5 13 -34 35 -46 35 -2 0 -12 -6 -22 -13z"/>
<path d="M781 1891 c-13 -23 -9 -34 56 -173 46 -99 63 -116 103 -103 38 12 30
35 -78 255 -21 42 -64 54 -81 21z"/>
<path d="M4273 1828 c-6 -7 -28 -50 -51 -95 -22 -46 -48 -93 -56 -105 -9 -12
-16 -32 -16 -44 0 -21 28 -54 47 -54 19 0 52 46 102 143 52 99 60 134 39 155
-16 16 -53 15 -65 0z"/>
<path d="M977 1542 c-9 -10 -17 -24 -17 -31 0 -18 59 -107 119 -178 57 -69 81
-77 107 -38 19 30 23 23 -88 165 -41 52 -81 96 -89 98 -8 1 -23 -6 -32 -16z"/>
<path d="M4043 1443 c-20 -27 -54 -66 -74 -89 -59 -67 -72 -90 -60 -112 14
-26 38 -34 62 -21 32 17 179 201 179 224 0 27 -18 45 -46 45 -15 0 -36 -16
-61 -47z"/>
<path d="M1236 1237 c-12 -9 -17 -23 -14 -42 2 -22 25 -47 102 -112 97 -81
129 -96 154 -71 25 25 13 56 -40 99 -29 24 -76 65 -105 91 -55 51 -69 56 -97
35z"/>
<path d="M3789 1174 c-7 -9 -53 -45 -101 -82 -72 -53 -88 -70 -88 -92 0 -30
16 -50 40 -50 17 0 150 95 208 149 33 31 40 59 20 79 -17 17 -63 15 -79 -4z"/>
<path d="M1546 981 c-28 -31 -11 -56 72 -105 126 -73 170 -92 189 -80 29 18
39 42 27 62 -12 19 -230 140 -255 141 -9 1 -24 -8 -33 -18z"/>
<path d="M3390 909 c-52 -27 -100 -49 -106 -49 -23 0 -47 -39 -40 -64 11 -46
45 -43 163 14 60 28 116 59 125 67 34 31 16 84 -26 82 -12 -1 -64 -23 -116
-50z"/>
<path d="M1918 819 c-11 -6 -18 -22 -18 -39 0 -41 17 -49 209 -101 69 -19 75
-19 92 -3 22 20 25 57 7 72 -7 5 -43 17 -80 26 -36 9 -92 25 -124 36 -66 23
-63 23 -86 9z"/>
<path d="M3005 773 c-55 -14 -111 -30 -125 -37 -31 -15 -37 -42 -14 -67 21
-23 65 -20 194 13 90 23 120 41 120 71 0 53 -26 56 -175 20z"/>
<path d="M2301 717 c-15 -15 -14 -52 2 -66 21 -17 141 -31 277 -31 140 0 196
11 205 40 6 20 -10 60 -24 60 -4 0 -107 2 -229 4 -149 2 -224 0 -231 -7z"/>
</g>
</svg>
