<?xml version="1.0" standalone="no"?>
<!DOCTYPE svg PUBLIC "-//W3C//DTD SVG 20010904//EN"
 "http://www.w3.org/TR/2001/REC-SVG-20010904/DTD/svg10.dtd">
<svg version="1.0" xmlns="http://www.w3.org/2000/svg"
 width="1024.000000pt" height="1024.000000pt" viewBox="0 0 1024.000000 1024.000000"
 preserveAspectRatio="xMidYMid meet">
<metadata>
Created by potrace 1.15, written by Peter Selinger 2001-2017
</metadata>
<g transform="translate(0.000000,1024.000000) scale(0.100000,-0.100000)"
fill="#000000" stroke="none">
<path d="M4595 10231 c-6 -5 -41 -12 -80 -15 -38 -4 -100 -9 -137 -12 -38 -4
-68 -10 -68 -15 0 -5 -22 -9 -49 -9 -28 0 -53 -4 -56 -10 -3 -5 -26 -10 -50
-10 -24 0 -47 -4 -50 -10 -3 -5 -18 -10 -33 -10 -33 0 -171 -29 -194 -41 -10
-5 -31 -9 -47 -9 -17 0 -33 -4 -36 -10 -3 -5 -17 -10 -31 -10 -13 0 -32 -4
-42 -9 -25 -13 -121 -41 -143 -41 -10 0 -21 -4 -24 -10 -3 -5 -17 -10 -30 -10
-13 0 -27 -4 -30 -10 -3 -5 -17 -10 -31 -10 -13 0 -24 -4 -24 -10 0 -5 -11
-10 -24 -10 -14 0 -27 -4 -30 -9 -3 -5 -22 -12 -42 -16 -20 -3 -45 -11 -55
-16 -11 -5 -28 -13 -39 -19 -11 -5 -27 -10 -35 -10 -8 0 -15 -4 -15 -10 0 -5
-9 -10 -19 -10 -11 0 -23 -4 -26 -10 -3 -5 -14 -10 -23 -10 -9 0 -30 -7 -46
-15 -15 -8 -35 -15 -42 -15 -8 0 -14 -4 -14 -10 0 -5 -9 -10 -20 -10 -11 0
-20 -4 -20 -10 0 -5 -7 -10 -15 -10 -8 0 -23 -4 -33 -10 -9 -5 -35 -17 -57
-26 -22 -10 -42 -21 -45 -24 -3 -3 -50 -28 -105 -55 -55 -27 -102 -52 -105
-55 -3 -3 -23 -14 -45 -25 -22 -11 -41 -23 -43 -27 -2 -5 -8 -8 -13 -8 -4 0
-40 -20 -78 -45 -38 -25 -74 -45 -79 -45 -6 0 -12 -4 -14 -8 -1 -4 -62 -47
-134 -94 -72 -48 -138 -93 -145 -100 -8 -7 -39 -31 -69 -53 -30 -22 -64 -48
-75 -57 -11 -9 -38 -32 -61 -50 -227 -182 -596 -548 -720 -714 -16 -21 -41
-52 -56 -68 -16 -16 -28 -33 -28 -37 0 -4 -10 -18 -22 -31 -30 -30 -75 -91
-112 -148 -16 -25 -32 -47 -36 -50 -3 -3 -15 -20 -25 -37 -11 -18 -23 -33 -27
-33 -4 0 -8 -4 -8 -10 0 -5 -29 -55 -65 -110 -36 -55 -65 -105 -65 -110 0 -6
-3 -10 -7 -10 -5 0 -17 -20 -28 -45 -11 -25 -23 -45 -27 -45 -5 0 -8 -7 -8
-15 0 -8 -4 -15 -10 -15 -5 0 -10 -9 -10 -19 0 -11 -3 -21 -7 -23 -5 -1 -17
-21 -28 -43 -11 -22 -22 -42 -25 -45 -3 -3 -18 -32 -34 -65 -15 -33 -41 -87
-57 -119 -16 -32 -29 -65 -29 -72 0 -8 -3 -14 -8 -14 -9 0 -42 -74 -42 -94 0
-8 -4 -18 -10 -21 -5 -3 -10 -15 -10 -26 0 -10 -4 -19 -10 -19 -5 0 -10 -11
-10 -25 0 -14 -4 -25 -10 -25 -5 0 -10 -7 -10 -15 0 -8 -4 -23 -10 -33 -5 -9
-17 -45 -27 -79 -10 -35 -21 -63 -25 -63 -4 0 -8 -11 -8 -25 0 -14 -4 -25 -9
-25 -5 0 -11 -12 -14 -27 -3 -16 -13 -55 -22 -88 -9 -33 -19 -72 -22 -87 -3
-16 -9 -28 -14 -28 -5 0 -9 -15 -9 -34 0 -19 -4 -37 -9 -40 -5 -3 -11 -18 -14
-33 -7 -36 -26 -121 -33 -153 -4 -14 -9 -42 -11 -63 -3 -20 -9 -40 -14 -43 -5
-3 -9 -25 -9 -49 0 -24 -5 -47 -10 -50 -6 -3 -10 -26 -10 -50 0 -24 -4 -46 -9
-49 -8 -5 -11 -33 -28 -198 -3 -32 -9 -58 -14 -58 -14 0 -12 -1193 2 -1207 6
-6 12 -35 14 -64 1 -30 8 -85 14 -124 7 -38 14 -90 17 -115 3 -25 10 -49 15
-54 5 -6 9 -27 9 -47 0 -21 5 -41 10 -44 6 -3 10 -24 10 -45 0 -21 4 -41 9
-44 5 -3 12 -37 16 -76 4 -38 11 -70 16 -70 5 0 9 -13 9 -29 0 -17 5 -33 10
-36 6 -3 10 -19 10 -35 0 -16 5 -32 10 -35 6 -3 10 -19 10 -36 0 -16 4 -29 9
-29 5 0 12 -22 16 -50 4 -27 11 -52 16 -56 5 -3 9 -14 9 -25 0 -10 5 -28 10
-39 6 -11 15 -29 20 -40 6 -11 10 -29 10 -40 0 -11 4 -20 9 -20 5 0 12 -20 15
-45 4 -25 11 -45 17 -45 5 0 9 -11 9 -25 0 -14 5 -25 10 -25 6 0 10 -9 10 -19
0 -11 5 -23 10 -26 6 -3 10 -15 10 -26 0 -10 5 -19 10 -19 6 0 10 -7 10 -16 0
-9 7 -32 16 -52 31 -70 59 -127 65 -132 4 -3 10 -20 14 -38 3 -17 11 -32 16
-32 5 0 9 -9 9 -20 0 -11 5 -20 10 -20 6 0 10 -9 10 -19 0 -11 3 -21 8 -23 4
-1 20 -30 37 -63 16 -33 41 -78 56 -100 14 -22 34 -57 45 -78 35 -72 39 -77
46 -77 5 0 8 -5 8 -11 0 -9 106 -178 119 -189 9 -7 29 -41 40 -66 5 -11 15
-27 23 -35 7 -8 31 -39 53 -69 22 -30 42 -57 45 -60 3 -3 17 -21 30 -40 13
-19 32 -44 41 -55 10 -11 38 -45 63 -75 185 -221 392 -436 570 -590 54 -47
107 -94 119 -105 12 -11 40 -34 62 -50 22 -17 42 -32 45 -35 3 -3 23 -18 45
-35 22 -16 42 -31 45 -34 10 -12 89 -71 94 -71 3 0 44 -27 91 -60 47 -33 90
-60 95 -60 4 0 10 -4 12 -9 3 -9 113 -81 123 -81 4 0 25 -13 48 -28 23 -16 56
-35 72 -44 38 -18 79 -41 85 -48 6 -7 242 -122 288 -141 17 -8 32 -17 32 -21
0 -5 9 -8 20 -8 11 0 20 -4 20 -10 0 -5 9 -10 19 -10 11 0 22 -4 25 -9 3 -5
18 -12 33 -15 16 -4 48 -16 73 -28 25 -11 56 -25 70 -30 14 -6 32 -14 40 -18
9 -4 31 -11 50 -15 34 -8 46 -12 87 -33 13 -7 30 -12 38 -12 8 0 24 -4 35 -10
11 -5 28 -14 39 -19 10 -5 39 -12 65 -16 25 -4 49 -11 52 -16 3 -5 16 -9 29
-9 13 0 27 -4 30 -10 3 -5 19 -10 35 -10 16 0 32 -4 35 -10 3 -5 19 -10 34
-10 15 0 31 -3 35 -7 7 -7 96 -26 189 -40 20 -3 40 -9 43 -14 3 -5 25 -9 49
-9 24 0 47 -5 50 -10 3 -6 24 -10 45 -10 21 0 41 -4 44 -9 3 -4 36 -11 73 -15
145 -13 184 -19 189 -27 7 -12 1194 -12 1194 0 0 5 28 11 63 15 34 3 92 9 130
12 37 4 70 11 73 15 3 5 23 9 44 9 21 0 42 5 45 10 3 6 26 10 50 10 24 0 46 4
49 9 3 5 23 11 43 14 93 14 182 33 189 39 4 5 20 8 35 8 15 0 31 5 34 10 3 6
17 10 30 10 13 0 27 5 30 10 3 6 19 10 35 10 16 0 31 4 34 9 4 5 29 12 56 16
27 4 52 11 56 16 3 5 16 9 30 9 13 0 24 5 24 10 0 6 9 10 20 10 19 0 28 3 75
27 12 6 36 14 55 18 34 8 46 12 87 33 13 7 30 12 38 12 8 0 15 5 15 10 0 6 9
10 19 10 11 0 23 5 26 10 3 6 13 10 22 10 9 0 54 19 102 41 185 89 328 161
376 190 28 16 61 35 75 41 21 10 62 36 155 96 11 7 28 15 38 18 9 4 17 10 17
15 0 5 6 9 13 9 7 0 22 8 33 17 11 10 66 49 122 87 57 37 108 73 115 80 7 6
37 29 67 51 30 22 64 48 75 59 11 10 36 30 56 45 123 91 519 472 608 585 17
21 39 46 49 55 10 9 31 34 47 56 17 22 37 47 45 55 8 8 29 33 45 55 16 22 33
45 37 50 4 6 21 26 38 46 16 20 30 41 30 46 0 5 11 20 25 33 14 13 25 29 25
37 0 7 4 13 8 13 5 0 17 16 28 35 10 19 22 35 26 35 5 0 8 6 8 13 0 7 8 22 18
33 10 10 21 26 25 34 4 8 16 29 27 45 11 17 25 40 31 53 7 12 16 22 21 22 4 0
8 9 8 20 0 11 3 20 8 20 8 0 15 12 47 79 11 22 23 41 27 41 5 0 8 5 8 11 0 5
11 27 25 47 14 20 25 45 25 54 0 10 5 18 10 18 6 0 10 9 10 20 0 11 5 20 10
20 6 0 10 7 10 15 0 8 5 15 10 15 6 0 10 9 10 20 0 11 3 20 8 20 9 0 42 74 42
95 0 8 3 15 8 15 4 0 13 15 21 33 7 17 20 48 29 67 9 19 17 37 17 40 4 13 17
47 26 62 5 10 9 25 9 33 0 8 5 15 10 15 6 0 10 11 10 25 0 14 5 25 10 25 6 0
10 9 10 19 0 11 4 22 9 25 5 4 12 25 16 48 4 23 11 50 16 60 5 10 14 27 19 38
6 11 10 29 10 39 0 11 5 23 10 26 6 3 10 17 10 31 0 13 4 24 9 24 5 0 13 25
16 55 4 30 11 55 16 55 5 0 9 13 9 29 0 17 5 33 10 36 6 3 10 19 10 35 0 16 4
31 9 34 5 3 11 20 15 38 24 139 32 177 39 184 4 4 7 24 7 45 0 21 5 41 10 44
5 3 10 26 10 50 0 24 5 47 10 50 6 3 10 28 10 56 0 27 4 49 9 49 7 0 22 126
26 230 1 25 7 55 13 67 16 29 17 975 1 1004 -6 12 -12 46 -15 77 -2 31 -8 93
-14 137 -6 44 -13 103 -16 130 -3 28 -10 54 -15 60 -5 5 -9 26 -9 46 0 21 -4
41 -10 44 -5 3 -10 24 -10 45 0 21 -4 41 -9 44 -5 3 -12 37 -16 76 -4 39 -11
73 -16 76 -5 3 -9 21 -9 40 0 19 -4 34 -10 34 -5 0 -10 16 -10 35 0 19 -4 35
-9 35 -5 0 -11 12 -14 28 -15 76 -29 129 -37 144 -6 10 -10 27 -10 38 0 11 -4
20 -10 20 -5 0 -10 14 -10 30 0 17 -4 30 -10 30 -5 0 -10 11 -10 25 0 14 -4
25 -9 25 -5 0 -12 20 -15 45 -4 25 -11 45 -17 45 -5 0 -9 9 -9 20 0 11 -9 35
-20 55 -11 20 -20 44 -20 55 0 11 -4 20 -8 20 -5 0 -17 27 -28 60 -10 33 -22
60 -26 60 -5 0 -8 9 -8 20 0 11 -4 20 -10 20 -5 0 -10 9 -10 20 0 11 -4 20
-10 20 -5 0 -10 6 -10 14 0 17 -122 260 -132 264 -5 2 -8 12 -8 23 0 10 -4 19
-9 19 -5 0 -11 8 -14 18 -7 21 -62 117 -88 154 -10 14 -19 31 -19 37 0 6 -4
11 -8 11 -5 0 -18 20 -30 44 -12 24 -29 49 -37 56 -8 7 -15 19 -15 26 0 8 -3
14 -8 14 -4 0 -16 16 -26 35 -11 19 -23 35 -28 35 -4 0 -8 6 -8 13 0 7 -8 22
-18 33 -16 18 -45 58 -67 93 -5 9 -17 23 -26 31 -9 8 -28 34 -43 58 -14 23
-30 42 -34 42 -4 0 -16 13 -25 30 -10 16 -30 42 -45 57 -15 15 -35 38 -44 51
-56 81 -363 395 -511 522 -48 41 -106 92 -128 113 -22 20 -44 37 -48 37 -5 0
-21 12 -37 28 -16 15 -54 45 -84 67 -30 21 -57 42 -60 45 -13 14 -111 80 -120
80 -6 0 -10 4 -10 8 0 4 -29 25 -65 47 -36 22 -65 43 -65 48 0 4 -4 7 -10 7
-5 0 -41 20 -80 45 -39 25 -75 45 -80 45 -6 0 -10 4 -10 9 0 5 -8 11 -17 14
-10 3 -45 22 -78 41 -33 20 -98 55 -145 78 -47 23 -86 46 -88 50 -2 4 -12 8
-23 8 -10 0 -19 4 -19 9 0 5 -13 12 -30 16 -16 4 -32 11 -35 16 -4 5 -15 9
-26 9 -10 0 -19 5 -19 10 0 6 -6 10 -13 10 -8 0 -36 11 -63 25 -27 14 -57 25
-66 25 -9 0 -20 5 -23 10 -3 6 -15 10 -26 10 -10 0 -19 5 -19 10 0 6 -7 10
-15 10 -8 0 -24 5 -35 10 -11 6 -28 14 -39 19 -10 5 -35 13 -55 16 -20 4 -39
11 -42 16 -3 5 -14 9 -25 9 -10 0 -28 5 -39 10 -11 6 -29 15 -40 20 -11 6 -29
10 -39 10 -11 0 -22 4 -25 9 -4 5 -29 12 -56 16 -27 4 -52 11 -56 16 -3 5 -18
9 -34 9 -16 0 -32 5 -35 10 -3 6 -17 10 -30 10 -13 0 -27 5 -30 10 -3 6 -21
10 -39 10 -17 0 -36 4 -42 8 -5 5 -54 17 -109 26 -55 10 -108 22 -117 27 -10
5 -36 9 -57 9 -22 0 -43 5 -46 10 -3 6 -28 10 -54 10 -26 0 -51 4 -56 9 -9 8
-45 13 -210 27 -33 3 -64 10 -70 15 -12 12 -1028 12 -1040 0z m975 -395 c14
-2 27 -5 30 -5 3 -1 4 -296 2 -657 l-2 -657 -48 7 c-219 33 -632 33 -880 0
l-52 -7 2 658 3 658 75 5 c41 2 77 6 80 9 6 6 755 -4 790 -11z m-2480 -1936
c0 -3 -53 -48 -117 -100 -138 -110 -433 -402 -518 -512 l-60 -78 -462 463
c-255 254 -463 466 -463 470 0 15 203 236 332 363 67 67 177 167 242 223 l120
102 463 -463 c255 -255 463 -465 463 -468z m5065 854 c175 -145 532 -501 593
-592 15 -23 9 -29 -448 -487 l-463 -463 -76 91 c-146 178 -405 425 -583 557
l-47 35 462 463 c254 254 467 462 472 462 6 0 47 -30 90 -66z m-2690 -603
c168 -21 342 -55 465 -90 19 -5 51 -14 70 -19 40 -11 154 -49 188 -63 43 -18
67 -28 112 -46 72 -29 290 -138 366 -184 465 -279 832 -654 1112 -1135 86
-148 197 -402 242 -554 12 -41 26 -83 31 -92 5 -10 9 -27 9 -38 0 -11 4 -28 9
-38 5 -9 17 -57 26 -107 9 -49 19 -99 22 -110 6 -25 19 -111 35 -235 15 -122
15 -527 0 -650 -18 -147 -38 -259 -67 -385 -9 -38 -19 -81 -21 -95 -3 -14 -9
-34 -14 -45 -4 -11 -20 -60 -36 -110 -71 -228 -194 -483 -343 -710 -248 -380
-607 -724 -998 -958 -109 -65 -304 -162 -420 -208 -13 -5 -33 -13 -45 -18 -29
-12 -220 -75 -273 -89 -55 -16 -183 -44 -280 -63 -314 -59 -784 -60 -1080 0
-27 5 -73 14 -101 20 -119 22 -399 106 -488 145 -17 8 -56 25 -86 37 -584 250
-1116 726 -1440 1289 -31 54 -126 247 -170 344 -24 55 -124 355 -133 401 -4
17 -13 62 -22 100 -62 273 -84 560 -66 849 13 217 23 295 66 491 10 44 20 95
22 113 3 18 9 35 14 38 5 3 9 18 9 34 0 16 5 32 10 35 6 3 10 16 10 29 0 12 4
26 8 32 5 5 14 29 21 54 61 216 266 598 454 845 228 299 542 581 864 773 96
58 313 172 327 172 3 0 28 9 54 21 43 19 62 27 117 50 27 11 159 53 215 69 25
7 56 16 70 20 14 5 59 15 100 23 41 9 89 18 105 22 56 12 150 26 232 33 45 5
86 11 90 16 10 10 511 0 608 -13z m-3748 -2523 c-3 -24 -11 -83 -17 -133 -14
-106 -16 -665 -2 -742 5 -29 7 -55 4 -58 -3 -3 -299 -5 -659 -5 l-653 0 0 48
c0 26 -5 119 -12 206 -11 155 -9 241 19 639 l6 87 660 0 660 0 -6 -42z m8107
15 c3 -16 10 -91 17 -169 12 -151 9 -750 -4 -771 -7 -10 -150 -13 -663 -13
-630 0 -655 1 -650 18 11 34 26 266 26 407 0 185 -26 490 -45 538 -7 16 28 17
653 17 l660 0 6 -27z m-7437 -2611 c122 -168 367 -422 546 -567 l86 -70 -462
-462 c-254 -255 -465 -463 -468 -463 -15 0 -178 148 -325 294 -151 152 -340
363 -351 394 -6 15 902 932 922 932 5 0 29 -26 52 -58z m5977 -401 c284 -284
457 -464 454 -472 -9 -23 -193 -234 -307 -352 -111 -115 -357 -337 -373 -337
-9 0 -309 299 -760 756 l-167 169 87 72 c193 159 403 377 537 555 28 37 55 67
60 68 6 0 217 -207 469 -459z m-3459 -941 c199 -9 531 -1 648 16 l47 7 0 -656
0 -656 -52 -5 c-221 -22 -435 -28 -633 -16 -115 6 -228 15 -250 19 l-40 7 -3
644 c-1 355 0 650 2 657 4 9 14 9 38 2 18 -5 127 -13 243 -19z"/>
<path d="M4995 9420 c-121 -6 -158 -23 -186 -83 -24 -54 -24 -79 1 -127 39
-77 50 -80 296 -80 l217 0 34 26 c84 64 85 174 1 237 -30 22 -45 25 -148 28
-63 2 -160 2 -215 -1z"/>
<path d="M2283 8323 c-42 -8 -293 -255 -327 -320 -9 -18 -16 -44 -16 -58 0
-40 37 -104 73 -125 38 -23 106 -26 145 -6 15 8 88 76 162 153 161 164 175
191 140 266 -12 26 -35 56 -50 67 -28 20 -89 31 -127 23z"/>
<path d="M7862 8339 c-75 -16 -133 -111 -111 -180 12 -37 264 -300 311 -325
15 -8 49 -14 77 -14 39 0 56 6 82 27 58 49 73 116 40 181 -29 55 -279 299
-316 307 -17 4 -34 8 -40 9 -5 1 -25 -1 -43 -5z"/>
<path d="M4225 7076 c-194 -49 -399 -234 -518 -468 -121 -237 -133 -498 -39
-847 l21 -74 -75 -81 c-93 -100 -202 -262 -244 -362 -134 -323 -75 -651 175
-964 148 -185 257 -280 458 -395 64 -37 117 -72 117 -78 -1 -7 -7 -41 -15 -77
-27 -120 -12 -221 48 -334 99 -185 352 -338 722 -435 294 -78 634 -68 918 24
254 83 375 231 438 532 l13 62 90 53 c61 35 119 81 177 138 72 71 93 101 132
180 26 52 54 122 63 155 22 85 29 274 15 389 l-12 96 65 67 c85 86 155 188
214 311 l47 97 3 144 c4 126 1 154 -18 220 -65 221 -195 361 -375 402 -103 23
-96 16 -130 115 -91 261 -209 419 -383 508 -62 32 -183 56 -283 56 -78 0 -99
3 -110 17 -33 40 -170 139 -236 170 -127 61 -238 56 -427 -19 l-79 -31 -136
141 c-75 77 -158 157 -185 177 -146 107 -307 147 -451 111z m230 -316 c86 -42
243 -206 302 -318 63 -117 92 -323 75 -516 -16 -172 -19 -176 -83 -133 -19 13
-41 26 -49 30 -8 4 -27 15 -42 25 -15 9 -68 42 -117 72 -101 61 -103 64 -71
148 36 94 21 161 -43 201 -51 31 -108 28 -150 -9 -32 -28 -57 -74 -129 -245
l-34 -80 -74 -31 c-41 -17 -80 -29 -87 -27 -39 15 -59 355 -27 471 35 129 93
229 189 327 115 116 221 143 340 85z m960 -340 c77 -37 150 -147 191 -288 42
-145 33 -359 -20 -510 -39 -111 -80 -178 -150 -248 -80 -80 -142 -113 -227
-121 -123 -12 -219 63 -219 171 0 19 14 72 31 118 81 216 104 353 94 558 -3
80 -7 170 -8 200 l-2 55 83 43 c98 49 159 55 227 22z m589 -234 c83 -35 169
-145 212 -272 24 -71 27 -93 27 -219 0 -160 -13 -221 -74 -351 -47 -101 -136
-195 -223 -238 -51 -24 -68 -28 -126 -24 -55 3 -74 9 -104 32 -53 40 -64 68
-40 102 112 157 176 296 220 483 18 75 22 364 6 443 -5 26 -7 50 -4 53 10 10
73 5 106 -9z m-1567 -538 c75 -27 113 -74 113 -138 0 -83 -28 -125 -202 -302
-88 -90 -166 -178 -174 -196 -20 -44 -5 -98 39 -140 47 -45 113 -52 225 -23
200 52 383 4 508 -131 43 -47 87 -116 99 -158 14 -44 66 -111 101 -128 30 -14
40 -14 72 -3 48 17 89 56 103 98 19 59 -6 127 -115 318 -25 44 -46 87 -46 95
0 12 23 20 93 33 149 27 156 26 229 -41 35 -32 74 -65 88 -73 40 -25 129 -55
209 -69 69 -13 74 -15 89 -49 81 -177 200 -268 384 -290 46 -6 101 -9 123 -8
l40 2 9 -65 c26 -197 -72 -403 -238 -494 -99 -56 -156 -67 -305 -64 l-130 3
-32 -32 c-27 -26 -33 -41 -36 -85 -6 -77 17 -108 111 -153 41 -19 78 -35 83
-35 6 0 18 -9 28 -20 17 -19 17 -22 -16 -87 -28 -55 -44 -73 -90 -103 -112
-72 -349 -117 -574 -107 -216 9 -379 53 -591 157 -195 97 -254 176 -228 309 7
33 14 47 28 50 19 3 98 -12 163 -31 18 -5 63 -10 99 -10 61 0 68 2 99 32 51
50 61 81 41 134 -23 61 -70 90 -221 137 -375 117 -529 179 -628 252 -147 110
-309 324 -361 480 -43 129 -41 253 6 390 27 78 39 100 125 227 28 42 146 160
187 188 105 72 125 84 172 106 124 59 211 65 321 24z m2223 -143 c16 -15 39
-50 52 -79 20 -44 23 -67 23 -166 0 -85 -5 -128 -18 -165 -18 -50 -71 -158
-88 -179 -5 -6 -21 -26 -35 -44 -46 -57 -144 -119 -215 -137 -104 -26 -177 3
-220 86 -24 48 -22 53 66 139 37 36 79 83 93 104 15 22 35 51 44 65 41 61 101
193 129 286 17 55 32 106 35 114 8 25 100 8 134 -24z"/>
<path d="M939 5447 c-19 -12 -44 -42 -56 -67 -21 -41 -23 -57 -23 -220 1 -221
15 -266 93 -305 64 -32 141 -9 185 55 21 32 22 42 22 245 0 203 -1 213 -22
245 -47 69 -135 90 -199 47z"/>
<path d="M9124 5446 l-44 -43 0 -218 c0 -251 4 -266 85 -304 53 -25 62 -25
106 -7 63 26 89 65 101 147 14 102 4 348 -16 388 -27 52 -76 81 -136 81 -49 0
-56 -3 -96 -44z"/>
<path d="M2040 2502 c-75 -37 -102 -130 -59 -202 27 -44 245 -262 290 -289 63
-39 147 -20 191 42 18 24 23 46 23 89 l0 58 -145 146 c-177 178 -216 199 -300
156z"/>
<path d="M8107 2533 c-20 -3 -70 -46 -169 -146 -186 -188 -200 -214 -157 -294
29 -56 74 -83 136 -83 48 0 53 3 131 73 155 138 252 256 252 305 0 54 -67 142
-108 142 -9 0 -26 2 -37 4 -11 2 -33 1 -48 -1z"/>
<path d="M4902 1194 c-52 -27 -82 -73 -82 -128 0 -63 21 -100 73 -131 43 -24
48 -25 238 -25 182 0 196 2 234 23 28 15 47 37 64 70 21 43 22 52 11 91 -7 26
-26 58 -47 78 l-34 33 -212 3 c-182 2 -217 0 -245 -14z"/>
</g>
</svg>
