<svg xmlns="http://www.w3.org/2000/svg" xmlns:xlink="http://www.w3.org/1999/xlink" viewBox="0 0 100 100"><defs><style>.cls-1{fill:url(#무제_그라디언트_45);}</style><linearGradient id="무제_그라디언트_45" x1="29.96" y1="24.48" x2="74.29" y2="68.81" gradientUnits="userSpaceOnUse"><stop offset="0" stop-color="#ff606b"/><stop offset="1" stop-color="#ff2091"/></linearGradient></defs><title>자산 3234</title><g id="레이어_2" data-name="레이어 2"><g id="레이어_1-2" data-name="레이어 1"><circle cx="50" cy="50" r="50"/><path class="cls-1" d="M72.35,38.16l1.24-11.07-7.71,3.17A24.92,24.92,0,0,0,54.44,25a25.22,25.22,0,0,0-15.63,2.22L32,22.44,30.77,33.5h0A25.13,25.13,0,0,0,24.92,47a16.45,16.45,0,0,0-.15,2.42A25.21,25.21,0,0,0,35.65,70.6c6.35,4.71,14,6.52,29.54,7h.34a5.64,5.64,0,0,1-1.41-2.42,5.57,5.57,0,0,1,.07-3.21,7.41,7.41,0,0,1,1-1.83c.12-.13.24-.27.37-.4l.14-.14c.33-.3.66-.6,1-.91,5.22-5,8.51-11.09,8.56-18.73A24.77,24.77,0,0,0,72.35,38.16Zm-41.8-.52a1.42,1.42,0,1,1,2.79.5,1.42,1.42,0,1,1-2.79-.5Zm31.73,8.91a1.08,1.08,0,0,1-.47.67,26,26,0,0,1-12.35,4.14,22.63,22.63,0,0,1-3.77-.11,24,24,0,0,1-6.53-1.69,28,28,0,0,1-8.89-5.87,1,1,0,0,1-.31-.77,1.08,1.08,0,0,1,.29-.7l.06-.06a1,1,0,0,1,1.45,0A26.56,26.56,0,0,0,40,47.62a21.34,21.34,0,0,0,9.37,1.63,24,24,0,0,0,11.32-3.82,1,1,0,0,1,1.44.32A1,1,0,0,1,62.28,46.55Zm.57-5.11a1.42,1.42,0,1,1-1.33-1.66A1.42,1.42,0,0,1,62.85,41.44Z"/></g></g></svg>