<svg id="svg" version="1.1" width="400" height="400" viewBox="0 0 400 400" xmlns="http://www.w3.org/2000/svg" xmlns:xlink="http://www.w3.org/1999/xlink" ><g id="svgg"><path id="path0" d="M0.000 200.000 L 0.000 400.000 200.000 400.000 L 400.000 400.000 400.000 200.000 L 400.000 0.000 200.000 0.000 L 0.000 0.000 0.000 200.000 M184.299 59.645 C 189.342 61.942,191.926 66.556,190.845 71.334 C 188.584 81.324,175.576 83.036,171.009 73.944 C 166.838 65.640,175.946 55.840,184.299 59.645 M217.311 65.785 C 222.016 68.017,224.610 73.834,222.931 78.387 C 219.990 86.364,210.221 88.398,204.877 82.146 C 197.500 73.515,207.068 60.924,217.311 65.785 M150.092 68.658 C 155.782 70.850,158.575 77.793,155.883 83.055 C 151.675 91.282,140.809 91.024,136.830 82.602 C 133.000 74.495,141.646 65.405,150.092 68.658 M254.092 68.794 C 256.262 69.753,259.131 72.754,259.462 74.411 C 259.595 75.074,259.860 75.714,260.052 75.832 C 260.522 76.123,260.496 80.635,260.019 81.505 C 259.810 81.887,259.336 82.883,258.966 83.717 C 256.374 89.558,247.848 90.954,242.648 86.389 C 233.777 78.599,243.268 64.006,254.092 68.794 M120.138 86.292 C 127.729 90.456,128.755 99.595,122.200 104.645 C 112.944 111.776,100.586 100.063,107.132 90.363 C 109.975 86.151,116.282 84.177,120.138 86.292 M312.730 105.593 C 320.657 109.795,320.624 120.916,312.672 124.765 C 310.297 125.915,304.590 125.858,303.280 124.672 C 302.871 124.303,302.341 124.000,302.103 124.000 C 301.335 124.000,298.419 119.955,297.957 118.250 C 295.527 109.269,304.753 101.365,312.730 105.593 M95.005 111.028 C 105.818 115.546,102.770 131.600,91.099 131.600 C 89.128 131.600,87.896 131.406,87.376 131.013 C 86.949 130.690,86.322 130.420,85.983 130.413 C 85.108 130.395,82.230 127.317,81.182 125.279 C 77.106 117.351,86.632 107.529,95.005 111.028 M259.714 114.540 C 262.384 115.104,265.291 117.488,266.548 120.143 C 271.116 129.795,260.218 139.635,251.424 133.799 C 241.218 127.024,247.686 112.000,259.714 114.540 M77.708 141.742 C 88.428 146.483,85.111 162.228,73.400 162.189 C 65.857 162.165,60.093 153.908,63.354 147.800 C 63.707 147.140,63.996 146.392,63.998 146.137 C 64.002 145.360,67.945 142.076,69.206 141.799 C 69.858 141.656,70.494 141.372,70.619 141.169 C 71.086 140.414,75.513 140.772,77.708 141.742 M359.513 147.364 C 366.706 151.040,367.775 158.887,361.930 165.101 C 360.779 166.324,360.073 167.394,360.239 167.662 C 360.433 167.977,360.345 168.013,359.962 167.776 C 359.653 167.585,357.465 167.400,355.101 167.366 L 350.802 167.302 348.271 164.746 C 346.081 162.534,345.608 161.781,344.764 159.158 L 343.788 156.125 345.209 153.337 C 348.416 147.043,354.178 144.637,359.513 147.364 M69.836 176.260 C 79.109 181.959,75.632 195.687,64.753 196.328 C 55.046 196.900,49.848 185.309,56.563 178.066 C 59.809 174.565,65.759 173.755,69.836 176.260 M376.813 183.037 C 384.247 185.373,386.299 194.980,380.534 200.457 C 378.205 202.670,374.745 204.158,373.104 203.653 C 372.387 203.432,371.078 203.066,370.196 202.839 C 362.415 200.835,360.298 190.119,366.656 184.923 C 367.681 184.085,368.784 183.107,369.106 182.750 C 369.811 181.968,373.896 182.120,376.813 183.037 M274.295 203.217 C 283.359 205.125,285.593 215.724,278.284 222.141 L 275.735 224.379 272.236 223.982 C 260.115 222.604,257.625 208.664,268.589 203.562 C 269.917 202.944,271.360 202.534,271.800 202.650 C 272.240 202.766,273.363 203.021,274.295 203.217 M68.930 211.166 C 73.759 213.504,76.309 219.157,74.652 223.853 C 71.182 233.687,58.645 234.232,54.273 224.740 C 53.416 222.879,53.364 218.464,54.187 217.376 C 54.510 216.949,54.780 216.363,54.787 216.073 C 54.809 215.178,56.788 212.886,58.332 211.970 C 62.040 209.768,65.499 209.505,68.930 211.166 M350.833 226.044 C 356.192 227.194,358.788 230.626,359.344 237.294 C 359.568 239.983,359.566 239.990,357.980 241.824 C 354.535 245.803,348.822 248.854,347.828 247.245 C 347.707 247.050,346.953 246.768,346.152 246.617 C 335.677 244.652,335.560 228.816,346.000 226.138 C 348.373 225.530,348.428 225.529,350.833 226.044 M76.885 244.792 C 82.776 246.998,85.804 253.541,83.431 258.942 C 82.515 261.030,79.236 264.241,77.670 264.585 C 76.976 264.737,76.306 265.028,76.181 265.231 C 75.890 265.701,71.086 265.716,70.580 265.248 C 70.371 265.055,69.537 264.685,68.726 264.426 C 65.557 263.414,62.800 259.057,62.800 255.060 C 62.800 247.405,69.948 242.195,76.885 244.792 M95.558 275.625 C 102.547 279.268,103.873 287.378,98.371 292.831 C 91.686 299.458,81.030 295.355,80.481 285.942 C 80.018 278.027,88.730 272.066,95.558 275.625 M309.851 277.042 C 318.603 280.667,319.230 292.551,310.889 296.743 C 304.642 299.883,297.154 296.098,295.564 288.997 C 293.867 281.414,302.655 274.061,309.851 277.042 M266.715 284.651 C 268.419 285.146,269.442 285.791,271.000 287.351 C 280.148 296.513,268.347 310.818,257.576 303.624 C 247.379 296.812,254.892 281.214,266.715 284.651 M119.264 300.100 C 128.439 302.877,128.855 316.763,119.867 320.196 C 107.557 324.897,99.232 306.762,111.000 300.882 C 113.875 299.445,116.333 299.213,119.264 300.100 M254.200 318.017 C 255.080 318.401,256.553 319.499,257.474 320.458 C 267.193 330.574,252.426 345.338,242.268 335.659 C 233.547 327.349,243.128 313.181,254.200 318.017 M150.132 317.839 C 161.242 321.624,158.229 338.474,146.444 338.469 C 139.592 338.467,133.384 330.455,136.141 325.173 C 136.435 324.609,136.788 323.709,136.924 323.173 C 138.003 318.920,145.005 316.092,150.132 317.839 M219.200 325.494 C 229.815 330.947,225.856 346.780,214.090 345.929 C 201.678 345.031,200.469 327.752,212.600 324.651 C 214.040 324.283,217.770 324.759,219.200 325.494 M183.749 326.789 C 183.975 327.015,184.476 327.200,184.862 327.200 C 187.258 327.200,191.200 333.295,191.200 337.000 C 191.200 340.430,187.704 346.374,185.663 346.413 C 185.298 346.420,184.651 346.690,184.224 347.013 C 183.009 347.932,177.959 347.799,175.995 346.797 C 168.502 342.975,167.719 332.457,174.600 328.078 C 177.638 326.144,182.430 325.470,183.749 326.789 " stroke="none" fill="#040404" fill-rule="evenodd"></path><path id="path1" d="M352.192 146.772 C 349.317 147.461,347.179 149.472,345.209 153.337 L 343.788 156.125 344.764 159.158 C 345.608 161.781,346.081 162.534,348.271 164.746 L 350.802 167.302 355.101 167.366 C 357.465 167.400,359.653 167.585,359.962 167.776 C 360.345 168.013,360.433 167.977,360.239 167.662 C 360.073 167.394,360.779 166.324,361.930 165.101 C 370.061 156.457,363.477 144.065,352.192 146.772 M369.106 182.750 C 368.784 183.107,367.681 184.085,366.656 184.923 C 360.298 190.119,362.415 200.835,370.196 202.839 C 371.078 203.066,372.387 203.432,373.104 203.653 C 374.745 204.158,378.205 202.670,380.534 200.457 C 386.299 194.980,384.247 185.373,376.813 183.037 C 373.896 182.120,369.811 181.968,369.106 182.750 M268.589 203.562 C 263.869 205.758,262.000 208.606,262.000 213.604 C 262.000 219.922,265.218 223.184,272.236 223.982 L 275.735 224.379 278.284 222.141 C 285.593 215.724,283.359 205.125,274.295 203.217 C 273.363 203.021,272.240 202.766,271.800 202.650 C 271.360 202.534,269.917 202.944,268.589 203.562 M346.000 226.138 C 335.560 228.816,335.677 244.652,346.152 246.617 C 346.953 246.768,347.707 247.050,347.828 247.245 C 348.822 248.854,354.535 245.803,357.980 241.824 C 361.076 238.245,358.994 230.081,354.274 227.297 C 351.751 225.808,348.864 225.404,346.000 226.138 M302.083 277.219 C 297.531 279.241,294.576 284.580,295.564 288.997 C 297.900 299.435,311.876 301.020,316.035 291.319 C 319.718 282.726,310.549 273.459,302.083 277.219 M260.113 284.610 C 253.828 286.590,250.778 295.000,254.400 300.364 C 259.766 308.310,271.063 306.768,273.811 297.714 C 276.261 289.639,268.307 282.030,260.113 284.610 M247.117 317.356 C 238.834 319.606,236.130 329.811,242.268 335.659 C 248.053 341.171,256.473 339.256,259.850 331.660 C 263.233 324.051,255.296 315.135,247.117 317.356 M211.720 325.974 C 209.535 326.331,205.492 330.360,205.682 331.991 C 205.747 332.546,206.006 332.961,206.257 332.914 C 206.508 332.867,206.807 333.182,206.920 333.614 C 207.071 334.192,206.924 334.400,206.363 334.400 C 205.816 334.400,205.600 334.683,205.600 335.400 C 205.600 336.064,205.823 336.400,206.262 336.400 C 206.854 336.400,206.860 336.474,206.326 337.100 C 205.658 337.881,206.220 339.593,207.052 339.316 C 207.297 339.234,207.594 339.534,207.711 339.983 C 207.829 340.431,208.347 340.967,208.862 341.174 C 209.496 341.428,209.585 341.558,209.135 341.575 C 208.770 341.589,208.505 341.825,208.547 342.100 C 209.111 345.823,220.298 345.373,221.734 341.570 C 221.977 340.926,222.299 340.400,222.450 340.400 C 224.528 340.400,225.217 333.483,223.316 331.698 C 222.787 331.202,222.466 330.616,222.603 330.396 C 223.474 328.987,217.852 325.116,216.211 325.994 C 215.535 326.356,215.087 326.368,214.476 326.041 C 214.023 325.798,213.596 325.623,213.526 325.650 C 213.457 325.678,212.644 325.823,211.720 325.974 M220.200 330.033 C 220.200 330.345,219.795 330.658,219.300 330.728 C 218.309 330.869,218.135 330.425,218.885 329.675 C 219.483 329.077,220.200 329.272,220.200 330.033 M209.600 331.889 C 209.600 332.269,209.370 332.397,208.967 332.243 C 208.619 332.109,208.169 332.000,207.967 332.000 C 207.765 332.000,207.600 331.755,207.600 331.455 C 207.600 331.090,207.929 330.974,208.600 331.102 C 209.150 331.207,209.600 331.562,209.600 331.889 M215.980 332.454 L 217.000 332.509 216.000 332.691 C 215.450 332.791,214.685 333.154,214.300 333.498 C 213.554 334.165,213.463 333.954,213.859 332.474 C 214.035 331.818,214.232 331.672,214.534 331.974 C 214.768 332.208,215.419 332.425,215.980 332.454 M211.525 339.975 C 211.625 340.275,211.475 340.425,211.175 340.325 C 210.886 340.229,210.571 339.914,210.475 339.625 C 210.375 339.325,210.525 339.175,210.825 339.275 C 211.114 339.371,211.429 339.686,211.525 339.975 M214.800 340.600 C 214.800 340.930,215.070 341.200,215.400 341.200 C 215.730 341.200,216.000 341.380,216.000 341.600 C 216.000 341.820,215.740 342.000,215.423 342.000 C 215.105 342.000,214.610 342.332,214.323 342.737 C 213.762 343.528,211.600 344.140,211.600 343.508 C 211.600 343.299,212.140 342.654,212.800 342.075 C 213.460 341.496,214.000 340.792,214.000 340.511 C 214.000 340.230,214.180 340.000,214.400 340.000 C 214.620 340.000,214.800 340.270,214.800 340.600 " stroke="none" fill="#17e761" fill-rule="evenodd"></path><path id="path2" d="M177.106 59.481 C 171.252 61.434,168.274 68.497,171.009 73.944 C 175.576 83.036,188.584 81.324,190.845 71.334 C 192.575 63.686,184.747 56.933,177.106 59.481 M142.178 68.991 C 136.787 71.458,134.416 77.492,136.830 82.602 C 140.809 91.024,151.675 91.282,155.883 83.055 C 160.237 74.543,150.926 64.988,142.178 68.991 M112.400 86.045 C 105.666 88.704,103.265 96.603,107.467 102.281 C 113.708 110.716,126.433 106.601,126.487 96.130 C 126.524 89.083,118.769 83.531,112.400 86.045 M86.974 111.156 C 79.722 114.450,78.143 122.956,83.717 128.700 C 84.624 129.635,85.644 130.406,85.983 130.413 C 86.322 130.420,86.949 130.690,87.376 131.013 C 89.536 132.646,95.771 131.396,98.632 128.756 C 106.922 121.107,97.242 106.492,86.974 111.156 M70.619 141.169 C 70.494 141.372,69.858 141.656,69.206 141.799 C 67.945 142.076,64.002 145.360,63.998 146.137 C 63.996 146.392,63.707 147.140,63.354 147.800 C 60.093 153.908,65.857 162.165,73.400 162.189 C 85.111 162.228,88.428 146.483,77.708 141.742 C 75.513 140.772,71.086 140.414,70.619 141.169 M61.197 175.150 C 49.202 179.083,52.221 197.067,64.753 196.328 C 75.632 195.687,79.109 181.959,69.836 176.260 C 67.780 174.997,63.386 174.432,61.197 175.150 M60.972 211.141 C 54.468 213.772,52.111 219.743,55.251 225.635 C 56.375 227.743,59.343 230.400,60.575 230.400 C 60.742 230.400,61.488 230.689,62.232 231.042 C 63.314 231.556,63.837 231.596,64.852 231.242 C 65.549 230.999,66.571 230.800,67.122 230.800 C 67.673 230.800,68.771 230.315,69.562 229.722 C 75.403 225.345,76.310 220.533,72.431 214.500 C 71.688 213.345,70.782 212.400,70.418 212.400 C 70.054 212.400,69.145 211.950,68.400 211.400 C 66.773 210.200,63.576 210.088,60.972 211.141 " stroke="none" fill="#e40f79" fill-rule="evenodd"></path><path id="path3" d="M209.600 65.247 C 202.585 67.355,200.069 76.033,204.755 81.955 C 209.624 88.108,220.254 86.239,222.693 78.800 C 225.370 70.633,217.790 62.786,209.600 65.247 M245.436 68.794 C 236.952 72.747,237.154 84.529,245.774 88.444 C 250.285 90.493,257.032 88.075,258.966 83.717 C 259.336 82.883,259.810 81.887,260.019 81.505 C 260.496 80.635,260.522 76.123,260.052 75.832 C 259.860 75.714,259.595 75.074,259.462 74.411 C 258.518 69.689,250.449 66.458,245.436 68.794 M305.600 104.747 C 299.951 105.950,296.351 112.312,297.957 118.250 C 298.419 119.955,301.335 124.000,302.103 124.000 C 302.341 124.000,302.871 124.303,303.280 124.672 C 304.590 125.858,310.297 125.915,312.672 124.765 C 323.925 119.317,317.856 102.137,305.600 104.747 M254.324 114.559 C 245.305 116.987,243.559 128.578,251.424 133.799 C 254.969 136.152,258.605 136.177,262.444 133.877 C 272.884 127.620,266.065 111.398,254.324 114.559 " stroke="none" fill="#dfcc04" fill-rule="evenodd"></path><path id="path4" d="M61.200 210.577 C 58.293 211.659,54.148 215.082,54.871 215.804 C 54.955 215.888,55.350 215.470,55.750 214.875 C 57.290 212.583,60.570 210.885,64.400 210.398 L 66.600 210.118 64.600 210.087 C 63.500 210.070,61.970 210.291,61.200 210.577 M68.744 211.613 C 69.264 212.046,69.984 212.399,70.344 212.397 C 70.771 212.396,70.581 212.117,69.800 211.600 C 68.257 210.578,67.513 210.587,68.744 211.613 M71.790 213.600 C 71.971 213.930,72.519 214.744,73.010 215.409 C 73.795 216.473,74.478 218.798,74.945 222.000 C 75.025 222.550,75.116 222.044,75.146 220.875 C 75.206 218.512,73.856 215.100,72.332 213.762 C 71.773 213.273,71.580 213.215,71.790 213.600 M53.666 220.540 C 53.567 224.628,55.614 228.338,58.946 230.110 C 60.704 231.045,62.908 231.699,62.595 231.192 C 62.492 231.025,61.911 230.766,61.304 230.616 C 57.213 229.606,54.354 225.782,53.966 220.800 L 53.732 217.800 53.666 220.540 M73.978 224.658 C 73.757 225.239,73.464 225.897,73.326 226.119 C 73.189 226.342,73.266 226.406,73.499 226.263 C 73.939 225.990,74.900 223.600,74.569 223.600 C 74.465 223.600,74.199 224.076,73.978 224.658 M71.530 228.114 C 70.988 228.617,70.016 229.441,69.372 229.945 L 68.200 230.862 69.960 229.931 C 70.928 229.419,71.985 228.595,72.309 228.100 C 73.061 226.950,72.781 226.955,71.530 228.114 M65.000 231.200 L 64.200 231.544 65.000 231.525 C 65.440 231.514,66.340 231.368,67.000 231.200 L 68.200 230.895 67.000 230.875 C 66.340 230.865,65.440 231.011,65.000 231.200 M70.933 244.384 C 61.508 246.628,59.861 261.595,68.726 264.426 C 69.537 264.685,70.371 265.055,70.580 265.248 C 71.086 265.716,75.890 265.701,76.181 265.231 C 76.306 265.028,76.976 264.737,77.670 264.585 C 79.236 264.241,82.515 261.030,83.431 258.942 C 86.805 251.262,79.207 242.413,70.933 244.384 M86.494 275.758 C 79.401 279.487,78.170 288.416,84.063 293.396 C 93.466 301.343,106.703 289.813,99.941 279.566 C 96.988 275.091,90.992 273.393,86.494 275.758 M113.200 299.873 C 105.806 302.454,102.910 310.686,107.349 316.506 C 113.700 324.833,126.400 320.692,126.400 310.293 C 126.400 303.371,119.280 297.750,113.200 299.873 M141.719 318.362 C 139.353 319.666,137.288 321.739,136.924 323.173 C 136.788 323.709,136.435 324.609,136.141 325.173 C 135.392 326.607,135.469 328.657,136.366 331.215 C 139.674 340.645,152.199 341.021,156.392 331.817 C 160.319 323.197,150.042 313.773,141.719 318.362 M212.600 324.651 C 200.469 327.752,201.678 345.031,214.090 345.929 C 225.856 346.780,229.815 330.947,219.200 325.494 C 217.770 324.759,214.040 324.283,212.600 324.651 M214.476 326.041 C 215.087 326.368,215.535 326.356,216.211 325.994 C 217.852 325.116,223.474 328.987,222.603 330.396 C 222.466 330.616,222.787 331.202,223.316 331.698 C 225.217 333.483,224.528 340.400,222.450 340.400 C 222.299 340.400,221.977 340.926,221.734 341.570 C 220.298 345.373,209.111 345.823,208.547 342.100 C 208.505 341.825,208.770 341.589,209.135 341.575 C 209.585 341.558,209.496 341.428,208.862 341.174 C 208.347 340.967,207.829 340.431,207.711 339.983 C 207.594 339.534,207.297 339.234,207.052 339.316 C 206.220 339.593,205.658 337.881,206.326 337.100 C 206.860 336.474,206.854 336.400,206.262 336.400 C 205.823 336.400,205.600 336.064,205.600 335.400 C 205.600 334.683,205.816 334.400,206.363 334.400 C 206.924 334.400,207.071 334.192,206.920 333.614 C 206.807 333.182,206.508 332.867,206.257 332.914 C 206.006 332.961,205.747 332.546,205.682 331.991 C 205.492 330.360,209.535 326.331,211.720 325.974 C 212.644 325.823,213.457 325.678,213.526 325.650 C 213.596 325.623,214.023 325.798,214.476 326.041 M177.800 326.534 C 168.116 329.715,167.003 342.210,175.995 346.797 C 177.959 347.799,183.009 347.932,184.224 347.013 C 184.651 346.690,185.298 346.420,185.663 346.413 C 187.704 346.374,191.200 340.430,191.200 337.000 C 191.200 333.295,187.258 327.200,184.862 327.200 C 184.476 327.200,183.975 327.015,183.749 326.789 C 183.080 326.120,179.524 325.968,177.800 326.534 M218.885 329.675 C 218.135 330.425,218.309 330.869,219.300 330.728 C 219.795 330.658,220.200 330.345,220.200 330.033 C 220.200 329.272,219.483 329.077,218.885 329.675 M207.600 331.455 C 207.600 331.755,207.765 332.000,207.967 332.000 C 208.169 332.000,208.619 332.109,208.967 332.243 C 209.370 332.397,209.600 332.269,209.600 331.889 C 209.600 331.562,209.150 331.207,208.600 331.102 C 207.929 330.974,207.600 331.090,207.600 331.455 M213.859 332.474 C 213.463 333.954,213.554 334.165,214.300 333.498 C 214.685 333.154,215.450 332.791,216.000 332.691 L 217.000 332.509 215.980 332.454 C 215.419 332.425,214.768 332.208,214.534 331.974 C 214.232 331.672,214.035 331.818,213.859 332.474 M210.475 339.625 C 210.571 339.914,210.886 340.229,211.175 340.325 C 211.475 340.425,211.625 340.275,211.525 339.975 C 211.429 339.686,211.114 339.371,210.825 339.275 C 210.525 339.175,210.375 339.325,210.475 339.625 M214.000 340.511 C 214.000 340.792,213.460 341.496,212.800 342.075 C 212.140 342.654,211.600 343.299,211.600 343.508 C 211.600 344.140,213.762 343.528,214.323 342.737 C 214.610 342.332,215.105 342.000,215.423 342.000 C 215.740 342.000,216.000 341.820,216.000 341.600 C 216.000 341.380,215.730 341.200,215.400 341.200 C 215.070 341.200,214.800 340.930,214.800 340.600 C 214.800 340.270,214.620 340.000,214.400 340.000 C 214.180 340.000,214.000 340.230,214.000 340.511 " stroke="none" fill="#2628ec" fill-rule="evenodd"></path></g></svg>