<?xml version="1.0" encoding="utf-8"?>
<!-- Generator: Adobe Illustrator 22.0.1, SVG Export Plug-In . SVG Version: 6.00 Build 0)  -->
<svg version="1.1" id="Слой_1" xmlns="http://www.w3.org/2000/svg" xmlns:xlink="http://www.w3.org/1999/xlink" x="0px" y="0px"
	 width="900px" height="900px" viewBox="0 0 900 900" style="enable-background:new 0 0 900 900;" xml:space="preserve">
<style type="text/css">
	.st0{fill:#101E27;}
	.st1{fill:#FFFFFF;}
	.st2{fill:none;}
	.st3{fill:#6D0D20;}
</style>
<polygon class="st0" points="759.8,723 450.4,900 144,723 250.6,279 450.4,0 656.1,279 "/>
<g>
	<path class="st1" d="M381.3,666.6c-2.6,0.9-5,1.8-7.3,2.6l4.8,14.9c0.7-0.2,1.5-0.3,2.2-0.5c0.5-0.1,1-0.2,1.4-0.3
		c0.6-0.1,1.3-0.3,1.9-0.4c0.1,0,0.1,0,0.2,0c0.6-0.1,1.2-0.2,1.8-0.3L381.3,666.6z M656.1,279L450.4,0L250.6,279L144,723l306.4,177
		l309.4-177L656.1,279z M681.9,420.5C681.9,420.5,681.9,420.5,681.9,420.5l7,29.5c0,0,0,0,0,0l58.9,249l-60.3-100.4l-43.3-72.1
		l-33-56.8c0,0,0,0,0,0l-10.6-18.2l10.1-31.6l24.8-77.2l16.1-50.2L681.9,420.5z M454.9,18l192.2,262.5l-15.4,47.6v0l-27.3,84.2
		l-9.8,30.3l-3.4-5.8v0l-0.1-0.2L560,384.2L454.9,207V18z M590,451.5l-20.4,62.7l-0.2,0.6v0l-15.6,47.8l-2.4,7.4L521,663.3l-5.9,18
		l-8.6,26.5l-2,6.1H396.3l-1.2-3.9l-8.7-27.6l-5-16l-29.1-91.8l-3.4-10.8l-15.4-48.8l-0.3-0.8l-20.9-65.9l7.4-12.5l0.8-1.4
		l30.2-51.2l99.7-168.9l102,173.1l29.1,49.3l2,3.3L590,451.5z M447.4,18v187.5L344.5,380.9L309.2,441l-8.8-27.6c0,0,0,0,0,0
		l-25.2-79.1l-17.1-53.8L447.4,18z M215.8,455.2C215.8,455.2,215.8,455.2,215.8,455.2l8.5-36.1v0L253.6,294l17.9,55.1l23.4,72.2
		l5.3,16.5l0.7,2c0,0,0,0,0,0l3.8,11.7l-9,15.2L221,592.9l-62,104.6L215.8,455.2z M222.6,605.6l72.5-122.3l12.6-21.3l33.6,105.2
		l5.3,16.7l27.3,85.4l4.8,14.9l8.9,27.8l1.2,3.7H157.5L222.6,605.6z M162,723h229.8l26.7,83.9l25.8,81.1L162,723z M429,810.1
		L402.3,723h102.1l-24.9,76.6l-3.1,9.6l-2.8,8.6L451.9,885L429,810.1z M457.9,888l23-70.2l1.4-4.4l4.5-13.8l25.1-76.6h231.3
		L457.9,888z M625.7,714.8l-66.2,0.4l-42.3,0.3h0l-3.8,0l1.7-5.2L524,683l5.6-17.2l27.6-85c0,0,0,0,0,0l4.3-13.1l34.7-107.1
		l15.5,26.5l25,42.5l36.6,61.7l73,122.8L625.7,714.8z M381.3,666.6c-2.6,0.9-5,1.8-7.3,2.6l4.8,14.9c0.7-0.2,1.5-0.3,2.2-0.5
		c0.5-0.1,1-0.2,1.4-0.3c0.6-0.1,1.3-0.3,1.9-0.4c0.1,0,0.1,0,0.2,0c0.6-0.1,1.2-0.2,1.8-0.3L381.3,666.6z"/>
	<g id="Group-40_1_" transform="translate(10 22)">
		<path class="st2" d="M660.5,508.7c0,0,21.3,21.3,16.7,69.9l0,0c0,1.5,0,3,0,6.1c-3-4.6-7.6-9.1-12.2-13.7l0,0
			c-3-3-4.6-4.6-6.1-6.1c1.5,7.6,22.8,71.4-16.7,103.3c0-18.2-10.6-41-10.6-41s1.5,34.9-19.8,72.9c-1.5,3-3,4.6-4.6,7.6
			c-15.2,22.8-38,45.6-77.6,60.8c9.1-16.7,10.6-22.8,12.2-24.3c-1.5,1.5-18.2,34.9-65.4,33.4c-3,0-4.6,0-7.6,0
			c-4.6,0-10.6-1.5-16.7-3c4.6,4.6,9.1,9.1,13.7,12.2c1.5,1.5,4.6,3,6.1,4.6l0,0c3,1.5,7.6,3,12.2,4.6c-3,0-7.6,0-13.7,0
			c-3,0-4.6,0-7.6,0c-12.2,0-28.9-3-48.7-9.1c-3-1.5-6.1-1.5-9.1-3c-15.2-7.6-33.5-16.7-50.2-31.9c1.5,6.1,6.1,15.2,6.1,15.2
			s-42.6,0-77.6-60.8c0,0-1.5-3-3-6.1c-9.1-18.2-18.2-42.5-25.9-72.9c-4.6,13.7-7.6,21.3-7.6,38c-7.6-4.6-35-16.7-18.2-95.7
			c-7.6,4.6-15.2,16.7-15.2,16.7s-1.5-3-1.5-9.1c0-3-1.5-7.6-1.5-10.6c-1.5-9.1-1.5-19.7,0-30.4c1.5-9.1,15.2-22.8,15.2-22.8
			s-10.6-4.6-21.3,1.5c3-9.1,18.2-22.8,18.2-22.8s-16.7-13.7-16.7-57.7s22.8-57.7,47.1-50.1c0-6.1,1.5-24.3,6.1-45.6l0,0
			c1.5-4.6,1.5-9.1,3-13.7c12.2-53.2,41.1-124.6,118.6-150.4c7.6-1.5,3-9.1-1.5-9.1h-22.8c0,0,16.7-13.7,47.1-10.6
			c30.4,3,9.1-6.1,9.1-6.1l-18.2-13.7c0,0,18.2-1.5,42.6,3c3,0,4.6,1.5,7.6,1.5c19.8,4.6,41.1,13.7,59.3,30.4
			c10.6,4.6,89.7,31.9,120.1,144.3l0,0c1.5,4.6,1.5,9.1,3,13.7l0,0c3,15.2,6.1,33.4,6.1,54.7c10.6,1.5,28.9-6.1,38,13.7l0,0
			c0,1.5,1.5,3,1.5,4.6c3,7.6,6.1,16.7,6.1,25.8l0,0c1.5,22.8-1.5,47.1-15.2,60.8c6.1,12.2,12.2,21.3,18.2,24.3
			C675.7,513.3,660.5,508.7,660.5,508.7z"/>
		<path id="Fill-20_2_" class="st1" d="M373.1,691c0,0,80.6-22.8,139.9,0l-10.6,4.6l13.7,16.7c0,0,4.6,6.1,13.7,0
			c9.1-6.1,16.7-13.7,16.7-13.7s9.1-10.6,0-19.7c-9.1-9.1-13.7-22.8-100.4-22.8c-85.2,0-108,12.2-108,30.4
			c0,18.2,18.2,24.3,18.2,24.3s7.6,4.6,16.7-3c9.1-9.1,9.1-12.2,9.1-12.2L373.1,691z"/>
		<path id="Fill-22_2_" class="st1" d="M406.6,372c0,0,35,39.5,71.5,0c-3,10.6-22.8,34.9-22.8,34.9s38-34.9,73-47.1
			c-3,10.6-6.1,16.7-6.1,16.7s33.5-21.3,62.4-24.3c-4.6,9.1-16.7,19.7-16.7,19.7s42.6,15.2,45.6,62.3c-6.1-3-16.7-15.2-16.7-15.2
			s12.2,45.6-1.5,83.5c-13.7,38-30.4,44-36.5,44c-6.1,0-18.2-1.5-24.3-25.8c-6.1-24.3-18.2-44-25.9-47.1c13.7,0,39.5,6.1,53.2,21.3
			c-6.1-9.1-12.2-12.2-7.6-16.7c4.6-4.6,15.2-15.2,15.2-30.4s-7.6-24.3-7.6-24.3l19.8-9.1c0,0-35-1.5-62.4,19.7
			c-27.4,21.3-38,30.4-45.6,30.4c-7.6,0-21.3-18.2-21.3-18.2s0,13.7,6.1,19.7c0,3-9.1,3-9.1,3l-6.1-9.1l-6.1,9.1
			c0,0-9.1,6.1-12.2-1.5c-1.5-4.6,10.6-10.6,10.6-19.7c-1.5,1.5-15.2,15.2-21.3,16.7c-6.1,0-9.1,0-24.3-10.6
			c-12.2-15.2-36.5-36.5-53.2-38c-16.7-1.5-31.9-4.6-31.9-4.6l18.2,9.1c0,0-6.1,7.6-6.1,21.3s3,28.9,15.2,36.5
			c-3,4.6-10.6,16.7-10.6,16.7s19.8-21.3,50.2-21.3c-3,6.1-21.3,21.3-27.4,60.8c-1.5,6.1-9.1,10.6-13.7,10.6s-28.9-7.6-41.1-48.6
			c-6.1-19.7-6.1-57.7,1.5-79c3-9.1-16.7,15.2-16.7,15.2s-1.5-36.5,42.6-65.3c-3-6.1-15.2-16.7-15.2-16.7s24.3,0,62.4,22.8
			c-3-6.1-10.6-15.2-10.6-15.2s27.4,1.5,76,47.1C421.8,394.8,406.6,372,406.6,372L406.6,372z"/>
		<path id="Fill-24_2_" class="st1" d="M359.4,438.9c0,0-15.2-16.7-13.7,7.6c7.6,21.3,28.9,21.3,39.5,18.2c10.6-3,1.5-9.1-1.5-9.1
			C374.6,455.6,359.4,438.9,359.4,438.9L359.4,438.9z"/>
		<path id="Fill-26_2_" class="st1" d="M529.8,438.9c0,0,15.2-16.7,13.7,7.6c-7.6,21.3-28.9,21.3-39.5,18.2c-10.6-3-1.5-9.1,1.5-9.1
			C514.5,455.6,529.8,438.9,529.8,438.9L529.8,438.9z"/>
		<path id="Fill-28_2_" class="st1" d="M444.6,633.3c0,0,68.4,3,85.2,15.2c16.7,12.2,31.9,4.6,30.4-7.6c0-12.2-3-50.1-3-50.1
			s-4.6-31.9-24.3-54.7c-10.6-15.2-16.7-3-16.7-3s-24.3,18.2-24.3,30.4c-1.5-7.6-3-15.2,6.1-24.3c10.6-9.1,22.8-12.2,22.8-34.9
			s-27.4-31.9-27.4-31.9s-24.3-1.5-28.9,1.5s-10.6,6.1-18.2,6.1s-16.7-1.5-22.8-6.1c-6.1-4.6-24.3-3-28.9-3
			c-6.1,0-30.4,18.2-27.4,36.5c1.5,18.2,19.8,34.9,28.9,41c1.5,7.6,0,19.7,0,19.7s-10.6-36.5-31.9-38c-9.1-3-19.8,19.7-19.8,19.7
			s-13.7,19.7-15.2,30.4c-1.5,10.6-3,59.2-3,59.2s0,15.2,13.7,15.2C354.9,654.6,379.2,633.3,444.6,633.3L444.6,633.3z"/>
		<path id="Fill-30_2_" class="st3" d="M430.9,539.1v-25.8c0,0-4.6-30.4-24.3-30.4c-21.3,0-21.3,10.6-21.3,16.7
			c0,6.1,9.1,13.7,9.1,13.7S427.9,530,430.9,539.1L430.9,539.1z"/>
		<path id="Fill-32_2_" class="st3" d="M456.8,539.1v-25.8c0,0,4.6-30.4,24.3-30.4c21.3,0,21.3,10.6,21.3,16.7
			c0,6.1-9.1,13.7-9.1,13.7S459.8,530,456.8,539.1L456.8,539.1z"/>
		<path id="Fill-34_2_" class="st3" d="M441.5,616.6h6.1l-3-60.8L441.5,616.6z"/>
		<path id="Fill-36_2_" class="st1" d="M239.3,486c0,0-22.8-10.6-22.8-51.6s19.8-34.9,22.8-34.9c4.6,0,10.6,3,12.2,18.2
			c-6.1-3-16.7-12.2-21.3,0c-1.5,3,3,1.5,4.6,1.5c1.5,0,7.6,6.1,3,12.2c-4.6,6.1-6.1,15.2,0,18.2c6.1,3,9.1,4.6,9.1,12.2
			c0,9.1-3,7.6-4.6,12.2C239.3,478.4,239.3,486,239.3,486L239.3,486z"/>
		<path id="Fill-38_2_" class="st1" d="M646.9,486c0,0,22.8-10.6,22.8-51.6s-19.8-34.9-22.8-34.9c-3,0-9.1,3-10.6,19.7
			c6.1-3,16.7-12.2,21.3,0c1.5,3-3,1.5-4.6,1.5s-7.6,4.6-3,10.6c4.6,6.1,6.1,15.2,0,18.2c-6.1,3-9.1,4.6-9.1,12.2
			c0,9.1,3,7.6,4.6,12.2C648.4,478.4,646.9,486,646.9,486L646.9,486z"/>
	</g>
</g>
</svg>
