<svg xmlns="http://www.w3.org/2000/svg" width="250" height="250" viewBox="0 0 250 250"><g fill="none" fill-rule="evenodd"><path fill="#2B3945" d="M-654-760h1920v2100H-654z"/><path fill="#101E27" d="M0 0h250v250H0z"/><g transform="translate(16 101)"><path fill="#FFF" d="M11.2 19.22h11.42v6.39H11.2v4.32h12.51v6.39H4.31V8.55h19.4v6.34H11.2zM40.932 8.545c7.741 0 14.03 6.224 14.03 13.887 0 7.701-6.289 13.886-14.03 13.886-7.742 0-13.99-6.185-13.99-13.886 0-7.663 6.248-13.887 13.99-13.887zm0 6.224c-4.087 0-7.31 2.995-7.31 7.663 0 4.706 3.223 7.624 7.31 7.624 4.126 0 7.349-2.918 7.349-7.624 0-4.668-3.223-7.663-7.35-7.663zm28.675-6.224h.28c3.939 0 8.038 1.906 11.212 4.513l-4.46 3.967c-2.17-1.284-5.224-2.256-6.751-2.256h-.281c-1.246 0-3.979.233-3.979 2.178 0 1.478 2.25 1.712 4.019 1.906l1.808.156c5.787.622 10.448 2.723 10.448 8.674 0 5.329-4.661 8.557-11.252 8.635h-.2c-5.667 0-9.846-2.606-12.257-5.251l4.46-3.967c1.206 1.128 3.939 2.995 7.796 2.995h.201c2.894-.04 4.42-.934 4.42-2.412 0-1.945-2.29-2.256-4.54-2.528l-1.849-.195c-5.224-.544-9.885-2.645-9.885-7.818 0-5.29 4.661-8.519 10.81-8.597zM107.77 36.32h-3.91L92.73 21.04v15.28h-6.52V8.55h3.92l11.12 15.27V8.55h6.52zm19.395-.002h-.021c-8.337 0-15.066-6.185-15.066-13.886 0-7.663 6.729-13.887 15.066-13.887h30.217c8.337 0 15.066 6.185 15.066 13.887 0 7.663-6.729 13.886-15.066 13.886h-30.196zm0-6.409h30.198c4.808 0 8.598-2.93 8.598-7.496 0-4.605-3.79-7.458-8.598-7.458h-30.221c-4.808 0-8.598 2.93-8.598 7.496 0 4.604 3.79 7.458 8.598 7.458h.023zm75.215 6.411h-3.94l-5.56-14.13-5.52 14.13h-3.93l-11-27.77h7.29l5.6 15.43 5.63-15.43h3.9l5.64 15.43 5.59-15.43h7.3z"/><ellipse cx="158.42" cy="22.43" fill="#45F887" rx="5.39" ry="5.34"/></g></g></svg>
