<?xml version="1.0" encoding="UTF-8"?>
<svg width="120px" height="120px" viewBox="0 0 120 120" version="1.1" xmlns="http://www.w3.org/2000/svg" xmlns:xlink="http://www.w3.org/1999/xlink">
    <!-- Generator: Sketch 53.2 (72643) - https://sketchapp.com -->
    <title>eospayout.com</title>
    <desc>Created with Sketch.</desc>
    <g id="eospayout.com" stroke="none" stroke-width="1" fill="none" fill-rule="evenodd">
        <rect id="pokereos.io" fill="#1E3464" x="0" y="0" width="120" height="120"></rect>
        <g transform="translate(-3.000000, -6.000000)">
            <rect id="Rectangle" fill="#1D223D" x="0" y="0" width="126" height="126"></rect>
            <g id="Group" transform="translate(8.000000, 33.000000)" stroke="#FFFFFF" stroke-width="2">
                <g transform="translate(0.000000, 35.583333)">
                    <rect id="Rectangle" fill="#1D223D" x="0" y="10.3157778" width="39.0320615" height="4.74020833"></rect>
                    <ellipse id="Oval" fill="#FFFFFF" cx="19.5160308" cy="15.0559861" rx="19.5160308" ry="9.48126389"></ellipse>
                    <ellipse id="Oval" fill="#9A00E8" cx="19.5160308" cy="10.3157778" rx="19.5160308" ry="9.48126389"></ellipse>
                </g>
                <g transform="translate(41.084615, 36.430556)">
                    <rect id="Rectangle" fill="#1D223D" x="0.420069231" y="9.66002778" width="39.0320615" height="4.74020833"></rect>
                    <ellipse id="Oval" fill="#FFFFFF" cx="19.9369385" cy="14.4010833" rx="19.5160308" ry="9.48126389"></ellipse>
                    <ellipse id="Oval" fill="#C38AFF" cx="19.9369385" cy="9.66002778" rx="19.5160308" ry="9.48126389"></ellipse>
                </g>
                <g transform="translate(69.592308, 31.347222)">
                    <rect id="Rectangle" fill="#1D223D" x="0.375630769" y="9.91588889" width="39.0320615" height="4.74020833"></rect>
                    <ellipse id="Oval" fill="#FFFFFF" cx="19.8916615" cy="14.6569444" rx="19.5160308" ry="9.48126389"></ellipse>
                    <ellipse id="Oval" fill="#C260A6" cx="19.8916615" cy="9.91588889" rx="19.5160308" ry="9.48126389"></ellipse>
                </g>
                <g transform="translate(17.607692, 26.263889)">
                    <rect id="Rectangle" fill="#1D223D" x="0.584407692" y="10.2590139" width="39.0320615" height="4.74020833"></rect>
                    <ellipse id="Oval" fill="#FFFFFF" cx="20.1004385" cy="14.9992222" rx="19.5160308" ry="9.48126389"></ellipse>
                    <ellipse id="Oval" fill="#164FFF" cx="20.1004385" cy="10.2590139" rx="19.5160308" ry="9.48126389"></ellipse>
                </g>
                <g transform="translate(57.853846, 19.486111)">
                    <rect id="Rectangle" fill="#1D223D" x="0.0159307692" y="9.80320833" width="39.0320615" height="4.74020833"></rect>
                    <ellipse id="Oval" fill="#FFFFFF" cx="19.5319615" cy="14.5442639" rx="19.5160308" ry="9.48126389"></ellipse>
                    <ellipse id="Oval" fill="#FC00FE" cx="19.5319615" cy="9.80320833" rx="19.5160308" ry="9.48126389"></ellipse>
                </g>
                <g transform="translate(36.892308, 12.708333)">
                    <rect id="Rectangle" fill="#1D223D" x="0.815823077" y="9.59309722" width="39.0320615" height="4.74020833"></rect>
                    <ellipse id="Oval" fill="#FFFFFF" cx="20.3318538" cy="14.3333056" rx="19.5160308" ry="9.48126389"></ellipse>
                    <ellipse id="Oval" fill="#00D004" cx="20.3318538" cy="9.59309722" rx="19.5160308" ry="9.48126389"></ellipse>
                </g>
                <g transform="translate(50.307692, 0.000000)">
                    <rect id="Rectangle" fill="#1D223D" x="0.143376923" y="10.1683611" width="39.0320615" height="4.74020833"></rect>
                    <ellipse id="Oval" fill="#FFFFFF" cx="19.6602462" cy="14.9094167" rx="19.5160308" ry="9.48126389"></ellipse>
                    <ellipse id="Oval" fill="#FFA317" cx="19.6602462" cy="10.1683611" rx="19.5160308" ry="9.48126389"></ellipse>
                </g>
            </g>
        </g>
    </g>
</svg>