<?xml version="1.0" encoding="utf-8"?>
<!-- Generator: Adobe Illustrator 22.1.0, SVG Export Plug-In . SVG Version: 6.00 Build 0)  -->
<svg version="1.1" id="图层_1" xmlns="http://www.w3.org/2000/svg" xmlns:xlink="http://www.w3.org/1999/xlink" x="0px" y="0px"
	 viewBox="0 0 990 990" style="enable-background:new 0 0 990 990;" xml:space="preserve">
<style type="text/css">
	.st0{fill:#FFFFFF;}
	.st1{fill:url(#SVGID_1_);}
	.st2{fill:url(#SVGID_2_);}
	.st3{fill:url(#SVGID_3_);}
	.st4{fill:url(#SVGID_4_);}
	.st5{fill:url(#SVGID_5_);}
	.st6{fill:url(#SVGID_6_);}
	.st7{fill:url(#SVGID_7_);}
</style>
<title>EOSPark 品牌资产</title>
<path class="st0" d="M495,0L495,0c273.4,0,495,221.6,495,495l0,0c0,273.4-221.6,495-495,495l0,0C221.6,990,0,768.4,0,495l0,0
	C0,221.6,221.6,0,495,0z"/>
<linearGradient id="SVGID_1_" gradientUnits="userSpaceOnUse" x1="314.43" y1="445.295" x2="766.26" y2="445.295" gradientTransform="matrix(1 0 0 -1 0 990)">
	<stop  offset="0" style="stop-color:#FF5739"/>
	<stop  offset="0.99" style="stop-color:#FC7D66"/>
</linearGradient>
<path class="st1" d="M530,188.1H346c-23.6,0-41,18.3-41,41.8v671.4c104.9-13.4,183.6-31.6,205.1-155c0.1-0.6,0.2-1.3,0.3-1.9
	c3-18.4,4.7-37,5.2-55.7v-1.4c0.2-7.3,0.3-14.8,0.3-22.6v-1.2l0,0c0-0.2,0-0.3,0-0.5l0,0v-0.2h14c131.3,0,238.5-105.9,238.5-237.3
	S661.3,188.1,530,188.1z"/>
<linearGradient id="SVGID_2_" gradientUnits="userSpaceOnUse" x1="456.6318" y1="470.7256" x2="655.0418" y2="464.3857" gradientTransform="matrix(1 0 0 -1 0 990)">
	<stop  offset="6.000000e-02" style="stop-color:#FFDD61"/>
	<stop  offset="0.22" style="stop-color:#FFD858"/>
	<stop  offset="0.5" style="stop-color:#FFC93E"/>
	<stop  offset="0.84" style="stop-color:#FFB115"/>
	<stop  offset="1" style="stop-color:#FFA500"/>
</linearGradient>
<path class="st2" d="M510.8,742.5c2.9-18.3,4.5-36.7,5-55.2c0-1.9,0.1-3.8,0.1-5.7c0-0.7,0.1-18.8,0.1-19.2c0,0,0-0.1,0-0.1
	c2.9-15,4.6-28.4,7.4-40.1c1.4-5.9,2.9-11.5,4.4-16.6c2.1-7.1,4.6-14,7.4-20.8c2.3-5.7,5-11.2,8-16.5c1.8-3.2,3.7-6.2,5.6-8.9
	c3.4-4.9,7.3-9.4,11.7-13.5c1.9-1.7,3.9-3.4,5.9-4.9c1.6-1.2,3.2-2.2,4.8-3.2c1.4-0.8,2.7-1.6,4.1-2.3c1.9-1,3.9-1.9,5.8-2.7
	c6.1-2.4,12.3-4.4,18.6-6c12.4-3.5,23.5-10.7,31.7-20.6c0.7-0.8,1.3-1.6,1.9-2.4c0.9-1.2,1.9-2.5,2.7-3.8c0.4-0.7,0.9-1.4,1.3-2
	c0.8-1.3,1.5-2.6,2.2-3.9c0.4-0.8,0.8-1.5,1.2-2.3v-0.1c1.4-2.7,2.6-5.5,3.7-8.4c0.5-1.3,1-2.7,1.4-4c0.3-0.8,0.5-1.5,0.7-2.3
	c0.1-0.4,0.2-0.8,0.3-1.1c0.3-0.9,0.5-1.8,0.8-2.7s0.5-1.9,0.7-2.8s0.4-1.9,0.6-2.8l0.2-0.7c0.2-1.1,0.4-2.2,0.6-3.2
	c0.3-1.7,0.6-3.4,0.8-5.1c0.5-3.3,0.8-6.3,1-9c0.1-0.8,0.1-1.6,0.2-2.4c0.1-1.2,0.1-2.3,0.1-3.4c0-1.3,0-2.5,0-3.3s0-1.6,0-2
	s0-0.5,0-0.5s8.4-24.5,0-28.2c-0.8-0.4-1.7-0.7-2.5-1.1c-2.4-1.1-4.7-2.4-6.8-3.6l0,0c-1.5-0.9-3-1.8-4.4-2.8l-0.2-0.1
	c-1.4-1-2.7-1.9-4-2.9l-0.2-0.1l0,0c-26.1-20.7-26.5-50.5-29.7-65.7l-0.1-0.4c-0.1-0.4-0.2-0.9-0.3-1.3c0-0.2-0.1-0.4-0.1-0.5
	c-0.1-0.4-0.2-0.7-0.3-1.1c0-0.2-0.1-0.4-0.2-0.5c-0.1-0.3-0.2-0.7-0.3-1c-0.1-0.1-0.1-0.3-0.2-0.4c-0.2-0.4-0.4-0.8-0.6-1.2
	c-19.1-35.8-44.2-50.2-69.1-57c-1-0.3-2.1-0.5-3.1-0.8c-6.1-1.5-12.1-2.6-18-3.4l-0.9-0.1c-1.7-0.2-3.5-0.5-5.2-0.7l-0.8-0.1
	l-5.2-0.6l-0.7-0.1l-5.1-0.6c-5-0.6-9.8-1.1-14.4-1.8c-1.4-0.2-2.9-0.5-4.3-0.7c-1.2-0.2-2.3-0.4-3.5-0.7s-2.5-0.5-3.7-0.8
	c-2-0.5-4-1.1-5.9-1.8c-0.9-0.3-1.8-0.7-2.6-1c-0.6-0.2-1.2-0.5-1.8-0.8s-1.3-0.6-2-1c-1.4-0.7-2.8-1.6-4.1-2.5
	c-0.8-0.6-1.6-1.2-2.4-1.8c-4.6-4-8.1-9.2-9.9-15.1c-0.7-2.5-1.5-4.9-2.2-7.2s-1.4-4.6-2.2-6.9c-0.9-3-1.9-5.8-2.8-8.6
	c-3.2-9.8-6.3-18.5-9.2-26.1l0,0c-1.2-3-2.3-5.9-3.4-8.6c-0.6-1.4-1.1-2.7-1.6-4c-1.1-2.6-2.1-5-3.2-7.3c-1.5-3.4-3-6.5-4.4-9.3
	c-11.2-22.5-17.9-26.7-17.9-26.7c-17.3,13.7-27.2,34.6-33.4,55.9c-0.4,1.5-0.9,3-1.3,4.5c-6.1,22.8-15.4,62.8-22.7,85.3
	c-4.7,14.5-15.1,33.7-30.6,54.8v570.3C409.8,887.8,489,868.3,510.8,742.5z"/>
<linearGradient id="SVGID_3_" gradientUnits="userSpaceOnUse" x1="343.8" y1="207.6349" x2="551.46" y2="207.6349" gradientTransform="matrix(1 0 0 -1 0 990)">
	<stop  offset="0" style="stop-color:#FF1A00;stop-opacity:0.5"/>
	<stop  offset="1" style="stop-color:#FECB2B"/>
</linearGradient>
<path class="st3" d="M376.3,799.4c-42.7,16-71.3,56.3-71.3,101.9l0,0c124.9-16,212.7-38.7,211-237.9l0,0
	C516,663.4,493.7,755.4,376.3,799.4z"/>
<linearGradient id="SVGID_4_" gradientUnits="userSpaceOnUse" x1="428.6769" y1="400.8427" x2="712.4668" y2="733.2827" gradientTransform="matrix(1 0 0 -1 0 990)">
	<stop  offset="0" style="stop-color:#FFDD61"/>
	<stop  offset="0.1" style="stop-color:#FFD45C"/>
	<stop  offset="0.28" style="stop-color:#FFBA50"/>
	<stop  offset="0.5" style="stop-color:#FF913B"/>
	<stop  offset="0.75" style="stop-color:#FF581F"/>
	<stop  offset="1" style="stop-color:#FF1A00"/>
</linearGradient>
<path class="st4" d="M480.4,582.2C439.9,645.6,305,555.6,305,555.6v189.1c16.9-0.5,32.5-1.7,46.8-3.3c7.2-0.8,14.1-1.8,20.7-2.8
	c2.2-0.4,4.4-0.7,6.5-1.1c4.3-0.8,8.4-1.6,12.4-2.4c6-1.3,11.7-2.6,17.2-4.1c3.7-1,7.2-2,10.6-3c1.7-0.5,3.4-1,5-1.6
	c2.9-0.9,5.6-1.9,8.3-2.8c2-0.7,3.9-1.4,5.8-2.1c4.4-1.7,8.7-3.5,12.6-5.3c6.6-3,12.6-6.1,18-9.2c3.2-1.9,6.3-3.7,9.1-5.6
	c1.9-1.2,3.7-2.5,5.4-3.7c3.4-2.5,6.5-4.9,9.3-7.3c1.4-1.2,2.7-2.4,4-3.5c1.2-1.2,2.4-2.3,3.5-3.4l0,0l0,0c0.8-0.8,1.6-1.6,2.3-2.4
	c0.8-0.8,1.5-1.6,2.2-2.4c0.4-0.5,0.9-1,1.3-1.5c7.5-8.9,10-15,10-15l0,0c2.1-15,4.7-28.3,7.5-40.1c1.4-5.9,2.9-11.3,4.4-16.5
	c2.1-7,4.6-14,7.4-20.7c2.3-5.6,5-11.2,8-16.5c1.8-3.2,3.7-6.2,5.6-8.9c3.4-4.9,7.3-9.4,11.7-13.5c1.9-1.7,3.9-3.4,5.9-4.9
	c1.6-1.2,3.2-2.2,4.8-3.2c1.4-0.8,2.7-1.6,4.1-2.3c1.9-1,3.9-1.9,5.8-2.7c6.1-2.4,12.3-4.4,18.6-6
	C599.7,526.8,520.9,518.7,480.4,582.2z"/>
<linearGradient id="SVGID_5_" gradientUnits="userSpaceOnUse" x1="461.42" y1="620.7978" x2="659.8299" y2="614.4578" gradientTransform="matrix(1 0 0 -1 0 990)">
	<stop  offset="6.000000e-02" style="stop-color:#FFDD61"/>
	<stop  offset="0.22" style="stop-color:#FFD858"/>
	<stop  offset="0.5" style="stop-color:#FFC93E"/>
	<stop  offset="0.84" style="stop-color:#FFB115"/>
	<stop  offset="1" style="stop-color:#FFA500"/>
</linearGradient>
<path class="st5" d="M652.1,409.6c-3.2-1.4-6.3-3-9.3-4.8l0,0c27.3,23-56.7,23.7-113.9,21.8c-73.7-2.5-138-52.6-156.1-124.1
	c-0.3-1.3-0.6-2.5-0.9-3.8C350.6,206,393,130.5,393,130.5l0,0c-17.3,13.7-27.2,34.6-33.4,55.9c-0.4,1.5-0.9,3-1.3,4.5
	c-6.1,22.8-15.4,62.8-22.7,85.3c-4.7,14.5-15.1,33.7-30.6,54.8v224.5c0,0,134.9,90,175.4,26.5s119.4-55.4,119.4-55.4
	c-6.3,1.6-12.5,3.6-18.6,6c6.1-2.4,12.3-4.4,18.6-6c56.1-16.2,52.4-88.9,52.4-88.9S660.5,413.3,652.1,409.6z"/>
<linearGradient id="SVGID_6_" gradientUnits="userSpaceOnUse" x1="467.2153" y1="706.5778" x2="335.9054" y2="746.3677" gradientTransform="matrix(1 0 0 -1 0 990)">
	<stop  offset="6.000000e-02" style="stop-color:#FFDD61;stop-opacity:0.3"/>
	<stop  offset="0.16" style="stop-color:#FFD35C;stop-opacity:0.34"/>
	<stop  offset="0.34" style="stop-color:#FFB74E;stop-opacity:0.44"/>
	<stop  offset="0.56" style="stop-color:#FF8A37;stop-opacity:0.6"/>
	<stop  offset="0.82" style="stop-color:#FF4B19;stop-opacity:0.82"/>
	<stop  offset="1" style="stop-color:#FF1A00"/>
</linearGradient>
<path class="st6" d="M371.9,298.7c0.3,1.3,0.6,2.6,0.9,3.8C391,374,455.2,424.2,529,426.7c57.2,1.9,141.2,1.2,113.9-21.8l0,0
	c-1.5-0.9-3-1.8-4.4-2.8l-0.2-0.1c-1.4-0.9-2.7-1.9-4-2.9l-0.2-0.1l0,0c-26.1-20.7-26.5-50.5-29.7-65.7l-0.1-0.4
	c-0.1-0.5-0.2-0.9-0.3-1.3c0-0.2-0.1-0.4-0.1-0.5c-0.1-0.4-0.2-0.7-0.3-1.1c0-0.2-0.1-0.4-0.2-0.5c-0.1-0.3-0.2-0.7-0.3-1
	c-0.1-0.1-0.1-0.3-0.2-0.4c-0.2-0.4-0.4-0.8-0.6-1.2c-19.1-35.8-44.2-50.2-69.1-57c-1-0.3-2.1-0.5-3.1-0.8c-6.1-1.5-12.1-2.6-18-3.4
	l-0.9-0.1c-1.7-0.2-3.5-0.5-5.2-0.7l-0.8-0.1c-1.7-0.2-3.5-0.4-5.2-0.6l-0.7-0.1l-5.1-0.6c-5-0.6-9.8-1.1-14.4-1.8
	c-1.4-0.2-2.9-0.5-4.3-0.7c-1.2-0.2-2.3-0.4-3.5-0.7s-2.5-0.5-3.7-0.9c-2-0.5-4-1.1-5.9-1.8c-0.9-0.3-1.8-0.7-2.6-1
	c-0.6-0.2-1.2-0.5-1.8-0.8c-0.6-0.3-1.3-0.6-2-1c-1.4-0.7-2.8-1.6-4.1-2.5c-0.8-0.6-1.6-1.2-2.4-1.8c-4.6-4-8.1-9.3-9.9-15.1
	c-0.7-2.5-1.5-4.9-2.2-7.2c-0.7-2.3-1.4-4.7-2.2-6.9c-0.9-3-1.9-5.8-2.8-8.6c-3.2-9.8-6.3-18.5-9.2-26.1l0,0c-1.2-3-2.3-5.9-3.4-8.6
	c-0.6-1.4-1.1-2.7-1.6-4c-1.1-2.6-2.1-5-3.2-7.3c-1.5-3.4-3-6.5-4.4-9.3c-11.2-22.6-17.9-26.7-17.9-26.7S350.6,206,371.9,298.7z"/>
<linearGradient id="SVGID_7_" gradientUnits="userSpaceOnUse" x1="615.676" y1="617.1771" x2="515.2559" y2="559.4271" gradientTransform="matrix(1 0 0 -1 0 990)">
	<stop  offset="0" style="stop-color:#FFDD61"/>
	<stop  offset="0.1" style="stop-color:#FFD459"/>
	<stop  offset="0.26" style="stop-color:#FFBA45"/>
	<stop  offset="0.46" style="stop-color:#FF9124"/>
	<stop  offset="0.65" style="stop-color:#FF6500"/>
</linearGradient>
<path class="st7" d="M570.5,371.8l-1.9,2.1c-2.4,2.6-3.4,6.2-2.7,9.7c1.2,6.2,4.7,16.6,14.6,27.6c3.9,4.3,10.5,4.7,14.9,0.8
	c1.6-1.5,2.8-3.4,3.2-5.5c2.5-10.7,1.8-25-13.2-36.3C580.8,366.8,574.3,367.4,570.5,371.8z"/>
</svg>
