<svg xmlns="http://www.w3.org/2000/svg" viewBox="0 0 150 150"><defs><style>.cls-1{fill:#fff;}.cls-2,.cls-3{fill:gray;}.cls-3{font-size:22.08px;font-family:Arial-BoldMT, Arial;font-weight:700;}.cls-4{fill:#ccc;}</style></defs><title>eosrexio-logo</title><g id="background"><rect class="cls-1" x="-199.75" y="-203.75" width="555" height="555"/></g><g id="io"><polygon class="cls-2" points="103.13 104.52 102.52 107.3 105.3 107.3 105.91 104.52 103.13 104.52"/><text class="cls-3" transform="matrix(0.96, 0, -0.28, 0.96, 105.85, 107.53)">io</text></g><g id="slash"><path class="cls-4" d="M85.3,34.06c.21.11-.85,2.34-4,3.21-1.15.32-1.67,2.39-3.49,2.49a12.91,12.91,0,0,0-6.13,2.29c-2.11,1.25-1.78,1.48-5.19,4-4.06,3.05-5,3.12-5.72,4.77-.76,1.85-.16,3.36-1.29,4s-2.39-.25-3.17.52c-.49.5-.28,1.2-.33,2-.17,3.09-4.44,5.72-5,5.28s1.92-4.14,1.92-4.14-2.8,7.32-6.7,10.66a16.45,16.45,0,0,0-2.76,3c-.17.22-1.86,2.43-1.49,2.79s1-.44,1.27-.21-.33,1.74-1.49,2.79-2.15.83-3,1.76-.37,1.95-.65,3.93c-.15,1-.33,1.11-2.88,6.21-1.7,3.4-1.69,3.5-2.45,4.86-1.47,2.62-1.6,2.39-2,3.52-.75,2-.28,2.62-1,5.9-.52,2.46-1,3.16-.75,3.31.67.4,5.54-3.57,6.37-8.7a8.51,8.51,0,0,1,.75-3.31c1.13-2.09,2.59-1.8,3.92-3.83s.37-2.85,1.82-4.76c.81-1.07,1.2-.93,2.86-2.38a19.82,19.82,0,0,0,3.82-4.45c1.73-2.85.77-3.42,2.35-5.48s2.83-1.77,3.92-3.83c1-1.83.25-2.58,1.29-4s2.19-1,4.13-2.59c2.18-1.77,1.56-3.07,4.25-5.8,1.24-1.26,1.24-.84,2.86-2.38s1.74-2,4.35-5.18C73,48.81,73.8,47.82,75,46.59c1.56-1.59,2.72-2.53,3.39-3.11C83.27,39.26,85.07,33.95,85.3,34.06Z"/><path class="cls-4" d="M114.74,31.28c-.3-.2-1,.74-3.49,2.49-2.24,1.57-2.61,1.48-4.13,2.59-2.39,1.77-2.37,2.69-4.45,4.56-2.55,2.28-3.14,1.39-5.92,3.53a25.13,25.13,0,0,0-6.47,8.08,21.85,21.85,0,0,1-2,3.52,23.48,23.48,0,0,1-3.92,3.83c-2.79,2.32-3.36,2.35-5.19,4a26.52,26.52,0,0,0-3.29,3.73c-2.65,3.51-2.56,4.88-5.21,7.87-1,1.15-1,.89-2.23,2.28a47.78,47.78,0,0,0-4.25,5.8C62.9,85.49,61.64,87.38,60,90c-1.2,2-1.13,1.93-2.55,4.24-1.77,2.87-2,3.11-2.55,4.24-1.34,2.75-.79,3-1.82,4.76-1.55,2.58-2.95,2.18-4.45,4.56-1.41,2.22-.22,2.63-1.61,6s-3.19,4.51-2.78,6.83c0,.2.3,1.68.94,1.76,1.34.17,1.75-6.07,6.7-10.66,1.38-1.29,1.66-1.08,2.86-2.38,2.53-2.75,2.2-4.63,3.94-7.66s2.64-1.93,6.68-6.84c.47-.57.27-.36,4.78-6.52L73.34,84c4.26-5.8,4.13-5.51,4.78-6.52,2.07-3.25,1.94-3.9,3.61-5.69s2.08-1.51,3.39-3.11c1.94-2.36,1.24-3.22,3-5.59s2.58-1.75,5.09-4.66C95,56.3,94.53,56,96.38,54.06s2.54-2,3.92-3.83c1.17-1.56.84-1.8,2-3.52.56-.82,1.31-1.76,4.45-4.56,3.66-3.26,3.52-2.78,4.55-3.94C114,35.26,115.27,31.64,114.74,31.28Z"/><path class="cls-4" d="M135,43.81c.21.11-.85,2.34-4,3.21-1.15.32-1.67,2.39-3.49,2.49a12.91,12.91,0,0,0-6.13,2.29c-2.11,1.25-1.78,1.48-5.19,4-4.06,3.05-5,3.12-5.72,4.77-.76,1.85-.16,3.36-1.29,4s-2.39-.25-3.17.52c-.49.5-.28,1.2-.33,2-.17,3.09-4.44,5.72-5,5.28s1.92-4.14,1.92-4.14-2.8,7.32-6.7,10.66a16.45,16.45,0,0,0-2.76,3c-.17.22-1.86,2.43-1.49,2.79s1-.44,1.27-.21-.33,1.74-1.49,2.79-2.15.83-3,1.76S88.1,91,87.81,93c-.15,1-.33,1.11-2.88,6.21-1.7,3.4-1.69,3.5-2.45,4.86-1.47,2.62-1.6,2.39-2,3.52-.75,2-.28,2.62-1,5.9-.52,2.46-1,3.16-.75,3.31.67.4,5.54-3.57,6.37-8.7a8.51,8.51,0,0,1,.75-3.31c1.13-2.09,2.59-1.8,3.92-3.83s.37-2.85,1.82-4.76c.81-1.07,1.2-.93,2.86-2.38a19.82,19.82,0,0,0,3.82-4.45c1.73-2.85.77-3.42,2.35-5.48s2.83-1.77,3.92-3.83c1-1.83.25-2.58,1.29-4S108,75,110,73.43c2.18-1.77,1.56-3.07,4.25-5.8,1.24-1.26,1.24-.84,2.86-2.38s1.74-2,4.35-5.18c1.26-1.51,2.08-2.5,3.29-3.73,1.56-1.59,2.72-2.53,3.39-3.11C133,49,134.77,43.7,135,43.81Z"/></g><g id="text"><polygon points="103.57 64.89 102.52 69.52 124.93 69.52 129.06 76.01 122.2 81.56 99.94 81.56 98.53 87.12 122.06 87.12 132.44 79.25 139.24 87.12 147.08 87.12 137.87 75.08 150.26 64.89 142.79 64.89 134.49 71.84 129.34 64.89 103.57 64.89"/><polygon points="100.52 78.32 120.32 78.32 121.58 72.76 101.79 72.76 100.52 78.32"/><path d="M94,78.34C98,77,100.13,74.78,101.2,72a7.14,7.14,0,0,0-1.66-7.53,1.24,1.24,0,0,0-.9-.35H78.84L73.65,87h5.72l1.79-7.88h7L92.08,87h6.35Zm.26-3.94H81.6l1.25-5.52H95.56Q97.48,71.64,94.31,74.4Z"/><polygon points="102.58 85.73 98.84 85.73 102.84 68.13 106.57 68.13 102.58 85.73"/><polygon points="92.19 87.12 101.79 87.12 102.78 81.56 93.17 81.56 92.19 87.12"/><path d="M49.72,64H35.34c-2.72.46-5.47,3.12-6.21,6.37L26.76,80.75c-.74,3.25.8,5.91,3.32,6.37H44.46c2.72-.46,5.47-3.12,6.21-6.37L53,70.33C53.77,67.08,52.23,64.43,49.72,64Zm-2.9,14A4.67,4.67,0,0,1,43.37,82H33.85A2.84,2.84,0,0,1,32.25,78l1.05-4.63a4.67,4.67,0,0,1,3.44-4.05h9.52a2.84,2.84,0,0,1,1.6,4.05Z"/><polygon points="28.86 69.06 30.29 64.43 7.5 64.43 7.08 66.28 6.45 69.06 5.72 72.3 4.45 77.86 3.09 83.88 3.16 83.88 2.46 86.66 24.87 86.66 25.76 81.1 7.45 81.1 8.19 77.86 24.25 77.86 25.51 72.3 9.45 72.3 10.19 69.06 28.86 69.06"/><path d="M77.71,64.43H57.79c-1.58,0-3.22,1.59-3.67,3.55l-1.43,6.29c-.45,2,.48,3.59,2.08,3.59H69.38c1.92,0,.81,3.24-.45,3.24H51.52l-1.63,5.56H69.44c1.57,0,3.21-1.58,3.65-3.53l1.65-7.28c.45-2-.48-3.55-2.06-3.55H58c-1.12,0-.38-3.24,1.11-3.24H76.29Z"/></g></svg>