<svg xmlns="http://www.w3.org/2000/svg" width="360" height="360" fill="#606060" stroke="#606060" stroke-width="2" stroke-miterlimit="10" xmlns:v="https://vecta.io/nano"><path d="M255.7 136c.2 0 .4 0 .5-.1-.2-.1-.3 0-.5.1zm-26.9 93.6c-.4-.2-.8-.5-1.2-.7 0 .1 0 .2.1.3.1.5.3.7.9.7h.6c-.1-.1-.2-.2-.4-.3zm-96.4-.4c-.2.1-.3.2-.5.3a.78.78 0 0 0-.4.4h.1c.5.1.7-.2.8-.7z"/><path d="M349.7 210.6l-30.3-40.2c-.7-.9-1.7-1.3-2.7-1.8l-32.1-17.4-28.1-15.3c-.1 0-.2-.1-.2-.1l.1-.2 13.5-29 15.4-33.2c.4-1 1-1.9 1-3.1l.3-50.3v-7.2c-.2 0-.4.1-.6.1l-53.2 16.5c-1.4.4-2.7.9-3.6 2l-.4.4-26.6 23.4-22.1 19.5L131 31.4c-1-1.1-2.3-1.6-3.7-2L73.9 13c-.2 0-.3-.1-.6-.1v7.2l.4 50.3c0 1.2.6 2.1 1 3.1l15.4 33.2 13.4 29 .1.3-28.2 15.3-32.1 17.4c-.9.5-2 .9-2.7 1.8L6 216.4c.3.1.4.1.6.2l52.5 18.6c1.3.4 2.7.8 4.1.5h.6l35.4-2.9 32-2.7.1.6 6.6 31.6 7.3 34.6c0 .2.1.4.1.6.1 1.4.8 2.6 1.7 3.8l32.7 44.8c.1.1.2.2.3.5l4.2-5.8 29.7-40.4c.7-.9.7-2 .9-3.1l7.5-35.6 6.6-31.6 66.9 5.5h.6c1.4.3 2.8-.1 4.2-.5l52.5-18.6c.1 0 .3-.1.6-.2-1.2-2-2.6-3.9-4-5.7zm-93.3-66c.3-.3.5-.5 1-.2l14.1 7.6 33.1 17.9v.1l-78.9 2.5c.3-.3.5-.4.7-.6l12.6-11.5 17.4-15.8zm13-53.4l-10.5 22.5-6.7 14.5c-.2.4-.5.4-.9.4l-23.4-2.3-16.9-1.7c-.2 0-.5 0-.9-.1l64.8-45 .1.1c-2 3.8-3.8 7.7-5.6 11.6zM236 36.6c.2-.5.4-.8 1-1l41.7-12.8c.2 0 .3-.1.6-.2v.7l-.4 43.7c0 .4-.1.7-.5 1l-67.8 47.2c-.2.1-.4.2-.6.4l-.1-.1 3-9.1L236 36.6zm-49.8 42.1l20.6-18.3 19-16.9c.1-.1.2-.1.3-.2h.1l-24.6 74.9c-.1-.3-.2-.5-.3-.7l-15.4-37.6c-.2-.5-.1-.8.3-1.2zm-52.4-35.4c.1.1.3.1.4.2l39.6 35.2c.4.3.5.6.3 1.2l-15.4 37.6c-.1.2-.2.4-.3.7l-24.6-74.9c0 .1 0 0 0 0zM81 67l-.4-44.4c.2.1.4.1.6.2L123 35.6c.6.2.8.5 1 1l26 79s-.1 0-.1.1c-.2-.1-.4-.3-.6-.4L81.5 68c-.4-.2-.5-.5-.5-1zm20.1 46.7L85.2 79.6l.1-.1 64.8 45c-.4 0-.7.1-.9.1l-17 1.7-23.4 2.3c-.4 0-.7 0-1-.4l-6.7-14.5zm-34.4 50.1l36-19.4c.4-.3.7-.1 1 .2l30 27.4c.2.1.4.3.7.6l-78.8-2.5v-.1c3.6-2.2 7.3-4.2 11.1-6.2zm-5.9 63.7c-.5.3-.8.4-1.4.2l-41.2-14.6c-.1 0-.3-.1-.6-.2.2-.2.3-.4.4-.6l26.4-34.8c.2-.4.5-.5 1-.5l83.3 2.6v.1l-7.8 5.5-60.1 42.3zm66.2-4.9c-.1.6-.4.8-.9.8l-27.4 2.3-25.3 2.2H73v-.1l64.5-45.4c-.1.4-.1.6-.2.8L127 222.6zm23.1 63.5c0-.1-.1-.2-.1-.4l-5.1-24.8-5.6-26.8c-.1-.5 0-.8.5-1.1l34.7-20.9c.2-.1.3-.2.7-.3l-25.1 74.3c0 .1 0 .1 0 0zm56.4 12.6l-25.7 35.2c-.1.2-.3.3-.4.6-.1-.2-.3-.4-.4-.5l-25.7-35.1c-.3-.4-.4-.8-.2-1.4l26.2-78.6h.1c0 .2.1.4.2.6l26.1 78.1c.1.4.1.7-.2 1.1zm14.9-64.9l-3.2 15.6-5 24.2c-.8 4.2-1.7 8.3-2.6 12.5h-.1l-24.9-74.6c.4.2.6.3.8.5l14.6 8.7 20.1 12.1c.1.3.4.5.3 1zm-17.2-19l-23.2-14c-.4-.2-.8-.3-1.2 0l-47.2 28.5 14-54.2c.1-.5 0-.8-.4-1.2L126 155.6l-21.4-19.5 28.7-2.8 27.1-2.7c.5 0 .8-.2 1-.7L180.2 84l18.7 45.9c.2.5.5.7 1 .7l27.1 2.7 28.9 2.8-.2.1-41.6 37.7c-.4.3-.5.6-.4 1.2l13.9 53.9-23.4-14.2zm24.3 15.2h0zm58.7-2h-.4l-25.3-2.2-27.4-2.3c-.6 0-.8-.2-1-.8L223 183.4c0-.2-.1-.4-.1-.8l64.3 45.4c.1-.1.1-.1 0 0zm54.6-14.9l-41.2 14.6c-.5.2-.9.1-1.4-.2l-68-47.9v-.1h.7l82.6-2.6c.4 0 .7.1 1 .5l26.4 34.8c.1.2.2.4.4.6-.1.1-.3.2-.5.3z"/></svg>