<svg xmlns="http://www.w3.org/2000/svg" viewBox="0 0 555 555"><defs><style>.cls-1{fill:#fff;}.cls-2,.cls-3{fill:gray;}.cls-3{font-size:34.57px;font-family:Arial-BoldMT, Arial;font-weight:700;}.cls-4{fill:#ccc;}</style></defs><title>eosrexio-logo</title><g id="background"><rect class="cls-1" width="555" height="555"/></g><g id="io"><polygon class="cls-2" points="318.64 321.01 317.69 325.37 322.04 325.37 322.99 321.01 318.64 321.01"/><text class="cls-3" transform="matrix(0.96, 0, -0.28, 0.96, 322.9, 325.72)">io</text></g><g id="slash"><path class="cls-4" d="M141,56.93c.33.17-1.34,3.67-6.3,5-1.81.5-2.61,3.74-5.47,3.9-3.85.2-6.68,1.85-9.6,3.58-3.3,2-2.78,2.31-8.12,6.33-6.36,4.78-7.9,4.89-9,7.46-1.18,2.9-.25,5.25-2,6.32s-3.75-.4-5,.82c-.77.78-.44,1.88-.51,3.08-.27,4.83-7,9-7.8,8.27s3-6.48,3-6.48-4.38,11.47-10.49,16.7a25.76,25.76,0,0,0-4.32,4.7c-.27.35-2.92,3.8-2.33,4.38.36.35,1.6-.69,2-.33s-.51,2.73-2.33,4.38c-2,1.83-3.36,1.3-4.64,2.76s-.58,3-1,6.15c-.23,1.61-.52,1.74-4.51,9.72-2.66,5.32-2.64,5.48-3.84,7.62-2.3,4.1-2.51,3.74-3.17,5.51-1.18,3.15-.44,4.1-1.53,9.23-.82,3.85-1.58,4.95-1.18,5.18,1,.63,8.68-5.6,10-13.62.31-1.94.14-3.25,1.18-5.18,1.77-3.27,4.06-2.83,6.14-6,2-3,.58-4.46,2.84-7.45,1.27-1.67,1.88-1.46,4.48-3.73a31,31,0,0,0,6-7c2.71-4.47,1.21-5.36,3.68-8.59s4.44-2.78,6.14-6c1.52-2.87.39-4,2-6.32,1.76-2.48,3.42-1.6,6.46-4.06,3.42-2.77,2.44-4.81,6.65-9.08,1.95-2,1.94-1.32,4.48-3.73s2.72-3.19,6.81-8.11c2-2.37,3.26-3.91,5.15-5.84,2.44-2.49,4.26-4,5.31-4.87C137.79,65.06,140.62,56.75,141,56.93Z" transform="translate(149.75 153.75)"/><path class="cls-4" d="M187.07,52.57c-.47-.32-1.58,1.16-5.47,3.9-3.5,2.46-4.09,2.31-6.46,4.06-3.75,2.77-3.7,4.22-7,7.14-4,3.57-4.92,2.17-9.28,5.52-5.71,4.39-9,10.55-10.14,12.65a34.21,34.21,0,0,1-3.17,5.51,36.77,36.77,0,0,1-6.14,6c-4.36,3.63-5.27,3.67-8.12,6.33a41.52,41.52,0,0,0-5.15,5.84c-4.15,5.5-4,7.64-8.15,12.32-1.6,1.81-1.54,1.4-3.49,3.57-1.4,1.57-2.76,3.26-6.65,9.08-2,3-4,5.94-6.49,10.05-1.88,3.07-1.76,3-4,6.65-2.77,4.49-3.13,4.87-4,6.65-2.09,4.31-1.23,4.76-2.84,7.45-2.43,4-4.62,3.42-7,7.14-2.21,3.48-.34,4.11-2.52,9.4s-5,7.07-4.35,10.69c.06.31.47,2.62,1.47,2.75,2.09.26,2.74-9.51,10.49-16.7,2.17-2,2.6-1.69,4.48-3.73,4-4.3,3.44-7.25,6.17-12,2.84-4.92,4.13-3,10.46-10.7.73-.89.43-.57,7.48-10.21l5-6.81c6.68-9.08,6.47-8.63,7.48-10.21,3.24-5.09,3-6.11,5.66-8.92s3.25-2.36,5.31-4.87c3-3.69,1.95-5,4.67-8.75s4-2.75,8-7.3c2.85-3.3,2.09-3.72,5-6.81s4-3.12,6.14-6c1.83-2.45,1.32-2.81,3.17-5.51.88-1.29,2.06-2.75,7-7.14,5.73-5.11,5.52-4.35,7.13-6.17C185.84,58.81,187.9,53.13,187.07,52.57Z" transform="translate(149.75 153.75)"/><path class="cls-4" d="M218.78,72.2c.33.17-1.34,3.67-6.3,5-1.81.5-2.61,3.74-5.47,3.9-3.85.2-6.68,1.85-9.6,3.58-3.3,2-2.78,2.31-8.12,6.33-6.36,4.78-7.9,4.89-9,7.46-1.18,2.9-.25,5.25-2,6.32s-3.75-.4-5,.82c-.77.78-.44,1.88-.51,3.08-.27,4.83-7,9-7.8,8.27s3-6.48,3-6.48-4.38,11.47-10.49,16.7a25.76,25.76,0,0,0-4.32,4.7c-.27.35-2.92,3.8-2.33,4.38.36.35,1.6-.69,2-.33s-.51,2.73-2.33,4.38c-2,1.83-3.36,1.3-4.64,2.76s-.58,3-1,6.15c-.23,1.61-.52,1.74-4.51,9.72-2.66,5.32-2.64,5.48-3.84,7.62-2.3,4.1-2.51,3.74-3.17,5.51-1.18,3.15-.44,4.1-1.53,9.23-.82,3.85-1.58,4.95-1.18,5.18,1,.63,8.68-5.6,10-13.62.31-1.94.14-3.25,1.18-5.18,1.77-3.27,4.06-2.83,6.14-6,2-3,.58-4.46,2.84-7.45,1.27-1.67,1.88-1.46,4.48-3.73a31,31,0,0,0,6-7c2.71-4.47,1.21-5.36,3.68-8.59s4.44-2.78,6.14-6c1.52-2.87.39-4,2-6.32,1.76-2.48,3.42-1.6,6.46-4.06,3.42-2.77,2.44-4.81,6.65-9.08,1.95-2,1.94-1.32,4.48-3.73s2.72-3.19,6.81-8.11c2-2.37,3.26-3.91,5.15-5.84,2.44-2.49,4.26-4,5.31-4.87C215.6,80.33,218.43,72,218.78,72.2Z" transform="translate(149.75 153.75)"/></g><g id="text"><polygon points="319.33 258.95 317.69 266.2 352.78 266.2 359.25 276.36 348.5 285.06 313.64 285.06 311.43 293.76 348.28 293.76 364.53 281.44 375.19 293.76 387.47 293.76 373.03 274.91 392.44 258.95 380.75 258.95 367.75 269.83 359.69 258.95 319.33 258.95"/><polygon points="314.56 279.98 345.56 279.98 347.54 271.28 316.54 271.28 314.56 279.98"/><path d="M154.67,126.26c6.16-2.1,9.52-5.58,11.2-9.87,1.31-4.49.67-8.48-2.59-11.79a1.93,1.93,0,0,0-1.41-.55h-31l-8.12,35.78h9l2.8-12.34h10.95l6.16,12.34h10Zm.41-6.17h-19.9l2-8.64H157Q160,115.77,155.08,120.09Z" transform="translate(149.75 153.75)"/><polygon points="317.78 291.59 311.93 291.59 318.18 264.03 324.03 264.03 317.78 291.59"/><polygon points="301.51 293.76 316.55 293.76 318.09 285.06 303.05 285.06 301.51 293.76"/><path d="M85.25,103.75H62.73c-4.27.73-8.57,4.89-9.72,10L49.31,130c-1.15,5.09,1.26,9.25,5.19,10H77c4.27-.73,8.57-4.89,9.72-10l3.7-16.32C91.6,108.64,89.19,104.48,85.25,103.75Zm-4.54,21.94c-.12,3.09-2.73,5.62-5.39,6.35H60.41c-2.33-.73-3.79-3.25-2.51-6.35l1.65-7.25c.12-3.09,2.73-5.62,5.39-6.35H79.85c2.33.73,3.79,3.25,2.51,6.35Z" transform="translate(149.75 153.75)"/><polygon points="202.35 265.48 204.58 258.23 168.9 258.23 168.24 261.13 167.25 265.48 166.1 270.56 164.13 279.26 161.99 288.69 162.1 288.69 161 293.04 196.09 293.04 197.48 284.34 168.82 284.34 169.98 279.26 195.13 279.26 197.1 270.56 171.95 270.56 173.1 265.48 202.35 265.48"/><path d="M129.09,104.48H97.89c-2.48,0-5,2.49-5.75,5.56l-2.24,9.85c-.7,3.1.75,5.62,3.26,5.62H116c3,0,1.27,5.08-.7,5.08H88.07l-2.56,8.7h30.63c2.46,0,5-2.48,5.71-5.53l2.59-11.39c.7-3.07-.75-5.56-3.22-5.56h-23c-1.75,0-.6-5.08,1.74-5.08h26.9Z" transform="translate(149.75 153.75)"/></g></svg>