<?xml version="1.0" encoding="utf-8"?>
<!-- Generator: Adobe Illustrator 23.0.1, SVG Export Plug-In . SVG Version: 6.00 Build 0)  -->
<svg version="1.1" id="Layer_2" xmlns="http://www.w3.org/2000/svg" xmlns:xlink="http://www.w3.org/1999/xlink" x="0px" y="0px"
	 viewBox="0 0 1296.91 1296.91" style="enable-background:new 0 0 1296.91 1296.91;" xml:space="preserve">
<style type="text/css">
	.st0{fill:url(#SVGID_1_);}
	.st1{fill:#231F20;}
	.st2{fill:url(#SVGID_2_);}
</style>
<linearGradient id="SVGID_1_" gradientUnits="userSpaceOnUse" x1="912.1646" y1="852.9001" x2="120.6993" y2="61.4348">
	<stop  offset="0" style="stop-color:#CFAD00"/>
	<stop  offset="0.3702" style="stop-color:#DEC50B"/>
	<stop  offset="1" style="stop-color:#FDF621"/>
</linearGradient>
<path class="st0" d="M645.23,989.21l-303.39-179l0,0l-2.82-1.67l-7.7-4.55l2.11-9l0.31-1.34l0,0L438.7,346.02l0.79-1.11
	L645.24,54.03l210.28,292.2l103.04,447.58l0,0l0.44,1.89l1.94,8.43l-6.81,3.99l-3.54,2.08l0,0L645.23,989.21z M710.47,807.68
	l-46.42,145.89l246.93-145.79L710.47,807.68z M382.02,807.66l244.76,145.87l-45.71-145.85L382.02,807.66z M605.47,807.65
	l40.01,133.28l42.15-133.26L605.47,807.65z M717.33,786.13l210.3,0.05L825.09,609.01l-33.2-57.2L717.33,786.13z M596.88,786.11
	l97.85,0.02l82.61-259.63L645.32,298.4L515.09,524.51L596.88,786.11z M365.38,786.06l208.94,0.05l-73.16-233.97L365.38,786.06z
	 M843.59,597.98l79.18,136.41l-79.19-343.6l-42.26,134.16L843.59,597.98z M449.67,390.78l-78.45,340.36l120.01-208.37L449.67,390.78
	z M656.13,274.09l130.03,224.67l46.78-147.03L656.07,105.95L656.13,274.09z M461.06,351.7l45.29,144.84L634.6,273.87l-0.06-167.42
	L461.06,351.7z"/>
<polygon class="st1" points="216.75,1239.1 283.59,1239.1 283.59,1224.44 232.11,1224.44 232.11,1189.19 266.74,1189.19 
	266.74,1174.53 232.11,1174.53 232.11,1112.39 285.59,1112.39 285.59,1097.72 216.75,1097.72 "/>
<path class="st1" d="M424.15,1102.68c-11.35-5.57-23.81-7.88-37.23-6.86c-20.03,1.53-36.88,10.08-50.09,25.41
	c-13.21,15.34-19.16,33.01-17.67,52.52c0.57,7.4,2.14,14.39,4.71,20.96l0.38-0.21l11.79-11.81c-0.74-3.13-1.27-6.37-1.53-9.77
	c-1.23-16.07,3.31-29.89,13.88-42.27c10.56-12.37,23.5-18.98,39.56-20.21c16.05-1.23,29.82,3.34,42.08,13.95
	c3.24,2.81,6.07,5.78,8.52,8.93l-0.01-0.16l-0.68-57.31L424.15,1102.68z"/>
<path class="st1" d="M460.82,1145.44l-12.18,12.2c0.7,3.03,1.2,6.17,1.45,9.45c1.23,16.07-3.31,29.93-13.88,42.37
	c-10.55,12.42-23.46,19.06-39.46,20.28s-29.76-3.37-42.08-14.04c-3.2-2.77-6-5.7-8.43-8.79l0.68,57.41l13.69-26.81
	c11.07,5.59,23.06,7.94,35.85,6.96l2.63-0.2c19.59-1.5,36.1-10.16,49.06-25.75c12.93-15.54,18.72-33.35,17.22-52.95
	c-0.55-7.15-2.03-13.88-4.42-20.2L460.82,1145.44z"/>
<linearGradient id="SVGID_2_" gradientUnits="userSpaceOnUse" x1="671.6249" y1="1168.093" x2="1158.4979" y2="1168.093">
	<stop  offset="0" style="stop-color:#CFAD00"/>
	<stop  offset="0.3702" style="stop-color:#DEC50B"/>
	<stop  offset="1" style="stop-color:#FDF621"/>
</linearGradient>
<path class="st2" d="M955.07,1098.66h-5.82l-55.89,127.28l-25.9-60.02l29.07-67.26h-6l-26.24,60.38l-25.41-60.15l-0.1-0.23h-7.49
	l28.88,67.45l-25.35,59.27l-54.68-126.49l-0.1-0.23h-7.67l61.18,141.89l0.34,0.8l29.46-67.82l29.46,67.81l62.04-142.16
	L955.07,1098.66z M1008.42,1094.84l70.08,143.53h-7.32l-0.1-0.21l-26.21-52.78h-73.83l-25.94,52.99h-6.58L1008.42,1094.84z
	 M1042.28,1179.25l-34.41-69.92l-34.05,69.92H1042.28z M1158.5,1143.5c0,12.04-4.75,22.54-14.11,31.22
	c-9.35,8.67-19.82,13.07-31.1,13.07h-1.11v50.58h-6.86v-139.71h6.49c12.88,0,24.01,4.49,33.06,13.35
	C1153.91,1120.88,1158.5,1131.47,1158.5,1143.5z M1140.16,1170.47c7.61-7.55,11.47-16.62,11.47-26.97s-3.92-19.48-11.65-27.15
	c-7.74-7.67-16.72-11.56-26.69-11.56h-1.11v77.07h1.11C1123.51,1181.85,1132.55,1178.02,1140.16,1170.47z M747.16,1202.35
	c0,7.1-1.6,12.95-4.8,17.57c-3.2,4.62-7.53,8.51-12.97,11.68c-5.24,3.03-11.04,5.2-17.41,6.51c-6.37,1.31-12.86,1.96-19.48,1.96
	c-4.13,0-8.3-0.12-12.5-0.36c-4.2-0.24-7.27-0.38-8.37-0.52v-7.38c1.1,0.14,3.53,0.4,7.28,0.78c3.75,0.38,8.46,0.57,14.1,0.57
	c6.2,0,11.95-0.55,17.26-1.65c5.3-1.1,10.02-2.82,14.16-5.15c4.89-2.81,8.56-6.13,11-9.94c2.44-3.81,3.67-8.5,3.67-14.06
	c0-4.68-1.45-9.4-4.34-14.16c-2.89-4.75-8.65-9.33-17.26-13.74c-2.07-1.1-4.96-2.41-8.68-3.93c-3.72-1.51-6.58-2.75-8.58-3.72
	c-8.61-4.13-15.03-8.7-19.27-13.69c-4.24-4.99-6.35-11.18-6.35-18.55c0-5.85,1.31-10.95,3.93-15.29c2.62-4.34,6.06-8.02,10.33-11.06
	c4.34-3.1,9.57-5.53,15.71-7.28c6.13-1.76,12.36-2.63,18.7-2.63c3.99,0,8.04,0.12,12.14,0.36c4.1,0.24,7.01,0.46,7.56,0.52
	l0.03,7.28c-1.24-0.21-3.72-0.46-7.44-0.78c-3.72-0.31-7.85-0.46-12.4-0.46c-4.96,0-10.04,0.67-15.24,2.01
	c-5.2,1.34-9.94,3.48-14.21,6.43c-2.83,1.99-5.37,4.74-7.65,8.24c-2.27,3.5-3.41,7.72-3.41,12.66c0,5.03,1.4,9.52,4.18,13.48
	c2.79,3.96,8.28,7.94,16.48,11.93c2.13,1.03,4.86,2.24,8.16,3.62c3.31,1.38,6.34,2.72,9.09,4.03c8.82,4.27,15.45,9.4,19.89,15.4
	C744.94,1189.02,747.16,1195.47,747.16,1202.35z"/>
<path class="st1" d="M574.23,1183.37c-3.15-5.1-8.38-9.8-15.56-13.95c-4.53-2.59-9.7-5.21-15.36-7.78
	c-5.59-2.55-10.26-4.89-13.86-6.96c-5.47-3.17-9.38-6.56-11.63-10.07c-2.22-3.46-3.35-7.29-3.35-11.4c0-3.84,0.97-7.38,2.89-10.53
	c1.93-3.18,4.89-5.98,8.78-8.31c3.51-2.02,7.6-3.47,12.14-4.31c4.63-0.85,10.08-1.28,16.21-1.28c4.31,0,8.36,0.05,12.02,0.14
	c3.56,0.09,6.35,0.18,8.31,0.27l1.65,0.08l-0.15-11.71l-1.87-0.16c-1.14-0.09-3.34-0.21-6.54-0.35c-3.22-0.14-7.28-0.21-12.06-0.21
	c-7.79,0-14.78,0.64-20.78,1.89c-6.05,1.27-11.05,3.02-14.84,5.19c-6.34,3.6-11.16,7.94-14.31,12.9c-3.17,5-4.78,10.83-4.78,17.34
	c0,6.62,1.78,12.62,5.28,17.85c3.46,5.17,8.14,9.52,13.91,12.92c4.18,2.51,9.75,5.34,16.56,8.42c6.71,3.04,11.75,5.63,14.99,7.69
	c4.49,2.82,7.96,6.04,10.31,9.56c2.3,3.46,3.47,7.24,3.47,11.24c0,5.24-1.26,9.53-3.76,12.74c-2.57,3.31-6.29,6.29-11.06,8.85
	c-2.5,1.38-6.79,2.55-12.75,3.49c-6.05,0.95-11.91,1.43-17.42,1.43c-4.74,0-9.07-0.12-12.87-0.34c-3.82-0.23-6.73-0.43-8.63-0.62
	l-1.68-0.16l-0.24,12.03l1.9,0.19c1.84,0.18,4.83,0.39,9.17,0.63c4.26,0.23,7.99,0.35,11.11,0.35c8.89,0,17.03-0.8,24.17-2.38
	c7.23-1.59,13.33-4.03,18.16-7.25c5.58-3.78,9.88-8.24,12.79-13.24c2.92-5.03,4.41-10.78,4.41-17.08
	C579,1194.26,577.4,1188.5,574.23,1183.37z"/>
</svg>
