<?xml version="1.0" standalone="no"?>
<!DOCTYPE svg PUBLIC "-//W3C//DTD SVG 20010904//EN"
 "http://www.w3.org/TR/2001/REC-SVG-20010904/DTD/svg10.dtd">
<svg version="1.0" xmlns="http://www.w3.org/2000/svg"
 width="512.000000pt" height="512.000000pt" viewBox="0 0 512.000000 512.000000"
 preserveAspectRatio="xMidYMid meet">
<metadata>
Created by potrace 1.15, written by Peter Selinger 2001-2017
</metadata>
<g transform="translate(0.000000,512.000000) scale(0.100000,-0.100000)"
fill="#000000" stroke="none">
<path d="M2240 5105 c-389 -48 -766 -188 -1091 -404 -504 -335 -871 -825
-1043 -1395 -41 -132 -81 -333 -96 -468 -13 -125 -13 -431 0 -556 108 -1014
825 -1880 1804 -2176 132 -41 333 -81 468 -96 125 -13 431 -13 556 0 592 63
1141 332 1563 766 289 299 494 645 613 1038 74 243 106 468 106 746 0 209 -10
324 -46 505 -181 920 -867 1676 -1768 1949 -132 41 -333 81 -468 96 -131 14
-469 11 -598 -5z m509 -1766 c245 -39 482 -230 583 -472 100 -237 74 -528 -67
-743 -50 -76 -153 -179 -229 -229 -260 -170 -612 -170 -872 0 -76 50 -179 153
-229 229 -223 341 -146 815 174 1060 188 145 391 194 640 155z m1464 -38 c80
-21 229 -93 281 -136 l30 -24 -47 -68 c-26 -37 -58 -81 -71 -98 l-24 -29 -58
36 c-86 52 -117 66 -192 90 -92 28 -220 29 -282 1 -85 -38 -125 -109 -110
-192 17 -92 62 -119 328 -195 216 -62 295 -95 369 -154 179 -143 177 -453 -4
-612 -102 -90 -220 -125 -413 -124 -157 0 -253 21 -385 84 -85 41 -202 121
-211 145 -6 14 130 185 147 185 5 0 37 -21 71 -46 114 -84 202 -120 323 -134
181 -21 306 31 335 141 17 61 3 108 -44 155 -49 49 -103 70 -310 125 -210 55
-308 101 -383 181 -124 131 -120 387 7 532 65 73 182 136 293 156 79 14 260 4
350 -19z m-2465 -108 l-3 -118 -422 -3 -423 -2 0 -195 0 -195 375 0 375 0 0
-115 0 -115 -375 0 -375 0 0 -200 0 -200 428 -2 427 -3 3 -118 3 -117 -563 2
-563 3 -3 735 c-1 404 0 741 3 748 3 9 125 12 560 12 l556 0 -3 -117z"/>
<path d="M2470 3174 c-178 -38 -348 -170 -429 -334 -123 -252 -79 -524 118
-721 250 -250 632 -250 882 0 250 250 250 632 0 882 -154 154 -365 218 -571
173z m161 -113 c24 -19 24 -21 27 -250 l3 -231 194 0 195 0 16 -26 c13 -19 15
-32 8 -52 -16 -47 -42 -52 -266 -52 -201 0 -253 6 -270 33 -4 7 -8 135 -8 285
0 259 1 273 20 292 25 25 51 25 81 1z"/>
</g>
</svg>
