<svg xmlns="http://www.w3.org/2000/svg" xmlns:xlink="http://www.w3.org/1999/xlink" version="1.1" width="195" height="232" enable-background="new 0 0 563 375" xml:space="preserve"><rect id="backgroundrect" width="100%" height="100%" x="0" y="0" fill="none" stroke="none"/>






<g class="currentLayer" style=""><title>Layer 1</title><g id="svg_1" class="">
	<path fill="#333333" d="M1.2140026855468875,231.01502044677733 c-0.36400000000000005,-0.029000000000000005 -0.6560000000000001,-0.17200000000000001 -0.8800000000000001,-0.43600000000000005 c-0.22300000000000003,-0.26 -0.3340000000000001,-0.5740000000000001 -0.3340000000000001,-0.9430000000000001 v-24.459 c0,-0.3980000000000001 0.132,-0.7190000000000001 0.3980000000000001,-0.9670000000000001 c0.265,-0.24600000000000002 0.5870000000000001,-0.37100000000000005 0.9640000000000001,-0.37100000000000005 h11.97 c0.36300000000000004,0 0.6710000000000002,0.127 0.923,0.38100000000000006 c0.25,0.256 0.37700000000000006,0.5740000000000001 0.37700000000000006,0.9570000000000001 c0,0.36700000000000005 -0.126,0.6840000000000002 -0.37700000000000006,0.9450000000000001 c-0.251,0.262 -0.56,0.39300000000000007 -0.923,0.39300000000000007 h-10.691 v9.617 h7.882 c0.37700000000000006,-0.014000000000000002 0.6920000000000002,0.10900000000000001 0.9430000000000001,0.37100000000000005 c0.251,0.262 0.37800000000000006,0.5780000000000001 0.37800000000000006,0.9450000000000001 c0,0.36900000000000005 -0.126,0.6780000000000002 -0.37800000000000006,0.924 c-0.25,0.24800000000000003 -0.5650000000000001,0.37100000000000005 -0.9430000000000001,0.37100000000000005 h-7.882 v9.619 h10.691 c0.36300000000000004,0 0.6710000000000002,0.127 0.923,0.38300000000000006 c0.25,0.254 0.37700000000000006,0.5640000000000001 0.37700000000000006,0.932 c0,0.38300000000000006 -0.126,0.7070000000000001 -0.37700000000000006,0.9650000000000001 c-0.251,0.264 -0.56,0.38900000000000007 -0.923,0.37300000000000005 H1.2140026855468875 z" id="svg_2"/>
	<path fill="#333333" d="M34.410002685546885,204.73002044677736 c1.6550000000000002,0.7230000000000001 3.102,1.711 4.339,2.963 c1.236,1.252 2.215,2.715 2.936,4.383 c0.7190000000000001,1.6720000000000002 1.079,3.463 1.079,5.373 c0,1.275 -0.16400000000000003,2.502 -0.49300000000000005,3.6820000000000004 c-0.33000000000000007,1.186 -0.786,2.285 -1.374,3.305 c-0.5860000000000001,1.018 -1.299,1.953 -2.1390000000000002,2.803 c-0.8380000000000001,0.8480000000000001 -1.7600000000000002,1.57 -2.766,2.164 c-1.007,0.5940000000000001 -2.093,1.059 -3.26,1.391 c-1.167,0.3340000000000001 -2.38,0.5 -3.637,0.5 s-2.471,-0.16600000000000004 -3.637,-0.5 c-1.167,-0.3320000000000001 -2.254,-0.797 -3.26,-1.391 c-1.007,-0.5940000000000001 -1.921,-1.316 -2.746,-2.164 c-0.8250000000000001,-0.8500000000000001 -1.5310000000000001,-1.7850000000000001 -2.117,-2.803 c-0.5860000000000001,-1.02 -1.041,-2.119 -1.364,-3.305 c-0.32000000000000006,-1.18 -0.48100000000000004,-2.406 -0.48100000000000004,-3.6820000000000004 c0,-1.2730000000000001 0.16100000000000003,-2.498 0.48100000000000004,-3.672 c0.32300000000000006,-1.176 0.777,-2.273 1.364,-3.293 s1.292,-1.947 2.117,-2.791 s1.739,-1.5630000000000002 2.746,-2.166 c1.006,-0.6000000000000001 2.093,-1.066 3.26,-1.393 c1.166,-0.32200000000000006 2.38,-0.48600000000000004 3.637,-0.48600000000000004 C30.982002685546888,203.64802044677737 32.75400268554688,204.00702044677735 34.410002685546885,204.73002044677736 zM24.80800268554688,207.21402044677734 c-1.334,0.5820000000000001 -2.495,1.373 -3.479,2.3770000000000002 c-0.987,1.008 -1.7650000000000001,2.182 -2.338,3.525 c-0.5730000000000001,1.346 -0.8600000000000001,2.789 -0.8600000000000001,4.332 c0,1.557 0.28700000000000003,3.012 0.8600000000000001,4.361 c0.5730000000000001,1.354 1.351,2.531 2.338,3.535 c0.984,1.008 2.145,1.799 3.479,2.3810000000000002 c1.335,0.5800000000000001 2.771,0.8690000000000001 4.308,0.8690000000000001 c1.5230000000000001,0 2.9530000000000003,-0.28900000000000003 4.287,-0.8690000000000001 c1.335,-0.5820000000000001 2.498,-1.373 3.49,-2.3810000000000002 c0.992,-1.004 1.775,-2.182 2.348,-3.535 c0.5740000000000001,-1.35 0.8600000000000001,-2.805 0.8600000000000001,-4.361 c0,-1.5430000000000001 -0.28700000000000003,-2.9859999999999998 -0.8600000000000001,-4.332 c-0.5730000000000001,-1.344 -1.356,-2.518 -2.348,-3.525 c-0.992,-1.004 -2.1550000000000002,-1.795 -3.49,-2.3770000000000002 c-1.334,-0.5800000000000001 -2.7640000000000002,-0.8690000000000001 -4.287,-0.8690000000000001 C27.579002685546868,206.34502044677737 26.14300268554686,206.63402044677736 24.80800268554688,207.21402044677734 z" id="svg_3"/>
	<path fill="#333333" d="M51.04400268554687,217.09902044677733 c-0.978,-0.37500000000000006 -1.851,-0.8500000000000001 -2.621,-1.424 c-0.7680000000000001,-0.5720000000000001 -1.3900000000000001,-1.26 -1.866,-2.059 c-0.47400000000000003,-0.801 -0.7110000000000001,-1.7440000000000002 -0.7110000000000001,-2.834 c0,-1.105 0.23700000000000002,-2.1 0.7110000000000001,-2.984 c0.47600000000000003,-0.8850000000000001 1.101,-1.6350000000000002 1.8770000000000002,-2.25 c0.776,-0.6170000000000001 1.653,-1.09 2.632,-1.424 c0.978,-0.3320000000000001 1.97,-0.5 2.977,-0.5 c0.81,0 1.601,0.08600000000000002 2.369,0.256 c0.7680000000000001,0.17200000000000001 1.488,0.42200000000000004 2.159,0.7540000000000001 c0.6700000000000002,0.3340000000000001 1.279,0.7420000000000001 1.8250000000000002,1.232 c0.543,0.48800000000000004 0.999,1.059 1.362,1.709 c0.15300000000000002,0.254 0.18800000000000003,0.514 0.10400000000000001,0.775 c-0.08300000000000002,0.26 -0.202,0.47100000000000003 -0.35700000000000004,0.6250000000000001 c-0.19400000000000003,0.18400000000000002 -0.44800000000000006,0.29500000000000004 -0.7640000000000001,0.32800000000000007 c-0.31400000000000006,0.037000000000000005 -0.6190000000000001,-0.05900000000000001 -0.912,-0.28500000000000003 c-0.81,-1.006 -1.677,-1.709 -2.599,-2.113 c-0.923,-0.4 -1.972,-0.6050000000000001 -3.145,-0.6050000000000001 c-0.6580000000000001,0 -1.314,0.09600000000000003 -1.971,0.28700000000000003 c-0.6570000000000001,0.19100000000000003 -1.255,0.47100000000000003 -1.792,0.8420000000000001 c-0.538,0.36700000000000005 -0.979,0.8300000000000001 -1.32,1.389 c-0.3440000000000001,0.559 -0.513,1.207 -0.513,1.943 c0,0.779 0.202,1.4260000000000002 0.6070000000000001,1.941 c0.405,0.518 0.919,0.9530000000000001 1.541,1.307 c0.6210000000000001,0.35400000000000004 1.302,0.6390000000000001 2.044,0.8590000000000001 c0.7400000000000001,0.21900000000000003 1.447,0.41400000000000003 2.117,0.5840000000000001 c1.035,0.32600000000000007 2.045,0.6930000000000002 3.029,1.105 c0.986,0.40800000000000003 1.858,0.91 2.621,1.506 c0.7610000000000001,0.5960000000000001 1.373,1.303 1.835,2.125 c0.459,0.8200000000000001 0.6900000000000002,1.803 0.6900000000000002,2.949 c0,1.232 -0.24000000000000002,2.348 -0.7220000000000001,3.3440000000000003 c-0.48300000000000004,0.998 -1.1320000000000001,1.855 -1.949,2.568 c-0.8180000000000001,0.7150000000000001 -1.77,1.27 -2.8520000000000003,1.6560000000000001 c-1.084,0.39100000000000007 -2.219,0.5860000000000001 -3.406,0.5860000000000001 c-0.993,0 -1.9500000000000002,-0.135 -2.873,-0.404 s-1.771,-0.6330000000000001 -2.547,-1.094 c-0.775,-0.459 -1.454,-1.004 -2.033,-1.637 c-0.5800000000000001,-0.6270000000000001 -1.024,-1.303 -1.331,-2.025 c-0.21000000000000002,-0.453 -0.24100000000000002,-0.8300000000000001 -0.09400000000000003,-1.137 c0.14600000000000002,-0.30300000000000005 0.35900000000000004,-0.533 0.6380000000000001,-0.6890000000000002 c0.32300000000000006,-0.18200000000000002 0.6260000000000001,-0.22100000000000003 0.913,-0.11700000000000002 c0.28700000000000003,0.10700000000000001 0.5840000000000001,0.35700000000000004 0.8910000000000001,0.7540000000000001 c0.266,0.5680000000000001 0.6260000000000001,1.078 1.08,1.529 c0.455,0.455 0.9680000000000001,0.8380000000000001 1.541,1.1560000000000001 c0.5730000000000001,0.32000000000000006 1.195,0.5630000000000001 1.866,0.7340000000000001 c0.6710000000000002,0.16800000000000004 1.362,0.254 2.076,0.254 c0.7400000000000001,0 1.478,-0.11100000000000002 2.212,-0.3400000000000001 c0.7310000000000001,-0.22700000000000004 1.3940000000000001,-0.5660000000000001 1.98,-1.02 c0.5880000000000001,-0.453 1.063,-1.016 1.4260000000000002,-1.6880000000000002 c0.36300000000000004,-0.6720000000000002 0.545,-1.445 0.545,-2.326 c0,-0.805 -0.18200000000000002,-1.482 -0.545,-2.025 c-0.36300000000000004,-0.545 -0.8460000000000001,-1.014 -1.445,-1.4020000000000001 c-0.6020000000000001,-0.39100000000000007 -1.279,-0.7230000000000001 -2.035,-0.998 c-0.7540000000000001,-0.275 -1.517,-0.541 -2.286,-0.795 C53.015002685546875,217.78302044677736 52.023002685546885,217.47402044677733 51.04400268554687,217.09902044677733 z" id="svg_4"/>
</g><g id="svg_5" class="">
	<path fill="#333333" d="M77.15900268554685,205.66202044677732 v25.098 c0,0.19700000000000004 -0.06500000000000002,0.36300000000000004 -0.2,0.5 c-0.133,0.133 -0.29600000000000004,0.201 -0.49300000000000005,0.201 c-0.19600000000000004,0 -0.35200000000000004,-0.06800000000000002 -0.47100000000000003,-0.201 c-0.11900000000000002,-0.137 -0.17900000000000002,-0.30300000000000005 -0.17900000000000002,-0.5 v-25.098 h-7.295 c-0.19600000000000004,0 -0.35600000000000004,-0.06600000000000002 -0.48200000000000004,-0.201 c-0.125,-0.135 -0.18800000000000003,-0.30100000000000005 -0.18800000000000003,-0.5 c0,-0.18400000000000002 0.06300000000000001,-0.3420000000000001 0.18800000000000003,-0.47700000000000004 c0.126,-0.133 0.28600000000000003,-0.201 0.48200000000000004,-0.201 h16.247 c0.19600000000000004,0 0.35800000000000004,0.06800000000000002 0.48200000000000004,0.201 c0.127,0.135 0.18800000000000003,0.30100000000000005 0.18800000000000003,0.49800000000000005 c0,0.19900000000000004 -0.06200000000000001,0.36100000000000004 -0.18800000000000003,0.48800000000000004 c-0.12400000000000001,0.127 -0.28600000000000003,0.19100000000000003 -0.48200000000000004,0.19100000000000003 H77.15900268554685 z" id="svg_6"/>
	<path fill="#333333" d="M98.37500268554686,204.09102044677735 c1.2570000000000001,0 2.468,0.16400000000000003 3.6270000000000002,0.48800000000000004 s2.247,0.791 3.261,1.391 c1.012,0.6040000000000001 1.936,1.32 2.7670000000000003,2.156 c0.8300000000000001,0.8320000000000001 1.5430000000000001,1.7640000000000002 2.1390000000000002,2.791 c0.5930000000000001,1.025 1.054,2.127 1.3820000000000001,3.303 c0.32800000000000007,1.174 0.49500000000000005,2.398 0.49500000000000005,3.672 s-0.16700000000000004,2.502 -0.49500000000000005,3.684 s-0.789,2.283 -1.3820000000000001,3.303 c-0.5960000000000001,1.02 -1.3090000000000002,1.951 -2.1390000000000002,2.803 c-0.8310000000000001,0.8480000000000001 -1.7550000000000001,1.57 -2.7670000000000003,2.164 c-1.014,0.5960000000000001 -2.102,1.057 -3.261,1.391 s-2.37,0.5 -3.6270000000000002,0.5 c-1.9,0 -3.677,-0.36300000000000004 -5.333,-1.084 c-1.6580000000000001,-0.7210000000000001 -3.102,-1.709 -4.331,-2.9610000000000003 c-1.23,-1.252 -2.198,-2.723 -2.903,-4.404 c-0.7070000000000001,-1.6860000000000002 -1.059,-3.482 -1.059,-5.3950000000000005 c0,-1.9100000000000001 0.35200000000000004,-3.705 1.059,-5.383 c0.7060000000000001,-1.6780000000000002 1.673,-3.1390000000000002 2.903,-4.383 c1.229,-1.248 2.673,-2.23 4.331,-2.9530000000000003 C94.6980026855469,204.45102044677736 96.47500268554688,204.09102044677735 98.37500268554686,204.09102044677735 zM98.37500268554686,205.47002044677737 c-1.705,0 -3.3,0.32600000000000007 -4.79,0.979 c-1.489,0.6500000000000001 -2.7880000000000003,1.5350000000000001 -3.899,2.652 c-1.112,1.121 -1.9849999999999999,2.436 -2.622,3.949 c-0.6370000000000001,1.516 -0.9540000000000001,3.1310000000000002 -0.9540000000000001,4.8420000000000005 c0,1.729 0.31700000000000006,3.348 0.9540000000000001,4.861 s1.51,2.8360000000000003 2.622,3.959 c1.111,1.127 2.41,2.014 3.899,2.6660000000000004 c1.49,0.6520000000000001 3.085,0.975 4.79,0.975 c1.6910000000000003,0 3.283,-0.32200000000000006 4.78,-0.975 c1.495,-0.6520000000000001 2.799,-1.5390000000000001 3.911,-2.6660000000000004 c1.109,-1.123 1.984,-2.4450000000000003 2.629,-3.959 s0.9650000000000001,-3.133 0.9650000000000001,-4.861 c0,-1.711 -0.32000000000000006,-3.326 -0.9650000000000001,-4.8420000000000005 c-0.6450000000000001,-1.514 -1.52,-2.8280000000000003 -2.629,-3.949 c-1.112,-1.117 -2.416,-2.002 -3.911,-2.652 C101.65800268554688,205.79602044677733 100.06700268554687,205.47002044677737 98.37500268554686,205.47002044677737 z" id="svg_7"/>
	<path fill="#333333" d="M117.03300268554688,218.61302044677734 l15.451,-14.117 c0.15200000000000002,-0.14300000000000002 0.31500000000000006,-0.20500000000000002 0.49000000000000005,-0.19100000000000003 c0.17600000000000002,0.016000000000000004 0.3320000000000001,0.09000000000000002 0.47200000000000003,0.232 c0.126,0.14300000000000002 0.18500000000000003,0.30500000000000005 0.17900000000000002,0.48800000000000004 c-0.010000000000000002,0.18600000000000003 -0.08800000000000002,0.35500000000000004 -0.24100000000000002,0.51 l-10.588000000000001,9.66 l10.001,15.182 c0.126,0.16800000000000004 0.17200000000000001,0.3480000000000001 0.136,0.531 c-0.035,0.18600000000000003 -0.13,0.3340000000000001 -0.28200000000000003,0.44500000000000006 c-0.15300000000000002,0.09800000000000003 -0.32200000000000006,0.137 -0.504,0.10700000000000001 s-0.32800000000000007,-0.129 -0.44100000000000006,-0.29900000000000004 l-9.937,-15.033 l-4.735,4.355 v10.297 c0,0.19900000000000004 -0.06800000000000002,0.36100000000000004 -0.201,0.48800000000000004 c-0.132,0.127 -0.29600000000000004,0.19100000000000003 -0.49200000000000005,0.19100000000000003 c-0.18100000000000002,0 -0.3410000000000001,-0.06400000000000002 -0.47300000000000003,-0.19100000000000003 c-0.133,-0.127 -0.19600000000000004,-0.28900000000000003 -0.19600000000000004,-0.48800000000000004 v-25.82 c0,-0.19500000000000003 0.06300000000000001,-0.35900000000000004 0.19600000000000004,-0.48600000000000004 c0.132,-0.129 0.29200000000000004,-0.19100000000000003 0.47300000000000003,-0.19100000000000003 c0.19600000000000004,0 0.36000000000000004,0.06300000000000001 0.49200000000000005,0.19100000000000003 c0.133,0.127 0.201,0.29100000000000004 0.201,0.48600000000000004 V218.61302044677734 z" id="svg_8"/>
	<path fill="#333333" d="M137.8690026855469,231.46002044677732 c-0.19500000000000003,-0.016000000000000004 -0.3480000000000001,-0.09800000000000003 -0.461,-0.24600000000000002 c-0.11100000000000002,-0.14600000000000002 -0.16600000000000004,-0.32200000000000006 -0.16600000000000004,-0.52 v-25.734 c0,-0.21100000000000002 0.07100000000000001,-0.37700000000000006 0.21800000000000003,-0.49600000000000005 c0.14600000000000002,-0.12100000000000001 0.31800000000000006,-0.18200000000000002 0.516,-0.18200000000000002 h12.620000000000001 c0.19600000000000004,0 0.35600000000000004,0.06300000000000001 0.48000000000000004,0.19100000000000003 c0.127,0.127 0.19100000000000003,0.29100000000000004 0.19100000000000003,0.48600000000000004 c0,0.19900000000000004 -0.06400000000000002,0.36500000000000005 -0.19100000000000003,0.5 c-0.12400000000000001,0.135 -0.28400000000000003,0.201 -0.48000000000000004,0.201 h-11.99 v11.529 h8.973 c0.19500000000000003,0 0.35700000000000004,0.06400000000000002 0.48800000000000004,0.19100000000000003 c0.133,0.127 0.201,0.28900000000000003 0.201,0.48800000000000004 c0,0.19700000000000004 -0.06800000000000002,0.35700000000000004 -0.201,0.47700000000000004 c-0.131,0.12100000000000001 -0.29300000000000004,0.18200000000000002 -0.48800000000000004,0.18200000000000002 h-8.973 v11.551 h11.99 c0.19600000000000004,0 0.35600000000000004,0.06400000000000002 0.48000000000000004,0.19100000000000003 c0.127,0.127 0.19100000000000003,0.28300000000000003 0.19100000000000003,0.465 c0,0.21500000000000002 -0.06400000000000002,0.38700000000000007 -0.19100000000000003,0.523 c-0.12400000000000001,0.133 -0.28400000000000003,0.201 -0.48000000000000004,0.201 H137.8690026855469 z" id="svg_9"/>
	<path fill="#333333" d="M156.69700268554686,207.04202044677737 v23.738 c0,0.19900000000000004 -0.06900000000000002,0.36100000000000004 -0.201,0.48800000000000004 c-0.133,0.127 -0.29600000000000004,0.19100000000000003 -0.49300000000000005,0.19100000000000003 c-0.18100000000000002,0 -0.3410000000000001,-0.06400000000000002 -0.47200000000000003,-0.19100000000000003 c-0.133,-0.127 -0.19700000000000004,-0.28900000000000003 -0.19700000000000004,-0.48800000000000004 v-25.799 c0,-0.19700000000000004 0.06400000000000002,-0.35900000000000004 0.19700000000000004,-0.48600000000000004 c0.131,-0.127 0.29100000000000004,-0.19100000000000003 0.47200000000000003,-0.19100000000000003 c0.05700000000000001,0 0.126,0.016000000000000004 0.20800000000000002,0.04100000000000001 c0.030000000000000006,0 0.05000000000000001,0.008000000000000002 0.06400000000000002,0.023000000000000007 l0.10500000000000001,0.06300000000000001 c0.08600000000000002,0.05700000000000001 0.14700000000000002,0.10500000000000001 0.18800000000000003,0.14800000000000002 l16.455,24.078 v-23.676000000000002 c0,-0.19700000000000004 0.06800000000000002,-0.36300000000000004 0.201,-0.49800000000000005 c0.133,-0.133 0.29600000000000004,-0.201 0.49200000000000005,-0.201 s0.35500000000000004,0.06800000000000002 0.48200000000000004,0.201 c0.126,0.135 0.18800000000000003,0.30100000000000005 0.18800000000000003,0.49800000000000005 v25.799 c0,0.19900000000000004 -0.06500000000000002,0.36100000000000004 -0.19800000000000004,0.48800000000000004 c-0.134,0.127 -0.29100000000000004,0.19100000000000003 -0.47300000000000003,0.19100000000000003 h-0.06100000000000001 c-0.14300000000000002,0 -0.275,-0.04900000000000001 -0.3990000000000001,-0.15000000000000002 c-0.05800000000000001,-0.05700000000000001 -0.09100000000000003,-0.09800000000000003 -0.10600000000000001,-0.129 L156.69700268554686,207.04202044677737 z" id="svg_10"/>
	<path fill="#333333" d="M186.2750026855469,217.36102044677733 c-0.783,-0.22500000000000003 -1.6110000000000002,-0.51 -2.484,-0.8500000000000001 c-0.8710000000000001,-0.3380000000000001 -1.6800000000000002,-0.7680000000000001 -2.42,-1.2850000000000001 c-0.7430000000000001,-0.516 -1.357,-1.146 -1.848,-1.8890000000000002 c-0.48700000000000004,-0.7420000000000001 -0.7330000000000001,-1.6390000000000002 -0.7330000000000001,-2.686 c0,-1.063 0.233,-2.004 0.7040000000000001,-2.824 c0.468,-0.8200000000000001 1.075,-1.51 1.822,-2.07 c0.7500000000000001,-0.559 1.578,-0.982 2.484,-1.2730000000000001 c0.909,-0.28900000000000003 1.8050000000000002,-0.43400000000000005 2.686,-0.43400000000000005 c0.809,0 1.584,0.08200000000000002 2.325,0.254 c0.7430000000000001,0.17 1.429,0.42200000000000004 2.065,0.7520000000000001 c0.6370000000000001,0.3340000000000001 1.211,0.7440000000000001 1.73,1.232 c0.514,0.48800000000000004 0.9550000000000001,1.051 1.318,1.6880000000000002 c0.08500000000000002,0.14300000000000002 0.10700000000000001,0.28500000000000003 0.06300000000000001,0.42400000000000004 c-0.03900000000000001,0.14300000000000002 -0.11100000000000002,0.24800000000000003 -0.20800000000000002,0.32000000000000006 c-0.11100000000000002,0.1 -0.24700000000000003,0.15000000000000002 -0.40900000000000003,0.15800000000000003 c-0.16000000000000003,0.008000000000000002 -0.31800000000000006,-0.05900000000000001 -0.47100000000000003,-0.201 c-0.42000000000000004,-0.6070000000000001 -0.8740000000000001,-1.121 -1.361,-1.5390000000000001 c-0.49000000000000005,-0.41800000000000004 -1.013,-0.7540000000000001 -1.5630000000000002,-1.008 c-0.555,-0.256 -1.123,-0.43800000000000006 -1.711,-0.543 c-0.5850000000000001,-0.10500000000000001 -1.182,-0.15800000000000003 -1.779,-0.15800000000000003 c-0.6590000000000001,0 -1.357,0.10400000000000001 -2.098,0.30900000000000005 c-0.7400000000000001,0.203 -1.4260000000000002,0.521 -2.056,0.9550000000000001 c-0.6300000000000001,0.43200000000000005 -1.149,0.973 -1.56,1.625 c-0.41200000000000003,0.6480000000000001 -0.6170000000000001,1.42 -0.6170000000000001,2.313 c-0.016000000000000004,0.5960000000000001 0.08800000000000002,1.125 0.31300000000000006,1.592 c0.22400000000000003,0.46900000000000003 0.516,0.8830000000000001 0.8700000000000001,1.244 c0.35400000000000004,0.35900000000000004 0.7640000000000001,0.6760000000000002 1.228,0.9450000000000001 c0.461,0.266 0.932,0.502 1.413,0.7010000000000001 c0.48300000000000004,0.19500000000000003 0.9540000000000001,0.36900000000000005 1.415,0.52 c0.461,0.14600000000000002 0.8740000000000001,0.279 1.237,0.39100000000000007 c1.075,0.38300000000000006 2.118,0.789 3.134,1.221 c1.014,0.43400000000000005 1.916,0.9430000000000001 2.705,1.529 c0.789,0.5880000000000001 1.42,1.2850000000000001 1.8960000000000001,2.092 c0.47500000000000003,0.805 0.7150000000000001,1.77 0.7150000000000001,2.887 c0,1.246 -0.24300000000000002,2.363 -0.7250000000000001,3.357 c-0.48000000000000004,0.99 -1.123,1.828 -1.916,2.5140000000000002 c-0.799,0.6880000000000002 -1.711,1.211 -2.74,1.572 c-1.023,0.35900000000000004 -2.082,0.541 -3.176,0.541 c-0.9490000000000001,0 -1.871,-0.133 -2.7670000000000003,-0.39300000000000007 c-0.8940000000000001,-0.26 -1.7160000000000002,-0.6190000000000001 -2.472,-1.072 c-0.7540000000000001,-0.453 -1.416,-0.992 -1.9809999999999999,-1.613 c-0.5670000000000001,-0.6230000000000001 -0.997,-1.295 -1.292,-2.018 c-0.11000000000000001,-0.24000000000000002 -0.127,-0.43800000000000006 -0.04900000000000001,-0.5960000000000001 c0.07400000000000001,-0.15400000000000003 0.19100000000000003,-0.268 0.3440000000000001,-0.3380000000000001 c0.3380000000000001,-0.15600000000000003 0.6410000000000001,-0.037000000000000005 0.923,0.35900000000000004 c0.266,0.6370000000000001 0.6490000000000001,1.221 1.153,1.754 c0.503,0.529 1.084,0.98 1.7400000000000002,1.357 s1.367,0.6660000000000001 2.137,0.8710000000000001 s1.553,0.30500000000000005 2.348,0.30500000000000005 c0.8520000000000001,0 1.702,-0.137 2.549,-0.41200000000000003 c0.8480000000000001,-0.275 1.6070000000000002,-0.6890000000000002 2.286,-1.244 c0.6790000000000002,-0.549 1.228,-1.238 1.6440000000000001,-2.066 c0.42200000000000004,-0.8280000000000001 0.6300000000000001,-1.7890000000000001 0.6300000000000001,-2.879 c0,-0.92 -0.21400000000000002,-1.709 -0.6400000000000001,-2.367 c-0.42600000000000005,-0.6560000000000001 -0.99,-1.229 -1.6860000000000002,-1.709 c-0.7010000000000001,-0.48000000000000004 -1.496,-0.902 -2.383,-1.264 C188.12200268554687,218.05202044677736 187.21200268554685,217.70102044677736 186.2750026855469,217.36102044677733 z" id="svg_11"/>
</g><path fill="#333333" d="M91.6380026855469,183.60702044677737 c-0.29900000000000004,0 -0.6010000000000001,-0.08400000000000002 -0.8660000000000001,-0.24600000000000002 l-59.377,-37.209 c-0.023000000000000007,-0.016000000000000004 -0.04800000000000001,-0.029000000000000005 -0.07100000000000001,-0.04700000000000001 l0,0 c-0.003000000000000001,0 -0.003000000000000001,0 -0.003000000000000001,0 c-0.0010000000000000002,0 -0.0010000000000000002,-0.0020000000000000005 -0.0010000000000000002,-0.0020000000000000005 c-0.0010000000000000002,0 -0.0010000000000000002,0 -0.0010000000000000002,0 c-0.21200000000000002,-0.15000000000000002 -0.38300000000000006,-0.3440000000000001 -0.501,-0.5660000000000001 c-0.06500000000000002,-0.11900000000000002 -0.11400000000000002,-0.25 -0.14600000000000002,-0.38300000000000006 l0,0 l0,0 c-0.05000000000000001,-0.20500000000000002 -0.06100000000000001,-0.42400000000000004 -0.026000000000000006,-0.6390000000000001 l0,0 c0,0 0,0 0.0010000000000000002,-0.0020000000000000005 c0.005000000000000001,-0.035 0.011000000000000003,-0.06800000000000002 0.019000000000000003,-0.10400000000000001 l19.354,-88.424 c0.04800000000000001,-0.23900000000000002 0.14900000000000002,-0.466 0.29500000000000004,-0.6610000000000001 l40.008,-54.657000000000004 c0.31800000000000006,-0.43700000000000006 0.8170000000000001,-0.6540000000000001 1.346,-0.6670000000000001 c0.507,0.011000000000000003 1.029,0.231 1.348,0.6670000000000001 l40.004,54.657000000000004 c0.05200000000000001,0.06800000000000002 0.09500000000000003,0.139 0.136,0.21400000000000002 c0.0010000000000000002,0.003000000000000001 0.0010000000000000002,0.003000000000000001 0.004000000000000001,0.005000000000000001 c0,0 0,0 0,0.005000000000000001 c0,0 -0.003000000000000001,0 0.006000000000000002,0.003000000000000001 c0,0.0010000000000000002 0,0.0010000000000000002 0,0.0010000000000000002 c0,0.003000000000000001 0,0.005000000000000001 0.0010000000000000002,0.005000000000000001 c0,0.0010000000000000002 0,0.0010000000000000002 0,0.005000000000000001 c0,0.0010000000000000002 0.003000000000000001,0.0020000000000000005 0.003000000000000001,0.003000000000000001 l0,0 c0.06500000000000002,0.133 0.11700000000000002,0.273 0.14600000000000002,0.41900000000000004 l19.354,88.422 c0.010000000000000002,0.03900000000000001 0.016000000000000004,0.08000000000000002 0.022000000000000006,0.12300000000000001 c0.03200000000000001,0.22300000000000003 0.020000000000000004,0.44500000000000006 -0.036000000000000004,0.6560000000000001 c-0.028000000000000004,0.10200000000000001 -0.06400000000000002,0.201 -0.11300000000000002,0.29700000000000004 v0.0020000000000000005 l0,0 c-0.11500000000000002,0.234 -0.28600000000000003,0.44100000000000006 -0.503,0.6000000000000001 c-0.0020000000000000005,0 -0.0020000000000000005,0.0020000000000000005 -0.0020000000000000005,0.0020000000000000005 h-0.0020000000000000005 c-0.03200000000000001,0.023000000000000007 -0.06400000000000002,0.04700000000000001 -0.09800000000000003,0.06600000000000002 l-59.374,37.207 c-0.274,0.17200000000000001 -0.541,0.23600000000000002 -0.8960000000000001,0.24600000000000002 C91.65900268554685,183.60702044677737 91.64800268554689,183.60702044677737 91.6380026855469,183.60702044677737 zM37.93600268554687,146.40002044677735 l50.798,31.832 l-10.136,-31.832 H37.93600268554687 zM104.7410026855469,146.40002044677735 l-10.137,31.832 l50.795,-31.832 H104.7410026855469 zM82.02400268554686,146.40002044677735 l9.646,30.297 l9.646,-30.297 H82.02400268554686 zM105.78000268554689,143.13602044677734 h42.498 l-27.208,-48.018 L105.78000268554689,143.13602044677734 zM80.98500268554687,143.13602044677734 h21.37 l16.521,-51.888 L91.6690026855469,43.23502044677734 l-27.209,48.015 L80.98500268554687,143.13602044677734 zM35.05800268554688,143.13602044677734 h42.499 l-15.29,-48.017 L35.05800268554688,143.13602044677734 zM51.91100268554686,62.60102044677734 l-15.75,71.971 l24.756,-43.69 L51.91100268554686,62.60102044677734 zM122.41800268554687,90.88002044677734 l24.758,43.69 l-15.753,-71.969 L122.41800268554687,90.88002044677734 zM53.42700268554688,56.59902044677733 l9.685,30.413 l26.895,-47.465 V6.624020446777337 L53.42700268554688,56.59902044677733 zM93.33100268554688,39.54702044677734 l26.895,47.462 l9.684000000000001,-30.41 L93.33100268554688,6.6250204467773415 V39.54702044677734 z" id="svg_12" class=""/><g id="svg_13" class="">
	<polygon fill="#EE1443" points="18.89300537109375,148.11702728271484 15.195999145507812,148.11702728271484 15.195999145507812,162.93502044677734 13.7969970703125,162.93502044677734 13.7969970703125,148.11702728271484 10.0989990234375,148.11702728271484 10.0989990234375,102.11702728271484 13.7969970703125,102.11702728271484 13.7969970703125,97.15302276611328 15.195999145507812,97.15302276611328 15.195999145507812,102.11702728271484 18.89300537109375,102.11702728271484 " id="svg_14"/>
</g><g id="svg_15" class="">
	<polygon fill="#67C269" points="175.093017578125,47.80902099609375 171.16500854492188,47.80902099609375 171.16500854492188,30.813018798828125 169.67999267578125,30.813018798828125 169.67999267578125,47.80902099609375 165.7550048828125,47.80902099609375 165.7550048828125,153.90001678466797 169.67999267578125,153.90001678466797 169.67999267578125,168.28101348876953 171.16500854492188,168.28101348876953 171.16500854492188,153.90001678466797 175.093017578125,153.90001678466797 " id="svg_16"/>
</g><g id="svg_17" class="">
	<path fill="#333333" d="M92.94400268554688,89.33602044677735 v38.427 c0,0.30500000000000005 -0.10400000000000001,0.559 -0.31000000000000005,0.7660000000000001 c-0.20500000000000002,0.20500000000000002 -0.459,0.30900000000000005 -0.7630000000000001,0.30900000000000005 c-0.30400000000000005,0 -0.547,-0.10400000000000001 -0.7310000000000001,-0.30900000000000005 c-0.18500000000000003,-0.20700000000000002 -0.276,-0.461 -0.276,-0.7660000000000001 v-38.427 h-11.313 c-0.30400000000000005,0 -0.553,-0.10300000000000001 -0.7480000000000001,-0.30900000000000005 c-0.19400000000000003,-0.20600000000000002 -0.29200000000000004,-0.461 -0.29200000000000004,-0.7650000000000001 c0,-0.281 0.09800000000000003,-0.524 0.29200000000000004,-0.7310000000000001 c0.19500000000000003,-0.20600000000000002 0.44400000000000006,-0.30900000000000005 0.7480000000000001,-0.30900000000000005 h25.196 c0.30400000000000005,0 0.551,0.10300000000000001 0.7470000000000001,0.30900000000000005 c0.19500000000000003,0.20700000000000002 0.29100000000000004,0.46 0.29100000000000004,0.7650000000000001 c0,0.30400000000000005 -0.09600000000000003,0.552 -0.29100000000000004,0.7470000000000001 c-0.19600000000000004,0.19500000000000003 -0.44300000000000006,0.29200000000000004 -0.7470000000000001,0.29200000000000004 H92.94400268554688 z" id="svg_18"/>
</g></g></svg>