<svg id="图层_1" xmlns="http://www.w3.org/2000/svg" viewBox="0 0 50 50"><style>.st2{fill:#ddd}.st3{fill:#727272}.st4{fill:#a0a0a0}.st5,.st6{fill-rule:evenodd;clip-rule:evenodd;fill:#ddd}.st6{fill:#000408}</style><circle cx="24.7" cy="25.2" r="24.2" fill="#e8e8e8"/><linearGradient id="SVGID_1_" gradientUnits="userSpaceOnUse" x1="2.372" y1="25.218" x2="46.963" y2="25.218"><stop offset=".006" stop-color="#0a0a0a"/><stop offset=".202" stop-color="#757575"/><stop offset=".21" stop-color="#717171"/><stop offset=".313" stop-color="#454545"/><stop offset=".405" stop-color="#252525"/><stop offset=".482" stop-color="#111"/><stop offset=".534" stop-color="#0a0a0a"/><stop offset=".573" stop-color="#1c1c1c"/><stop offset=".69" stop-color="#4c4c4c"/><stop offset=".779" stop-color="#6a6a6a"/><stop offset=".83" stop-color="#757575"/><stop offset="1" stop-color="#414146"/></linearGradient><circle cx="24.7" cy="25.2" r="22.3" fill="url(#SVGID_1_)"/><circle class="st2" cx="24.7" cy="25.2" r="18"/><path class="st3" d="M12 6.9l-1.1-1.6c-.2.1-.3.2-.5.4l1.1 1.6c.1-.2.3-.3.5-.4zM10.6 7.9L9.4 6.4c-.2.1-.3.3-.5.4l1.2 1.5c.2-.1.4-.3.5-.4zM46.9 23.6l1.9-.2c0-.2 0-.4-.1-.6l-1.9.2c.1.1.1.4.1.6zM33.8 4.9l.8-1.8c-.2-.1-.4-.2-.6-.2l-.8 1.8c.2 0 .4.1.6.2zM2.4 25.2H.5v.6h1.9v-.6zM35.3 5.6l.9-1.7-.6-.3-.9 1.7c.3.1.4.2.6.3zM38.7 42.5l1.2 1.5c.2-.1.3-.3.5-.4l-1.2-1.5c-.2.2-.3.3-.5.4zM48.9 24.6H47v.6h1.9v-.6zM2.4 26.9L.5 27c0 .2 0 .4.1.6l1.9-.2c0-.1-.1-.3-.1-.5zM37.3 43.6l1.1 1.6c.2-.1.3-.2.5-.4l-1.1-1.6c-.1.1-.3.2-.5.4zM15.5 45.6l-.8 1.8c.2.1.4.2.6.2l.8-1.8c-.2-.1-.4-.2-.6-.2zM14 44.8l-.9 1.7.6.3.9-1.7-.6-.3z"/><g><path class="st4" d="M11.8 7l-1.1-1.6c-.2.1-.3.2-.5.4l1.1 1.6c.2-.2.4-.3.5-.4zM10.5 8L9.3 6.5c-.2.2-.4.3-.5.4L10 8.4c.2-.1.3-.3.5-.4zM46.9 23.4l1.9-.2c0-.2 0-.4-.1-.6l-1.9.2c.1.2.1.4.1.6zM33.7 4.8l.7-1.8c-.2 0-.4-.1-.6-.2L33 4.6c.3 0 .5.1.7.2zM2.4 25.4H.5v.6h1.9v-.6zM35.2 5.6l.9-1.7-.6-.3-.9 1.7.6.3zM38.8 42.4l1.2 1.5c.2-.1.3-.3.5-.4L39.3 42c-.1.2-.3.3-.5.4zM48.9 24.4H47v.6h1.9v-.6zM2.4 27l-1.9.2c0 .2 0 .4.1.6l1.9-.2c0-.1 0-.3-.1-.6zM37.5 43.5l1.1 1.6c.2-.1.3-.2.5-.4L38 43.1c-.2.1-.3.2-.5.4zM15.7 45.6l-.8 1.8c.2.1.4.2.6.2l.8-1.8c-.2 0-.4-.1-.6-.2zM14.2 44.9l-.9 1.7.6.3.9-1.7c-.3-.1-.5-.2-.6-.3z"/></g><path class="st5" d="M24.7 44.3l.4.9.9.1-.6.7.1.9-.8-.4-.9.4.2-.9-.7-.7 1-.1zM35 40.8l.4.9 1 .1-.7.7.1.9-.8-.4-.8.4.1-.9-.7-.7 1-.1zM13.3 40.7l.4.9.9.1-.6.7.1.9-.8-.4-.9.4.2-.9-.7-.7 1-.1zM41.3 34.8l.4.8.9.2-.6.6.1 1-.8-.5-.9.5.2-1-.7-.6 1-.2zM7.6 34.8l.4.8.9.2-.7.6.2 1-.8-.5-.9.5.2-1-.7-.6.9-.2z"/><g><path class="st6" d="M14.3 22.5c-.3.1-.3.3-.5.5 0 0-.1 0-.1.1V23c0-.1 0-.2.1-.3 0-.2.1-.3.2-.5s.1-.3.2-.5l.3-.6c0-.1.1-.2.2-.3 0-.1 0-.2-.1-.2-.2-.2-.4-.3-.5-.5-.2-.2-.4-.5-.6-.7-.1-.2-.3-.4-.4-.6-.3-.6-.4-1.3-.4-2 0-.2.1-.5.1-.7 0-.2.1-.4.2-.6 0-.1.1-.3.2-.4.1-.1.1-.3.2-.4.1-.1.1-.2.2-.3.2-.2.3-.5.5-.7.1-.1.2-.3.3-.4.3-.2.5-.2.7 0 .3.2.6.4.9.7.2.1.4.3.5.4.5.4.9.8 1.4 1.3l.6.6c.1.1.1.1.2 0 .1 0 .1 0 .2-.1.2-.1.4-.1.6-.2.1 0 .2-.1.3-.1.1 0 .1 0 .2-.1.2-.1.3-.1.5-.2 0 0 .1 0 .1-.1h.1c.2 0 .4-.1.6-.2h.2c.3-.1.6-.2.9-.2H27.6c.3 0 .7.1 1 .1.2 0 .4.1.6.2.2 0 .4.1.5.1.2.1.4.1.5.2.2.1.4.1.6.2.1 0 .2.1.2.1.1 0 .3.1.4.1h.2c.1 0 .1-.1.2-.2.2-.2.4-.3.5-.5l.4-.4.5-.5c.2-.2.4-.3.6-.5.1-.1.3-.2.4-.3.2-.1.4-.3.6-.4.2-.1.3-.2.5-.3.1 0 .3 0 .4.1l.6.6c.1.2.2.3.3.5.1.2.2.4.3.5.1.1.1.2.2.4 0 0 0 .1.1.1 0 .1.1.2.1.3.1.4.2.8.2 1.3 0 .3 0 .6-.1.9 0 .2-.1.3-.2.5s-.1.3-.2.4c-.1.2-.3.5-.4.7-.1.2-.3.4-.4.5l-.5.5-.2.2v.1c.1.2.3.4.4.6v.1c.1.1.1.3.2.4.1.2.1.4.2.5.1.2.1.3.1.5v.2h-.1l-.3-.3-.2-.2h-.1v.1c0 .1.1.1.1.2.1.1.1.3.2.4.1.1.1.3.2.4.1.2.2.4.2.6 0 .1 0 .2.1.3.1.3.2.5.2.8v1.2s0 .1-.1.1c0 0-.1 0-.1-.1-.1-.1-.1-.3-.2-.4 0 0-.1 0-.1-.1v.4c.1.5.1 1 .1 1.5v1.3h-.1c0-.1-.1-.1-.1-.2s0-.2-.1-.2l-.1-.1V30c0 .2-.1.5-.2.7 0 .1 0 .2-.1.2l-.1.1-.1-.1v-.4s0-.1-.1-.1l-.1.1c0 .1 0 .2-.1.4s-.1.4-.2.6c-.1.2-.1.3-.2.5s-.2.3-.3.5h-.1v-.1-.2-.1.1c-.1.2-.1.4-.2.5-.1.2-.2.5-.3.7-.1.1-.2.3-.3.4l-.1.1c-.1 0-.1 0-.1-.1v-.3-.2-.1s-.1 0-.1.1-.1.2-.1.3c-.2.4-.4.7-.7 1l-.5.5s-.1 0-.1.1v-.1-.3-.1s-.1 0-.1.1c.3.2.3.4.2.5-.1.2-.2.4-.3.5-.2.2-.3.4-.5.5 0 0-.1 0-.1.1h-.1v-.1c.1-.2.1-.5.2-.7 0-.2.1-.4.1-.6v-.1c0-.1-.1-.1-.1 0l-.6.6c-.2.2-.4.4-.6.7-.2.2-.3.4-.4.6-.1.1-.1.2-.2.3 0 .2-.2.4-.2.6 0 .1.1.3.2.4.1.1.1.1 0 .2-.2.1-.3.1-.5 0-.1 0-.2-.1-.3-.1v-.1s0-.1.1-.1c0 0 .1 0 .1.1l.1.1H29.1v-.1c-.1-.1-.2-.3-.1-.5s.2-.3.3-.5c.1-.1.1-.2.2-.3.1-.1.1-.2.2-.3v-.1h-.1c-.2.1-.3.2-.5.4l-.6.3c-.1.1-.3.1-.4.2H28c-.1.1-.2.1-.3.1-.3.2-.5.1-.8.1-.3 0-.6 0-.9-.1-.5-.2-1-.3-1.5-.2-.2 0-.3.1-.4.2-.1 0-.3.1-.4.1-.3.1-.6 0-.9 0-.1 0-.1 0-.2-.1h-.1c-.1 0-.2 0-.3-.1-.3-.1-.6-.3-.9-.4-.2-.1-.4-.3-.5-.4h-.1v.1c0 .1.1.2.1.2.2.2.3.5.5.7.1.2.1.3 0 .5 0 0-.1 0-.1.1v.1s.1.1.1 0c.1 0 .3 0 .4-.1h.1v.8h.1l.1-.1h.1s0 .1.1.1c0 .1.1.3.2.4v.1l.1.1s.1 0 .1-.1 0-.2.1-.3c0-.1 0-.1.1-.2 0 .1.1.1.1.2s.1.1.1.2c.1.1.2.2.2.3h.1v-.1-.2-.1c.1.2.2.3.3.5l.2.2.2.2.1.1c.1 0 .1-.1.1-.1v-.4-.1-.1h.1c.1.2.3.4.4.6 0 0 0 .1.1.1.1.1.1.2.2.2l.1.1c.1 0 .1 0 .1-.1V40v-.1.6h.1c.1-.1.2-.3.4-.4.1-.1.1-.2.2-.2 0 0 0-.1.1-.2 0 0 .1 0 .1-.1v.6h.1l.3-.3c.1-.1.1-.2.2-.3 0 0 0-.1.1-.1 0-.1.1-.1.1-.1h.1V39.7h.1l.2-.2c.1-.1.1-.2.1-.3 0-.1.1-.1.1-.2s.1 0 .1 0v.4c0 .1 0 .1.1 0 .1 0 .1-.1.1-.1 0-.1 0-.1.1-.1.1-.1.1-.1.1-.2v-.1s.1 0 .1.1l.1.1h.2V39c-.1-.1-.1-.3 0-.4 0 .1 0 .1.1.2 0 .1 0 .2.1.3 0 .1.1.1.1.2 0 0 0 .1-.1.1h-.2c-.1 0-.2-.1-.2-.2h-.1c-.1.2-.3.4-.4.6 0 0 0 .1-.1.1 0 .1-.1.1-.1.1l-.1-.1v-.2s0-.1-.1-.1h-.1c0 .2-.2.3-.3.5l-.2.2h-.1v-.1c0-.1.1-.3.1-.4-.1 0-.2.1-.2.1 0 .1-.1.2-.2.2-.2.2-.5.4-.7.6h-.1v-.1s0-.1.1-.1c.1-.1 0-.2 0-.2-.1.1-.2.3-.3.4l-.3.3h-.1l-.3-.3c-.1-.1-.2-.3-.3-.5v.2c.1.1.1.2.1.3v.1h-.1c-.2-.1-.4-.2-.5-.4l-.4-.4c0-.1-.1-.1-.1-.2v.1c0 .1.1.2.1.3v.1h-.1c-.1 0-.1-.1-.1-.2-.1-.1-.2-.3-.3-.5 0-.1-.1-.1-.1-.1h-.1V39.8s0 .1-.1.1h-.1c-.1-.1-.2-.2-.3-.4-.1-.1-.2-.2-.2-.3 0-.1 0-.1-.1 0s-.2.1-.3.2h-.1v-.1c.1-.2.1-.3.2-.5v-.2c0-.1 0-.1-.1-.1s-.2.1-.4.1c-.1 0-.2-.1-.3-.1-.1 0 0-.1 0-.1.2-.2.2-.4.2-.6 0-.2-.2-.4-.3-.6-.1-.1-.1-.2-.2-.3-.1-.1-.1-.2-.2-.2-.2-.3-.5-.6-.8-.9-.2-.2-.4-.3-.5-.5H19v.1c0 .2.1.5.1.7 0 .2.1.4.2.6v.1h-.1l-.6-.6c-.1-.2-.2-.4-.4-.6v-.1c-.1-.1-.1-.2-.2-.3v.1c0 .1.1.2.1.3v.1s-.1 0-.1-.1c-.2-.2-.4-.4-.5-.6-.2-.2-.3-.4-.5-.6-.1-.1-.1-.1-.1-.2s-.1-.2-.1-.3c0-.1-.1-.1-.2-.2v.1c0 .2.1.4.1.6v.1h-.1l-.2-.2c0-.1-.1-.1-.1-.2-.1-.2-.2-.3-.3-.5-.1-.1-.1-.3-.2-.4V33c0-.1 0-.2-.1-.2h-.1V33.1h-.1c-.1-.1-.1-.2-.2-.3-.1-.2-.2-.5-.3-.7-.1-.3-.1-.7-.3-1V31v.6l-.1.1-.1-.1c0-.1-.1-.2-.1-.3-.1-.3-.2-.6-.2-.9v-.9-.3-.1s0 .1-.1.1c0 .1-.1.3-.1.4 0 0 0 .1-.1.1l-.1-.1c0-.3-.1-.6-.1-1 0-.5 0-1 .1-1.5 0-.1.1-.3.1-.4v-.2-.1h-.1c-.1.1-.1.3-.2.4v.1h-.1v-.1-.8c0-.2 0-.5.1-.7 0-.2.1-.4.2-.6 0-.2.1-.3.2-.5s.2-.4.2-.6c.1-.2.2-.4.3-.5-.3-.4-.3-.5-.2-.6zm13.8 11.9c.1-.1.2-.1.3-.2.2-.1.5-.2.7-.4.3-.2.6-.4.8-.7 0 0 .1-.1.1-.2 0-.2-.1-.5-.1-.7-.1-.2-.1-.4-.2-.6v-.1c.1 0 .1.1.1.1v.2c.1.2.2.3.2.5.1.2.1.3.2.5s.2.4.1.6c-.1.4-.2.9-.3 1.3-.1.2-.2.5-.2.7l-.3.6v.2h.1c.1 0 .1-.1.1-.2.1-.1.1-.2.2-.2l.3-.3c.1-.2.3-.3.5-.5.2-.1.3-.3.5-.4h.1v.5c0 .2 0 .4-.1.6v.1h.1c.1-.1.2-.2.3-.4.1-.2.2-.3.3-.5.1-.2.2-.3.2-.5 0-.1 0-.1.1-.1h.1v.5s0 .1.1.1h.1l.3-.3c.2-.2.3-.4.4-.6.1-.1.2-.2.2-.4.1-.1.1-.2.1-.3 0-.1.1-.2.1-.3h.1v.4s0 .1.1.1h.1c.1-.1.2-.3.2-.4.1-.2.2-.5.3-.7 0-.1 0-.1.1-.2 0-.2.1-.5.1-.7 0 0 0-.1.1-.1 0 0 .1 0 .1.1v.5s.1 0 .1-.1c.1-.1.1-.2.1-.3.1-.2.1-.4.2-.5V31c0-.1.1-.2.1-.3 0-.1 0-.3.1-.4 0 0 0-.1.1-.1l.1.1V29.6v-.4-.6c0-.3-.1-.5-.2-.8v-.1c0 .1.1.2.2.2l.3.6s.1 0 .1.1v-.1-1.1-.1-.3c0-.1 0-.2-.1-.4v-.2c0-.2-.1-.4-.1-.6 0-.2-.1-.4-.2-.6 0-.1-.1-.2-.1-.3v-.1-.1h.1c.1.2.2.3.3.5.1.1.2.3.2.4l.1.1s.1-.1 0-.1v-.3c-.1-.4-.2-.8-.4-1.2 0-.1-.1-.2-.1-.3-.1-.2-.2-.5-.3-.7 0 0 0-.1-.1-.1l-.3-.6c-.1-.1-.1-.2-.2-.3V22h.1l.3.3.3.3h.1v-.1c0-.1 0-.1-.1-.2 0-.2-.2-.5-.3-.7-.1-.2-.3-.4-.4-.6 0-.1-.1-.1-.2-.1l-.1-.1c0-.1.1-.1.1-.1s.1 0 .1-.1l.9-.6c.3-.2.5-.5.7-.8.1-.2.2-.4.3-.7.1-.2.1-.5.1-.7v-1.3c0-.2 0-.3-.1-.5 0-.2-.1-.3-.2-.5-.1-.4-.3-.7-.5-1 0-.1-.1-.1-.1-.1-.2-.1-.3-.3-.5-.4-.1-.1-.2-.1-.3-.2-.1-.1-.2 0-.2.1-.1.2-.2.4-.2.6-.1.3-.2.5-.4.8-.1.2-.3.5-.5.7-.3.4-.6.7-.8 1.1-.1.2-.3.4-.4.5-.1.1-.1.3 0 .4.1.2.3.3.5.3.1 0 .2.1.3.1l.1.1-.1.1h-.1c-.1 0-.3.1-.4.1-.1 0-.1.1 0 .1 0 0 0 .1.1.1.1.1.2.1.4.2.2 0 .3.1.5.1l.1.1-.1.1c-.1 0-.1.1-.2.1v.1c.2 0 .3.1.5.2l.2.2c0 .1.1.1.1 0l.4-.4c.1-.1.1-.1.1 0s.1.1.1.2h.1l.1-.1h.1v.1l-.4.4c-.1.1-.1 0-.1-.1v-.2c0-.1-.1-.1-.1 0-.1.1-.2.3-.3.4l-.1.1-.1-.1c-.1-.2-.1-.3-.3-.5-.1-.1-.2-.2-.4-.3-.1-.1-.2-.1-.3-.1 0 0-.1 0-.1-.1l.1-.1.1-.1c.1-.1 0-.1-.1-.1-.2 0-.4 0-.5-.1h-.1c-.2 0-.3-.1-.4-.2v-.2c.1 0 .2-.1.3-.1l.1-.1-.1-.1c-.2-.1-.3-.2-.5-.3-.1-.1-.2-.2-.2-.4v-.4c0-.2.1-.3.2-.5l.1-.1-.1-.1c-.3-.1-.5 0-.7.2-.1.1-.2.1-.3 0-.2-.1-.5-.2-.7-.4-.2-.1-.4-.2-.5-.2-.1-.1-.2-.1-.4-.1-.2-.1-.3-.1-.5-.2-.3-.1-.6-.2-.9-.2-.2 0-.4-.1-.6-.1h-1.7c-.8.1-1.5.1-2.3 0-.8-.1-1.7-.1-2.5 0-.2.1-.5.1-.7.2h-.1c-.1 0-.1.1-.2.1-.2.1-.3.1-.5.1-.1 0-.1.1-.2.1h-.1c-.1 0-.2.1-.2.1h-.1c-.1.1-.3.1-.4.2-.2.1-.4.2-.5.2-.1.1-.2 0-.3 0-.2-.2-.4-.3-.7-.2-.1 0-.1.1-.1.2.1.1.2.2.2.3.1.3 0 .6-.2.9-.1.1-.3.2-.4.3l-.1.1.1.1c.1 0 .2.1.3.1l.1.1c0 .1 0 .1-.1.1-.1.1-.3.2-.4.2h-.1c-.2.1-.3.1-.5.1-.1 0-.1.1-.1.1 0 .1.1.1.2.1l.1.1-.1.1c-.1 0-.2 0-.3.1h-.1-.1c-.1.1-.3.2-.4.4 0 .1-.1.2-.1.3 0 0 0 .1-.1.1 0 0-.1 0-.1-.1 0 0 0-.1-.1-.1-.1-.1-.1-.2-.2-.3 0 0-.1 0-.1-.1V19.7s0 .1-.1.1H14l-.2-.2c-.1-.1-.2-.3-.3-.4v-.1h.1c.1.1.1.2.2.2.1.1.1.1.2-.1 0-.1.1-.1.1-.1h.1c.1.1.2.2.3.4.1.1.1.1.2 0l.2-.2c.1 0 .1-.1.2-.1.1-.1.1-.1.2-.1h.1s0-.1-.1-.1h.5l-.1-.1s0-.1.1-.1h.2c.1 0 .2 0 .3-.1.1 0 .3-.1.4-.2l.1-.1c.1-.1 0-.1 0-.2-.1-.1-.2-.1-.4-.1 0 0-.1 0-.1-.1l.1-.1c.2-.1.4-.1.6-.2.2-.1.3-.3.2-.5 0-.1-.1-.2-.1-.2-.1-.2-.2-.3-.4-.5-.2-.3-.5-.6-.7-.9-.1-.2-.3-.4-.4-.6l-.3-.6c-.1-.3-.3-.6-.4-.9 0-.1-.1-.1-.2-.1s-.2.1-.3.1c-.2.1-.4.3-.6.5-.1.1-.2.3-.4.5-.1.2-.2.4-.3.5 0 0 0 .1-.1.1 0 .1 0 .1-.1.2 0 .1 0 .1-.1.2v.4c-.1.4-.1.8-.1 1.2 0 .2.1.5.1.7 0 .3.2.6.3.9.1.2.2.3.3.4.1.2.3.3.5.5.1.1.3.2.4.3.2.1.3.3.6.4l.1.1v.1c-.1 0-.2.1-.3.2-.1.2-.3.4-.4.6l-.3.6V22.2s.1 0 .1-.1c0 0 0-.1.1-.1.2-.2.4-.3.6-.5h.1v.1c0 .1-.1.2-.2.2-.1.1-.2.2-.2.3-.1.3-.3.5-.4.9-.1.2-.2.3-.2.5-.1.2-.1.4-.2.5-.1.2-.1.4-.2.6 0 .2-.1.4-.1.5v.1c.1-.1.1-.2.2-.2 0 0 0-.1.1-.1.1-.2.2-.4.3-.5.1-.1.1-.2.2-.2v.2c0 .1 0 .2-.1.3-.1.2-.2.5-.2.7-.1.3-.1.5-.1.8 0 .3-.1.7-.1 1 0 .2 0 .5-.1.7v.1s0-.1.1-.1c.1-.1.1-.3.2-.4.1-.1.1-.3.2-.4 0-.1.1-.1.2-.2v.1c0 .2-.1.4-.1.5v.3c0 .2 0 .4-.1.6-.1.4-.1.7 0 1.1v.1l.1.1s.1 0 .1-.1v-.1s0-.1.1-.1l.1.1c0 .2 0 .3.1.5 0 .1.1.3.1.4 0 .1 0 .1.1.2.1.2.2.5.3.7 0 0 .1 0 .1.1v-.1-.3-.1c.1.1.2.2.2.3v.3c0 .1.1.3.1.4v.1c.1.2.1.3.2.5s.2.3.2.5c0 0 .1.1.1 0 0 0 .1 0 .1-.1v-.1-.3l.1-.1.1.1s0 .1.1.1l.3.6c.1.1.2.3.3.4.2.2.4.4.5.7 0 0 .1.1.2.1 0-.1 0-.1.1-.2v-.3-.1h.1l.1.1c.1.3.2.6.4.8.1.2.3.3.4.5 0 0 .1 0 .1.1v-.1c-.1-.3-.1-.6-.1-.9v-.1h.1c.1.1.3.2.4.3l.1.1.5.5c.1.1.1.2.2.2.1.1.2.3.3.4h.1v-.1c0-.1-.1-.2-.1-.3-.1-.2-.2-.3-.2-.5-.1-.2-.1-.4-.2-.6l-.3-.9c-.1-.4-.1-.8.1-1.2.1-.1.1-.3.2-.5.1-.1.1-.3.2-.4.1-.1.1-.1.1-.2v-.1.1c-.1.2-.1.4-.2.7 0 .8-.1 1-.1 1.3v.1l.3.3c.2.2.4.4.7.5.1 0 .1.1.2.1l.6.3.1.1c-.1.1-.2.1-.3 0-.2-.1-.3-.1-.5-.2-.1-.1-.3-.1-.4-.2-.2-.1-.4-.3-.6-.4H20v.1c0 .2.1.4.1.5 0 .1 0 .2.1.2l.1.1c.1.1.2.1.3.2.1.1.3.1.4.2.2.1.4.1.6.2.1 0 .2.1.3.1.2 0 .3.1.5.1h0-1.1c-.2 0-.4-.1-.6-.2-.1 0-.2-.1-.3-.1-.1 0-.1 0-.1.1s.1.1.1.2.2.2.3.3c.2.1.3.1.5.2.3.1.7.1 1.1.1h.9c-.2 0-.4.1-.5.1-.4.1-.9.1-1.3 0h-.2-.1v.1l.1.1c.1.1.2.1.3.2.2.1.4.1.7.1.3 0 .7-.1 1-.1.1 0 .2 0 .2-.1H23.7s0 .1-.1.1c-.2.1-.3.2-.5.2H23c-.1 0-.1 0-.2.1-.1 0-.3 0-.4.1-.1 0-.1 0-.1.1s.1.1.1.1h.2c.1.1.3.1.4.1.2 0 .4 0 .6-.1.1 0 .1 0 .2-.1s.3-.1.4-.2c.2-.1.5-.2.7-.3.1 0 .1-.1.1-.1v-.1-1c0-.2-.1-.2-.2-.2h-.1c-.2-.1-.5-.3-.6-.5-.2-.3-.5-.6-.8-.8-.2-.2-.5-.4-.6-.7-.1-.3-.1-.5-.1-.8v-.1.1c0 .1 0 .2.1.4s.3.4.5.5c.2.1.4.3.7.4.2.1.4.2.5.4.1.1.1.2.1.3-.1 0-.1 0-.2-.1l-.1-.1h-.1v.1c.1.1.1.2.2.4s.3.3.5.4c.1.1.2.1.3 0 .1-.1.1-.1.2 0s.2.1.2 0c.2-.1.4-.2.5-.4.1-.1.1-.1.1-.2v-.1s-.1 0-.1.1c-.1 0-.1.1-.2.1 0-.1 0-.2.1-.3.2-.2.4-.4.7-.5.1-.1.2-.1.3-.1.2-.1.3-.2.5-.3l.1-.1.3-.6v-.1.1c.1.4 0 .8-.3 1.1-.2.2-.4.3-.6.5-.2.2-.4.3-.5.5-.1.2-.3.4-.4.5-.1.1-.2.1-.4.2-.2 0-.2.1-.3.3-.1.3-.1.7 0 1 0 .1.1.1.2.2.2.1.3.1.5.2.1.1.2.1.4.2.1.1.3.1.4.2.2.1.4.1.6.1.1 0 .2 0 .3-.1.1 0 .2-.1.3-.1 0 0 .1 0 .1-.1s0-.1-.1-.1c-.2 0-.5-.1-.7-.2h-.1c-.2 0-.3-.1-.5-.2h.2c.1 0 .2.1.4.1h.2c.3.1.6.1.9.1.3 0 .5-.1.8-.3l.1-.1s0-.1.1-.1h-.1c-.4.1-.7 0-1.1 0h-.5c-.2 0-.3-.1-.5-.1h-.1 1.3c.4 0 .8-.1 1.2-.3.2-.1.3-.3.4-.5v-.1h-.1c-.2.1-.4.1-.6.2-.4.1-.9.1-1.3.1h-.1s.1 0 .1-.1c.1 0 .3 0 .4-.1.1 0 .3-.1.4-.1.1 0 .1 0 .2-.1.1 0 .2-.1.4-.1l.6-.3c.2-.1.3-.2.3-.4v-.4-.1h-.1c-.1.1-.3.2-.4.3l-.6.3c-.1.1-.3.1-.4.2-.4-.3-.5-.3-.7-.4zM17.3 15.9h.2c.1 0 .2-.1.1-.2v-.1c-.2-.2-.4-.4-.5-.6l-.5-.5c-.1-.1-.2-.2-.4-.3-.2-.1-.3-.2-.5-.3-.1 0-.1-.1-.2-.1s-.1.1-.1.2v.1c.1.1.1.3.2.4.1.2.3.4.4.6.2.2.4.5.7.6.1.1.3.2.6.2zm15.5 0c.1 0 .3 0 .4-.1.1 0 .2-.1.3-.1.2-.1.4-.2.5-.4.2-.3.4-.5.6-.8.1-.1.1-.3.2-.5 0 0 0-.1-.1-.2h-.2c-.1.1-.2.1-.3.2-.1.1-.3.2-.4.3-.2.1-.3.3-.5.4-.3.2-.5.5-.7.7 0 0-.1.1-.1.2s0 .1.1.1c0 .2.1.2.2.2z"/><path class="st6" d="M16.1 31.9v-.3c0-.2-.1-.4-.2-.6 0-.1-.1-.3-.2-.4-.1-.2-.3-.4-.5-.6-.1-.1-.2-.2-.2-.4v-.1c.1-.8.1-1.5 0-2.2-.1-.4-.1-.9-.2-1.3v-.2c-.1-.3-.1-.6-.2-.9 0-.2 0-.3.1-.5s.1-.3.2-.5c0-.1.1-.2.1-.3.2-.3.3-.6.5-.9.1-.1.1-.2.1-.3.1-.3.3-.5.4-.8.1-.2.3-.3.4-.4.1-.1.3-.2.4-.3.2-.1.4-.2.5-.4.1-.1.3-.2.4-.3.2-.1.4-.3.6-.4h.1v.1c-.3.3-.5.6-.8.8-.2.3-.5.5-.7.8-.2.2-.3.4-.4.5-.2.3-.3.5-.5.8 0 .1-.1.2-.1.2l-.3.9c0 .2 0 .3-.1.5-.1.6-.1 1.1-.1 1.7 0 .4 0 .7.1 1.1 0 .3.1.6.1.9.1.3.2.7.2 1 0 .2.1.4.1.6.1.2.1.4.2.6v.2c.1.2.1.4.2.6 0 .1.1.2.1.3l.3.6c.1.3.4.5.6.7.2.1.4.3.7.3h.2c.1 0 .2 0 .3.1.2.2.3.5.5.7.1.1.2.2.2.4v.1h-.1l-.5-.5c-.2-.2-.4-.3-.7-.2-.2 0-.3.2-.4.4 0 .1-.1.1-.1.2s-.1 0-.1 0c0-.2-.1-.4-.1-.6 0-.2-.2-.3-.3-.5l-.6-.6c-.1-.4-.2-.5-.2-.6zM30.8 34v-.1c.1-.2.2-.3.3-.5.1-.2.2-.3.3-.5 0-.1.1-.1.1-.2h.1c.2.1.5 0 .7-.1.3-.2.6-.5.8-.7 0-.1.1-.1.1-.2.1-.2.2-.3.3-.5.1-.1.1-.2.1-.4.1-.2.1-.3.2-.5s.1-.4.2-.6c0-.1 0-.2.1-.3l.3-1.2c0-.1.1-.2.1-.4s0-.4.1-.7c0-.3.1-.6.1-.9v-1.3c0-.3-.1-.7-.1-1 0-.2-.1-.4-.2-.6v-.1c0-.3-.2-.5-.3-.8-.1-.3-.3-.5-.5-.7-.1-.2-.3-.3-.4-.5-.1-.2-.3-.3-.4-.5l-.3-.3-.5-.5-.2-.2-.2-.2c.1 0 .1.1.2.1.1.1.2.1.3.2.3.2.6.5.9.7.3.2.6.4.9.7.1.1.2.2.2.4 0 .1.1.2.1.3.1.1.1.3.2.4.1.1.1.2.2.3.1.1.1.3.2.4.1.1.1.2.2.4.1.1.1.3.2.4 0 0 0 .1.1.1.1.2.1.4.2.6v.2c0 .1 0 .2-.1.3 0 .2-.1.4-.1.5 0 .2 0 .3-.1.5-.1.4-.1.8-.2 1.2-.1.5-.1 1-.1 1.5v.8c0 .2-.1.4-.2.5-.2.3-.5.5-.6.9 0 .1-.1.2-.2.4 0 .2-.1.4-.1.5 0 .2-.1.3-.2.4-.3.2-.5.4-.7.7-.2.2-.2.5-.3.7v.2l-.1.1-.1-.1c0-.1-.1-.2-.2-.3-.2-.2-.4-.2-.6 0-.2.1-.4.3-.6.5v.1c0-.1-.1-.1-.2-.1.1 0 0 0 0 0z"/><path class="st6" d="M18.4 21.1v.1l-.3.6c-.1.1-.1.3-.2.5s-.1.4-.2.6c-.1.2-.1.4.1.6l.3.3c.1.1.2.1.2.2v.1H18c-.1 0-.2-.1-.4-.1h-.2c-.3 0-.5.1-.7.4-.1.1-.1.2-.2.4-.1.3-.1.6-.2.8-.1.5-.1.9 0 1.4 0 .4.1.7.1 1.1 0 .2.1.3.2.4l.2.2c.1.1.2.2.4.2.1.1.2.1.3.1.1.1.3.1.4.2.2.1.4.2.6.2.2.1.4.1.7.2.1 0 .3.1.3.2h-.2c-.5 0-.9-.1-1.4-.1-.3 0-.6-.1-.8-.2-.1 0-.2 0-.2.1-.1.3 0 .6.1 1 .2.3.4.6.7.8l.6.6s.1 0 .1.1v.1h-.1-.1c-.2-.1-.4-.3-.6-.4-.3-.2-.6-.4-.9-.7-.1-.1-.2-.3-.3-.5-.1-.2-.1-.4-.2-.7 0-.4-.1-.7-.1-1.1 0-.3 0-.5-.1-.8 0-.3-.1-.5-.1-.8v-2-.2c0-.2.1-.4.2-.6.1-.1.1-.2.1-.3.1-.1.2-.3.3-.4.1-.2.3-.5.4-.7.1-.2.3-.4.4-.6.2-.2.3-.4.5-.7.1-.1.1-.2.2-.2.3-.3.3-.4.4-.4zM30.3 29.6c.1 0 .2-.1.3-.1.2-.1.4-.1.6-.2.1 0 .3-.1.4-.2.1 0 .1 0 .2-.1 0 0 .1 0 .1-.1h.1c.2 0 .3-.2.5-.3.2-.1.3-.2.5-.3l.2-.2c.1-.1.2-.3.2-.5 0-.6.1-1.2.1-1.8 0-.3 0-.6-.1-.9 0-.2-.1-.4-.1-.6-.1-.3-.3-.5-.6-.6H32c-.1 0-.1 0-.2.1h-.2-.1v-.1c.1 0 .1-.1.2-.1.3-.2.4-.5.4-.8 0-.3-.1-.5-.2-.8-.1-.2-.2-.4-.3-.7 0-.1-.1-.2-.1-.3v-.1l.1.1.1.1.2.2c.1.2.2.3.3.5.1.2.3.4.4.6.2.2.3.5.5.7.1.2.2.3.3.5l.3.6c0 .1 0 .2.1.3V25.9c0 .6-.1 1.2-.1 1.8 0 .3-.1.6-.1.9 0 .4-.1.7-.1 1.1 0 .2-.1.3-.2.5-.2.3-.4.6-.7.8-.1.1-.3.2-.5.3-.1.1-.3.2-.4.3 0 0-.1 0-.1.1-.1 0-.1.1-.2.1h-.1-.1v-.1c.2-.2.4-.3.5-.5l.5-.5.2-.2c.3-.4.4-.9.4-1.4 0-.1-.1-.1-.2-.1s-.2.1-.3.1c-.5.1-1 .2-1.5.2h-.4c0 .4-.1.4-.1.3 0 .1 0 .1 0 0zM22.1 28.9v-.4c0-.2.1-.5.1-.7 0-.2.1-.5.1-.7v-.4c0-.2-.1-.3-.2-.5 0-.1-.1-.1-.2-.1-.2 0-.5.1-.7.1-.2 0-.4 0-.7-.1-.3-.1-.6-.3-.7-.6-.1-.1-.1-.3-.1-.4 0-.1-.1-.2-.3-.3h-.2-.1v-.1c.1 0 .1-.1.2-.1l.6-.3c.1 0 .1-.1.2-.1.2 0 .4 0 .6.1.1 0 .3.1.4.2.1.1.3.1.4.2.2.2.5.3.6.6.2.2.3.5.3.8 0 .2 0 .5.1.7 0 .2 0 .3.1.5v.3c-.1.1-.1.3-.1.4-.1.2-.1.3-.2.5-.1.1-.1.2-.2.4zm-1.4-3c.3 0 .5-.1.6-.4.1-.1.1-.3 0-.4l-.1-.1s-.1 0-.1.1l-.3.3c-.1.1-.2 0-.3-.1-.1-.1 0-.1 0-.2v-.2l-.1-.1c0-.1-.1-.1-.1-.1-.1 0-.1 0-.2.1s-.1.2-.1.3v.5c.2.1.4.3.7.3zM28.8 26.1H28s-.1 0-.1.1c-.1.1-.1.2-.1.3-.1.2-.1.5 0 .7.1.4.1.8.2 1.2v.1h-.1c-.1-.2-.1-.3-.2-.5s-.1-.3-.2-.5c0-.1-.1-.2-.1-.3.1-.5.1-.9.2-1.4 0-.1 0-.3.1-.4.2-.3.4-.6.7-.8.1-.1.2-.1.2-.2h.1c.1-.1.3-.1.4-.2.2-.1.4-.1.6-.1.2 0 .3 0 .5.1.1.1.2.1.3.2.1.1.2.1.3.2v.1c0 .1 0 .1-.1.1h-.2c-.1 0-.2.1-.2.3 0 .3-.1.6-.4.8-.4.2-.7.3-1.1.2zm.4-.2c.2 0 .3-.1.4-.1.2-.1.3-.3.4-.5.1-.2 0-.4-.1-.6-.1-.1-.1-.1-.2-.1s-.2 0-.2.1c0 0 0 .1-.1.1-.1.1-.1.1 0 .3v.1c-.1.1-.2.1-.3.1-.1 0-.2-.1-.2-.2s-.1-.1-.2-.1-.1.1-.1.2 0 .3.1.4c.1.2.3.3.5.3z"/><path class="st6" d="M21.1 28c-.2 0-.3-.1-.4-.1-.2-.1-.4-.1-.7-.1-.4 0-.9 0-1.3.1-.2.1-.5.1-.7.2-.1 0-.2.1-.3.1-.1.1-.3 0-.3-.2 0-.3 0-.6.1-.9.1-.4.2-.8.2-1.2 0-.2.1-.4.1-.5l.1-.1v1.6c0 .2.1.4.3.5h.8c.4 0 .8 0 1.2.1.2.1.5.2.7.3.1.1.1.2.2.2zM32.1 25.2c.1.2.2.3.2.4.1.4.1.7.2 1.1.1.4.1.8.1 1.2 0 .1 0 .2-.1.2s-.2 0-.3-.1c0 0-.1 0-.2-.1-.3-.1-.7-.2-1-.2-.2 0-.4 0-.6-.1-.3 0-.6 0-.9.1-.1 0-.2 0-.3.1h-.1s0-.1.1-.1c.2-.1.4-.1.5-.2h.1c.4-.1.8-.1 1.1-.1h.6c.2 0 .3-.2.4-.4.1-.3.1-.6.1-.9 0-.2-.1-.5-.1-.7.1 0 .2-.1.2-.2zM21.8 23.3v.2c0 .3.1.5.2.7v.2c0 .1 0 .1.1.2s.1.2.2.3v.2h-.1c-.1-.1-.2-.3-.3-.4-.1-.1-.2-.3-.4-.4-.1-.1-.3-.2-.4-.3-.1 0-.1-.1-.2-.1-.1-.1-.3-.1-.4-.2-.1 0-.1-.1-.2-.1-.2-.1-.5-.1-.8-.2-.2 0-.4 0-.6-.1-.1 0-.2-.1-.1-.2.2-.4.5-.8.9-1.2.2-.2.4-.4.6-.5h.1v.1l-.3.3c-.1.2-.3.3-.3.5-.1.1 0 .3 0 .4 0 .1.1.1.2.2s.2.1.3.2c.2.2.4.3.6.5.1.1.3.2.4.3h.2c0-.1.1-.2.1-.2.2-.2.2-.3.2-.4zM29.4 21.4c.1 0 .1 0 0 0 .5.3.9.7 1.2 1.1.2.2.3.5.4.7 0 .1 0 .1-.1.1h-.3c-.1 0-.3 0-.4.1H30c-.1 0-.2 0-.3.1h-.1c-.2 0-.4.2-.7.2-.3.1-.5.3-.7.5l-.3.3c-.1.1-.2.2-.3.4 0 0-.1 0-.1.1v-.1c.1-.1.1-.3.2-.4v-.1c.1-.3.2-.6.3-.8l.1-.1.1.1V23.9c.1.1.1.1.2 0s.2-.2.4-.2c.1 0 .1-.1.2-.1.2-.1.3-.2.5-.4.1-.1.2-.2.3-.2.2-.1.2-.3.1-.5-.1-.3-.3-.5-.6-.8.2-.2.1-.2.1-.3zM25 17.8v.2c.1.8.2 1.6.2 2.4 0 .5 0 .9-.1 1.4 0 .3-.1.7-.1 1v.1l-.1.1-.1-.1c0-.1-.1-.3-.1-.4-.1-.7-.1-1.4-.1-2.1 0-.6.1-1.2.1-1.7 0-.2.1-.4.1-.6.2-.2.2-.3.2-.3zM26.7 18.2c.2 0 .4 0 .6-.1.3-.1.5 0 .7.1.1.1.2.1.3.2.1.1.2.1.2.2.2.2.4.3.7.5.1 0 .1.1.2.1.3.2.5.3.8.5h.2c.1 0 .1.1.2.1v.1h-.1c-.2 0-.4-.1-.6-.1-.2 0-.3-.1-.4-.2-.1-.1-.3-.2-.4-.2l-.6-.3c-.3-.1-.4-.1-.5-.1-.2-.1-.4-.1-.6 0-.1 0-.3 0-.4-.1-.1-.1-.2-.2-.4-.3l-.1-.1c-.1 0-.2-.1-.1-.2s.2-.1.3-.1c-.1 0-.1 0 0 0zM22.6 18.1c.1 0 .3.1.4.1h.5s.1 0 .1.1v.1l-.1.1c-.1.1-.2.1-.3.2-.1.1-.3.2-.4.3h-.1c-.2 0-.5 0-.7.1-.2.1-.3.2-.5.3-.1.1-.2.1-.4.2-.1.1-.2.1-.3.2-.1 0-.2.1-.3.1h-.1c-.2.1-.4.1-.6.2h-.1s0-.1.1-.1h.1c.2 0 .3-.1.5-.2s.3-.2.5-.3c.2-.2.4-.3.7-.5.2-.2.4-.3.6-.4.1-.1.3-.1.4-.2-.1-.3 0-.3 0-.3zM19.9 18.4l.2-.2c.1-.1.3-.2.4-.3.2-.1.4-.3.6-.4.1-.1.2-.1.3-.1.2-.1.4-.1.6-.2.2-.1.3-.1.5-.2s.3-.1.5-.2c.1 0 .2-.1.3-.1.2-.1.3-.1.5-.1.3.1.6.1.9.1h.1s.1 0 .1.1v.1c-.2.1-.4.2-.6.1h-.5c-.1 0-.2.1-.3.1h-.2c-.2.1-.4.1-.7.2-.1 0-.3.1-.4.1-.2.1-.5.1-.7.2-.2.1-.5.2-.7.3-.1.1-.2.1-.3.2-.3.2-.4.3-.6.3zM30.1 18.4c-.1-.1-.2-.1-.3-.2-.1 0-.2-.1-.2-.1-.2-.1-.3-.2-.5-.3-.1-.1-.3-.1-.4-.1-.2-.1-.5-.1-.7-.2-.2-.1-.4-.1-.6-.1-.3-.1-.6-.2-.9-.2-.2 0-.3-.1-.5 0-.2 0-.4 0-.6-.1V17l.1-.1c.2 0 .4 0 .5-.1.2 0 .3-.1.5-.1s.3 0 .4.1h.1c.2.1.4.1.6.2.1 0 .3.1.4.2.1 0 .2.1.2.1.2.1.4.1.5.2.1.1.3.1.4.2 0 0 .1 0 .1.1.1.1.3.2.4.3.1.1.2.1.3.2h.1c.1-.1.1 0 .1.1zM24.3 16.1h-.4c-.4.1-.8.1-1.2.2-.2 0-.4.1-.7.1-.2 0-.3.1-.5.2-.1.1-.3.1-.4.2 0 0-.1 0-.1.1-.2.1-.5.2-.7.3-.2 0-.3.1-.5.2-.1 0-.1 0-.2.1-.1 0-.2.1-.3.1-.2.1-.3.1-.5.2-.1 0-.1 0-.2.1h-.1-.1v-.1c.1-.1.3-.2.4-.2h.1c.1 0 .1-.1.2-.1.1-.1.3-.1.4-.2.2-.1.3-.1.5-.2.1-.1.3-.1.4-.2.1 0 .2-.1.3-.2.2-.1.4-.3.6-.4.2-.1.3-.2.6-.2h2c.2-.1.3 0 .4 0zM25.7 16.1c.2 0 .2-.1.3-.1h2.2c.1 0 .1 0 .2.1.1 0 .2.1.3.2.1.1.2.1.3.2.2.1.3.2.5.3.1 0 .2.1.3.1.1.1.2.1.4.2s.3.1.5.2c.1.1.3.1.4.2.1 0 .1.1.2.1.1.1.2.1.3.2 0 .1-.1.1-.2 0-.2-.1-.4-.1-.6-.2-.2-.1-.4-.2-.6-.2-.2-.1-.3-.1-.5-.2s-.3-.1-.5-.2c-.1-.1-.3-.1-.4-.2-.1 0-.2-.1-.3-.2-.2-.1-.4-.2-.7-.2-.4-.1-.8-.1-1.2-.2-.3 0-.5-.1-.8-.1h-.1zM27.6 22.8c-.1-.1-.1-.2-.2-.3-.1-.2-.2-.3-.3-.5-.1-.2-.3-.4-.5-.6l-.4-.4c-.2-.2-.3-.5-.4-.8V20c0-.2 0-.5.1-.7v-.2.1c0 .2.1.4.1.6.1.2.2.5.3.7.1.1.1.2.2.4 0 .1.1.1.1.2.2.2.3.5.4.7.1.3.3.5.4.8.2 0 .2.1.2.2 0-.1 0 0 0 0zM24.2 19.5v.5c0 .2 0 .3-.1.5-.1.3-.4.6-.6.8-.2.3-.4.5-.7.8-.1.1-.1.2-.2.3-.1.1-.2.2-.2.4h-.1v-.1-.3-.1c0-.2.1-.3.2-.4.1-.1.1-.2.2-.4.1-.1.1-.2.2-.3l.3-.6v-.1c.1-.2.2-.4.3-.7.1-.2.2-.5.3-.7V19s.1 0 .1.1c.3.2.3.3.3.4zM23.1 32.9l.1-.1c.3 0 .5 0 .8.1.2.1.4.2.6.2.3.1.6.1.9 0l.6-.3c.2-.1.5-.1.7 0l.1.1h-.5c-.1 0-.2.1-.3.2-.2.1-.3.2-.5.3-.2.1-.3.1-.5.2H25c-.3-.1-.5-.2-.8-.4-.1-.1-.2-.1-.2-.1-.3-.1-.5-.2-.9-.2.1 0 .1 0 0 0 .1 0 .1 0 0 0zM21.6 27.6c-.1.1-.1 0-.1 0-.2-.2-.4-.4-.6-.5-.2-.1-.5-.3-.7-.3-.1 0-.2-.1-.3-.1-.2-.1-.3-.2-.4-.3-.2-.1-.3-.3-.4-.5-.1-.1-.2-.3-.2-.4v-.1-.1h.1c.1.1.1.1.1.2.2.3.4.5.7.6.1.1.2.1.3.2.1.1.3.1.4.2.3.2.7.3.9.7.1.1.1.2.2.4 0-.1 0 0 0 0zM31.2 25.4c-.2.4-.4.8-.7 1l-.6.3c-.2.1-.4.2-.6.2-.3.1-.5.2-.7.5 0 .1-.1.1-.2.1h-.1v-.1c.1-.2.3-.4.5-.6.1-.1.3-.2.4-.2.1-.1.2-.1.3-.2.1 0 .1 0 .2-.1h.1c.2-.2.5-.3.7-.5.3-.1.5-.2.7-.4-.1-.1 0-.1 0 0 0-.1 0 0 0 0zM24.3 21.5v.3c-.1.2-.1.4-.2.6 0 .1-.1.2-.1.2-.2.3-.4.5-.5.8-.1.1-.2.3-.2.4 0 .1-.1.2-.1.4v-.1-.4c.1-.2.2-.4.2-.7 0-.1.1-.1.1-.2.2-.3.4-.5.6-.8.1-.1.1-.2.2-.4-.2.1-.1 0 0-.1zM27.1 24.2c-.1-.1-.1-.1 0 0-.1-.2-.1-.3-.2-.4 0-.1-.1-.2-.2-.3-.2-.3-.4-.6-.7-.9-.1-.1-.1-.2-.1-.3-.1-.1-.1-.3-.1-.4v-.2-.1h.1c0 .1.1.2.1.2.1.2.2.3.3.5.1.2.2.3.4.5.1.2.2.3.3.5.1.2.1.4.1.6v.3zM28.3 20.6h-.1c-.1 0-.2-.1-.3-.1-.3-.1-.6-.2-.8-.4-.1-.1-.2-.1-.3-.2l-.1-.1c-.1-.1-.1-.2-.1-.2v-.1h.1c.1.1.2.1.3.2.2.2.4.3.5.5.1.1.2.1.3.2.2.1.4.1.5.3v-.1z"/><path class="st6" d="M21.8 20.7c-.1-.1-.1-.1 0 0-.1-.1 0-.1 0-.1l.6-.3c.1 0 .1-.1.2-.1l.3-.3c.2-.2.4-.3.5-.5h.1c.1 0 .1.1.1.1-.1.1-.1.2-.2.3 0 .1-.1.1-.2.1l-.3.3c-.1.1-.2.2-.4.2s-.3.1-.5.1h-.1c-.1.1-.1.1-.1.2z"/></g><g><radialGradient id="SVGID_2_" cx="24.512" cy="26.552" r="16.814" gradientUnits="userSpaceOnUse"><stop offset="0" stop-color="#e1e1e1"/><stop offset=".425" stop-color="#a2a6a7"/><stop offset="1" stop-color="#465053"/></radialGradient><path d="M14.2 22.4c-.2.1-.3.3-.4.5 0 0-.1 0-.1.1v-.1c0-.1 0-.2.1-.3 0-.2.1-.3.2-.5s.1-.3.2-.5l.3-.6c0-.1.1-.2.2-.3 0-.1 0-.2-.1-.2-.2-.2-.4-.3-.5-.5-.2-.2-.4-.5-.6-.7-.1-.2-.3-.4-.4-.6-.3-.6-.4-1.3-.4-2 0-.2.1-.5.1-.7 0-.2.1-.4.2-.6 0-.1.1-.3.2-.4.1-.1.1-.3.2-.4.1-.1.1-.2.2-.3.2-.2.3-.5.5-.7.1-.1.2-.3.3-.4.3-.2.5-.2.7 0 .3.2.6.4.9.7.2.1.4.3.5.4.5.4.9.8 1.4 1.3l.6.6c.1.1.1.1.2 0 .1 0 .1 0 .2-.1.2-.1.4-.1.6-.2.1 0 .2-.1.3-.1.1 0 .1 0 .2-.1.2-.1.3-.1.5-.2 0 0 .1 0 .1-.1h.1c.2 0 .4-.1.6-.2h.2c.3-.1.6-.2.9-.2H27.6c.3 0 .7.1 1 .1.2 0 .4.1.6.2.2 0 .4.1.5.1.2.1.4.1.5.2.2.1.4.1.6.2.1 0 .2.1.2.1.1 0 .3.1.4.1h.2c.1 0 .1-.1.2-.2.2-.2.4-.3.5-.5l.4-.4.5-.5c.2-.2.4-.3.6-.5.1-.1.3-.2.4-.3.2-.1.4-.3.6-.4.2-.1.3-.2.5-.3.1 0 .3 0 .4.1l.6.6c.1.2.2.3.3.5.1.2.2.4.3.5.1.1.1.2.2.4 0 0 0 .1.1.1 0 .1.1.2.1.3.1.4.2.8.2 1.3 0 .3 0 .6-.1.9 0 .2-.1.3-.2.5s-.1.3-.2.4c-.1.2-.3.5-.4.7-.1.2-.3.4-.4.5l-.5.5-.2.2v.1c.1.2.3.4.4.6v.1c.1.1.1.3.2.4.1.2.1.4.2.5.1.2.1.3.1.5v.2h-.1l-.3-.3-.2-.2h-.1v.1c0 .1.1.1.1.2.1.1.1.3.2.4.1.1.1.3.2.4.1.2.2.4.2.6 0 .1 0 .2.1.3.1.3.2.5.2.8v1.2s0 .1-.1.1c0 0-.1 0-.1-.1-.1-.1-.1-.3-.2-.4 0 0-.1 0-.1-.1v.4c.1.5.1 1 .1 1.5V29h-.1c0-.1-.1-.1-.1-.2s0-.2-.1-.2l-.1-.1v1.4c0 .2-.1.5-.2.7 0 .1 0 .2-.1.2l-.1.1-.1-.1v-.4s0-.1-.1-.1l-.1.1c0 .1 0 .2-.1.4s-.1.4-.2.6c-.1.2-.1.3-.2.5s-.2.3-.3.5h-.1v-.1-.2-.1.1c-.1.2-.1.4-.2.5-.1.2-.2.5-.3.7-.1.1-.2.3-.3.4l-.1.1c-.1 0-.1 0-.1-.1v-.3-.2-.1s-.1 0-.1.1-.1.2-.1.3c-.2.4-.4.7-.7 1l-.5.5s-.1 0-.1.1V35v-.3-.1s-.1 0-.1.1c-.1.1-.1.2-.2.3-.1.2-.2.4-.3.5-.2.2-.3.4-.5.5 0 0-.1 0-.1.1h-.1V36c.1-.2.1-.5.2-.7 0-.2.1-.4.1-.6v-.1c0-.1-.1-.1-.1 0l-.6.6c-.2.2-.4.4-.6.7-.2.2-.3.4-.4.6-.1.1-.1.2-.2.3 0 .2-.2.4-.2.6 0 .1.1.3.2.4.1.1.1.1 0 .2-.2.1-.3.1-.5 0-.1 0-.2-.1-.3-.1v-.1s0-.1.1-.1c0 0 .1 0 .1.1l.1.1H28.7v-.1c-.1-.1-.2-.3-.1-.5s.2-.3.3-.5c.1-.1.1-.2.2-.3.1-.1.1-.2.2-.3v-.1h-.1c-.2.1-.3.2-.5.4l-.6.3c-.1.1-.3.1-.4.2h-.1c-.1.1-.2.1-.3.1-.3.2-.5.1-.8.1-.3 0-.6 0-.9-.1-.5-.2-1-.3-1.5-.2-.2 0-.3.1-.4.2-.1 0-.3.1-.4.1-.3.1-.6 0-.9 0-.1 0-.1 0-.2-.1h-.1c-.1 0-.2 0-.3-.1-.3-.1-.6-.3-.9-.4-.2-.1-.4-.3-.5-.4h-.1v.1c0 .1.1.2.1.2.2.2.3.5.5.7.1.2.1.3 0 .5 0 0-.1 0-.1.1v.1s.1.1.1 0c.1 0 .3 0 .4-.1h.1v.8h.1l.1-.1h.1s0 .1.1.1c0 .1.1.3.2.4v.1l.1.1s.1 0 .1-.1 0-.2.1-.3c0-.1 0-.1.1-.2 0 .1.1.1.1.2s.1.1.1.2c.1.1.2.2.2.3h.1v-.1-.2-.1c.1.2.2.3.3.5l.2.2.2.2.1.1c.1 0 .1-.1.1-.1v-.4-.1-.1h.1c.1.2.3.4.4.6 0 0 0 .1.1.1.1.1.1.2.2.2l.1.1c.1 0 .1 0 .1-.1v-.4-.1.6h.1c.1-.1.2-.3.4-.4.1-.1.1-.2.2-.2 0 0 0-.1.1-.2 0 0 .1 0 .1-.1v.6h.1l.3-.3c.1-.1.1-.2.2-.3 0 0 0-.1.1-.1 0-.1.1-.1.1-.1h.1V39.4h.1l.2-.2c.1-.1.1-.2.1-.3 0-.1.1-.1.1-.2s.1 0 .1 0v.4c0 .1 0 .1.1 0 .1 0 .1-.1.1-.1 0-.1 0-.1.1-.1.1-.1.1-.1.1-.2v-.1s.1 0 .1.1l.1.1h.2v-.1c-.1-.1-.1-.3 0-.4 0 .1 0 .1.1.2 0 .1 0 .2.1.3 0 .1.1.1.1.2 0 0 0 .1-.1.1H28c-.1 0-.2-.1-.2-.2h-.1c-.1.2-.3.4-.4.6 0 0 0 .1-.1.1 0 .1-.1.1-.1.1l-.1-.1v-.2s0-.1-.1-.1h-.1c0 .2-.2.3-.3.5l-.2.2h-.1v-.1c0-.1.1-.3.1-.4-.1 0-.2.1-.2.1 0 .1-.1.2-.2.2-.2.2-.5.4-.7.6h-.1v-.1s0-.1.1-.1c.1-.1 0-.2 0-.2-.1.1-.2.3-.3.4l-.3.3h-.1l-.3-.3c-.1-.1-.2-.3-.3-.5v.2c.1.1.1.2.1.3v.1h-.1c-.2-.1-.4-.2-.5-.4l-.4-.4c0-.1-.1-.1-.1-.2v.1c0 .1.1.2.1.3v.1h-.1c-.1 0-.1-.1-.1-.2-.1-.1-.2-.3-.3-.5 0-.1-.1-.1-.1-.1h-.1V39.5s0 .1-.1.1h-.1c-.1-.1-.2-.2-.3-.4-.1-.1-.2-.2-.2-.3 0-.1 0-.1-.1 0s-.2.1-.3.2h-.1V39c.1-.2.1-.3.2-.5v-.2c0-.1 0-.1-.1-.1s-.2.1-.4.1c-.1 0-.2-.1-.3-.1-.1 0 0-.1 0-.1.2-.2.2-.4.2-.6 0-.2-.2-.4-.3-.6-.1-.1-.1-.2-.2-.3-.1-.1-.1-.2-.2-.2-.2-.3-.5-.6-.8-.9-.2-.2-.4-.3-.5-.5h-.1v.1c0 .2.1.5.1.7 0 .2.1.4.2.6v.1h-.1l-.6-.6c-.1-.2-.2-.4-.4-.6v-.1c-.1-.1-.1-.2-.2-.3v.1c0 .1.1.2.1.3v.1s-.1 0-.1-.1c-.2-.2-.4-.4-.5-.6-.2-.2-.3-.4-.5-.6-.1-.1-.1-.1-.1-.2s-.1-.2-.1-.3c0-.1-.1-.1-.2-.2v.1c0 .2.1.4.1.6v.1h-.1L16 34c0-.1-.1-.1-.1-.2-.1-.2-.2-.3-.3-.5-.1-.1-.1-.3-.2-.4v-.2c0-.1 0-.2-.1-.2h-.1V32.8h-.1c-.1-.1-.1-.2-.2-.3-.1-.2-.2-.5-.3-.7-.1-.3-.1-.7-.3-1v-.1.6l-.1.1-.1-.1c0-.1-.1-.2-.1-.3-.1-.3-.2-.6-.2-.9v-.9-.3-.1s0 .1-.1.1c0 .1-.1.3-.1.4 0 0 0 .1-.1.1l-.1-.1c0-.3-.1-.6-.1-1 0-.5 0-1 .1-1.5 0-.1.1-.3.1-.4v-.2-.1h-.1c-.1.1-.1.3-.2.4v.1h-.1v-.1-.8c0-.2 0-.5.1-.7 0-.2.1-.4.2-.6 0-.2.1-.3.2-.5s.2-.4.2-.6c.1-.2.2-.4.3-.5 0-.3 0-.3.1-.4zM28 34.3c.1-.1.2-.1.3-.2.2-.1.5-.2.7-.4.3-.2.6-.4.8-.7 0 0 .1-.1.1-.2 0-.2-.1-.5-.1-.7-.1-.2-.1-.4-.2-.6v-.1c.1 0 .1.1.1.1v.2c.1.2.2.3.2.5.1.2.1.3.2.5s.2.4.1.6c-.1.4-.2.9-.3 1.3-.1.2-.2.5-.2.7l-.3.6v.2h.1c.1 0 .1-.1.1-.2.1-.1.1-.2.2-.2l.3-.3c.1-.2.3-.3.5-.5.2-.1.3-.3.5-.4h.1v.5c0 .2 0 .4-.1.6v.1h.1c.1-.1.2-.2.3-.4.1-.2.2-.3.3-.5.1-.2.2-.3.2-.5 0-.1 0-.1.1-.1h.1v.5s0 .1.1.1h.1l.3-.3c.2-.2.3-.4.4-.6.1-.1.2-.2.2-.4.1-.1.1-.2.1-.3 0-.1.1-.2.1-.3h.1v.4s0 .1.1.1h.1c.1-.1.2-.3.2-.4.1-.2.2-.5.3-.7 0-.1 0-.1.1-.2 0-.2.1-.5.1-.7 0 0 0-.1.1-.1 0 0 .1 0 .1.1v.5s.1 0 .1-.1c.1-.1.1-.2.1-.3.1-.2.1-.4.2-.5v-.1c0-.1.1-.2.1-.3 0-.1 0-.3.1-.4 0 0 0-.1.1-.1l.1.1V29.5v-.4-.6c0-.3-.1-.5-.2-.8v-.1c0 .1.1.2.2.2l.3.6s.1 0 .1.1v-.1-1.1-.1-.3c0-.1 0-.2-.1-.4v-.2c0-.2-.1-.4-.1-.6 0-.2-.1-.4-.2-.6 0-.1-.1-.2-.1-.3v-.1-.1h.1c.1.2.2.3.3.5.1.1.2.3.2.4l.1.1s.1-.1 0-.1v-.3c-.1-.4-.2-.8-.4-1.2 0-.1-.1-.2-.1-.3-.1-.2-.2-.5-.3-.7 0 0 0-.1-.1-.1l-.3-.6c-.1-.1-.1-.2-.2-.3v-.1h.1l.3.3.3.3h.1v-.1c0-.1 0-.1-.1-.2 0-.2-.2-.5-.3-.7-.1-.2-.3-.4-.4-.6 0-.1-.1-.1-.2-.1l-.1-.1c0-.1.1-.1.1-.1s.1 0 .1-.1l.9-.6c.3-.2.5-.5.7-.8.1-.2.2-.4.3-.7.1-.2.1-.5.1-.7v-1.3c0-.2 0-.3-.1-.5 0-.2-.1-.3-.2-.5-.1-.4-.3-.7-.5-1 0-.1-.1-.1-.1-.1-.2-.1-.3-.3-.5-.4-.1-.1-.2-.1-.3-.2-.1-.1-.2 0-.2.1-.1.2-.2.4-.2.6-.1.3-.2.5-.4.8-.1.2-.3.5-.5.7-.3.4-.6.7-.8 1.1-.1.2-.3.4-.4.5-.1.1-.1.3 0 .4.1.2.3.3.5.3.1 0 .2.1.3.1l.1.1-.1.1h-.1c-.1 0-.3.1-.4.1-.1 0-.1.1 0 .1 0 0 0 .1.1.1.1.1.2.1.4.2.2 0 .3.1.5.1l.1.1-.1.1c-.1 0-.1.1-.2.1v.1c.2 0 .3.1.5.2l.2.2c0 .1.1.1.1 0l.4-.4c.1-.1.1-.1.1 0s.1.1.1.2h.1l.1-.1h.1v.1l-.4.4c-.1.1-.1 0-.1-.1v-.2c0-.1-.1-.1-.1 0-.1.1-.2.3-.3.4l-.1.1-.1-.1c-.1-.2-.1-.3-.3-.5-.1-.1-.2-.2-.4-.3-.1-.1-.2-.1-.3-.1 0 0-.1 0-.1-.1l.1-.1.1-.1c.1-.1 0-.1-.1-.1-.2 0-.4 0-.5-.1h-.1c-.2 0-.3-.1-.4-.2v-.2c.1 0 .2-.1.3-.1l.1-.1-.1-.1c-.2-.1-.3-.2-.5-.3-.1-.1-.2-.2-.2-.4V17c0-.2.1-.3.2-.5l.1-.1-.1-.1c-.3-.1-.5 0-.7.2-.1.1-.2.1-.3 0-.2-.1-.5-.2-.7-.4-.2-.1-.4-.2-.5-.2-.1-.1-.2-.1-.4-.1-.2-.1-.3-.1-.5-.2-.3-.1-.6-.2-.9-.2-.2 0-.4-.1-.6-.1h-1.7c-.8.1-1.5.1-2.3 0-.8-.1-1.7-.1-2.5 0-.2.1-.5.1-.7.2H20c-.1 0-.1.1-.2.1-.2.1-.3.1-.5.1-.1 0-.1.1-.2.1H19c-.1 0-.2.1-.2.1h-.1c-.1.1-.3.1-.4.2-.2.1-.4.2-.5.2-.1.1-.2 0-.3 0-.2-.2-.4-.3-.7-.2-.1 0-.1.1-.1.2.1.1.2.2.2.3.1.3 0 .6-.2.9-.1.1-.3.2-.4.3l-.1.1.1.1c.1 0 .2.1.3.1l.1.1c0 .1 0 .1-.1.1-.1.1-.3.2-.4.2h-.1c-.2.1-.3.1-.5.1-.1 0-.1.1-.1.1 0 .1.1.1.2.1l.1.1-.1.1c-.1 0-.2 0-.3.1h-.1-.1c-.1.1-.3.2-.4.4 0 .1-.1.2-.1.3 0 0 0 .1-.1.1 0 0-.1 0-.1-.1 0 0 0-.1-.1-.1-.1-.1-.1-.2-.2-.3 0 0-.1 0-.1-.1V19.6s0 .1-.1.1h-.1l-.2-.2c-.1-.1-.2-.3-.3-.4V19h.1c.1.1.1.2.2.2.1.1.1.1.2-.1 0-.1.1-.1.1-.1h.1c.1.1.2.2.3.4.1.1.1.1.2 0l.2-.2c.1 0 .1-.1.2-.1.1-.1.1-.1.2-.1h.1s0-.1-.1-.1-.1-.1-.2-.1l-.1-.1s0-.1.1-.1h.2c.1 0 .2 0 .3-.1.1 0 .3-.1.4-.2l.1-.1c.1-.1 0-.1 0-.2-.1-.1-.2-.1-.4-.1 0 0-.1 0-.1-.1l.1-.1c.2-.1.4-.1.6-.2.2-.1.3-.3.2-.5 0-.1-.1-.2-.1-.2-.1-.2-.2-.3-.4-.5-.2-.3-.5-.6-.7-.9-.1-.2-.3-.4-.4-.6l-.3-.6c-.1-.3-.3-.6-.4-.9 0-.1-.1-.1-.2-.1s-.2.1-.3.1c-.2.1-.4.3-.6.5-.1.1-.2.3-.4.5-.1.2-.2.4-.3.5 0 0 0 .1-.1.1 0 .1 0 .1-.1.2 0 .1 0 .1-.1.2v.4c-.1.4-.1.8-.1 1.2 0 .2.1.5.1.7 0 .3.2.6.3.9.1.2.2.3.3.4.1.2.3.3.5.5.1.1.3.2.4.3.2.1.3.3.6.4l.1.1v.1c-.1 0-.2.1-.3.2-.1.2-.3.4-.4.6l-.3.6V22s.1 0 .1-.1c0 0 0-.1.1-.1.2-.2.4-.3.6-.5h.1v.1c0 .1-.1.2-.2.2-.1.1-.2.2-.2.3-.1.3-.3.5-.4.9-.1.2-.2.3-.2.5-.1.2-.1.4-.2.5-.1.2-.1.4-.2.6 0 .2-.1.4-.1.5v.1c.1-.1.1-.2.2-.2 0 0 0-.1.1-.1.1-.2.2-.4.3-.5.1-.1.1-.2.2-.2v.2c0 .1 0 .2-.1.3-.1.2-.2.5-.2.7-.1.3-.1.5-.1.8 0 .3-.1.7-.1 1 0 .2 0 .5-.1.7v.1s0-.1.1-.1c.1-.1.1-.3.2-.4.1-.1.1-.3.2-.4 0-.1.1-.1.2-.2v.1c0 .2-.1.4-.1.5v.3c0 .2 0 .4-.1.6.7.8.7 1.1.7 1.5v.1l.1.1s.1 0 .1-.1v-.1s0-.1.1-.1l.1.1c0 .2 0 .3.1.5 0 .1.1.3.1.4 0 .1 0 .1.1.2.1.2.2.5.3.7 0 0 .1 0 .1.1v-.1-.3-.1c.1.1.2.2.2.3v.3c0 .1.1.3.1.4v.1c.1.2.1.3.2.5s.2.3.2.5c0 0 .1.1.1 0 0 0 .1 0 .1-.1V33v-.3l.1-.1.1.1s0 .1.1.1l.3.6c.1.1.2.3.3.4.2.2.4.4.5.7 0 0 .1.1.2.1 0-.1 0-.1.1-.2v-.3-.1h.1l.1.1c.1.3.2.6.4.8.1.2.3.3.4.5 0 0 .1 0 .1.1v-.1c-.1-.3-.1-.6-.1-.9v-.1h.1c.1.1.3.2.4.3l.1.1.5.5c.1.1.1.2.2.2.1.1.2.3.3.4h.1v-.1c0-.1-.1-.2-.1-.3-.1-.2-.2-.3-.2-.5-.1-.2-.1-.4-.2-.6l-.3-.9c-.1-.4-.1-.8.1-1.2.1-.1.1-.3.2-.5.1-.1.1-.3.2-.4.1-.1.1-.1.1-.2v-.1.1c-.1.2-.1.4-.2.7-.1.2-.1.5-.1.7v.1l.3.3c.2.2.4.4.7.5.1 0 .1.1.2.1l.6.3.1.1c-.1.1-.2.1-.3 0-.2-.1-.3-.1-.5-.2-.1-.1-.3-.1-.4-.2-.2-.1-.4-.3-.6-.4h-.1v.1c0 .2.1.4.1.5 0 .1 0 .2.1.2l.1.1c.1.1.2.1.3.2.1.1.3.1.4.2.2.1.4.1.6.2.1 0 .2.1.3.1.2 0 .3.1.5.1h0-1.1c-.2 0-.4-.1-.6-.2-.1 0-.2-.1-.3-.1-.1 0-.1 0-.1.1s.1.1.1.2.2.2.3.3c.2.1.3.1.5.2.3.1.7.1 1.1.1h.9c-.2 0-.4.1-.5.1-.4.1-.9.1-1.3 0h-.2-.1v.1l.1.1c.1.1.2.1.3.2.2.1.4.1.7.1.3 0 .7-.1 1-.1.1 0 .2 0 .2-.1H23.6s0 .1-.1.1c-.2.1-.3.2-.5.2h-.1c-.1 0-.1 0-.2.1-.1 0-.3 0-.4.1-.1 0-.1 0-.1.1s.1.1.1.1h.2c.1.1.3.1.4.1.2 0 .4 0 .6-.1.1 0 .1 0 .2-.1s.3-.1.4-.2c.2-.1.5-.2.7-.3.1 0 .1-.1.1-.1v-.1-1c0-.2-.1-.2-.2-.2h-.1c-.2-.1-.5-.3-.6-.5-.2-.3-.5-.6-.8-.8-.2-.2-.5-.4-.6-.7-.1-.3-.1-.5-.1-.8v-.1.1c0 .1 0 .2.1.4s.3.4.5.5c.2.1.4.3.7.4.2.1.4.2.5.4.1.1.1.2.1.3-.1 0-.1 0-.2-.1l-.1-.1H24v.1c.1.1.1.2.2.4s.3.3.5.4c.1.1.2.1.3 0 .1-.1.1-.1.2 0s.2.1.2 0c.2-.1.4-.2.5-.4.1-.1.1-.1.1-.2v-.1s-.1 0-.1.1c-.1 0-.1.1-.2.1 0-.1 0-.2.1-.3.2-.2.4-.4.7-.5.1-.1.2-.1.3-.1.2-.1.3-.2.5-.3l.1-.1.3-.6V32v.1c.1.4 0 .8-.3 1.1-.2.2-.4.3-.6.5-.2.2-.4.3-.5.5-.1.2-.3.4-.4.5-.1.1-.2.1-.4.2-.2 0-.2.1-.3.3-.1.3-.1.7 0 1 0 .1.1.1.2.2.2.1.3.1.5.2.1.1.2.1.4.2.1.1.3.1.4.2.2.1.4.1.6.1.1 0 .2 0 .3-.1.1 0 .2-.1.3-.1 0 0 .1 0 .1-.1s0-.1-.1-.1c-.2 0-.5-.1-.7-.2h-.1c-.2 0-.3-.1-.5-.2h.2c.1 0 .2.1.4.1h.2c.3.1.6.1.9.1.3 0 .5-.1.8-.3l.1-.1s0-.1.1-.1h-.1c-.4.1-.7 0-1.1 0h-.5c-.2 0-.3-.1-.5-.1H27h1.3c.4 0 .8-.1 1.2-.3.2-.1.3-.3.4-.5V35h-.1c-.2.1-.4.1-.6.2-.4.1-.9.1-1.3.1h-.1s.1 0 .1-.1c.1 0 .3 0 .4-.1.1 0 .3-.1.4-.1.1 0 .1 0 .2-.1.1 0 .2-.1.4-.1l.6-.3c.2-.1.3-.2.3-.4v-.4-.1h-.1c-.1.1-.3.2-.4.3l-.6.3c-.1.1-.3.1-.4.2-.5 0-.6 0-.7-.1zM17.2 15.8h.2c.1 0 .2-.1.1-.2v-.1c-.2-.2-.4-.4-.5-.6l-.5-.5c-.1-.1-.2-.2-.4-.3-.2-.1-.3-.2-.5-.3-.1 0-.1-.1-.2-.1s-.1.1-.1.2v.1c.1.1.1.3.2.4.1.2.3.4.4.6.2.2.4.5.7.6.1.1.3.2.6.2zm15.5 0c.1 0 .3 0 .4-.1.1 0 .2-.1.3-.1.2-.1.4-.2.5-.4.2-.3.4-.5.6-.8.1-.1.1-.3.2-.5 0 0 0-.1-.1-.2h-.2c-.1.1-.2.1-.3.2-.1.1-.3.2-.4.3-.2.1-.3.3-.5.4-.3.2-.5.5-.7.7 0 0-.1.1-.1.2s0 .1.1.1c0 .2.1.2.2.2z" fill-rule="evenodd" clip-rule="evenodd" fill="url(#SVGID_2_)"/><radialGradient id="SVGID_3_" cx="24.512" cy="26.552" r="16.814" gradientUnits="userSpaceOnUse"><stop offset="0" stop-color="#e1e1e1"/><stop offset=".425" stop-color="#a2a6a7"/><stop offset="1" stop-color="#465053"/></radialGradient><path d="M16 31.8v-.3c0-.2-.1-.4-.2-.6 0-.1-.1-.3-.2-.4-.1-.2-.3-.4-.5-.6-.1-.1-.2-.2-.2-.4v-.1c.1-.8.1-1.5 0-2.2-.1-.4-.1-.9-.2-1.3v-.2c-.1-.3-.1-.6-.2-.9 0-.2 0-.3.1-.5s.1-.3.2-.5c0-.1.1-.2.1-.3.2-.3.3-.6.5-.9.1-.1.1-.2.1-.3.1-.3.3-.5.4-.8.1-.2.3-.3.4-.4.1-.1.3-.2.4-.3.2-.1.4-.2.5-.4.1-.1.3-.2.4-.3.2-.1.4-.3.6-.4h.1v.1c-.3.3-.5.6-.8.8-.2.3-.5.5-.7.8-.2.2-.3.4-.4.5-.2.3-.3.5-.5.8 0 .1-.1.2-.1.2l-.3.9c0 .2 0 .3-.1.5-.1.6-.1 1.1-.1 1.7 0 .4 0 .7.1 1.1 0 .3.1.6.1.9.1.3.2.7.2 1 0 .2.1.4.1.6.1.2.1.4.2.6v.2c.1.2.1.4.2.6 0 .1.1.2.1.3l.3.6c.1.3.4.5.6.7.2.1.4.3.7.3h.2c.1 0 .2 0 .3.1.2.2.3.5.5.7.1.1.2.2.2.4v.1H19l-.5-.5c-.2-.2-.4-.3-.7-.2-.2 0-.3.2-.4.4 0 .1-.1.1-.1.2s-.1 0-.1 0c0-.2-.1-.4-.1-.6 0-.2-.2-.3-.3-.5l-.6-.6c-.1-.4-.2-.5-.2-.6z" fill-rule="evenodd" clip-rule="evenodd" fill="url(#SVGID_3_)"/><radialGradient id="SVGID_4_" cx="24.512" cy="26.552" r="16.814" gradientUnits="userSpaceOnUse"><stop offset="0" stop-color="#e1e1e1"/><stop offset=".425" stop-color="#a2a6a7"/><stop offset="1" stop-color="#465053"/></radialGradient><path d="M30.7 33.9v-.1c.1-.2.2-.3.3-.5.1-.2.2-.3.3-.5 0-.1.1-.1.1-.2h.1c.2.1.5 0 .7-.1.3-.2.6-.5.8-.7 0-.1.1-.1.1-.2.1-.2.2-.3.3-.5.1-.1.1-.2.1-.4.1-.2.1-.3.2-.5s.1-.4.2-.6c0-.1 0-.2.1-.3l.3-1.2c0-.1.1-.2.1-.4s0-.4.1-.7c0-.3.1-.6.1-.9v-1.3c0-.3-.1-.7-.1-1 0-.2-.1-.4-.2-.6v-.1c0-.3-.2-.5-.3-.8-.1-.3-.3-.5-.5-.7-.1-.2-.3-.3-.4-.5-.1-.2-.3-.3-.4-.5l-.3-.3-.5-.5-.2-.2-.2-.2c.1 0 .1.1.2.1.1.1.2.1.3.2.3.2.6.5.9.7.3.2.6.4.9.7.1.1.2.2.2.4 0 .1.1.2.1.3.1.1.1.3.2.4.1.1.1.2.2.3.1.1.1.3.2.4.1.1.1.2.2.4.1.1.1.3.2.4 0 0 0 .1.1.1.1.2.1.4.2.6v.2c0 .1 0 .2-.1.3 0 .2-.1.4-.1.5 0 .2 0 .3-.1.5-.1.4-.1.8-.2 1.2-.1.5-.1 1-.1 1.5v.8c0 .2-.1.4-.2.5-.2.3-.5.5-.6.9 0 .1-.1.2-.2.4 0 .2-.1.4-.1.5 0 .2-.1.3-.2.4-.3.2-.5.4-.7.7-.2.2-.2.5-.3.7v.2l-.1.1-.1-.1c0-.1-.1-.2-.2-.3-.2-.2-.4-.2-.6 0-.2.1-.4.3-.6.5v.1c-.1-.1-.1-.1-.2-.1z" fill-rule="evenodd" clip-rule="evenodd" fill="url(#SVGID_4_)"/><radialGradient id="SVGID_5_" cx="24.512" cy="26.552" r="16.814" gradientUnits="userSpaceOnUse"><stop offset="0" stop-color="#e1e1e1"/><stop offset=".425" stop-color="#a2a6a7"/><stop offset="1" stop-color="#465053"/></radialGradient><path d="M18.3 21v.1l-.3.6c-.1.1-.1.3-.2.5s-.1.4-.2.6c-.1.2-.1.4.1.6l.3.3c.1.1.2.1.2.2v.1H17.9c-.1 0-.2-.1-.4-.1h-.2c-.3 0-.5.1-.7.4-.1.1-.1.2-.2.4-.1.3-.1.6-.2.8-.1.5-.1.9 0 1.4 0 .4.1.7.1 1.1 0 .2.1.3.2.4l.2.2c.1.1.2.2.4.2.1.1.2.1.3.1.1.1.3.1.4.2.2.1.4.2.6.2.2.1.4.1.7.2.1 0 .3.1.3.2h-.2c-.5 0-.9-.1-1.4-.1-.3 0-.6-.1-.8-.2-.1 0-.2 0-.2.1-.1.3 0 .6.1 1 .2.3.4.6.7.8l.6.6s.1 0 .1.1v.1h-.1-.1c-.2-.1-.4-.3-.6-.4-.3-.2-.6-.4-.9-.7-.1-.1-.2-.3-.3-.5-.1-.2-.1-.4-.2-.7 0-.4-.1-.7-.1-1.1 0-.3 0-.5-.1-.8 0-.3-.1-.5-.1-.8v-2-.2c0-.2.1-.4.2-.6.1-.1.1-.2.1-.3.1-.1.2-.3.3-.4.1-.2.3-.5.4-.7.1-.2.3-.4.4-.6.2-.2.3-.4.5-.7.1-.1.1-.2.2-.2.3-.4.3-.4.4-.4z" fill-rule="evenodd" clip-rule="evenodd" fill="url(#SVGID_5_)"/><radialGradient id="SVGID_6_" cx="24.512" cy="26.552" r="16.814" gradientUnits="userSpaceOnUse"><stop offset="0" stop-color="#e1e1e1"/><stop offset=".425" stop-color="#a2a6a7"/><stop offset="1" stop-color="#465053"/></radialGradient><path d="M30.2 29.5c.1 0 .2-.1.3-.1.2-.1.4-.1.6-.2.1 0 .3-.1.4-.2.1 0 .1 0 .2-.1 0 0 .1 0 .1-.1h.1c.2 0 .3-.2.5-.3.2-.1.3-.2.5-.3l.2-.2c.1-.1.2-.3.2-.5 0-.6.1-1.2.1-1.8 0-.3 0-.6-.1-.9 0-.2-.1-.4-.1-.6-.1-.3-.3-.5-.6-.6h-.7c-.1 0-.1 0-.2.1h-.2-.1v-.1c.1 0 .1-.1.2-.1.3-.2.4-.5.4-.8 0-.3-.1-.5-.2-.8-.1-.2-.2-.4-.3-.7 0-.1-.1-.2-.1-.3v-.1l.1.1.1.1.2.2c.1.2.2.3.3.5.1.2.3.4.4.6.2.2.3.5.5.7.1.2.2.3.3.5l.3.6c0 .1 0 .2.1.3V25.8c0 .6-.1 1.2-.1 1.8 0 .3-.1.6-.1.9 0 .4-.1.7-.1 1.1 0 .2-.1.3-.2.5-.2.3-.4.6-.7.8-.1.1-.3.2-.5.3-.1.1-.3.2-.4.3 0 0-.1 0-.1.1-.1 0-.1.1-.2.1h-.1-.1v-.1c.2-.2.4-.3.5-.5l.5-.5.2-.2c.3-.4.4-.9.4-1.4 0-.1-.1-.1-.2-.1s-.2.1-.3.1c-.5.1-1 .2-1.5.2h-.4c0 .4-.1.4-.1.3 0 .1 0 0 0 0z" fill-rule="evenodd" clip-rule="evenodd" fill="url(#SVGID_6_)"/><radialGradient id="SVGID_7_" cx="24.512" cy="26.552" r="16.814" gradientUnits="userSpaceOnUse"><stop offset="0" stop-color="#e1e1e1"/><stop offset=".425" stop-color="#a2a6a7"/><stop offset="1" stop-color="#465053"/></radialGradient><path d="M21.9 28.8v-.4c0-.2.1-.5.1-.7 0-.2.1-.5.1-.7v-.4c0-.2-.1-.3-.2-.5 0-.1-.1-.1-.2-.1-.2 0-.5.1-.7.1-.2 0-.4 0-.7-.1-.3-.1-.6-.3-.7-.6-.1-.1-.1-.3-.1-.4 0-.1-.1-.2-.3-.3H19h-.1v-.1c.1 0 .1-.1.2-.1l.6-.3c.1 0 .1-.1.2-.1.2 0 .4 0 .6.1.1 0 .3.1.4.2.1.1.3.1.4.2.2.2.5.3.6.6.2.2.3.5.3.8 0 .2 0 .5.1.7 0 .2 0 .3.1.5v.3c-.1.1-.1.3-.1.4-.1.2-.1.3-.2.5 0 .1-.1.2-.2.4.1 0 .1 0 0 0 .1 0 .1 0 0 0zm-1.3-3c.3 0 .5-.1.6-.4.1-.1.1-.3 0-.4l-.1-.1s-.1 0-.1.1l-.3.3c-.1.1-.2 0-.3-.1-.1-.1 0-.1 0-.2v-.2l-.1-.1c0-.1-.1-.1-.1-.1-.1 0-.1 0-.2.1s-.1.2-.1.3v.5c.2.1.4.3.7.3z" fill-rule="evenodd" clip-rule="evenodd" fill="url(#SVGID_7_)"/><radialGradient id="SVGID_8_" cx="24.512" cy="26.552" r="16.814" gradientUnits="userSpaceOnUse"><stop offset="0" stop-color="#e1e1e1"/><stop offset=".425" stop-color="#a2a6a7"/><stop offset="1" stop-color="#465053"/></radialGradient><path d="M28.7 26h-.8s-.1 0-.1.1c-.1.1-.1.2-.1.3-.1.2-.1.5 0 .7.1.4.1.8.2 1.2v.1h-.1c-.1-.2-.1-.3-.2-.5s-.1-.3-.2-.5c0-.1-.1-.2-.1-.3.1-.5.1-.9.2-1.4 0-.1 0-.3.1-.4.2-.3.4-.6.7-.8.1-.1.2-.1.2-.2h.1c.1-.1.3-.1.4-.2.2-.1.4-.1.6-.1.2 0 .3 0 .5.1.1.1.2.1.3.2.1.1.2.1.3.2v.1c0 .1 0 .1-.1.1h-.2c-.1 0-.2.1-.2.3 0 .3-.1.6-.4.8-.4.2-.7.3-1.1.2zm.4-.2c.2 0 .3-.1.4-.1.2-.1.3-.3.4-.5.1-.2 0-.4-.1-.6-.1-.1-.1-.1-.2-.1s-.2 0-.2.1c0 0 0 .1-.1.1-.1.1-.1.1 0 .3v.1c-.1.1-.2.1-.3.1-.1 0-.2-.1-.2-.2s-.1-.1-.2-.1-.1.1-.1.2 0 .3.1.4c.1.2.3.2.5.3z" fill-rule="evenodd" clip-rule="evenodd" fill="url(#SVGID_8_)"/><radialGradient id="SVGID_9_" cx="24.512" cy="26.552" r="16.814" gradientUnits="userSpaceOnUse"><stop offset="0" stop-color="#e1e1e1"/><stop offset=".425" stop-color="#a2a6a7"/><stop offset="1" stop-color="#465053"/></radialGradient><path d="M21 27.9c-.2 0-.3-.1-.4-.1-.2-.1-.4-.1-.7-.1-.4 0-.9 0-1.3.1-.2.1-.5.1-.7.2-.1 0-.2.1-.3.1-.1.1-.3 0-.3-.2 0-.3 0-.6.1-.9.1-.4.2-.8.2-1.2 0-.2.1-.4.1-.5l.1-.1v1.6c0 .2.1.4.3.5h.8c.4 0 .8 0 1.2.1.2.1.5.2.7.3l.2.2z" fill-rule="evenodd" clip-rule="evenodd" fill="url(#SVGID_9_)"/><radialGradient id="SVGID_10_" cx="24.512" cy="26.552" r="16.814" gradientUnits="userSpaceOnUse"><stop offset="0" stop-color="#e1e1e1"/><stop offset=".425" stop-color="#a2a6a7"/><stop offset="1" stop-color="#465053"/></radialGradient><path d="M32 25.1c.1.2.2.3.2.4.1.4.1.7.2 1.1.1.4.1.8.1 1.2 0 .1 0 .2-.1.2s-.2 0-.3-.1c0 0-.1 0-.2-.1-.3-.1-.7-.2-1-.2-.2 0-.4 0-.6-.1-.3 0-.6 0-.9.1-.1 0-.2 0-.3.1H29s0-.1.1-.1c.2-.1.4-.1.5-.2h.1c.4-.1.8-.1 1.1-.1h.6c.2 0 .3-.2.4-.4.1-.3.1-.6.1-.9 0-.2-.1-.5-.1-.7.1 0 .1-.1.2-.2z" fill-rule="evenodd" clip-rule="evenodd" fill="url(#SVGID_10_)"/><radialGradient id="SVGID_11_" cx="24.512" cy="26.552" r="16.814" gradientUnits="userSpaceOnUse"><stop offset="0" stop-color="#e1e1e1"/><stop offset=".425" stop-color="#a2a6a7"/><stop offset="1" stop-color="#465053"/></radialGradient><path d="M21.7 23.2v.2c0 .3.1.5.2.7v.2c0 .1 0 .1.1.2s.1.2.2.3v.2h-.1c-.1-.1-.2-.3-.3-.4-.1-.1-.2-.3-.4-.4-.1-.1-.3-.2-.4-.3-.1 0-.1-.1-.2-.1-.1-.1-.3-.1-.4-.2-.1 0-.1-.1-.2-.1-.2-.1-.5-.1-.8-.2-.2 0-.4 0-.6-.1-.1 0-.2-.1-.1-.2.2-.4.5-.8.9-1.2.2-.2.4-.4.6-.5h.1v.1l-.3.3c-.1.2-.3.3-.3.5-.1.1 0 .3 0 .4 0 .1.1.1.2.2s.2.1.3.2c.2.2.4.3.6.5.1.1.3.2.4.3h.2c0-.1.1-.2.1-.2.2-.2.2-.3.2-.4z" fill-rule="evenodd" clip-rule="evenodd" fill="url(#SVGID_11_)"/><radialGradient id="SVGID_12_" cx="24.512" cy="26.552" r="16.814" gradientUnits="userSpaceOnUse"><stop offset="0" stop-color="#e1e1e1"/><stop offset=".425" stop-color="#a2a6a7"/><stop offset="1" stop-color="#465053"/></radialGradient><path d="M29.3 21.3c.1 0 .1 0 0 0 .5.3.9.7 1.2 1.1.2.2.3.5.4.7 0 .1 0 .1-.1.1h-.3c-.1 0-.3 0-.4.1h-.2c-.1 0-.2 0-.3.1h-.1c-.2 0-.4.2-.7.2-.3.1-.5.3-.7.5l-.3.3c-.1.1-.2.2-.3.4 0 0-.1 0-.1.1v-.1c.1-.1.1-.3.2-.4v-.1c.1-.3.2-.6.3-.8l.1-.1.1.1V23.8c.1.1.1.1.2 0s.2-.2.4-.2c.1 0 .1-.1.2-.1.2-.1.3-.2.5-.4.1-.1.2-.2.3-.2.2-.1.2-.3.1-.5-.1-.3-.3-.5-.6-.8.1-.2.1-.2.1-.3z" fill-rule="evenodd" clip-rule="evenodd" fill="url(#SVGID_12_)"/><radialGradient id="SVGID_13_" cx="24.512" cy="26.552" r="16.814" gradientUnits="userSpaceOnUse"><stop offset="0" stop-color="#e1e1e1"/><stop offset=".425" stop-color="#a2a6a7"/><stop offset="1" stop-color="#465053"/></radialGradient><path d="M24.9 17.7v.2c.1.8.2 1.6.2 2.4 0 .5 0 .9-.1 1.4 0 .3-.1.7-.1 1v.1l-.1.1-.1-.1c0-.1-.1-.3-.1-.4-.1-.7-.1-1.4-.1-2.1 0-.6.1-1.2.1-1.7 0-.2.1-.4.1-.6.2-.2.2-.3.2-.3z" fill-rule="evenodd" clip-rule="evenodd" fill="url(#SVGID_13_)"/><radialGradient id="SVGID_14_" cx="24.512" cy="26.552" r="16.814" gradientUnits="userSpaceOnUse"><stop offset="0" stop-color="#e1e1e1"/><stop offset=".425" stop-color="#a2a6a7"/><stop offset="1" stop-color="#465053"/></radialGradient><path d="M26.5 18.1c.2 0 .4 0 .6-.1.3-.1.5 0 .7.1.1.1.2.1.3.2.1.1.2.1.2.2.2.2.4.3.7.5.1 0 .1.1.2.1.3.2.5.3.8.5h.2c.1 0 .1.1.2.1v.1h-.1c-.2 0-.4-.1-.6-.1-.2 0-.3-.1-.4-.2-.1-.1-.3-.2-.4-.2l-.6-.3c-.1 0-.2-.1-.2-.1-.2-.1-.4-.1-.6 0-.1 0-.3 0-.4-.1-.1-.1-.2-.2-.4-.3l-.1-.1c-.1 0-.2-.1-.1-.2-.1-.1 0-.1 0-.1z" fill-rule="evenodd" clip-rule="evenodd" fill="url(#SVGID_14_)"/><radialGradient id="SVGID_15_" cx="24.512" cy="26.552" r="16.814" gradientUnits="userSpaceOnUse"><stop offset="0" stop-color="#e1e1e1"/><stop offset=".425" stop-color="#a2a6a7"/><stop offset="1" stop-color="#465053"/></radialGradient><path d="M22.5 18c.1 0 .3.1.4.1h.5s.1 0 .1.1v.1l-.1.1c-.1.1-.2.1-.3.2-.1.1-.3.2-.4.3h-.1c-.2 0-.5 0-.7.1-.2.1-.3.2-.5.3-.1.1-.2.1-.4.2-.1.1-.2.1-.3.2-.1 0-.2.1-.3.1h-.1c-.2.1-.4.1-.6.2h-.1s0-.1.1-.1h.1c.2 0 .3-.1.5-.2s.3-.2.5-.3c.2-.2.4-.3.7-.5.2-.2.4-.3.6-.4.1-.1.3-.1.4-.2-.1-.3 0-.3 0-.3z" fill-rule="evenodd" clip-rule="evenodd" fill="url(#SVGID_15_)"/><radialGradient id="SVGID_16_" cx="24.512" cy="26.552" r="16.814" gradientUnits="userSpaceOnUse"><stop offset="0" stop-color="#e1e1e1"/><stop offset=".425" stop-color="#a2a6a7"/><stop offset="1" stop-color="#465053"/></radialGradient><path d="M19.7 18.3l.2-.2c.1-.1.3-.2.4-.3.2-.1.4-.3.6-.4.1-.1.2-.1.3-.1.2-.1.4-.1.6-.2.2-.1.3-.1.5-.2s.3-.1.5-.2c.1 0 .2-.1.3-.1.2-.1.3-.1.5-.1.3.1.6.1.9.1h.1s.1 0 .1.1v.1c-.3.1-.5.2-.7.2h-.5c-.1 0-.2.1-.3.1H23c-.2.1-.4.1-.7.2-.1 0-.3.1-.4.1-.2.1-.5.1-.7.2-.2.1-.5.2-.7.3-.1.1-.2.1-.3.2-.1.1-.3.1-.5.2.1 0 .1 0 0 0z" fill-rule="evenodd" clip-rule="evenodd" fill="url(#SVGID_16_)"/><radialGradient id="SVGID_17_" cx="24.512" cy="26.552" r="16.814" gradientUnits="userSpaceOnUse"><stop offset="0" stop-color="#e1e1e1"/><stop offset=".425" stop-color="#a2a6a7"/><stop offset="1" stop-color="#465053"/></radialGradient><path d="M30 18.3c-.1-.1-.2-.1-.3-.2-.1 0-.2-.1-.2-.1-.2-.1-.3-.2-.5-.3-.1-.1-.3-.1-.4-.1-.2-.1-.5-.1-.7-.2-.2-.1-.4-.1-.6-.1-.3-.1-.6-.2-.9-.2-.2 0-.3-.1-.5 0-.2 0-.4 0-.6-.1v-.1l.1-.1c.2 0 .4 0 .5-.1.2 0 .3-.1.5-.1s.3 0 .4.1h.1c.2.1.4.1.6.2.1 0 .3.1.4.2.1 0 .2.1.2.1.2.1.4.1.5.2.1.1.3.1.4.2 0 0 .1 0 .1.1.1.1.3.2.4.3.1.1.2.1.3.2h.1c0-.1.1 0 .1.1z" fill-rule="evenodd" clip-rule="evenodd" fill="url(#SVGID_17_)"/><radialGradient id="SVGID_18_" cx="24.512" cy="26.552" r="16.814" gradientUnits="userSpaceOnUse"><stop offset="0" stop-color="#e1e1e1"/><stop offset=".425" stop-color="#a2a6a7"/><stop offset="1" stop-color="#465053"/></radialGradient><path d="M24.2 16h-.4c-.4.1-.8.1-1.2.2-.2 0-.4.1-.7.1-.2 0-.3.1-.5.2-.1.1-.3.1-.4.2 0 0-.1 0-.1.1-.2.1-.5.2-.7.3-.2 0-.3.1-.5.2-.1 0-.1 0-.2.1-.1 0-.2.1-.3.1-.2.1-.3.1-.5.2-.1 0-.1 0-.2.1h-.1-.1v-.1c.1-.1.3-.2.4-.2h.1c.1 0 .1-.1.2-.1.1-.1.3-.1.4-.2.2-.1.3-.1.5-.2.1-.1.3-.1.4-.2.1 0 .2-.1.3-.2.2-.1.4-.3.6-.4.2-.1.3-.2.6-.2h2c.2-.1.3-.1.4 0z" fill-rule="evenodd" clip-rule="evenodd" fill="url(#SVGID_18_)"/><radialGradient id="SVGID_19_" cx="24.512" cy="26.552" r="16.814" gradientUnits="userSpaceOnUse"><stop offset="0" stop-color="#e1e1e1"/><stop offset=".425" stop-color="#a2a6a7"/><stop offset="1" stop-color="#465053"/></radialGradient><path d="M25.6 16s0-.1 0 0c.2 0 .2-.1.3-.1h2.2c.1 0 .1 0 .2.1.1 0 .2.1.3.2.1.1.2.1.3.2.2.1.3.2.5.3.1 0 .2.1.3.1.1.1.2.1.4.2s.3.1.5.2c.1.1.3.1.4.2.1 0 .1.1.2.1.1.1.2.1.3.2 0 .1-.1.1-.2 0-.2-.1-.4-.1-.6-.2-.2-.1-.4-.2-.6-.2-.2-.1-.3-.1-.5-.2s-.3-.1-.5-.2c-.1-.1-.3-.1-.4-.2-.1 0-.2-.1-.3-.2-.2-.1-.4-.2-.7-.2-.4-.1-.8-.1-1.2-.2-.3 0-.5-.1-.8-.1h-.1z" fill-rule="evenodd" clip-rule="evenodd" fill="url(#SVGID_19_)"/><radialGradient id="SVGID_20_" cx="24.512" cy="26.552" r="16.814" gradientUnits="userSpaceOnUse"><stop offset="0" stop-color="#e1e1e1"/><stop offset=".425" stop-color="#a2a6a7"/><stop offset="1" stop-color="#465053"/></radialGradient><path d="M27.5 22.6c-.1-.1-.1-.2-.2-.3-.1-.2-.2-.3-.3-.5-.1-.2-.3-.4-.5-.6l-.4-.4c-.2-.2-.3-.5-.4-.8v-.2c0-.2 0-.5.1-.7v-.2.1c0 .2.1.4.1.6.1.2.2.5.3.7.1.1.1.2.2.4 0 .1.1.1.1.2.2.2.3.5.4.7.1.3.3.5.4.8.2.1.2.2.2.2z" fill-rule="evenodd" clip-rule="evenodd" fill="url(#SVGID_20_)"/><radialGradient id="SVGID_21_" cx="24.512" cy="26.552" r="16.814" gradientUnits="userSpaceOnUse"><stop offset="0" stop-color="#e1e1e1"/><stop offset=".425" stop-color="#a2a6a7"/><stop offset="1" stop-color="#465053"/></radialGradient><path d="M24.1 19.4v.5c0 .2 0 .3-.1.5-.1.3-.4.6-.6.8-.2.3-.4.5-.7.8-.1.1-.1.2-.2.3-.1.1-.2.2-.2.4h-.1v-.1-.3-.1c0-.2.1-.3.2-.4.1-.1.1-.2.2-.4.1-.1.1-.2.2-.3l.3-.6v-.1c.1-.2.2-.4.3-.7.1-.2.2-.5.3-.7v-.1s.1 0 .1.1c.3.2.3.3.3.4z" fill-rule="evenodd" clip-rule="evenodd" fill="url(#SVGID_21_)"/><radialGradient id="SVGID_22_" cx="24.512" cy="26.552" r="16.814" gradientUnits="userSpaceOnUse"><stop offset="0" stop-color="#e1e1e1"/><stop offset=".425" stop-color="#a2a6a7"/><stop offset="1" stop-color="#465053"/></radialGradient><path d="M23 32.8l.1-.1c.3 0 .5 0 .8.1.2.1.4.2.6.2.3.1.6.1.9 0l.6-.3c.2-.1.5-.1.7 0l.1.1h-.5c-.1 0-.2.1-.3.2-.2.1-.3.2-.5.3-.2.1-.3.1-.5.2h-.1c-.3-.1-.5-.2-.8-.4-.1-.1-.2-.1-.2-.1-.3-.1-.5-.2-.9-.2.1 0 .1 0 0 0z" fill-rule="evenodd" clip-rule="evenodd" fill="url(#SVGID_22_)"/><radialGradient id="SVGID_23_" cx="24.512" cy="26.552" r="16.814" gradientUnits="userSpaceOnUse"><stop offset="0" stop-color="#e1e1e1"/><stop offset=".425" stop-color="#a2a6a7"/><stop offset="1" stop-color="#465053"/></radialGradient><path d="M21.5 27.5c-.1.1-.1 0-.1 0-.2-.2-.4-.4-.6-.5-.2-.1-.5-.3-.7-.3-.1 0-.2-.1-.3-.1-.2-.1-.3-.2-.4-.3-.2-.1-.3-.3-.4-.5-.1-.1-.2-.3-.2-.4v-.1-.1h.1c.1.1.1.1.1.2.2.3.4.5.7.6.1.1.2.1.3.2.1.1.3.1.4.2.3.2.7.3.9.7.1.1.1.2.2.4 0-.1 0-.1 0 0z" fill-rule="evenodd" clip-rule="evenodd" fill="url(#SVGID_23_)"/><radialGradient id="SVGID_24_" cx="24.512" cy="26.552" r="16.814" gradientUnits="userSpaceOnUse"><stop offset="0" stop-color="#e1e1e1"/><stop offset=".425" stop-color="#a2a6a7"/><stop offset="1" stop-color="#465053"/></radialGradient><path d="M31.1 25.3c-.2.4-.4.8-.7 1l-.6.3c-.2.1-.4.2-.6.2-.3.1-.5.2-.7.5 0 .1-.1.1-.2.1h-.1v-.1c.1-.2.3-.4.5-.6.1-.1.3-.2.4-.2.1-.1.2-.1.3-.2.1 0 .1 0 .2-.1h.1c.2-.2.5-.3.7-.5.3-.1.5-.2.7-.4-.1-.1 0-.1 0 0 0-.1 0-.1 0 0z" fill-rule="evenodd" clip-rule="evenodd" fill="url(#SVGID_24_)"/><radialGradient id="SVGID_25_" cx="24.512" cy="26.552" r="16.814" gradientUnits="userSpaceOnUse"><stop offset="0" stop-color="#e1e1e1"/><stop offset=".425" stop-color="#a2a6a7"/><stop offset="1" stop-color="#465053"/></radialGradient><path d="M24.2 21.4v.3c-.1.2-.1.4-.2.6 0 .1-.1.2-.1.2-.2.3-.4.5-.5.8-.1.1-.2.3-.2.4 0 .1-.1.2-.1.4V24v-.4c.1-.2.2-.4.2-.7 0-.1.1-.1.1-.2.2-.3.4-.5.6-.8.1-.1.1-.2.2-.4-.2.1-.1 0 0-.1z" fill-rule="evenodd" clip-rule="evenodd" fill="url(#SVGID_25_)"/><radialGradient id="SVGID_26_" cx="24.512" cy="26.552" r="16.814" gradientUnits="userSpaceOnUse"><stop offset="0" stop-color="#e1e1e1"/><stop offset=".425" stop-color="#a2a6a7"/><stop offset="1" stop-color="#465053"/></radialGradient><path d="M26.9 24c-.1-.2-.1-.3-.2-.4 0-.1-.1-.2-.2-.3-.2-.3-.4-.6-.7-.9-.1-.1-.1-.2-.1-.3-.1-.1-.1-.3-.1-.4v-.2-.1h.1c0 .1.1.2.1.2.1.2.2.3.3.5.1.2.2.3.4.5.1.2.2.3.3.5.1.2.1.4.1.6.1.2.1.3 0 .3.1 0 .1 0 0 0z" fill-rule="evenodd" clip-rule="evenodd" fill="url(#SVGID_26_)"/><radialGradient id="SVGID_27_" cx="24.512" cy="26.552" r="16.814" gradientUnits="userSpaceOnUse"><stop offset="0" stop-color="#e1e1e1"/><stop offset=".425" stop-color="#a2a6a7"/><stop offset="1" stop-color="#465053"/></radialGradient><path d="M28.2 20.5h-.1c-.1 0-.2-.1-.3-.1-.3-.1-.6-.2-.8-.4-.1-.1-.2-.1-.3-.2l-.1-.1c-.1-.1-.1-.2-.1-.2v-.1h.1c.1.1.2.1.3.2.2.2.4.3.5.5.1.1.2.1.3.2.2.1.4.1.5.3v-.1z" fill-rule="evenodd" clip-rule="evenodd" fill="url(#SVGID_27_)"/><radialGradient id="SVGID_28_" cx="24.512" cy="26.552" r="16.814" gradientUnits="userSpaceOnUse"><stop offset="0" stop-color="#e1e1e1"/><stop offset=".425" stop-color="#a2a6a7"/><stop offset="1" stop-color="#465053"/></radialGradient><path d="M21.6 20.5c-.1-.1 0-.1 0-.1l.6-.3c.1 0 .1-.1.2-.1l.3-.3c.2-.2.4-.3.5-.5h.1c.1 0 .1.1.1.1-.1.1-.1.2-.2.3 0 .1-.1.1-.2.1 0 .2-.2.3-.2.3-.1.1-.2.2-.4.2s-.3.1-.5.1h-.1c-.1.2-.1.2-.2.2z" fill-rule="evenodd" clip-rule="evenodd" fill="url(#SVGID_28_)"/></g><g><path class="st2" d="M18.6 4.9c.7-.2 1.2-.3 1.6-.4.3-.1.5-.1.9-.2.1 0 .2 0 .3-.1h.1s0 .1.1.3c0 .1.1.2.1.3 0 0 0 .1-.1.1 0 0-.1 0-.1-.1-.1-.1-.1-.2-.2-.2-.1-.1-.2-.1-.3-.1-.1 0-.3 0-.5.1 0 .2.1.4.1.7.1.3.1.5.2.8.1.3.1.4.1.5l.1.1h.4s0 .1-.1.1h-.1c-.1 0-.3 0-.4.1-.3 0-.5.1-.6.1-.1 0-.2 0-.2.1h-.1-.1s0-.1.1-.1.2-.1.2-.1c0-.1.1-.1.1-.2s-.1-.3-.1-.6c-.1-.5-.2-.9-.3-1.2-.2.1-.4.1-.5.1-.1 0-.2 0-.3.1-.1.1-.1.2-.1.3 0 .1 0 .1-.1.1h-.1v-.2c-.1-.1-.1-.3-.1-.4zM26.7 4.2v.6s0 .1-.1.1c0 0-.1 0-.1-.1-.1-.2-.2-.4-.4-.5-.2-.1-.4-.2-.6-.2-.3 0-.5.1-.7.3-.2.2-.2.5-.2.8 0 .3.1.6.3.8.2.2.4.3.6.3.1 0 .2 0 .3-.1.1 0 .2-.1.2-.1v-.2-.4c0-.1 0-.1-.1-.1 0 0-.1 0-.2-.1 0 0-.1 0-.1-.1 0 0 0-.1.1-.1h1.2s.1 0 .1.1h-.2c-.1 0-.1 0-.1.1 0 0 0 .2-.1.5v.1s-.1 0-.2.1-.3.1-.5.1h-.5c-.3 0-.5 0-.7-.1-.2-.1-.4-.2-.5-.4-.1.1-.2-.1-.2-.3 0-.3.1-.7.4-.9.2-.3.6-.4 1.1-.4.2 0 .3 0 .5.1.1 0 .3.1.5.2h.2s0-.1.1-.1c-.2-.1-.1 0-.1 0zM31.6 5s.1 0 .1-.1h.1V5c0 .2-.1.4-.1.6v.1s0 .1-.1.1v-.1c0-.1-.1-.3-.2-.5s-.3-.3-.5-.4h-.4l-.3.3c-.1.1-.2.3-.2.5-.1.3 0 .6.1.9.1.2.3.4.5.4.3.1.5 0 .8-.2h.1s.1 0 0 .1c0 .1-.2.2-.4.3-.2.1-.5.1-.8.1-.4-.1-.7-.3-.8-.5-.2-.3-.2-.6-.2-.9.1-.3.2-.6.5-.8.3-.2.6-.3 1-.2.3-.1.5 0 .8.2z"/></g></svg>