<?xml version="1.0" encoding="UTF-8"?>
<svg width="250px" height="250px" viewBox="0 0 250 250" version="1.1" xmlns="http://www.w3.org/2000/svg" xmlns:xlink="http://www.w3.org/1999/xlink">
    <!-- Generator: Sketch 52.6 (67491) - http://www.bohemiancoding.com/sketch -->
    <title>profile_eostower</title>
    <desc>Created with Sketch.</desc>
    <defs>
        <path d="M30.1239491,179.045652 L30.1239491,145.745652 L18.4239491,145.745652 L18.4239491,133.985652 L53.8839491,133.985652 L53.8839491,145.745652 L41.9439491,145.745652 L41.9439491,179.045652 L30.1239491,179.045652 Z M100.208565,156.605652 C100.208565,169.025652 90.128565,179.045652 77.708565,179.045652 C65.288565,179.045652 55.268565,169.025652 55.268565,156.605652 C55.268565,144.185652 65.288565,134.045652 77.708565,134.045652 C90.128565,134.045652 100.208565,144.185652 100.208565,156.605652 Z M88.448565,156.545652 C88.448565,150.605652 83.648565,145.805652 77.708565,145.805652 C71.828565,145.805652 67.028565,150.605652 67.028565,156.545652 C67.028565,162.425652 71.828565,167.285652 77.708565,167.285652 C83.648565,167.285652 88.448565,162.425652 88.448565,156.545652 Z M112.753181,179.045652 L97.9931809,134.045652 L109.993181,134.045652 L118.753181,160.865652 L123.133181,147.605652 L135.073181,147.605652 L139.453181,160.805652 L148.213181,134.045652 L160.213181,134.045652 L145.393181,179.045652 L133.453181,179.045652 L129.133181,165.725652 L124.693181,179.045652 L112.753181,179.045652 Z M161.297797,179.045652 L161.297797,134.045652 L189.257797,134.045652 L189.257797,143.825652 L173.117797,143.825652 L173.117797,151.145652 L187.397797,151.145652 L187.397797,161.105652 L173.117797,161.105652 L173.117797,169.385652 L189.257797,169.385652 L189.257797,179.045652 L161.297797,179.045652 Z M193.642413,179.045652 L193.642413,134.045652 L212.602413,134.045652 C221.722413,134.045652 229.162413,141.485652 229.162413,150.605652 C229.162413,155.405652 227.062413,159.725652 223.822413,162.725652 L233.362413,179.045652 L219.742413,179.045652 L212.782413,167.105652 L205.462413,167.105652 L205.462413,179.045652 L193.642413,179.045652 Z M205.462413,156.905652 L212.782413,156.905652 C216.382413,156.905652 219.262413,154.085652 219.262413,150.485652 C219.262413,146.885652 216.382413,144.005652 212.782413,144.005652 L205.462413,144.005652 L205.462413,156.905652 Z" id="path-1"></path>
        <filter x="-1.2%" y="-5.5%" width="102.3%" height="111.1%" filterUnits="objectBoundingBox" id="filter-2">
            <feGaussianBlur stdDeviation="0.5" in="SourceAlpha" result="shadowBlurInner1"></feGaussianBlur>
            <feOffset dx="1" dy="4" in="shadowBlurInner1" result="shadowOffsetInner1"></feOffset>
            <feComposite in="shadowOffsetInner1" in2="SourceAlpha" operator="arithmetic" k2="-1" k3="1" result="shadowInnerInner1"></feComposite>
            <feColorMatrix values="0 0 0 0 1   0 0 0 0 0.988887166   0 0 0 0 0.849352904  0 0 0 1 0" type="matrix" in="shadowInnerInner1"></feColorMatrix>
        </filter>
        <path d="M36.3567827,122.63062 L36.3567827,61.13062 L74.5687827,61.13062 L74.5687827,74.49662 L52.5107827,74.49662 L52.5107827,84.50062 L72.0267827,84.50062 L72.0267827,98.11262 L52.5107827,98.11262 L52.5107827,109.42862 L74.5687827,109.42862 L74.5687827,122.63062 L36.3567827,122.63062 Z M140.65626,91.96262 C140.65626,108.93662 126.88026,122.63062 109.90626,122.63062 C92.9322598,122.63062 79.2382598,108.93662 79.2382598,91.96262 C79.2382598,74.98862 92.9322598,61.13062 109.90626,61.13062 C126.88026,61.13062 140.65626,74.98862 140.65626,91.96262 Z M124.58426,91.88062 C124.58426,83.76262 118.02426,77.20262 109.90626,77.20262 C101.87026,77.20262 95.3102598,83.76262 95.3102598,91.88062 C95.3102598,99.91662 101.87026,106.55862 109.90626,106.55862 C118.02426,106.55862 124.58426,99.91662 124.58426,91.88062 Z M165.087737,122.63062 C151.639737,122.63062 142.455737,113.85662 142.455737,103.85262 L158.855737,103.85262 C158.855737,106.47662 161.233737,108.60862 164.841737,108.60862 C168.121737,108.60862 170.663737,106.72262 170.663737,103.85262 C170.663737,100.81862 167.875737,99.01462 164.677737,99.01462 C152.787737,99.01462 142.537737,90.56862 142.537737,80.07262 C142.537737,69.57662 151.803737,61.13062 164.841737,61.13062 C177.141737,61.13062 187.063737,69.49462 187.063737,79.99062 L170.745737,79.99062 C170.745737,77.44862 168.203737,75.23462 164.841737,75.23462 C161.315737,75.23462 158.937737,77.12062 158.937737,79.99062 C158.937737,82.86062 161.315737,84.82862 164.841737,84.82862 C177.387737,84.82862 187.063737,93.35662 187.063737,103.77062 C187.063737,114.26662 177.387737,122.63062 165.087737,122.63062 Z" id="path-3"></path>
        <filter x="-1.7%" y="-4.1%" width="103.3%" height="108.1%" filterUnits="objectBoundingBox" id="filter-4">
            <feGaussianBlur stdDeviation="0.5" in="SourceAlpha" result="shadowBlurInner1"></feGaussianBlur>
            <feOffset dx="1" dy="4" in="shadowBlurInner1" result="shadowOffsetInner1"></feOffset>
            <feComposite in="shadowOffsetInner1" in2="SourceAlpha" operator="arithmetic" k2="-1" k3="1" result="shadowInnerInner1"></feComposite>
            <feColorMatrix values="0 0 0 0 1   0 0 0 0 0.988887166   0 0 0 0 0.849352904  0 0 0 1 0" type="matrix" in="shadowInnerInner1"></feColorMatrix>
        </filter>
    </defs>
    <g id="profile_eostower" stroke="none" stroke-width="1" fill="none" fill-rule="evenodd">
        <rect id="Rectangle" fill="#120F1B" fill-rule="nonzero" x="0" y="0" width="250" height="250"></rect>
        <path d="M33.1239491,187.045652 L33.1239491,153.745652 L21.4239491,153.745652 L21.4239491,141.985652 L56.8839491,141.985652 L56.8839491,153.745652 L44.9439491,153.745652 L44.9439491,187.045652 L33.1239491,187.045652 Z M103.208565,164.605652 C103.208565,177.025652 93.128565,187.045652 80.708565,187.045652 C68.288565,187.045652 58.268565,177.025652 58.268565,164.605652 C58.268565,152.185652 68.288565,142.045652 80.708565,142.045652 C93.128565,142.045652 103.208565,152.185652 103.208565,164.605652 Z M91.448565,164.545652 C91.448565,158.605652 86.648565,153.805652 80.708565,153.805652 C74.828565,153.805652 70.028565,158.605652 70.028565,164.545652 C70.028565,170.425652 74.828565,175.285652 80.708565,175.285652 C86.648565,175.285652 91.448565,170.425652 91.448565,164.545652 Z M115.753181,187.045652 L100.993181,142.045652 L112.993181,142.045652 L121.753181,168.865652 L126.133181,155.605652 L138.073181,155.605652 L142.453181,168.805652 L151.213181,142.045652 L163.213181,142.045652 L148.393181,187.045652 L136.453181,187.045652 L132.133181,173.725652 L127.693181,187.045652 L115.753181,187.045652 Z M164.297797,187.045652 L164.297797,142.045652 L192.257797,142.045652 L192.257797,151.825652 L176.117797,151.825652 L176.117797,159.145652 L190.397797,159.145652 L190.397797,169.105652 L176.117797,169.105652 L176.117797,177.385652 L192.257797,177.385652 L192.257797,187.045652 L164.297797,187.045652 Z M196.642413,187.045652 L196.642413,142.045652 L215.602413,142.045652 C224.722413,142.045652 232.162413,149.485652 232.162413,158.605652 C232.162413,163.405652 230.062413,167.725652 226.822413,170.725652 L236.362413,187.045652 L222.742413,187.045652 L215.782413,175.105652 L208.462413,175.105652 L208.462413,187.045652 L196.642413,187.045652 Z M208.462413,164.905652 L215.782413,164.905652 C219.382413,164.905652 222.262413,162.085652 222.262413,158.485652 C222.262413,154.885652 219.382413,152.005652 215.782413,152.005652 L208.462413,152.005652 L208.462413,164.905652 Z" id="TOWER" fill="#801515" transform="translate(128.893181, 164.515652) rotate(-15.000000) translate(-128.893181, -164.515652) "></path>
        <path d="M39.3567827,130.63062 L39.3567827,69.13062 L77.5687827,69.13062 L77.5687827,82.49662 L55.5107827,82.49662 L55.5107827,92.50062 L75.0267827,92.50062 L75.0267827,106.11262 L55.5107827,106.11262 L55.5107827,117.42862 L77.5687827,117.42862 L77.5687827,130.63062 L39.3567827,130.63062 Z M143.65626,99.96262 C143.65626,116.93662 129.88026,130.63062 112.90626,130.63062 C95.9322598,130.63062 82.2382598,116.93662 82.2382598,99.96262 C82.2382598,82.98862 95.9322598,69.13062 112.90626,69.13062 C129.88026,69.13062 143.65626,82.98862 143.65626,99.96262 Z M127.58426,99.88062 C127.58426,91.76262 121.02426,85.20262 112.90626,85.20262 C104.87026,85.20262 98.3102598,91.76262 98.3102598,99.88062 C98.3102598,107.91662 104.87026,114.55862 112.90626,114.55862 C121.02426,114.55862 127.58426,107.91662 127.58426,99.88062 Z M168.087737,130.63062 C154.639737,130.63062 145.455737,121.85662 145.455737,111.85262 L161.855737,111.85262 C161.855737,114.47662 164.233737,116.60862 167.841737,116.60862 C171.121737,116.60862 173.663737,114.72262 173.663737,111.85262 C173.663737,108.81862 170.875737,107.01462 167.677737,107.01462 C155.787737,107.01462 145.537737,98.56862 145.537737,88.07262 C145.537737,77.57662 154.803737,69.13062 167.841737,69.13062 C180.141737,69.13062 190.063737,77.49462 190.063737,87.99062 L173.745737,87.99062 C173.745737,85.44862 171.203737,83.23462 167.841737,83.23462 C164.315737,83.23462 161.937737,85.12062 161.937737,87.99062 C161.937737,90.86062 164.315737,92.82862 167.841737,92.82862 C180.387737,92.82862 190.063737,101.35662 190.063737,111.77062 C190.063737,122.26662 180.387737,130.63062 168.087737,130.63062 Z" id="EOS" fill="#801515" transform="translate(114.710260, 99.880620) rotate(-15.000000) translate(-114.710260, -99.880620) "></path>
        <path d="M32.1239491,183.045652 L32.1239491,149.745652 L20.4239491,149.745652 L20.4239491,137.985652 L55.8839491,137.985652 L55.8839491,149.745652 L43.9439491,149.745652 L43.9439491,183.045652 L32.1239491,183.045652 Z M102.208565,160.605652 C102.208565,173.025652 92.128565,183.045652 79.708565,183.045652 C67.288565,183.045652 57.268565,173.025652 57.268565,160.605652 C57.268565,148.185652 67.288565,138.045652 79.708565,138.045652 C92.128565,138.045652 102.208565,148.185652 102.208565,160.605652 Z M90.448565,160.545652 C90.448565,154.605652 85.648565,149.805652 79.708565,149.805652 C73.828565,149.805652 69.028565,154.605652 69.028565,160.545652 C69.028565,166.425652 73.828565,171.285652 79.708565,171.285652 C85.648565,171.285652 90.448565,166.425652 90.448565,160.545652 Z M114.753181,183.045652 L99.9931809,138.045652 L111.993181,138.045652 L120.753181,164.865652 L125.133181,151.605652 L137.073181,151.605652 L141.453181,164.805652 L150.213181,138.045652 L162.213181,138.045652 L147.393181,183.045652 L135.453181,183.045652 L131.133181,169.725652 L126.693181,183.045652 L114.753181,183.045652 Z M163.297797,183.045652 L163.297797,138.045652 L191.257797,138.045652 L191.257797,147.825652 L175.117797,147.825652 L175.117797,155.145652 L189.397797,155.145652 L189.397797,165.105652 L175.117797,165.105652 L175.117797,173.385652 L191.257797,173.385652 L191.257797,183.045652 L163.297797,183.045652 Z M195.642413,183.045652 L195.642413,138.045652 L214.602413,138.045652 C223.722413,138.045652 231.162413,145.485652 231.162413,154.605652 C231.162413,159.405652 229.062413,163.725652 225.822413,166.725652 L235.362413,183.045652 L221.742413,183.045652 L214.782413,171.105652 L207.462413,171.105652 L207.462413,183.045652 L195.642413,183.045652 Z M207.462413,160.905652 L214.782413,160.905652 C218.382413,160.905652 221.262413,158.085652 221.262413,154.485652 C221.262413,150.885652 218.382413,148.005652 214.782413,148.005652 L207.462413,148.005652 L207.462413,160.905652 Z" id="TOWER" fill="#2D1F58" transform="translate(127.893181, 160.515652) rotate(-15.000000) translate(-127.893181, -160.515652) "></path>
        <path d="M38.3567827,126.63062 L38.3567827,65.13062 L76.5687827,65.13062 L76.5687827,78.49662 L54.5107827,78.49662 L54.5107827,88.50062 L74.0267827,88.50062 L74.0267827,102.11262 L54.5107827,102.11262 L54.5107827,113.42862 L76.5687827,113.42862 L76.5687827,126.63062 L38.3567827,126.63062 Z M142.65626,95.96262 C142.65626,112.93662 128.88026,126.63062 111.90626,126.63062 C94.9322598,126.63062 81.2382598,112.93662 81.2382598,95.96262 C81.2382598,78.98862 94.9322598,65.13062 111.90626,65.13062 C128.88026,65.13062 142.65626,78.98862 142.65626,95.96262 Z M126.58426,95.88062 C126.58426,87.76262 120.02426,81.20262 111.90626,81.20262 C103.87026,81.20262 97.3102598,87.76262 97.3102598,95.88062 C97.3102598,103.91662 103.87026,110.55862 111.90626,110.55862 C120.02426,110.55862 126.58426,103.91662 126.58426,95.88062 Z M167.087737,126.63062 C153.639737,126.63062 144.455737,117.85662 144.455737,107.85262 L160.855737,107.85262 C160.855737,110.47662 163.233737,112.60862 166.841737,112.60862 C170.121737,112.60862 172.663737,110.72262 172.663737,107.85262 C172.663737,104.81862 169.875737,103.01462 166.677737,103.01462 C154.787737,103.01462 144.537737,94.56862 144.537737,84.07262 C144.537737,73.57662 153.803737,65.13062 166.841737,65.13062 C179.141737,65.13062 189.063737,73.49462 189.063737,83.99062 L172.745737,83.99062 C172.745737,81.44862 170.203737,79.23462 166.841737,79.23462 C163.315737,79.23462 160.937737,81.12062 160.937737,83.99062 C160.937737,86.86062 163.315737,88.82862 166.841737,88.82862 C179.387737,88.82862 189.063737,97.35662 189.063737,107.77062 C189.063737,118.26662 179.387737,126.63062 167.087737,126.63062 Z" id="EOS" fill="#2D1F58" transform="translate(113.710260, 95.880620) rotate(-15.000000) translate(-113.710260, -95.880620) "></path>
        <g id="TOWER" transform="translate(125.893181, 156.515652) rotate(-15.000000) translate(-125.893181, -156.515652) ">
            <use fill="#FFD900" fill-rule="evenodd" xlink:href="#path-1"></use>
            <use fill="black" fill-opacity="1" filter="url(#filter-2)" xlink:href="#path-1"></use>
        </g>
        <g id="EOS" transform="translate(111.710260, 91.880620) rotate(-15.000000) translate(-111.710260, -91.880620) ">
            <use fill="#FFD900" fill-rule="evenodd" xlink:href="#path-3"></use>
            <use fill="black" fill-opacity="1" filter="url(#filter-4)" xlink:href="#path-3"></use>
        </g>
        <path d="M40.9439491,178.045652 L40.9439491,144.745652 L52.8839491,144.745652 L52.8839491,134.985652 L19.4239491,134.985652 L19.4239491,144.745652 L31.1239491,144.745652 L31.1239491,178.045652 L40.9439491,178.045652 Z M42.9439491,180.045652 L29.1239491,180.045652 L29.1239491,146.745652 L17.4239491,146.745652 L17.4239491,132.985652 L54.8839491,132.985652 L54.8839491,146.745652 L42.9439491,146.745652 L42.9439491,180.045652 Z M99.208565,156.605652 C99.208565,144.725679 89.5640611,135.045652 77.708565,135.045652 C65.8652945,135.045652 56.268565,144.713337 56.268565,156.605652 C56.268565,168.473367 65.8408498,178.045652 77.708565,178.045652 C89.5885834,178.045652 99.208565,168.461103 99.208565,156.605652 Z M101.208565,156.605652 C101.208565,169.567328 90.6915041,180.045652 77.708565,180.045652 C64.7362803,180.045652 54.268565,169.577937 54.268565,156.605652 C54.268565,143.612052 64.7574135,133.045652 77.708565,133.045652 C90.6702799,133.045652 101.208565,143.622752 101.208565,156.605652 Z M89.448565,156.545652 C89.448565,162.997809 84.1810604,168.285652 77.708565,168.285652 C71.285852,168.285652 66.028565,162.987611 66.028565,156.545652 C66.028565,150.063534 71.266146,144.805652 77.708565,144.805652 C84.2008498,144.805652 89.448565,150.053367 89.448565,156.545652 Z M87.448565,156.545652 C87.448565,151.157937 83.0962803,146.805652 77.708565,146.805652 C72.3724512,146.805652 68.028565,151.166375 68.028565,156.545652 C68.028565,161.886484 72.3938934,166.285652 77.708565,166.285652 C83.0747619,166.285652 87.448565,161.894962 87.448565,156.545652 Z M123.972422,178.045652 L129.146194,162.524334 L134.180135,178.045652 L144.66968,178.045652 L158.831013,135.045652 L148.938044,135.045652 L139.459613,164.000311 L134.351385,148.605652 L123.856007,148.605652 L118.747837,164.070109 L109.267813,135.045652 L99.3735991,135.045652 L113.477599,178.045652 L123.972422,178.045652 Z M125.41394,180.045652 L112.028763,180.045652 L96.6127627,133.045652 L110.718548,133.045652 L118.758524,157.661194 L122.410355,146.605652 L135.794977,146.605652 L139.446749,157.610992 L147.488318,133.045652 L161.595349,133.045652 L146.116682,180.045652 L132.726227,180.045652 L129.120168,168.926969 L125.41394,180.045652 Z M188.257797,178.045652 L188.257797,170.385652 L172.117797,170.385652 L172.117797,160.105652 L186.397797,160.105652 L186.397797,152.145652 L172.117797,152.145652 L172.117797,142.825652 L188.257797,142.825652 L188.257797,135.045652 L162.297797,135.045652 L162.297797,178.045652 L188.257797,178.045652 Z M190.257797,168.385652 L190.257797,180.045652 L160.297797,180.045652 L160.297797,133.045652 L190.257797,133.045652 L190.257797,144.825652 L174.117797,144.825652 L174.117797,150.145652 L188.397797,150.145652 L188.397797,162.105652 L174.117797,162.105652 L174.117797,168.385652 L190.257797,168.385652 Z M204.462413,178.045652 L204.462413,166.105652 L213.356991,166.105652 L220.316991,178.045652 L231.619532,178.045652 L222.553979,162.537285 L223.143005,161.991891 C226.306731,159.062515 228.162413,154.962056 228.162413,150.605652 C228.162413,142.037937 221.170128,135.045652 212.602413,135.045652 L194.642413,135.045652 L194.642413,178.045652 L204.462413,178.045652 Z M206.462413,180.045652 L192.642413,180.045652 L192.642413,133.045652 L212.602413,133.045652 C222.274697,133.045652 230.162413,140.933367 230.162413,150.605652 C230.162413,155.255858 228.293545,159.643375 225.081462,162.897967 L235.105293,180.045652 L219.167835,180.045652 L212.207835,168.105652 L206.462413,168.105652 L206.462413,180.045652 Z M204.462413,157.905652 L204.462413,143.005652 L212.782413,143.005652 C216.934697,143.005652 220.262413,146.333367 220.262413,150.485652 C220.262413,154.629307 216.943518,157.905652 212.782413,157.905652 L204.462413,157.905652 Z M212.782413,155.905652 C215.844684,155.905652 218.262413,153.51892 218.262413,150.485652 C218.262413,147.437937 215.830128,145.005652 212.782413,145.005652 L206.462413,145.005652 L206.462413,155.905652 L212.782413,155.905652 Z" id="TOWER" fill="#E30000" fill-rule="nonzero" transform="translate(126.264621, 156.515652) rotate(-15.000000) translate(-126.264621, -156.515652) "></path>
        <path d="M73.5687827,121.63062 L73.5687827,110.42862 L51.5107827,110.42862 L51.5107827,97.11262 L71.0267827,97.11262 L71.0267827,85.50062 L51.5107827,85.50062 L51.5107827,73.49662 L73.5687827,73.49662 L73.5687827,62.13062 L37.3567827,62.13062 L37.3567827,121.63062 L73.5687827,121.63062 Z M75.5687827,108.42862 L75.5687827,123.63062 L35.3567827,123.63062 L35.3567827,60.13062 L75.5687827,60.13062 L75.5687827,75.49662 L53.5107827,75.49662 L53.5107827,83.50062 L73.0267827,83.50062 L73.0267827,99.11262 L53.5107827,99.11262 L53.5107827,108.42862 L75.5687827,108.42862 Z M139.65626,91.96262 C139.65626,75.5244536 126.311578,62.13062 109.90626,62.13062 C93.5173453,62.13062 80.2382598,75.5078872 80.2382598,91.96262 C80.2382598,108.384335 93.4845446,121.63062 109.90626,121.63062 C126.344487,121.63062 139.65626,108.367878 139.65626,91.96262 Z M141.65626,91.96262 C141.65626,109.474103 127.447408,123.63062 109.90626,123.63062 C92.3799751,123.63062 78.2382598,109.488905 78.2382598,91.96262 C78.2382598,74.4066023 92.4094643,60.13062 109.90626,60.13062 C127.417797,60.13062 141.65626,74.4215267 141.65626,91.96262 Z M125.58426,91.88062 C125.58426,100.49638 118.549182,107.55862 109.90626,107.55862 C101.331693,107.55862 94.3102598,100.482757 94.3102598,91.88062 C94.3102598,83.2239126 101.304443,76.20262 109.90626,76.20262 C118.576545,76.20262 125.58426,83.2103352 125.58426,91.88062 Z M123.58426,91.88062 C123.58426,84.3149047 117.471975,78.20262 109.90626,78.20262 C102.410748,78.20262 96.3102598,84.3267538 96.3102598,91.88062 C96.3102598,99.3816301 102.439734,105.55862 109.90626,105.55862 C117.442884,105.55862 123.58426,99.393532 123.58426,91.88062 Z M165.087737,121.63062 C176.8419,121.63062 186.063737,113.698884 186.063737,103.77062 C186.063737,93.8472552 176.752546,85.82862 164.841737,85.82862 C160.81042,85.82862 157.937737,83.4679002 157.937737,79.99062 C157.937737,76.5243343 160.792813,74.23462 164.841737,74.23462 C168.241566,74.23462 171.076455,76.2746779 171.642797,78.99062 L186.031437,78.99062 C185.421419,69.5743241 176.245252,62.13062 164.841737,62.13062 C152.561769,62.13062 143.537737,69.9592604 143.537737,80.07262 C143.537737,89.8651396 153.175596,98.01462 164.677737,98.01462 C168.579463,98.01462 171.663737,100.349444 171.663737,103.85262 C171.663737,107.26577 168.713482,109.60862 164.841737,109.60862 C161.241509,109.60862 158.48267,107.644011 157.949338,104.85262 L143.48762,104.85262 C144.086582,114.21395 153.061747,121.63062 165.087737,121.63062 Z M165.087737,123.63062 C151.590804,123.63062 141.455737,114.853861 141.455737,103.85262 L141.455737,102.85262 L159.855737,102.85262 L159.855737,103.85262 C159.855737,105.963623 161.853234,107.60862 164.841737,107.60862 C167.697029,107.60862 169.663737,106.046822 169.663737,103.85262 C169.663737,101.594338 167.576949,100.01462 164.677737,100.01462 C152.138411,100.01462 141.537737,91.0510118 141.537737,80.07262 C141.537737,68.7865355 151.515364,60.13062 164.841737,60.13062 C177.683831,60.13062 188.063737,68.9217652 188.063737,79.99062 L188.063737,80.99062 L169.745737,80.99062 L169.745737,79.99062 C169.745737,77.9897786 167.618898,76.23462 164.841737,76.23462 C161.81234,76.23462 159.937737,77.7380146 159.937737,79.99062 C159.937737,82.2671418 161.837849,83.82862 164.841737,83.82862 C177.796266,83.82862 188.063737,92.6707869 188.063737,103.77062 C188.063737,114.875993 177.885165,123.63062 165.087737,123.63062 Z" id="EOS" fill="#E30000" fill-rule="nonzero" transform="translate(111.710260, 91.880620) rotate(-15.000000) translate(-111.710260, -91.880620) "></path>
    </g>
</svg>