<svg id="Layer_1" data-name="Layer 1" xmlns="http://www.w3.org/2000/svg" viewBox="0 0 2807.77 2799.25"><defs><style>.cls-1{fill:#094b89;}.cls-2{fill:#388ce0;}</style></defs><title>Everipedia_Split-Icon</title><path class="cls-1" d="M2457.9,476.87c-139.58-157.84-268.59-235.24-341-273.14-11.39-6-22.85,7.7-15.08,17.95,42.23,55.67,105.07,161.47,125.14,316.8,31.18,241.3-92.07,394.7-92.07,394.7s-74.25,96.81-163.34,87.9c-85.4-8.54-112.82-48.46-142.4-100.14a12.1,12.1,0,0,1,.71-13.1C1906.63,802.32,1991,714,1960.4,468.69,1915.85,204.37,1702,260.8,1702,260.8s-308.86,47.52-311.83,522.69c0,382,201.32,550.58,267.69,595.78a12,12,0,0,1-2.5,21.15c-90.61,33.72-417.77,178-514.66,532.4-109.06,398.93,73.1,542.7,85.47,551.91a10.43,10.43,0,0,1,1.21,1c11.93,12,215.34,206.94,627.7-35.85,16-9.56,53.38-32.74,87-60l29-25.79h0a55.39,55.39,0,0,1,8.22-7.06c6.94-5.18,23.93-15.41,40.53-6.26,21.53,11.88,1.48,65.34-8.17,78.7-8.94,12.37-124.81,238.62-464.61,364.9-13.23,4.92-8.78,24.6,5.26,23.24,99.9-9.68,270.35-37.93,452.67-120.11,286.59-129.19,584.32-419.49,713.51-738,89.74-221.24,137.52-460.78,84.46-755.88C2730.49,849,2572.79,610.87,2457.9,476.87Z" transform="translate(-17.3 -18.49)"/><path class="cls-2" d="M1372.47,43.71c13.66-5.63,9.06-26-5.7-25.2C1145.17,30.94,560.22,122.22,208.89,722.2,93.87,924.09-44.92,1279.69,47.44,1724.74h0c106.59,486,453.68,769,613.45,876.57,12.38,8.33,26.83-7.23,17.6-19-92.39-117.49-236.67-383.22-93.14-786.14,131.46-369,412.63-492.46,480.83-517.54a13.11,13.11,0,0,0,6.82-18.92C1032.3,1190,859.94,865.82,962.53,537,1049.81,219.06,1256.31,91.6,1372.47,43.71Z" transform="translate(-17.3 -18.49)"/></svg>
