<svg id="Layer_1" data-name="Layer 1" xmlns="http://www.w3.org/2000/svg" viewBox="0 0 798.1 164.31"><defs><style>.cls-1{fill:#272962;}.cls-2{fill:#73a9db;}</style></defs><title>evodex_new_fullcolor</title><path class="cls-1" d="M101.41,98.63H16A34.29,34.29,0,0,0,28.63,118.5a35.41,35.41,0,0,0,22.54,7.74H63.88q7.54.39,7.54,7.54c0,4.51-2.38,6.95-7.15,7.35q-4,.19-13.1.2a49,49,0,0,1-35.95-14.89A49,49,0,0,1,.32,90.49a48.77,48.77,0,0,1,14.9-35.75,49,49,0,0,1,36-14.9A50.9,50.9,0,0,1,98,71.22q3.17,7.75,3.37,12.32ZM84.33,83.54A38.56,38.56,0,0,0,73.21,62.69a31.25,31.25,0,0,0-21.85-8.35,35.07,35.07,0,0,0-22.93,8.25,35.45,35.45,0,0,0-12.61,21Z" transform="translate(-0.32 -0.32)"/><path class="cls-1" d="M206.67,48.19a5.43,5.43,0,0,1-.4,2.38l-39.12,82.62q-3.37,6.94-7.55,6.95a4.88,4.88,0,0,1-4.47-2.48,53.55,53.55,0,0,1-2.68-5.07l-42.3-82a5.43,5.43,0,0,1-.4-2.38,7.45,7.45,0,0,1,7.34-7.35q4.75,0,7.14,5L159,115l33.21-69.2q2.37-5,7.11-5A7,7,0,0,1,204.5,43,7.12,7.12,0,0,1,206.67,48.19Z" transform="translate(-0.32 -0.32)"/><path class="cls-1" d="M317.09,90.49a49,49,0,0,1-14.89,36,50.6,50.6,0,0,1-71.7,0,49,49,0,0,1-14.89-35.95A48.76,48.76,0,0,1,230.5,54.74a50.58,50.58,0,0,1,71.7,0A48.76,48.76,0,0,1,317.09,90.49Zm-14.69,0A35,35,0,0,0,291.87,65a35.95,35.95,0,0,0-51,0A35,35,0,0,0,230.3,90.49a36.09,36.09,0,0,0,61.57,25.42A34.67,34.67,0,0,0,302.4,90.49Z" transform="translate(-0.32 -0.32)"/><path class="cls-2" d="M428.1,90.29a49,49,0,0,1-14.89,35.95,50.6,50.6,0,0,1-71.7,0,49,49,0,0,1-14.89-35.95,49,49,0,0,1,14.89-35.95,49,49,0,0,1,35.95-14.89q20.27,0,35.75,16.28l.2-47.86a7.35,7.35,0,0,1,2.18-5.26A6.94,6.94,0,0,1,420.76.32a7.45,7.45,0,0,1,5.16,2,6.41,6.41,0,0,1,2.18,5Zm-14.69.1A34.77,34.77,0,0,0,402.88,64.9a36.12,36.12,0,0,0-51,0,34.76,34.76,0,0,0-10.52,25.49,36,36,0,0,0,36.14,36.24,34.57,34.57,0,0,0,25.42-10.55A35,35,0,0,0,413.41,90.39Z" transform="translate(-0.32 -0.32)"/><path class="cls-2" d="M501,126.24h-6.36c-.86,0-1.69,0-2.5,0h9.16Zm-8.86,0-4.88,0C489.31,126.34,491.07,126.27,492.13,126.27Z" transform="translate(-0.32 -0.32)"/><path class="cls-2" d="M736.17,41.94,712.46,18a7.29,7.29,0,0,0-10.55,0,7.32,7.32,0,0,0,0,10.6l11,11H660.48a7.92,7.92,0,0,0-5.55,2.52L622.1,79,588.79,42.15a8,8,0,0,0-5.53-2.48H554.62c-4,0-8,2.29-8,6.66,0,3.66,3.58,8,8,8H580l32.13,35.86-32.13,36H492.12c-1.06,0-2.82.07-4.88,0-.37,0-.77,0-1.18,0s-.84,0-1.23-.05-.85,0-1.25-.09c-.85-.09-1.71-.19-2.54-.33a17,17,0,0,1-2.13-.46,34.07,34.07,0,0,1-13.16-6.85,34.28,34.28,0,0,1-12.63-19.87h85.4V83.53c-.14-3-1.25-7.15-3.37-12.3a50.89,50.89,0,0,0-46.89-31.4,49,49,0,0,0-35.91,14.9,48.61,48.61,0,0,0-14.92,35.74,48.84,48.84,0,0,0,14.92,36,48.57,48.57,0,0,0,34.22,14.85,33.83,33.83,0,0,0,5.78,0l91.14.07a7.85,7.85,0,0,0,5.53-2.55l75-84.06h48.74l4.19-4.17v4l-1.16.21h-3L701.91,65.6a7.48,7.48,0,0,0-2.27,5.28,7.14,7.14,0,0,0,2.27,5.32,7.26,7.26,0,0,0,10.55,0l23.71-23.69A7.37,7.37,0,0,0,736.17,41.94ZM465.52,62.57a35.23,35.23,0,0,1,22.94-8.23,31.25,31.25,0,0,1,21.84,8.33,38.51,38.51,0,0,1,11.13,20.86h-68.5A35.66,35.66,0,0,1,465.52,62.57Z" transform="translate(-0.32 -0.32)"/><path class="cls-1" d="M767.19,164.63a7.33,7.33,0,0,1-5.3-2.25,7.34,7.34,0,0,1,0-10.6l11-11H660.69a8,8,0,0,1-5.51-2.48l-28.24-31.52,9.86-11.14,27,30.45h109l-11-11a7.49,7.49,0,1,1,10.59-10.6l23.89,23.67a7.33,7.33,0,0,1,0,10.6l-23.67,23.68A7.31,7.31,0,0,1,767.19,164.63Z" transform="translate(-0.32 -0.32)"/><polygon class="cls-2" points="716.56 50.3 716.56 54.25 715.41 54.46 712.4 54.46 716.56 50.3"/><polygon class="cls-2" points="716.56 50.3 716.56 54.25 715.41 54.46 712.4 54.46 716.56 50.3"/><polygon class="cls-1" points="177.34 124.67 177.34 124.67 177.34 124.67 177.34 124.67 177.34 124.67"/></svg>