<svg id="Layer_1" data-name="Layer 1" xmlns="http://www.w3.org/2000/svg" viewBox="0 0 120 120"><defs><style>.cls-1{fill:#272862;}.cls-2{fill:#73a9db;}.cls-3{fill:none;}</style></defs><title>icon-</title><rect class="cls-1" x="-0.33" y="-0.1" width="120.32" height="120.32"/><path class="cls-2" d="M80.14,64.47C90.25,52.41,92.82,35.61,92.55,30.53a2.33,2.33,0,0,0-.63-1.47,2,2,0,0,0-1.47-.62c-5.08-.28-21.88,2.23-33.87,12.33l-2.78-1a12.34,12.34,0,0,0-13.73,3.62l-7.74,9.13a2.39,2.39,0,0,0,1.05,3.83l8.29,3.07a81.39,81.39,0,0,0-3.9,7.46,3.86,3.86,0,0,0,.83,4.39L49.75,82.45a3.94,3.94,0,0,0,4.39.77,81.88,81.88,0,0,0,7.46-3.91l3,8.3a2.43,2.43,0,0,0,3.83,1l9.06-7.73a12.37,12.37,0,0,0,3.63-13.73Zm-5.23-8.71a6.85,6.85,0,1,1,0-9.69A6.91,6.91,0,0,1,74.91,55.76Z"/><path class="cls-2" d="M42.84,88.22l-5,5a2.56,2.56,0,0,0,3.63,3.62l5-5a2.62,2.62,0,0,0,0-3.62A2.54,2.54,0,0,0,42.84,88.22Z"/><path class="cls-2" d="M39.72,81.69a2.56,2.56,0,0,0-3.56,0l-7.81,7.88a2.52,2.52,0,0,0,3.56,3.56l7.81-7.95A2.36,2.36,0,0,0,39.72,81.69Z"/><path class="cls-2" d="M33.48,79a2.52,2.52,0,1,0-3.56-3.57L25,80.32a2.52,2.52,0,0,0,3.56,3.56Z"/><rect id="_Slice_" data-name="&lt;Slice&gt;" class="cls-3" x="-0.33" y="-0.33" width="120.32" height="120.32"/></svg>