<?xml version="1.0" standalone="no"?>
<!DOCTYPE svg PUBLIC "-//W3C//DTD SVG 20010904//EN"
 "http://www.w3.org/TR/2001/REC-SVG-20010904/DTD/svg10.dtd">
<svg version="1.0" xmlns="http://www.w3.org/2000/svg"
 width="700.000000pt" height="700.000000pt" viewBox="0 0 700.000000 700.000000"
 preserveAspectRatio="xMidYMid meet">
<metadata>
Created by potrace 1.11, written by Peter Selinger 2001-2013
</metadata>
<g transform="translate(0.000000,700.000000) scale(0.100000,-0.100000)"
fill="#000000" stroke="none">
<path d="M3864 6589 c-96 -37 -119 -65 -340 -437 -114 -191 -212 -356 -218
-366 -6 -11 -15 -25 -19 -30 -4 -6 -46 -76 -93 -156 -113 -191 -130 -216 -186
-272 -68 -67 -141 -113 -233 -144 l-80 -28 -625 -2 c-583 -2 -628 -4 -672 -21
-88 -35 -128 -79 -245 -275 -538 -897 -735 -1232 -748 -1268 -20 -56 -18 -123
3 -185 14 -40 102 -193 232 -405 23 -38 142 -238 372 -623 267 -447 285 -470
386 -510 44 -17 89 -19 667 -21 341 -2 633 -6 650 -10 54 -13 159 -59 201 -87
58 -40 126 -106 162 -159 26 -39 257 -421 286 -475 6 -11 61 -102 121 -202 61
-100 115 -190 120 -200 53 -95 131 -216 152 -237 14 -15 54 -40 89 -56 l62
-30 784 1 783 0 52 26 c82 40 110 72 218 255 48 83 167 280 211 352 30 49 54
91 54 92 0 2 20 35 45 74 25 39 45 72 45 74 0 4 57 100 109 186 18 28 146 243
161 269 9 14 41 69 72 121 32 52 61 113 66 135 12 53 7 125 -12 169 -8 19
-148 259 -311 532 -164 274 -310 520 -326 549 -47 86 -69 184 -65 294 5 167
-7 143 486 964 52 86 100 165 105 175 6 9 30 50 53 90 56 95 73 136 76 186 4
85 -12 126 -127 318 -61 104 -121 204 -132 222 -15 26 -292 490 -356 596 -5 8
-35 58 -67 111 -33 53 -61 100 -63 105 -2 5 -31 54 -63 108 -71 118 -119 167
-193 195 -54 21 -66 21 -826 20 -741 0 -774 -1 -823 -20z m1411 -384 c102 -32
122 -61 451 -610 164 -275 306 -522 315 -550 21 -61 18 -138 -9 -198 -10 -23
-102 -181 -203 -350 -101 -169 -192 -322 -203 -340 -113 -196 -212 -350 -247
-381 -22 -21 -62 -47 -87 -58 -46 -21 -61 -21 -597 -22 -516 -1 -553 0 -600
18 -105 40 -112 49 -438 595 -167 279 -311 527 -321 551 -25 64 -23 149 7 213
13 29 117 206 231 395 113 189 206 345 206 347 0 15 189 306 213 328 44 40
111 69 177 76 30 3 279 5 552 5 444 -2 503 -4 553 -19z m-2499 -1448 c49 -12
115 -51 151 -90 22 -23 42 -47 44 -52 2 -6 92 -156 199 -335 107 -179 200
-334 206 -345 6 -11 43 -73 83 -139 112 -184 124 -212 126 -286 3 -78 -10
-115 -80 -230 -29 -47 -165 -275 -304 -506 -138 -232 -265 -436 -283 -453 -34
-33 -106 -71 -153 -79 -16 -3 -268 -5 -560 -5 -523 0 -531 0 -587 22 -32 13
-75 39 -97 61 -39 39 -612 986 -652 1077 -17 39 -20 62 -16 118 5 80 14 101
102 245 66 108 165 274 200 335 180 310 344 570 376 596 46 36 102 60 154 66
22 3 41 6 42 7 5 4 1031 -3 1049 -7z m2524 -1480 c30 -15 69 -40 87 -57 18
-17 152 -232 299 -478 146 -246 276 -463 289 -482 75 -118 97 -209 70 -297 -7
-24 -85 -163 -172 -309 -87 -145 -169 -283 -183 -306 -14 -24 -54 -92 -90
-151 -36 -60 -76 -127 -89 -150 -93 -164 -161 -233 -254 -258 -29 -8 -210 -11
-577 -11 -576 0 -576 0 -653 54 -55 38 -73 63 -212 296 -75 125 -141 234 -146
242 -158 260 -331 562 -340 593 -15 55 -13 124 4 172 8 22 88 162 177 310 89
149 171 284 181 302 10 18 74 126 143 241 135 226 168 263 263 298 49 19 82
20 600 19 l548 -1 55 -27z"/>
</g>
</svg>
