<svg id="svg" version="1.1" width="400" height="400" viewBox="0 0 400 400" xmlns="http://www.w3.org/2000/svg" xmlns:xlink="http://www.w3.org/1999/xlink" ><g id="svgg"><path id="path0" d="M35.600 137.427 C 29.530 138.493,26.443 139.941,23.086 143.301 C 18.732 147.659,16.800 153.737,16.800 163.081 C 16.800 167.827,17.043 167.600,11.967 167.600 L 8.400 167.600 8.400 175.186 L 8.400 182.772 12.500 182.886 L 16.600 183.000 16.703 212.100 L 16.805 241.200 26.400 241.200 L 35.995 241.200 36.097 212.100 L 36.200 183.000 42.700 182.890 L 49.200 182.780 49.200 175.200 L 49.200 167.620 42.700 167.510 L 36.200 167.400 36.078 164.200 C 35.762 155.876,38.131 153.225,45.900 153.209 L 50.000 153.200 49.994 145.900 C 49.991 141.885,49.849 138.382,49.680 138.116 C 49.368 137.625,37.721 137.055,35.600 137.427 M93.780 140.908 C 93.673 141.187,93.633 145.732,93.693 151.008 L 93.800 160.600 103.572 160.707 C 111.123 160.790,113.417 160.699,113.666 160.307 C 114.038 159.722,114.122 141.982,113.757 141.033 C 113.431 140.183,94.105 140.062,93.780 140.908 M58.000 191.207 L 58.000 241.214 67.900 241.107 L 77.800 241.000 77.902 191.100 L 78.003 141.200 68.002 141.200 L 58.000 141.200 58.000 191.207 M163.000 166.631 C 157.391 167.960,153.986 170.480,150.561 175.834 C 148.670 178.789,148.400 178.382,148.400 172.576 L 148.400 167.600 139.200 167.600 L 130.000 167.600 130.000 215.200 L 130.000 262.800 139.800 262.800 L 149.600 262.800 149.606 249.900 C 149.613 235.055,149.583 235.192,152.302 237.636 C 156.128 241.075,158.189 241.784,164.400 241.792 C 169.821 241.800,170.343 241.704,174.218 239.989 C 180.526 237.197,185.909 228.988,187.599 219.582 C 187.854 218.162,188.232 216.438,188.439 215.751 C 190.009 210.537,189.028 191.471,186.815 184.200 C 183.249 172.489,172.316 164.422,163.000 166.631 M93.698 204.300 L 93.800 241.000 103.700 241.107 L 113.600 241.214 113.600 204.407 L 113.600 167.600 103.598 167.600 L 93.596 167.600 93.698 204.300 M162.340 179.885 C 165.545 181.388,166.714 183.682,167.987 190.967 C 169.011 196.830,168.400 215.058,166.946 222.000 C 165.351 229.620,153.708 230.634,150.869 223.400 C 149.202 219.154,149.200 190.615,150.866 185.667 C 152.563 180.627,158.038 177.868,162.340 179.885 " stroke="none" fill="#4ba3fb" fill-rule="evenodd"></path><path id="path1" d="M223.849 165.641 C 220.893 166.072,217.049 167.391,215.109 168.640 C 214.288 169.168,213.471 169.600,213.293 169.600 C 211.631 169.600,204.869 177.710,202.854 182.121 C 198.501 191.648,197.319 210.839,200.472 220.800 C 206.024 238.346,218.672 246.074,236.400 242.752 C 246.919 240.781,253.818 234.243,257.449 222.805 C 259.239 217.165,260.355 217.707,245.362 216.937 L 240.525 216.689 240.270 218.841 C 239.356 226.559,232.365 231.254,226.052 228.389 C 221.616 226.376,220.039 222.573,219.893 213.532 L 219.800 207.800 239.358 207.696 L 258.916 207.592 258.644 202.096 C 257.936 187.751,255.050 179.083,248.982 173.067 C 242.729 166.869,233.704 164.202,223.849 165.641 M292.249 165.641 C 277.728 167.761,270.157 178.170,268.369 198.475 C 265.621 229.690,280.321 247.362,305.200 242.748 C 320.485 239.913,328.411 226.821,328.397 204.430 C 328.379 176.051,315.513 162.245,292.249 165.641 M359.049 165.641 C 344.116 167.821,334.808 182.160,339.416 195.886 C 342.081 203.823,347.606 208.161,361.000 212.830 C 370.347 216.089,372.400 217.841,372.400 222.561 C 372.400 232.521,356.936 232.875,353.431 222.996 C 352.013 218.998,352.123 219.144,350.700 219.374 C 349.985 219.490,346.520 220.048,343.000 220.614 C 335.358 221.841,335.804 221.496,336.793 225.423 C 340.459 239.981,356.440 247.079,374.149 242.015 C 389.625 237.589,396.721 219.642,388.046 206.867 C 385.005 202.390,382.574 200.913,370.800 196.391 C 359.030 191.871,357.600 190.667,357.600 185.279 C 357.600 175.619,369.585 176.053,374.058 185.875 L 375.186 188.351 378.693 187.348 C 380.622 186.796,382.740 186.194,383.400 186.009 C 385.539 185.411,388.993 184.320,389.264 184.157 C 389.409 184.069,389.115 182.860,388.611 181.470 C 384.184 169.263,373.483 163.534,359.049 165.641 M233.267 179.154 C 237.405 180.955,239.856 186.454,239.527 193.200 L 239.400 195.800 229.700 195.907 L 220.000 196.014 220.000 193.232 C 220.000 182.396,226.025 176.003,233.267 179.154 M302.031 180.510 C 305.874 183.099,307.194 189.155,307.193 204.200 C 307.192 222.814,304.895 229.200,298.200 229.200 C 291.355 229.200,289.478 223.869,289.469 204.400 C 289.463 190.541,290.160 185.526,292.539 182.291 C 294.524 179.594,299.333 178.691,302.031 180.510 " stroke="none" fill="#f9f9f9" fill-rule="evenodd"></path><path id="path2" d="M183.200 0.739 C 183.200 0.926,180.565 1.203,177.344 1.355 C 174.123 1.508,171.165 1.805,170.770 2.016 C 170.375 2.227,169.241 2.400,168.250 2.400 C 167.258 2.400,166.336 2.580,166.200 2.800 C 166.064 3.020,165.183 3.200,164.243 3.200 C 163.303 3.200,162.399 3.335,162.236 3.500 C 161.977 3.761,159.971 4.136,153.900 5.057 C 153.075 5.182,152.400 5.445,152.400 5.642 C 152.400 5.839,151.770 6.000,151.000 6.000 C 150.230 6.000,149.600 6.159,149.600 6.353 C 149.600 6.548,148.432 6.832,147.004 6.985 C 145.577 7.138,144.306 7.429,144.181 7.631 C 144.055 7.834,143.513 8.000,142.976 8.000 C 142.439 8.000,142.000 8.180,142.000 8.400 C 142.000 8.620,141.561 8.800,141.024 8.800 C 140.487 8.800,139.952 8.955,139.835 9.144 C 139.718 9.333,138.811 9.599,137.820 9.735 C 136.828 9.871,135.654 10.166,135.209 10.391 C 134.764 10.616,134.062 10.968,133.649 11.173 C 133.236 11.378,132.244 11.668,131.445 11.818 C 130.645 11.968,129.893 12.250,129.772 12.445 C 129.651 12.640,129.113 12.800,128.576 12.800 C 128.039 12.800,127.600 12.980,127.600 13.200 C 127.600 13.420,127.240 13.600,126.800 13.600 C 126.360 13.600,126.000 13.757,126.000 13.949 C 126.000 14.141,125.280 14.413,124.400 14.554 C 123.520 14.694,122.800 14.987,122.800 15.205 C 122.800 15.422,122.476 15.600,122.080 15.600 C 121.186 15.600,119.207 16.494,119.203 16.900 C 119.201 17.065,118.905 17.200,118.545 17.200 C 118.185 17.200,116.340 17.934,114.445 18.831 C 112.550 19.729,110.550 20.673,110.000 20.931 C 109.450 21.188,108.910 21.498,108.800 21.620 C 108.690 21.742,107.880 22.173,107.000 22.577 C 106.120 22.982,104.950 23.624,104.400 24.004 C 103.850 24.384,102.950 24.833,102.400 25.001 C 101.850 25.170,101.310 25.419,101.200 25.554 C 100.887 25.939,98.715 27.208,97.500 27.716 C 96.895 27.969,96.400 28.316,96.400 28.488 C 96.400 28.659,96.164 28.800,95.875 28.800 C 95.587 28.800,94.988 29.138,94.545 29.551 C 94.101 29.964,93.347 30.426,92.869 30.578 C 92.391 30.730,92.000 31.022,92.000 31.227 C 92.000 31.432,91.730 31.600,91.400 31.600 C 91.070 31.600,90.800 31.759,90.800 31.954 C 90.800 32.149,90.215 32.604,89.500 32.965 C 87.482 33.985,86.654 34.545,86.115 35.254 C 85.842 35.614,85.164 36.023,84.609 36.162 C 84.054 36.301,83.600 36.592,83.600 36.808 C 83.600 37.023,83.412 37.200,83.183 37.200 C 82.953 37.200,82.280 37.650,81.687 38.200 C 81.093 38.750,80.447 39.200,80.251 39.200 C 80.055 39.200,79.603 39.520,79.247 39.910 C 78.891 40.301,78.073 40.956,77.430 41.366 C 76.214 42.140,75.457 42.776,72.747 45.300 C 71.861 46.125,70.991 46.800,70.814 46.800 C 70.636 46.800,69.370 47.880,68.000 49.200 C 66.630 50.520,65.377 51.600,65.215 51.600 C 64.764 51.600,52.731 63.589,51.386 65.378 C 50.734 66.247,49.390 67.812,48.400 68.858 C 46.010 71.382,45.600 71.894,45.600 72.356 C 45.600 72.571,45.249 72.857,44.820 72.994 C 44.392 73.130,43.940 73.558,43.817 73.946 C 43.694 74.334,42.965 75.337,42.197 76.176 C 41.429 77.014,40.800 77.815,40.800 77.955 C 40.800 78.094,40.173 78.927,39.408 79.804 C 38.642 80.682,38.012 81.585,38.008 81.812 C 38.003 82.038,37.640 82.483,37.200 82.800 C 36.760 83.117,36.400 83.568,36.400 83.801 C 36.400 84.196,35.596 85.324,33.900 87.305 C 33.515 87.754,33.200 88.282,33.200 88.478 C 33.200 88.673,32.864 89.194,32.453 89.635 C 32.042 90.076,31.367 91.104,30.953 91.919 C 30.539 92.733,30.065 93.460,29.900 93.533 C 29.735 93.607,29.600 93.922,29.600 94.233 C 29.600 94.545,29.465 94.801,29.300 94.803 C 28.943 94.806,27.600 97.083,27.600 97.685 C 27.600 97.917,27.285 98.397,26.900 98.753 C 26.081 99.510,24.800 101.722,24.800 102.378 C 24.800 102.629,24.428 103.231,23.973 103.717 C 23.517 104.203,23.045 105.095,22.923 105.700 C 22.800 106.305,22.543 106.800,22.350 106.800 C 22.157 106.800,22.000 107.070,22.000 107.400 C 22.000 107.730,21.820 108.000,21.600 108.000 C 21.380 108.000,21.200 108.360,21.200 108.800 C 21.200 109.240,21.020 109.600,20.800 109.600 C 20.580 109.600,20.400 109.779,20.400 109.997 C 20.400 110.680,19.027 113.600,18.706 113.600 C 18.538 113.600,18.400 113.960,18.400 114.400 C 18.400 114.840,18.228 115.200,18.018 115.200 C 17.808 115.200,17.518 115.832,17.373 116.604 C 17.228 117.377,16.950 118.107,16.755 118.228 C 16.560 118.349,16.400 118.797,16.400 119.224 C 16.400 119.651,16.262 120.000,16.094 120.000 C 15.677 120.000,14.400 123.017,14.400 124.003 C 14.400 124.441,14.220 124.800,14.000 124.800 C 13.780 124.800,13.600 125.065,13.600 125.388 C 13.600 125.711,13.240 126.617,12.800 127.400 C 12.360 128.183,12.000 129.107,12.000 129.452 C 12.000 130.025,11.227 132.048,10.400 133.641 C 10.217 133.994,9.941 135.119,9.788 136.141 C 9.635 137.164,9.350 138.000,9.155 138.000 C 8.960 138.000,8.800 138.450,8.800 139.000 C 8.800 139.550,8.620 140.000,8.400 140.000 C 8.180 140.000,8.000 140.529,8.000 141.176 C 8.000 141.823,7.833 142.456,7.628 142.583 C 7.423 142.709,7.132 143.802,6.981 145.012 C 6.830 146.221,6.548 147.309,6.353 147.429 C 6.159 147.549,6.000 148.076,6.000 148.600 C 6.000 149.124,5.820 149.664,5.600 149.800 C 5.380 149.936,5.200 150.656,5.200 151.400 C 5.200 152.144,5.038 152.853,4.841 152.975 C 4.643 153.097,4.355 154.458,4.200 155.998 C 4.045 157.539,3.757 158.800,3.559 158.800 C 3.362 158.800,3.200 159.599,3.200 160.576 C 3.200 161.553,3.020 162.464,2.800 162.600 C 2.580 162.736,2.400 163.568,2.400 164.450 C 2.400 165.331,2.230 166.370,2.023 166.757 C 1.816 167.144,1.522 169.337,1.370 171.631 C 1.218 173.924,0.893 176.053,0.647 176.361 C 0.014 177.156,0.014 222.844,0.647 223.639 C 0.893 223.947,1.218 226.076,1.370 228.369 C 1.522 230.663,1.816 232.856,2.023 233.243 C 2.230 233.630,2.400 234.669,2.400 235.550 C 2.400 236.432,2.580 237.264,2.800 237.400 C 3.020 237.536,3.200 238.447,3.200 239.424 C 3.200 240.401,3.362 241.200,3.559 241.200 C 3.757 241.200,4.045 242.461,4.200 244.002 C 4.355 245.542,4.643 246.903,4.841 247.025 C 5.038 247.147,5.200 247.856,5.200 248.600 C 5.200 249.344,5.380 250.064,5.600 250.200 C 5.820 250.336,6.000 250.876,6.000 251.400 C 6.000 251.924,6.159 252.451,6.353 252.571 C 6.548 252.691,6.830 253.779,6.981 254.988 C 7.132 256.198,7.423 257.291,7.628 257.417 C 7.833 257.544,8.000 258.177,8.000 258.824 C 8.000 259.471,8.180 260.000,8.400 260.000 C 8.620 260.000,8.800 260.450,8.800 261.000 C 8.800 261.550,8.960 262.000,9.155 262.000 C 9.350 262.000,9.635 262.836,9.788 263.859 C 9.941 264.881,10.217 266.006,10.400 266.359 C 11.235 267.968,12.000 269.978,12.000 270.566 C 12.000 270.921,12.168 271.523,12.374 271.905 C 12.579 272.287,12.983 273.185,13.271 273.900 C 13.560 274.615,13.931 275.200,14.098 275.200 C 14.264 275.200,14.401 275.605,14.401 276.100 C 14.402 276.595,15.032 278.250,15.801 279.777 C 16.571 281.304,17.200 282.698,17.200 282.874 C 17.200 283.500,18.594 286.400,18.894 286.400 C 19.062 286.400,19.200 286.760,19.200 287.200 C 19.200 287.640,19.380 288.000,19.600 288.000 C 19.820 288.000,20.000 288.198,20.000 288.440 C 20.000 288.925,21.226 291.683,21.583 292.000 C 21.707 292.110,22.323 293.235,22.952 294.500 C 23.581 295.765,24.254 296.800,24.448 296.800 C 24.641 296.800,24.800 297.087,24.800 297.438 C 24.800 298.220,25.971 300.384,26.836 301.200 C 27.186 301.530,27.584 302.254,27.721 302.808 C 27.857 303.362,28.336 304.210,28.785 304.691 C 29.233 305.173,29.600 305.739,29.600 305.950 C 29.600 306.161,29.735 306.393,29.900 306.467 C 30.065 306.540,30.539 307.267,30.953 308.081 C 31.367 308.896,32.042 309.924,32.453 310.365 C 32.864 310.806,33.200 311.315,33.200 311.496 C 33.200 311.807,34.107 313.043,35.700 314.905 C 36.085 315.354,36.400 315.925,36.400 316.173 C 36.400 316.421,36.760 316.883,37.200 317.200 C 37.640 317.517,38.000 317.984,38.000 318.238 C 38.000 318.492,38.630 319.387,39.400 320.228 C 40.170 321.069,40.800 321.893,40.800 322.060 C 40.800 322.227,41.250 322.814,41.800 323.364 C 42.350 323.914,42.800 324.475,42.800 324.610 C 42.800 324.746,43.025 325.103,43.300 325.404 C 43.575 325.704,44.340 326.627,45.000 327.454 C 45.660 328.281,47.100 329.875,48.200 330.997 C 49.300 332.120,50.733 333.749,51.384 334.619 C 52.845 336.571,65.107 348.800,65.602 348.800 C 65.800 348.800,66.828 349.655,67.887 350.700 C 68.946 351.745,70.318 352.960,70.935 353.400 C 71.945 354.120,72.651 354.710,75.430 357.158 C 75.886 357.560,76.786 358.225,77.430 358.634 C 78.073 359.044,78.891 359.699,79.247 360.090 C 79.603 360.480,80.021 360.800,80.175 360.800 C 80.330 360.800,80.708 361.025,81.015 361.300 C 82.338 362.487,82.791 362.800,83.183 362.800 C 83.412 362.800,83.600 362.959,83.600 363.154 C 83.600 363.349,84.230 363.808,85.000 364.173 C 85.770 364.539,86.400 365.009,86.400 365.219 C 86.400 365.428,86.642 365.600,86.938 365.600 C 87.234 365.600,87.787 365.944,88.167 366.364 C 88.548 366.784,89.296 367.238,89.829 367.372 C 90.363 367.506,90.800 367.792,90.800 368.008 C 90.800 368.223,91.070 368.400,91.400 368.400 C 91.730 368.400,92.000 368.568,92.000 368.773 C 92.000 368.978,92.391 369.270,92.869 369.422 C 93.347 369.574,94.101 370.036,94.545 370.449 C 94.988 370.862,95.587 371.200,95.875 371.200 C 96.164 371.200,96.400 371.360,96.400 371.557 C 96.400 371.753,96.809 372.016,97.308 372.141 C 97.807 372.266,98.610 372.736,99.091 373.185 C 99.573 373.633,100.244 374.000,100.583 374.000 C 100.922 374.000,101.200 374.166,101.200 374.368 C 101.200 374.571,101.716 374.850,102.346 374.988 C 102.976 375.127,103.842 375.546,104.269 375.920 C 105.297 376.819,107.529 378.000,108.199 378.000 C 108.493 378.000,108.793 378.135,108.867 378.300 C 109.068 378.752,113.106 380.800,113.797 380.800 C 114.129 380.800,114.400 380.980,114.400 381.200 C 114.400 381.420,114.649 381.600,114.954 381.600 C 115.259 381.600,116.024 381.869,116.654 382.198 C 117.284 382.526,118.115 382.796,118.500 382.798 C 118.885 382.799,119.201 382.935,119.203 383.100 C 119.207 383.506,121.186 384.400,122.080 384.400 C 122.476 384.400,122.800 384.578,122.800 384.795 C 122.800 385.013,123.520 385.306,124.400 385.446 C 125.280 385.587,126.000 385.859,126.000 386.051 C 126.000 386.243,126.360 386.400,126.800 386.400 C 127.240 386.400,127.600 386.580,127.600 386.800 C 127.600 387.020,128.050 387.200,128.600 387.200 C 129.150 387.200,129.600 387.360,129.600 387.555 C 129.600 387.750,130.410 388.031,131.400 388.179 C 132.390 388.328,133.200 388.618,133.200 388.825 C 133.200 389.031,133.562 389.200,134.005 389.200 C 134.448 389.200,135.123 389.374,135.505 389.587 C 136.664 390.233,139.966 391.200,141.014 391.200 C 141.556 391.200,142.000 391.380,142.000 391.600 C 142.000 391.820,142.439 392.000,142.976 392.000 C 143.513 392.000,144.064 392.180,144.200 392.400 C 144.336 392.620,144.966 392.800,145.600 392.800 C 146.234 392.800,146.855 392.966,146.981 393.169 C 147.106 393.371,148.377 393.662,149.804 393.815 C 151.232 393.968,152.400 394.252,152.400 394.447 C 152.400 394.641,153.019 394.800,153.776 394.800 C 154.533 394.800,155.252 394.961,155.374 395.158 C 155.496 395.355,157.038 395.644,158.800 395.800 C 160.562 395.956,162.104 396.245,162.226 396.442 C 162.348 396.639,163.146 396.800,164.000 396.800 C 164.854 396.800,165.664 396.980,165.800 397.200 C 165.936 397.420,166.991 397.600,168.144 397.600 C 169.297 397.600,170.412 397.772,170.622 397.982 C 170.832 398.192,173.665 398.490,176.916 398.643 C 180.168 398.797,182.923 399.075,183.038 399.261 C 183.313 399.707,216.289 399.702,216.565 399.257 C 216.682 399.068,219.347 398.785,222.489 398.628 C 225.630 398.471,228.371 398.175,228.580 397.971 C 228.789 397.767,229.903 397.600,231.056 397.600 C 232.209 397.600,233.264 397.420,233.400 397.200 C 233.536 396.980,234.447 396.800,235.424 396.800 C 236.401 396.800,237.200 396.643,237.200 396.452 C 237.200 396.260,238.637 395.978,240.393 395.825 C 242.149 395.672,243.690 395.378,243.817 395.173 C 243.943 394.968,244.667 394.800,245.424 394.800 C 246.181 394.800,246.800 394.641,246.800 394.447 C 246.800 394.252,247.968 393.968,249.396 393.815 C 250.823 393.662,252.094 393.371,252.219 393.169 C 252.345 392.966,252.966 392.800,253.600 392.800 C 254.234 392.800,254.864 392.620,255.000 392.400 C 255.136 392.180,255.687 392.000,256.224 392.000 C 256.761 392.000,257.200 391.841,257.200 391.646 C 257.200 391.451,258.187 391.169,259.394 391.018 C 260.600 390.867,261.691 390.577,261.817 390.372 C 261.944 390.167,262.487 390.000,263.024 390.000 C 263.561 390.000,264.000 389.820,264.000 389.600 C 264.000 389.380,264.450 389.200,265.000 389.200 C 265.550 389.200,266.000 389.031,266.000 388.825 C 266.000 388.618,266.810 388.328,267.800 388.179 C 268.790 388.031,269.600 387.750,269.600 387.555 C 269.600 387.360,269.962 387.200,270.405 387.200 C 271.173 387.200,272.774 386.483,273.200 385.949 C 273.310 385.811,274.165 385.570,275.100 385.414 C 276.035 385.258,276.800 384.966,276.800 384.765 C 276.800 384.564,277.250 384.400,277.800 384.400 C 278.350 384.400,278.800 384.264,278.800 384.098 C 278.800 383.931,279.385 383.549,280.100 383.248 C 280.815 382.947,281.923 382.453,282.561 382.150 C 283.200 381.848,283.965 381.600,284.261 381.600 C 284.558 381.600,284.800 381.420,284.800 381.200 C 284.800 380.980,285.064 380.800,285.386 380.800 C 285.952 380.800,288.791 379.609,289.200 379.200 C 289.310 379.090,290.660 378.347,292.200 377.549 C 298.571 374.247,299.406 373.787,299.533 373.500 C 299.607 373.335,299.922 373.200,300.233 373.200 C 300.545 373.200,300.800 373.055,300.800 372.877 C 300.800 372.699,301.565 372.219,302.500 371.810 C 303.435 371.401,304.470 370.762,304.800 370.391 C 305.130 370.019,305.805 369.587,306.300 369.430 C 306.795 369.274,307.200 368.978,307.200 368.773 C 307.200 368.568,307.560 368.400,308.000 368.400 C 308.440 368.400,308.804 368.265,308.808 368.100 C 308.812 367.935,309.712 367.268,310.808 366.617 C 311.904 365.967,312.800 365.333,312.800 365.208 C 312.800 365.084,313.430 364.643,314.200 364.228 C 314.970 363.813,315.600 363.322,315.600 363.137 C 315.600 362.952,315.793 362.800,316.029 362.800 C 316.264 362.800,316.708 362.575,317.015 362.300 C 318.216 361.223,318.776 360.800,319.001 360.800 C 319.131 360.800,319.686 360.350,320.236 359.800 C 320.786 359.250,321.426 358.800,321.658 358.800 C 321.889 358.800,322.583 358.260,323.200 357.600 C 323.817 356.940,324.511 356.400,324.744 356.400 C 324.977 356.400,325.902 355.680,326.800 354.800 C 327.698 353.920,328.560 353.199,328.716 353.198 C 329.169 353.194,332.800 349.639,332.800 349.199 C 332.800 348.979,333.062 348.800,333.382 348.800 C 333.850 348.800,337.655 345.271,345.322 337.729 C 345.585 337.471,346.430 336.492,347.200 335.555 C 347.970 334.617,349.273 333.152,350.095 332.298 C 350.918 331.445,352.268 329.906,353.095 328.879 C 353.923 327.853,355.005 326.597,355.500 326.088 C 355.995 325.580,356.400 324.986,356.400 324.768 C 356.400 324.551,357.030 323.743,357.800 322.973 C 358.570 322.203,359.200 321.375,359.200 321.134 C 359.200 320.892,359.517 320.403,359.904 320.047 C 360.751 319.270,362.800 316.553,362.800 316.209 C 362.800 316.074,363.250 315.514,363.800 314.964 C 364.350 314.414,364.800 313.717,364.800 313.415 C 364.800 313.113,364.935 312.807,365.100 312.733 C 365.586 312.518,367.600 309.692,367.600 309.227 C 367.600 308.992,367.735 308.798,367.900 308.795 C 368.065 308.793,368.557 308.028,368.993 307.095 C 369.428 306.163,370.103 305.109,370.493 304.753 C 370.882 304.397,371.200 303.902,371.200 303.653 C 371.200 303.404,371.380 303.200,371.600 303.200 C 371.820 303.200,372.000 302.853,372.000 302.429 C 372.000 302.004,372.270 301.387,372.600 301.057 C 372.930 300.727,373.200 300.264,373.200 300.029 C 373.200 299.793,373.343 299.600,373.518 299.600 C 373.693 299.600,374.170 298.790,374.578 297.800 C 374.987 296.810,375.473 296.000,375.660 296.000 C 375.847 296.000,376.000 295.730,376.000 295.400 C 376.000 295.070,376.180 294.800,376.400 294.800 C 376.620 294.800,376.800 294.578,376.800 294.306 C 376.800 293.828,378.782 289.605,379.197 289.200 C 379.309 289.090,379.611 288.550,379.868 288.000 C 381.846 283.759,382.396 282.461,382.625 281.500 C 382.769 280.895,383.047 280.400,383.243 280.400 C 383.440 280.400,383.600 280.040,383.600 279.600 C 383.600 279.160,383.780 278.800,384.000 278.800 C 384.220 278.800,384.400 278.451,384.400 278.024 C 384.400 277.597,384.580 277.136,384.800 277.000 C 385.020 276.864,385.200 276.476,385.200 276.137 C 385.200 275.560,386.003 273.480,386.834 271.905 C 387.035 271.523,387.200 270.848,387.200 270.405 C 387.200 269.962,387.378 269.600,387.595 269.600 C 387.813 269.600,388.106 268.880,388.246 268.000 C 388.387 267.120,388.659 266.400,388.851 266.400 C 389.043 266.400,389.200 265.961,389.200 265.424 C 389.200 264.887,389.380 264.336,389.600 264.200 C 389.820 264.064,390.000 263.524,390.000 263.000 C 390.000 262.476,390.175 261.939,390.388 261.807 C 390.602 261.675,390.896 260.670,391.041 259.575 C 391.187 258.479,391.462 257.485,391.653 257.367 C 391.844 257.249,392.000 256.713,392.000 256.176 C 392.000 255.639,392.180 255.200,392.400 255.200 C 392.620 255.200,392.800 254.671,392.800 254.024 C 392.800 253.377,392.962 252.747,393.161 252.624 C 393.359 252.502,393.647 251.321,393.800 250.000 C 393.953 248.679,394.241 247.498,394.439 247.376 C 394.638 247.253,394.800 246.443,394.800 245.576 C 394.800 244.709,394.968 244.000,395.173 244.000 C 395.377 244.000,395.671 242.560,395.824 240.800 C 395.978 239.040,396.260 237.600,396.452 237.600 C 396.643 237.600,396.800 236.700,396.800 235.600 C 396.800 234.500,396.980 233.600,397.200 233.600 C 397.420 233.600,397.600 232.646,397.600 231.480 C 397.600 230.314,397.772 229.188,397.982 228.978 C 398.192 228.768,398.489 225.942,398.643 222.698 C 398.796 219.454,399.074 216.800,399.261 216.800 C 399.447 216.800,399.600 209.240,399.600 200.000 C 399.600 190.760,399.447 183.200,399.261 183.200 C 399.074 183.200,398.796 180.546,398.643 177.302 C 398.489 174.058,398.192 171.232,397.982 171.022 C 397.772 170.812,397.600 169.686,397.600 168.520 C 397.600 167.354,397.420 166.400,397.200 166.400 C 396.980 166.400,396.800 165.500,396.800 164.400 C 396.800 163.300,396.643 162.400,396.452 162.400 C 396.260 162.400,395.978 160.960,395.824 159.200 C 395.671 157.440,395.377 156.000,395.173 156.000 C 394.968 156.000,394.800 155.280,394.800 154.400 C 394.800 153.520,394.641 152.800,394.447 152.800 C 394.252 152.800,393.968 151.630,393.815 150.200 C 393.662 148.770,393.371 147.600,393.168 147.600 C 392.966 147.600,392.800 146.970,392.800 146.200 C 392.800 145.430,392.620 144.800,392.400 144.800 C 392.180 144.800,392.000 144.361,392.000 143.824 C 392.000 143.287,391.844 142.751,391.653 142.633 C 391.462 142.515,391.187 141.521,391.041 140.425 C 390.896 139.330,390.602 138.325,390.388 138.193 C 390.175 138.061,390.000 137.513,390.000 136.976 C 390.000 136.439,389.820 136.000,389.600 136.000 C 389.380 136.000,389.200 135.561,389.200 135.024 C 389.200 134.487,389.044 133.951,388.853 133.832 C 388.661 133.714,388.389 132.894,388.248 132.009 C 388.106 131.124,387.813 130.400,387.595 130.400 C 387.378 130.400,387.200 130.038,387.200 129.595 C 387.200 129.152,387.035 128.477,386.834 128.095 C 386.003 126.520,385.200 124.440,385.200 123.863 C 385.200 123.524,385.020 123.136,384.800 123.000 C 384.580 122.864,384.400 122.403,384.400 121.976 C 384.400 121.549,384.220 121.200,384.000 121.200 C 383.780 121.200,383.600 120.930,383.600 120.600 C 383.600 120.270,383.443 120.000,383.250 120.000 C 383.058 120.000,382.783 119.416,382.641 118.703 C 382.311 117.057,381.496 115.200,381.102 115.200 C 380.936 115.200,380.800 114.931,380.800 114.603 C 380.800 113.769,379.477 110.800,379.106 110.800 C 378.938 110.800,378.800 110.530,378.800 110.200 C 378.800 109.870,378.620 109.600,378.400 109.600 C 378.180 109.600,378.000 109.329,378.000 108.997 C 378.000 108.390,376.023 104.372,375.541 104.000 C 375.399 103.890,374.951 103.035,374.547 102.100 C 374.142 101.165,373.674 100.400,373.506 100.400 C 373.338 100.400,373.200 100.130,373.200 99.800 C 373.200 99.470,373.055 99.200,372.877 99.200 C 372.699 99.200,372.219 98.435,371.810 97.500 C 371.401 96.565,370.778 95.530,370.424 95.200 C 370.071 94.870,369.562 94.150,369.293 93.600 C 368.282 91.529,365.841 87.723,365.189 87.200 C 365.052 87.090,364.599 86.415,364.184 85.700 C 363.768 84.985,363.286 84.400,363.114 84.400 C 362.941 84.400,362.800 84.130,362.800 83.800 C 362.800 83.470,362.632 83.200,362.427 83.200 C 362.222 83.200,361.946 82.861,361.815 82.447 C 361.683 82.032,361.041 81.134,360.388 80.450 C 359.735 79.767,359.200 79.032,359.200 78.817 C 359.200 78.602,358.570 77.797,357.800 77.027 C 357.030 76.257,356.400 75.456,356.400 75.248 C 356.400 75.039,355.815 74.240,355.100 73.471 C 354.385 72.703,353.260 71.407,352.600 70.591 C 350.839 68.415,349.614 67.200,349.182 67.200 C 348.972 67.200,348.800 66.920,348.800 66.579 C 348.800 65.771,334.224 51.200,333.416 51.200 C 333.077 51.200,332.800 51.033,332.800 50.829 C 332.800 50.433,332.473 50.098,330.233 48.200 C 329.454 47.540,327.992 46.235,326.985 45.300 C 325.977 44.365,324.982 43.600,324.773 43.600 C 324.564 43.600,323.828 43.060,323.137 42.400 C 322.446 41.740,321.736 41.200,321.559 41.200 C 321.381 41.200,320.786 40.750,320.236 40.200 C 319.686 39.650,319.125 39.200,318.990 39.200 C 318.854 39.200,318.492 38.975,318.185 38.700 C 316.862 37.513,316.409 37.200,316.017 37.200 C 315.788 37.200,315.600 37.032,315.600 36.827 C 315.600 36.622,315.210 36.330,314.734 36.179 C 314.258 36.028,313.418 35.454,312.868 34.904 C 312.317 34.354,311.259 33.650,310.516 33.339 C 309.773 33.029,309.064 32.510,308.940 32.187 C 308.816 31.864,308.374 31.600,307.957 31.600 C 307.541 31.600,307.200 31.432,307.200 31.227 C 307.200 31.022,306.809 30.730,306.331 30.578 C 305.853 30.426,305.095 29.960,304.646 29.543 C 304.198 29.125,303.149 28.483,302.316 28.115 C 301.482 27.747,300.800 27.301,300.800 27.123 C 300.800 26.945,300.530 26.800,300.200 26.800 C 299.870 26.800,299.600 26.662,299.600 26.494 C 299.600 26.173,296.680 24.800,295.997 24.800 C 295.779 24.800,295.600 24.647,295.600 24.461 C 295.600 24.274,294.835 23.784,293.900 23.372 C 292.965 22.959,292.110 22.527,292.000 22.411 C 291.534 21.920,287.555 20.000,287.003 20.000 C 286.671 20.000,286.400 19.820,286.400 19.600 C 286.400 19.380,286.040 19.200,285.600 19.200 C 285.160 19.200,284.800 19.020,284.800 18.800 C 284.800 18.580,284.558 18.400,284.261 18.400 C 283.965 18.400,283.200 18.152,282.561 17.850 C 281.923 17.547,280.815 17.053,280.100 16.752 C 279.385 16.451,278.800 16.069,278.800 15.902 C 278.800 15.736,278.461 15.600,278.046 15.600 C 277.631 15.600,276.776 15.331,276.146 15.002 C 275.516 14.674,274.595 14.404,274.100 14.402 C 273.605 14.401,273.199 14.265,273.197 14.100 C 273.193 13.694,271.214 12.800,270.320 12.800 C 269.924 12.800,269.600 12.640,269.600 12.445 C 269.600 12.250,268.790 11.969,267.800 11.821 C 266.810 11.672,266.000 11.382,266.000 11.175 C 266.000 10.969,265.550 10.800,265.000 10.800 C 264.450 10.800,264.000 10.637,264.000 10.438 C 264.000 10.238,263.100 9.951,262.000 9.800 C 260.901 9.649,259.900 9.362,259.777 9.163 C 259.654 8.963,259.023 8.800,258.376 8.800 C 257.729 8.800,257.200 8.620,257.200 8.400 C 257.200 8.180,256.761 8.000,256.224 8.000 C 255.687 8.000,255.145 7.834,255.019 7.631 C 254.894 7.429,253.623 7.138,252.196 6.985 C 250.768 6.832,249.600 6.548,249.600 6.353 C 249.600 6.159,248.970 6.000,248.200 6.000 C 247.430 6.000,246.800 5.820,246.800 5.600 C 246.800 5.380,246.181 5.200,245.424 5.200 C 244.667 5.200,243.943 5.032,243.817 4.827 C 243.690 4.622,242.149 4.328,240.393 4.175 C 238.637 4.022,237.200 3.757,237.200 3.587 C 237.200 3.297,236.494 3.178,231.100 2.559 C 229.945 2.426,228.817 2.169,228.594 1.987 C 228.370 1.806,225.535 1.528,222.294 1.371 C 219.052 1.213,216.400 0.930,216.400 0.742 C 216.400 0.554,208.930 0.400,199.800 0.400 C 190.670 0.400,183.200 0.553,183.200 0.739 M49.000 137.151 L 50.200 137.408 50.200 145.604 L 50.200 153.800 47.000 153.686 C 39.150 153.406,36.951 155.563,36.689 163.800 L 36.600 166.600 43.000 166.800 L 49.400 167.000 49.400 175.200 L 49.400 183.400 42.900 183.510 L 36.400 183.620 36.400 212.610 L 36.400 241.600 26.200 241.600 L 16.000 241.600 16.000 212.600 L 16.000 183.600 12.300 183.594 C 7.202 183.585,7.565 184.265,7.691 174.971 L 7.800 167.000 11.800 166.800 L 15.800 166.600 16.071 163.000 C 17.151 148.670,19.890 143.013,27.638 139.111 C 31.716 137.058,43.504 135.976,49.000 137.151 M114.320 140.480 C 114.876 141.036,115.011 159.848,114.466 160.707 C 114.217 161.099,111.764 161.190,103.572 161.107 L 93.000 161.000 92.893 150.828 C 92.810 142.957,92.901 140.583,93.293 140.334 C 94.153 139.788,113.764 139.924,114.320 140.480 M78.600 191.200 L 78.600 241.400 68.000 241.400 L 57.400 241.400 57.297 191.600 C 57.241 164.210,57.281 141.572,57.387 141.293 C 57.537 140.898,59.898 140.810,68.090 140.893 L 78.600 141.000 78.600 191.200 M233.400 164.977 C 243.923 166.622,251.374 172.247,255.324 181.526 C 255.916 182.916,256.400 184.390,256.400 184.803 C 256.400 185.215,256.547 185.644,256.727 185.755 C 257.057 185.959,258.034 190.938,258.792 196.277 C 259.462 200.997,259.332 207.864,258.567 208.157 C 258.219 208.291,249.489 208.400,239.167 208.400 L 220.400 208.400 220.400 213.218 C 220.400 223.887,223.231 228.400,229.923 228.400 C 235.417 228.400,238.352 225.523,239.717 218.800 L 240.245 216.200 245.222 216.349 C 247.960 216.431,252.180 216.706,254.600 216.960 L 259.000 217.421 258.939 218.610 C 258.554 226.081,252.034 236.430,245.362 240.159 C 239.681 243.334,230.020 244.891,224.077 243.589 C 223.045 243.362,221.300 242.986,220.200 242.752 C 212.600 241.135,205.348 234.539,201.798 226.014 C 200.643 223.239,200.233 221.831,198.767 215.600 C 198.077 212.672,198.083 197.495,198.775 194.200 C 200.673 185.152,201.845 181.957,204.934 177.405 C 209.831 170.188,215.888 166.356,224.539 165.002 C 228.870 164.324,229.218 164.323,233.400 164.977 M303.062 164.982 C 314.303 166.464,321.385 171.995,325.623 182.600 C 329.269 191.722,329.878 209.451,326.958 221.400 C 324.239 232.522,316.862 240.739,307.800 242.736 C 306.700 242.979,304.955 243.362,303.923 243.589 C 295.665 245.398,283.756 242.392,278.055 237.058 C 275.298 234.478,270.800 227.286,270.800 225.456 C 270.800 225.121,270.641 224.749,270.446 224.629 C 270.251 224.508,270.003 223.913,269.894 223.305 C 269.785 222.697,269.290 220.400,268.792 218.200 C 267.063 210.544,267.550 193.170,269.684 186.400 C 273.933 172.924,280.600 166.854,293.200 164.990 C 297.771 164.314,298.001 164.314,303.062 164.982 M367.800 164.832 C 374.318 165.610,378.228 167.193,382.522 170.794 C 385.134 172.985,390.000 181.594,390.000 184.025 C 390.000 184.547,381.540 187.391,375.627 188.858 C 375.254 188.950,374.540 187.980,373.584 186.082 C 368.347 175.680,356.566 176.642,358.170 187.341 C 358.625 190.375,361.529 192.439,369.200 195.180 C 369.970 195.456,370.960 195.823,371.400 195.997 C 382.819 200.504,385.014 201.805,388.022 205.845 C 397.385 218.422,390.724 237.428,375.290 242.175 C 359.761 246.952,343.755 242.289,338.410 231.431 C 334.982 224.466,334.898 220.800,338.168 220.800 C 338.729 220.800,339.956 220.624,340.894 220.408 C 343.201 219.878,350.396 218.800,351.630 218.800 C 352.473 218.800,352.711 219.091,353.182 220.700 C 356.368 231.584,372.000 233.278,372.000 222.738 C 372.000 218.457,369.375 216.231,361.000 213.411 C 359.900 213.041,358.640 212.593,358.200 212.416 C 357.760 212.238,356.140 211.592,354.600 210.978 C 353.060 210.365,351.350 209.571,350.800 209.215 C 350.250 208.858,349.110 208.214,348.266 207.783 C 337.483 202.277,334.337 185.595,342.085 175.010 C 346.062 169.577,351.995 166.214,359.739 165.002 C 364.024 164.331,363.670 164.339,367.800 164.832 M172.087 166.794 C 174.561 167.558,179.511 170.663,180.800 172.260 C 183.185 175.213,184.138 176.581,185.147 178.500 C 192.449 192.381,191.255 220.750,182.847 233.131 C 176.026 243.176,162.039 245.918,152.894 239.004 L 150.600 237.269 150.495 250.241 L 150.389 263.213 139.895 263.107 L 129.400 263.000 129.290 215.800 C 129.230 189.840,129.278 168.195,129.398 167.700 L 129.615 166.800 139.165 166.800 C 150.252 166.800,149.200 166.252,149.200 172.033 C 149.200 176.384,149.428 176.755,150.708 174.479 C 154.606 167.542,163.804 164.236,172.087 166.794 M114.302 204.300 L 114.404 241.600 103.802 241.600 C 97.971 241.600,93.199 241.465,93.199 241.300 C 93.195 240.397,93.192 167.717,93.196 167.293 C 93.199 166.895,95.439 166.809,103.700 166.893 L 114.200 167.000 114.302 204.300 M228.400 179.084 C 223.637 179.858,220.400 185.748,220.400 193.643 L 220.400 195.600 229.600 195.600 L 238.800 195.600 238.796 191.900 C 238.785 183.020,234.755 178.052,228.400 179.084 M155.681 180.851 C 150.967 183.185,150.600 184.915,150.600 204.800 L 150.601 221.000 151.600 223.400 C 153.662 228.349,160.722 229.284,164.499 225.109 C 169.105 220.016,169.136 187.864,164.540 182.402 C 162.402 179.861,158.916 179.250,155.681 180.851 M295.215 180.719 C 291.016 182.784,289.795 189.211,290.109 207.600 C 290.399 224.557,291.913 228.395,298.314 228.399 C 304.522 228.402,306.776 221.966,306.787 204.200 C 306.800 184.796,302.923 176.930,295.215 180.719 " stroke="none" fill="#040404" fill-rule="evenodd"></path><path id="path3" d="M34.883 137.140 C 34.379 137.283,37.259 137.406,41.283 137.413 C 45.524 137.420,47.843 137.306,46.800 137.142 C 44.560 136.790,36.122 136.788,34.883 137.140 M31.000 138.000 L 30.200 138.344 31.000 138.344 C 31.440 138.344,32.160 138.189,32.600 138.000 L 33.400 137.656 32.600 137.656 C 32.160 137.656,31.440 137.811,31.000 138.000 M27.532 139.410 C 25.233 140.607,21.253 144.252,20.272 146.059 L 19.543 147.400 20.440 146.200 C 22.240 143.790,25.852 140.646,27.900 139.706 C 29.055 139.175,30.000 138.665,30.000 138.571 C 30.000 138.237,29.377 138.449,27.532 139.410 M93.293 150.700 L 93.400 161.000 103.000 161.113 C 108.280 161.175,113.005 161.126,113.500 161.005 L 114.400 160.785 114.400 150.816 C 114.400 145.333,114.265 140.764,114.100 140.661 C 113.935 140.559,113.855 144.638,113.922 149.725 C 113.988 154.812,113.939 159.388,113.812 159.894 L 113.581 160.814 103.691 160.707 L 93.800 160.600 93.800 150.500 C 93.800 144.945,93.662 140.400,93.493 140.400 C 93.325 140.400,93.235 145.035,93.293 150.700 M57.873 141.060 C 57.723 141.210,57.600 163.893,57.600 191.467 L 57.600 241.600 68.002 241.600 L 78.403 241.600 78.302 191.300 L 78.200 141.000 68.173 140.893 C 62.659 140.835,58.024 140.910,57.873 141.060 M77.902 191.100 L 77.800 241.000 67.900 241.107 L 58.000 241.214 58.000 191.207 L 58.000 141.200 68.002 141.200 L 78.003 141.200 77.902 191.100 M18.000 150.800 C 17.751 151.724,17.626 152.559,17.721 152.655 C 17.817 152.750,18.090 152.063,18.327 151.127 C 18.565 150.191,18.690 149.357,18.606 149.273 C 18.522 149.188,18.249 149.876,18.000 150.800 M50.000 152.533 C 50.000 153.112,49.456 153.201,45.900 153.209 C 40.247 153.221,37.639 154.449,37.004 157.400 C 36.797 158.359,36.909 158.256,37.559 156.886 C 38.758 154.361,40.647 153.620,45.913 153.609 C 49.886 153.600,51.260 153.127,50.249 152.116 C 50.112 151.979,50.000 152.167,50.000 152.533 M17.043 155.334 C 16.873 156.617,16.825 157.759,16.937 157.870 C 17.221 158.155,17.712 154.655,17.515 153.747 C 17.426 153.336,17.214 154.050,17.043 155.334 M36.256 159.684 C 36.121 160.188,36.034 161.860,36.061 163.400 L 36.112 166.200 36.429 162.607 C 36.752 158.953,36.698 158.035,36.256 159.684 M16.481 163.457 C 16.385 167.314,16.534 167.200,11.567 167.200 L 8.000 167.200 8.000 175.186 L 8.000 183.172 12.100 183.286 L 16.200 183.400 16.303 212.500 L 16.405 241.600 26.303 241.507 L 36.200 241.415 26.503 241.300 L 16.805 241.186 16.703 212.093 L 16.600 183.000 12.500 182.886 L 8.400 182.772 8.400 175.186 L 8.400 167.600 12.100 167.594 C 16.938 167.586,16.864 167.651,16.699 163.566 L 16.563 160.200 16.481 163.457 M162.315 166.328 C 161.939 166.478,163.645 166.607,166.106 166.616 C 168.568 166.625,170.136 166.508,169.591 166.356 C 168.302 165.997,163.198 165.977,162.315 166.328 M36.068 166.800 C 36.233 167.300,37.360 167.403,42.833 167.416 L 49.400 167.433 43.228 167.306 C 39.125 167.221,36.857 167.014,36.463 166.689 C 35.981 166.292,35.907 166.313,36.068 166.800 M159.600 167.200 C 159.067 167.545,159.067 167.588,159.600 167.588 C 159.930 167.588,160.470 167.413,160.800 167.200 C 161.333 166.855,161.333 166.812,160.800 166.812 C 160.470 166.812,159.930 166.987,159.600 167.200 M170.800 166.985 C 170.800 167.086,171.491 167.355,172.335 167.582 C 174.070 168.050,178.116 170.552,179.706 172.142 C 180.963 173.399,181.657 173.570,180.562 172.353 C 178.359 169.903,170.800 165.746,170.800 166.985 M93.384 167.700 C 93.279 167.975,93.240 184.670,93.297 204.800 L 93.400 241.400 103.700 241.507 L 114.000 241.614 114.000 204.407 L 114.000 167.200 103.787 167.200 C 95.986 167.200,93.530 167.318,93.384 167.700 M129.785 167.700 C 129.680 167.975,129.640 189.530,129.697 215.600 L 129.800 263.000 139.900 263.107 L 150.000 263.214 150.000 250.007 C 150.000 242.743,150.148 236.800,150.328 236.800 C 150.508 236.800,151.363 237.405,152.228 238.145 C 153.840 239.524,157.902 241.831,158.197 241.536 C 158.288 241.445,157.454 240.940,156.343 240.412 C 155.232 239.885,153.425 238.646,152.327 237.659 C 149.580 235.188,149.613 235.037,149.606 249.900 L 149.600 262.800 139.800 262.800 L 130.000 262.800 130.000 215.200 L 130.000 167.600 139.200 167.600 L 148.400 167.600 148.400 172.576 C 148.400 178.394,148.669 178.791,150.583 175.800 C 152.514 172.781,155.004 170.149,157.077 168.934 C 158.025 168.378,158.800 167.833,158.800 167.721 C 158.800 166.456,152.932 171.668,150.711 174.906 L 149.000 177.400 148.888 172.300 L 148.776 167.200 139.375 167.200 C 132.223 167.200,129.929 167.320,129.785 167.700 M113.600 204.407 L 113.600 241.214 103.700 241.107 L 93.800 241.000 93.698 204.300 L 93.596 167.600 103.598 167.600 L 113.600 167.600 113.600 204.407 M183.076 176.300 C 185.113 179.347,185.530 179.850,184.816 178.400 C 184.053 176.853,181.831 173.602,181.536 173.601 C 181.390 173.600,182.083 174.815,183.076 176.300 M157.000 179.464 C 156.560 179.582,156.020 179.867,155.800 180.098 C 155.525 180.387,155.629 180.437,156.135 180.258 C 157.789 179.673,159.941 179.546,161.392 179.947 C 162.536 180.263,162.816 180.256,162.480 179.920 C 161.988 179.428,158.289 179.121,157.000 179.464 M152.931 182.207 C 151.979 183.201,151.200 184.316,151.200 184.685 C 151.200 185.055,151.709 184.554,152.331 183.573 C 152.954 182.592,153.899 181.486,154.431 181.115 C 154.964 180.745,155.234 180.433,155.031 180.421 C 154.829 180.409,153.884 181.213,152.931 182.207 M164.222 181.700 C 166.127 183.813,166.180 183.854,165.400 182.600 C 164.532 181.205,163.783 180.400,163.354 180.400 C 163.187 180.400,163.578 180.985,164.222 181.700 M186.026 181.400 C 186.020 181.620,186.461 183.150,187.007 184.800 C 187.552 186.450,187.909 187.170,187.799 186.400 C 187.602 185.013,186.048 180.630,186.026 181.400 M36.184 183.300 C 36.079 183.575,36.041 196.670,36.099 212.400 L 36.205 241.000 36.303 212.110 L 36.400 183.220 42.900 183.099 L 49.400 182.979 42.887 182.889 C 37.978 182.822,36.328 182.923,36.184 183.300 M150.672 186.156 C 150.548 186.480,150.351 187.883,150.235 189.273 L 150.024 191.800 150.599 188.820 C 151.142 186.002,151.174 184.848,150.672 186.156 M166.875 186.600 C 166.886 187.040,167.032 187.940,167.200 188.600 L 167.505 189.800 167.525 188.600 C 167.535 187.940,167.389 187.040,167.200 186.600 L 166.856 185.800 166.875 186.600 M338.128 188.800 C 338.128 190.230,338.201 190.815,338.289 190.100 C 338.378 189.385,338.378 188.215,338.289 187.500 C 338.201 186.785,338.128 187.370,338.128 188.800 M188.053 189.200 C 188.031 189.970,188.187 190.870,188.400 191.200 C 188.877 191.939,188.877 190.876,188.400 189.000 L 188.095 187.800 188.053 189.200 M167.800 203.784 C 167.800 211.229,167.925 216.618,168.077 215.760 C 168.420 213.827,168.399 193.037,168.053 191.425 C 167.914 190.778,167.800 196.340,167.800 203.784 M189.000 203.200 C 189.000 209.030,189.122 212.990,189.270 212.000 C 189.419 211.010,189.541 207.050,189.541 203.200 C 189.541 199.350,189.419 195.390,189.270 194.400 C 189.122 193.410,189.000 197.370,189.000 203.200 M149.774 204.200 C 149.775 209.920,149.831 212.204,149.899 209.276 C 149.968 206.348,149.967 201.668,149.899 198.876 C 149.830 196.084,149.774 198.480,149.774 204.200 M306.920 196.800 C 306.920 198.010,306.995 198.505,307.087 197.900 C 307.178 197.295,307.178 196.305,307.087 195.700 C 306.995 195.095,306.920 195.590,306.920 196.800 M289.355 204.200 C 289.356 207.060,289.420 208.178,289.497 206.683 C 289.574 205.189,289.574 202.849,289.496 201.483 C 289.418 200.118,289.355 201.340,289.355 204.200 M198.544 205.200 C 198.544 207.290,198.612 208.145,198.694 207.100 C 198.776 206.055,198.776 204.345,198.694 203.300 C 198.612 202.255,198.544 203.110,198.544 205.200 M219.770 208.133 C 219.658 208.427,219.620 210.182,219.686 212.033 L 219.807 215.400 220.004 211.499 C 220.199 207.625,220.163 207.110,219.770 208.133 M306.914 211.800 C 306.917 212.900,306.995 213.303,307.087 212.695 C 307.179 212.086,307.177 211.186,307.082 210.695 C 306.987 210.203,306.911 210.700,306.914 211.800 M188.273 215.753 C 188.123 216.145,188.018 217.036,188.040 217.733 C 188.079 218.967,188.090 218.959,188.449 217.427 C 188.845 215.737,188.724 214.579,188.273 215.753 M150.234 219.512 C 150.517 223.320,152.258 227.200,153.684 227.200 C 153.918 227.200,153.613 226.705,153.008 226.100 C 151.605 224.700,151.233 223.741,150.562 219.800 L 150.018 216.600 150.234 219.512 M253.300 217.476 C 253.685 217.576,254.315 217.576,254.700 217.476 C 255.085 217.375,254.770 217.293,254.000 217.293 C 253.230 217.293,252.915 217.375,253.300 217.476 M167.259 218.400 C 167.220 218.950,167.089 219.850,166.967 220.400 C 166.776 221.262,166.808 221.302,167.197 220.691 C 167.446 220.302,167.577 219.402,167.489 218.691 C 167.364 217.687,167.313 217.622,167.259 218.400 M187.469 220.353 C 187.342 220.988,187.129 222.023,186.994 222.653 C 186.822 223.461,186.862 223.623,187.130 223.200 C 187.549 222.538,188.180 219.200,187.885 219.200 C 187.783 219.200,187.596 219.719,187.469 220.353 M166.067 222.961 C 165.388 224.843,163.173 227.069,161.497 227.553 C 160.597 227.813,160.457 227.939,161.041 227.964 C 162.917 228.044,167.056 223.805,166.729 222.138 C 166.652 221.746,166.386 222.076,166.067 222.961 M186.200 224.800 C 186.050 225.273,186.017 225.750,186.127 225.860 C 186.237 225.970,186.450 225.673,186.600 225.200 C 186.750 224.727,186.783 224.250,186.673 224.140 C 186.563 224.030,186.350 224.327,186.200 224.800 M185.371 227.043 C 184.251 230.460,180.811 235.340,177.903 237.639 C 176.049 239.104,175.158 239.596,171.600 241.118 C 171.050 241.353,170.870 241.558,171.200 241.573 C 172.517 241.631,176.769 239.187,179.095 237.033 C 182.115 234.237,186.591 227.258,185.844 226.510 C 185.720 226.387,185.507 226.626,185.371 227.043 M154.600 227.600 C 154.736 227.820,155.242 227.987,155.724 227.972 C 156.569 227.945,156.571 227.931,155.800 227.600 C 154.699 227.127,154.308 227.127,154.600 227.600 M157.905 228.283 C 158.402 228.379,159.122 228.375,159.505 228.275 C 159.887 228.175,159.480 228.096,158.600 228.101 C 157.720 228.105,157.407 228.187,157.905 228.283 M159.676 242.060 C 160.184 242.203,162.400 242.320,164.600 242.320 C 166.800 242.320,169.016 242.203,169.524 242.060 C 170.032 241.917,167.816 241.800,164.600 241.800 C 161.384 241.800,159.168 241.917,159.676 242.060 " stroke="none" fill="#3774b6" fill-rule="evenodd"></path><path id="path4" d="M33.200 137.200 C 32.408 137.454,32.367 137.520,33.000 137.520 C 33.440 137.520,34.250 137.376,34.800 137.200 C 35.592 136.946,35.633 136.880,35.000 136.880 C 34.560 136.880,33.750 137.024,33.200 137.200 M46.100 137.076 C 46.485 137.176,47.115 137.176,47.500 137.076 C 47.885 136.975,47.570 136.893,46.800 136.893 C 46.030 136.893,45.715 136.975,46.100 137.076 M49.000 137.472 C 49.440 137.593,49.949 137.897,50.130 138.146 C 50.349 138.446,50.406 138.396,50.299 138.000 C 50.210 137.670,49.701 137.367,49.169 137.326 C 48.405 137.268,48.369 137.299,49.000 137.472 M50.163 145.600 C 50.163 149.230,50.223 150.715,50.298 148.900 C 50.372 147.085,50.372 144.115,50.298 142.300 C 50.223 140.485,50.163 141.970,50.163 145.600 M23.276 142.300 L 20.931 144.600 23.166 142.630 C 24.395 141.547,25.571 140.512,25.780 140.330 C 25.989 140.149,26.039 140.000,25.891 140.000 C 25.742 140.000,24.566 141.035,23.276 142.300 M103.800 140.390 L 114.200 140.600 114.411 150.600 L 114.621 160.600 114.711 150.780 C 114.776 143.572,114.672 140.832,114.320 140.480 C 113.967 140.127,111.139 140.024,103.620 140.090 L 93.400 140.180 103.800 140.390 M92.883 150.476 C 92.837 156.128,92.935 160.837,93.100 160.939 C 93.265 161.041,93.354 158.037,93.297 154.263 C 93.105 141.445,92.966 140.173,92.883 150.476 M57.385 141.300 C 57.280 141.575,57.241 164.210,57.297 191.600 L 57.400 241.400 57.600 191.100 C 57.710 163.435,57.749 140.800,57.687 140.800 C 57.626 140.800,57.489 141.025,57.385 141.300 M78.400 191.120 L 78.600 241.400 78.702 191.422 C 78.757 163.933,78.667 141.307,78.502 141.142 C 78.336 140.976,78.290 163.466,78.400 191.120 M17.449 151.415 C 17.312 151.773,17.215 152.366,17.234 152.733 C 17.253 153.100,17.427 152.869,17.621 152.220 C 17.998 150.958,17.865 150.333,17.449 151.415 M41.000 154.000 C 39.981 154.438,41.032 154.438,42.400 154.000 C 43.204 153.743,43.243 153.677,42.600 153.668 C 42.160 153.662,41.440 153.811,41.000 154.000 M16.514 158.600 C 16.517 159.700,16.595 160.103,16.687 159.495 C 16.779 158.886,16.777 157.986,16.682 157.495 C 16.587 157.003,16.511 157.500,16.514 158.600 M37.029 158.229 C 36.881 158.815,36.838 159.372,36.932 159.466 C 37.027 159.560,37.224 159.158,37.371 158.571 C 37.519 157.985,37.562 157.428,37.468 157.334 C 37.373 157.240,37.176 157.642,37.029 158.229 M36.501 162.200 C 36.505 163.080,36.587 163.393,36.683 162.895 C 36.779 162.398,36.775 161.678,36.675 161.295 C 36.575 160.913,36.496 161.320,36.501 162.200 M15.988 164.000 L 15.800 166.600 11.800 166.800 L 7.800 167.000 7.787 175.100 L 7.775 183.201 7.896 175.200 L 8.017 167.200 11.708 167.194 C 16.413 167.186,16.473 167.144,16.309 163.964 L 16.176 161.400 15.988 164.000 M226.200 164.800 C 225.124 164.993,226.107 165.089,229.200 165.093 C 232.720 165.098,233.377 165.025,232.000 164.780 C 229.881 164.402,228.391 164.408,226.200 164.800 M293.200 164.990 C 284.483 166.280,276.664 170.971,273.981 176.521 C 273.744 177.010,273.948 176.868,274.441 176.200 C 279.833 168.893,286.539 165.702,297.400 165.276 C 302.085 165.092,302.962 164.978,301.400 164.755 C 298.651 164.363,297.150 164.406,293.200 164.990 M361.400 164.773 C 360.297 164.951,361.540 165.114,365.400 165.295 C 368.480 165.440,371.540 165.683,372.200 165.834 C 372.860 165.985,373.274 165.974,373.120 165.808 C 372.823 165.488,365.156 164.384,363.800 164.465 C 363.360 164.492,362.280 164.630,361.400 164.773 M220.000 165.951 C 215.405 167.430,211.055 170.133,208.087 173.352 C 206.162 175.440,202.586 180.719,202.890 181.023 C 203.007 181.140,203.600 180.373,204.208 179.318 C 208.370 172.098,214.251 167.728,222.400 165.802 C 223.979 165.429,224.261 165.276,223.400 165.262 C 222.740 165.252,221.210 165.562,220.000 165.951 M235.000 165.600 C 235.660 165.768,236.560 165.914,237.000 165.925 L 237.800 165.944 237.000 165.600 C 236.560 165.411,235.660 165.265,235.000 165.275 L 233.800 165.295 235.000 165.600 M305.800 165.777 C 307.120 166.051,309.179 166.659,310.376 167.128 C 312.814 168.084,313.719 167.995,311.403 167.027 C 308.916 165.988,305.922 165.198,304.627 165.239 C 303.784 165.266,304.151 165.434,305.800 165.777 M355.200 165.956 C 347.178 168.557,338.741 176.563,338.809 181.511 C 338.815 181.890,339.251 181.150,339.778 179.867 C 342.694 172.775,349.064 167.742,357.600 165.786 C 359.154 165.430,359.447 165.276,358.600 165.262 C 357.940 165.252,356.410 165.564,355.200 165.956 M36.349 166.500 C 36.829 167.113,37.667 167.200,43.049 167.200 L 49.200 167.200 49.200 175.190 L 49.200 183.180 42.800 183.305 L 36.399 183.431 42.900 183.415 L 49.400 183.400 49.400 175.200 L 49.400 167.000 43.228 166.889 C 39.128 166.816,36.845 166.614,36.428 166.289 C 35.874 165.858,35.865 165.883,36.349 166.500 M238.000 166.117 C 238.295 166.436,242.400 168.018,242.400 167.813 C 242.400 167.716,241.815 167.373,241.100 167.051 C 239.590 166.369,237.709 165.802,238.000 166.117 M373.633 166.167 C 373.935 166.468,378.000 167.993,378.000 167.804 C 378.000 167.542,374.542 166.000,373.955 166.000 C 373.687 166.000,373.542 166.075,373.633 166.167 M93.045 167.426 C 92.669 168.408,92.777 168.682,93.232 167.900 C 93.603 167.262,94.546 167.200,103.818 167.200 L 113.996 167.200 114.101 204.500 L 114.206 241.800 114.203 204.400 L 114.200 167.000 103.745 166.893 C 94.473 166.799,93.263 166.859,93.045 167.426 M129.443 167.433 C 129.088 168.356,129.145 262.719,129.500 262.938 C 129.665 263.040,129.800 241.586,129.800 215.262 L 129.800 167.400 139.400 167.189 L 149.000 166.978 139.343 166.889 C 130.853 166.811,129.656 166.876,129.443 167.433 M157.400 167.964 C 156.300 168.599,154.860 169.723,154.201 170.460 L 153.002 171.800 154.401 170.519 C 155.170 169.815,156.790 168.693,158.000 168.026 C 159.210 167.360,160.020 166.813,159.800 166.811 C 159.580 166.809,158.500 167.328,157.400 167.964 M148.884 172.349 C 148.809 176.776,148.865 177.244,149.419 176.784 C 149.798 176.470,149.881 176.174,149.634 176.021 C 149.412 175.884,149.171 173.888,149.099 171.586 L 148.969 167.400 148.884 172.349 M242.800 168.162 C 242.800 168.251,243.649 168.822,244.687 169.430 C 247.968 171.353,252.257 176.016,253.872 179.416 C 254.659 181.074,255.383 182.350,255.481 182.252 C 255.744 181.989,253.305 177.214,252.102 175.636 C 249.680 172.461,242.800 166.932,242.800 168.162 M313.200 168.158 C 313.200 168.245,314.092 168.889,315.183 169.589 C 318.122 171.475,321.605 175.425,323.500 179.021 C 324.421 180.769,325.181 181.992,325.188 181.737 C 325.209 180.941,323.265 177.514,321.206 174.719 C 319.114 171.878,313.200 167.032,313.200 168.158 M379.200 168.695 C 381.076 169.920,385.511 174.657,386.384 176.369 C 386.864 177.309,387.348 177.985,387.461 177.872 C 388.361 176.972,380.148 167.917,378.527 168.021 C 378.347 168.033,378.650 168.336,379.200 168.695 M151.923 172.700 C 151.218 173.521,150.690 174.400,150.901 174.400 C 150.983 174.400,151.449 173.860,151.937 173.200 C 152.901 171.896,152.892 171.572,151.923 172.700 M228.000 178.774 C 227.344 178.968,227.963 179.069,229.800 179.069 C 231.637 179.069,232.256 178.968,231.600 178.774 C 231.050 178.612,230.240 178.480,229.800 178.480 C 229.360 178.480,228.550 178.612,228.000 178.774 M361.917 178.795 C 360.516 179.217,358.400 180.726,358.400 181.302 C 358.400 181.548,358.920 181.252,359.555 180.643 C 360.883 179.370,363.095 178.752,365.400 179.009 C 366.680 179.152,366.800 179.117,366.000 178.834 C 364.742 178.389,363.311 178.375,361.917 178.795 M387.796 179.000 C 389.681 183.813,389.744 184.063,389.169 184.428 C 388.751 184.692,388.736 184.789,389.113 184.794 C 390.258 184.808,389.307 179.982,387.892 178.600 C 387.614 178.328,387.583 178.457,387.796 179.000 M224.954 180.091 C 221.956 182.405,219.741 188.690,220.079 193.928 L 220.200 195.800 229.350 195.908 C 239.784 196.030,239.611 196.079,239.577 193.051 C 239.528 188.698,238.895 187.528,238.846 191.700 L 238.800 195.600 229.600 195.600 L 220.400 195.600 220.400 193.643 C 220.400 187.794,223.495 180.000,225.818 180.000 C 226.112 180.000,226.464 179.820,226.600 179.600 C 227.030 178.904,226.152 179.166,224.954 180.091 M234.283 180.265 C 236.006 181.383,237.264 183.247,238.221 186.099 C 238.683 187.479,238.757 187.560,238.611 186.529 C 238.179 183.473,234.943 179.200,233.060 179.200 C 232.829 179.200,233.379 179.679,234.283 180.265 M272.043 179.920 C 271.323 181.265,270.000 184.997,270.030 185.600 C 270.046 185.930,270.475 185.013,270.983 183.562 C 271.490 182.111,272.113 180.536,272.367 180.062 C 272.621 179.588,272.738 179.200,272.628 179.200 C 272.518 179.200,272.255 179.524,272.043 179.920 M368.400 179.982 C 370.470 181.085,371.939 182.814,373.584 186.082 C 374.540 187.980,375.254 188.950,375.627 188.858 C 378.151 188.232,388.177 185.151,388.364 184.944 C 388.494 184.800,388.150 184.803,387.600 184.951 C 385.609 185.486,382.530 186.367,379.085 187.387 C 374.998 188.598,375.154 188.646,373.832 185.757 C 372.304 182.420,369.090 179.154,367.400 179.220 C 367.180 179.228,367.630 179.571,368.400 179.982 M158.705 179.883 C 159.202 179.979,159.922 179.975,160.305 179.875 C 160.687 179.775,160.280 179.696,159.400 179.701 C 158.520 179.705,158.207 179.787,158.705 179.883 M298.628 179.997 C 303.550 180.720,305.128 183.376,306.235 192.800 L 306.775 197.400 306.578 193.479 C 306.102 184.015,303.349 179.486,298.174 179.650 C 296.666 179.698,296.686 179.712,298.628 179.997 M162.200 180.466 C 162.640 180.708,163.458 181.288,164.019 181.754 C 164.579 182.219,164.446 182.015,163.724 181.300 C 163.002 180.585,162.184 180.005,161.906 180.012 C 161.628 180.019,161.760 180.223,162.200 180.466 M293.856 181.205 C 292.233 182.629,290.901 185.280,290.602 187.678 C 290.445 188.935,290.489 189.184,290.765 188.600 C 290.973 188.160,291.156 187.342,291.172 186.782 C 291.218 185.117,293.630 181.491,295.203 180.722 C 296.003 180.330,296.307 180.030,295.914 180.019 C 295.537 180.009,294.610 180.542,293.856 181.205 M153.985 181.629 L 152.600 182.858 154.200 181.745 C 155.080 181.133,155.875 180.580,155.967 180.516 C 156.058 180.452,155.962 180.400,155.752 180.400 C 155.542 180.400,154.747 180.953,153.985 181.629 M201.948 182.700 C 200.879 185.419,200.002 188.178,200.020 188.763 C 200.030 189.113,200.545 187.960,201.164 186.200 C 201.782 184.440,202.423 182.685,202.587 182.300 C 202.751 181.915,202.772 181.600,202.633 181.600 C 202.494 181.600,202.186 182.095,201.948 182.700 M357.843 182.633 C 357.503 183.517,357.550 187.703,357.906 188.262 C 358.068 188.516,358.200 187.211,358.200 185.362 C 358.200 181.710,358.199 181.704,357.843 182.633 M325.216 182.433 C 325.297 183.310,327.161 188.802,327.173 188.200 C 327.191 187.280,325.899 182.966,325.480 182.547 C 325.326 182.393,325.207 182.342,325.216 182.433 M338.249 183.015 C 338.112 183.373,338.021 184.326,338.047 185.133 C 338.090 186.483,338.120 186.442,338.426 184.613 C 338.768 182.570,338.690 181.867,338.249 183.015 M255.612 183.200 C 255.612 183.530,255.787 184.070,256.000 184.400 C 256.345 184.933,256.388 184.933,256.388 184.400 C 256.388 184.070,256.213 183.530,256.000 183.200 C 255.655 182.667,255.612 182.667,255.612 183.200 M12.196 183.492 L 15.995 183.629 16.101 212.714 L 16.208 241.800 16.204 212.600 L 16.200 183.400 12.299 183.377 L 8.398 183.354 12.196 183.492 M166.244 185.800 C 166.573 187.271,166.802 187.590,166.794 186.567 C 166.791 186.145,166.605 185.530,166.382 185.200 C 166.085 184.762,166.048 184.924,166.244 185.800 M256.521 186.200 C 256.798 187.250,257.515 190.541,257.960 192.800 C 258.206 194.051,258.327 194.268,258.357 193.511 C 258.415 192.050,257.174 186.302,256.693 185.800 C 256.446 185.541,256.385 185.683,256.521 186.200 M269.457 187.070 C 268.884 189.002,268.006 194.671,268.051 196.144 C 268.093 197.523,268.161 197.365,268.456 195.200 C 268.651 193.770,269.082 191.269,269.415 189.643 C 269.963 186.966,269.990 185.270,269.457 187.070 M337.842 190.371 C 337.950 192.445,338.214 194.425,338.428 194.771 C 338.701 195.214,338.744 194.966,338.570 193.935 C 338.435 193.129,338.171 191.149,337.984 189.535 C 337.657 186.712,337.652 186.744,337.842 190.371 M150.256 191.045 C 150.115 192.072,150.036 198.332,150.081 204.956 L 150.162 217.000 150.381 203.200 C 150.501 195.610,150.580 189.350,150.556 189.289 C 150.532 189.228,150.397 190.018,150.256 191.045 M327.445 191.200 C 327.590 192.410,327.774 193.475,327.854 193.567 C 328.207 193.970,327.946 190.138,327.584 189.600 C 327.303 189.182,327.261 189.667,327.445 191.200 M358.400 189.517 C 358.400 190.399,363.733 194.000,364.260 193.474 C 364.360 193.374,363.658 192.912,362.699 192.448 C 361.740 191.984,360.381 191.042,359.678 190.355 C 358.975 189.667,358.400 189.290,358.400 189.517 M167.301 191.000 C 167.305 191.880,167.387 192.193,167.483 191.695 C 167.579 191.198,167.575 190.478,167.475 190.095 C 167.375 189.713,167.296 190.120,167.301 191.000 M199.476 190.410 C 199.330 190.955,199.227 191.850,199.246 192.400 C 199.271 193.118,199.384 192.957,199.649 191.827 C 200.055 190.095,199.900 188.825,199.476 190.410 M289.857 192.059 C 289.527 195.216,289.587 214.774,289.935 217.400 C 290.081 218.500,290.200 212.695,290.200 204.500 C 290.200 196.305,290.181 189.600,290.157 189.600 C 290.133 189.600,289.998 190.706,289.857 192.059 M188.893 191.600 C 188.893 192.370,188.975 192.685,189.076 192.300 C 189.176 191.915,189.176 191.285,189.076 190.900 C 188.975 190.515,188.893 190.830,188.893 191.600 M167.728 195.600 C 167.728 197.030,167.801 197.615,167.889 196.900 C 167.978 196.185,167.978 195.015,167.889 194.300 C 167.801 193.585,167.728 194.170,167.728 195.600 M198.550 195.463 C 198.067 198.486,198.232 214.035,198.759 215.200 C 199.157 216.079,199.189 215.982,199.018 214.400 C 198.470 209.313,198.378 203.669,198.767 199.034 C 199.211 193.751,199.105 191.997,198.550 195.463 M364.800 193.765 C 364.800 194.051,371.306 196.428,371.515 196.218 C 371.625 196.109,371.464 195.940,371.157 195.843 C 368.946 195.145,366.538 194.214,366.220 193.934 C 365.830 193.592,364.800 193.469,364.800 193.765 M328.200 204.457 C 328.200 210.233,328.314 214.428,328.453 213.779 C 328.787 212.219,328.793 196.059,328.460 194.878 C 328.317 194.371,328.200 198.681,328.200 204.457 M258.708 201.496 L 258.925 207.592 239.562 207.696 L 220.200 207.800 220.087 212.765 C 219.823 224.411,224.295 230.652,231.600 228.831 C 232.798 228.532,232.573 228.476,230.035 228.441 C 223.192 228.346,220.400 223.935,220.400 213.218 L 220.400 208.400 239.167 208.400 C 249.489 208.400,258.219 208.291,258.567 208.157 C 259.280 207.884,259.459 200.071,258.822 197.000 C 258.623 196.041,258.577 197.843,258.708 201.496 M338.814 195.851 C 338.717 198.905,348.006 209.727,349.469 208.264 C 349.576 208.158,348.864 207.602,347.887 207.030 C 345.086 205.388,341.730 201.584,340.193 198.307 C 339.442 196.708,338.822 195.603,338.814 195.851 M372.033 196.565 C 372.125 196.656,373.640 197.301,375.400 197.999 C 382.946 200.989,389.600 206.213,389.600 209.148 C 389.600 209.371,389.780 209.664,390.000 209.800 C 391.594 210.785,388.238 205.671,385.726 203.287 C 383.746 201.408,381.638 200.214,376.240 197.916 C 373.072 196.567,371.539 196.075,372.033 196.565 M306.959 204.400 C 306.959 207.590,307.021 208.895,307.097 207.300 C 307.173 205.705,307.173 203.095,307.097 201.500 C 307.021 199.905,306.959 201.210,306.959 204.400 M267.757 204.400 C 267.757 207.370,267.820 208.585,267.897 207.100 C 267.974 205.615,267.974 203.185,267.897 201.700 C 267.820 200.215,267.757 201.430,267.757 204.400 M189.744 203.200 C 189.744 205.290,189.812 206.145,189.894 205.100 C 189.976 204.055,189.976 202.345,189.894 201.300 C 189.812 200.255,189.744 201.110,189.744 203.200 M350.772 209.093 C 352.053 210.025,356.823 212.059,357.330 211.890 C 357.549 211.817,356.844 211.426,355.764 211.020 C 354.684 210.615,352.900 209.857,351.800 209.335 C 350.510 208.723,350.145 208.637,350.772 209.093 M167.731 211.400 C 167.733 212.940,167.805 213.521,167.892 212.691 C 167.979 211.861,167.977 210.601,167.889 209.891 C 167.800 209.181,167.729 209.860,167.731 211.400 M390.400 210.470 C 390.400 210.596,390.682 211.487,391.027 212.450 C 391.684 214.282,391.948 221.705,391.453 224.400 C 391.218 225.683,391.234 225.716,391.654 224.800 C 392.321 223.344,392.313 215.403,391.641 213.000 C 391.164 211.293,390.400 209.736,390.400 210.470 M189.293 212.000 C 189.293 212.770,189.375 213.085,189.476 212.700 C 189.576 212.315,189.576 211.685,189.476 211.300 C 189.375 210.915,189.293 211.230,189.293 212.000 M268.101 212.800 C 268.097 214.010,268.232 215.540,268.400 216.200 L 268.705 217.400 268.718 216.000 C 268.724 215.230,268.590 213.700,268.418 212.600 L 268.107 210.600 268.101 212.800 M306.246 214.900 C 306.098 216.935,305.889 219.230,305.781 220.000 C 305.617 221.174,305.649 221.255,305.980 220.499 C 306.398 219.544,307.059 211.200,306.716 211.200 C 306.605 211.200,306.394 212.865,306.246 214.900 M358.200 212.260 C 358.755 212.785,362.792 214.141,363.045 213.888 C 363.159 213.774,362.295 213.367,361.126 212.982 C 359.957 212.598,358.730 212.193,358.400 212.083 C 358.012 211.953,357.941 212.016,358.200 212.260 M188.893 214.800 C 188.893 215.570,188.975 215.885,189.076 215.500 C 189.176 215.115,189.176 214.485,189.076 214.100 C 188.975 213.715,188.893 214.030,188.893 214.800 M363.774 214.357 C 363.924 214.601,364.297 214.800,364.602 214.800 C 366.440 214.800,370.601 217.891,371.452 219.887 C 373.629 224.997,370.197 229.531,364.114 229.582 C 358.846 229.627,355.852 227.311,353.276 221.200 C 353.023 220.601,352.843 220.455,352.827 220.836 C 352.632 225.411,358.979 230.262,364.733 229.935 C 372.119 229.516,375.429 220.918,369.747 216.913 C 367.391 215.252,363.225 213.470,363.774 214.357 M167.301 216.200 C 167.305 217.080,167.387 217.393,167.483 216.895 C 167.579 216.398,167.575 215.678,167.475 215.295 C 167.375 214.913,167.296 215.320,167.301 216.200 M327.071 218.942 C 324.660 231.613,317.323 240.310,307.248 242.440 C 306.012 242.701,305.239 242.999,305.530 243.101 C 307.754 243.880,315.051 240.142,319.056 236.173 C 323.710 231.560,328.405 221.019,327.919 216.275 C 327.846 215.557,327.520 216.580,327.071 218.942 M240.276 216.290 C 240.175 216.461,239.961 217.410,239.800 218.400 C 239.099 222.715,237.079 226.197,234.590 227.378 C 233.790 227.758,233.223 228.156,233.330 228.264 C 234.749 229.682,238.857 224.236,240.017 219.400 C 240.687 216.606,240.691 216.600,242.044 216.628 C 242.790 216.644,246.010 216.763,249.200 216.892 C 252.637 217.032,254.022 217.000,252.600 216.814 C 248.699 216.305,240.474 215.955,240.276 216.290 M199.268 217.600 C 199.262 218.150,199.411 218.960,199.600 219.400 L 199.944 220.200 199.932 219.400 C 199.926 218.960,199.776 218.150,199.600 217.600 L 199.280 216.600 199.268 217.600 M150.501 218.600 C 150.505 219.480,150.587 219.793,150.683 219.295 C 150.779 218.798,150.775 218.078,150.675 217.695 C 150.575 217.313,150.496 217.720,150.501 218.600 M256.914 217.482 L 258.828 217.645 258.591 219.122 C 258.400 220.314,258.441 220.462,258.803 219.888 C 259.806 218.301,259.165 217.403,257.000 217.359 L 255.000 217.318 256.914 217.482 M268.835 217.943 C 268.774 218.882,270.113 224.181,270.517 224.600 C 270.766 224.858,270.791 224.574,270.588 223.800 C 269.370 219.156,268.866 217.472,268.835 217.943 M188.054 219.467 C 188.025 219.944,187.896 220.664,187.770 221.067 C 187.552 221.761,187.564 221.762,187.996 221.088 C 188.247 220.697,188.375 219.977,188.281 219.488 C 188.109 218.601,188.109 218.601,188.054 219.467 M347.600 219.253 C 346.390 219.450,345.220 219.692,345.000 219.790 C 344.361 220.076,349.696 219.507,350.800 219.172 L 351.800 218.869 350.800 218.881 C 350.250 218.888,348.810 219.055,347.600 219.253 M290.602 221.122 C 291.257 226.372,295.413 229.972,299.548 228.870 C 300.924 228.503,300.869 228.481,298.480 228.441 C 294.572 228.377,291.287 225.480,291.176 222.000 C 291.158 221.450,290.973 220.640,290.765 220.200 C 290.489 219.616,290.445 219.865,290.602 221.122 M340.600 220.400 L 339.800 220.744 340.600 220.749 C 341.040 220.752,342.120 220.605,343.000 220.423 L 344.600 220.092 343.000 220.074 C 342.120 220.064,341.040 220.211,340.600 220.400 M200.251 221.591 C 201.554 228.763,211.414 241.193,215.800 241.192 C 216.020 241.192,215.390 240.717,214.400 240.136 C 208.354 236.586,203.348 230.240,201.199 223.400 C 200.385 220.809,199.962 220.003,200.251 221.591 M257.278 223.700 C 254.221 233.496,247.144 240.564,238.518 242.440 C 237.243 242.717,236.534 243.018,236.941 243.109 C 237.866 243.316,242.818 241.581,245.362 240.159 C 250.998 237.009,257.026 228.601,258.223 222.220 C 258.648 219.953,258.257 220.566,257.278 223.700 M336.233 221.326 C 335.803 221.641,335.592 222.164,335.710 222.626 C 335.886 223.315,335.912 223.304,335.954 222.524 C 335.990 221.832,336.358 221.567,337.700 221.266 C 339.209 220.928,339.263 220.881,338.176 220.843 C 337.504 220.819,336.629 221.037,336.233 221.326 M305.029 222.629 C 304.881 223.215,304.851 223.784,304.961 223.894 C 305.071 224.004,305.281 223.615,305.429 223.029 C 305.576 222.442,305.606 221.873,305.496 221.763 C 305.386 221.653,305.176 222.042,305.029 222.629 M336.046 224.600 C 336.027 225.260,336.187 226.070,336.400 226.400 C 336.890 227.158,336.890 225.930,336.400 224.400 C 336.086 223.420,336.079 223.424,336.046 224.600 M303.806 225.500 C 303.428 226.105,302.643 227.021,302.060 227.536 C 301.222 228.275,301.180 228.382,301.857 228.045 C 302.803 227.574,304.800 225.351,304.800 224.769 C 304.800 224.147,304.523 224.351,303.806 225.500 M270.814 225.532 C 270.768 227.240,275.341 234.518,278.055 237.058 C 281.105 239.911,288.040 243.254,290.724 243.164 C 291.691 243.132,291.658 243.091,290.400 242.760 C 286.873 241.834,285.624 241.378,283.162 240.117 C 278.703 237.834,274.820 233.506,272.178 227.875 C 271.436 226.294,270.822 225.240,270.814 225.532 M390.846 226.267 C 390.821 226.524,390.684 227.064,390.541 227.467 C 390.340 228.036,390.394 228.097,390.779 227.742 C 391.052 227.491,391.189 226.951,391.084 226.542 C 390.979 226.134,390.872 226.010,390.846 226.267 M336.833 227.474 C 336.784 228.182,337.590 230.143,337.831 229.902 C 337.946 229.787,337.776 229.087,337.453 228.347 C 337.130 227.606,336.851 227.213,336.833 227.474 M157.300 227.887 C 157.905 227.978,158.895 227.978,159.500 227.887 C 160.105 227.795,159.610 227.720,158.400 227.720 C 157.190 227.720,156.695 227.795,157.300 227.887 M389.467 229.828 C 387.526 233.899,383.531 237.909,379.200 240.133 C 376.773 241.379,375.525 241.834,372.000 242.760 C 370.965 243.032,370.843 243.137,371.529 243.164 C 374.945 243.296,382.202 239.401,385.870 235.467 C 388.007 233.175,390.712 228.979,390.311 228.578 C 390.219 228.486,389.839 229.048,389.467 229.828 M338.000 230.666 C 338.000 231.303,340.915 235.600,341.348 235.600 C 341.555 235.600,341.446 235.285,341.105 234.900 C 340.765 234.515,339.927 233.310,339.243 232.222 C 338.559 231.134,338.000 230.434,338.000 230.666 M179.785 236.500 L 177.800 238.600 179.900 236.615 C 181.055 235.523,182.000 234.578,182.000 234.515 C 182.000 234.217,181.629 234.549,179.785 236.500 M342.648 237.174 C 345.618 239.958,352.619 243.263,355.351 243.171 C 355.818 243.156,354.744 242.732,352.964 242.229 C 349.124 241.145,345.560 239.319,343.527 237.394 C 342.716 236.628,341.906 236.001,341.727 236.002 C 341.547 236.003,341.962 236.530,342.648 237.174 M150.092 250.100 L 150.184 263.400 150.392 250.292 L 150.600 237.185 152.200 238.427 L 153.800 239.669 152.233 238.234 C 151.372 237.446,150.517 236.800,150.333 236.800 C 150.150 236.800,150.041 242.785,150.092 250.100 M154.000 239.779 C 154.000 239.889,154.540 240.259,155.200 240.600 C 155.860 240.941,156.400 241.131,156.400 241.021 C 156.400 240.911,155.860 240.541,155.200 240.200 C 154.540 239.859,154.000 239.669,154.000 239.779 M216.591 241.586 C 216.830 241.972,221.852 243.316,222.387 243.138 C 222.620 243.060,221.372 242.615,219.612 242.148 C 217.853 241.681,216.494 241.428,216.591 241.586 M169.600 242.000 C 168.796 242.257,168.757 242.323,169.400 242.332 C 169.840 242.338,170.560 242.189,171.000 242.000 C 172.019 241.562,170.968 241.562,169.600 242.000 M162.700 242.693 C 163.635 242.777,165.165 242.777,166.100 242.693 C 167.035 242.609,166.270 242.540,164.400 242.540 C 162.530 242.540,161.765 242.609,162.700 242.693 M224.479 243.660 C 224.985 243.803,227.290 243.920,229.600 243.920 C 231.910 243.920,234.216 243.803,234.724 243.660 C 235.233 243.517,232.928 243.400,229.603 243.400 C 226.278 243.400,223.972 243.517,224.479 243.660 M292.876 243.660 C 293.384 243.803,295.780 243.920,298.200 243.920 C 300.620 243.920,303.016 243.803,303.524 243.660 C 304.032 243.517,301.636 243.400,298.200 243.400 C 294.764 243.400,292.368 243.517,292.876 243.660 M357.800 243.647 C 359.370 243.985,367.935 243.995,369.121 243.660 C 369.627 243.517,367.017 243.397,363.321 243.394 C 359.624 243.391,357.140 243.505,357.800 243.647 " stroke="none" fill="#585858" fill-rule="evenodd"></path></g></svg>
