<svg id="svg" version="1.1" width="400" height="400" viewBox="0 0 400 400" xmlns="http://www.w3.org/2000/svg" xmlns:xlink="http://www.w3.org/1999/xlink" ><g id="svgg"><path id="path0" d="M27.400 34.762 C 25.234 35.122,24.896 35.388,24.417 37.114 C 23.966 38.739,23.808 365.384,24.257 368.100 C 24.433 369.166,24.707 369.600,25.204 369.600 C 25.588 369.600,26.171 370.005,26.500 370.500 L 27.098 371.400 196.049 371.513 C 288.972 371.576,365.586 371.522,366.303 371.395 C 367.812 371.126,370.562 368.679,371.179 367.056 C 372.089 364.661,371.731 39.637,370.816 38.000 C 370.385 37.230,369.918 36.297,369.777 35.928 C 369.636 35.558,369.224 35.108,368.861 34.928 C 368.077 34.539,29.730 34.375,27.400 34.762 M354.803 48.801 C 355.666 49.242,356.604 50.007,356.887 50.501 C 357.302 51.228,357.400 80.323,357.400 202.871 L 357.400 354.341 356.562 355.471 C 354.875 357.744,365.151 357.613,196.661 357.503 C 50.546 357.407,40.521 357.357,39.356 356.719 C 36.812 355.325,37.000 367.660,37.000 202.529 L 37.000 51.659 37.828 50.529 C 39.867 47.750,24.029 48.001,197.316 48.001 C 352.528 48.000,353.239 48.004,354.803 48.801 M141.800 74.674 C 141.140 75.027,140.468 75.515,140.306 75.758 C 139.484 76.994,139.974 335.174,140.800 336.000 C 141.240 336.440,141.915 336.805,142.300 336.811 C 163.585 337.141,191.350 336.789,192.023 336.179 C 192.768 335.505,192.791 334.139,192.894 284.985 C 192.999 235.141,193.010 234.472,193.799 233.601 C 195.887 231.294,193.924 231.418,232.000 231.200 C 267.914 230.995,268.775 230.955,268.812 229.486 C 269.063 219.717,268.786 192.665,268.430 192.236 C 267.526 191.147,265.277 191.063,230.982 190.833 C 192.094 190.573,194.618 190.777,193.367 187.782 C 192.519 185.754,192.522 119.839,193.370 117.811 C 194.716 114.588,191.146 114.800,244.002 114.800 L 290.836 114.800 291.818 113.818 L 292.800 112.836 292.800 94.540 L 292.800 76.244 291.725 75.122 L 290.650 74.000 216.825 74.016 C 149.835 74.031,142.889 74.091,141.800 74.674 " stroke="none" fill="#4ea5fc" fill-rule="evenodd"></path><path id="path1" d="M41.830 53.027 C 41.484 53.374,41.200 53.869,41.199 54.129 C 40.998 223.743,41.258 351.829,41.806 352.665 L 42.420 353.603 197.442 353.502 C 350.375 353.401,352.472 353.390,353.032 352.624 C 353.719 351.685,353.894 54.284,353.208 53.200 C 352.614 52.259,42.770 52.087,41.830 53.027 M294.112 70.906 C 296.697 72.599,296.600 71.696,296.600 94.182 C 296.600 116.879,296.650 116.358,294.322 117.899 L 292.659 119.000 245.549 119.200 C 211.657 119.344,198.315 119.525,197.994 119.846 C 197.189 120.651,197.379 185.150,198.188 185.959 C 198.762 186.534,202.491 186.621,234.514 186.800 C 267.653 186.986,270.292 187.050,271.493 187.707 C 274.027 189.091,273.981 188.671,274.009 210.864 C 274.036 233.019,274.036 233.014,271.665 234.489 L 270.200 235.400 234.600 235.600 C 199.317 235.798,197.614 235.869,197.585 237.143 C 197.576 237.504,197.572 259.760,197.575 286.600 C 197.581 341.826,197.764 338.526,194.600 340.169 C 193.037 340.981,192.415 341.003,167.800 341.115 C 137.293 341.255,135.431 341.042,133.501 337.194 C 132.414 335.027,132.414 76.175,133.501 74.002 C 134.355 72.294,136.688 70.943,139.635 70.450 C 144.278 69.673,292.900 70.111,294.112 70.906 " stroke="none" fill="#fbfcfc" fill-rule="evenodd"></path><path id="path2" d="M41.709 49.940 C 40.258 50.364,39.270 51.453,38.819 53.130 C 37.963 56.308,38.456 352.789,39.319 354.060 C 39.715 354.642,40.525 355.319,41.119 355.564 C 41.907 355.888,84.407 355.980,197.933 355.904 L 353.666 355.800 354.833 354.494 L 356.000 353.187 355.999 203.094 C 355.997 55.140,355.986 52.982,355.219 51.725 C 354.697 50.868,353.943 50.311,352.921 50.027 C 351.237 49.559,43.307 49.473,41.709 49.940 M353.942 52.000 L 354.773 53.000 354.787 202.918 L 354.800 352.836 353.818 353.818 L 352.836 354.800 197.637 354.800 C 31.165 354.800,40.802 354.929,40.020 352.685 C 39.730 351.852,39.600 305.441,39.600 202.310 L 39.600 53.138 40.771 51.968 L 41.942 50.797 197.526 50.898 L 353.110 51.000 353.942 52.000 M139.800 72.130 C 137.685 72.958,136.822 73.596,136.204 74.792 C 135.202 76.731,135.297 334.390,136.301 336.400 C 136.756 337.311,137.623 338.114,138.785 338.700 L 140.570 339.600 166.305 339.600 C 194.230 339.600,193.484 339.657,194.961 337.403 C 195.593 336.439,195.639 332.799,195.611 286.616 L 195.580 236.867 196.502 235.796 C 197.969 234.090,199.087 234.037,234.600 233.995 C 271.114 233.951,270.381 233.996,271.705 231.720 C 272.880 229.702,272.871 192.025,271.696 190.441 C 270.164 188.376,270.432 188.391,233.444 188.292 C 196.014 188.192,197.270 188.269,196.114 186.000 C 195.711 185.209,195.625 178.155,195.702 152.311 L 195.800 119.622 196.711 118.711 L 197.622 117.800 244.911 117.600 C 289.756 117.410,292.255 117.362,293.270 116.674 C 295.139 115.405,295.200 114.695,295.200 94.320 C 295.200 73.301,295.216 73.449,292.813 72.207 C 291.265 71.406,141.842 71.331,139.800 72.130 M292.824 73.415 C 293.906 74.084,294.295 87.018,294.012 112.931 C 294.005 113.636,293.560 114.502,292.831 115.231 L 291.662 116.400 245.331 116.402 C 195.435 116.405,196.501 116.360,195.181 118.525 C 194.110 120.280,193.946 184.762,195.007 186.813 C 196.268 189.252,194.608 189.144,232.837 189.283 C 270.499 189.420,269.439 189.356,270.581 191.563 C 271.518 193.376,271.512 229.552,270.574 230.984 C 269.259 232.990,269.789 232.960,232.056 233.187 L 196.712 233.400 195.556 234.785 L 194.400 236.170 194.400 285.996 C 194.400 340.019,194.525 336.863,192.336 338.034 C 191.762 338.342,183.922 338.474,166.406 338.473 C 139.202 338.472,139.766 338.515,138.224 336.313 C 137.272 334.954,137.268 76.252,138.221 74.892 C 139.608 72.911,135.909 73.013,214.600 72.800 C 283.092 72.615,291.638 72.682,292.824 73.415 " stroke="none" fill="#abd5fc" fill-rule="evenodd"></path><path id="path3" d="M40.028 48.701 C 39.274 49.085,38.284 49.908,37.828 50.529 L 37.000 51.659 37.000 202.529 C 37.000 367.660,36.812 355.325,39.356 356.719 C 40.521 357.357,50.546 357.407,196.661 357.503 C 365.151 357.613,354.875 357.744,356.562 355.471 L 357.400 354.341 357.400 202.871 C 357.400 80.323,357.302 51.228,356.887 50.501 C 356.604 50.007,355.666 49.242,354.803 48.801 C 352.495 47.624,42.335 47.525,40.028 48.701 M352.921 50.027 C 353.943 50.311,354.697 50.868,355.219 51.725 C 355.986 52.982,355.997 55.140,355.999 203.094 L 356.000 353.187 354.833 354.494 L 353.666 355.800 197.933 355.904 C 84.407 355.980,41.907 355.888,41.119 355.564 C 40.525 355.319,39.715 354.642,39.319 354.060 C 38.456 352.789,37.963 56.308,38.819 53.130 C 39.270 51.453,40.258 50.364,41.709 49.940 C 43.307 49.473,351.237 49.559,352.921 50.027 M214.600 72.800 C 135.909 73.013,139.608 72.911,138.221 74.892 C 137.268 76.252,137.272 334.954,138.224 336.313 C 139.766 338.515,139.202 338.472,166.406 338.473 C 183.922 338.474,191.762 338.342,192.336 338.034 C 194.525 336.863,194.400 340.019,194.400 285.996 L 194.400 236.170 195.556 234.785 L 196.712 233.400 232.056 233.187 C 269.789 232.960,269.259 232.990,270.574 230.984 C 271.512 229.552,271.518 193.376,270.581 191.563 C 269.439 189.356,270.499 189.420,232.837 189.283 C 194.608 189.144,196.268 189.252,195.007 186.813 C 193.946 184.762,194.110 120.280,195.181 118.525 C 196.501 116.360,195.435 116.405,245.331 116.402 L 291.662 116.400 292.831 115.231 C 293.560 114.502,294.005 113.636,294.012 112.931 C 294.295 87.018,293.906 74.084,292.824 73.415 C 291.638 72.682,283.092 72.615,214.600 72.800 M291.725 75.122 L 292.800 76.244 292.800 94.540 L 292.800 112.836 291.818 113.818 L 290.836 114.800 244.002 114.800 C 191.146 114.800,194.716 114.588,193.370 117.811 C 192.522 119.839,192.519 185.754,193.367 187.782 C 194.618 190.777,192.094 190.573,230.982 190.833 C 265.277 191.063,267.526 191.147,268.430 192.236 C 268.786 192.665,269.063 219.717,268.812 229.486 C 268.775 230.955,267.914 230.995,232.000 231.200 C 193.924 231.418,195.887 231.294,193.799 233.601 C 193.010 234.472,192.999 235.141,192.894 284.985 C 192.791 334.139,192.768 335.505,192.023 336.179 C 191.350 336.789,163.585 337.141,142.300 336.811 C 141.915 336.805,141.240 336.440,140.800 336.000 C 139.974 335.174,139.484 76.994,140.306 75.758 C 141.505 73.956,138.114 74.033,216.825 74.016 L 290.650 74.000 291.725 75.122 " stroke="none" fill="#88c4fc" fill-rule="evenodd"></path><path id="path4" d="M40.771 51.968 L 39.600 53.138 39.600 202.310 C 39.600 305.441,39.730 351.852,40.020 352.685 C 40.802 354.929,31.165 354.800,197.637 354.800 L 352.836 354.800 353.818 353.818 L 354.800 352.836 354.787 202.918 L 354.773 53.000 353.942 52.000 L 353.110 51.000 197.526 50.898 L 41.942 50.797 40.771 51.968 M353.208 53.200 C 353.894 54.284,353.719 351.685,353.032 352.624 C 352.472 353.390,350.375 353.401,197.442 353.502 L 42.420 353.603 41.806 352.665 C 41.258 351.829,40.998 223.743,41.199 54.129 C 41.200 53.869,41.484 53.374,41.830 53.027 C 42.770 52.087,352.614 52.259,353.208 53.200 M139.635 70.450 C 136.688 70.943,134.355 72.294,133.501 74.002 C 132.414 76.175,132.414 335.027,133.501 337.194 C 135.431 341.042,137.293 341.255,167.800 341.115 C 192.415 341.003,193.037 340.981,194.600 340.169 C 197.764 338.526,197.581 341.826,197.575 286.600 C 197.572 259.760,197.576 237.504,197.585 237.143 C 197.614 235.869,199.317 235.798,234.600 235.600 L 270.200 235.400 271.665 234.489 C 274.036 233.014,274.036 233.019,274.009 210.864 C 273.981 188.671,274.027 189.091,271.493 187.707 C 270.292 187.050,267.653 186.986,234.514 186.800 C 202.491 186.621,198.762 186.534,198.188 185.959 C 197.379 185.150,197.189 120.651,197.994 119.846 C 198.315 119.525,211.657 119.344,245.549 119.200 L 292.659 119.000 294.322 117.899 C 296.650 116.358,296.600 116.879,296.600 94.182 C 296.600 71.696,296.697 72.599,294.112 70.906 C 292.900 70.111,144.278 69.673,139.635 70.450 M292.813 72.207 C 295.216 73.449,295.200 73.301,295.200 94.320 C 295.200 114.695,295.139 115.405,293.270 116.674 C 292.255 117.362,289.756 117.410,244.911 117.600 L 197.622 117.800 196.711 118.711 L 195.800 119.622 195.702 152.311 C 195.625 178.155,195.711 185.209,196.114 186.000 C 197.270 188.269,196.014 188.192,233.444 188.292 C 270.432 188.391,270.164 188.376,271.696 190.441 C 272.871 192.025,272.880 229.702,271.705 231.720 C 270.381 233.996,271.114 233.951,234.600 233.995 C 199.087 234.037,197.969 234.090,196.502 235.796 L 195.580 236.867 195.611 286.616 C 195.639 332.799,195.593 336.439,194.961 337.403 C 193.484 339.657,194.230 339.600,166.305 339.600 L 140.570 339.600 138.785 338.700 C 137.623 338.114,136.756 337.311,136.301 336.400 C 135.297 334.390,135.202 76.731,136.204 74.792 C 136.822 73.596,137.685 72.958,139.800 72.130 C 141.842 71.331,291.265 71.406,292.813 72.207 " stroke="none" fill="#d0e4fc" fill-rule="evenodd"></path></g></svg>
