<svg id="svg" xmlns="http://www.w3.org/2000/svg" xmlns:xlink="http://www.w3.org/1999/xlink" width="400" height="400" viewBox="0, 0, 400,400"><g id="svgg"><path id="path0" d="M68.283 33.229 C 35.257 40.262,18.165 77.423,34.664 106.321 C 44.425 123.419,64.887 134.262,82.782 131.819 C 104.274 128.885,119.395 116.614,125.732 96.965 C 137.233 61.308,104.895 25.432,68.283 33.229 M188.800 33.190 C 171.127 36.897,156.330 49.956,151.126 66.439 C 145.076 85.598,149.526 103.688,163.664 117.416 C 182.962 136.156,211.033 136.991,231.348 119.429 C 243.280 109.114,250.172 91.504,248.040 76.776 C 246.278 64.605,241.134 54.246,232.953 46.388 C 227.442 41.097,223.122 38.435,214.400 34.960 C 208.090 32.445,196.253 31.627,188.800 33.190 M307.400 33.589 C 288.648 38.409,275.132 51.528,270.239 69.656 C 267.462 79.944,268.116 90.428,272.167 100.553 C 274.554 106.522,281.438 116.422,284.892 118.856 C 285.612 119.363,286.650 120.207,287.200 120.732 C 295.066 128.245,311.580 133.316,323.200 131.789 C 362.846 126.578,381.598 83.495,358.016 51.798 C 346.839 36.776,325.238 29.005,307.400 33.589 M69.499 151.606 C 34.943 158.801,17.445 196.746,35.243 225.887 C 47.655 246.209,71.917 255.448,93.600 248.109 C 119.252 239.428,133.674 212.470,126.223 187.132 C 119.033 162.681,93.403 146.628,69.499 151.606 M191.600 151.240 C 184.603 152.618,181.697 153.565,176.191 156.263 C 173.766 157.452,170.886 159.134,169.791 160.002 C 168.696 160.869,166.900 162.278,165.800 163.132 C 160.184 167.491,154.047 176.514,151.230 184.553 C 138.998 219.459,169.589 255.914,206.173 250.029 C 213.472 248.855,224.690 243.918,228.723 240.106 C 229.010 239.834,230.281 238.815,231.547 237.841 C 232.813 236.866,234.648 235.022,235.625 233.741 C 236.601 232.461,237.812 230.941,238.315 230.364 C 244.980 222.720,249.534 206.814,248.143 196.037 C 245.406 174.839,232.261 159.086,212.036 152.769 C 206.335 150.989,196.583 150.259,191.600 151.240 M74.800 268.032 C 60.546 270.026,52.392 273.744,43.436 282.333 C 37.737 287.799,31.858 297.857,30.071 305.200 C 29.616 307.070,28.964 309.782,28.622 311.226 C 26.540 320.018,29.970 334.848,36.385 344.793 C 37.163 345.999,38.096 347.349,38.457 347.793 C 38.819 348.237,39.909 349.590,40.881 350.800 C 44.342 355.110,53.186 361.445,59.033 363.802 C 77.194 371.124,95.068 368.294,110.518 355.650 C 144.288 328.014,126.657 272.800,82.600 268.223 C 81.280 268.086,79.570 267.905,78.800 267.821 C 78.030 267.737,76.230 267.832,74.800 268.032 " stroke="none" fill="#fafafb" fill-rule="evenodd"></path><path id="path1" d="M10.114 3.766 C 6.777 5.454,5.398 6.861,3.769 10.244 L 2.398 13.087 2.406 200.044 L 2.414 387.000 3.736 389.711 C 5.178 392.666,7.741 395.600,8.881 395.600 C 9.277 395.600,9.600 395.780,9.600 396.000 C 9.600 396.220,10.224 396.400,10.987 396.400 C 12.057 396.400,12.322 396.538,12.144 397.001 C 11.939 397.535,32.855 397.601,199.957 397.599 C 352.703 397.597,388.000 397.500,388.000 397.083 C 388.000 396.801,388.383 396.541,388.852 396.506 C 390.824 396.357,396.640 391.753,396.356 390.565 C 396.204 389.931,396.871 388.000,397.242 388.000 C 397.448 388.000,397.598 309.142,397.599 199.957 C 397.601 32.855,397.535 11.939,397.001 12.144 C 396.538 12.322,396.400 12.057,396.400 10.987 C 396.400 10.224,396.220 9.600,396.000 9.600 C 395.780 9.600,395.600 9.277,395.600 8.881 C 395.600 7.741,392.666 5.178,389.711 3.736 L 387.000 2.414 199.800 2.461 L 12.600 2.509 10.114 3.766 M87.048 30.611 C 105.095 33.717,121.830 47.936,127.634 65.098 C 141.587 106.359,102.040 145.681,61.000 131.353 C 33.936 121.905,18.318 89.259,29.038 64.549 C 32.151 57.375,34.689 52.874,37.272 49.949 C 37.782 49.370,38.914 48.009,39.786 46.923 C 40.658 45.837,42.155 44.331,43.114 43.575 C 44.072 42.819,45.301 41.797,45.845 41.303 C 55.237 32.789,72.966 28.188,87.048 30.611 M210.600 31.338 C 215.864 32.678,222.214 35.322,225.576 37.574 C 226.139 37.951,227.500 38.858,228.600 39.588 C 241.072 47.868,250.820 66.478,250.797 81.965 C 250.776 95.878,243.126 112.951,233.519 120.524 C 232.353 121.442,231.040 122.529,230.600 122.939 C 221.151 131.741,202.285 136.434,188.434 133.427 C 167.033 128.782,151.791 113.188,146.768 90.800 C 144.041 78.645,148.307 62.004,157.176 50.200 C 169.047 34.401,191.498 26.474,210.600 31.338 M329.200 30.960 C 334.492 32.185,340.873 34.702,344.800 37.112 C 358.593 45.577,366.405 56.796,370.068 73.400 C 375.145 96.415,357.917 124.740,334.600 131.714 C 329.332 133.290,327.961 133.608,324.810 133.990 C 314.788 135.203,300.194 132.526,294.421 128.415 C 293.792 127.967,293.124 127.591,292.938 127.581 C 292.615 127.562,288.926 124.896,284.310 121.346 C 283.127 120.437,281.179 118.547,279.982 117.146 C 278.785 115.746,277.708 114.510,277.589 114.400 C 272.817 109.975,267.756 97.323,266.357 86.324 C 263.742 65.757,280.052 39.735,299.400 33.603 C 300.280 33.324,301.194 32.943,301.432 32.756 C 301.843 32.432,308.861 30.678,311.400 30.264 C 313.865 29.862,326.612 30.361,329.200 30.960 M86.200 149.024 C 132.550 157.032,146.537 217.545,108.011 243.387 C 75.877 264.942,35.733 248.318,26.579 209.665 C 18.895 177.216,52.360 143.178,86.200 149.024 M209.000 149.519 C 231.359 154.352,247.579 172.652,250.429 196.259 C 250.898 200.149,250.862 201.247,250.038 208.000 C 249.148 215.288,243.184 229.612,240.044 232.000 C 239.899 232.110,238.850 233.370,237.711 234.800 C 235.661 237.376,234.662 238.318,230.400 241.692 C 196.369 268.639,146.191 243.841,146.322 200.141 C 146.346 192.184,147.050 188.725,150.225 180.955 C 156.789 164.889,171.756 152.595,188.600 149.433 C 190.360 149.103,192.160 148.745,192.600 148.637 C 194.491 148.175,205.525 148.768,209.000 149.519 M323.800 150.431 C 359.184 154.648,379.427 191.777,363.565 223.369 C 349.275 251.830,311.640 260.135,287.184 240.225 C 282.788 236.646,281.614 235.468,278.924 231.936 C 251.723 196.218,279.818 145.190,323.800 150.431 M82.443 265.824 C 94.581 266.769,109.937 274.280,116.506 282.484 C 117.218 283.373,118.452 284.843,119.249 285.750 C 133.890 302.425,133.889 332.801,119.245 349.886 C 118.450 350.813,117.278 352.219,116.639 353.010 C 115.036 354.998,108.862 360.178,106.092 361.860 C 93.911 369.257,80.334 371.712,67.400 368.857 C 64.263 368.164,61.794 367.480,61.400 367.194 C 61.180 367.035,60.280 366.676,59.400 366.397 C 54.593 364.874,47.480 360.360,42.072 355.400 C 30.945 345.196,23.345 324.088,26.196 311.309 C 30.591 291.612,38.291 280.736,54.367 271.522 C 56.325 270.399,61.367 268.429,64.400 267.600 C 68.399 266.508,77.124 265.133,78.243 265.418 C 78.486 265.480,80.376 265.663,82.443 265.824 M208.600 268.455 C 240.672 274.916,258.367 311.060,243.658 340.064 C 221.188 384.373,156.746 374.319,148.385 325.200 C 142.625 291.357,174.267 261.538,208.600 268.455 M328.568 268.459 C 364.985 275.867,381.046 318.213,358.780 348.116 C 334.480 380.752,283.297 372.221,270.494 333.400 C 258.478 296.963,290.832 260.783,328.568 268.459 " stroke="none" fill="#748af3" fill-rule="evenodd"></path><path id="path2" d="M68.600 30.795 C 60.805 32.218,50.741 36.865,45.845 41.303 C 45.301 41.797,44.072 42.819,43.114 43.575 C 42.155 44.331,40.658 45.837,39.786 46.923 C 38.914 48.009,37.782 49.370,37.272 49.949 C 34.689 52.874,32.151 57.375,29.038 64.549 C 21.556 81.795,26.957 104.778,41.922 119.374 C 67.282 144.106,108.618 137.233,124.759 105.600 C 144.254 67.393,110.974 23.064,68.600 30.795 M189.000 30.790 C 179.664 32.588,173.642 35.482,164.400 42.610 C 151.572 52.504,143.268 75.200,146.768 90.800 C 151.791 113.188,167.033 128.782,188.434 133.427 C 202.285 136.434,221.151 131.741,230.600 122.939 C 231.040 122.529,232.353 121.442,233.519 120.524 C 243.126 112.951,250.776 95.878,250.797 81.965 C 250.820 66.478,241.072 47.868,228.600 39.588 C 227.500 38.858,226.139 37.951,225.576 37.574 C 216.315 31.371,200.863 28.505,189.000 30.790 M311.400 30.264 C 308.861 30.678,301.843 32.432,301.432 32.756 C 301.194 32.943,300.280 33.324,299.400 33.603 C 280.052 39.735,263.742 65.757,266.357 86.324 C 267.756 97.323,272.817 109.975,277.589 114.400 C 277.708 114.510,278.785 115.746,279.982 117.146 C 281.179 118.547,283.127 120.437,284.310 121.346 C 288.926 124.896,292.615 127.562,292.938 127.581 C 293.124 127.591,293.792 127.967,294.421 128.415 C 300.194 132.526,314.788 135.203,324.810 133.990 C 327.961 133.608,329.332 133.290,334.600 131.714 C 351.666 126.609,366.537 109.527,370.043 91.000 C 370.740 87.319,370.755 76.515,370.068 73.400 C 364.286 47.193,345.060 30.740,319.600 30.213 C 315.750 30.134,312.060 30.156,311.400 30.264 M90.931 32.342 C 132.801 43.495,143.284 97.241,108.682 123.355 C 86.691 139.952,55.254 135.671,37.918 113.720 C 35.322 110.433,32.374 105.654,31.428 103.200 C 31.047 102.210,30.495 100.860,30.202 100.200 C 27.971 95.168,26.800 88.987,26.799 82.245 C 26.797 49.030,59.129 23.870,90.931 32.342 M207.737 31.626 C 229.550 36.058,245.476 52.626,249.215 74.774 C 250.334 81.406,250.290 83.041,248.733 92.400 C 247.584 99.308,243.386 107.869,237.652 115.000 C 234.427 119.010,235.001 118.480,228.738 123.227 C 195.268 148.596,147.175 124.171,147.205 81.819 C 147.227 50.083,177.015 25.382,207.737 31.626 M326.856 31.425 C 348.577 35.481,363.957 50.551,369.162 72.877 C 370.449 78.395,369.555 91.236,367.433 97.739 C 362.542 112.719,348.123 127.155,334.200 131.008 C 333.100 131.313,331.214 131.835,330.009 132.169 C 304.405 139.261,274.861 120.936,268.662 94.118 C 266.425 84.442,266.367 82.366,268.055 72.600 C 272.654 45.999,300.497 26.502,326.856 31.425 M72.200 148.689 C 46.251 152.343,25.600 175.437,25.600 200.800 C 25.600 222.817,43.129 245.582,64.248 250.993 C 109.596 262.610,146.566 215.082,123.489 174.833 C 113.320 157.095,91.497 145.971,72.200 148.689 M192.600 148.637 C 192.160 148.745,190.360 149.103,188.600 149.433 C 169.582 153.003,154.080 167.307,148.101 186.800 C 144.480 198.608,145.975 212.878,152.032 224.324 C 167.588 253.717,204.799 261.964,230.400 241.692 C 234.662 238.318,235.661 237.376,237.711 234.800 C 238.850 233.370,239.899 232.110,240.044 232.000 C 243.184 229.612,249.148 215.288,250.038 208.000 C 250.862 201.247,250.898 200.149,250.429 196.259 C 247.112 168.780,226.216 149.261,199.400 148.591 C 196.100 148.509,193.040 148.529,192.600 148.637 M85.504 149.814 C 126.909 156.341,144.034 206.120,115.206 236.148 C 77.302 275.630,12.056 235.544,29.841 183.701 C 37.540 161.255,62.333 146.162,85.504 149.814 M205.752 149.836 C 227.182 153.200,244.933 170.109,248.758 190.800 C 250.372 199.529,250.371 201.347,248.748 210.800 C 246.625 223.170,237.219 236.818,225.867 244.001 C 185.549 269.512,134.934 230.268,149.577 184.849 C 152.166 176.817,158.215 167.563,163.990 162.800 C 165.191 161.810,166.539 160.662,166.986 160.249 C 175.513 152.375,192.636 147.776,205.752 149.836 M311.301 150.625 C 272.791 156.239,255.104 200.658,278.924 231.936 C 281.614 235.468,282.788 236.646,287.184 240.225 C 314.061 262.106,355.799 249.510,366.573 216.266 C 378.029 180.919,348.014 145.273,311.301 150.625 M75.000 265.645 C 66.641 266.659,59.108 268.805,54.367 271.522 C 45.924 276.361,41.890 279.782,36.928 286.311 C 29.810 295.677,25.265 308.963,25.706 319.109 C 26.367 334.304,34.395 349.777,46.456 359.104 C 50.264 362.048,56.160 365.370,59.400 366.397 C 60.280 366.676,61.180 367.035,61.400 367.194 C 61.794 367.480,64.263 368.164,67.400 368.857 C 80.334 371.712,93.911 369.257,106.092 361.860 C 108.862 360.178,115.036 354.998,116.639 353.010 C 117.278 352.219,118.450 350.813,119.245 349.886 C 133.889 332.801,133.890 302.425,119.249 285.750 C 118.452 284.843,117.218 283.373,116.506 282.484 C 109.937 274.280,94.581 266.769,82.443 265.824 C 80.376 265.663,78.486 265.480,78.243 265.418 C 77.999 265.356,76.540 265.458,75.000 265.645 M89.600 267.852 C 99.458 270.232,110.465 276.565,115.787 282.922 C 119.822 287.740,120.735 288.951,122.255 291.491 C 136.434 315.208,129.597 345.052,106.406 360.670 C 100.467 364.670,89.255 368.771,84.133 368.817 C 83.070 368.827,81.395 368.990,80.412 369.180 C 68.434 371.491,47.063 361.676,38.215 349.800 C 31.943 341.381,29.984 337.021,27.204 325.294 C 26.015 320.275,26.791 311.069,29.085 303.000 C 29.814 300.437,33.659 292.321,35.244 290.000 C 47.864 271.521,69.044 262.891,89.600 267.852 M193.000 267.628 C 165.162 270.175,143.727 297.834,148.385 325.200 C 155.473 366.839,204.230 382.802,234.111 353.266 C 267.631 320.133,240.346 263.297,193.000 267.628 M313.800 267.626 C 285.371 269.769,263.279 298.529,268.652 326.400 C 277.070 370.070,332.491 383.424,358.780 348.116 C 385.028 312.865,357.889 264.302,313.800 267.626 " stroke="none" fill="#93a3f3" fill-rule="evenodd"></path><path id="path3" d="M68.600 31.603 C 37.112 38.483,17.988 72.648,30.202 100.200 C 30.495 100.860,31.047 102.210,31.428 103.200 C 37.978 120.196,58.169 133.272,78.000 133.362 C 106.716 133.493,129.619 110.514,129.592 81.600 C 129.563 50.426,98.603 25.047,68.600 31.603 M189.105 31.605 C 148.001 40.164,132.923 89.049,162.358 118.320 C 180.724 136.583,208.416 138.630,228.738 123.227 C 235.001 118.480,234.427 119.010,237.652 115.000 C 243.386 107.869,247.584 99.308,248.733 92.400 C 250.290 83.041,250.334 81.406,249.215 74.774 C 244.312 45.732,216.652 25.868,189.105 31.605 M309.000 31.633 C 287.904 36.167,271.519 52.561,268.055 72.600 C 266.367 82.366,266.425 84.442,268.662 94.118 C 274.861 120.936,304.405 139.261,330.009 132.169 C 331.214 131.835,333.100 131.313,334.200 131.008 C 348.123 127.155,362.542 112.719,367.433 97.739 C 369.555 91.236,370.449 78.395,369.162 72.877 C 362.454 44.105,335.845 25.864,309.000 31.633 M87.826 32.190 C 107.271 36.245,123.568 51.942,127.706 70.600 C 129.041 76.625,129.200 77.794,129.200 81.623 C 129.200 103.220,114.862 123.422,94.800 130.095 C 84.016 133.682,74.864 133.961,64.600 131.014 C 43.064 124.830,27.203 104.153,27.199 82.255 C 27.194 56.378,47.401 34.434,74.000 31.431 C 76.599 31.137,84.984 31.598,87.826 32.190 M208.002 32.226 C 225.614 35.891,240.150 48.421,246.141 65.101 C 248.353 71.258,249.984 80.628,249.441 84.055 C 249.288 85.015,249.002 87.150,248.804 88.800 C 247.573 99.067,240.077 113.711,233.464 118.766 C 232.769 119.298,231.570 120.318,230.800 121.034 C 223.143 128.156,206.845 133.950,196.947 133.070 C 182.198 131.758,171.724 127.038,162.169 117.396 C 132.117 87.073,150.848 36.493,194.000 31.437 C 196.626 31.129,204.997 31.601,208.002 32.226 M327.637 32.158 C 367.890 40.687,383.112 87.878,355.042 117.117 C 331.005 142.155,290.804 136.660,273.710 106.000 C 253.480 69.717,287.171 23.585,327.637 32.158 M69.633 150.049 C 35.014 156.481,16.091 195.276,33.077 225.000 C 54.320 262.176,105.385 260.713,124.611 222.378 C 142.744 186.221,109.606 142.624,69.633 150.049 M190.200 149.999 C 181.363 151.619,171.722 155.876,166.986 160.249 C 166.539 160.662,165.191 161.810,163.990 162.800 C 159.511 166.494,155.510 171.862,152.207 178.606 C 140.896 201.706,148.832 229.544,170.825 243.908 C 198.016 261.669,235.247 249.028,246.543 218.200 C 250.163 208.320,250.721 201.419,248.758 190.800 C 243.853 164.264,216.467 145.183,190.200 149.999 M87.884 150.839 C 99.080 153.264,106.704 157.526,114.830 165.902 C 122.668 173.981,125.720 180.176,128.825 194.306 C 133.788 216.889,113.120 245.832,88.800 250.356 C 82.989 251.437,81.620 251.600,78.341 251.600 C 50.985 251.600,27.200 227.981,27.200 200.816 C 27.200 169.637,57.910 144.344,87.884 150.839 M207.950 150.789 C 220.311 153.431,231.171 160.116,238.185 169.400 C 244.960 178.369,247.579 184.968,249.254 197.300 C 250.588 207.125,245.454 223.513,238.455 231.773 C 237.655 232.717,236.328 234.310,235.506 235.314 C 226.858 245.874,205.376 253.768,192.248 251.210 C 181.714 249.157,177.464 247.569,170.800 243.195 C 146.898 227.505,140.457 196.148,156.278 172.500 C 167.513 155.706,188.903 146.719,207.950 150.789 M72.800 266.775 C 59.465 268.326,46.222 275.550,38.657 285.400 C 30.525 295.990,26.800 306.183,26.800 317.849 C 26.800 321.006,26.982 324.356,27.204 325.294 C 31.324 342.676,37.557 352.177,50.604 360.968 C 58.610 366.362,73.605 370.493,80.412 369.180 C 81.395 368.990,83.070 368.827,84.133 368.817 C 89.255 368.771,100.467 364.670,106.406 360.670 C 129.597 345.052,136.434 315.208,122.255 291.491 C 120.735 288.951,119.822 287.740,115.787 282.922 C 106.765 272.147,87.816 265.030,72.800 266.775 M83.609 267.376 C 95.506 268.960,102.910 272.382,113.078 280.996 C 126.855 292.667,132.656 315.633,126.402 333.751 C 111.846 375.918,56.288 381.055,33.891 342.304 C 25.544 327.863,25.073 311.669,32.549 296.200 C 42.109 276.418,62.990 264.631,83.609 267.376 " stroke="none" fill="#aab9f3" fill-rule="evenodd"></path><path id="path4" d="M74.000 31.431 C 47.401 34.434,27.194 56.378,27.199 82.255 C 27.203 104.153,43.064 124.830,64.600 131.014 C 74.864 133.961,84.016 133.682,94.800 130.095 C 114.862 123.422,129.200 103.220,129.200 81.623 C 129.200 77.794,129.041 76.625,127.706 70.600 C 122.466 46.971,97.518 28.775,74.000 31.431 M194.000 31.437 C 150.848 36.493,132.117 87.073,162.169 117.396 C 171.724 127.038,182.198 131.758,196.947 133.070 C 206.845 133.950,223.143 128.156,230.800 121.034 C 231.570 120.318,232.769 119.298,233.464 118.766 C 240.077 113.711,247.573 99.067,248.804 88.800 C 249.002 87.150,249.288 85.015,249.441 84.055 C 250.236 79.039,247.365 66.714,243.699 59.409 C 234.573 41.224,213.189 29.188,194.000 31.437 M313.000 31.573 C 275.521 35.716,255.115 79.163,276.165 110.000 C 298.700 143.012,346.234 139.769,364.203 103.994 C 381.763 69.034,352.212 27.238,313.000 31.573 M87.819 33.185 C 129.743 42.376,142.522 95.544,109.000 121.314 C 95.159 131.954,78.610 134.780,62.400 129.270 C 33.489 119.444,20.016 86.951,33.642 59.913 C 43.618 40.117,66.945 28.609,87.819 33.185 M208.703 33.401 C 213.103 34.426,213.491 34.556,219.000 36.850 C 234.087 43.135,245.427 58.725,248.040 76.776 C 250.819 95.976,239.169 117.301,220.827 126.587 C 195.982 139.166,166.121 128.908,153.295 103.387 C 135.238 67.460,169.443 24.256,208.703 33.401 M327.200 33.021 C 374.630 42.828,383.545 105.080,340.594 126.549 C 322.921 135.382,299.916 132.876,287.200 120.732 C 286.650 120.207,285.612 119.363,284.892 118.856 C 281.438 116.422,274.554 106.522,272.167 100.553 C 265.932 84.970,267.798 68.388,277.379 54.221 C 288.270 38.118,309.062 29.271,327.200 33.021 M68.600 150.823 C 45.060 155.705,27.200 177.272,27.200 200.816 C 27.200 227.981,50.985 251.600,78.341 251.600 C 81.620 251.600,82.989 251.437,88.800 250.356 C 113.120 245.832,133.788 216.889,128.825 194.306 C 128.619 193.368,128.090 191.050,127.650 189.155 C 121.564 162.956,94.576 145.437,68.600 150.823 M188.200 150.964 C 176.952 153.483,166.794 159.462,159.937 167.600 C 139.900 191.381,144.903 226.196,170.800 243.195 C 177.464 247.569,181.714 249.157,192.248 251.210 C 205.376 253.768,226.858 245.874,235.506 235.314 C 236.328 234.310,237.655 232.717,238.455 231.773 C 245.454 223.513,250.588 207.125,249.254 197.300 C 247.579 184.968,244.960 178.369,238.185 169.400 C 226.967 154.551,206.270 146.918,188.200 150.964 M85.856 151.391 C 115.697 156.670,134.220 185.318,126.337 214.000 C 119.888 237.461,95.019 253.925,71.696 250.173 C 34.826 244.243,16.442 204.335,36.499 173.770 C 47.252 157.385,67.596 148.160,85.856 151.391 M206.000 151.380 C 234.830 156.180,253.598 184.052,246.955 212.200 C 245.653 217.717,241.224 227.028,238.315 230.364 C 237.812 230.941,236.601 232.461,235.625 233.741 C 234.648 235.022,232.813 236.866,231.547 237.841 C 230.281 238.815,229.010 239.834,228.723 240.106 C 226.057 242.626,218.525 246.546,212.958 248.311 C 174.675 260.447,137.933 222.497,151.230 184.553 C 154.047 176.514,160.184 167.491,165.800 163.132 C 166.900 162.278,168.696 160.869,169.791 160.002 C 170.886 159.134,173.766 157.452,176.191 156.263 C 181.697 153.565,184.603 152.618,191.600 151.240 C 194.432 150.683,202.268 150.759,206.000 151.380 M72.400 267.404 C 62.317 268.789,54.483 272.144,46.200 278.626 C 34.613 287.693,26.841 304.214,27.301 318.800 C 28.648 361.522,77.126 383.559,110.711 356.716 C 133.839 338.232,135.046 299.606,113.078 280.996 C 99.967 269.889,86.666 265.445,72.400 267.404 M82.600 268.223 C 123.394 272.461,142.357 319.304,115.888 350.449 C 111.497 355.616,104.240 360.883,97.800 363.577 C 77.747 371.967,53.509 366.526,40.881 350.800 C 39.909 349.590,38.819 348.237,38.457 347.793 C 32.816 340.862,28.000 327.035,28.000 317.768 C 28.000 315.614,28.280 312.670,28.622 311.226 C 28.964 309.782,29.616 307.070,30.071 305.200 C 34.003 289.044,48.420 274.385,64.800 269.886 C 68.933 268.751,76.752 267.598,78.800 267.821 C 79.570 267.905,81.280 268.086,82.600 268.223 " stroke="none" fill="#c4ccf5" fill-rule="evenodd"></path></g></svg>