<svg width="43" height="37" viewBox="0 0 43 37" fill="none" xmlns="http://www.w3.org/2000/svg">
<path d="M21.5 16.2732C33.3741 16.2732 43 12.6303 43 8.13662C43 3.64289 33.3741 0 21.5 0C9.62588 0 0 3.64289 0 8.13662C0 12.6303 9.62588 16.2732 21.5 16.2732Z" transform="translate(0 20.7266)" fill="#033B7F"/>
<path d="M21.4488 16.1892C33.2946 16.1892 42.8976 12.5651 42.8976 8.09459C42.8976 3.62407 33.2946 0 21.4488 0C9.60295 0 0 3.62407 0 8.09459C0 12.5651 9.60295 16.1892 21.4488 16.1892Z" transform="translate(0 20.105)" fill="#0084CE"/>
<path d="M12.5035 9.4378C19.409 9.4378 25.0071 7.32508 25.0071 4.7189C25.0071 2.11272 19.409 0 12.5035 0C5.59802 0 0 2.11272 0 4.7189C0 7.32508 5.59802 9.4378 12.5035 9.4378Z" transform="translate(8.94531 23.2266)" fill="#003E89"/>
<path d="M10.1031 0.612179L0 27.1865C1.00754 29.7493 8.1493 30.0654 10.9897 30.0654C13.8301 30.0654 20.9307 29.6451 21.9803 27.1882L11.8755 0.612179C11.8072 0.432188 11.6859 0.277237 11.5276 0.167897C11.3694 0.0585568 11.1816 -1.59836e-07 10.9893 -1.59836e-07C10.797 -1.59836e-07 10.6092 0.0585568 10.4509 0.167897C10.2927 0.277237 10.1713 0.432188 10.1031 0.612179Z" transform="translate(10.459)" fill="#0071BC"/>
<path d="M6.973 0H0.451711C0.202238 0 0 0.202467 0 0.452222V3.9313C0 4.18105 0.202238 4.38352 0.451711 4.38352H6.973C7.22247 4.38352 7.42471 4.18105 7.42471 3.9313V0.452222C7.42471 0.202467 7.22247 0 6.973 0Z" transform="translate(17.7363 28.9019)" fill="#003E89"/>
<path d="M2.84545 2.80663L1.79174 2.4662L0.914339 3.14201L0.912661 2.03331L-5.1246e-07 1.4071L1.05204 1.06247L1.36521 -9.23466e-07L2.01759 0.895197L3.1242 0.864936L2.47518 1.76265L2.84545 2.80663Z" transform="translate(13.4521 21.1362)" fill="#FFF597"/>
<path d="M1.71281 1.68953L1.0789 1.48527L0.550786 1.89126L0.549946 1.2247L-2.04984e-07 0.847283L0.633907 0.640506L0.821983 0L1.21492 0.53964L1.88073 0.521148L1.49031 1.06163L1.71281 1.68953Z" transform="translate(19.2588 12.876)" fill="#FFF597"/>
<path d="M0.837096 0.826269L0.527278 0.725403L0.268676 0.924616V0.598478L7.17444e-07 0.414395L0.309819 0.312688L0.401336 0L0.593606 0.263937L0.918539 0.254689L0.727945 0.518626L0.837096 0.826269Z" transform="translate(19.2993 20.1045)" fill="#FFF597"/>
<path d="M1.4752 2.23421L0.880756 1.72483L0.124263 1.92656L0.424844 1.20368L-8.19936e-07 0.545524L0.779161 0.607724L1.27285 -1.02607e-06L1.45421 0.761546L2.18468 1.04397L1.51718 1.45249L1.4752 2.23421Z" transform="translate(23.4302 23.9546)" fill="#FFF597"/>
<path d="M2.84545 2.80663L1.79174 2.4662L0.914341 3.14201L0.91266 2.03331L0 1.4071L1.05204 1.06247L1.36521 -4.10429e-07L2.01675 0.895195L3.12337 0.864936L2.47434 1.76265L2.84545 2.80663Z" transform="translate(23.5986 16.7314)" fill="#FFF597"/>
<path d="M2.1217 3.1563L1.27034 2.44771L0.204866 2.74863L0.614598 1.71894L3.07476e-07 0.797692L1.10493 0.869978L1.79006 1.53911e-07L2.06293 1.0734L3.10154 1.45753L2.16537 2.04928L2.1217 3.1563Z" transform="translate(22.0591 3.90967)" fill="#FFF597"/>
<path d="M2.84545 2.80663L1.79174 2.4662L0.914339 3.14201L0.912661 2.03415L4.09968e-07 1.4071L1.05204 1.06331L1.36521 3.59126e-07L2.01675 0.895196L3.12336 0.864936L2.47434 1.76265L2.84545 2.80663Z" transform="translate(15.9482 7.45605)" fill="#FFF597"/>
<path d="M1.71197 1.68953L1.07806 1.48443L0.549947 1.89126L0.549109 1.22385L4.09968e-07 0.847283L0.63307 0.639665L0.821143 4.10429e-07L1.21408 0.538799L1.8799 0.521146L1.48948 1.06079L1.71197 1.68953Z" transform="translate(15.9482 26.1885)" fill="#FFF597"/>
<path d="M1.71281 1.69037L1.07891 1.48527L0.550787 1.89126L0.549947 1.22469L6.14952e-07 0.847284L0.633908 0.640507L0.821981 1.23129e-06L1.21492 0.539639L1.88074 0.521147L1.49032 1.06163L1.71281 1.69037Z" transform="translate(28.978 20.6841)" fill="#FFF597"/>
<path d="M0.837096 0.825429L0.527278 0.725403L0.268675 0.923775V0.598479L3.07476e-07 0.413556L0.309818 0.312688L0.401336 5.6434e-07L0.593608 0.263095L0.918538 0.25469L0.727944 0.518626L0.837096 0.825429Z" transform="translate(23.1504 9.02686)" fill="#FFF597"/>
<path d="M0.837095 0.825429L0.527277 0.725402L0.269515 0.923776L0.268677 0.598479L-3.07476e-07 0.413555L0.309818 0.312687L0.402176 -1.12868e-06L0.593607 0.263094L0.919378 0.254688L0.727946 0.518625L0.837095 0.825429Z" transform="translate(25.1807 13.0928)" fill="#FFF597"/>
<path d="M0.837096 0.826269L0.527278 0.725403L0.269516 0.924616L0.268678 0.598479L2.04984e-07 0.414396L0.309818 0.312688L0.402176 -7.69555e-08L0.593608 0.263936L0.919379 0.25469L0.727944 0.518626L0.837096 0.826269Z" transform="translate(20.5293 0.831543)" fill="#FFF597"/>
<path d="M1.71281 1.68952L1.07807 1.48443L0.550788 1.89126L0.549107 1.22385L9.22428e-07 0.846444L0.633068 0.639667L0.821144 -4.10429e-07L1.21408 0.538799L1.8799 0.520306L1.48948 1.06079L1.71281 1.68952Z" transform="translate(15.3057 15.7861)" fill="#FFF597"/>
<path d="M0.837096 0.826269L0.527278 0.725404L0.268675 0.924616V0.598478L4.09968e-07 0.414396L0.309818 0.312689L0.401336 4.10429e-07L0.593608 0.263935L0.918538 0.25469L0.727944 0.518624L0.837096 0.826269Z" transform="translate(28.0596 26.6719)" fill="#FFF597"/>
<path d="M0.836255 0.825429L0.526439 0.725402L0.268676 0.923775L0.267837 0.597638L2.04984e-07 0.413555L0.308978 0.312687L0.401336 1.23129e-06L0.592768 0.263094L0.918538 0.253849L0.727946 0.518625L0.836255 0.825429Z" transform="translate(11.0415 26.2104)" fill="#FFF597"/>
</svg>
