<?xml version="1.0" encoding="UTF-8"?>
<svg width="120px" height="120px" viewBox="0 0 120 120" version="1.1" xmlns="http://www.w3.org/2000/svg" xmlns:xlink="http://www.w3.org/1999/xlink">
    <!-- Generator: Sketch 52.5 (67469) - http://www.bohemiancoding.com/sketch -->
    <title>game.pandafun.io</title>
    <desc>Created with Sketch.</desc>
    <g id="game.pandafun.io" stroke="none" stroke-width="1" fill="none" fill-rule="evenodd">
        <g id="iconfinder_Happy_panda_face_bear_copy_3044789" transform="translate(15.000000, 8.000000)">
            <g id="g7115" transform="translate(0.577895, 0.164493)">
                <path d="M44.6060893,101.886911 C43.1740768,101.920661 41.7604982,101.550375 40.5201054,100.814946 L4.57238571,79.5079286 C2.15815179,78.0762857 0.670998214,75.43125 0.6708375,72.5690893 L0.6708375,29.9577857 C0.670998214,27.0954643 2.15815179,24.4505893 4.57238571,23.0187857 L40.5201054,1.71192857 C42.9345482,0.281571429 45.9087589,0.281571429 48.3232018,1.71192857 L84.2709214,23.0187857 C86.6851554,24.4505893 88.1723089,27.0954643 88.1724696,29.9577857 L88.1724696,72.5690893 C88.1723089,75.43125 86.6851554,78.0762857 84.2709214,79.5079286 L48.3232018,100.814946 C47.1911625,101.486089 45.9130179,101.854929 44.6060893,101.886911 Z" id="path7117" fill="#ABFFAB"></path>
                <path d="M46.9116161,1.07492143 C44.6239607,3.85756071 43.2568125,5.61617679 44.2811732,8.900325 C44.6826857,7.18566429 45.1778304,6.11744464 45.6811554,5.11474821 C45.0316929,6.70099821 44.8196946,7.68471429 44.8210768,8.81871429 C43.4886429,9.75680357 42.1664786,10.8277875 40.8565929,12.0267161 L40.8565929,7.51919464 C41.2811839,7.46294464 41.613075,7.11501429 41.613075,6.67481786 C41.613075,6.19572857 41.2257696,5.81160536 40.7467286,5.81160536 L34.2396804,5.81160536 C33.7606232,5.81160536 33.3764679,6.19572857 33.3764679,6.67481786 C33.3764679,7.11469286 33.7056911,7.46294464 34.1298161,7.51919464 L34.1298161,27.4923321 L34.2427982,27.4923321 C33.7637411,27.4923321 33.3764518,27.8764554 33.3764518,28.3555446 C33.3764518,28.7957411 33.7083268,29.1436714 34.1329339,29.1999214 L34.1329339,33.7074589 C32.8230321,32.5086911 31.5008839,31.4375304 30.1684339,30.4994411 C30.1698161,29.3654411 29.9578179,28.3817411 29.3083714,26.7954911 C29.8116964,27.7981875 30.3068411,28.8664071 30.7083375,30.5810679 C31.8029625,27.0717107 30.2138036,25.3487893 27.6353036,22.2063429 C28.7423518,25.6475571 27.6132857,27.9982125 29.5437857,30.0725518 C27.1771875,28.4692661 24.7838464,27.1747607 22.3807018,25.9856357 C22.2299518,25.9107429 22.0796036,25.8336 21.9286929,25.7596393 C21.9092464,24.8895321 21.7306607,24.0961821 21.2255679,22.8623786 C21.6408857,23.6897357 22.0492768,24.5715107 22.3807018,25.9856357 C23.2827268,23.0895643 21.9730339,21.6646232 19.8444375,19.0705339 C20.7396321,21.8531411 19.8508661,23.7744161 21.3103286,25.4614339 C20.1317946,24.8889696 18.9509946,24.3260679 17.7727179,23.7507107 C19.1610804,24.5084786 20.5467911,25.2705536 21.9161411,26.0484107 C21.9257839,26.0548393 21.9289982,26.0734821 21.9381589,26.0734821 C21.9382232,26.0570893 21.9380946,26.0546786 21.9381589,26.0546786 C23.0680286,26.6965714 24.1821482,27.3544071 25.2748607,28.0353536 C22.0857107,28.2327107 20.7580661,30.238875 18.4633393,33.440625 C21.9240482,31.2075 24.8077446,31.9876714 26.3295482,28.7039571 C29.1798321,30.5538589 31.827375,32.6168839 34.0890429,35.0823054 C34.0074,35.0426089 33.9258696,35.0029125 33.8441946,34.9630554 C33.9388554,35.0148054 34.0320214,35.0683232 34.1267143,35.1199125 C34.1283214,35.1215196 34.1315357,35.1247339 34.1331429,35.1263411 L34.1331429,49.1668714 L34.2398571,49.1668714 C33.7608,49.1668714 33.3766446,49.5509946 33.3766446,50.0300839 C33.3766446,50.4699589 33.7058679,50.8182107 34.1299929,50.8744607 L34.1299929,70.8475982 L34.242975,70.8475982 C33.7639179,70.8475982 33.3766286,71.2317214 33.3766286,71.7108107 C33.3766286,72.1510071 33.7085036,72.4989375 34.1331107,72.5551875 L34.1331107,77.062725 C32.8232089,75.8637964 31.5010607,74.7928125 30.1686107,73.8547232 C30.1699929,72.7207232 29.9579946,71.7370071 29.3085482,70.1507571 C29.8118732,71.1534536 30.3070179,72.2216732 30.7085143,73.9363339 C31.8031393,70.4269768 30.2139804,68.7040554 27.6354804,65.5616089 C28.7425286,69.0028232 27.6134625,71.3534786 29.5439625,73.4278179 C27.1773643,71.8245321 24.7840232,70.5300268 22.3808786,69.3409018 C22.2301286,69.2660089 22.0797804,69.1888661 21.9288696,69.1149054 C21.9094232,68.2447982 21.7308375,67.4514482 21.2257446,66.2176446 C21.6410625,67.0450018 22.0494536,67.9267768 22.3808786,69.3409018 C23.2829036,66.4448304 21.9732107,65.0198893 19.8446143,62.4258 C20.7398089,65.2084071 19.8510429,67.1296821 21.3105054,68.8167 C20.1319714,68.2442357 18.9511714,67.6813339 17.7728946,67.1059768 C19.1612571,67.8637446 20.5469679,68.6258357 21.9163179,69.4036929 C21.9259607,69.4101214 21.929175,69.4287643 21.9383357,69.4287643 C21.9384,69.4123714 21.9382714,69.4099607 21.9383357,69.4099607 C23.0682054,70.0518536 24.182325,70.7126786 25.2750375,71.3937857 C22.0858875,71.5911429 20.7582429,73.5941732 18.4635161,76.7959232 C21.924225,74.5627982 24.8079214,75.3460875 26.329725,72.0623732 C29.1775018,73.9105071 31.8225857,75.9719089 34.0829357,78.4344536 C34.0033821,78.3957214 33.9239893,78.35715 33.8443714,78.3182571 C33.9369429,78.3688821 34.0279875,78.4214357 34.1206071,78.4720607 C34.1238214,78.4768821 34.1286429,78.4800964 34.1334643,78.4849179 L34.1334643,92.5222982 L34.2401786,92.5222982 C33.7611214,92.5222982 33.3769661,92.9064214 33.3769661,93.3855107 C33.3769661,93.8253857 33.7061893,94.1736375 34.1303143,94.2298875 L34.1303143,97.0267018 L40.5212143,100.815412 C40.6296964,100.879698 40.7460375,100.926145 40.8570911,100.984918 L40.8570911,100.159361 C43.1279196,97.6735929 45.7925464,95.5983054 48.6605089,93.7370732 C49.0763571,94.6343893 49.6016518,95.2138929 50.2048768,95.6486893 L50.2048768,99.7010839 L56.9316536,95.7146143 L56.9316536,88.9376143 C57.0271179,88.8853821 57.1217946,88.8328286 57.2172911,88.7805964 C57.1221482,88.8270429 57.0268125,88.8723643 56.9316536,88.91865 L56.9316536,83.7644946 C57.3557625,83.7084054 57.6850018,83.3599929 57.6850018,82.9201179 C57.6850018,82.4410286 57.3008304,82.0569054 56.8217893,82.0569054 L56.9285036,82.0569054 L56.9285036,68.016375 C57.0483964,67.8850714 57.179925,67.7655964 57.3020357,67.636575 C58.36815,68.2212857 59.4350518,68.8056429 60.4880679,69.4038054 C60.4977107,69.4102339 60.500925,69.4288768 60.5100857,69.4288768 C60.51015,69.4124839 60.5100214,69.4100732 60.5100857,69.4100732 C61.6399554,70.0519661 62.754075,70.7127911 63.8467875,71.3938982 C60.6576375,71.5912554 59.3299929,73.5942857 57.0352661,76.7960357 C60.495975,74.5629107 63.3796714,75.3462 64.901475,72.0624857 C67.7694375,73.9237179 70.4340643,75.9990214 72.7049089,78.4847893 L72.7049089,86.36355 L79.4316857,82.3770804 L79.4316857,72.5490321 C79.8557946,72.4929429 80.1850339,72.1445304 80.1850339,71.7046554 C80.1850339,71.2255661 79.8008625,70.8414429 79.3218214,70.8414429 L79.4285357,70.8414429 L79.4285357,56.8009125 C81.6993482,54.3151446 84.3640071,52.2400018 87.2319536,50.378625 C87.50025,50.95755 87.8249893,51.3789911 88.1736429,51.7440536 L88.1736429,50.5512643 C87.9164518,50.4511393 87.6583768,50.3650125 87.3889071,50.2907304 C87.5507304,50.1862661 87.715575,50.0859643 87.8785875,49.9831071 C87.9943018,50.0498036 88.0646625,50.1118393 88.1736429,50.1777321 L88.1736429,49.2423107 C86.7824679,50.0059125 85.3941054,50.8147232 84.0176679,51.7472036 C85.9481679,49.6728643 84.8191179,47.3222089 85.92615,43.8809946 C83.3476661,47.0234411 81.7585071,48.7463464 82.8531161,52.2557036 C83.2546286,50.5410429 83.7497732,49.4728393 84.2530982,48.4701429 C83.6036357,50.0563768 83.3916375,51.0400929 83.3930196,52.1740929 C82.0605696,53.1120214 80.7384375,54.1833429 79.4285357,55.3821107 L79.4285357,50.8745732 C79.8531429,50.8183232 80.1850179,50.4703929 80.1850179,50.0301964 C80.1850179,49.5511071 79.7977286,49.1669839 79.3186714,49.1669839 L79.4316536,49.1669839 L79.4316536,29.1938304 C79.8557786,29.1377411 80.1850018,28.7893286 80.1850018,28.3494536 C80.1850018,27.8703643 79.8008304,27.4862411 79.3217893,27.4862411 L79.4285036,27.4862411 L79.4285036,20.1473839 L72.7017268,16.1609143 L72.7017268,27.492525 L72.8147089,27.492525 C72.3356518,27.492525 71.9483625,27.8766482 71.9483625,28.3557375 C71.9483625,28.7959339 72.2802375,29.1438643 72.7048446,29.2001143 L72.7048446,33.7076518 C71.3949429,32.5088839 70.0727946,31.4377232 68.7403446,30.4996339 C68.7417268,29.3656339 68.5297286,28.3819339 67.8802821,26.7956839 C68.3836071,27.7983804 68.8787518,28.8666 69.2802482,30.5812607 C70.3748732,27.0719036 68.7857143,25.3489821 66.2072143,22.2065357 C67.3142625,25.64775 66.1851964,27.9984054 68.1156964,30.0727446 C65.7490982,28.4694589 63.3557571,27.1749536 60.9526125,25.9858286 C60.8018625,25.9109357 60.6515143,25.8337929 60.5006036,25.7598321 C60.4811571,24.889725 60.3025714,24.096375 59.7974786,22.8625714 C60.2127964,23.6899286 60.6211875,24.5717036 60.9526125,25.9858286 C61.536825,24.1101482 61.1832054,22.8496339 60.2902929,21.4908589 C61.6941804,20.3258893 63.1784571,19.2440089 64.7319054,18.2357679 C66.2537089,21.5194821 69.1374054,20.7393107 72.5981304,22.9724357 C70.3033875,19.7706857 68.9757589,17.7645214 65.7865929,17.5671643 C66.8793054,16.8862179 67.993425,16.2283821 69.1233107,15.5864893 C69.123375,15.5864893 69.1232304,15.5897036 69.1233107,15.6052929 C69.1329536,15.6052929 69.1361679,15.5802214 69.1453286,15.5802214 C69.5851071,15.3303911 70.0329536,15.0888375 70.4762357,14.842575 L70.2910446,14.7326464 C70.1112054,14.8197536 69.9309321,14.9058482 69.7511411,14.9931804 C69.8676589,14.8583411 69.9480964,14.720175 70.0367786,14.5819768 L69.2834464,14.1331018 C69.1984286,14.5317696 69.141375,14.9072786 69.1326964,15.2913696 C68.9817857,15.3648161 68.8314375,15.4417982 68.6807036,15.5173821 C66.2775589,16.7065071 63.8842179,18.0010125 61.5176036,19.6042982 C63.4481036,17.5299589 62.3190536,15.1793036 63.4260857,11.7380893 C60.8476018,14.8805357 59.2584429,16.6034411 60.3530518,20.1127982 C60.7545643,18.3981375 61.2497089,17.3299339 61.7530339,16.3272375 C61.1035714,17.9134714 60.8915732,18.8971875 60.8929554,20.0311875 C60.5389018,20.2804232 60.1876929,20.5636821 59.8351339,20.831625 C59.4279,20.2894393 58.9468661,19.7172321 58.4163321,19.0706786 C58.7162732,20.0030143 58.8040071,20.8130143 58.8589232,21.5755554 C58.2128839,22.0999661 57.5688696,22.6531286 56.9284714,23.2392054 L56.9284714,18.7316679 C57.3530786,18.6754179 57.6849536,18.3274875 57.6849536,17.8872911 C57.6849536,17.4082018 57.2976643,17.0240786 56.8186071,17.0240786 L56.9315893,17.0240786 L56.9315893,6.81306429 L49.8281464,2.60373214 C49.9509321,2.73342857 50.0842768,2.85160179 50.2048125,2.98354821 L50.2048125,5.57005179 C48.61125,6.42344464 47.0210464,7.32505179 45.4461589,8.39196964 C47.2514143,6.45218036 46.40355,4.25806071 47.1882857,1.16922857 C47.0973214,1.13371071 47.0040107,1.10687143 46.91205,1.07505 L46.9116161,1.07492143 Z M68.6802536,15.5172375 C68.8170214,14.9332982 68.9740875,14.4811125 69.1322464,14.0450625 L68.3977339,13.6118893 C68.3729839,14.1850286 68.4586446,14.8056268 68.6802536,15.5172375 Z M50.2043786,6.06272143 L50.2043786,6.42370179 C50.0400161,6.40200536 49.8898125,6.36552321 49.7146982,6.35459464 C49.8752518,6.25446964 50.0429411,6.1617375 50.2043786,6.06267321 L50.2043786,6.06272143 Z M49.3066446,6.62144464 C49.6582554,6.82405714 49.9099661,7.01580536 50.2043786,7.21157143 L50.2043786,7.46582143 C49.7428232,7.23900536 49.2951375,7.06088571 48.8169643,6.92906786 C48.9787875,6.82460357 49.1436321,6.72430179 49.3066446,6.62144464 Z M48.6600107,7.02323036 C49.0758107,7.92043393 49.6012661,8.50005 50.2043786,8.9348625 L50.2043786,17.0239339 L50.3110929,17.0239339 C49.8320357,17.0239339 49.4478804,17.4080571 49.4478804,17.8871464 C49.4478804,18.3270214 49.7771036,18.6752732 50.2012286,18.7315232 L50.2012286,38.7046607 L50.3142107,38.7046607 C49.8351536,38.7046607 49.4478643,39.0887839 49.4478643,39.5678732 C49.4478643,40.0080696 49.7797393,40.356 50.2043464,40.41225 L50.2043464,44.9197875 C48.8944446,43.7208589 47.5722964,42.649875 46.2398464,41.7117857 C46.2412286,40.5777857 46.0292304,39.5940696 45.3797839,38.0078196 C45.8831089,39.0105161 46.3782536,40.0787357 46.77975,41.7933964 C47.874375,38.2840393 46.2852161,36.5611179 43.7067161,33.4186714 C44.8137643,36.8598857 43.6846982,39.2105411 45.6151982,41.2848804 C44.0411464,40.218525 42.4524214,39.3160018 40.8596946,38.4629625 L40.8596946,29.1936375 C41.2838196,29.1375482 41.6130429,28.7891357 41.6130429,28.3492607 C41.6130429,27.8701714 41.2288714,27.4860482 40.7498304,27.4860482 L40.8565446,27.4860482 L40.8565446,13.4455339 C43.1273732,10.9597661 45.7920161,8.88462321 48.6599625,7.02323036 L48.6600107,7.02323036 Z M27.8895857,9.19853036 L26.7689732,9.86398393 C27.4099339,10.3166357 27.9761304,10.7607054 28.4640107,11.1949071 C27.7495232,10.6512429 27.1573393,10.260225 26.5994679,9.96443036 L25.56675,10.5765268 C27.1907839,12.5247375 29.7266786,12.239325 32.6953125,14.1549268 C30.9500839,11.7198804 29.7603643,9.98072679 27.8895857,9.19853036 Z M17.5122,15.3508661 L10.2988929,19.6261232 L10.2988929,29.8810768 L10.411875,29.8810768 C9.93281786,29.8810768 9.5455125,30.2652 9.5455125,30.7442893 C9.5455125,31.1844857 9.8773875,31.5324161 10.3020107,31.5886661 L10.3020107,36.0962036 C8.99210893,34.8974357 7.66996071,33.8261143 6.33751071,32.8881857 C6.33889286,31.7541857 6.12689464,30.7704536 5.47743214,29.1842357 C5.98075714,30.1869321 6.47590179,31.2551357 6.87741429,32.9697964 C7.97202321,29.4604393 6.38286429,27.7375339 3.80438036,24.5950875 C4.9114125,28.0363018 3.7823625,30.3869571 5.7128625,32.4612964 C4.05409821,31.33755 2.37913393,30.3948 0.699958929,29.5043946 C0.691923214,29.6554661 0.671673214,29.8039982 0.671673214,29.9564036 L0.671673214,29.9660464 C0.926758929,30.1212964 1.19098929,30.2667589 1.44385714,30.4243393 C1.16755714,30.441375 0.921857143,30.4903929 0.671673214,30.5342679 L0.671673214,31.4728071 C1.03879286,31.2178821 1.38972857,30.9638089 1.85191071,30.6974893 C2.01492321,30.8003464 2.17976786,30.9006482 2.34159107,31.0051125 C1.76653929,31.1635768 1.23748393,31.3716375 0.671673214,31.67685 L0.671673214,33.1835464 C1.39472679,32.7346232 2.02021071,32.1251304 2.49854464,31.0930071 C5.36649107,32.9544 8.03115,35.0295268 10.3019786,37.5152946 L10.3019786,51.555825 L10.4086929,51.555825 C9.92965179,51.555825 9.54548036,51.9399482 9.54548036,52.4190375 C9.54548036,52.8589125 9.87471964,53.207325 10.2988286,53.2634143 L10.2988286,73.2365518 L10.4118107,73.2365518 C9.93276964,73.2365518 9.54544821,73.620675 9.54544821,74.0997643 C9.54544821,74.5399607 9.87733929,74.8878911 10.3019464,74.9441411 L10.3019464,79.4516786 C8.99206071,78.25275 7.66989643,77.1817661 6.33744643,76.2436607 C6.33882857,75.1096607 6.12683036,74.1259607 5.47736786,72.5397107 C5.98069286,73.5424071 6.4758375,74.6106268 6.87735,76.3252875 C7.97195893,72.8159304 6.3828,71.0930089 3.80431607,67.9505625 C4.91134821,71.3917768 3.78229821,73.7424321 5.71279821,75.8167714 C4.05117321,74.6910964 2.37257679,73.7483946 0.690476786,72.8567357 C0.696905357,73.0235893 0.706548214,73.1909089 0.721816071,73.3558339 C0.959946429,73.5009589 1.20759107,73.6355411 1.44377679,73.7827393 C1.20915,73.7972036 1.00333929,73.8399536 0.787725,73.8737036 C0.830153571,74.1375321 0.874189286,74.3990464 0.941528571,74.6552893 C1.23910714,74.4570643 1.49563929,74.2641429 1.85181429,74.0588946 C2.01482679,74.1617518 2.17967143,74.2620536 2.34149464,74.3665179 C1.88405357,74.4926786 1.45395,74.6632286 1.01372143,74.8750179 C1.12268571,75.246075 1.25959821,75.6055929 1.41864107,75.954825 C1.82370536,75.5672625 2.19527679,75.1054339 2.49844821,74.4512625 C5.36641071,76.3124946 8.0310375,78.3877821 10.3018821,80.87355 L10.3018821,82.9044643 L17.0286429,86.8909179 L17.0286429,74.9440768 C17.4527679,74.8878268 17.7819911,74.539575 17.7819911,74.0997 C17.7819911,73.6206107 17.3978357,73.2364875 16.9187786,73.2364875 L17.0254929,73.2364875 L17.0254929,59.1991071 C19.2963375,56.7133393 21.9609643,54.6380357 24.8289268,52.7768036 C26.3507304,56.0605179 29.2344268,55.2772125 32.6951357,57.5103536 C30.4004089,54.3086036 29.0727643,52.3055732 25.8836143,52.1082161 C26.9763268,51.4271089 28.0904464,50.7662839 29.2203161,50.1243911 C29.2203804,50.1243911 29.2202518,50.1276054 29.2203161,50.1431946 C29.2299589,50.1431946 29.2331732,50.1245518 29.2423339,50.1181232 C30.6116839,49.3402661 31.9973946,48.578175 33.3857571,47.8204071 C32.2074804,48.3957643 31.0266964,48.9586661 29.8481625,49.5311304 C31.3068857,47.8441125 30.4188589,45.9228375 31.3140536,43.1402304 C29.1854571,45.7343196 27.8757482,47.1592607 28.7777732,50.0553321 C29.1091982,48.6412071 29.5175893,47.7594321 29.9329071,46.932075 C29.4278143,48.1658786 29.2491643,48.9592286 29.2297821,49.8293357 C29.0788714,49.9032643 28.9285714,49.9804071 28.7777732,50.0553321 C26.3746286,51.2444571 23.9812875,52.5389625 21.6146893,54.1422482 C23.5452536,52.0679089 22.4161232,49.7172536 23.5231714,46.2760393 C20.9446714,49.4184857 19.3555125,51.1414071 20.4501375,54.6507643 C20.8516339,52.9361036 21.3467786,51.8678839 21.8501036,50.8651875 C21.2006571,52.4514375 20.9886589,53.4351536 20.9900411,54.5691536 C19.6575911,55.5072429 18.3354429,56.5782268 17.0255411,57.7771554 L17.0255411,53.2696179 C17.4501482,53.2133679 17.7820232,52.8654375 17.7820232,52.4252411 C17.7820232,51.9461518 17.3947339,51.5620286 16.9156768,51.5620286 L17.0286589,51.5620286 L17.0286589,31.5888911 C17.4527839,31.5326411 17.7820071,31.1843893 17.7820071,30.7445143 C17.7820071,30.265425 17.3978518,29.8813018 16.9187946,29.8813018 L17.0255089,29.8813018 L17.0255089,15.8407714 C17.1810804,15.6704946 17.3528518,15.5175911 17.5120393,15.3510911 L17.5122,15.3508661 Z M65.3780732,17.8400571 C66.7076304,18.6061821 67.5786536,19.3174554 68.3663464,20.0184911 C66.9539732,18.9437946 66.0141321,18.4580196 64.8883929,18.1476804 C65.0502161,18.0432161 65.2150607,17.9429143 65.3780732,17.8400571 Z M58.93695,22.6646196 C59.00895,23.7085875 59.1496714,24.614775 59.8817732,25.4614339 C59.0367054,25.0509536 58.1911071,24.6428839 57.3454929,24.2341071 C57.8594089,23.6932714 58.3874357,23.1683304 58.93695,22.6646196 Z M57.3015536,24.2811804 C58.3676679,24.8659071 59.4345696,25.4502643 60.4875857,26.0484107 C60.4972286,26.0548393 60.5004429,26.0734821 60.5096036,26.0734821 C60.5096679,26.0570893 60.5095393,26.0546786 60.5096036,26.0546786 C61.6394732,26.6965714 62.7535929,27.3544071 63.8463054,28.0353536 C60.6571554,28.2327107 59.3295107,30.238875 57.0347839,33.440625 C60.4954929,31.2075 63.3791893,31.9876714 64.9009929,28.7039571 C67.7689554,30.56535 70.4335821,32.6404768 72.7044268,35.1262446 L72.7044268,49.166775 L72.8111411,49.166775 C72.3320839,49.166775 71.9479286,49.5508982 71.9479286,50.0299875 C71.9479286,50.4698625 72.2771518,50.8181143 72.7012768,50.8743643 L72.7012768,56.9199857 C71.7177375,57.3970018 70.7338125,57.8706429 69.7506589,58.3482054 C71.2085143,56.6611875 70.3213714,54.7399125 71.21655,51.9573054 C69.0879536,54.5513946 67.7782286,55.9763357 68.6802857,58.8724071 C69.0116786,57.4582821 69.4200696,56.5765071 69.8354036,55.74915 C69.3303107,56.9829536 69.1517411,57.7763036 69.1322786,58.6464107 C68.9813679,58.7196964 68.8310196,58.7968393 68.6802857,58.8724071 C66.2771089,60.0615321 63.8838,61.3560375 61.5171857,62.9593232 C63.4476857,60.8849839 62.3186357,58.5343286 63.4256679,55.0931143 C60.8471839,58.2355607 59.258025,59.9584821 60.3526339,63.4678393 C60.7541464,61.7531786 61.2492911,60.6849589 61.7526161,59.6822625 C61.1031536,61.2685125 60.8911554,62.2522125 60.8925375,63.3862125 C60.5373107,63.6363161 60.1852982,63.9208929 59.8315821,64.1897839 C59.4245732,63.6480321 58.9459821,63.0717107 58.4159143,62.4257036 C58.7158554,63.3580393 58.8035893,64.1680714 58.8585054,64.9305804 C58.2124661,65.4549911 57.5684196,66.0080732 56.9280536,66.5942304 L56.9280536,62.0866929 C57.3526607,62.0304429 57.6845357,61.6825125 57.6845357,61.2423161 C57.6845357,60.7632268 57.2972304,60.3791036 56.8181893,60.3791036 L56.9311714,60.3791036 L56.9311714,45.5820911 C57.0266357,45.5298589 57.1213125,45.4773054 57.2168089,45.4250732 C57.1216661,45.4715196 57.0263304,45.5168411 56.9311714,45.5631268 L56.9311714,40.4058375 C57.3552804,40.3497482 57.6845196,40.0013357 57.6845196,39.5614607 C57.6845196,39.0823714 57.3003482,38.6982482 56.8213071,38.6982482 L56.9280214,38.6982482 L56.9280214,24.6577179 C57.0475929,24.5268964 57.1798446,24.4096554 57.3015536,24.2810357 L57.3015536,24.2811804 Z M25.6828982,28.3021875 C25.8458946,28.4053661 26.0107554,28.5053304 26.1725786,28.6097946 C25.0468393,28.9199732 24.1069821,29.405925 22.6946089,30.4806214 C23.4823018,29.7795857 24.353325,29.0683125 25.6828982,28.3021875 Z M64.2543268,28.3021875 C64.4173232,28.4053661 64.5821839,28.5053304 64.7440071,28.6097946 C63.6182679,28.9199732 62.6784107,29.405925 61.2660375,30.4806214 C62.0537304,29.7795857 62.9247536,29.0683125 64.2543268,28.3021875 Z M40.8597268,38.9620607 C41.0197982,39.0604179 41.1870054,39.151575 41.3462571,39.2508482 C41.1721714,39.2620982 41.0231732,39.2984196 40.8597268,39.3199554 L40.8597268,38.9621089 L40.8597268,38.9620607 Z M41.7543268,39.5208 C41.9173232,39.6239786 42.0821839,39.7239429 42.2440071,39.8284071 C41.7671357,39.9598714 41.3199161,40.136175 40.8597268,40.3620268 L40.8597268,40.1077768 C41.1531589,39.9127821 41.4041143,39.7225929 41.7543268,39.5208 Z M42.4009446,39.9194357 C45.2689071,41.7806679 47.9335339,43.8559714 50.2043786,46.3417393 L50.2043786,48.9250929 C48.6108321,49.7784375 47.0206125,50.6800929 45.445725,51.7470107 C47.376225,49.6726714 46.247175,47.3220161 47.3542071,43.8808018 C44.7757232,47.0232482 43.1865643,48.7461536 44.2811732,52.2555107 C44.6826857,50.54085 45.1778304,49.4726464 45.6811554,48.46995 C45.0316929,50.0561839 44.8196946,51.0399 44.8210768,52.1739 C43.4886268,53.1118286 42.1664946,54.18315 40.8565929,55.3819179 L40.8565929,50.8743804 C41.2812,50.8181304 41.613075,50.4702 41.613075,50.0300036 C41.613075,49.5509143 41.2257857,49.1667911 40.7467286,49.1667911 L40.8597107,49.1667911 L40.8597107,41.8279179 C41.461425,41.3933464 41.9858839,40.8150161 42.4009286,39.9194357 L42.4009446,39.9194357 Z M50.2043786,49.4179071 L50.2043786,49.7788875 C50.0400161,49.7571911 49.8898125,49.7207089 49.7146982,49.7097804 C49.8752518,49.6096554 50.0429411,49.5169232 50.2043786,49.4178589 L50.2043786,49.4179071 Z M49.3066446,49.9829143 C49.6582554,50.1855268 49.9099661,50.3772911 50.2043786,50.5730411 L50.2043786,50.8272911 C49.7428232,50.6005071 49.2951375,50.4223554 48.8169643,50.2905375 C48.9787875,50.1860732 49.1436321,50.0857714 49.3066446,49.9829143 Z M48.6600107,50.3784321 C49.0758107,51.2756196 49.6012661,51.8552518 50.2043786,52.2900482 L50.2043786,60.3791196 L50.3110929,60.3791196 C49.8320357,60.3791196 49.4478804,60.7632429 49.4478804,61.2423321 C49.4478804,61.6822071 49.7771036,62.0304589 50.2012286,62.0867089 L50.2012286,82.0598625 L50.3142107,82.0598625 C49.8351536,82.0598625 49.4478643,82.4439857 49.4478643,82.923075 C49.4478643,83.3632554 49.7797393,83.7112018 50.2043464,83.7674518 L50.2043464,88.2749732 C48.8944446,87.0760446 47.5722964,86.0050607 46.2398464,85.0669714 C46.2412446,83.9328107 46.0292304,82.9492554 45.3797839,81.3630054 C45.8831089,82.3657018 46.3782536,83.4339214 46.77975,85.1485821 C47.874375,81.639225 46.2852161,79.9194536 43.7067161,76.7770071 C44.8137643,80.2182214 43.6846982,82.5657268 45.6151982,84.6400661 C44.0411464,83.5738071 42.4524214,82.6712036 40.8596946,81.8181643 L40.8596946,72.5488393 C41.2838036,72.49275 41.6130429,72.1443375 41.6130429,71.7044625 C41.6130429,71.2253732 41.2288714,70.84125 40.7498304,70.84125 L40.8565446,70.84125 L40.8565446,56.8007196 C43.1273571,54.3149518 45.7920161,52.2398089 48.6599625,50.3784321 L48.6600107,50.3784321 Z M25.4757214,52.3779429 C26.8052946,53.1440679 27.6763179,53.855325 28.4640107,54.5563607 C27.0516375,53.4816643 26.1117804,52.9958893 24.9860571,52.68555 C25.1478643,52.5810857 25.312725,52.4811214 25.4757214,52.3779429 Z M72.7012446,56.9639411 L72.7012446,70.8475179 L72.8142268,70.8475179 C72.3351696,70.8475179 71.9478804,71.2316411 71.9478804,71.7107304 C71.9478804,72.1509268 72.2797554,72.4988571 72.7043625,72.5551071 L72.7043625,77.0626446 C71.3944607,75.8637161 70.0723125,74.7927321 68.7398625,73.8546429 C68.7412446,72.7206429 68.5292464,71.7369268 67.8798,70.1506768 C68.383125,71.1533732 68.8782696,72.2215929 69.2797661,73.9362536 C70.3743911,70.4268964 68.7852321,68.703975 66.2067321,65.5615286 C67.3137804,69.0027429 66.1847143,71.3533982 68.1152143,73.4277375 C65.7486161,71.8244518 63.355275,70.5299464 60.9521304,69.3408214 C60.8013804,69.2659286 60.6510321,69.1887857 60.5001214,69.114825 C60.480675,68.2447179 60.3020893,67.4513679 59.7969964,66.2175643 C60.2123143,67.0449214 60.6207054,67.9266964 60.9521304,69.3408214 C61.5363911,67.4649643 61.1829,66.2047714 60.2898107,64.8458518 C61.6936982,63.6808661 63.1779589,62.6020554 64.7314232,61.5938946 C66.2532107,64.8776089 69.1369232,64.0974536 72.5976482,66.3305786 C70.3029054,63.1288286 68.9752607,61.1226482 65.7861107,60.9253071 C66.8788071,60.2443446 67.9929429,59.5865089 69.1228286,58.9446161 C69.1228929,58.9446161 69.1227482,58.9442464 69.1228286,58.9606875 C69.1324714,58.9606875 69.1356857,58.9356161 69.1448464,58.9356161 C70.3200536,58.2680411 71.510625,57.6159589 72.7012768,56.9643589 L72.7012446,56.9639411 Z M65.3780732,61.2015268 C66.7076304,61.9676518 67.5786536,62.678925 68.3663464,63.3799607 C66.9539732,62.3052643 66.0141321,61.8194893 64.8883929,61.50915 C65.0502161,61.4046857 65.2150607,61.3043839 65.3780732,61.2015268 Z M58.93695,66.0198214 C59.00895,67.063725 59.1496714,67.9699607 59.8817732,68.8166196 C59.037975,68.40675 58.1929875,68.0005607 57.3486268,67.5924268 C57.8621893,67.0520411 58.3878696,66.5231625 58.93695,66.0198214 Z M25.6828982,71.6636571 C25.8458946,71.7668357 26.0107554,71.8668 26.1725786,71.9712643 C25.0468393,72.2816036 24.1069821,72.7673786 22.6946089,73.842075 C23.4823018,73.1410393 24.353325,72.4297821 25.6828982,71.6636571 Z M64.2543268,71.6636571 C64.4173232,71.7668357 64.5821839,71.8668 64.7440071,71.9712643 C63.6182679,72.2816036 62.6784107,72.7673786 61.2660375,73.842075 C62.0537304,73.1410393 62.9247536,72.4297821 64.2543268,71.6636571 Z M40.8597268,82.3172464 C41.0199589,82.4156036 41.1869411,82.5067446 41.3462571,82.6060339 C41.1721714,82.6172839 41.0231732,82.6536054 40.8597268,82.6751411 L40.8597268,82.3172946 L40.8597268,82.3172464 Z M41.7543268,82.8822536 C41.9173232,82.9852714 42.0821839,83.0854125 42.2440071,83.1898768 C41.7671357,83.3213411 41.3199161,83.4976125 40.8597268,83.7234964 L40.8597268,83.4692464 C41.1531589,83.2742518 41.4041143,83.0840464 41.7543268,82.8822536 Z M42.4009446,83.2746214 C45.2689071,85.1358696 47.9335339,87.2109964 50.2043786,89.696925 L50.2043786,92.2802786 C48.6108161,93.1336714 47.0206125,94.0352786 45.445725,95.1021964 C47.376225,93.0278571 46.247175,90.6772018 47.3542071,87.2359875 C44.7757232,90.3784339 43.1865643,92.1013554 44.2811732,95.6107125 C44.6826857,93.8960518 45.1778304,92.8278321 45.6811554,91.8251357 C45.0316929,93.4113857 44.8196946,94.3950857 44.8210768,95.5290857 C43.4886268,96.4671911 42.1664625,97.538175 40.8565929,98.7371036 L40.8565929,94.2295661 C41.2812,94.1733161 41.613075,93.8253857 41.613075,93.3851893 C41.613075,92.9061 41.2257696,92.5219768 40.7467286,92.5219768 L40.8597107,92.5219768 L40.8597107,85.1831036 C41.461425,84.7485161 41.9858839,84.1701696 42.4009286,83.2746214 L42.4009446,83.2746214 Z M31.3141821,86.4951911 C29.1855857,89.0892804 27.8758768,90.5142375 28.7779018,93.4103089 C29.1093268,91.9961839 29.5177179,91.1175429 29.9330357,90.2901857 C29.4279429,91.5238286 29.2492768,92.31435 29.2299107,93.1842964 C29.079,93.258225 28.9287,93.3353679 28.7779018,93.4103089 C28.6445089,93.4762018 28.5125625,93.5539875 28.37925,93.6206036 L28.6868732,93.7995268 C28.8667768,93.6960268 29.0397536,93.5851982 29.2204929,93.4825018 C29.2205571,93.4825018 29.2204286,93.4816339 29.2204929,93.4985732 C29.2301357,93.4985732 29.23335,93.4799304 29.2425107,93.4735018 C30.6118446,92.6958054 31.9975714,91.9337143 33.3859339,91.1757857 C32.2076571,91.7513036 31.0268732,92.3140446 29.8483393,92.8865089 C31.3070625,91.1993304 30.4190357,89.2783768 31.3142304,86.4956089 L31.3141821,86.4951911 Z M23.5233,89.63415 C23.2975768,89.9092286 23.1300482,90.1289089 22.9206214,90.3843482 L23.2753179,90.5946589 C23.3453893,90.2812018 23.4161036,89.967375 23.5233,89.63415 Z M50.2043786,92.7762268 L50.2043786,93.1372071 C50.0399679,93.1155107 49.8898929,93.0790286 49.7146982,93.0681 C49.8752518,92.9681357 50.0429411,92.8752429 50.2043786,92.7761625 L50.2043786,92.7762268 Z M49.3066446,93.3443839 C49.6582554,93.5469964 49.9099661,93.7387286 50.2043786,93.9345107 L50.2043786,94.1887607 C49.7428232,93.9619607 49.2951375,93.783825 48.8169643,93.6520071 C48.9787875,93.5475429 49.1436321,93.4472411 49.3066446,93.3443839 Z" id="path7119" fill="#00C800" fill-rule="nonzero"></path>
                <path d="M51.1460679,3.38518929 L51.1460679,17.0302179 L55.9863321,17.0302179 L55.9863321,6.25419643 L51.1460679,3.38518929 Z M35.0746393,7.54116429 L35.0746393,27.4923321 L39.9149036,27.4923321 L39.9149036,7.54116429 L35.0746393,7.54116429 Z M16.0839804,16.1952429 L11.2437161,19.06425 L11.2437161,29.8873607 L16.0839804,29.8873607 L16.0839804,16.1952429 Z M73.6460679,16.7225946 L73.6460679,27.4923321 L78.4863321,27.4923321 L78.4863321,19.5915857 L73.6460679,16.7225946 Z M51.1460679,18.7597768 L51.1460679,38.7109446 L55.9863321,38.7109446 L55.9863321,18.7597768 L51.1460679,18.7597768 Z M35.0746393,29.2218911 L35.0746393,49.173075 L39.9149036,49.173075 L39.9149036,29.2218911 L35.0746393,29.2218911 Z M73.6460679,29.2218911 L73.6460679,49.173075 L78.4863321,49.173075 L78.4863321,29.2218911 L73.6460679,29.2218911 Z M11.2437161,31.6169196 L11.2437161,51.5680875 L16.0839804,51.5680875 L16.0839804,31.6169196 L11.2437161,31.6169196 Z M51.1460679,40.4405036 L51.1460679,60.3916714 L55.9863321,60.3916714 L55.9863321,40.4405036 L51.1460679,40.4405036 Z M35.0746393,50.9026339 L35.0746393,70.8538018 L39.9149036,70.8538018 L39.9149036,50.9026339 L35.0746393,50.9026339 Z M73.6460679,50.9026339 L73.6460679,70.8538018 L78.4863321,70.8538018 L78.4863321,50.9026339 L73.6460679,50.9026339 Z M11.2437161,53.2976464 L11.2437161,73.2488143 L16.0839804,73.2488143 L16.0839804,53.2976464 L11.2437161,53.2976464 Z M51.1460679,62.1212464 L51.1460679,82.0724143 L55.9863321,82.0724143 L55.9863321,62.1212464 L51.1460679,62.1212464 Z M35.0746393,72.5833607 L35.0746393,92.5345286 L39.9149036,92.5345286 L39.9149036,72.5833607 L35.0746393,72.5833607 Z M73.6460679,72.5833607 L73.6460679,85.8046179 L78.4863321,82.9356268 L78.4863321,72.5833607 L73.6460679,72.5833607 Z M11.2437161,74.9783893 L11.2437161,83.4629625 L16.0839804,86.3319696 L16.0839804,74.9783893 L11.2437161,74.9783893 Z M51.1460679,83.8019732 L51.1460679,99.1420232 L55.9863321,96.2730321 L55.9863321,83.8019732 L51.1460679,83.8019732 Z M35.0746393,94.2641036 L35.0746393,97.5882536 L39.9149036,100.457245 L39.9149036,94.2641036 L35.0746393,94.2641036 Z" id="path7121" fill="#00E800" fill-rule="nonzero"></path>
                <path d="M52.4581393,4.16365714 L52.4581393,17.0302179 L54.6742446,17.0302179 L54.6742446,5.47572857 L52.4581393,4.16365714 Z M36.3867107,7.54116429 L36.3867107,27.4923321 L38.6028161,27.4923321 L38.6028161,7.54116429 L36.3867107,7.54116429 Z M14.7719089,16.9737107 L12.5558036,18.2889321 L12.5558036,29.8873607 L14.7719089,29.8873607 L14.7719089,16.9737107 Z M74.9581393,17.4979125 L74.9581393,27.4923321 L77.1742446,27.4923321 L77.1742446,18.8131339 L74.9581393,17.4979125 Z M52.4581393,18.7597768 L52.4581393,38.7109446 L54.6742446,38.7109446 L54.6742446,18.7597768 L52.4581393,18.7597768 Z M36.3867107,29.2218911 L36.3867107,49.173075 L38.6028161,49.173075 L38.6028161,29.2218911 L36.3867107,29.2218911 Z M74.9581393,29.2218911 L74.9581393,49.173075 L77.1742446,49.173075 L77.1742446,29.2218911 L74.9581393,29.2218911 Z M12.5558036,31.6169196 L12.5558036,51.5680875 L14.7719089,51.5680875 L14.7719089,31.6169196 L12.5558036,31.6169196 Z M52.4581393,40.4405036 L52.4581393,60.3916714 L54.6742446,60.3916714 L54.6742446,40.4405036 L52.4581393,40.4405036 Z M36.3867107,50.9026339 L36.3867107,70.8538018 L38.6028161,70.8538018 L38.6028161,50.9026339 L36.3867107,50.9026339 Z M74.9581393,50.9026339 L74.9581393,70.8538018 L77.1742446,70.8538018 L77.1742446,50.9026339 L74.9581393,50.9026339 Z M12.5558036,53.2976464 L12.5558036,73.2488143 L14.7719089,73.2488143 L14.7719089,53.2976464 L12.5558036,53.2976464 Z M52.4581393,62.1212464 L52.4581393,82.0724143 L54.6742446,82.0724143 L54.6742446,62.1212464 L52.4581393,62.1212464 Z M36.3867107,72.5833607 L36.3867107,92.5345286 L38.6028161,92.5345286 L38.6028161,72.5833607 L36.3867107,72.5833607 Z M74.9581393,72.5833607 L74.9581393,85.0293 L77.1742446,83.7140786 L77.1742446,72.5833607 L74.9581393,72.5833607 Z M12.5558036,74.9783893 L12.5558036,84.2382804 L14.7719089,85.5535018 L14.7719089,74.9783893 L12.5558036,74.9783893 Z M52.4581393,83.8019732 L52.4581393,98.3635714 L54.6742446,97.0514839 L54.6742446,83.8019732 L52.4581393,83.8019732 Z M36.3867107,94.2641036 L36.3867107,98.3635714 L38.6028161,99.6787929 L38.6028161,94.2641036 L36.3867107,94.2641036 Z" id="path7123" fill="#4DF74D" fill-rule="nonzero"></path>
            </g>
            <path d="M45.0001912,25.5169768 C32.3145516,25.5167636 22.0303922,34.9057257 22.0293482,46.4882946 C22.0289299,52.0510081 24.4488942,57.3860123 28.7568204,61.3195436 C33.0647466,65.2530748 38.9077105,67.4628809 45.0001912,67.4627786 C51.092672,67.4628809 56.9356359,65.2530748 61.2435621,61.3195436 C65.5514883,57.3860123 67.9714526,52.0510081 67.9710343,46.4882946 C67.9699903,34.9057257 57.6858309,25.5167636 45.0001912,25.5169768 Z M45.0001912,73.1003304 C34.5719017,73.1122714 25.3070867,79.7586596 21.9540134,89.6331857 L41.0984759,100.980482 C42.3388591,101.715911 43.7533843,102.084621 45.1853887,102.050871 C46.4923254,102.018729 47.7698593,101.651625 48.9019066,100.980482 L68.0432304,89.6331857 C64.6905294,79.7597509 55.4273262,73.1136137 45.0001912,73.1003304 Z" id="ellipse6201" fill="#FFFFFF" fill-rule="nonzero"></path>
            <path d="M44.9091611,58.3867286 C43.9776804,58.3867286 43.068637,58.6279607 42.2190804,59.1588 C41.9759743,59.3114786 41.8866943,59.6224607 42.01191,59.8807286 C42.6023004,61.1052107 43.7368677,61.9148893 45.0001913,61.9148893 C46.2635148,61.9148893 47.3980837,61.1052107 47.9884725,59.8807286 C48.1222993,59.6049429 48.0106189,59.2727464 47.7373564,59.1337286 C46.794923,58.6509429 45.8406434,58.3928357 44.9091611,58.3867286 Z" id="path6265" fill="#FF5555"></path>
            <path d="M34.3685652,50.176575 C32.6138009,50.1768594 31.1916833,50.8345166 31.1919461,51.6456 C31.1916833,52.4566834 32.6138009,53.1143406 34.3685652,53.114625 C36.1233288,53.1143402 37.5454454,52.4566831 37.5451827,51.6456 C37.5454454,50.8345169 36.1233288,50.1768598 34.3685652,50.176575 Z M55.6318173,50.176575 C53.8770537,50.1768598 52.4549371,50.8345169 52.4551998,51.6456 C52.4549371,52.4566831 53.8770537,53.1143402 55.6318173,53.114625 C57.3865816,53.1143406 58.8086992,52.4566834 58.8084364,51.6456 C58.8086992,50.8345166 57.3865816,50.1768594 55.6318173,50.176575 Z" id="ellipse6267" fill="#FFB2B2" fill-rule="nonzero"></path>
            <path d="M45.0001912,0.000433928572 C43.5105145,0.000433928572 42.0191277,0.394875 40.6872723,1.18382143 L16.9630827,15.2463214 C16.0402291,15.7924286 16.8595987,17.1768696 17.7823479,16.6306018 L41.5065391,2.56810179 C43.6724534,1.28528036 46.3251118,1.28528036 48.4907046,2.56810179 L84.4379695,23.8752964 C86.6035302,25.1598857 87.9469955,27.5376857 87.947317,30.1218107 L87.947317,72.7330661 C87.946867,75.3168696 86.6033534,77.6959554 84.4379695,78.9795804 L75.7681875,84.11805 C72.5393025,75.555675 65.8278177,68.5742143 57.0882905,65.1211071 C64.0182793,61.3414286 68.6929934,54.4365161 68.6929934,46.4914446 C68.6929934,42.8583375 67.7042775,39.4442679 65.9840786,36.4405179 C65.9962929,36.4405179 66.0097768,36.4244464 66.02175,36.4244464 C67.8324568,35.2673036 68.9326682,33.2652214 68.9346964,31.1164714 C68.9346723,27.6447214 66.0973291,24.8103161 62.6254055,24.8103161 L62.6221912,24.8103161 C60.3913436,24.8103161 58.3328154,26.0061268 57.2043616,27.9273054 C53.6320012,25.9532518 49.464217,24.7977643 45.0001205,24.7977643 C40.537583,24.7977643 36.3705557,25.9513875 32.7990182,27.9241554 C31.6705146,26.0031375 29.6088927,24.8121643 27.3780498,24.8071821 L27.3748355,24.8071821 C23.9029248,24.8071821 21.0655768,27.6415875 21.0655446,31.1133375 C21.0671518,33.2620875 22.1677875,35.2641536 23.9784911,36.4212964 C23.9897411,36.4212964 24.0041089,36.4373679 24.0161625,36.4373679 C22.2951054,39.4417607 21.3072477,42.8573571 21.3072477,46.4914286 C21.3072477,54.4294286 25.9733218,61.3297446 32.8931164,65.1116732 C24.1563504,68.5702607 17.4463232,75.5523482 14.2226357,84.1148839 L5.55913125,78.9795643 C3.39501696,77.6951357 2.05295625,75.31605 2.05292411,72.73305 L2.05292411,65.0457643 C2.05935268,64.5922286 1.69044429,64.2225696 1.23679607,64.2296411 C0.792983571,64.2296411 0.438822321,64.6020321 0.44578125,65.0457643 L0.44578125,72.73305 C0.445829464,75.8735679 2.07666964,78.7845054 4.73986607,80.3638446 L40.6871309,101.671039 C41.9362345,102.410646 43.3504254,102.818909 44.7960182,102.854427 C46.3790218,102.891391 47.9408979,102.481843 49.30983,101.671039 L51.9434084,100.110986 C52.866262,99.5648786 52.0469887,98.1804375 51.1241432,98.7267054 L48.4905632,100.289909 C47.3783561,100.948677 46.114867,101.277498 44.8336848,101.247284 C43.6647937,101.218355 42.5221762,100.888152 41.5063977,100.286759 L22.245795,88.8704036 C25.8099879,79.422975 34.8456552,73.1160643 45.0000498,73.1003143 C55.1529112,73.1163857 64.1870904,79.4242607 67.7511659,88.8704036 L58.5603177,94.3196143 C57.5753271,94.8486857 58.4430605,96.311475 59.3795845,95.7007607 L85.2570948,80.3638446 C87.9208055,78.7849875 89.553772,75.8734071 89.5543184,72.73305 L89.5543184,30.1217946 C89.5539327,26.9811161 87.9203234,24.0708214 85.2570948,22.491 L49.30983,1.18380536 C47.9781032,0.394858929 46.4897266,0.000417857143 45.0000498,0.000417857143 L45.0001912,0.000433928572 Z M14.6779248,16.7341821 L14.6779248,16.7406107 C14.6475498,16.7399679 14.6171105,16.7409321 14.5868962,16.7406107 C14.4612177,16.7566821 14.3396807,16.7877 14.232195,16.8535929 L12.6564412,17.7889982 C11.6712305,18.3179089 12.5391198,19.7811804 13.475708,19.1701446 L15.0514602,18.2378732 C15.7620745,17.8375339 15.4932766,16.7556857 14.6779248,16.7343107 L14.6779248,16.7341821 Z M9.74035607,19.6157411 L9.74035607,19.6189554 C9.6146775,19.6350268 9.49314054,19.6660446 9.38565482,19.7319375 L4.7400075,22.4847964 C2.07771107,24.0649393 0.445070893,26.9739321 0.445922679,30.115575 L0.445922679,61.6212321 C0.42985125,62.7078214 2.06842982,62.7078214 2.05306554,61.6212321 L2.05306554,30.115575 C2.05235839,27.5309679 3.39403339,25.1543089 5.55927268,23.8690768 L10.20492,21.1162018 C10.9570789,20.6914339 10.6009489,19.5412179 9.74035607,19.6157893 L9.74035607,19.6157411 Z M45.0001913,26.2420714 C57.3295371,26.2420714 67.2459364,35.3364268 67.2459364,46.4914446 C67.2459364,57.6464625 57.3295371,66.7408179 45.0001913,66.7408179 C32.6708502,66.7408179 22.7544461,57.6464625 22.7544461,46.4914446 C22.7544461,35.3364268 32.6708502,26.2420714 45.0001913,26.2420714 Z M37.4321812,37.6960982 C36.4293129,37.6763304 35.262127,37.9740536 34.3403148,38.4494464 C32.1536282,39.5776607 30.5892305,41.9320929 30.5892675,44.2031464 C30.5893302,46.5556821 32.4977561,49.0146589 34.8488245,49.1030518 C39.6825862,49.2872304 41.4531161,44.4401839 41.4531771,42.0874875 C41.4328468,39.8770232 40.6225334,38.4912 38.3644495,37.8279321 C38.0820664,37.7450036 37.7664702,37.7027357 37.4321812,37.6961464 L37.4321812,37.6960982 Z M52.5682012,37.6960982 C52.2339123,37.7025268 51.9183177,37.7449554 51.635933,37.8278839 C49.3778507,38.4911518 48.5675389,39.876975 48.5472054,42.0874393 C48.5472664,44.4401357 50.3177962,49.2871821 55.151558,49.1030036 C57.5026264,49.0146107 59.4110523,46.5556339 59.411115,44.2030982 C59.411152,41.9320446 57.8467527,39.5776125 55.6600677,38.4493982 C54.7382539,37.9740054 53.5710696,37.6762982 52.5682012,37.69605 L52.5682012,37.6960982 Z M38.2922534,41.2368429 C38.7337581,41.2370464 39.1570876,41.3998789 39.4690912,41.6895102 C39.7810947,41.9791415 39.9562075,42.3718399 39.955897,42.7811946 C39.9546878,43.6324238 39.2103369,44.3220059 38.2922534,44.3224286 C37.8507872,44.3229976 37.4271603,44.1609341 37.1145741,43.8718934 C36.801988,43.5828527 36.6260505,43.1905138 36.6254695,42.7811946 C36.6251582,42.3713351 36.8007019,41.9781949 37.1133849,41.6884798 C37.4260679,41.3987646 37.8502047,41.2362733 38.2922534,41.2368429 Z M51.7081291,41.2368429 C52.1501778,41.2362733 52.5743146,41.3987646 52.8869976,41.6884798 C53.1996806,41.9781949 53.3752243,42.3713351 53.374913,42.7811946 C53.374332,43.1905138 53.1983945,43.5828527 52.8858084,43.8718934 C52.5732222,44.1609341 52.1495953,44.3229976 51.7081291,44.3224286 C50.7900456,44.3220059 50.0456947,43.6324238 50.0444855,42.7811946 C50.044175,42.3718399 50.2192878,41.9791415 50.5312913,41.6895102 C50.8432949,41.3998789 51.2666244,41.2370464 51.7081291,41.2368429 Z M45.0001912,50.942475 C43.1469836,50.942475 41.5158798,52.0958571 41.5159554,53.6702143 C41.5160437,55.0819607 42.8310177,56.1506625 44.4383196,56.3571643 C44.4383166,56.3582357 44.4383166,56.3593071 44.4383196,56.3603786 C44.4378258,56.3739812 44.4378258,56.3875973 44.4383196,56.4012 C44.4387471,56.917575 44.4383936,57.0045696 44.4383196,57.4370518 C44.3024196,57.9114804 44.0567823,58.2087536 43.722638,58.4038607 C43.379775,58.6041107 42.9352088,58.6932429 42.4796143,58.6675286 C41.5684221,58.6161 40.7338361,58.0752804 40.5931034,57.5500661 C40.545759,57.3506768 40.3937328,57.1928074 40.19627,57.1379802 C39.9988072,57.083153 39.7871513,57.140043 39.6437853,57.28648 C39.5004194,57.4329169 39.4480274,57.6457309 39.5070268,57.8419875 C39.8356312,59.0683982 41.1402182,59.7194357 42.4168345,59.791275 C43.0551434,59.8266321 43.7158993,59.7093107 44.2907887,59.3737875 C44.5555061,59.2191804 44.7949414,59.0086607 45.0001913,58.7585571 C45.2054893,59.0087893 45.4447768,59.2191321 45.7095937,59.3737875 C46.2844832,59.7095196 46.9452391,59.827275 47.583548,59.791275 C48.8601643,59.7189536 50.1647512,59.0683982 50.4933557,57.8419875 C50.5523551,57.6457309 50.4999631,57.4329169 50.3565972,57.28648 C50.2132312,57.140043 50.0015753,57.083153 49.8041125,57.1379802 C49.6066497,57.1928074 49.4546235,57.3506768 49.4072791,57.5500661 C49.2665416,58.0752804 48.4319604,58.6162607 47.5207682,58.6675286 C47.0651737,58.6932429 46.6206075,58.60485 46.2777445,58.4038607 C45.9436002,58.2087536 45.6979612,57.9114804 45.5620629,57.4370518 C45.5619889,57.0045696 45.5616354,56.917575 45.5620629,56.4012 C45.5620659,56.4001286 45.5620659,56.3990571 45.5620629,56.3979857 C45.5614872,56.3843441 45.560415,56.3707279 45.5588486,56.3571643 C47.1675552,56.1516268 48.4842632,55.0828607 48.4843516,53.6702143 C48.4844271,52.0958571 46.853325,50.942475 45.0001157,50.942475 L45.0001912,50.942475 Z M45.4898684,51.9751929 C45.6567605,51.9570321 45.8356821,51.9586393 46.0172105,51.9784071 C46.7433273,52.0569964 47.340532,52.435125 47.2822087,52.8573054 C47.2238373,53.28 46.5423927,53.5199143 45.8163177,53.4411643 C45.0902491,53.3624143 44.49303,52.9846071 44.5513211,52.56225 C44.5950354,52.2454821 44.9891855,52.0295946 45.4898684,51.9752732 L45.4898684,51.9751929 Z M55.9896589,95.9769964 C55.8357911,95.9769964 55.6843629,96.0158893 55.5533437,96.0962464 L54.3354316,96.8182071 C53.8150211,97.1187429 53.6501025,97.6780768 53.8677273,98.0549518 C54.0876536,98.4041839 54.5621223,98.5514946 54.9569427,98.3186196 L56.3757493,97.4773929 C57.0830754,97.0711071 56.8052245,95.9912679 55.9896589,95.9769643 L55.9896589,95.9769964 Z" id="path6207" fill="#000000" fill-rule="nonzero"></path>
        </g>
    </g>
</svg>