<?xml version="1.0" encoding="UTF-8" ?>
<!DOCTYPE svg PUBLIC "-//W3C//DTD SVG 1.1//EN" "http://www.w3.org/Graphics/SVG/1.1/DTD/svg11.dtd">
<svg width="200pt" height="200pt" viewBox="0 0 200 200" version="1.1" xmlns="http://www.w3.org/2000/svg">
<g id="#003c8fff">
<path fill="#003c8f" opacity="1.00" d=" M 0.00 0.00 L 200.00 0.00 L 200.00 200.00 L 0.00 200.00 L 0.00 0.00 M 85.76 19.78 C 82.50 22.04 80.92 26.07 81.12 29.96 C 81.12 44.89 81.13 59.82 81.12 74.76 C 68.40 80.81 55.66 86.85 42.93 92.90 C 39.18 94.71 35.51 98.50 36.15 102.99 C 36.50 110.30 36.17 117.62 36.35 124.93 C 36.36 128.23 38.05 131.37 40.75 133.25 C 55.83 144.47 70.91 155.68 86.02 166.87 C 93.51 172.44 104.47 172.39 112.00 166.91 C 129.52 154.81 147.12 142.82 164.60 130.67 C 169.37 127.42 168.69 121.00 168.37 115.99 C 168.35 113.29 163.73 113.33 163.75 116.01 C 163.09 119.73 165.04 124.82 161.08 127.18 C 144.94 138.34 128.74 149.41 112.60 160.56 C 109.53 162.69 106.44 165.04 102.69 165.79 C 97.74 166.90 92.41 165.63 88.39 162.55 C 73.87 151.78 59.39 140.97 44.84 130.24 C 43.35 129.07 41.54 127.80 41.36 125.74 C 40.93 120.53 41.33 115.30 41.17 110.08 C 57.85 121.36 74.65 132.48 91.35 143.75 C 93.60 145.29 96.19 146.57 99.00 146.46 C 102.85 146.53 105.97 144.02 109.08 142.10 C 125.04 132.02 141.02 121.95 157.00 111.89 C 159.39 110.34 161.97 109.00 164.05 107.02 C 168.08 103.03 168.13 95.93 164.28 91.80 C 161.49 88.88 157.42 87.85 153.90 86.10 C 150.95 84.95 148.20 82.98 145.00 82.65 C 142.32 83.28 142.86 87.14 145.33 87.59 C 150.05 89.96 155.10 91.64 159.68 94.27 C 163.44 96.69 162.92 102.89 158.96 104.85 C 140.33 116.63 121.66 128.35 103.03 140.12 C 100.61 141.95 97.23 142.07 94.82 140.15 C 78.25 129.08 61.71 117.94 45.12 106.90 C 43.44 105.72 41.34 104.37 41.37 102.04 C 41.20 99.35 43.77 97.90 45.86 96.91 C 57.63 91.38 69.35 85.72 81.14 80.20 C 82.66 79.44 84.32 78.85 85.60 77.69 C 86.25 76.21 85.92 74.52 86.03 72.95 C 85.97 58.62 86.00 44.30 86.00 29.97 C 85.69 26.74 87.70 23.23 91.07 22.71 C 96.03 22.21 101.03 22.65 106.01 22.48 C 108.88 22.54 112.36 22.11 114.46 24.55 C 116.20 26.23 116.19 28.78 116.21 31.02 C 116.16 52.68 116.19 74.33 116.20 95.99 C 116.24 98.16 115.91 100.56 114.17 102.06 C 111.71 104.43 108.03 103.69 104.95 103.83 C 100.16 103.63 95.31 104.21 90.57 103.49 C 87.15 102.74 86.27 99.13 85.54 96.22 C 84.76 94.13 81.25 94.94 81.19 97.10 C 80.80 102.58 85.20 107.87 90.66 108.51 C 97.06 108.91 103.49 108.64 109.90 108.65 C 116.07 108.80 121.46 103.15 121.05 97.01 C 121.06 74.32 121.09 51.63 121.04 28.94 C 121.17 24.36 118.15 19.95 113.85 18.37 C 109.36 17.02 104.59 17.83 99.98 17.62 C 95.23 17.82 89.84 16.71 85.76 19.78 M 132.41 91.61 C 128.24 92.84 125.16 97.68 127.12 101.87 C 130.47 109.64 144.36 108.70 145.80 100.04 C 146.68 93.14 138.09 89.25 132.41 91.61 Z" />
<path fill="#003c8f" opacity="1.00" d=" M 133.40 96.48 C 135.96 95.15 140.34 95.81 141.04 99.04 C 140.17 103.15 133.51 103.39 131.58 99.96 C 130.85 98.50 132.18 97.09 133.40 96.48 Z" />
</g>
<g id="#ffffffff">
<path fill="#ffffff" opacity="1.00" d=" M 85.76 19.78 C 89.84 16.71 95.23 17.82 99.98 17.62 C 104.59 17.83 109.36 17.02 113.85 18.37 C 118.15 19.95 121.17 24.36 121.04 28.94 C 121.09 51.63 121.06 74.32 121.05 97.01 C 121.46 103.15 116.07 108.80 109.90 108.65 C 103.49 108.64 97.06 108.91 90.66 108.51 C 85.20 107.87 80.80 102.58 81.19 97.10 C 81.25 94.94 84.76 94.13 85.54 96.22 C 86.27 99.13 87.15 102.74 90.57 103.49 C 95.31 104.21 100.16 103.63 104.95 103.83 C 108.03 103.69 111.71 104.43 114.17 102.06 C 115.91 100.56 116.24 98.16 116.20 95.99 C 116.19 74.33 116.16 52.68 116.21 31.02 C 116.19 28.78 116.20 26.23 114.46 24.55 C 112.36 22.11 108.88 22.54 106.01 22.48 C 101.03 22.65 96.03 22.21 91.07 22.71 C 87.70 23.23 85.69 26.74 86.00 29.97 C 86.00 44.30 85.97 58.62 86.03 72.95 C 85.92 74.52 86.25 76.21 85.60 77.69 C 84.32 78.85 82.66 79.44 81.14 80.20 C 69.35 85.72 57.63 91.38 45.86 96.91 C 43.77 97.90 41.20 99.35 41.37 102.04 C 41.34 104.37 43.44 105.72 45.12 106.90 C 61.71 117.94 78.25 129.08 94.82 140.15 C 97.23 142.07 100.61 141.95 103.03 140.12 C 121.66 128.35 140.33 116.63 158.96 104.85 C 162.92 102.89 163.44 96.69 159.68 94.27 C 155.10 91.64 150.05 89.96 145.33 87.59 C 142.86 87.14 142.32 83.28 145.00 82.65 C 148.20 82.98 150.95 84.95 153.90 86.10 C 157.42 87.85 161.49 88.88 164.28 91.80 C 168.13 95.93 168.08 103.03 164.05 107.02 C 161.97 109.00 159.39 110.34 157.00 111.89 C 141.02 121.95 125.04 132.02 109.08 142.10 C 105.97 144.02 102.85 146.53 99.00 146.46 C 96.19 146.57 93.60 145.29 91.35 143.75 C 74.65 132.48 57.85 121.36 41.17 110.08 C 41.33 115.30 40.93 120.53 41.36 125.74 C 41.54 127.80 43.35 129.07 44.84 130.24 C 59.39 140.97 73.87 151.78 88.39 162.55 C 92.41 165.63 97.74 166.90 102.69 165.79 C 106.44 165.04 109.53 162.69 112.60 160.56 C 128.74 149.41 144.94 138.34 161.08 127.18 C 165.04 124.82 163.09 119.73 163.75 116.01 C 163.73 113.33 168.35 113.29 168.37 115.99 C 168.69 121.00 169.37 127.42 164.60 130.67 C 147.12 142.82 129.52 154.81 112.00 166.91 C 104.47 172.39 93.51 172.44 86.02 166.87 C 70.91 155.68 55.83 144.47 40.75 133.25 C 38.05 131.37 36.36 128.23 36.35 124.93 C 36.17 117.62 36.50 110.30 36.15 102.99 C 35.51 98.50 39.18 94.71 42.93 92.90 C 55.66 86.85 68.40 80.81 81.12 74.76 C 81.13 59.82 81.12 44.89 81.12 29.96 C 80.92 26.07 82.50 22.04 85.76 19.78 Z" />
<path fill="#ffffff" opacity="1.00" d=" M 132.41 91.61 C 138.09 89.25 146.68 93.14 145.80 100.04 C 144.36 108.70 130.47 109.64 127.12 101.87 C 125.16 97.68 128.24 92.84 132.41 91.61 M 133.40 96.48 C 132.18 97.09 130.85 98.50 131.58 99.96 C 133.51 103.39 140.17 103.15 141.04 99.04 C 140.34 95.81 135.96 95.15 133.40 96.48 Z" />
</g>
</svg>
