<?xml version="1.0" encoding="utf-8"?>
<!-- Generator: Adobe Illustrator 22.0.1, SVG Export Plug-In . SVG Version: 6.00 Build 0)  -->
<svg version="1.0" xmlns="http://www.w3.org/2000/svg" xmlns:xlink="http://www.w3.org/1999/xlink" x="0px" y="0px"
	 viewBox="0 0 177.3 241.9" style="enable-background:new 0 0 177.3 241.9;" xml:space="preserve">
<style type="text/css">
	.st0{display:none;}
	.st1{display:inline;fill:#FFFFFF;}
	.st2{fill:#FFFFFF;}
	.st3{clip-path:url(#SVGID_2_);fill:#242840;}
	.st4{clip-path:url(#SVGID_2_);fill:#242941;}
	.st5{clip-path:url(#SVGID_2_);fill:#252941;}
	.st6{clip-path:url(#SVGID_2_);fill:#252942;}
	.st7{clip-path:url(#SVGID_2_);fill:#252A42;}
	.st8{clip-path:url(#SVGID_2_);fill:#252A43;}
	.st9{clip-path:url(#SVGID_2_);fill:#262A43;}
	.st10{clip-path:url(#SVGID_2_);fill:#262B44;}
	.st11{clip-path:url(#SVGID_2_);fill:#272B45;}
	.st12{clip-path:url(#SVGID_2_);fill:#272C46;}
	.st13{clip-path:url(#SVGID_2_);fill:#272C47;}
	.st14{clip-path:url(#SVGID_2_);fill:#282D47;}
	.st15{clip-path:url(#SVGID_2_);fill:#282D48;}
	.st16{clip-path:url(#SVGID_2_);fill:#282E49;}
	.st17{clip-path:url(#SVGID_2_);fill:#292E49;}
	.st18{clip-path:url(#SVGID_2_);fill:#292E4A;}
	.st19{clip-path:url(#SVGID_2_);fill:#2A2F4B;}
	.st20{clip-path:url(#SVGID_2_);fill:#2A2F4C;}
	.st21{clip-path:url(#SVGID_2_);fill:#2A304D;}
	.st22{clip-path:url(#SVGID_2_);fill:#2B304D;}
	.st23{clip-path:url(#SVGID_2_);fill:#2B304E;}
	.st24{clip-path:url(#SVGID_2_);fill:#2B314E;}
	.st25{clip-path:url(#SVGID_2_);fill:#2B314F;}
	.st26{clip-path:url(#SVGID_2_);fill:#2C314F;}
	.st27{clip-path:url(#SVGID_2_);fill:#2C3250;}
	.st28{clip-path:url(#SVGID_2_);fill:#2C3251;}
	.st29{clip-path:url(#SVGID_2_);fill:#2D3352;}
	.st30{clip-path:url(#SVGID_2_);fill:#2D3353;}
	.st31{clip-path:url(#SVGID_2_);fill:#2D3453;}
	.st32{clip-path:url(#SVGID_2_);fill:#2E3454;}
	.st33{clip-path:url(#SVGID_2_);fill:#2E3555;}
	.st34{clip-path:url(#SVGID_2_);fill:#2E3556;}
	.st35{clip-path:url(#SVGID_2_);fill:#2F3556;}
	.st36{clip-path:url(#SVGID_2_);fill:#2F3657;}
	.st37{clip-path:url(#SVGID_2_);fill:#2F3658;}
	.st38{clip-path:url(#SVGID_2_);fill:#303658;}
	.st39{clip-path:url(#SVGID_2_);fill:#303759;}
	.st40{clip-path:url(#SVGID_2_);fill:#30375A;}
	.st41{clip-path:url(#SVGID_2_);fill:#31385B;}
	.st42{clip-path:url(#SVGID_2_);fill:#31385C;}
	.st43{clip-path:url(#SVGID_2_);fill:#31395C;}
	.st44{clip-path:url(#SVGID_2_);fill:#32395D;}
	.st45{clip-path:url(#SVGID_2_);fill:#323A5E;}
	.st46{clip-path:url(#SVGID_2_);fill:#323A5F;}
	.st47{clip-path:url(#SVGID_2_);fill:#333A5F;}
	.st48{clip-path:url(#SVGID_2_);fill:#333A60;}
	.st49{clip-path:url(#SVGID_2_);fill:#333B60;}
	.st50{clip-path:url(#SVGID_2_);fill:#333B61;}
	.st51{clip-path:url(#SVGID_2_);fill:#333B62;}
	.st52{clip-path:url(#SVGID_2_);fill:#343C62;}
	.st53{clip-path:url(#SVGID_2_);fill:#343C63;}
	.st54{clip-path:url(#SVGID_2_);fill:#343D64;}
	.st55{clip-path:url(#SVGID_2_);fill:#353D64;}
	.st56{clip-path:url(#SVGID_2_);fill:#353D65;}
	.st57{clip-path:url(#SVGID_2_);fill:#353D66;}
	.st58{clip-path:url(#SVGID_2_);fill:#353E66;}
	.st59{clip-path:url(#SVGID_2_);fill:#353E67;}
	.st60{clip-path:url(#SVGID_2_);fill:#363E67;}
	.st61{clip-path:url(#SVGID_2_);fill:#363F68;}
	.st62{clip-path:url(#SVGID_2_);fill:#363F69;}
	.st63{clip-path:url(#SVGID_2_);fill:#36406A;}
	.st64{clip-path:url(#SVGID_2_);fill:#37406A;}
	.st65{clip-path:url(#SVGID_2_);fill:#37406B;}
	.st66{clip-path:url(#SVGID_2_);fill:#37416C;}
	.st67{clip-path:url(#SVGID_2_);fill:#37416D;}
	.st68{clip-path:url(#SVGID_2_);fill:#38416D;}
	.st69{clip-path:url(#SVGID_2_);fill:#38426E;}
	.st70{clip-path:url(#SVGID_2_);fill:#38426F;}
	.st71{clip-path:url(#SVGID_2_);fill:#394370;}
	.st72{clip-path:url(#SVGID_2_);fill:#394371;}
	.st73{clip-path:url(#SVGID_2_);fill:#394372;}
	.st74{clip-path:url(#SVGID_2_);fill:#394472;}
	.st75{clip-path:url(#SVGID_2_);fill:#394473;}
	.st76{clip-path:url(#SVGID_2_);fill:#3A4473;}
	.st77{clip-path:url(#SVGID_2_);fill:#3A4574;}
	.st78{clip-path:url(#SVGID_2_);fill:#3A4575;}
	.st79{clip-path:url(#SVGID_2_);fill:#3A4576;}
	.st80{clip-path:url(#SVGID_2_);fill:#3A4676;}
	.st81{fill:#0C182E;}
	.st82{fill:#F7DB1C;}
	.st83{fill:#48C5E0;}
	.st84{fill:#E9952F;}
</style>
<g id="outline">
	<g id="bg_copy" class="st0">
		<path class="st1" d="M6.5,132.3c-0.8,0-1.6-0.2-2.3-0.7l-32.4-22.7h-47.6l-32.4,22.7c-0.7,0.5-1.5,0.7-2.3,0.7
			c-0.6,0-1.3-0.1-1.8-0.5c-1.3-0.7-2.2-2.1-2.2-3.5V20.2c0-1.1,0.4-2.1,1.2-2.8l58.5-59.2c0.8-0.8,1.8-1.2,2.8-1.2
			c1.1,0,2.1,0.4,2.8,1.2L9.3,17.4c0.7,0.7,1.2,1.8,1.2,2.8v108.1c0,1.5-0.8,2.9-2.2,3.5C7.8,132.2,7.1,132.3,6.5,132.3z"/>
		<polygon class="st1" points="6.5,20.2 -52,-39 -110.5,20.2 -110.5,128.3 -77.1,104.9 -26.9,104.9 6.5,128.3 		"/>
	</g>
	<g id="man1_line_out_copy">
		<g id="man2_copy_2">
			<g>
				<path class="st2" d="M74.6,218.6l-4.9,0.6l-1-2.5c-1-2.6-2.1-4.8-2.6-5.6c-2.6-1.4-10.3-6.2-14.9-9.1l-1.1-0.7l-9.9-31.7
					l2.1-5.4c-0.6-0.5-1.2-1.1-1.7-1.6c-0.3,0-0.6,0-0.9,0c-8.1,0-14.4-4.5-14.4-10.3c0-1.8,0.6-3.5,1.7-5
					c-3-3.8-8.3-11.4-11.3-20.4l-1-3l10.6-6.7c-4-3.5-7-7.5-9-11.8l-0.8-1.8l3.4-6.5c1.2-2.3,3.5-3.7,6.1-3.7c1.7,0,4.4,0,5.9,0
					l0.6,0c0.4,0,1.1,0,5.2,0.8l-0.2-11.6L50.8,82l2.4,3.4L52.9,83c-1.2-8.7,2.9-15.5,5.5-18.8l-3.8-6.8l0.2-11.5l2.3-5l2.2-7.9
					l10-3.8L79.9,28l10.7,3l10.2,19.6c1.7,0.6,4.3,1.8,7.4,3.9c0.2-0.2,0.5-0.3,0.7-0.5l1.8-1.2l2,0.9c0.5,0.2,11.2,5.1,12.4,24.5
					l0.3,4.5l-6-0.3l-2.8,4.6c2.3-0.7,4.9-1.5,7.8-2.1l3.5-4l2.5,0.8c1.5,0.5,6.4,2.2,8.8,4.7l1.4,1.5l-1.7,10.6
					c2.5-0.2,4.2-0.3,5.2-0.3c0.4,0,0.6,0,0.8,0c1.2,0.1,4.5,0.5,6.3,0.7c2.6,0.3,4.8,1.9,5.7,4.3l2.7,6.9l-1,1.7
					c-10.3,17.4-35.2,20.5-36.2,20.6l-2.6,0.3l-6-9.9l-0.2-11.4c-6.2,1.8-12.6,4.5-14.8,5.5l-6.2,10.3l6.8,0.5l0.6,0.3
					c6.7,3.2,14.4,6.8,15.4,7.2c0.7,0.2,1.9,0.8,14.7,10.6l1.2,0.9l1.5,12.4c4.9,5.5,5.2,6.3,5.2,7.6c0,0.5-0.8,17.4-1.3,27.4
					l-0.1,1.3l-13.5,14.1l-11.3,2.5l-6.7,7.4l-10.8,0.7l-3.4,2.5L74.6,218.6z M45.4,134.3l5-4.3l-0.4-0.1c-0.2,0-3.1-0.7-7.2-2.3
					L45.4,134.3z M91.5,127l-0.4-0.1c0,0,0,0.1,0,0.1L91.5,127z"/>
			</g>
			<g>
				<path class="st2" d="M155,103.7c-0.7-1.7-2.2-2.9-4-3.1c-1.9-0.2-5.2-0.5-6.4-0.7c-0.1,0-0.3,0-0.6,0c-1.3,0-4.3,0.2-8.8,0.7
					l0.2-2.5l1.4,0.3l1.6-10l-0.7-0.7c-2.1-2.2-7-3.9-7.9-4.2l-1.3-0.4l-3,3.5c-5.5,1.3-10.2,2.8-13.4,4l6.2-10.3l4.9,0.2l-0.1-2.2
					C122,60.1,112.4,55.6,112,55.4l-1-0.4l-0.9,0.6c-0.6,0.4-1.1,0.8-1.8,1.3c-3.9-2.8-7.1-4.1-8.9-4.7L89.2,32.7l-9.5-2.6
					l-10.1,1.1l-8.8,3.3l-2,7.1l-2.2,4.8l-0.1,10.6l4.2,7.5c-2.2,2.5-7.2,9.3-5.9,18.3l0.3,1.9l2-0.1c0,1.3,0,3,0.1,5.1
					c-2.3-1.2-4.3-2.1-5.2-2.4L49.8,84l-11.5,0.6l0.2,11.8h1.8l0,0.7c-7.7-1.6-8.7-1.6-9-1.6c0,0-0.6,0-0.6,0c-1.5,0-4.2,0-5.9,0
					c-1.8,0-3.5,1-4.3,2.6l-3,5.7l0.4,0.9c2.2,4.8,5.7,9.1,10.5,12.9L17,124.8l0.5,1.5c3.3,9.9,9.7,18.2,12.1,21.1
					c-1.5,1.4-2.3,3.1-2.3,4.9c0,4.7,5.4,8.3,12.4,8.3c0.5,0,1.1,0,1.7-0.1c1.1,1.1,2.2,2.1,3.3,3.1l-2.4,6l9.5,30.4l0.5,0.3
					c4.1,2.6,13.4,8.4,15.2,9.2c0.6,0.7,2.1,3.8,3.1,6.5l0.4,1l3.7-0.5l15.9,3.9l3.1-2.3l10.6-0.7l6.6-7.3l11.3-2.5l12.6-13.1l0-0.5
					c0.2-4.5,1.3-26.7,1.3-27.3c0-0.6,0-1.1-5.1-6.8l-1.5-12.2l-0.5-0.4c-12.6-9.6-13.8-10.2-14.2-10.3c-0.9-0.3-10.1-4.7-15.6-7.3
					l-0.2-0.1l-10.8-0.8c0.7-1.4,1.4-2.9,1.9-4.3c0,0,1.6,0.5,1.6,0.5l5.8-9.7c1.5-0.7,10.5-4.7,18.2-6.6l0.2,13.4l5,8.3l1.3-0.2
					c1-0.1,24.9-3.1,34.7-19.7l0.5-0.9L155,103.7z M72.7,91c0.2,1.6,0.4,4.1,0.1,6.8l-0.4-0.3c-0.5-2.2-0.7-4.6-0.8-6.6L72.7,91z
					 M39.1,123.9c6.1,2.8,11,4,11.3,4.1l1.3,0.3l5.9-7.8l1.5-12.1l1.9,0.8c0.3,0.9,0.6,1.7,1,2.5l0.7,3.3l-0.3,0.9l-1.2-0.3
					l-0.6,1.5c-0.4,1-0.8,2-1.2,3.1c-0.2,0.6-0.3,1.1-0.5,1.7c-0.1,0.6-0.3,1.2-0.2,2.1l0.1,1.2l0.2,0.1l-13.6,11.8
					c-0.3,0-0.6,0-1,0L39.1,123.9z"/>
			</g>
		</g>
	</g>
	<g id="bg_copy_2">
		<g>
			<path class="st2" d="M86.5,21.8L145,81v108.1l-33.4-23.4H61.4L28,189.1V81L86.5,21.8 M86.5,16.8c-1.3,0-2.6,0.5-3.6,1.5
				L24.4,77.4C23.5,78.4,23,79.6,23,81v108.1c0,1.9,1,3.6,2.7,4.4c0.7,0.4,1.5,0.6,2.3,0.6c1,0,2-0.3,2.9-0.9L63,170.7h47l32.1,22.5
				c0.9,0.6,1.9,0.9,2.9,0.9c0.8,0,1.6-0.2,2.3-0.6c1.7-0.9,2.7-2.6,2.7-4.4V81c0-1.3-0.5-2.6-1.4-3.5L90.1,18.3
				C89.1,17.3,87.8,16.8,86.5,16.8L86.5,16.8z"/>
		</g>
	</g>
</g>
<g id="bg">
	<g>
		<g>
			<defs>
				<polygon id="SVGID_1_" points="145,81 86.5,21.8 28,81 28,189.1 61.4,165.7 111.6,165.7 145,189.1 				"/>
			</defs>
			<clipPath id="SVGID_2_">
				<use xlink:href="#SVGID_1_"  style="overflow:visible;"/>
			</clipPath>
			<rect x="28" y="164.1" class="st3" width="117" height="25"/>
			<rect x="28" y="163" class="st3" width="117" height="1.2"/>
			<rect x="28" y="161.8" class="st3" width="117" height="1.2"/>
			<rect x="28" y="160.6" class="st4" width="117" height="1.2"/>
			<rect x="28" y="159.5" class="st5" width="117" height="1.2"/>
			<rect x="28" y="158.3" class="st6" width="117" height="1.2"/>
			<rect x="28" y="157.2" class="st7" width="117" height="1.2"/>
			<rect x="28" y="156" class="st8" width="117" height="1.2"/>
			<rect x="28" y="154.9" class="st9" width="117" height="1.2"/>
			<rect x="28" y="153.7" class="st10" width="117" height="1.2"/>
			<rect x="28" y="152.5" class="st10" width="117" height="1.2"/>
			<rect x="28" y="151.4" class="st11" width="117" height="1.2"/>
			<rect x="28" y="150.2" class="st12" width="117" height="1.2"/>
			<rect x="28" y="149.1" class="st12" width="117" height="1.2"/>
			<rect x="28" y="147.9" class="st13" width="117" height="1.2"/>
			<rect x="28" y="146.7" class="st14" width="117" height="1.2"/>
			<rect x="28" y="145.6" class="st15" width="117" height="1.2"/>
			<rect x="28" y="144.4" class="st15" width="117" height="1.2"/>
			<rect x="28" y="143.3" class="st16" width="117" height="1.2"/>
			<rect x="28" y="142.1" class="st17" width="117" height="1.2"/>
			<rect x="28" y="141" class="st18" width="117" height="1.2"/>
			<rect x="28" y="139.8" class="st18" width="117" height="1.2"/>
			<rect x="28" y="138.6" class="st19" width="117" height="1.2"/>
			<rect x="28" y="137.5" class="st20" width="117" height="1.2"/>
			<rect x="28" y="136.3" class="st20" width="117" height="1.2"/>
			<rect x="28" y="135.2" class="st21" width="117" height="1.2"/>
			<rect x="28" y="134" class="st22" width="117" height="1.2"/>
			<rect x="28" y="132.9" class="st23" width="117" height="1.2"/>
			<rect x="28" y="131.7" class="st24" width="117" height="1.2"/>
			<rect x="28" y="130.5" class="st25" width="117" height="1.2"/>
			<rect x="28" y="129.4" class="st26" width="117" height="1.2"/>
			<rect x="28" y="128.2" class="st27" width="117" height="1.2"/>
			<rect x="28" y="127.1" class="st27" width="117" height="1.2"/>
			<rect x="28" y="125.9" class="st28" width="117" height="1.2"/>
			<rect x="28" y="124.8" class="st29" width="117" height="1.2"/>
			<rect x="28" y="123.6" class="st29" width="117" height="1.2"/>
			<rect x="28" y="122.4" class="st30" width="117" height="1.2"/>
			<rect x="28" y="121.3" class="st31" width="117" height="1.2"/>
			<rect x="28" y="120.1" class="st32" width="117" height="1.2"/>
			<rect x="28" y="119" class="st32" width="117" height="1.2"/>
			<rect x="28" y="117.8" class="st33" width="117" height="1.2"/>
			<rect x="28" y="116.7" class="st34" width="117" height="1.2"/>
			<rect x="28" y="115.5" class="st35" width="117" height="1.2"/>
			<rect x="28" y="114.3" class="st36" width="117" height="1.2"/>
			<rect x="28" y="113.2" class="st36" width="117" height="1.2"/>
			<rect x="28" y="112" class="st37" width="117" height="1.2"/>
			<rect x="28" y="110.9" class="st38" width="117" height="1.2"/>
			<rect x="28" y="109.7" class="st39" width="117" height="1.2"/>
			<rect x="28" y="108.6" class="st39" width="117" height="1.2"/>
			<rect x="28" y="107.4" class="st40" width="117" height="1.2"/>
			<rect x="28" y="106.2" class="st41" width="117" height="1.2"/>
			<rect x="28" y="105.1" class="st41" width="117" height="1.2"/>
			<rect x="28" y="103.9" class="st42" width="117" height="1.2"/>
			<rect x="28" y="102.8" class="st43" width="117" height="1.2"/>
			<rect x="28" y="101.6" class="st44" width="117" height="1.2"/>
			<rect x="28" y="100.5" class="st44" width="117" height="1.2"/>
			<rect x="28" y="99.3" class="st45" width="117" height="1.2"/>
			<rect x="28" y="98.1" class="st46" width="117" height="1.2"/>
			<rect x="28" y="97" class="st47" width="117" height="1.2"/>
			<rect x="28" y="95.8" class="st48" width="117" height="1.2"/>
			<rect x="28" y="94.7" class="st49" width="117" height="1.2"/>
			<rect x="28" y="93.5" class="st50" width="117" height="1.2"/>
			<rect x="28" y="92.4" class="st51" width="117" height="1.2"/>
			<rect x="28" y="91.2" class="st52" width="117" height="1.2"/>
			<rect x="28" y="90" class="st53" width="117" height="1.2"/>
			<rect x="28" y="88.9" class="st53" width="117" height="1.2"/>
			<rect x="28" y="87.7" class="st54" width="117" height="1.2"/>
			<rect x="28" y="86.6" class="st55" width="117" height="1.2"/>
			<rect x="28" y="85.4" class="st56" width="117" height="1.2"/>
			<rect x="28" y="84.3" class="st57" width="117" height="1.2"/>
			<rect x="28" y="83.1" class="st58" width="117" height="1.2"/>
			<rect x="28" y="81.9" class="st59" width="117" height="1.2"/>
			<rect x="28" y="80.8" class="st60" width="117" height="1.2"/>
			<rect x="28" y="79.6" class="st61" width="117" height="1.2"/>
			<rect x="28" y="78.5" class="st61" width="117" height="1.2"/>
			<rect x="28" y="77.3" class="st62" width="117" height="1.2"/>
			<rect x="28" y="76.1" class="st63" width="117" height="1.2"/>
			<rect x="28" y="75" class="st64" width="117" height="1.2"/>
			<rect x="28" y="73.8" class="st65" width="117" height="1.2"/>
			<rect x="28" y="72.7" class="st65" width="117" height="1.2"/>
			<rect x="28" y="71.5" class="st66" width="117" height="1.2"/>
			<rect x="28" y="70.4" class="st67" width="117" height="1.2"/>
			<rect x="28" y="69.2" class="st68" width="117" height="1.2"/>
			<rect x="28" y="68" class="st69" width="117" height="1.2"/>
			<rect x="28" y="66.9" class="st69" width="117" height="1.2"/>
			<rect x="28" y="65.7" class="st70" width="117" height="1.2"/>
			<rect x="28" y="64.6" class="st70" width="117" height="1.2"/>
			<rect x="28" y="63.4" class="st71" width="117" height="1.2"/>
			<rect x="28" y="62.3" class="st72" width="117" height="1.2"/>
			<rect x="28" y="61.1" class="st72" width="117" height="1.2"/>
			<rect x="28" y="59.9" class="st73" width="117" height="1.2"/>
			<rect x="28" y="58.8" class="st74" width="117" height="1.2"/>
			<rect x="28" y="57.6" class="st75" width="117" height="1.2"/>
			<rect x="28" y="56.5" class="st76" width="117" height="1.2"/>
			<rect x="28" y="55.3" class="st77" width="117" height="1.2"/>
			<rect x="28" y="54.2" class="st78" width="117" height="1.2"/>
			<rect x="28" y="53" class="st78" width="117" height="1.2"/>
			<rect x="28" y="51.8" class="st79" width="117" height="1.2"/>
			<rect x="28" y="50.7" class="st80" width="117" height="1.2"/>
			<rect x="28" y="21.8" class="st80" width="117" height="28.9"/>
		</g>
	</g>
</g>
<g id="galaxy">
	<g>
		<polygon class="st2" points="99.7,37.9 100.8,41.1 104,42.2 100.8,43.3 99.7,46.4 98.6,43.3 95.5,42.2 98.6,41.1 		"/>
	</g>
	<g>
		<polygon class="st2" points="47.2,65.4 48.3,68.6 51.5,69.7 48.3,70.8 47.2,73.9 46.1,70.8 43,69.7 46.1,68.6 		"/>
	</g>
	<g>
		<polygon class="st2" points="33.7,81.5 34.4,83.4 36.2,84 34.4,84.7 33.7,86.5 33.1,84.7 31.2,84 33.1,83.4 		"/>
	</g>
	<g>
		<polygon class="st2" points="33.6,169.4 34.2,171.2 36.1,171.9 34.2,172.5 33.6,174.4 32.9,172.5 31.1,171.9 32.9,171.2 		"/>
	</g>
	<g>
		<polygon class="st2" points="141.2,156.1 142.1,158.7 144.7,159.6 142.1,160.5 141.2,163.1 140.2,160.5 137.6,159.6 140.2,158.7 
					"/>
	</g>
	<g>
		<polygon class="st2" points="131.8,73.6 132.5,75.5 134.3,76.1 132.5,76.8 131.8,78.6 131.2,76.8 129.3,76.1 131.2,75.5 		"/>
	</g>
	<g>
		<polygon class="st2" points="49.2,77.8 49.7,79.2 51.2,79.7 49.7,80.2 49.2,81.6 48.7,80.2 47.3,79.7 48.7,79.2 		"/>
	</g>
	<g>
		<polygon class="st2" points="108.5,115.4 109,116.8 110.4,117.3 109,117.8 108.5,119.2 108,117.8 106.6,117.3 108,116.8 		"/>
	</g>
	<g>
		<polygon class="st2" points="131.5,139.9 132,141.3 133.4,141.8 132,142.3 131.5,143.7 131,142.3 129.6,141.8 131,141.3 		"/>
	</g>
	<g>
		<polygon class="st2" points="102.6,118.3 103.7,121.3 106.6,122.3 103.7,123.4 102.6,126.4 101.5,123.4 98.6,122.3 101.5,121.3 		
			"/>
	</g>
</g>
<g id="Layer_10">
	<g>
		<polygon class="st2" points="62.7,137.4 55.7,139.9 49.8,152.6 46.7,164.8 44.7,169.6 53,198.8 69.2,208.8 72.7,215.6 75.3,214.6 
			90.8,219.4 93.5,216.3 103.8,215.9 110.5,208.6 121.3,206.6 133.5,193.1 134.5,166.3 129.3,159.8 127.8,148.4 111.7,137.1 
			98.7,130.9 85,129.4 		"/>
	</g>
</g>
<g id="aster">
	<g>
		<g>
			<path class="st81" d="M90.6,220.5l-15.9-3.9l-3.7,0.5l-0.4-1c-1-2.6-2.5-5.8-3.1-6.5c-1.9-0.9-11.2-6.7-15.2-9.2l-0.5-0.3
				l-9.5-30.4l6-15.4l7.5-14.7l13.5-12.2l29.7,2.2l0.2,0.1c5.6,2.7,14.7,7,15.6,7.3c0.4,0.1,1.6,0.7,14.2,10.3l0.5,0.4l1.5,12.2
				c5.1,5.7,5.1,6.2,5.1,6.8c0,0.5-1.1,22.8-1.3,27.3l0,0.5l-12.6,13.1l-11.3,2.5l-6.6,7.3l-10.6,0.7L90.6,220.5z M74.9,213.7
				l15.1,3.7l2.7-2l10.3-0.7l6.4-7.1l11.4-2.5l11.2-11.7c0.3-7.2,1.1-23.7,1.2-26.3c-0.6-0.9-2.8-3.4-4.7-5.5l-0.3-0.3l-1.4-11.9
				c-5.7-4.4-12-9.1-12.9-9.5c-1.5-0.6-9.2-4.2-15.7-7.3l-27.9-2.1l-12.1,11l-7.2,14.2l-5.6,14.2l8.9,28.4
				c5.3,3.3,13.5,8.4,14.4,8.8c0.4,0.1,1.6,0.5,4.2,7L74.9,213.7z M67.6,209.6C67.6,209.6,67.6,209.6,67.6,209.6
				C67.6,209.6,67.6,209.6,67.6,209.6z M113.9,139.7c0,0,0.1,0,0.2,0.1C114,139.7,114,139.7,113.9,139.7z M113.9,139.7
				C113.9,139.7,113.9,139.7,113.9,139.7S113.9,139.7,113.9,139.7z"/>
		</g>
	</g>
	<g>
		<path class="st81" d="M114.7,188.9c-1.8,0.4-8.9,1.1-8.9,1.1s-15-7-16.5-9.1c-1.4-2.1-7.6-10-9.7-14.6l-2.5,0.8l-2.6,2.2l0.9-2
			l2.4-2.3l1.8-1.7l6.4,2.2c0,0,5.9-5.2,6.4-5.4s9.7-1.4,9.7-1.4l-10.3-0.2c0,0-5.9,3.6-6.4,4c-0.5,0.4-7.2-1.7-7.2-1.7l-2.3,2.4
			l-3.5-0.5l-1.9,1.9c-1.3-0.4-3.4-1.2-5.4-3.1c-0.9-0.9-3.3-3.2-3.3-6.4c0-0.9,0.2-1.7,0.4-2.1c0.8-2.6,2.6-4.1,3.1-4.6
			c1.5-1.2,3.3-1.9,5.3-2c1.7-0.1,3.3,0.1,4.9,0.6c5.4,1.8,14.3,4.6,14.3,4.6l3.5-1.1c0,0,5.2,1.4,7,0.7c1.8-0.7,16.1-1,16.5-1.9
			c0.4-1,0.7-2.2,0.7-2.2s-6.7-4.1-7.3-5s-1.9-2.6-1.9-2.6l-13.2-4.3L79.5,134l-10.8,1.3l-7.7,4.1l-0.2,0.2
			c-2.5-0.3-5.1-0.1-5.1-0.1l-3.4,10.6l1.7,1.7c-0.5,2.5-1,4.8-1,4.8s0,0.7-0.1,1.5l-3.7-2.2l-5.5,13.8c0,0,2.9,2.6,3.8,3.8
			c0.8,1.2,11.1,25,11.1,25s12.6,7.1,13.5,8.1c0.8,1,2.6,4.8,2.6,4.8l13.9,3.7l3.8-2.8l8.5,0.1c0,0,4.8-6.5,5.3-6.7
			c0.5-0.2,13.1-4.1,13.1-4.1s8.7-10.8,9-11.8c0.4-1,1-18.1,1-18.1S116.5,188.5,114.7,188.9z M109.5,187.4c3.6-0.5,6.4-2.6,6.1-4.7
			c-0.3-2.1-3.5-3.3-7.1-2.8c-0.6,0.1-1.2,0.2-1.7,0.4c0.1-0.2,0.2-0.5,0.1-0.8c-0.2-1.1-1.8-1.8-3.6-1.6c-1.8,0.3-3.1,1.4-3,2.5
			c0.1,1,1.5,1.7,3.2,1.6c-0.8,0.8-1.2,1.7-1.1,2.6C102.7,186.7,105.8,187.9,109.5,187.4z M65.6,157.1c-0.7,1.2,0.1,2.9,1.8,3.8
			c1.7,0.9,3.5,0.7,4.2-0.4c0.7-1.2-0.1-2.9-1.8-3.8C68.1,155.7,66.3,155.9,65.6,157.1z"/>
	</g>
</g>
<g id="Layer_16">
	<g>
		<path class="st2" d="M61.3,177.1l-3.2,2l-5.2-3.8l6.2,10.2l1.2-4.5l8-1.2L61.3,177.1z M94.6,198.5l-11.4-7.8L83,187l-6.3-4.1
			l3.8,7.1l-1.8,2.8L94.6,198.5z M67.6,188.5l-3.1,1.2l1.1,9.6l1.6-8.3l4.3-2.5l-0.6-7.5L67.6,188.5z"/>
	</g>
</g>
<g id="man2">
	<g>
		<path class="st82" d="M152,102.9l-8.4-0.9l-10.5,1l0.8-7.3L135,96l1-7.4l-6.6-3.6l-4,4.4l-17.3,4.4l9.1-15.7h4.3l-3.9-14.5
			l-6.3-6.8l-2.9,2.3l-5.9-3.5l-4.6-2.3l-9.6-19l-8.6-2.3L70.3,33l-6.1,2.4l0,0.2c-0.7,0.4-1.7,1.1-1.7,1.1l-1.5,5.3l-2.3,5.3
			l0.2,9.6l4.7,8.3l-4,4.7l-2.3,6.5l0.1,5.9l1.8,0.4l0.3,9.8l-8.6-3.8l-2.5-2.9l-7.4,0.7l-0.2,7.8l2.3,0.5l-0.7,4.6l-9.4-1.8
			l-9.4,0.1l-3.5,6.1l3.2,4.3l8.5,9.9l-11.9,7.4l3.4,8.7l9.1,13.3l-3,3.5l0.8,4.3l4.7,3l7.6,0.7l15.1,11.9c0,0,13.8,8.3,14.5,8.3
			s3.3-0.5,3.3-0.5L64.5,167l-11.7-16.2l2.8-4.3l0.2-3l7.1-7.7l3.4,1.7l5.3-0.8l1.4-1.4l11.9-4.5l3.8-8.8l2.5,0.3c0,0,4.2-7,6-9.9
			l20.1-6.6l1,13.9l2.3,3.4l20.1-8.4l13.6-8L152,102.9z M47.8,137.9l-3.7,1.3l-1.8-1.2l-6.8-17.5l16,5.2l4.1-6.9l2.8-18.2l2.1-2.4
			l1.7,8.3l3.5,9.1l-2,2.4h-1.6l-1,5.8l3.1,2.1l0.5,2.4c-1.2-1.2-2.7-2.5-2.7-2.5L47.8,137.9z M72.1,104l-2.8-4L68,89.3l1.3-1.5
			l2,0.3l0.5,0.3c0.2,0.4,0.4,0.6,0.4,0.6l2.8,0.5l0.1,5.9l-1.5,7c0,0,0.2,0.2,0.4,0.5L72.1,104z"/>
	</g>
	<g>
		<path class="st82" d="M125.7,115.2l5.5,11l3.3-0.1l-6.4-12.8C127.3,113.8,126.5,114.5,125.7,115.2z M120.1,120.6l3.5,7.1l3.6,0.6
			l-4.9-9.9C121.5,119.2,120.7,120,120.1,120.6z M150.2,107.3C150.2,107.3,150.2,107.3,150.2,107.3c-0.5-0.1-1.6,0-3.2,0.2l3.6,7.2
			l2.9-0.9L150.2,107.3z M132,111l6.1,12.1l3.3-0.1l-6.5-12.9C133.8,110.4,132.8,110.7,132,111z M139.3,109l5.4,10.8l2.9-0.9
			l-5.3-10.5C141.4,108.6,140.4,108.8,139.3,109z M32.7,104.2l-6.2,10l2.8,1.2l6.4-10.2C34.7,104.8,33.7,104.5,32.7,104.2z
			 M40,106.6l-7.6,12.3l3.3,0.4l7.2-11.5C42,107.4,41,107,40,106.6z M25.1,102.4C25,102.4,25,102.4,25.1,102.4l-3.9,6.2l2.8,1.2
			l4.3-6.8C26.6,102.6,25.5,102.4,25.1,102.4z M46.5,110.4l-7.6,12.2l3.3,0.4l6.5-10.4C47.9,111.7,47.2,111,46.5,110.4z M46,125.4
			l3.7-0.2l4.2-6.7c-0.6-0.7-1.3-1.5-2-2.4L46,125.4z"/>
	</g>
	<g id="Layer_19">
		<g>
			<path class="st83" d="M52.8,150.9l2.8-4.3l0.2-3l6.6-7.2l3.5-5.2c0,0,0.1-2.7-0.3-3.3c-0.1-0.2-0.7-0.8-1.4-1.4l0.3,1.7
				c-1.2-1.2-2.7-2.5-2.7-2.5l-14,12.1l-3.7,1.3l-1.8-1.2l-2.8-7.3l-0.3-0.3l-5.5-14l-13.9,9.1l3.3,8.3l9.1,13.3l-2.2,2.5
				c-0.2,0.6-0.4,1.3-0.6,2l0.6,2.8c0.8,0.6,1.9,1.3,1.9,1.3l-0.6-2.9l2.2-3.5l5.3-1.1l6.3,1.7l2.4,2.3c0,0-1.3,3.5-1.3,4.1
				s-8.5,0.6-8.5,0.6l-0.3,1.3l4.8,0.4l15.1,11.9c0,0,13.8,8.3,14.5,8.3s3.3-0.5,3.3-0.5L64.5,167L52.8,150.9z M129.4,85l-2,2.2
				l-6.8,7.8l0.8,1.3l6.3-1.5c0,0,3.2,0.8,6.1,1.4l0-0.4L135,96l1-7.4L129.4,85z M42.7,95.7c2.1,0,4.9,0,4.9,0l8,3l0.2-3L52,89.2
				l-1.3-0.6l-2.5-2.9l-7.4,0.7l-0.2,7.8l2.3,0.5L42.7,95.7z M117.5,63.7l-6.1-6.6l-0.8,0.4l-0.9,0.7l-6.6,6.3l-6.3,9.7l5,3.7
				l15.1,0.8l0.3-0.5h4.3L117.5,63.7z M96,49.8l-2.2-4.3c-0.4,2.3-1.3,5.5-3.8,2.6c-3.7-4.2-2-7.7-2-7.7s2.5,0.3,3,0.3
				c0.2,0,0.1-0.4-0.1-1l-2.7-5.4l-8.6-2.3L70.3,33l-6.1,2.4l0,0.2c-0.7,0.4-1.7,1.1-1.7,1.1l-1.5,5.3l-2.3,5.3l0.2,9.6l4.7,8.3
				l-0.7,0.8l4.5,6.9c0,0,7.7,2.8,8.2,2.8l10.8-4.2l7.8-6.7l3.3-10.7L96,49.8z M59,82.8c3.2-0.4,6.9-0.9,7.4-0.8l0.5-5.7l-1.2-4.2
				l-3.8-5.3l-2.5,2.9l-2.3,6.5l0.1,5.9l1.8,0.4L59,82.8z"/>
		</g>
	</g>
	<g id="Layer_20">
		<g>
			<path class="st2" d="M98.6,89l-2.9,5.3l3.4-0.3l3.7,2.1l1.5,3.5l3.3-5.8l-2.3-6.8L98.6,89z M77.4,47.2l-2.8-1.1l-2,8.1l-2.1,2.7
				l-5.2,0.3c-0.2-0.1-3.8-2.4-3.8-2.4l-0.9,2.5l1.9,5.8c0,0,0.9,2.5,2.3,2.5s11.3-1,11.3-1s3.3-5.1,3.4-5.4s2.3-5.3,1.9-5.6
				S77.4,47.2,77.4,47.2z"/>
		</g>
		<g>
			<path class="st2" d="M122.3,117.1l-3.8,4l3.6,7.6l5.8,0.1l8.1-2.4c0,0,6.7-3.7,6.9-3.7s6.3-4.5,6.3-4.5l5.3-4.6l-3.5-7.4
				c0,0-10.7,1.4-11,1.5c-0.3,0.1-10.8,3.3-10.8,3.3L122.3,117.1z"/>
		</g>
		<g>
			<path class="st2" d="M28.1,116.1l-2.8-2.3l-4.5-5l-1.5-2.3l5.2-4.8l9.5,1.8l10.6,3.6l10.6,11.5c0,0-3.7,6.7-3.8,6.9
				c-0.1,0.3-5.5,0.5-5.5,0.5l-7.5-2.8l-4.1-7.6l-5,1.1L28.1,116.1z"/>
		</g>
	</g>
	<g id="Layer_23">
		<g>
			<path class="st84" d="M68.7,83.3c0,0,10.5,0.5,12.8,0.3s13-10.8,13-10.8L96,61.5L87.2,71l-11.8,4.6l-8.9-1.8L68.7,83.3z"/>
		</g>
		<g>
			<path class="st84" d="M64.1,90.3c0,0,0,13.5,5.5,19.7l-5.7,2.3l-3.7-8.3l-1.7-19.7l4.8,1.2L64.1,90.3z"/>
		</g>
		<g>
			<polygon class="st84" points="74.4,89.8 74.2,103.4 83.2,102.3 88.4,95.1 86.6,88.9 			"/>
		</g>
		<g>
			<path class="st84" d="M82.5,118.8c0,0,17.8-34,18.5-34.5s5.8,0.8,7.5,0.8s5.8-1,5.8-1l0.3-3.5L98,78l-17.5,36.5L82.5,118.8z"/>
		</g>
		<g>
			<path class="st84" d="M84.4,113.9v2.7c0,0,4.5,3.7,7.1,3.3l0.9-0.7l-6.3-3.6v-3.2l-2-0.1L84.4,113.9z"/>
		</g>
		<g>
			<path class="st84" d="M117.7,108.4l6.2-4.2l2,2.2c0,0,5.3-0.5,6.5-0.5c1.2,0,3.7,2.2,3.7,2.2l-6.2,2.2l-11.4,10.8L117.7,108.4z"
				/>
		</g>
		<g>
			<path class="st84" d="M118.6,90.9c-1.2,1.5-0.3,2.5,0.3,2.5c0.7,0,3.2-0.7,3.2-0.7l-1.5,2.2l0.8,1.3l5.5-1.3l-2.2,6.7l-6.8,4
				l-7.3,3l-0.2-10.3l6.3-8L118.6,90.9z"/>
		</g>
		<g>
			<path class="st84" d="M45.6,105.4c1.3,1,8.3,8.3,8.3,8.3l1.2-8.8l-3.8-3.7l-2.5,2.8L45.6,105.4z"/>
		</g>
		<g>
			<path class="st84" d="M65.6,124.3c0,0,5,1.5,5.5,1.8c0.5,0.3,1.2,1.8,2.2,2.3c1,0.5,13-1.8,13-1.8l-1.7,5.3l-13.1,5l-3.1,1.4
				l-6-1l3.2-4.7V124.3z"/>
		</g>
		<g>
			<ellipse class="st84" cx="39.7" cy="153.3" rx="8.1" ry="4.6"/>
		</g>
		<g>
			<path class="st84" d="M94.5,72.8c0,0,2.5-5.9,2.8-7.6c0.3-1.7,1.8-10.9,1.8-10.9l-1.6-0.2l-4.4,13L94.5,72.8z"/>
		</g>
		<g>
			<polygon class="st84" points="124.6,97.4 127.7,96.9 133.4,98.3 133.9,95.8 127.7,94.8 124.1,95.4 			"/>
		</g>
		<g>
			<path class="st84" d="M63.7,119.9l-0.8,2.4c0,0,5.1,1.5,5.9,1.9c0,0-0.5-0.9-1.2-1.4s-2.7-1.2-2.3-2.6L63.7,119.9z"/>
		</g>
	</g>
</g>
<g id="man1">
	<g>
		<g>
			<path class="st81" d="M68,74.8l8.3,2.6l8-3.4c0,0,8.6-5.5,9.7-7.3c1.1-1.8,4.1-11.8,4.1-11.8L97,56.4l-5.7,10.7l-8.9,5.3
				l-6.2,2.5l-3.4-1l-5.4-1.1L68,74.8z"/>
		</g>
	</g>
	<g>
		<g>
			<path class="st81" d="M79,114.8c0,0,0,1.8,0.1,2.5c0.1,0.7,1,4.9,2.2,6.1c1.2,1.2,6.4,1.6,6.4,1.6l1.1-2.7l-6.1-3.2l-1.6-3.4
				l-0.4-1.9L79,114.8z"/>
		</g>
	</g>
	<g>
		<g>
			<path class="st81" d="M48,101.2l-5.7-1.7c0,0-0.1-4.6,0.1-4.7c0.3-0.1,5.9-0.1,5.9-0.1l7.5,3c0,0-0.1-2-0.3-2.4
				c-0.3-0.3-3.1-5.5-3.1-5.5l5.5,2.6c0,0,0.3,3.3,0.6,3.5c0.3,0.1,1.8,11.5,1.8,11.5l-2.9-1.7l-1.3-1.7c0,0-3.7-4.4-3.9-4.5
				C51.9,99.2,48,101.2,48,101.2z"/>
		</g>
	</g>
	<g>
		<g>
			<g>
				<path class="st81" d="M76,76.2l-9-2.6l-9.5-16.9l0.1-10.1l2.1-4.7l1.8-6.6l8.3-3.1l9.8-1.1l8.9,2.5l9.9,19l0,0.3
					C96.7,68,81.8,74.1,81.2,74.3L76,76.2z M68.4,72l7.6,2.2l4.6-2c0,0,14.2-5.5,15.9-19.3l-9.3-17.8L79.5,33l-9.1,1l-7.1,2.6
					l-1.7,6.1l-1.9,4.3l-0.1,9.1L68.4,72z"/>
			</g>
		</g>
	</g>
	<g>
		<g>
			<g>
				<path class="st81" d="M70.6,133c-0.8-1.1-1.3-2.3-1.8-3.4c-0.2-0.6-0.4-1.2-0.7-1.7c0-0.1-0.1-0.1-0.1-0.2
					c0-0.1-0.1-0.1-0.1-0.1c0,0,0,0,0,0l-0.1-0.1c-0.1,0-0.2-0.1-0.3-0.2c-0.1-0.1-0.2-0.1-0.4-0.2c-1-0.5-2.2-0.9-3.4-1.3
					c-0.6-0.2-1.2-0.4-1.8-0.6c-0.6-0.2-1.2-0.4-1.8-0.6l0,0l-0.7-0.3l0-0.6c-0.1-0.8,0.1-1.3,0.2-1.9c0.1-0.5,0.3-1.1,0.4-1.6
					c0.3-1,0.7-2,1.1-3l0.3-0.7l0.8,0.2c1.5,0.3,3.2,0.7,4.7,0.8c0.4,0,0.7,0,1.1,0c0.4,0,0.7-0.1,1.1-0.2c0.8-0.2,1.5-0.4,2.3-0.6
					c0.7-0.2,1.5-0.5,2.1-0.8c0.2-0.1,0.3-0.2,0.4-0.2l0.5-0.3l1-0.7c0.3-0.3,0.7-0.5,1-0.8c0.2-0.1,0.4-0.3,0.7-0.4
					c0.1-0.1,0.5-0.1,0.6-0.1c0.2,0,0.3,0,0.4,0c0.9,0.1,1.7,0.3,2.5,0.5l-0.5,1.9c-0.7-0.2-1.6-0.4-2.3-0.5c-0.1,0-0.2,0-0.2,0
					c0,0,0.1,0,0,0c-0.1,0-0.2,0.1-0.4,0.2c-0.3,0.2-0.6,0.4-0.9,0.7l-1,0.8l-0.5,0.4c-0.2,0.1-0.4,0.3-0.6,0.4
					c-0.8,0.4-1.6,0.7-2.4,1c-0.8,0.3-1.6,0.5-2.5,0.7c-0.4,0.1-0.9,0.2-1.3,0.2c-0.2,0-0.5,0-0.7,0c-0.2,0-0.5,0-0.7,0
					c-1.7-0.2-3.3-0.5-5-0.8l1.1-0.6c-0.4,0.9-0.8,1.9-1.1,2.8c-0.2,0.5-0.3,0.9-0.4,1.4c-0.1,0.4-0.2,0.9-0.1,1.2l-0.7-0.8l0,0
					c1.3,0.3,2.5,0.6,3.7,1c1.2,0.4,2.4,0.8,3.6,1.5c0.1,0.1,0.3,0.2,0.5,0.3c0.2,0.1,0.3,0.2,0.5,0.3l0.2,0.2
					c0.1,0.1,0.2,0.2,0.3,0.4c0.1,0.2,0.1,0.2,0.2,0.3c0,0.1,0.1,0.2,0.1,0.3c0.2,0.7,0.4,1.3,0.5,1.9
					C70.7,130.4,70.8,131.7,70.6,133z"/>
			</g>
		</g>
	</g>
	<g>
		<g>
			<g>
				<path class="st81" d="M118.6,122.1l-1.5-1.4c0.3-0.3,7.9-8.3,11.9-10.6c3.9-2.3,20-5.5,22-4.8c1.5,0.6,4.5,3,4.8,3.3l-1.3,1.6
					c-1.2-1-3.4-2.6-4.3-3c-1.6-0.3-16.5,2.5-20.1,4.6C126.3,114.1,118.7,122.1,118.6,122.1z"/>
			</g>
		</g>
	</g>
	<g>
		<g>
			<g>
				<path class="st81" d="M91.1,123.7l-0.7-0.2c-1.2-0.4-7.4-2.3-8.8-4.1c-1.6-1.9-1.7-5.2-1.7-5.4l0-0.3L99,76.1l1.7,0.9
					l-18.9,37.2c0.1,0.9,0.4,2.9,1.2,3.9c0.7,0.9,4.4,2.4,7.2,3.3l25.5-42.6l2.1,0.4L91.1,123.7z"/>
			</g>
		</g>
	</g>
	<g>
		<g>
			<g>
				<path class="st81" d="M96.8,114.4l0-2.3c0.5-0.2,11.4-5.3,20.7-7.1l0.4,2C108.8,108.8,96.9,114.3,96.8,114.4z"/>
			</g>
		</g>
	</g>
	<g>
		<g>
			<g>
				<path class="st81" d="M108.6,95.3l-0.9-1.9c0.3-0.1,8-3.6,18.6-5.9l0.1,2.1C116,91.9,108.7,95.2,108.6,95.3z"/>
			</g>
		</g>
	</g>
	<g>
		<g>
			<g>
				
					<rect x="129.9" y="98.3" transform="matrix(8.123607e-02 -0.9967 0.9967 8.123607e-02 23.4221 224.168)" class="st81" width="6.8" height="2.1"/>
			</g>
		</g>
	</g>
	<g>
		<g>
			<g>
				<path class="st81" d="M57.4,99.7l-10.7-4.3h-7.3l-0.1-9.8l10-0.5l7,9.8L57.4,99.7z M41.5,93.3h5.6l7.4,3l-0.1-0.6l-6.1-8.5
					l-6.8,0.3L41.5,93.3z"/>
			</g>
		</g>
	</g>
	<g>
		<g>
			<g>
				
					<rect x="41.3" y="94.2" transform="matrix(0.9992 -4.077757e-02 4.077757e-02 0.9992 -3.9107 1.8079)" class="st81" width="2.1" height="5.1"/>
			</g>
		</g>
	</g>
	<g>
		<g>
			<g>
				<path class="st81" d="M91.6,52.7c-2,0-4.5-2.1-6.1-5.5c-0.9-1.8-1.3-3.6-1.3-5.2c0-1.8,0.6-3.1,1.8-3.7c1.1-0.5,2.6-0.2,4,0.9
					c1.2,1,2.4,2.5,3.2,4.3c1.9,4,1.7,7.8-0.5,8.9C92.4,52.6,92,52.7,91.6,52.7z M87.2,40c-0.1,0-0.2,0-0.3,0.1
					c-0.4,0.2-0.7,0.9-0.7,2c0,1.3,0.4,2.9,1.1,4.4c1.6,3.3,3.8,4.7,4.7,4.3c0.9-0.4,1.1-3.1-0.4-6.3c-0.7-1.5-1.7-2.8-2.7-3.6
					C88.2,40.3,87.6,40,87.2,40z"/>
			</g>
		</g>
	</g>
	<g>
		<g>
			<polygon class="st81" points="61.8,49.9 61.8,50.1 61.8,50.3 66,57 66.4,57.6 67.2,57.3 73.2,54.9 73.8,54.6 73.7,53.9 73,45.3 
				72.5,44.8 71.2,45 71.1,45.2 71.1,45.4 71.8,53.3 67,54.9 63.2,49.2 			"/>
		</g>
	</g>
	<g>
		<g>
			<path class="st81" d="M137.1,88.3c-2-2.1-6.9-3.7-7.5-3.9l-0.6-0.2L119.7,95l0.9,2l7.2-1.3l8.2,1.5l1.4-8.5L137.1,88.3z
				 M134.3,94.8l-6.5-1.2l-5.7,1.3l-0.1-0.4l7.6-7.9c1.5,0.5,4.3,1.7,5.7,2.8L134.3,94.8z"/>
		</g>
	</g>
	<g>
		<g>
			<path class="st81" d="M117.9,90.2c0,0-3.3,3.9-3.6,5.1c-0.3,1.2-1.1,6.2-1.1,7.1s2.8,3.7,2.8,3.7l-17.7,6l1.7-5.1l9.3-14
				L117.9,90.2z"/>
		</g>
	</g>
	<g>
		<g>
			<path class="st81" d="M116.1,106.5c0.1-0.8,0.1-1.6,0.3-2.4l0.3-2.4c0.2-1.6,0.4-3.2,0.9-4.7c0.7,0.9,1,1.7,1.1,2.5
				c0.1,0.8,0.1,1.6,0.1,2.4c0,0.8,0,1.6-0.1,2.4c0,0.4-0.1,0.8-0.2,1.2c-0.1,0.4-0.1,0.8-0.2,1.2L116.1,106.5z"/>
		</g>
	</g>
	<g>
		<g>
			<polygon class="st81" points="84.9,43.3 80.8,42.8 77,38.8 73.4,38 73.7,36.5 77.8,37.4 81.5,41.4 85.1,41.8 			"/>
		</g>
	</g>
	<g>
		<g>
			<g>
				<path class="st81" d="M104.3,101.1l-2.1-4.2L98.9,95l-4.7,0.5l4-7.2l7.8-2.2l2.2,7.8L104.3,101.1z M99.2,93.4l4.1,2.3l1,2l2.2-4
					l-1.6-5.7l-5.7,1.6l-2.2,4L99.2,93.4z"/>
			</g>
		</g>
	</g>
	<g>
		<g>
			<path class="st81" d="M91.2,66.2c0-0.2-1.1-4.1-0.4-6.5c0.6-2,2.2-4.9,2.7-5.8l-1-3.3l1.4-0.4l1.2,3.9l-0.2,0.3
				c0,0-2,3.6-2.7,5.8c-0.6,2,0.4,5.6,0.4,5.7L91.2,66.2z"/>
		</g>
	</g>
	<g>
		<g>
			<path class="st81" d="M91.6,49.8c-0.7,0-1.4-0.3-2.1-0.9c-0.8-0.7-1.6-1.8-2.1-3.1c-1.2-2.9-0.9-5.5,0.7-6.2
				c1.6-0.7,3.7,1,4.9,3.9c0.5,1.3,0.8,2.6,0.7,3.7c-0.1,1.3-0.6,2.2-1.4,2.5C92.1,49.8,91.8,49.8,91.6,49.8z M88.9,40.9
				c-0.1,0-0.1,0-0.2,0c-0.6,0.2-0.8,2,0.1,4.2c0.4,1,1.1,2,1.7,2.5c0.5,0.4,1,0.6,1.2,0.5c0.3-0.1,0.5-0.6,0.5-1.2
				c0.1-0.9-0.2-2-0.6-3C90.8,42,89.5,40.9,88.9,40.9z"/>
		</g>
	</g>
	<g>
		<g>
			<path class="st81" d="M108.2,60.7c-6.1-5-10.9-5.9-10.9-5.9l0.3-2c0.2,0,5.3,1,11.8,6.3L108.2,60.7z"/>
		</g>
	</g>
	<g>
		<g>
			<path class="st81" d="M122.2,79.4l-20.5-1l-6.3-3.9l0.3-0.8c0.2-0.4,4.6-10.4,14.8-17.3l0.5-0.3l0.5,0.2
				c0.4,0.2,9.5,4.4,10.6,21.9L122.2,79.4z M102.4,76.5l17.7,0.9c-1.1-13.2-7.1-17.8-8.9-18.9c-7.7,5.4-12,12.9-13.2,15.3
				L102.4,76.5z"/>
		</g>
	</g>
	<g>
		<g>
			<path class="st81" d="M92.9,90.5l-21-0.5l-0.3-0.2c-0.2-0.2-4.4-4-5.7-17l2-0.2c1,10.4,4,14.5,4.8,15.5l20.2,0.5L92.9,90.5z"/>
		</g>
	</g>
	<g>
		<g>
			<path class="st81" d="M80.3,84c0.3,0.9,0.6,1.8,0.9,2.6c0.3,0.8,0.7,1.6,0.9,2.3l-1.3,0.8c-0.7-0.9-0.8-1.9-0.8-2.8
				C79.9,85.9,80,84.9,80.3,84z"/>
		</g>
	</g>
	<g>
		<g>
			<path class="st81" d="M56,83.5l-0.1-0.9c-1.6-10.9,6.5-18.3,6.8-18.6l1.3,1.5c-0.1,0.1-7.1,6.6-6.3,15.9l10.2-0.8l0.1,2L56,83.5z
				"/>
		</g>
	</g>
	<g>
		<g>
			<path class="st81" d="M74.8,103l-1.9-0.6c2-6.6,0.5-13.3,0.5-13.4l2-0.4C75.4,88.9,76.9,95.9,74.8,103z"/>
		</g>
	</g>
	<g>
		<g>
			<path class="st81" d="M63.7,113.1c-6.4-13.2-5.6-30.1-5.6-30.8l2,0.1c0,0.2-0.8,17.1,5.4,29.8L63.7,113.1z"/>
		</g>
	</g>
	<g>
		<g>
			<path class="st81" d="M73.3,106.6c-5.8-6.5-4.7-21-4.7-21.6l2,0.2c0,0.1-1.1,14.2,4.2,20.1L73.3,106.6z"/>
		</g>
	</g>
	<g>
		<g>
			
				<rect x="71.6" y="97.7" transform="matrix(0.5547 -0.8321 0.8321 0.5547 -50.9757 104.9808)" class="st81" width="2" height="4.8"/>
		</g>
	</g>
	<g>
		<g>
			<path class="st81" d="M92.1,119.7c-2.4-0.9-6.2-3.3-6.3-3.4l-0.4-0.2l0.1-2.7l-3.8-0.3l0.1-1.5l5.2,0.4l-0.2,3.3
				c1,0.6,3.8,2.4,5.6,3L92.1,119.7z"/>
		</g>
	</g>
	<g>
		<g>
			<path class="st81" d="M104.4,63.3c-3-2.2-8.6-3.9-8.7-3.9l0.4-1.4c0.2,0.1,5.9,1.8,9.1,4.1L104.4,63.3z"/>
		</g>
	</g>
	<g>
		<g>
			<path class="st81" d="M112.6,60.7c-1.9,1.9-3.7,3.9-5.4,6c-1.6,2.1-3,4.4-3.8,6.8l0,0l-0.5-1.5l2.9,1.6l0,0l-0.6-0.2l15.5,1.4
				l0,1l-15.5-0.6l-0.1,0l-0.1-0.1l0,0l-2.9-1.6l-0.4-0.2l0.2-0.4l0,0c1-2.6,2.6-4.9,4.4-7c1.8-2.1,3.7-4.1,5.8-5.9L112.6,60.7z"/>
		</g>
	</g>
	<g>
		<g>
			
				<rect x="56.8" y="78.7" transform="matrix(0.9997 -2.339360e-02 2.339360e-02 0.9997 -1.8348 1.4722)" class="st81" width="10.5" height="1"/>
		</g>
	</g>
	<g>
		<g>
			<path class="st81" d="M75.1,79l-7.8-4.1l0.7-1.3l7.5,3.9l5.1-0.1c1.4-0.8,10.7-6.5,13.3-9.8l2.3-10l1.4-1.4l-2.4,12l-0.1,0.1
				c-2.8,3.8-13.5,10.2-14,10.5L81,78.9L75.1,79z"/>
		</g>
	</g>
	<g>
		<g>
			
				<rect x="96.1" y="66.3" transform="matrix(0.3315 -0.9435 0.9435 0.3315 -0.1087 137.2815)" class="st81" width="1.5" height="4.9"/>
		</g>
	</g>
	<g>
		<g>
			<polygon class="st81" points="71.3,54.4 70.4,43.9 73,37.5 69.5,34 70.5,32.9 74.7,37.2 71.9,44.1 72.8,54.3 			"/>
		</g>
	</g>
	<g>
		<g>
			<polygon class="st81" points="66.3,56.4 61.2,47.2 60.6,39.6 62.1,39.5 62.7,46.7 67.6,55.7 			"/>
		</g>
	</g>
	<g>
		<g>
			
				<rect x="61.7" y="44.7" transform="matrix(0.9533 -0.3022 0.3022 0.9533 -10.6354 22.2285)" class="st81" width="9.7" height="1.5"/>
		</g>
	</g>
	<g>
		<g>
			
				<rect x="72.5" y="67.8" transform="matrix(0.8865 -0.4627 0.4627 0.8865 -24.8204 41.9124)" class="st81" width="1" height="7.5"/>
		</g>
	</g>
	<g>
		<g>
			<path class="st81" d="M59.7,92.1c-4.1-2.4-8.3-4.1-8.6-4.2l-0.8,1.9c0.1,0,5.3,2.2,9.7,5L59.7,92.1z"/>
		</g>
	</g>
	<g>
		<g>
			<polygon class="st81" points="62.2,106.3 57.4,104.3 56.6,106.2 62.9,108.9 			"/>
		</g>
	</g>
	<g>
		<g>
			
				<rect x="43.6" y="130.8" transform="matrix(0.7545 -0.6563 0.6563 0.7545 -73.1234 68.0858)" class="st81" width="21.7" height="2"/>
		</g>
	</g>
	<g>
		<g>
			
				<rect x="52.3" y="135.5" transform="matrix(0.6787 -0.7344 0.7344 0.6787 -80.1808 89.6579)" class="st81" width="20.3" height="2"/>
		</g>
	</g>
	<g>
		<g>
			<path class="st81" d="M87.8,121.9c-0.7,2.5-3.1,7.2-3.8,8.5c-2.4,0.8-10.4,3.4-11,3.7c-0.5,0.2-1.3,0.3-3,2.4
				c-2.2,0.5-5-0.3-6.8-1l-1.3,1.4c1.5,0.7,3.5,1.5,4.6,1.5c1.5,0,3.1,0.2,4.6-0.1l0.3-0.1l0.2-0.3c1.1-1.4,1.8-2,2.1-2.2
				c0.5-0.2,7.1-2.4,11.2-3.7l0.4-0.1l0.2-0.3c0.1-0.2,3.2-6.1,4.1-9.2L87.8,121.9z"/>
		</g>
	</g>
	<g>
		<g>
			<path class="st81" d="M39.6,159.6c-6.4,0-11.4-3.2-11.4-7.3c0-4.1,5-7.3,11.4-7.3c6.4,0,11.4,3.2,11.4,7.3
				C51,156.4,46,159.6,39.6,159.6z M39.6,146.9c-5.1,0-9.4,2.4-9.4,5.3c0,2.9,4.3,5.3,9.4,5.3s9.4-2.4,9.4-5.3
				C49,149.4,44.7,146.9,39.6,146.9z"/>
		</g>
	</g>
	<g>
		<g>
			<path class="st81" d="M39.2,157.5c-4.8,0-8.6-2.1-8.6-4.9c0-2.7,3.8-4.9,8.6-4.9s8.6,2.1,8.6,4.9
				C47.9,155.4,44.1,157.5,39.2,157.5z M39.2,149.3c-4.2,0-7.1,1.8-7.1,3.4c0,1.6,2.9,3.4,7.1,3.4s7.1-1.8,7.1-3.4
				C46.4,151.1,43.4,149.3,39.2,149.3z"/>
		</g>
	</g>
	<g>
		<g>
			<path class="st81" d="M31.3,147.8c-0.4-0.4-8.8-9.9-12.8-21.8l-0.3-0.7l16.3-10.3l9.4,23.9l-1.9,0.7l-8.6-21.6l-12.9,8.2
				c4,11.2,12.1,20.3,12.2,20.4L31.3,147.8z"/>
		</g>
	</g>
	<g>
		<g>
			<g>
				<path class="st81" d="M49.1,156.4l-1.5-1.3l6.7-7.8c0.4-0.6,0.6-1.2,0.6-1.9c0-2.9-4.3-5.3-9.4-5.3c-0.8,0-1.8,0.1-2.6,0.2
					l-0.1-2c0.9-0.1,1.7-0.2,2.6-0.2c6.4,0,11.4,3.2,11.4,7.3c0,1.1-0.3,2.1-1,3l-0.1,0.1L49.1,156.4z"/>
			</g>
		</g>
	</g>
	<g>
		<g>
			<path class="st81" d="M78.1,179.8h-6.6l-0.2-0.1c-0.8-0.4-18.9-9.1-29.8-20.4l1.4-1.4c10.1,10.3,27,18.8,29.1,19.9h1.5
				c-10.3-11.1-21.7-26-21.8-26.2l1.6-1.2c0.1,0.2,12.7,16.6,23.3,27.7L78.1,179.8z"/>
		</g>
	</g>
	<g>
		<g>
			<polygon class="st81" points="32.3,147.8 31.7,146.5 40.4,142.3 42.4,138.9 43.7,139.6 41.5,143.4 			"/>
		</g>
	</g>
	<g id="Layer_6">
		<g>
			<g>
				<g>
					<path class="st81" d="M84.2,52.1l-7.2-6L71.5,44l-0.1,1.1l0.6,8.6l-4.9,2.4L62,47.3c0,0-0.8,1.7-1.2,2.3S60,58.1,60,58.1
						l4.6,8.7l3.3,0.5l2.2,4.4l3.6,1.1l-2.2-4.3l4.2-1.6l2.6,4l3.8-2.1l-1.8-4.4C82,61.3,84.2,52.1,84.2,52.1z M68.8,64.4l-4.8-0.8
						l-3-6.6l0.2-1.2l2.4,3.9l5-0.3l0.8,4.2L68.8,64.4z M75.4,62.9l-2.5,0.3l-1.3-4.5l5-4.4l-1.3-7.6l1.5,1l2,8.6L75.4,62.9z"/>
				</g>
			</g>
		</g>
	</g>
	<g id="Layer_5">
		<g>
			<g>
				<path class="st81" d="M98.9,79.2c0,0,3.4,2.8,6.6,3.8s8.6,0.1,8.6,0.1l2.6-4.5L102,77.8L99.6,77L98.9,79.2z"/>
			</g>
		</g>
		<g>
			<g>
				<path class="st81" d="M67.8,75.7l7.3,2.9l9.6-4.7l-1.1,2.5l7.7-5.5l3.5-3.1v-4.3l-8.1,6l-12.7,4.6c0,0-6-0.1-6.3,0.1
					C67.4,74.4,67.8,75.7,67.8,75.7z"/>
			</g>
		</g>
		<g>
			<g>
				<polygon class="st81" points="97.4,75.4 89.4,89.2 93.5,89.3 99.8,76.5 				"/>
			</g>
		</g>
		<g>
			<g>
				<path class="st81" d="M59.3,93.1c-0.6-0.3-2.6-0.9-2.6-0.9l2.8,14.1l2.7,0.4L59.3,93.1z"/>
			</g>
		</g>
		<g>
			<g>
				<path class="st81" d="M65.1,81.3l-0.3-2.2h0.7c0,0-0.5-4.4-1.1-5.8c-0.6-1.4-3.8-4.9-3.8-4.9l2.3-2.8l4.4,6.8L67,73.9l1.3,7.7
					L65.1,81.3z"/>
			</g>
		</g>
		<g>
			<g>
				<path class="st81" d="M59.3,85.5c0,0,1.7,0.9,2,1.5c0.3,0.6,0.8,5.5,1.7,6.2c0.8,0.7,6.2,0.7,6.2,0.7l0.8-8.8l-1.8-3.5l-9.2,1.2
					L59.3,85.5"/>
			</g>
		</g>
		<g>
			<g>
				<path class="st81" d="M80.3,103.4c0,0,6.3-6.9,6.3-9.1c0-2.2-1.9-5-1.9-5l8.9,0.3c0,0-7.7,15.2-7.9,15.2S80.3,103.4,80.3,103.4z
					"/>
			</g>
		</g>
		<g>
			<g>
				<path class="st81" d="M74.1,108.7c0,0-3.9-1.5-4.6-2.3s-2.1-9.1-1.4-14.4l1.8,0.1l2,9.9L74.1,108.7z"/>
			</g>
		</g>
		<g>
			<g>
				<path class="st81" d="M83.9,101.3l-9.5,0.1l-4.3-1.9c0.9,4.5,3.9,11,3.9,11l1.8,4.8l1-0.8c0,0,3.4,0.6,3.9,0.6
					s5.4-11.4,5.4-11.4L83.9,101.3z"/>
			</g>
		</g>
		<g>
			<g>
				<path class="st81" d="M60.9,126.5c0,0,2.2,0.6,2.8,1.6c0.6,1,1.5,5.8-2.4,8.8l8.2-7.8l-0.8-2.5l-6-1.8L60.9,126.5z"/>
			</g>
		</g>
		<g>
			<g>
				<path class="st81" d="M34.1,116.7c0,0-2.5,2.5,1.1,15.3c1.4,4.9,5.7,11,5.7,11l2.3-3.9L34.1,116.7z"/>
			</g>
		</g>
		<g>
			<g>
				<polygon class="st81" points="49.5,155.2 74.6,178.8 73.9,177.4 52.5,151.2 				"/>
			</g>
		</g>
		<g>
			<g>
				<polygon class="st81" points="71.4,108.5 67.5,108.3 63,111.9 63.6,115 62.8,117.9 68.8,118.8 74,117.3 78,113.7 77.5,108.4 
					74.9,107.2 				"/>
			</g>
		</g>
	</g>
	<g>
		<g>
			<path class="st81" d="M46.9,152.7c0,0,1.7-0.6,1.6-3.3l1.7,1.7c0,0-0.6,4.3-0.9,4.4s-3.5,2.8-4.1,2.9s-7.7,1-7.7,1l-4.2-1.1
				l-3.6-3.5l-0.4-1.4c0,0,2.3,0.5,2.6,1s3.5,2.4,6.1,2.6s6.1-0.9,6.1-0.9S46.9,155.7,46.9,152.7z"/>
		</g>
	</g>
	<g>
		<g>
			<g>
				<path class="st81" d="M55.1,120.1l1.6-1.3c-0.3-0.4-7.1-9-10.9-11.6c-3.7-2.7-19.4-7.3-21.4-6.7c-1.5,0.5-4.8,2.6-5.1,2.9
					l1.2,1.7c1.3-0.9,3.6-2.3,4.6-2.6c1.6-0.2,16.2,4,19.6,6.4C48.2,111.3,55.1,120,55.1,120.1z"/>
			</g>
		</g>
	</g>
	<g>
		<g>
			<path class="st81" d="M37.3,104.6L25,101.2l-4.2,2.5l0.7,3.6l0.3,0.3l3.2-5.1c0,0,0.1,0,0.1,0c0.4,0,1.6,0.2,3.1,0.6l-4.3,6.8
				l3.2,3.3l5.5-8.9c1,0.3,2,0.6,3,0.9l-6.4,10.2l0.9,0.9l2.8,1.6l7-11.2c1,0.4,2,0.8,2.8,1.2l-7.2,11.5l3.9,2.2l6.9-11.1
				c0.7,0.7,1.4,1.4,2.2,2.2L42.2,123l0.6,0.3l3.8,1l5.2-8.3c0.8,0.9,1.5,1.7,2,2.4l-4.2,6.7h0l1.6,0.4L56,119l-9.3-9.7L37.3,104.6z
				 M150.3,106.1l-12.6,2.3l-9.8,3.8l-10.2,8.8l4.2,7l1.6-0.3l-3.5-7.1c0.6-0.6,1.4-1.4,2.2-2.2l4.4,8.7l3.9-0.7l0.6-0.3l-5.5-11
				c0.8-0.7,1.6-1.4,2.4-2L134,125l4.1-1.8h0L132,111c0.8-0.3,1.8-0.6,2.9-0.9l5.9,11.8l3-1.3l1-0.8l-5.4-10.8c1-0.2,2-0.4,3-0.6
				l4.7,9.4l3.5-3l0,0l-3.6-7.2c1.6-0.2,2.8-0.3,3.2-0.3c0,0,0.1,0,0.1,0l2.7,5.4l0.3-0.2l1-3.5L150.3,106.1z"/>
		</g>
	</g>
	<g>
		<g>
			<path class="st81" d="M42.8,121.9l-0.7,1.1l-3.2-0.4c2.6,1.2,5,2.1,7,2.8l1.1-1.8C45.9,123.1,44.4,122.6,42.8,121.9z M29.3,115.3
				l-2.8-1.2l1-1.6c-1.1-1-2.2-2.2-3.2-3.4l-0.4,0.6l-2.5-1c2.6,3.7,6,6.7,9.4,9.2l1.5-1.1c0,0,0.5,0.2,1,0.3l0.1-0.1
				c-1.2-0.8-2.5-1.7-3.7-2.6L29.3,115.3z M36,118.7l-0.4,0.6l-0.5-0.1l0.1,0.5l-0.7,0.5c1.5,0.9,3,1.6,4.4,2.3l1.1-1.8
				C38.7,120.1,37.4,119.4,36,118.7z M47.9,99.7c-2.9-0.6-15-3.1-16.7-3c-1.2,0-4.5,0.1-6.4,0.1c-1.5,0-2.8,0.8-3.4,2.1l-2.6,5.3
				l0.2,0.5c0.7,1.4,1.4,2.6,2.2,3.9l1.2-1.9c-0.5-0.8-0.9-1.5-1.4-2.4l2.2-4.4c0.3-0.6,0.9-1,1.6-1c1.9,0,5.2,0,6.4-0.1
				c1.2,0,10.9,1.9,16.7,3.1l0.5,0.1l2.7-2.2l5.3,4.8L55,119l-4.1,5.6c-0.2-0.1-0.5-0.1-0.8-0.2l-0.5,0.7l-3.6,0.2
				c2.8,0.9,4.7,1.4,5,1.4l0.7,0.1l5.2-7.1l1.7-16.1L51.3,97L47.9,99.7z M130.7,125.1c-1.6,0.5-3.1,0.9-4.4,1.2l1,1.9
				c2-0.5,4.5-1.2,7.2-2.1l-3.2,0.1L130.7,125.1z M154.1,104.1c-0.5-1.4-1.8-2.3-3.2-2.4c-1.9-0.2-5.2-0.5-6.4-0.7
				c-1.7-0.2-13.9,1.2-16.9,1.5l-3.1-3l-8,6l0.2,16.2l4.5,7.6l0.7-0.1c0.3,0,2.2-0.3,5.1-0.9l-3.5-0.6l-0.4-0.8
				c-0.3,0.1-0.6,0.1-0.8,0.1l-3.5-5.9l-0.2-14.6l5.7-4.3l2.5,2.4l0.5-0.1c5.9-0.7,15.7-1.7,16.9-1.6c1.2,0.1,4.5,0.5,6.4,0.7
				c0.7,0.1,1.2,0.5,1.5,1.1l1.8,4.6c-0.5,0.8-1,1.5-1.6,2.2l1,2c0.9-1.1,1.8-2.3,2.6-3.6l0.3-0.4L154.1,104.1z M150.3,114.1
				c-1.1,1.1-2.3,2.1-3.5,3.1l0.9,1.7l-2.9,0.9l-0.4-0.9c-1.3,0.8-2.6,1.6-3.9,2.3l0.9,1.9l-3.3,0.1l-0.3-0.7
				c-1.4,0.6-2.8,1.2-4.2,1.7l1,1.9c6.2-2.2,13.5-6,18.7-12.1l-2.6,0.8L150.3,114.1z"/>
		</g>
	</g>
	<g>
		<g>
			<polygon class="st81" points="17,124.8 34.9,113.4 44.3,137.1 41.6,137.9 34,116.4 20.5,123.8 			"/>
		</g>
	</g>
	<g id="man2_copy_3">
		<g id="man1_copy">
			<g id="Layer_6_copy">
			</g>
			<g id="Layer_5_copy">
			</g>
			<g>
				<path class="st81" d="M73.5,99.5c0.7-4,0.3-7.7,0-9.5l-1.7,0l-0.3-0.2c-0.1,0-0.5-0.4-1.1-1.3c0,2.6,0.2,6.3,1,9.7L73.5,99.5z
					 M72.7,91c0.2,1.6,0.4,4.1,0.1,6.8l-0.4-0.3c-0.5-2.2-0.7-4.6-0.8-6.6L72.7,91z M155,103.7c-0.7-1.7-2.2-2.9-4-3.1
					c-1.9-0.2-5.2-0.5-6.4-0.7c-0.1,0-0.3,0-0.6,0c-1.3,0-4.3,0.2-8.8,0.7l0.2-2.5l1.4,0.3l1.6-10l-0.7-0.7c-2.1-2.2-7-3.9-7.9-4.2
					l-1.3-0.4l-3,3.5c-5.5,1.3-10.2,2.8-13.4,4l6.2-10.3l4.9,0.2l-0.1-2.2C122,60.1,112.4,55.6,112,55.4l-1-0.4l-0.9,0.6
					c-0.6,0.4-1.1,0.8-1.8,1.3c-3.9-2.8-7.1-4.1-8.9-4.7L89.2,32.7l-9.5-2.6l-10.1,1.1l-8.8,3.3l-2,7.1l-2.2,4.8l-0.1,10.6l4.2,7.5
					c-2.2,2.5-7.2,9.3-5.9,18.3l0.3,1.9l2-0.1c0,1.3,0,3,0.1,5.1c-2.3-1.2-4.3-2.1-5.2-2.4L49.8,84l-11.5,0.6l0.2,11.8h1.8l0,0.7
					c-7.7-1.6-8.7-1.6-9-1.6c0,0-0.6,0-0.6,0c-1.5,0-4.2,0-5.9,0c-1.8,0-3.5,1-4.3,2.6l-3,5.7l0.4,0.9c2.2,4.8,5.7,9.1,10.5,12.9
					L17,124.8l12.5-7.9c-3-2.2-5.8-4.9-8-8.2l-0.3-0.1l1.1-1.8l-1,1.6c-0.8-1.2-1.6-2.5-2.2-3.9l-0.2-0.5l2.6-5.3
					c0.7-1.3,2-2.1,3.4-2.1c1.9,0,5.2,0,6.4-0.1c1,0,5.9,0.9,10.2,1.7l-0.1-3h-1.8l-0.1-9.8l10-0.5l2.1,2.9c0.8,0.3,3.8,1.6,7,3.4
					c-0.3-3.6-0.3-6.5-0.3-8L56,83.5l-0.1-0.9c-1.3-9.2,4.2-15.9,6.2-18l-4.5-7.9l0.1-10.1l2.1-4.7l1.8-6.6l8.3-3.1l9.8-1.1l8.9,2.5
					l9.9,19l0,0.3c0,0,0,0.1,0,0.1c1.5,0.4,5.3,1.7,9.9,5.2c0.7-0.6,1.5-1.2,2.3-1.7l0.5-0.3l0.5,0.2c0.4,0.2,9.5,4.4,10.6,21.9
					l0.1,1.1l-4.4-0.2l-8,13.3c3-1.2,8.9-3.4,16.3-5l2.8-3.3l0.6,0.2c0.6,0.2,5.5,1.8,7.5,3.9l0.4,0.4l-1.4,8.5l-1.5-0.3l-0.4,4.8
					c4.4-0.5,9.3-0.9,10.4-0.8c1.2,0.1,4.5,0.5,6.4,0.7c1.4,0.1,2.7,1.1,3.2,2.4l2.2,5.5L156,110c-0.8,1.3-1.6,2.5-2.6,3.6l0.1,0.2
					l-0.3,0.1c-5.2,6.1-12.4,9.9-18.7,12.1l0,0l-0.1,0c-2.7,1-5.2,1.7-7.2,2.1l0,0l-0.1,0c-2.9,0.7-4.9,0.9-5.1,0.9l-0.7,0.1
					l-4.5-7.6l-0.2-14.4c-8.8,1.9-19.7,7-19.8,7l0-0.1l-5.6,9.4l-0.7-0.2c-0.2-0.1-0.6-0.2-1-0.3c-1.1,3.2-3.7,8.2-3.9,8.5l-0.2,0.3
					l-0.4,0.1c-4.1,1.3-10.7,3.5-11.2,3.7c-0.3,0.2-1,0.8-2.1,2.2l-0.2,0.3l-0.3,0.1c-1.5,0.4-3.1,0.1-4.6,0.1
					c-0.8,0-2.3-0.5-3.6-1.1l-6.2,6.7c0.1,0.4,0.2,0.9,0.2,1.3c0,1.1-0.3,2.1-1,3l-0.1,0.1l-2.1,2.5c2.4,3.1,13.4,17.2,22.8,27.1
					l1.6,1.7h-6.6l-0.2-0.1c-0.8-0.4-18.7-9-29.7-20.2c-0.7,0.1-1.3,0.1-2,0.1c-6.4,0-11.4-3.2-11.4-7.3c0-1.9,1-3.5,2.7-4.8
					c-1.6-1.8-8.9-10.6-12.5-21.5l-0.3-0.7l2.2-1.4l-3.4,1l0.5,1.5c3.3,9.9,9.7,18.2,12.1,21.1c-1.5,1.4-2.3,3.1-2.3,4.9
					c0,4.7,5.4,8.3,12.4,8.3c0.5,0,1.1,0,1.7-0.1c11.1,11.1,28.8,19.7,29.6,20l0.4,0.2h9.2l-3.2-3.4C68.4,168.1,58,154.9,55,151
					l1.6-1.9l0.1-0.1c0.8-1.1,1.2-2.3,1.2-3.6c0-0.3,0-0.7-0.1-1l5.4-5.8c1.5,0.6,2.6,0.9,3.4,0.9c0.4,0,0.8,0,1.2,0
					c0.5,0,0.9,0,1.4,0c0.9,0,1.6-0.1,2.2-0.2l0.7-0.2l0.4-0.5c1-1.2,1.6-1.7,1.9-1.9c0.9-0.3,6.2-2.1,11-3.7l0.8-0.2l0.4-0.7
					c0.1-0.2,2.4-4.4,3.6-7.7c0,0,1.6,0.5,1.6,0.5l5.8-9.7c1.5-0.7,10.5-4.7,18.2-6.6l0.2,13.4l5,8.3l1.3-0.2
					c1-0.1,24.9-3.1,34.7-19.7l0.5-0.9L155,103.7z M39.1,123.9c6.1,2.8,11,4,11.3,4.1l1.3,0.3l5.9-7.8l1.5-12.1l1.9,0.8
					c0.3,0.9,0.6,1.7,1,2.5l0.7,3.3l-0.3,0.9l-1.2-0.3l-0.6,1.5c-0.4,1-0.8,2-1.2,3.1c-0.2,0.6-0.3,1.1-0.5,1.7
					c-0.1,0.6-0.3,1.2-0.2,2.1l0.2,1.3l-13.6,11.8c-0.3,0-0.6,0-1,0l-1,0.3l0.3,0.8c0.6-0.1,1.2-0.1,1.8-0.1c0.1,0,0.1,0,0.2,0
					l15.2-13.2c-0.2-0.1-0.3-0.1-0.5-0.2l0,0l-0.7-0.3l0-0.6c-0.1-0.8,0.1-1.3,0.2-1.9c0.1-0.5,0.3-1.1,0.4-1.6c0.3-1,0.7-2,1.1-3
					l0.3-0.7l0.8,0.2c0.2,0,0.3,0.1,0.5,0.1l0.6-2l-0.6-3.1l0.1-0.1c-0.5-1.1-0.9-2.3-1.3-3.4l-3.4-1.5L57,119.8l-5.2,7.1l-0.7-0.1
					c-0.3-0.1-2.2-0.5-5-1.4l3.6-0.2l-3.7,0.2l0.7-1.1l-0.6,1c-2-0.7-4.4-1.6-7-2.8l3.2,0.4l-3.3-0.4l0.5-0.8v0l-0.5,0.7
					c-0.1-0.1-0.3-0.1-0.4-0.2l5.9,14.8L39.1,123.9z"/>
			</g>
		</g>
	</g>
</g>
</svg>
