<svg width="200" height="200" viewBox="0 0 200 200" fill="none" xmlns="http://www.w3.org/2000/svg">
<rect width="200" height="200" fill="#1792FF"/>
<path d="M114.821 36.0368L114.727 54.4879L99.2372 63.5252V45.0741L114.821 36.0368Z" fill="#1792FF"/>
<path d="M99.2385 45.0741V63.5252L83.5612 54.4879L83.6551 36.0368L99.2385 45.0741Z" fill="#A4D8FF"/>
<path d="M114.826 36.0372L99.2427 45.0745L83.6592 36.0372L99.1488 26.9999L114.826 36.0372Z" fill="white"/>
<path d="M99.1448 27L83.6552 36.0373L83.5613 54.4883L99.2387 63.5256L114.728 54.4883L114.822 36.0373L99.1448 27Z" stroke="#001423" stroke-width="3" stroke-miterlimit="10" stroke-linejoin="round"/>
<path d="M99.2395 63.5252V45.0741L83.6561 36.0368" stroke="white" stroke-width="3" stroke-miterlimit="10" stroke-linecap="round" stroke-linejoin="round"/>
<path d="M114.821 36.0368L99.2372 45.0741" stroke="white" stroke-width="3" stroke-miterlimit="10" stroke-linecap="round" stroke-linejoin="round"/>
<path d="M130.783 45.1673L130.689 63.5242L115.106 72.6556L115.199 54.2046L130.783 45.1673Z" fill="#1792FF"/>
<path d="M115.199 54.2046L115.105 72.6556L99.5219 63.5242V45.1673L115.199 54.2046Z" fill="#A4D8FF"/>
<path d="M130.783 45.1684L115.199 54.2056L99.5219 45.1684L115.105 36.1311L130.783 45.1684Z" fill="white"/>
<path d="M115.105 36.1311L99.5219 45.1684V63.5253L115.105 72.6567L130.689 63.5253L130.783 45.1684L115.105 36.1311Z" stroke="#001423" stroke-width="3" stroke-miterlimit="10" stroke-linejoin="round"/>
<path d="M115.105 72.6556L115.199 54.2046L99.5219 45.1673" stroke="white" stroke-width="3" stroke-miterlimit="10" stroke-linecap="round" stroke-linejoin="round"/>
<path d="M130.781 45.1673L115.198 54.2045" stroke="white" stroke-width="3" stroke-miterlimit="10" stroke-linecap="round" stroke-linejoin="round"/>
<path d="M146.459 54.3945L146.365 72.8456L130.782 81.8829L130.875 63.4318L146.459 54.3945Z" fill="#1792FF"/>
<path d="M130.874 63.4318L130.78 81.8829L115.103 72.8456L115.197 54.3945L130.874 63.4318Z" fill="#A4D8FF"/>
<path d="M146.459 54.3949L130.876 63.4322L115.198 54.3949L130.782 45.3577L146.459 54.3949Z" fill="white"/>
<path d="M130.783 45.357L115.2 54.3943L115.106 72.8453L130.783 81.8826L146.367 72.8453L146.461 54.3943L130.783 45.357Z" stroke="#001423" stroke-width="3" stroke-miterlimit="10" stroke-linejoin="round"/>
<path d="M130.781 81.8829L130.875 63.4318L115.198 54.3945" stroke="white" stroke-width="3" stroke-miterlimit="10" stroke-linecap="round" stroke-linejoin="round"/>
<path d="M146.46 54.3945L130.876 63.4318" stroke="white" stroke-width="3" stroke-miterlimit="10" stroke-linecap="round" stroke-linejoin="round"/>
<path d="M162.044 63.5256L161.95 81.8826L146.46 91.014V72.5629L162.044 63.5256Z" fill="#1792FF"/>
<path d="M146.461 72.5629V91.014L130.784 81.8826V63.5256L146.461 72.5629Z" fill="#A4D8FF"/>
<path d="M162.042 63.5254L146.459 72.5626L130.782 63.5254L146.365 54.4881L162.042 63.5254Z" fill="white"/>
<path d="M146.365 54.4881L130.782 63.5254V81.8823L146.459 91.0137L161.948 81.8823L162.042 63.5254L146.365 54.4881Z" stroke="#001423" stroke-width="3" stroke-miterlimit="10" stroke-linejoin="round"/>
<path d="M146.461 91.014V72.5629L130.784 63.5256" stroke="white" stroke-width="3" stroke-miterlimit="10" stroke-linecap="round" stroke-linejoin="round"/>
<path d="M162.044 63.5256L146.46 72.5629" stroke="white" stroke-width="3" stroke-miterlimit="10" stroke-linecap="round" stroke-linejoin="round"/>
<path d="M99.519 44.7922L99.4251 63.2433L83.9356 72.3747V53.9236L99.519 44.7922Z" fill="#1792FF"/>
<path d="M83.937 53.9236V72.3747L68.2596 63.2433V44.7922L83.937 53.9236Z" fill="#A4D8FF"/>
<path d="M99.5207 44.7927L83.9372 53.9241L68.2599 44.7927L83.8434 35.7554L99.5207 44.7927Z" fill="white"/>
<path d="M83.8434 35.7554L68.2599 44.7927V63.2437L83.9372 72.3751L99.4269 63.2437L99.5207 44.7927L83.8434 35.7554Z" stroke="#001423" stroke-width="3" stroke-miterlimit="10" stroke-linejoin="round"/>
<path d="M83.937 72.3747V53.9236L68.2596 44.7922" stroke="white" stroke-width="3" stroke-miterlimit="10" stroke-linecap="round" stroke-linejoin="round"/>
<path d="M99.519 44.7922L83.9356 53.9236" stroke="white" stroke-width="3" stroke-miterlimit="10" stroke-linecap="round" stroke-linejoin="round"/>
<path d="M84.219 53.6393L84.1252 71.9962L68.5417 81.1276L68.6356 62.6765L84.219 53.6393Z" fill="#1792FF"/>
<path d="M68.6354 62.6765L68.5415 81.1276L52.958 71.9962V53.6393L68.6354 62.6765Z" fill="#A4D8FF"/>
<path d="M84.2189 53.6409L68.6354 62.6781L52.9581 53.6409L68.5415 44.5095L84.2189 53.6409Z" fill="white"/>
<path d="M68.5415 44.5095L52.9581 53.6409V71.9978L68.5415 81.1292L84.125 71.9978L84.2189 53.6409L68.5415 44.5095Z" stroke="#001423" stroke-width="3" stroke-miterlimit="10" stroke-linejoin="round"/>
<path d="M68.5415 81.1276L68.6354 62.6765L52.958 53.6393" stroke="white" stroke-width="3" stroke-miterlimit="10" stroke-linecap="round" stroke-linejoin="round"/>
<path d="M84.22 53.6393L68.6366 62.6766" stroke="white" stroke-width="3" stroke-miterlimit="10" stroke-linecap="round" stroke-linejoin="round"/>
<path d="M68.2595 118.22V136.671L52.676 145.802V127.351L68.2595 118.22Z" fill="#1792FF"/>
<path d="M52.6773 127.351V145.802L37 136.671L37.0938 118.22L52.6773 127.351Z" fill="#A4D8FF"/>
<path d="M68.2624 118.221L52.6789 127.352L37.0955 118.221L52.585 109.184L68.2624 118.221Z" fill="white"/>
<path d="M52.5835 109.184L37.0939 118.221L37 136.672L52.6773 145.803L68.2608 136.672V118.221L52.5835 109.184Z" stroke="#001423" stroke-width="3" stroke-miterlimit="10" stroke-linejoin="round"/>
<path d="M52.6783 145.802V127.351L37.0949 118.22" stroke="white" stroke-width="3" stroke-miterlimit="10" stroke-linecap="round" stroke-linejoin="round"/>
<path d="M68.2595 118.22L52.676 127.351" stroke="white" stroke-width="3" stroke-miterlimit="10" stroke-linecap="round" stroke-linejoin="round"/>
<path d="M84.315 127.068L84.2212 145.425L68.7316 154.556V136.105L84.315 127.068Z" fill="#1792FF"/>
<path d="M68.7303 136.105V154.556L53.053 145.425L53.1469 127.068L68.7303 136.105Z" fill="#A4D8FF"/>
<path d="M84.3179 127.068L68.7345 136.106L53.151 127.068L68.6406 117.937L84.3179 127.068Z" fill="white"/>
<path d="M68.6365 117.937L53.1469 127.068L53.053 145.425L68.7304 154.557L84.2199 145.425L84.3138 127.068L68.6365 117.937Z" stroke="#001423" stroke-width="3" stroke-miterlimit="10" stroke-linejoin="round"/>
<path d="M68.7313 154.556V136.105L53.1479 127.068" stroke="white" stroke-width="3" stroke-miterlimit="10" stroke-linecap="round" stroke-linejoin="round"/>
<path d="M84.315 127.068L68.7316 136.105" stroke="white" stroke-width="3" stroke-miterlimit="10" stroke-linecap="round" stroke-linejoin="round"/>
<path d="M100.177 81.13L100.083 99.5811L84.4998 108.712L84.5937 90.2614L100.177 81.13Z" fill="#1792FF"/>
<path d="M84.595 90.2614L84.5012 108.712L68.8238 99.5811L68.9177 81.13L84.595 90.2614Z" fill="#A4D8FF"/>
<path d="M100.18 81.1304L84.5966 90.2618L68.9193 81.1304L84.5027 72.0931L100.18 81.1304Z" fill="white"/>
<path d="M84.5041 72.0931L68.9207 81.1304L68.8268 99.5815L84.5041 108.713L100.088 99.5815L100.181 81.1304L84.5041 72.0931Z" stroke="#001423" stroke-width="3" stroke-miterlimit="10" stroke-linejoin="round"/>
<path d="M84.5021 108.712L84.596 90.2614L68.9187 81.13" stroke="white" stroke-width="3" stroke-miterlimit="10" stroke-linecap="round" stroke-linejoin="round"/>
<path d="M100.178 81.13L84.5947 90.2614" stroke="white" stroke-width="3" stroke-miterlimit="10" stroke-linecap="round" stroke-linejoin="round"/>
<path d="M84.219 72.3745L84.1252 90.8256L68.5417 99.957L68.6356 81.4118L84.219 72.3745Z" fill="#1792FF"/>
<path d="M68.6354 81.4118L68.5415 99.957L52.958 90.8256V72.3745L68.6354 81.4118Z" fill="#A4D8FF"/>
<path d="M84.2189 72.375L68.6354 81.4122L52.9581 72.375L68.5415 63.3378L84.2189 72.375Z" fill="white"/>
<path d="M68.5415 63.3378L52.9581 72.375V90.8261L68.5415 99.9575L84.125 90.8261L84.2189 72.375L68.5415 63.3378Z" stroke="#001423" stroke-width="3" stroke-miterlimit="10" stroke-linejoin="round"/>
<path d="M68.5415 99.957L68.6354 81.4118L52.958 72.3745" stroke="white" stroke-width="3" stroke-miterlimit="10" stroke-linecap="round" stroke-linejoin="round"/>
<path d="M84.22 72.3745L68.6366 81.4118" stroke="white" stroke-width="3" stroke-miterlimit="10" stroke-linecap="round" stroke-linejoin="round"/>
<path d="M100.177 81.7884L100.083 100.239L84.4998 109.277L84.5937 90.8257L100.177 81.7884Z" fill="#1792FF"/>
<path d="M84.595 90.8257L84.5012 109.277L68.8238 100.239L68.9177 81.7884L84.595 90.8257Z" fill="#A4D8FF"/>
<path d="M100.18 81.7888L84.5966 90.826L68.9193 81.7888L84.5027 72.7515L100.18 81.7888Z" fill="white"/>
<path d="M84.5041 72.7509L68.9207 81.7882L68.8268 100.239L84.5041 109.276L100.088 100.239L100.181 81.7882L84.5041 72.7509Z" stroke="#001423" stroke-width="3" stroke-miterlimit="10" stroke-linejoin="round"/>
<path d="M84.5021 109.277L84.596 90.8257L68.9187 81.7884" stroke="white" stroke-width="3" stroke-miterlimit="10" stroke-linecap="round" stroke-linejoin="round"/>
<path d="M100.178 81.7884L84.5947 90.8256" stroke="white" stroke-width="3" stroke-miterlimit="10" stroke-linecap="round" stroke-linejoin="round"/>
<path d="M100.177 81.7884L100.083 100.239L84.4998 109.277L84.5937 90.8257L100.177 81.7884Z" fill="#1792FF"/>
<path d="M84.595 90.8257L84.5012 109.277L68.8238 100.239L68.9177 81.7884L84.595 90.8257Z" fill="#A4D8FF"/>
<path d="M100.18 81.7888L84.5966 90.826L68.9193 81.7888L84.5027 72.7515L100.18 81.7888Z" fill="white"/>
<path d="M84.5041 72.7509L68.9207 81.7882L68.8268 100.239L84.5041 109.276L100.088 100.239L100.181 81.7882L84.5041 72.7509Z" stroke="#001423" stroke-width="3" stroke-miterlimit="10" stroke-linejoin="round"/>
<path d="M84.5021 109.277L84.596 90.8257L68.9187 81.7884" stroke="white" stroke-width="3" stroke-miterlimit="10" stroke-linecap="round" stroke-linejoin="round"/>
<path d="M100.178 81.7884L84.5947 90.8256" stroke="white" stroke-width="3" stroke-miterlimit="10" stroke-linecap="round" stroke-linejoin="round"/>
<path d="M68.2595 99.6735V118.125L52.676 127.162V108.711L68.2595 99.6735Z" fill="#1792FF"/>
<path d="M52.6773 108.711V127.162L37 118.125L37.0938 99.6735L52.6773 108.711Z" fill="#A4D8FF"/>
<path d="M68.2624 99.674L52.6789 108.711L37.0955 99.674L52.585 90.6367L68.2624 99.674Z" fill="white"/>
<path d="M52.5834 90.6389L37.0938 99.6762L37 118.127L52.6773 127.165L68.2608 118.127V99.6762L52.5834 90.6389Z" stroke="#001423" stroke-width="3" stroke-miterlimit="10" stroke-linejoin="round"/>
<path d="M52.6783 127.162V108.711L37.0949 99.6735" stroke="white" stroke-width="3" stroke-miterlimit="10" stroke-linecap="round" stroke-linejoin="round"/>
<path d="M68.2595 99.6735L52.676 108.711" stroke="white" stroke-width="3" stroke-miterlimit="10" stroke-linecap="round" stroke-linejoin="round"/>
<path d="M68.2595 81.13V99.5811L52.676 108.712V90.2614L68.2595 81.13Z" fill="#1792FF"/>
<path d="M52.6773 90.2614V108.712L37 99.5811L37.0938 81.13L52.6773 90.2614Z" fill="#A4D8FF"/>
<path d="M68.2624 81.1304L52.6789 90.2618L37.0955 81.1304L52.585 72.0931L68.2624 81.1304Z" fill="white"/>
<path d="M52.5835 72.0931L37.0939 81.1304L37 99.5815L52.6773 108.713L68.2608 99.5815V81.1304L52.5835 72.0931Z" stroke="#001423" stroke-width="3" stroke-miterlimit="10" stroke-linejoin="round"/>
<path d="M52.6783 108.712V90.2614L37.0949 81.13" stroke="white" stroke-width="3" stroke-miterlimit="10" stroke-linecap="round" stroke-linejoin="round"/>
<path d="M68.2595 81.13L52.676 90.2614" stroke="white" stroke-width="3" stroke-miterlimit="10" stroke-linecap="round" stroke-linejoin="round"/>
<path d="M68.2595 62.6774V81.1285L52.676 90.1658V71.7147L68.2595 62.6774Z" fill="#1792FF"/>
<path d="M52.6773 71.7147V90.1658L37 81.1285L37.0938 62.6774L52.6773 71.7147Z" fill="#A4D8FF"/>
<path d="M68.2624 62.6778L52.6789 71.7151L37.0955 62.6778L52.585 53.6406L68.2624 62.6778Z" fill="white"/>
<path d="M52.5834 53.6428L37.0938 62.6801L37 81.1311L52.6773 90.1684L68.2608 81.1311V62.6801L52.5834 53.6428Z" stroke="#001423" stroke-width="3" stroke-miterlimit="10" stroke-linejoin="round"/>
<path d="M52.6783 90.1658V71.7147L37.0949 62.6774" stroke="white" stroke-width="3" stroke-miterlimit="10" stroke-linecap="round" stroke-linejoin="round"/>
<path d="M68.2595 62.6774L52.676 71.7147" stroke="white" stroke-width="3" stroke-miterlimit="10" stroke-linecap="round" stroke-linejoin="round"/>
<path d="M84.219 72.0912L84.1252 90.5422L68.5417 99.5795L68.6356 81.1284L84.219 72.0912Z" fill="#1792FF"/>
<path d="M68.6354 81.1284L68.5415 99.5795L52.958 90.5422V72.0912L68.6354 81.1284Z" fill="#A4D8FF"/>
<path d="M84.2189 72.0923L68.6354 81.1295L52.9581 72.0923L68.5415 63.055L84.2189 72.0923Z" fill="white"/>
<path d="M68.5415 63.055L52.9581 72.0923V90.5433L68.5415 99.5806L84.125 90.5433L84.2189 72.0923L68.5415 63.055Z" stroke="#001423" stroke-width="3" stroke-miterlimit="10" stroke-linejoin="round"/>
<path d="M68.5415 99.5795L68.6354 81.1284L52.958 72.0912" stroke="white" stroke-width="3" stroke-miterlimit="10" stroke-linecap="round" stroke-linejoin="round"/>
<path d="M84.22 72.0912L68.6366 81.1284" stroke="white" stroke-width="3" stroke-miterlimit="10" stroke-linecap="round" stroke-linejoin="round"/>
<path d="M100.177 81.5057L100.083 99.9567L84.4998 108.994L84.5937 90.5429L100.177 81.5057Z" fill="#1792FF"/>
<path d="M84.595 90.5429L84.5012 108.994L68.8238 99.9567L68.9177 81.5057L84.595 90.5429Z" fill="#A4D8FF"/>
<path d="M100.18 81.5061L84.5966 90.5434L68.9193 81.5061L84.5027 72.4689L100.18 81.5061Z" fill="white"/>
<path d="M84.5041 72.4689L68.9207 81.5061L68.8268 99.9572L84.5041 108.994L100.088 99.9572L100.181 81.5061L84.5041 72.4689Z" stroke="#001423" stroke-width="3" stroke-miterlimit="10" stroke-linejoin="round"/>
<path d="M84.5021 108.994L84.596 90.5429L68.9187 81.5057" stroke="white" stroke-width="3" stroke-miterlimit="10" stroke-linecap="round" stroke-linejoin="round"/>
<path d="M100.178 81.5057L84.5947 90.5429" stroke="white" stroke-width="3" stroke-miterlimit="10" stroke-linecap="round" stroke-linejoin="round"/>
<path d="M100.177 136.481L100.083 154.932L84.4998 163.97L84.5937 145.519L100.177 136.481Z" fill="#1792FF"/>
<path d="M84.595 145.519L84.5012 163.97L68.8238 154.932L68.9177 136.481L84.595 145.519Z" fill="#A4D8FF"/>
<path d="M100.18 136.482L84.5966 145.519L68.9193 136.482L84.5027 127.444L100.18 136.482Z" fill="white"/>
<path d="M84.5041 127.445L68.9207 136.482L68.8268 154.933L84.5041 163.971L100.088 154.933L100.181 136.482L84.5041 127.445Z" stroke="#001423" stroke-width="3" stroke-miterlimit="10" stroke-linejoin="round"/>
<path d="M84.5021 163.97L84.596 145.519L68.9187 136.481" stroke="white" stroke-width="3" stroke-miterlimit="10" stroke-linecap="round" stroke-linejoin="round"/>
<path d="M100.178 136.481L84.5947 145.519" stroke="white" stroke-width="3" stroke-miterlimit="10" stroke-linecap="round" stroke-linejoin="round"/>
<path d="M115.949 146.178L115.855 164.629L100.365 173.667V155.216L115.949 146.178Z" fill="#1792FF"/>
<path d="M100.367 155.216V173.667L84.6895 164.629L84.7834 146.178L100.367 155.216Z" fill="#A4D8FF"/>
<path d="M115.954 146.178L100.371 155.215L84.7876 146.178L100.277 137.141L115.954 146.178Z" fill="white"/>
<path d="M100.273 137.141L84.7835 146.178L84.6896 164.629L100.367 173.666L115.857 164.629L115.95 146.178L100.273 137.141Z" stroke="#001423" stroke-width="3" stroke-miterlimit="10" stroke-linejoin="round"/>
<path d="M100.368 173.667V155.216L84.7844 146.178" stroke="white" stroke-width="3" stroke-miterlimit="10" stroke-linecap="round" stroke-linejoin="round"/>
<path d="M115.949 146.178L100.365 155.216" stroke="white" stroke-width="3" stroke-miterlimit="10" stroke-linecap="round" stroke-linejoin="round"/>
</svg>
