<svg width="96" height="96" viewBox="0 0 96 96" fill="none" xmlns="http://www.w3.org/2000/svg">
<g clip-path="url(#clip0)">
<g opacity="0.96">
<path opacity="0.96" d="M47.9499 95.8847C74.4318 95.8847 95.8997 74.4168 95.8997 47.9349C95.8997 21.4529 74.4318 -0.0150146 47.9499 -0.0150146C21.4679 -0.0150146 0 21.4529 0 47.9349C0 74.4168 21.4679 95.8847 47.9499 95.8847Z" fill="#FDD830"/>
<path opacity="0.96" fill-rule="evenodd" clip-rule="evenodd" d="M70.2752 34.8576C69.3264 31.6425 67.3687 28.8179 64.6912 26.8011L77.1989 26.9205C74.4564 28.8799 72.4295 31.6822 71.4272 34.9003C74.3947 29.2928 83.8613 32.0715 81.8688 39.3365C80.3989 44.6965 71.8709 49.9211 70.6453 55.1947C70.6448 55.1908 70.6448 55.1868 70.6453 55.1829C70.6453 55.1829 70.6453 55.1904 70.6453 55.1936C69.5328 49.8987 61.1178 44.5131 59.7653 39.1253C57.92 31.8379 67.4133 29.2352 70.2752 34.8576ZM26.4586 62.9621C24.4416 69.904 13.712 69.7963 15.4635 60.144C16.3808 55.0848 24.6133 49.5424 26.8256 45.6277C28.8714 49.6288 36.8629 55.4955 37.5658 60.5867C38.9056 70.3029 28.1813 69.9797 26.4586 62.9621Z" fill="#D7A015"/>
<path opacity="0.96" fill-rule="evenodd" clip-rule="evenodd" d="M23.4485 6.82664C30.8946 2.37548 39.4076 0.0249939 48.0827 0.0249939C56.7578 0.0249939 65.2707 2.37548 72.7168 6.82664L69.7205 12.0149C63.186 8.08825 55.7062 6.01376 48.0827 6.01376C40.4591 6.01376 32.9793 8.08825 26.4448 12.0149L23.4485 6.82664ZM84.0096 26.3008L89.2 23.3045C93.652 30.7479 96.0031 39.259 96.0031 47.9322C96.0031 56.6055 93.652 65.1165 89.2 72.56L84.0096 69.5648C87.9372 63.0328 90.0124 55.5547 90.0124 47.9328C90.0124 40.3109 87.9372 32.8328 84.0096 26.3008ZM69.7163 83.8506L72.7125 89.04C65.2663 93.4908 56.7534 95.8411 48.0784 95.8411C39.4034 95.8411 30.8905 93.4908 23.4443 89.04L26.4405 83.8506C32.975 87.7774 40.4548 89.852 48.0784 89.852C55.7019 89.852 63.1818 87.7774 69.7163 83.8506ZM12.16 69.5616L6.9696 72.5578C2.51756 65.1144 0.166504 56.6034 0.166504 47.9301C0.166504 39.2569 2.51756 30.7458 6.9696 23.3024L12.16 26.2976C8.23235 32.8296 6.15723 40.3077 6.15723 47.9296C6.15723 55.5515 8.23235 63.0296 12.16 69.5616Z" fill="#D7A015"/>
<path d="M58.5 52.5L46 54.5L61.5 62.5L74.5 60L58.5 52.5Z" fill="white"/>
<path d="M74.5 60L61.5 62.5L56 80L68.5 78L74.5 60Z" fill="#D9D8D7"/>
<path d="M61.5 62.5L46.5 54.5L42 71.5L56 80L61.5 62.5Z" fill="#E6E4D8"/>
<path d="M48 52L39.5 60L44 78.5L53 69.5L48 52Z" fill="#E6E4D8"/>
<path d="M31 54.5L22.5 62L40 60L48 52L31 54.5Z" fill="white"/>
<path opacity="0.96" fill-rule="evenodd" clip-rule="evenodd" d="M47.9424 0.139714C50.4163 0.13907 52.8864 0.328786 55.3312 0.707181L54.2933 5.58185C54.2647 6.02131 54.0772 6.43533 53.7657 6.74663C53.4542 7.05793 53.04 7.24524 52.6005 7.27358C49.4983 7.05257 46.3843 7.05257 43.2821 7.27358C42.8427 7.24524 42.4285 7.05793 42.117 6.74663C41.8055 6.43533 41.6179 6.02131 41.5893 5.58185L40.5525 0.706114C42.9976 0.328022 45.4682 0.138663 47.9424 0.139714ZM95.8848 48.0693C95.8855 50.5424 95.6958 53.012 95.3173 55.456L90.4416 54.4202C90.002 54.3919 89.5877 54.2044 89.2761 53.8929C88.9646 53.5814 88.7772 53.1671 88.7488 52.7274C88.9701 49.626 88.9701 46.5127 88.7488 43.4112C88.7774 42.9717 88.965 42.5577 89.2765 42.2464C89.588 41.9351 90.0021 41.7478 90.4416 41.7194L95.3173 40.6826C95.6958 43.1267 95.8855 45.5962 95.8848 48.0693ZM47.9424 96C45.4686 96.0004 42.9984 95.8107 40.5536 95.4325L41.5904 90.5568C41.6176 90.117 41.8046 89.7024 42.1162 89.3908C42.4277 89.0793 42.8424 88.8923 43.2821 88.8651C46.3847 89.0859 49.499 89.0859 52.6016 88.8651C53.0414 88.8937 53.4557 89.0816 53.7671 89.3935C54.0784 89.7055 54.2655 90.1201 54.2933 90.56L55.3301 95.4357C52.8857 95.8128 50.4158 96.0014 47.9424 96ZM1.50601e-06 48.0693C-0.00053212 45.5962 0.188831 43.1267 0.566408 40.6826L5.4432 41.7184C5.88319 41.7468 6.29774 41.9346 6.60931 42.2465C6.92088 42.5585 7.10813 42.9733 7.136 43.4133C6.91468 46.5148 6.91468 49.6281 7.136 52.7296C7.10738 53.169 6.9198 53.5831 6.6083 53.8944C6.2968 54.2057 5.88267 54.393 5.4432 54.4213L0.566408 55.4581C0.188747 53.0133 -0.000616136 50.5431 1.50601e-06 48.0693Z" fill="#FFF1D9"/>
<path opacity="0.96" fill-rule="evenodd" clip-rule="evenodd" d="M81.8016 14.08C83.5485 15.8264 85.1589 17.7043 86.6187 19.697L82.4427 22.4085C82.1126 22.6996 81.6876 22.8603 81.2475 22.8603C80.8073 22.8603 80.3824 22.6996 80.0523 22.4085C78.0173 20.0618 75.818 17.8628 73.4709 15.8282C73.1798 15.4982 73.0192 15.0732 73.0192 14.633C73.0192 14.1929 73.1798 13.7679 73.4709 13.4378L76.1824 9.26291C78.1762 10.7221 80.0548 12.3326 81.8016 14.08ZM81.8016 81.7802C80.0546 83.5274 78.176 85.1378 76.1824 86.5973L73.4699 82.4224C73.1787 82.0923 73.0181 81.6673 73.0181 81.2272C73.0181 80.787 73.1787 80.3621 73.4699 80.032C75.8172 77.9977 78.0169 75.7991 80.0523 73.4528C80.383 73.1629 80.8077 73.0031 81.2475 73.0031C81.6872 73.0031 82.112 73.1629 82.4427 73.4528L86.6187 76.1642C85.1588 78.1563 83.5484 80.0334 81.8016 81.7792V81.7802ZM14.0832 81.7802C12.3358 80.034 10.725 78.1561 9.26508 76.1632L13.44 73.4506C13.77 73.1593 14.195 72.9985 14.6352 72.9985C15.0754 72.9985 15.5004 73.1593 15.8304 73.4506C17.8658 75.7974 20.0654 77.9963 22.4128 80.0309C22.7026 80.3616 22.8624 80.7864 22.8624 81.2261C22.8624 81.6658 22.7026 82.0906 22.4128 82.4213L19.7003 86.5962C17.7064 85.1367 15.8274 83.5263 14.08 81.7792L14.0832 81.7802ZM14.0832 14.08C15.83 12.333 17.7082 10.7226 19.7013 9.26291L22.4139 13.4378C22.7054 13.7677 22.8663 14.1928 22.8663 14.633C22.8663 15.0733 22.7054 15.4984 22.4139 15.8282C20.0667 17.8624 17.8674 20.061 15.8325 22.4074C15.5018 22.6976 15.0768 22.8575 14.6368 22.8575C14.1968 22.8575 13.7719 22.6976 13.4411 22.4074L9.26508 19.697C10.7238 17.7041 12.3335 15.8262 14.08 14.08H14.0832Z" fill="#D7A015"/>
<g opacity="0.96">
<path opacity="0.96" fill-rule="evenodd" clip-rule="evenodd" d="M61.4966 62.3616L55.887 81.0528L39.9936 73.0229L45.6043 54.3317L61.4966 62.3616ZM61.4966 62.3616L55.887 81.0528L39.9936 73.0229L45.6043 54.3317L61.4966 62.3616Z" fill="#F49700"/>
<path opacity="0.96" fill-rule="evenodd" clip-rule="evenodd" d="M58.8128 51.8016L74.6869 59.8528L61.4656 62.4533L45.5936 54.4L58.8128 51.8016ZM58.8128 51.8016L74.6869 59.8528L61.4656 62.4533L45.5936 54.4L58.8128 51.8016Z" fill="#F49700"/>
<path opacity="0.96" fill-rule="evenodd" clip-rule="evenodd" d="M74.6869 59.5669L69.0922 78.2741L55.8933 80.8714L61.4869 62.1632L74.6869 59.5669ZM74.6869 59.5669L69.0922 78.2741L55.8933 80.8714L61.4869 62.1632L74.6869 59.5669Z" fill="#F49700"/>
<path opacity="0.96" fill-rule="evenodd" clip-rule="evenodd" d="M69.6768 62.8576H69.6906C70.1568 62.7669 70.3509 63.3536 70.1173 64.2165C70.0397 64.6155 69.8792 64.9938 69.646 65.3268C69.4128 65.6598 69.1122 65.94 68.7637 66.1493C68.7406 66.1568 68.7171 66.1628 68.6933 66.1674C68.2272 66.2592 68.033 65.6714 68.256 64.8181C68.3356 64.4176 68.4978 64.0381 68.7321 63.7037C68.9664 63.3693 69.2678 63.0873 69.617 62.8757L69.6768 62.8576ZM63.7749 69.12H63.793H63.8037C64.2635 69.0293 64.4587 69.6149 64.2304 70.4789C64.151 70.8796 63.989 71.2594 63.7546 71.5941C63.5203 71.9287 63.2188 72.2108 62.8693 72.4224L62.8074 72.4373C62.3434 72.528 62.1419 71.9488 62.3691 71.0794C62.4485 70.6787 62.6107 70.299 62.8452 69.9646C63.0798 69.6301 63.3815 69.3483 63.7312 69.137L63.7749 69.12ZM68.512 69.6149C68.4327 70.0147 68.2711 70.3936 68.0375 70.7277C67.804 71.0617 67.5035 71.3435 67.1552 71.5552C67.1325 71.5642 67.1089 71.5707 67.0848 71.5744C66.6186 71.665 66.4256 71.0794 66.6506 70.2133C66.7303 69.8132 66.8924 69.4341 67.1265 69.1001C67.3607 68.766 67.6618 68.4844 68.0107 68.273C68.0363 68.2656 68.0597 68.2592 68.0832 68.2549C68.5493 68.1642 68.7434 68.7509 68.5098 69.616L68.512 69.6149ZM65.4027 63.7098H65.4112C65.8773 63.6181 66.0661 64.2069 65.8378 65.072C65.7594 65.4712 65.5979 65.8495 65.3638 66.1823C65.1296 66.5151 64.8282 66.795 64.4789 67.0037L64.4107 67.0218C63.9488 67.1125 63.7547 66.5258 63.9776 65.6714C64.0569 65.2711 64.2189 64.8917 64.4533 64.5576C64.6876 64.2235 64.9892 63.942 65.3387 63.7312C65.3595 63.7238 65.3809 63.7181 65.4027 63.7141V63.7098ZM66.384 73.8922C66.848 73.8016 67.0432 74.3861 66.8107 75.2522C66.7311 75.6521 66.5694 76.031 66.3359 76.3652C66.1023 76.6993 65.802 76.9814 65.4539 77.1936C65.4305 77.2018 65.4066 77.2082 65.3824 77.2128C64.9173 77.3034 64.7243 76.7168 64.9483 75.8528C65.0282 75.4524 65.1905 75.073 65.4248 74.7386C65.6591 74.4042 65.9603 74.1222 66.3093 73.9104L66.3616 73.8976H66.3808L66.384 73.8922ZM62.096 74.7509H62.1045C62.5696 74.6602 62.7594 75.2501 62.5312 76.113C62.4515 76.5132 62.2893 76.8925 62.055 77.2265C61.8207 77.5606 61.5193 77.8422 61.1701 78.0533C61.1488 78.0597 61.1285 78.0661 61.1093 78.0704C60.6432 78.16 60.4427 77.5818 60.6688 76.7114C60.7484 76.3109 60.9106 75.9314 61.1452 75.5971C61.3797 75.2629 61.6814 74.9812 62.0309 74.7701L62.096 74.7509ZM60.2411 58.6538H60.2528C61.1566 58.6151 62.0547 58.8152 62.8565 59.2341C62.9035 59.2544 62.9472 59.2768 62.9909 59.2981C63.8592 59.7376 64.177 60.1909 63.6906 60.3328C62.7639 60.3995 61.837 60.2047 61.0154 59.7706C60.9706 59.7493 60.9269 59.729 60.8832 59.7066C60.0139 59.2661 59.7035 58.8128 60.1888 58.6709L60.2411 58.6538ZM57.0293 53.5338H57.0421C57.9426 53.4974 58.8372 53.6951 59.6384 54.1077L59.7707 54.1728C60.6389 54.6122 60.9515 55.0666 60.4651 55.2096C59.5409 55.2759 58.6168 55.0807 57.7984 54.6464L57.6651 54.5813C56.7968 54.1408 56.4853 53.6874 56.9813 53.5498L57.0293 53.5338ZM56.5248 63.2533C56.5643 63.2693 56.6027 63.2874 56.64 63.3056C57.0378 63.5434 57.3487 63.9027 57.5269 64.3306C57.7051 64.7584 57.7412 65.2322 57.6299 65.6821C57.6024 65.8982 57.5264 66.1053 57.4076 66.2879C57.2889 66.4705 57.1304 66.6239 56.9441 66.7368C56.7577 66.8496 56.5483 66.9188 56.3315 66.9394C56.1146 66.9599 55.8959 66.9312 55.6917 66.8554C55.6527 66.8398 55.6146 66.822 55.5776 66.8021C55.1804 66.5639 54.8699 66.2047 54.6916 65.7773C54.5133 65.3498 54.4765 64.8765 54.5866 64.4266C54.6374 64.1282 54.7736 63.8508 54.9786 63.628C55.1836 63.4053 55.4486 63.2466 55.7418 63.1712C56.0046 63.1177 56.2774 63.1445 56.5248 63.248V63.2533ZM46.3018 68.2442C46.3419 68.2589 46.3811 68.276 46.4192 68.2954C46.8163 68.5311 47.1271 68.8882 47.3058 69.314C47.4844 69.7398 47.5214 70.2118 47.4112 70.6602C47.3856 70.8772 47.3114 71.0856 47.194 71.2698C47.0766 71.454 46.919 71.6093 46.7332 71.7241C46.5473 71.8388 46.3379 71.9101 46.1207 71.9326C45.9034 71.9551 45.6838 71.9281 45.4784 71.8538C45.44 71.8368 45.4005 71.8197 45.3621 71.8005C44.9637 71.5622 44.6519 71.2027 44.4724 70.7745C44.293 70.3463 44.2553 69.8719 44.3648 69.4208C44.4148 69.1222 44.5498 68.8445 44.7538 68.6208C44.9578 68.3972 45.222 68.2371 45.5147 68.16C45.7795 68.1069 46.0542 68.1363 46.3018 68.2442ZM53.1168 71.9882H53.1285C53.3901 71.9378 53.6607 71.9676 53.9051 72.0736C53.9446 72.0883 53.9834 72.1051 54.0213 72.1237C54.4165 72.3616 54.7256 72.7191 54.904 73.1445C55.0823 73.5699 55.1206 74.041 55.0133 74.4896C54.9875 74.707 54.9128 74.9158 54.7946 75.1003C54.6765 75.2847 54.5181 75.4399 54.3314 75.5543C54.1446 75.6687 53.9344 75.7392 53.7164 75.7606C53.4985 75.782 53.2785 75.7537 53.0731 75.6778C53.0336 75.6633 52.9951 75.6462 52.9579 75.6266C52.5609 75.388 52.2507 75.0285 52.0726 74.601C51.8945 74.1734 51.8578 73.7 51.968 73.2501C52.0178 72.9514 52.1532 72.6736 52.3576 72.4502C52.5621 72.2268 52.8269 72.0675 53.12 71.9914L53.1168 71.9882ZM48.9226 59.4282C48.9621 59.4442 49.0005 59.4634 49.0378 59.4826C49.4355 59.7172 49.7469 60.0738 49.9258 60.4995C50.1047 60.9251 50.1415 61.3971 50.0309 61.8453C50.0064 62.0628 49.9327 62.2719 49.8155 62.4568C49.6983 62.6417 49.5406 62.7975 49.3543 62.9125C49.168 63.0275 48.9581 63.0986 48.7402 63.1205C48.5224 63.1424 48.3025 63.1145 48.0971 63.0389C48.0597 63.0229 48.0192 63.0058 47.9818 62.9866C47.583 62.7487 47.271 62.3892 47.0915 61.9609C46.912 61.5326 46.8745 61.0581 46.9845 60.6069C47.0343 60.3089 47.1694 60.0317 47.3735 59.8088C47.5775 59.586 47.8419 59.4271 48.1344 59.3514C48.399 59.2973 48.6737 59.3245 48.9226 59.4293V59.4282Z" fill="#1D264A"/>
<path opacity="0.96" fill-rule="evenodd" clip-rule="evenodd" d="M61.5221 62.2368L74.6869 59.7685L61.6138 62.481L55.8635 81.0528L61.3557 62.4469L45.5936 54.3306L61.5221 62.2368Z" fill="white"/>
<path d="M48 52L39.5 60L44 78.5L53 69.5L48 52Z" fill="#D6D6D5"/>
<path d="M40 60L22.5 62L27 80L44 78.5L40 60Z" fill="#E6E4D8"/>
</g>
<g opacity="0.96">
<path opacity="0.96" fill-rule="evenodd" clip-rule="evenodd" d="M39.7718 59.9178L22.3851 61.8432L31.3835 53.296L48.7701 51.376L39.7718 59.9178ZM39.7718 59.9178L22.3851 61.8432L31.3835 53.296L48.7701 51.376L39.7718 59.9178Z" fill="#F49700"/>
<path opacity="0.96" fill-rule="evenodd" clip-rule="evenodd" d="M48.7467 51.1904L53.1072 69.9637L44.0971 78.4597L39.7355 59.6864L48.7467 51.1904ZM48.7467 51.1904L53.1072 69.9637L44.0971 78.4597L39.7355 59.6864L48.7467 51.1904Z" fill="#F49700"/>
<path opacity="0.96" fill-rule="evenodd" clip-rule="evenodd" d="M49.8038 65.8762H49.8134C50.0088 65.9751 50.1763 66.1212 50.3008 66.3014C50.4253 66.4815 50.5026 66.69 50.5259 66.9077C50.5376 66.9514 50.5483 66.9941 50.5579 67.04C50.7819 67.8159 50.6895 68.6489 50.3008 69.3568C49.9307 69.7962 49.4304 69.409 49.184 68.4928C49.1723 68.4501 49.1605 68.4096 49.152 68.3637C48.9279 67.5876 49.0199 66.7543 49.408 66.0458C49.4525 65.9844 49.5128 65.9362 49.5824 65.9064C49.6521 65.8765 49.7286 65.8661 49.8038 65.8762ZM47.36 63.9264C47.3696 63.969 47.3813 64.0128 47.3909 64.0565C47.6143 64.8283 47.5226 65.6572 47.136 66.3616C46.7648 66.7989 46.2656 66.4117 46.0203 65.5082C46.0086 65.4645 45.999 65.4208 45.9883 65.377C45.7653 64.6008 45.8573 63.768 46.2443 63.0592C46.2885 62.9951 46.3499 62.9448 46.4214 62.9141C46.4929 62.8833 46.5716 62.8733 46.6486 62.8853C46.8443 62.9858 47.0119 63.1336 47.1361 63.3151C47.2603 63.4967 47.3373 63.7065 47.36 63.9253V63.9264ZM44.2005 60.928C44.2112 60.9696 44.2219 61.0144 44.2325 61.0581C44.4564 61.8347 44.364 62.6683 43.9755 63.377C43.6053 63.8154 43.1062 63.4272 42.8619 62.5109C42.8502 62.4672 42.8395 62.4234 42.8299 62.3808C42.6065 61.6056 42.6974 60.7737 43.0827 60.065C43.1278 60.002 43.1897 59.9527 43.2613 59.923C43.3329 59.8932 43.4115 59.884 43.488 59.8965C43.6835 59.9952 43.8511 60.1414 43.9756 60.3216C44.1 60.5017 44.1774 60.7102 44.2005 60.928ZM46.4811 70.7637C46.4928 70.8096 46.5024 70.8512 46.5131 70.896C46.7369 71.6719 46.6444 72.5048 46.256 73.2128C45.8859 73.6533 45.3878 73.265 45.1392 72.3509C45.1286 72.3125 45.12 72.2752 45.1104 72.2378C44.8836 71.4565 44.9749 70.6172 45.3643 69.9029C45.4086 69.8387 45.4701 69.7883 45.5419 69.7575C45.6136 69.7267 45.6925 69.7169 45.7696 69.729C45.9649 69.829 46.1322 69.976 46.2564 70.1569C46.3807 70.3377 46.4579 70.5466 46.4811 70.7648V70.7637ZM48.2368 57.072C48.2496 57.1146 48.2603 57.1573 48.2699 57.2021C48.4927 57.9787 48.4007 58.8118 48.0139 59.521C47.6427 59.9584 47.1424 59.5712 46.8949 58.6581C46.8848 58.6198 46.8766 58.581 46.8704 58.5418C46.7564 58.1572 46.7199 57.7538 46.7631 57.355C46.8063 56.9561 46.9284 56.5699 47.1222 56.2186C47.1662 56.1544 47.2276 56.1039 47.2991 56.0732C47.3707 56.0424 47.4495 56.0326 47.5264 56.0448C47.7211 56.1432 47.888 56.2888 48.012 56.4682C48.1361 56.6476 48.2134 56.8551 48.2368 57.072ZM37.4486 55.5669H37.4571H37.472C37.792 55.6362 37.8869 55.8005 37.6853 56.0266C36.9788 56.5612 36.1383 56.8901 35.2566 56.977L35.12 56.9952C34.208 57.1018 33.744 56.8885 34.0715 56.5226C34.7787 55.9858 35.6217 55.6571 36.5056 55.5733C36.5504 55.5669 36.5963 55.5605 36.6421 55.5573C36.9114 55.5211 37.1846 55.5247 37.4528 55.568L37.4486 55.5669ZM33.6 68.4H33.6128H33.6203C33.9307 68.4724 34.2161 68.6264 34.4471 68.8459C34.6781 69.0655 34.8463 69.3427 34.9344 69.649C35.0061 69.8283 35.0385 70.0208 35.0296 70.2137C35.0206 70.4065 34.9704 70.5952 34.8823 70.767C34.7943 70.9388 34.6705 71.0898 34.5192 71.2098C34.3679 71.3297 34.1927 71.4158 34.0054 71.4624C33.9701 71.4695 33.9345 71.4748 33.8987 71.4784C33.5039 71.4957 33.1149 71.3785 32.7954 71.146C32.4758 70.9135 32.2447 70.5794 32.1398 70.1984C32.0682 70.0191 32.0362 69.8265 32.0459 69.6338C32.0556 69.441 32.1068 69.2526 32.1961 69.0814C32.2853 68.9103 32.4104 68.7604 32.5629 68.6421C32.7153 68.5237 32.8916 68.4397 33.0795 68.3957C33.1145 68.3874 33.1502 68.382 33.1862 68.3797C33.3243 68.3652 33.4639 68.372 33.6 68.4ZM40.0982 73.665C40.1699 73.8441 40.2022 74.0365 40.1927 74.2291C40.1832 74.4218 40.1321 74.6101 40.0431 74.7812C39.9541 74.9523 39.8291 75.1021 39.6768 75.2204C39.5245 75.3387 39.3484 75.4227 39.1606 75.4666C39.1243 75.4752 39.0891 75.4773 39.0539 75.4848C38.6604 75.5044 38.2721 75.3888 37.9533 75.1574C37.6346 74.9259 37.4045 74.5924 37.3014 74.2122C37.2296 74.0326 37.1972 73.8396 37.2065 73.6463C37.2158 73.453 37.2666 73.264 37.3553 73.0921C37.444 72.9201 37.5686 72.7693 37.7207 72.6497C37.8728 72.5301 38.0488 72.4446 38.2368 72.3989C38.2731 72.3904 38.3083 72.3861 38.3435 72.3808C38.486 72.3661 38.6298 72.3733 38.7701 72.4021C39.0837 72.4754 39.372 72.6308 39.6056 72.8523C39.8392 73.0739 40.0096 73.3537 40.0992 73.6629L40.0982 73.665ZM29.7792 65.6522C29.8508 65.832 29.883 66.025 29.8735 66.2183C29.8641 66.4116 29.8132 66.6006 29.7244 66.7725C29.6357 66.9444 29.511 67.0952 29.3589 67.2148C29.2068 67.3344 29.0307 67.4199 28.8427 67.4656L28.7478 67.4794C28.352 67.5002 27.9611 67.3844 27.6405 67.1514C27.3199 66.9184 27.0891 66.5823 26.9867 66.1994C26.9152 66.0204 26.8828 65.8281 26.8916 65.6355C26.9005 65.4429 26.9505 65.2544 27.0381 65.0827C27.1258 64.911 27.2492 64.76 27.4 64.6398C27.5508 64.5197 27.7256 64.4332 27.9126 64.3861C27.9499 64.3797 27.9851 64.3754 28.0192 64.3712C28.1617 64.356 28.3056 64.3628 28.4459 64.3914C28.7585 64.4657 29.0459 64.6214 29.279 64.8427C29.512 65.0639 29.6824 65.3428 29.7728 65.6512L29.7792 65.6522Z" fill="#1D264A"/>
<path opacity="0.96" fill-rule="evenodd" clip-rule="evenodd" d="M48.7723 51.3706L39.9392 59.8848L44.128 78.6357L39.7259 59.9402L22.3893 61.7824L39.776 59.7418L48.7723 51.3706Z" fill="white"/>
</g>
<path opacity="0.96" fill-rule="evenodd" clip-rule="evenodd" d="M27.7333 25.5115H31.0187V30.1803C31.0217 30.4554 30.9693 30.7284 30.8647 30.9829C30.76 31.2375 30.6053 31.4684 30.4096 31.6619C30.2225 31.8598 29.9967 32.0171 29.7462 32.1241C29.4957 32.231 29.226 32.2854 28.9536 32.2837H26.6069C26.3348 32.285 26.0653 32.2304 25.8151 32.1235C25.5648 32.0165 25.3392 31.8594 25.152 31.6619C24.9544 31.4693 24.7978 31.2388 24.6915 30.9842C24.5851 30.7296 24.5314 30.4562 24.5333 30.1803V21.2907C24.5301 21.0155 24.5824 20.7425 24.6873 20.4881C24.7921 20.2337 24.9473 20.0031 25.1435 19.8101C25.3299 19.6116 25.5554 19.4539 25.8058 19.3469C26.0562 19.2399 26.3261 19.1859 26.5984 19.1883H28.9067C29.1792 19.1856 29.4492 19.2396 29.6999 19.3466C29.9505 19.4536 30.1762 19.6115 30.3627 19.8101C30.5583 20.0034 30.7131 20.2341 30.8177 20.4885C30.9223 20.7428 30.9747 21.0156 30.9718 21.2907V23.5989H28.7893V21.9371C28.7913 21.8645 28.7788 21.7922 28.7526 21.7245C28.7264 21.6567 28.687 21.5948 28.6368 21.5424C28.586 21.4919 28.5255 21.4522 28.459 21.4257C28.3924 21.3991 28.3212 21.3862 28.2496 21.3877H27.3067C27.2351 21.3862 27.1639 21.3991 27.0973 21.4257C27.0308 21.4522 26.9703 21.4919 26.9195 21.5424C26.8187 21.6488 26.7639 21.7906 26.7669 21.9371V29.536C26.7639 29.6822 26.8187 29.8236 26.9195 29.9296C26.9697 29.9809 27.0301 30.0213 27.0968 30.0481C27.1634 30.0749 27.2349 30.0876 27.3067 30.0853H28.2454C28.3171 30.0871 28.3884 30.0742 28.455 30.0474C28.5216 30.0207 28.582 29.9805 28.6325 29.9296C28.6827 29.8773 28.7219 29.8156 28.7481 29.748C28.7743 29.6805 28.7869 29.6084 28.7851 29.536V27.6853H27.7333V25.5115ZM35.5253 32.2827C35.2533 32.2833 34.984 32.2286 34.7338 32.1216C34.4836 32.0147 34.2579 31.8579 34.0704 31.6608C33.8746 31.4674 33.7196 31.2365 33.6148 30.982C33.51 30.7275 33.4574 30.4544 33.4603 30.1792V21.2907C33.457 21.0155 33.5094 20.7425 33.6142 20.4881C33.7191 20.2337 33.8742 20.0031 34.0704 19.8101C34.2569 19.6116 34.4824 19.4539 34.7328 19.3469C34.9832 19.2399 35.253 19.1859 35.5253 19.1883H37.872C38.1445 19.1856 38.4146 19.2396 38.6652 19.3466C38.9158 19.4536 39.1415 19.6115 39.328 19.8101C39.5232 20.0038 39.6777 20.2345 39.7823 20.4888C39.8869 20.7431 39.9395 21.0157 39.9371 21.2907V30.1792C39.939 30.4542 39.8861 30.7269 39.7816 30.9813C39.677 31.2356 39.5228 31.4666 39.328 31.6608C39.1407 31.8584 38.9149 32.0156 38.6644 32.1225C38.414 32.2295 38.1443 32.284 37.872 32.2827H35.5253ZM35.6896 29.5349C35.6893 29.6806 35.7437 29.8211 35.8421 29.9285C35.8924 29.9798 35.9528 30.0202 36.0194 30.047C36.0861 30.0738 36.1575 30.0865 36.2293 30.0843H37.168C37.2397 30.0857 37.311 30.0726 37.3775 30.0458C37.444 30.0191 37.5045 29.9792 37.5552 29.9285C37.6562 29.8227 37.711 29.6811 37.7078 29.5349V21.9371C37.7112 21.7905 37.6563 21.6486 37.5552 21.5424C37.504 21.4924 37.4435 21.453 37.377 21.4265C37.3106 21.4 37.2396 21.3868 37.168 21.3877H36.2293C36.1577 21.3862 36.0865 21.3991 36.02 21.4257C35.9535 21.4522 35.893 21.4919 35.8421 21.5424C35.7417 21.649 35.687 21.7906 35.6896 21.9371V29.536V29.5349ZM42.3787 19.1883H43.4933L44.608 20.3232V30.0128H47.5424V32.2827H42.3787V19.1893V19.1883ZM49.232 32.2816V19.1893H53.6437C53.9162 19.1867 54.1863 19.2406 54.4369 19.3477C54.6875 19.4547 54.9132 19.6125 55.0998 19.8112C55.2951 20.0047 55.4498 20.2355 55.5546 20.4897C55.6594 20.744 55.7122 21.0167 55.7099 21.2917V30.1803C55.7116 30.4554 55.6585 30.728 55.5538 30.9824C55.449 31.2368 55.2947 31.4678 55.0998 31.6619C54.9124 31.8595 54.6866 32.0167 54.4362 32.1236C54.1858 32.2306 53.916 32.2851 53.6437 32.2837H49.2267L49.232 32.2816ZM51.4613 21.3867V30.08H52.9398C53.0115 30.0814 53.0827 30.0683 53.1492 30.0416C53.2157 30.0148 53.2762 29.9749 53.3269 29.9243C53.4279 29.8184 53.4827 29.6769 53.4795 29.5307V21.9371C53.4829 21.7905 53.428 21.6486 53.3269 21.5424C53.2757 21.4924 53.2152 21.453 53.1487 21.4265C53.0823 21.4 53.0113 21.3868 52.9398 21.3877H51.456L51.4613 21.3867ZM58.047 19.1883H63.2107V21.4581H60.2667V24.7936H63.2011V26.992H60.2667V30.0128H63.2011V32.2827H58.0373V19.1893L58.047 19.1883ZM69.4539 26.992H69.4774L69.3835 23.3835V19.1893H71.4955V32.2827H69.5008L67.1776 24.816H67.1541L67.248 28.4245V32.2805H65.136V19.1893H67.1307L69.4539 26.992ZM35.7216 46.2933C35.7198 46.4421 35.7756 46.5858 35.8774 46.6944C35.9287 46.7462 35.9901 46.787 36.0578 46.8141C36.1255 46.8413 36.198 46.8543 36.2709 46.8523H37.2267C37.2996 46.8543 37.3722 46.8413 37.4399 46.8141C37.5076 46.787 37.569 46.7462 37.6203 46.6944C37.6717 46.6413 37.712 46.5785 37.7387 46.5096C37.7655 46.4407 37.7781 46.3672 37.776 46.2933V43.84H39.9947V46.9525C39.9978 47.2323 39.9445 47.5099 39.838 47.7686C39.7315 48.0274 39.5741 48.2621 39.3749 48.4587C39.1848 48.66 38.9552 48.82 38.7005 48.9286C38.4457 49.0373 38.1713 49.0923 37.8944 49.0901H35.5563C35.2795 49.0922 35.0053 49.0372 34.7508 48.9285C34.4962 48.8199 34.2668 48.6599 34.0768 48.4587C33.8773 48.2623 33.7195 48.0277 33.6128 47.7689C33.5062 47.5101 33.4528 47.2324 33.456 46.9525V37.4901C33.4526 37.2102 33.5059 36.9325 33.6126 36.6737C33.7193 36.4148 33.8772 36.1802 34.0768 35.984C34.2666 35.7825 34.496 35.6223 34.7506 35.5137C35.0052 35.405 35.2795 35.3502 35.5563 35.3525H37.8944C38.1714 35.3498 38.446 35.4045 38.7008 35.5132C38.9556 35.6219 39.1852 35.7822 39.3749 35.984C39.5742 36.1805 39.7318 36.4151 39.8383 36.6739C39.9447 36.9327 39.9979 37.2103 39.9947 37.4901V40.6005H37.776V38.1472C37.7781 38.0733 37.7655 37.9998 37.7387 37.9309C37.712 37.862 37.6717 37.7992 37.6203 37.7461C37.5687 37.6946 37.5073 37.6541 37.4396 37.6269C37.372 37.5998 37.2995 37.5866 37.2267 37.5883H36.2667C36.1938 37.5863 36.1212 37.5992 36.0535 37.6264C35.9858 37.6535 35.9244 37.6943 35.8731 37.7461C35.8221 37.7995 35.782 37.8624 35.7553 37.9312C35.7286 38 35.7157 38.0734 35.7173 38.1472V46.2933H35.7216ZM46.8629 43.328H44.6336V49.088H42.3659V35.3525H44.6336V41.0859H46.8629V35.3525H49.1296V49.0827H46.8629V43.3227V43.328ZM53.8784 49.088H51.6117V35.3525H52.7638L53.8784 36.4875V49.0827V49.088ZM58.6283 43.2544V49.088H56.3606V35.3525H61.0539C61.3308 35.3501 61.6053 35.405 61.8601 35.5136C62.1149 35.6223 62.3444 35.7824 62.5344 35.984C62.7325 36.1814 62.8892 36.4162 62.9956 36.6748C63.102 36.9334 63.1559 37.2105 63.1541 37.4901V41.1115C63.1559 41.3911 63.102 41.6682 62.9956 41.9268C62.8892 42.1854 62.7325 42.4202 62.5344 42.6176C62.3438 42.8184 62.1142 42.978 61.8595 43.0866C61.6049 43.1952 61.3307 43.2505 61.0539 43.2491H58.6315L58.6283 43.2544ZM58.6283 37.5936V41.0197H60.3349C60.4078 41.0214 60.4802 41.0082 60.5479 40.9811C60.6155 40.9539 60.677 40.9134 60.7286 40.8619C60.831 40.7537 60.8869 40.6097 60.8843 40.4608V38.1472C60.8877 38.0738 60.8759 38.0004 60.8496 37.9317C60.8233 37.8631 60.7831 37.8006 60.7316 37.7482C60.68 37.6958 60.6181 37.6547 60.5498 37.6273C60.4816 37.6 60.4084 37.587 60.3349 37.5893H58.6283V37.5936Z" fill="#1D264A"/>
</g>
</g>
<defs>
<clipPath id="clip0">
<rect width="96" height="96" fill="white"/>
</clipPath>
</defs>
</svg>
