<svg xmlns="http://www.w3.org/2000/svg" viewBox="0 0 300 338.27"><path d="M276.94 215.99v-93.72c12.84-1.14 23.06-11.9 23.06-25.01 0-13.87-11.44-25.3-25.31-25.3-8.46 0-16.01 4.25-20.61 10.71l-40.7-23.45-40.43-23.37c1.51-3.21 2.36-6.78 2.36-10.55C175.31 11.43 163.87 0 150 0s-25.31 11.43-25.31 25.3c0 .94.05 1.87.16 2.79L40.22 76.93c-4.17-3.12-9.32-4.97-14.9-4.97C11.44 71.96 0 83.39 0 97.26c0 10.21 6.2 18.99 15 22.91v97.95c-8.8 3.98-15 12.86-15 23.07 0 13.87 11.44 25.11 25.32 25.11 5.54 0 10.66-1.79 14.81-4.83l84.72 48.89c-.1.92-.16 1.85-.16 2.79 0 13.87 11.43 25.11 25.31 25.11 13.88 0 25.32-11.25 25.32-25.11 0-.94-.05-1.87-.16-2.79l84.68-48.87c4.18 3.02 9.32 4.81 14.85 4.81 13.87 0 25.31-11.24 25.31-25.11 0-13.11-10.22-24.04-23.06-25.2zm-4.5-93.72v93.72c-4.71.42-9.06 2.17-12.69 4.84L175.15 172c.1-.92.16-1.85.16-2.79 0-3.81-.87-7.43-2.41-10.69l81.12-46.82c4.19 5.88 10.85 9.9 18.42 10.57zM164.88 292.75c-3.62-2.65-7.95-4.38-12.63-4.8v-93.72c4.66-.41 8.97-2.1 12.58-4.7l84.7 48.94c-.1.9-.15 1.8-.15 2.73s.05 1.83.15 2.72l-84.65 48.83zM35.44 120.25a25.32 25.32 0 0 0 10.46-8.58l81.2 46.87a24.96 24.96 0 0 0-2.41 10.69c0 3.77.85 7.34 2.35 10.54l-81.21 46.88a25.375 25.375 0 0 0-10.4-8.59v-97.81zm99.7-74.66c3.61 2.61 7.93 4.3 12.61 4.72v93.73c-7.55.68-14.19 4.74-18.38 10.64l-81.22-46.92c1.47-3.19 2.3-6.74 2.3-10.48 0-.93-.05-1.85-.15-2.75l84.84-48.94zM50.31 243.78c.09-.85.13-1.71.13-2.59 0-3.78-.84-7.38-2.34-10.61l81.28-46.84c4.19 5.83 10.83 9.82 18.37 10.49v93.72c-4.68.42-9.01 2.14-12.63 4.8l-84.81-48.97zM170.62 39.81l40.5 23.34 40.63 23.47a24.964 24.964 0 0 0-2.38 10.63c0 3.77.85 7.33 2.35 10.54l-81.13 46.82c-4.19-5.87-10.82-9.91-18.35-10.59V50.31c7.55-.67 14.19-4.66 18.38-10.5z" fill="#1b75bc"/></svg>