<?xml version="1.0" encoding="utf-8"?>
<!-- Generator: Adobe Illustrator 24.0.0, SVG Export Plug-In . SVG Version: 6.00 Build 0)  -->
<svg version="1.1" id="Layer_1" xmlns="http://www.w3.org/2000/svg" xmlns:xlink="http://www.w3.org/1999/xlink" x="0px" y="0px"
	 viewBox="0 0 200 200" style="enable-background:new 0 0 200 200;" xml:space="preserve">
<style type="text/css">
	.st0{clip-path:url(#SVGID_2_);}
	.st1{fill:#070F16;}
	.st2{fill:url(#SVGID_3_);}
	.st3{opacity:0.5;}
	.st4{fill:#FFFFFF;}
	.st5{fill:#DCE4EA;}
	.st6{fill:#3EA3FF;}
	.st7{fill:url(#SVGID_4_);}
	.st8{fill:url(#SVGID_5_);}
	.st9{fill:url(#SVGID_6_);}
	.st10{fill:url(#SVGID_7_);}
	.st11{fill:url(#SVGID_8_);}
	.st12{fill:url(#SVGID_9_);}
	.st13{fill:url(#SVGID_10_);}
	.st14{fill:url(#SVGID_11_);}
	.st15{fill:url(#SVGID_12_);}
	.st16{fill:url(#SVGID_13_);}
	.st17{fill:url(#SVGID_14_);}
	.st18{fill:url(#SVGID_15_);}
	.st19{fill:url(#SVGID_16_);}
	.st20{fill:url(#SVGID_17_);}
	.st21{fill:url(#SVGID_18_);}
	.st22{fill:url(#SVGID_19_);}
	.st23{fill:url(#SVGID_20_);}
	.st24{fill:url(#SVGID_21_);}
	.st25{fill:url(#SVGID_22_);}
	.st26{fill:url(#SVGID_23_);}
	.st27{fill:url(#SVGID_24_);}
</style>
<title>social-30</title>
<g>
	<defs>
		<rect id="SVGID_1_" width="200" height="200"/>
	</defs>
	<clipPath id="SVGID_2_">
		<use xlink:href="#SVGID_1_"  style="overflow:visible;"/>
	</clipPath>
	<g class="st0">
		<rect class="st1" width="200" height="200"/>
		
			<linearGradient id="SVGID_3_" gradientUnits="userSpaceOnUse" x1="0" y1="566" x2="200" y2="766" gradientTransform="matrix(1 0 0 1 0 -566)">
			<stop  offset="0" style="stop-color:#3EA3FF"/>
			<stop  offset="0.5" style="stop-color:#003DFF"/>
			<stop  offset="1" style="stop-color:#3EA3FF"/>
		</linearGradient>
		<path class="st2" d="M179,21v158H21V21H179z M0,0v200h200V0H0z"/>
		<g class="st3">
			<path class="st4" d="M184,159.3c0-2.8,2.2-5,5-5l0,0c2.8,0,5,2.2,5,5l0,0c0,2.8-2.2,5-5,5l0,0C186.2,164.3,184,162.1,184,159.3z"
				/>
			<path class="st4" d="M184,100c0-2.8,2.2-5,5-5l0,0c2.8,0,5,2.2,5,5l0,0c0,2.8-2.2,5-5,5l0,0C186.2,105,184,102.8,184,100z"/>
			<path class="st4" d="M184,40.7c0-2.8,2.2-5,5-5l0,0c2.8,0,5,2.2,5,5l0,0c0,2.8-2.2,5-5,5l0,0C186.2,45.7,184,43.4,184,40.7z"/>
			<path class="st4" d="M154.3,189c0-2.8,2.2-5,5-5l0,0c2.8,0,5,2.2,5,5l0,0c0,2.8-2.2,5-5,5l0,0C156.6,194,154.3,191.8,154.3,189z"
				/>
			<path class="st4" d="M95,189c0-2.8,2.2-5,5-5l0,0c2.8,0,5,2.2,5,5l0,0c0,2.8-2.2,5-5,5l0,0C97.2,194,95,191.8,95,189z"/>
			<path class="st4" d="M35.7,189c0-2.8,2.2-5,5-5l0,0c2.8,0,5,2.2,5,5l0,0c0,2.8-2.2,5-5,5l0,0C37.9,194,35.7,191.8,35.7,189z"/>
			<path class="st4" d="M6,159.3c0-2.8,2.2-5,5-5l0,0c2.8,0,5,2.2,5,5l0,0c0,2.8-2.2,5-5,5l0,0C8.2,164.3,6,162.1,6,159.3z"/>
			<path class="st4" d="M6,100c0-2.8,2.2-5,5-5l0,0c2.8,0,5,2.2,5,5l0,0c0,2.8-2.2,5-5,5l0,0C8.2,105,6,102.8,6,100z"/>
			<path class="st4" d="M6,40.7c0-2.8,2.2-5,5-5l0,0c2.8,0,5,2.2,5,5l0,0c0,2.8-2.2,5-5,5l0,0C8.2,45.7,6,43.4,6,40.7z"/>
			<path class="st4" d="M154.3,11c0-2.8,2.2-5,5-5l0,0c2.8,0,5,2.2,5,5l0,0c0,2.8-2.2,5-5,5l0,0C156.6,16,154.3,13.8,154.3,11z"/>
			<path class="st4" d="M95,11c0-2.8,2.2-5,5-5l0,0c2.8,0,5,2.2,5,5l0,0c0,2.8-2.2,5-5,5l0,0C97.2,16,95,13.8,95,11z"/>
			<path class="st4" d="M35.7,11c0-2.8,2.2-5,5-5l0,0c2.8,0,5,2.2,5,5l0,0c0,2.8-2.2,5-5,5l0,0C37.9,16,35.7,13.8,35.7,11z"/>
		</g>
		<g>
			<g>
				<path class="st4" d="M63.8,88.9h-7.6V76.8H42.5v12.1H35V57.7h7.5v12.1h13.7V57.7h7.6V88.9z"/>
				<path class="st4" d="M93.9,84h-15l-2.1,4.9h-8l13.3-31.1h8.4L104,88.9h-8L93.9,84z M91.3,77.9l-4.9-11.6l-4.9,11.6H91.3z"/>
				<path class="st4" d="M130,67.6h-7.5c0-1.6-1.8-3.7-5-3.7c-2.2,0-5,1-5,2.8c0,1.5,2.1,2.1,6.5,3.3c4.9,1.3,11.8,2.9,11.8,9.8
					c0,6-5.2,9.7-12.5,9.7c-9.8,0-13.8-6.6-13.8-11.4h7.5c0,0,0.6,4.9,6.8,4.9c3.3,0,4.6-1.4,4.6-2.7c0-2-2.6-2.7-5.5-3.3
					c-4.7-1.1-12.9-2.8-12.9-9.8c0-5.7,5.6-9.9,12.7-9.9C125.7,57.2,130,62.7,130,67.6z"/>
				<path class="st4" d="M165,88.9h-7.6V76.8h-13.7v12.1h-7.5V57.7h7.5v12.1h13.7V57.7h7.6V88.9z"/>
			</g>
			<g>
				<path class="st4" d="M71.8,115.2c0,8.6-5.5,17-16.6,17h-9.5v9.9H35V98.3h20.2C66.4,98.3,71.8,106.7,71.8,115.2z M45.6,108.1
					v14.3H54c4.2,0,7.1-2.5,7.1-7.3c0-4.7-2.9-7-7.1-7.1H45.6z"/>
				<path class="st4" d="M116.6,114.7c0,6.3-3.1,11.6-7.8,14.1l9,13.2h-13.1l-6.6-10.9h-7.7V142H79.9V98.3H101
					C109.9,98.3,116.6,105.2,116.6,114.7z M90.4,108.1v13.3h9.1c3.6,0,6.5-3,6.5-6.7c0-3.6-2.9-6.6-6.4-6.6H90.4z"/>
				<g>
					<path class="st4" d="M144.8,97.9c-0.5-0.2-1.1-0.3-1.7-0.3c-0.6,0-1.2,0.1-1.7,0.3l-18.2,7.7c-0.6,0.2-1.1,0.7-1.5,1.2
						c-0.4,0.6-0.5,1.2-0.5,1.8v23c0,0.6,0.2,1.3,0.5,1.8c0.4,0.6,0.9,1,1.5,1.2l18.2,7.7c0.5,0.2,1.1,0.3,1.7,0.3
						c0.6,0,1.2-0.1,1.7-0.3l18.2-7.7c0.6-0.2,1.1-0.7,1.5-1.2c0.4-0.6,0.5-1.2,0.5-1.8v-23c0-0.6-0.2-1.3-0.5-1.8
						c-0.4-0.6-0.9-1-1.5-1.2L144.8,97.9z"/>
					<path class="st5" d="M164.5,106.9c-0.4-0.6-0.9-1-1.5-1.2l-0.3-0.1c0.3,0.1,0.5,0.4,0.5,0.7c0,0.3-0.2,0.6-0.5,0.7l-17.9,7.6
						c-0.5,0.2-1.1,0.3-1.7,0.3c-0.6,0-1.2-0.1-1.7-0.3l-17.9-7.6c-0.3-0.1-0.5-0.4-0.5-0.7c0-0.3,0.2-0.6,0.5-0.7l7.7-3.3l-8,3.4
						c-0.6,0.2-1.1,0.7-1.5,1.2c-0.4,0.6-0.5,1.2-0.5,1.8v0c0-0.4,0.2-0.7,0.5-0.9c0.3-0.2,0.7-0.2,1-0.1l17.2,7.3
						c0.8,0.3,1.4,0.9,1.9,1.6c0.5,0.7,0.7,1.6,0.7,2.4v22.8c0,0.2-0.1,0.5-0.3,0.6c-0.2,0.1-0.4,0.2-0.6,0.1
						c0.5,0.2,0.9,0.2,1.4,0.2c0.5,0,1-0.1,1.4-0.2c-0.2,0-0.4,0-0.6-0.1c-0.2-0.1-0.3-0.4-0.3-0.6V119c0-0.8,0.2-1.7,0.7-2.4
						c0.5-0.7,1.2-1.3,1.9-1.6l17.2-7.3c0.3-0.1,0.7-0.1,1,0.1c0.3,0.2,0.5,0.6,0.5,0.9v0C165,108,164.8,107.4,164.5,106.9z"/>
					<g>
						<g>
							<path class="st6" d="M127.5,131.2c0,1.4-0.9,2.1-2,1.6c-1.1-0.5-2-1.9-2-3.3c0-1.4,0.9-2.1,2-1.6
								C126.7,128.3,127.5,129.8,127.5,131.2z"/>
							<linearGradient id="SVGID_4_" gradientUnits="userSpaceOnUse" x1="123.5923" y1="130.3189" x2="127.5357" y2="130.3189">
								<stop  offset="0" style="stop-color:#3EA3FF"/>
								<stop  offset="1" style="stop-color:#007AFF"/>
							</linearGradient>
							<path class="st7" d="M124.9,127.7c-0.8,0-1.3,0.7-1.3,1.8c0,1.4,0.9,2.8,2,3.3c0.2,0.1,0.4,0.1,0.6,0.1
								c0.8,0,1.3-0.7,1.3-1.8c0-1.4-0.9-2.8-2-3.3C125.3,127.8,125.1,127.7,124.9,127.7L124.9,127.7z"/>
						</g>
						<g>
							<path class="st6" d="M140.7,136.7c0,1.4-0.9,2.1-2,1.6c-1.1-0.5-2-1.9-2-3.3c0-1.4,0.9-2.1,2-1.6
								C139.8,133.9,140.7,135.3,140.7,136.7z"/>
							<linearGradient id="SVGID_5_" gradientUnits="userSpaceOnUse" x1="136.7387" y1="135.8606" x2="140.6825" y2="135.8606">
								<stop  offset="0" style="stop-color:#3EA3FF"/>
								<stop  offset="1" style="stop-color:#007AFF"/>
							</linearGradient>
							<path class="st8" d="M138.1,133.3c-0.8,0-1.3,0.7-1.3,1.8c0,1.4,0.9,2.8,2,3.3c0.2,0.1,0.4,0.1,0.6,0.1
								c0.8,0,1.3-0.7,1.3-1.8c0-1.4-0.9-2.8-2-3.3C138.5,133.3,138.3,133.3,138.1,133.3L138.1,133.3z"/>
						</g>
						<g>
							<path class="st6" d="M127.5,114.7c0,1.4-0.9,2.1-2,1.6c-1.1-0.5-2-1.9-2-3.3c0-1.4,0.9-2.1,2-1.6
								C126.7,111.9,127.5,113.4,127.5,114.7z"/>
							<linearGradient id="SVGID_6_" gradientUnits="userSpaceOnUse" x1="123.5923" y1="113.8865" x2="127.5357" y2="113.8865">
								<stop  offset="0" style="stop-color:#3EA3FF"/>
								<stop  offset="1" style="stop-color:#007AFF"/>
							</linearGradient>
							<path class="st9" d="M124.9,111.3c-0.8,0-1.3,0.7-1.3,1.8c0,1.4,0.9,2.8,2,3.3c0.2,0.1,0.4,0.1,0.6,0.1
								c0.8,0,1.3-0.7,1.3-1.8c0-1.4-0.9-2.8-2-3.3C125.3,111.3,125.1,111.3,124.9,111.3L124.9,111.3z"/>
						</g>
						<g>
							<path class="st6" d="M140.7,120.3c0,1.4-0.9,2.1-2,1.6c-1.1-0.5-2-1.9-2-3.3c0-1.4,0.9-2.1,2-1.6
								C139.8,117.4,140.7,118.9,140.7,120.3z"/>
							<linearGradient id="SVGID_7_" gradientUnits="userSpaceOnUse" x1="136.7387" y1="119.4301" x2="140.6825" y2="119.4301">
								<stop  offset="0" style="stop-color:#3EA3FF"/>
								<stop  offset="1" style="stop-color:#007AFF"/>
							</linearGradient>
							<path class="st10" d="M138.1,116.8c-0.8,0-1.3,0.7-1.3,1.8c0,1.4,0.9,2.8,2,3.3c0.2,0.1,0.4,0.1,0.6,0.1
								c0.8,0,1.3-0.7,1.3-1.8c0-1.4-0.9-2.8-2-3.3C138.5,116.9,138.3,116.8,138.1,116.8L138.1,116.8z"/>
						</g>
						<g>
							<path class="st6" d="M134.1,125.7c0,1.4-0.9,2.1-2,1.6c-1.1-0.5-2-1.9-2-3.3c0-1.4,0.9-2.1,2-1.6
								C133.2,122.9,134.1,124.3,134.1,125.7z"/>
							<linearGradient id="SVGID_8_" gradientUnits="userSpaceOnUse" x1="130.1664" y1="124.8747" x2="134.1098" y2="124.8747">
								<stop  offset="0" style="stop-color:#3EA3FF"/>
								<stop  offset="1" style="stop-color:#007AFF"/>
							</linearGradient>
							<path class="st11" d="M131.5,122.3c-0.8,0-1.3,0.7-1.3,1.8c0,1.4,0.9,2.8,2,3.3c0.2,0.1,0.4,0.1,0.6,0.1
								c0.8,0,1.3-0.7,1.3-1.8c0-1.4-0.9-2.8-2-3.3C131.9,122.3,131.7,122.3,131.5,122.3L131.5,122.3z"/>
						</g>
						<g>
							<path class="st6" d="M152.1,125.7c0,1.4,0.9,2.1,2,1.6c1.1-0.5,2-1.9,2-3.3c0-1.4-0.9-2.1-2-1.6
								C153,122.9,152.1,124.3,152.1,125.7z"/>
							<linearGradient id="SVGID_9_" gradientUnits="userSpaceOnUse" x1="152.0742" y1="124.8747" x2="156.0167" y2="124.8747">
								<stop  offset="0" style="stop-color:#3EA3FF"/>
								<stop  offset="1" style="stop-color:#007AFF"/>
							</linearGradient>
							<path class="st12" d="M154.7,122.3c-0.2,0-0.4,0-0.6,0.1c-1.1,0.5-2,1.9-2,3.3c0,1.1,0.6,1.8,1.3,1.8c0.2,0,0.4,0,0.6-0.1
								c1.1-0.5,2-1.9,2-3.3C156,123,155.5,122.3,154.7,122.3L154.7,122.3z"/>
						</g>
						<g>
							<path class="st6" d="M131.9,107.3c-1.1,0.5-2.9,0.5-3.9,0c-1.1-0.5-1.1-1.2,0-1.7c1.1-0.5,2.9-0.5,3.9,0
								C133,106.1,133,106.9,131.9,107.3z"/>
							<linearGradient id="SVGID_10_" gradientUnits="userSpaceOnUse" x1="127.1571" y1="106.4893" x2="132.7349" y2="106.4893">
								<stop  offset="0" style="stop-color:#3EA3FF"/>
								<stop  offset="1" style="stop-color:#007AFF"/>
							</linearGradient>
							<path class="st13" d="M129.9,105.3c-0.7,0-1.4,0.1-2,0.3c-1.1,0.5-1.1,1.2,0,1.7c0.5,0.2,1.3,0.3,2,0.3s1.4-0.1,2-0.3
								c1.1-0.5,1.1-1.2,0-1.7C131.4,105.4,130.7,105.3,129.9,105.3L129.9,105.3z"/>
						</g>
						<g>
							<path class="st6" d="M158.2,107.3c-1.1,0.5-2.9,0.5-3.9,0c-1.1-0.5-1.1-1.2,0-1.7c1.1-0.5,2.9-0.5,3.9,0
								C159.3,106.1,159.3,106.9,158.2,107.3z"/>
							<linearGradient id="SVGID_11_" gradientUnits="userSpaceOnUse" x1="153.4486" y1="106.4893" x2="159.0248" y2="106.4893">
								<stop  offset="0" style="stop-color:#3EA3FF"/>
								<stop  offset="1" style="stop-color:#007AFF"/>
							</linearGradient>
							<path class="st14" d="M156.2,105.3c-0.7,0-1.4,0.1-2,0.3c-1.1,0.5-1.1,1.2,0,1.7c0.5,0.2,1.3,0.3,2,0.3s1.4-0.1,2-0.3
								c1.1-0.5,1.1-1.2,0-1.7C157.7,105.4,157,105.3,156.2,105.3L156.2,105.3z"/>
						</g>
						<g>
							<path class="st6" d="M145.1,107.3c-1.1,0.5-2.9,0.5-3.9,0c-1.1-0.5-1.1-1.2,0-1.7c1.1-0.5,2.9-0.5,3.9,0
								C146.2,106.1,146.2,106.9,145.1,107.3z"/>
							<linearGradient id="SVGID_12_" gradientUnits="userSpaceOnUse" x1="140.303" y1="106.4893" x2="145.8806" y2="106.4893">
								<stop  offset="0" style="stop-color:#3EA3FF"/>
								<stop  offset="1" style="stop-color:#007AFF"/>
							</linearGradient>
							<path class="st15" d="M143.1,105.3c-0.7,0-1.4,0.1-2,0.3c-1.1,0.5-1.1,1.2,0,1.7c0.5,0.2,1.3,0.3,2,0.3s1.4-0.1,2-0.3
								c1.1-0.5,1.1-1.2,0-1.7C144.5,105.4,143.8,105.3,143.1,105.3L143.1,105.3z"/>
						</g>
					</g>
				</g>
			</g>
		</g>
	</g>
</g>
<path class="st4" d="M189,16c-1.3,0-2.6-0.5-3.5-1.5c-0.2-0.2-0.4-0.5-0.6-0.8c-0.2-0.3-0.3-0.6-0.5-0.9c-0.1-0.3-0.2-0.6-0.3-0.9
	c-0.1-0.3-0.1-0.7-0.1-1c0-1.3,0.5-2.6,1.5-3.5c0.2-0.2,0.5-0.4,0.8-0.6c0.3-0.2,0.6-0.3,0.9-0.5c0.3-0.1,0.6-0.2,0.9-0.3
	c0.6-0.1,1.3-0.1,1.9,0c0.3,0.1,0.6,0.2,0.9,0.3c0.3,0.1,0.6,0.3,0.9,0.5c0.3,0.2,0.5,0.4,0.8,0.6c0.9,0.9,1.5,2.2,1.5,3.5
	c0,0.3,0,0.7-0.1,1c-0.1,0.3-0.2,0.6-0.3,0.9c-0.1,0.3-0.3,0.6-0.5,0.9c-0.2,0.3-0.4,0.5-0.6,0.8c-0.2,0.2-0.5,0.5-0.8,0.6
	c-0.3,0.2-0.6,0.3-0.9,0.5c-0.3,0.1-0.6,0.2-0.9,0.3C189.7,16,189.3,16,189,16z"/>
<path class="st4" d="M184,129.7c0-2.8,2.2-5,5-5l0,0c2.8,0,5,2.2,5,5l0,0c0,2.8-2.2,5-5,5l0,0C186.2,134.7,184,132.4,184,129.7z"/>
<path class="st4" d="M184,70.3c0-2.8,2.2-5,5-5l0,0c2.8,0,5,2.2,5,5l0,0c0,2.8-2.2,5-5,5l0,0C186.2,75.3,184,73.1,184,70.3z"/>
<path class="st4" d="M189,194c-1.7,0-3.2-0.8-4.2-2.2c-0.2-0.3-0.3-0.6-0.5-0.9c-0.1-0.3-0.2-0.6-0.3-0.9c-0.1-0.3-0.1-0.7-0.1-1
	c0-2.8,2.2-5,5-5c0.7,0,1.3,0.1,1.9,0.4c0.3,0.1,0.6,0.3,0.9,0.5c0.3,0.2,0.5,0.4,0.8,0.6c0.9,0.9,1.5,2.2,1.5,3.6
	c0,0.3,0,0.7-0.1,1c-0.1,0.3-0.2,0.6-0.3,0.9c-0.1,0.3-0.3,0.6-0.5,0.9c-0.2,0.3-0.4,0.5-0.6,0.8c-0.2,0.2-0.5,0.4-0.8,0.6
	c-0.3,0.2-0.6,0.3-0.9,0.5c-0.3,0.1-0.6,0.2-0.9,0.3C189.7,194,189.3,194,189,194z"/>
<path class="st4" d="M124.7,189c0-2.8,2.2-5,5-5l0,0c2.8,0,5,2.2,5,5l0,0c0,2.8-2.2,5-5,5l0,0C126.9,194,124.7,191.8,124.7,189z"/>
<path class="st4" d="M65.3,189c0-2.8,2.2-5,5-5l0,0c2.8,0,5,2.2,5,5l0,0c0,2.8-2.2,5-5,5l0,0C67.6,194,65.3,191.8,65.3,189z"/>
<path class="st4" d="M11,194c-1.7,0-3.2-0.8-4.2-2.2c-0.2-0.3-0.3-0.6-0.5-0.9c-0.1-0.3-0.2-0.6-0.3-0.9C6,189.7,6,189.3,6,189
	c0-2.8,2.2-5,5-5c0.7,0,1.3,0.1,1.9,0.4c0.3,0.1,0.6,0.3,0.9,0.5c0.3,0.2,0.5,0.4,0.8,0.6c0.9,0.9,1.5,2.2,1.5,3.5
	c0,0.3,0,0.7-0.1,1c-0.1,0.3-0.2,0.6-0.3,0.9c-0.1,0.3-0.3,0.6-0.5,0.9c-0.2,0.3-0.4,0.5-0.6,0.8c-0.2,0.2-0.5,0.4-0.8,0.6
	c-0.3,0.2-0.6,0.3-0.9,0.5c-0.3,0.1-0.6,0.2-0.9,0.3C11.7,194,11.3,194,11,194z"/>
<path class="st4" d="M6,129.7c0-2.8,2.2-5,5-5l0,0c2.8,0,5,2.2,5,5l0,0c0,2.8-2.2,5-5,5l0,0C8.2,134.7,6,132.4,6,129.7z"/>
<path class="st4" d="M6,70.3c0-2.8,2.2-5,5-5l0,0c2.8,0,5,2.2,5,5l0,0c0,2.8-2.2,5-5,5l0,0C8.2,75.3,6,73.1,6,70.3z"/>
<path class="st4" d="M11,16c-1.3,0-2.6-0.5-3.5-1.5C7.2,14.3,7,14,6.8,13.8c-0.2-0.3-0.3-0.6-0.5-0.9c-0.1-0.3-0.2-0.6-0.3-0.9
	c-0.1-0.7-0.1-1.3,0-2c0.1-0.3,0.2-0.6,0.3-0.9c0.1-0.3,0.3-0.6,0.5-0.9C7,7.9,7.2,7.7,7.5,7.4c2-2,5.1-2,7.1,0
	C15.5,8.4,16,9.7,16,11c0,0.3,0,0.7-0.1,1c-0.1,0.3-0.2,0.6-0.3,0.9c-0.1,0.3-0.3,0.6-0.5,0.9c-0.2,0.3-0.4,0.5-0.6,0.8
	C13.6,15.5,12.3,16,11,16z"/>
<path class="st4" d="M124.7,11c0-2.8,2.2-5,5-5l0,0c2.8,0,5,2.2,5,5l0,0c0,2.8-2.2,5-5,5l0,0C126.9,16,124.7,13.8,124.7,11z"/>
<path class="st4" d="M65.3,11c0-2.8,2.2-5,5-5l0,0c2.8,0,5,2.2,5,5l0,0c0,2.8-2.2,5-5,5l0,0C67.6,16,65.3,13.8,65.3,11z"/>
<radialGradient id="SVGID_13_" cx="189" cy="190.9988" r="12.4994" gradientTransform="matrix(1 0 0 -1 0 202)" gradientUnits="userSpaceOnUse">
	<stop  offset="0.25" style="stop-color:#FFFFFF"/>
	<stop  offset="1" style="stop-color:#FFFFFF;stop-opacity:0"/>
</radialGradient>
<path class="st16" d="M189,23.5c-3.3,0-6.5-1.3-8.9-3.7c-0.6-0.6-1.1-1.2-1.6-1.9c-0.4-0.7-0.8-1.4-1.1-2.1
	c-0.3-0.7-0.5-1.5-0.7-2.3c-0.2-0.8-0.3-1.6-0.3-2.5c0-3.3,1.3-6.5,3.6-8.8c0.6-0.6,1.2-1.1,1.9-1.6c1.4-0.9,2.9-1.5,4.5-1.9
	c1.6-0.3,3.3-0.3,4.9,0c0.8,0.2,1.6,0.4,2.4,0.7c0.8,0.3,1.5,0.7,2.1,1.2c0.7,0.4,1.3,1,1.9,1.6c2.3,2.3,3.7,5.5,3.7,8.8
	c0,0.8-0.1,1.6-0.3,2.4c-0.2,0.8-0.4,1.6-0.7,2.3c-0.3,0.8-0.7,1.5-1.1,2.2c-0.4,0.7-1,1.3-1.6,1.9c-0.6,0.6-1.2,1.1-1.9,1.6
	c-0.7,0.4-1.4,0.8-2.1,1.1c-0.8,0.3-1.5,0.5-2.4,0.7C190.6,23.4,189.8,23.5,189,23.5z"/>
<radialGradient id="SVGID_14_" cx="129.66" cy="190.9988" r="12.4994" gradientTransform="matrix(1 0 0 -1 0 202)" gradientUnits="userSpaceOnUse">
	<stop  offset="0.25" style="stop-color:#FFFFFF"/>
	<stop  offset="1" style="stop-color:#FFFFFF;stop-opacity:0"/>
</radialGradient>
<path class="st17" d="M129.7,23.5c-3.3,0-6.5-1.3-8.8-3.7c-0.6-0.6-1.1-1.2-1.6-1.9c-0.4-0.7-0.8-1.4-1.2-2.1
	c-0.3-0.7-0.5-1.5-0.7-2.3c-0.2-0.8-0.3-1.6-0.3-2.4c0-3.3,1.3-6.5,3.7-8.8c0.6-0.6,1.2-1.1,1.9-1.6c1.4-0.9,2.9-1.5,4.5-1.9
	c1.6-0.3,3.3-0.3,4.9,0c0.8,0.2,1.6,0.4,2.4,0.7c0.8,0.3,1.5,0.7,2.1,1.2c0.7,0.4,1.3,1,1.9,1.6c2.3,2.3,3.7,5.5,3.7,8.8
	c0,0.8-0.1,1.6-0.3,2.4c-0.2,0.8-0.4,1.6-0.7,2.3c-0.3,0.8-0.7,1.5-1.2,2.2c-0.4,0.7-1,1.3-1.6,1.9c-0.6,0.6-1.2,1.1-1.9,1.6
	c-0.7,0.4-1.4,0.8-2.1,1.1c-0.8,0.3-1.5,0.5-2.4,0.7C131.3,23.4,130.5,23.5,129.7,23.5z"/>
<radialGradient id="SVGID_15_" cx="189" cy="131.6688" r="12.4994" gradientTransform="matrix(1 0 0 -1 0 202)" gradientUnits="userSpaceOnUse">
	<stop  offset="0.25" style="stop-color:#FFFFFF"/>
	<stop  offset="1" style="stop-color:#FFFFFF;stop-opacity:0"/>
</radialGradient>
<path class="st18" d="M189,82.8c-3.3,0-6.5-1.3-8.9-3.7c-0.6-0.6-1.1-1.2-1.6-1.9c-0.4-0.7-0.8-1.4-1.1-2.2
	c-0.3-0.7-0.5-1.5-0.7-2.3c-0.2-0.8-0.3-1.6-0.3-2.4c0-3.3,1.3-6.5,3.6-8.8c0.6-0.6,1.2-1.1,1.9-1.6c1.4-0.9,2.9-1.5,4.5-1.8
	c1.6-0.3,3.3-0.3,4.9,0c0.8,0.2,1.6,0.4,2.4,0.7c0.8,0.3,1.5,0.7,2.1,1.2c0.7,0.4,1.3,1,1.9,1.6c2.3,2.3,3.7,5.5,3.7,8.8
	c0,0.8-0.1,1.6-0.3,2.4c-0.2,0.8-0.4,1.6-0.7,2.3c-0.3,0.8-0.7,1.5-1.1,2.2c-0.4,0.7-1,1.3-1.6,1.9c-0.6,0.6-1.2,1.1-1.9,1.6
	c-0.7,0.4-1.4,0.8-2.1,1.2c-0.8,0.3-1.5,0.5-2.4,0.7C190.6,82.7,189.8,82.8,189,82.8z"/>
<radialGradient id="SVGID_16_" cx="189" cy="72.3288" r="12.4994" gradientTransform="matrix(1 0 0 -1 0 202)" gradientUnits="userSpaceOnUse">
	<stop  offset="0.25" style="stop-color:#FFFFFF"/>
	<stop  offset="1" style="stop-color:#FFFFFF;stop-opacity:0"/>
</radialGradient>
<path class="st19" d="M189,142.2c-3.3,0-6.5-1.3-8.9-3.7c-0.6-0.6-1.1-1.2-1.6-1.9c-0.4-0.7-0.8-1.4-1.1-2.1
	c-0.3-0.7-0.5-1.5-0.7-2.3c-0.2-0.8-0.3-1.6-0.3-2.4c0-3.3,1.3-6.5,3.6-8.8c0.6-0.6,1.2-1.1,1.9-1.6c1.4-0.9,2.9-1.5,4.5-1.8
	c1.6-0.3,3.3-0.3,4.9,0c0.8,0.2,1.6,0.4,2.4,0.7c0.8,0.3,1.5,0.7,2.1,1.2c0.7,0.4,1.3,1,1.9,1.6c2.3,2.3,3.7,5.5,3.7,8.8
	c0,0.8-0.1,1.6-0.3,2.4c-0.2,0.8-0.4,1.6-0.7,2.3c-0.3,0.8-0.7,1.5-1.1,2.1c-0.4,0.7-1,1.3-1.6,1.9c-0.6,0.6-1.2,1.1-1.9,1.6
	c-0.7,0.4-1.4,0.8-2.1,1.1c-0.8,0.3-1.5,0.5-2.4,0.7C190.6,142.1,189.8,142.2,189,142.2z"/>
<radialGradient id="SVGID_17_" cx="189" cy="12.9988" r="12.4994" gradientTransform="matrix(1 0 0 -1 0 202)" gradientUnits="userSpaceOnUse">
	<stop  offset="0.25" style="stop-color:#FFFFFF"/>
	<stop  offset="1" style="stop-color:#FFFFFF;stop-opacity:0"/>
</radialGradient>
<path class="st20" d="M189,201.5c-3.3,0-6.5-1.3-8.9-3.7c-0.6-0.6-1.1-1.2-1.6-1.9c-0.4-0.7-0.8-1.4-1.1-2.1
	c-0.3-0.7-0.5-1.5-0.7-2.3c-0.2-0.8-0.3-1.6-0.3-2.4c0-3.3,1.3-6.5,3.6-8.8c0.6-0.6,1.2-1.1,1.9-1.6c1.4-0.9,2.9-1.5,4.5-1.9
	c1.6-0.3,3.3-0.3,4.9,0c0.8,0.2,1.6,0.4,2.4,0.7c0.8,0.3,1.5,0.7,2.1,1.1c0.7,0.4,1.3,1,1.9,1.6c2.3,2.3,3.7,5.5,3.7,8.8
	c0,0.8-0.1,1.6-0.3,2.4c-0.2,0.8-0.4,1.6-0.7,2.3c-0.3,0.8-0.7,1.5-1.1,2.1c-0.4,0.7-1,1.3-1.6,1.9c-0.6,0.6-1.2,1.1-1.9,1.6
	c-0.7,0.4-1.4,0.8-2.1,1.1c-0.8,0.3-1.5,0.5-2.4,0.7C190.6,201.4,189.8,201.5,189,201.5z"/>
<radialGradient id="SVGID_18_" cx="11" cy="190.9988" r="12.4994" gradientTransform="matrix(1 0 0 -1 0 202)" gradientUnits="userSpaceOnUse">
	<stop  offset="0.25" style="stop-color:#FFFFFF"/>
	<stop  offset="1" style="stop-color:#FFFFFF;stop-opacity:0"/>
</radialGradient>
<path class="st21" d="M11,23.5c-3.3,0-6.5-1.3-8.9-3.7c-0.6-0.6-1.1-1.2-1.5-1.9c-0.4-0.7-0.8-1.4-1.2-2.1c-0.3-0.7-0.5-1.5-0.7-2.3
	c-0.2-0.8-0.3-1.6-0.3-2.5c0-3.3,1.3-6.5,3.7-8.8c0.6-0.6,1.2-1.1,1.9-1.6c0.7-0.4,1.4-0.8,2.1-1.2C7-0.9,7.7-1.1,8.5-1.3
	c1.6-0.3,3.3-0.3,4.9,0c0.8,0.2,1.6,0.4,2.3,0.7c0.8,0.3,1.5,0.7,2.2,1.2c0.7,0.4,1.3,1,1.9,1.6c2.3,2.3,3.7,5.5,3.7,8.8
	c0,0.8-0.1,1.6-0.3,2.4c-0.2,0.8-0.4,1.6-0.7,2.3c-0.3,0.8-0.7,1.5-1.1,2.2c-0.4,0.7-1,1.3-1.5,1.9c-0.6,0.6-1.2,1.1-1.9,1.6
	c-0.7,0.4-1.4,0.8-2.1,1.1c-0.8,0.3-1.5,0.5-2.4,0.7C12.6,23.4,11.8,23.5,11,23.5z"/>
<radialGradient id="SVGID_19_" cx="11" cy="131.6688" r="12.4994" gradientTransform="matrix(1 0 0 -1 0 202)" gradientUnits="userSpaceOnUse">
	<stop  offset="0.25" style="stop-color:#FFFFFF"/>
	<stop  offset="1" style="stop-color:#FFFFFF;stop-opacity:0"/>
</radialGradient>
<path class="st22" d="M11,82.8c-3.3,0-6.5-1.3-8.9-3.7c-0.6-0.6-1.1-1.2-1.5-1.9c-0.4-0.7-0.8-1.4-1.2-2.2c-0.3-0.7-0.5-1.5-0.7-2.3
	c-0.2-0.8-0.3-1.6-0.3-2.4c0-3.3,1.3-6.5,3.7-8.8c0.6-0.6,1.2-1.1,1.9-1.6c0.7-0.4,1.4-0.8,2.1-1.2c0.8-0.3,1.5-0.5,2.3-0.7
	c1.6-0.3,3.3-0.3,4.9,0c0.8,0.2,1.6,0.4,2.3,0.7c0.8,0.3,1.5,0.7,2.1,1.2c0.7,0.4,1.3,1,1.9,1.6c2.3,2.3,3.7,5.5,3.7,8.8
	c0,0.8-0.1,1.6-0.3,2.4c-0.2,0.8-0.4,1.6-0.7,2.3c-0.3,0.8-0.7,1.5-1.1,2.2c-0.4,0.7-1,1.3-1.5,1.9c-0.6,0.6-1.2,1.1-1.9,1.6
	c-0.7,0.4-1.4,0.8-2.1,1.2c-0.8,0.3-1.5,0.5-2.4,0.7C12.6,82.7,11.8,82.8,11,82.8z"/>
<radialGradient id="SVGID_20_" cx="11" cy="72.3288" r="12.4994" gradientTransform="matrix(1 0 0 -1 0 202)" gradientUnits="userSpaceOnUse">
	<stop  offset="0.25" style="stop-color:#FFFFFF"/>
	<stop  offset="1" style="stop-color:#FFFFFF;stop-opacity:0"/>
</radialGradient>
<path class="st23" d="M11,142.2c-3.3,0-6.5-1.3-8.9-3.7c-0.6-0.6-1.1-1.2-1.5-1.9c-0.4-0.7-0.8-1.4-1.1-2.1
	c-0.3-0.7-0.5-1.5-0.7-2.3c-0.2-0.8-0.3-1.6-0.3-2.4c0-3.3,1.3-6.5,3.7-8.8c0.6-0.6,1.2-1.1,1.9-1.6c0.7-0.4,1.4-0.8,2.2-1.2
	c0.8-0.3,1.5-0.5,2.3-0.7c1.6-0.3,3.3-0.3,4.9,0c0.8,0.2,1.6,0.4,2.3,0.7c0.8,0.3,1.5,0.7,2.1,1.2c0.7,0.4,1.3,1,1.9,1.6
	c2.3,2.3,3.7,5.5,3.7,8.8c0,0.8-0.1,1.6-0.3,2.4c-0.2,0.8-0.4,1.6-0.7,2.3c-0.3,0.8-0.7,1.5-1.1,2.1c-0.4,0.7-1,1.3-1.5,1.9
	c-0.6,0.6-1.2,1.1-1.9,1.6c-0.7,0.4-1.4,0.8-2.1,1.1c-0.8,0.3-1.5,0.5-2.4,0.7C12.6,142.1,11.8,142.2,11,142.2z"/>
<radialGradient id="SVGID_21_" cx="11" cy="12.9988" r="12.4994" gradientTransform="matrix(1 0 0 -1 0 202)" gradientUnits="userSpaceOnUse">
	<stop  offset="0.25" style="stop-color:#FFFFFF"/>
	<stop  offset="1" style="stop-color:#FFFFFF;stop-opacity:0"/>
</radialGradient>
<path class="st24" d="M11,201.5c-3.3,0-6.5-1.3-8.9-3.7c-0.6-0.6-1.1-1.2-1.5-1.9c-0.4-0.7-0.8-1.4-1.1-2.1
	c-0.3-0.7-0.5-1.5-0.7-2.3c-0.2-0.8-0.3-1.6-0.2-2.5c0-3.3,1.3-6.5,3.7-8.8c0.6-0.6,1.2-1.1,1.9-1.6c0.7-0.4,1.4-0.8,2.2-1.1
	c0.8-0.3,1.5-0.5,2.3-0.7c1.6-0.3,3.3-0.3,4.9,0c0.8,0.2,1.6,0.4,2.4,0.7c0.8,0.3,1.5,0.7,2.1,1.1c0.7,0.4,1.3,1,1.9,1.6
	c2.3,2.3,3.7,5.5,3.7,8.8c0,0.8-0.1,1.6-0.3,2.4c-0.2,0.8-0.4,1.6-0.7,2.3c-0.3,0.8-0.7,1.5-1.1,2.1c-0.4,0.7-1,1.3-1.5,1.9
	c-0.6,0.6-1.2,1.1-1.9,1.6c-0.7,0.4-1.4,0.8-2.1,1.1c-0.8,0.3-1.5,0.5-2.4,0.7C12.6,201.4,11.8,201.5,11,201.5z"/>
<radialGradient id="SVGID_22_" cx="70.33" cy="190.9988" r="12.4994" gradientTransform="matrix(1 0 0 -1 0 202)" gradientUnits="userSpaceOnUse">
	<stop  offset="0.25" style="stop-color:#FFFFFF"/>
	<stop  offset="1" style="stop-color:#FFFFFF;stop-opacity:0"/>
</radialGradient>
<path class="st25" d="M70.3,23.5c-3.3,0-6.5-1.3-8.8-3.7c-0.6-0.6-1.1-1.2-1.5-1.9c-0.4-0.7-0.8-1.4-1.2-2.1
	c-0.3-0.7-0.5-1.5-0.7-2.3c-0.2-0.8-0.3-1.6-0.3-2.5c0-3.3,1.3-6.5,3.7-8.8c0.6-0.6,1.2-1.1,1.9-1.6c1.4-0.9,2.9-1.5,4.5-1.9
	c1.6-0.3,3.3-0.3,4.9,0c0.8,0.2,1.6,0.4,2.3,0.7c0.8,0.3,1.5,0.7,2.2,1.2c0.7,0.4,1.3,1,1.9,1.6c2.3,2.3,3.7,5.5,3.7,8.8
	c0,0.8-0.1,1.6-0.3,2.4c-0.2,0.8-0.4,1.6-0.7,2.3c-0.3,0.8-0.7,1.5-1.2,2.2c-0.4,0.7-1,1.3-1.6,1.9c-0.6,0.6-1.2,1.1-1.9,1.6
	c-0.7,0.4-1.4,0.8-2.2,1.1c-0.8,0.3-1.5,0.5-2.3,0.7C72,23.4,71.1,23.5,70.3,23.5z"/>
<radialGradient id="SVGID_23_" cx="129.66" cy="12.9988" r="12.4994" gradientTransform="matrix(1 0 0 -1 0 202)" gradientUnits="userSpaceOnUse">
	<stop  offset="0.25" style="stop-color:#FFFFFF"/>
	<stop  offset="1" style="stop-color:#FFFFFF;stop-opacity:0"/>
</radialGradient>
<path class="st26" d="M129.7,201.5c-3.3,0-6.5-1.3-8.8-3.7c-0.6-0.6-1.1-1.2-1.6-1.9c-0.4-0.7-0.8-1.4-1.2-2.1
	c-0.3-0.7-0.5-1.5-0.7-2.3c-0.2-0.8-0.3-1.6-0.3-2.4c0-3.3,1.3-6.5,3.7-8.8c0.6-0.6,1.2-1.1,1.9-1.6c1.4-0.9,2.9-1.5,4.5-1.9
	c1.6-0.3,3.3-0.3,4.9,0c0.8,0.2,1.6,0.4,2.4,0.7c0.8,0.3,1.5,0.7,2.1,1.1c0.7,0.4,1.3,1,1.9,1.6c2.3,2.3,3.7,5.5,3.7,8.8
	c0,0.8-0.1,1.6-0.3,2.4c-0.2,0.8-0.4,1.6-0.7,2.3c-0.3,0.8-0.7,1.5-1.1,2.1c-0.4,0.7-1,1.3-1.6,1.9c-0.6,0.6-1.2,1.1-1.9,1.6
	c-0.7,0.4-1.4,0.8-2.1,1.1c-0.8,0.3-1.5,0.5-2.4,0.7C131.3,201.4,130.5,201.5,129.7,201.5z"/>
<radialGradient id="SVGID_24_" cx="70.33" cy="12.9988" r="12.4994" gradientTransform="matrix(1 0 0 -1 0 202)" gradientUnits="userSpaceOnUse">
	<stop  offset="0.25" style="stop-color:#FFFFFF"/>
	<stop  offset="1" style="stop-color:#FFFFFF;stop-opacity:0"/>
</radialGradient>
<path class="st27" d="M70.3,201.5c-3.3,0-6.5-1.3-8.8-3.7c-0.6-0.6-1.1-1.2-1.5-1.9c-0.4-0.7-0.8-1.4-1.2-2.1
	c-0.3-0.7-0.5-1.5-0.7-2.3c-0.2-0.8-0.3-1.6-0.3-2.4c0-3.3,1.3-6.5,3.7-8.8c0.6-0.6,1.2-1.1,1.9-1.6c1.4-0.9,2.9-1.5,4.5-1.9
	c1.6-0.3,3.3-0.3,4.9,0c0.8,0.2,1.6,0.4,2.3,0.7c0.8,0.3,1.5,0.7,2.2,1.1c0.7,0.4,1.3,1,1.9,1.6c2.3,2.3,3.7,5.5,3.7,8.8
	c0,0.8-0.1,1.6-0.3,2.4c-0.2,0.8-0.4,1.6-0.7,2.3c-0.3,0.8-0.7,1.5-1.2,2.1c-0.4,0.7-1,1.3-1.6,1.9c-0.6,0.6-1.2,1.1-1.9,1.6
	c-0.7,0.4-1.4,0.8-2.2,1.1c-0.8,0.3-1.5,0.5-2.3,0.7C72,201.4,71.1,201.5,70.3,201.5z"/>
</svg>
