<?xml version="1.0" encoding="UTF-8" standalone="no"?>
<svg
   xmlns:dc="http://purl.org/dc/elements/1.1/"
   xmlns:cc="http://creativecommons.org/ns#"
   xmlns:rdf="http://www.w3.org/1999/02/22-rdf-syntax-ns#"
   xmlns:svg="http://www.w3.org/2000/svg"
   xmlns="http://www.w3.org/2000/svg"
   viewBox="0 0 1365.3333 1365.3333"
   height="1365.3333"
   width="1365.3333"
   xml:space="preserve"
   id="svg2"
   version="1.1"><metadata
     id="metadata8"><rdf:RDF><cc:Work
         rdf:about=""><dc:format>image/svg+xml</dc:format><dc:type
           rdf:resource="http://purl.org/dc/dcmitype/StillImage" /></cc:Work></rdf:RDF></metadata><defs
     id="defs6"><clipPath
       id="clipPath18"
       clipPathUnits="userSpaceOnUse"><path
         id="path16"
         d="M 504.793,950.62 V 841.49 c 30.932,-18.189 61.864,-36.377 92.796,-54.565 v 0 c 30.932,18.188 61.864,36.376 92.796,54.565 v 0 109.13 c -30.932,18.19 -61.864,36.378 -92.796,54.566 v 0 C 566.657,986.998 535.725,968.81 504.793,950.62 m 8.169,0 c 28.21,16.588 56.418,33.175 84.627,49.762 v 0 c 28.209,-16.587 56.419,-33.174 84.627,-49.762 v 0 c -28.208,-16.586 -56.418,-33.174 -84.627,-49.761 v 0 c -28.209,16.587 -56.417,33.175 -84.627,49.761 m -4.515,-106.475 c 10e-4,49.762 0.002,99.524 0.002,99.524 v 0 c 0,0 42.743,-25.134 85.487,-50.269 v 0 -99.524 c -28.497,16.757 -56.993,33.513 -85.489,50.269 m 89.2,-94.891 c -32.358,19.125 -64.715,38.249 -97.072,57.374 v 0 c 1.372,-83.15 -1.322,-296.193 -10.887,-369.476 v 0 C 373.016,405.242 225.629,359.564 158.304,313.465 v 0 C 90.979,267.365 79.34,204.963 85.738,160.556 v 0 C 92.135,116.15 145.531,65.507 196.686,47.026 v 0 C 247.841,28.544 332.514,27.74 392.667,49.672 v 0 c 60.153,21.933 120.193,67.314 164.937,128.95 v 0 c 44.743,61.637 86.334,135.644 103.527,240.868 v 0 c 145.262,48.662 232.298,81.556 278.678,118.055 v 0 c 46.38,36.498 32.872,74.391 -0.395,100.937 v 0 c -33.267,26.544 -104.802,48.587 -199.209,58.331 v 0 C 831.296,676.775 884.609,654.042 912.128,632.2 v 0 c 27.521,-21.843 33.505,-41.676 -6.805,-66.44 v 0 C 865.012,540.995 771.396,513.2 670.265,483.613 v 0 c 6.548,55.446 18.765,212.937 19.367,323.015 v 0 C 658.97,787.503 628.308,768.379 597.647,749.254 M 496.014,413.432 c 14.07,99.932 13.201,289.013 13.908,378.36 v 0 c 27.671,-19.093 57.098,-36.515 83.792,-51.133 v 0 C 590.911,657.566 578.669,482.665 542.558,390.073 v 0 C 506.445,297.48 426.406,201.401 377.042,185.102 v 0 c 66.976,63.657 98.268,127.224 118.972,228.33 M 249.182,162.816 c -21.91,7.319 -43.784,23.236 -45.723,48.995 v 0 c 1.299,20.122 3.162,43.098 48.399,68.839 v 0 c 45.236,25.741 143.634,60.198 223.018,85.607 v 0 c -3,-28.513 -33.44,-88.508 -56.765,-121.568 v 0 C 394.786,211.63 363.079,181.548 334.924,167.902 v 0 c -15.393,-7.461 -33.036,-10.471 -49.447,-10.471 v 0 c -13.605,0 -26.364,2.068 -36.295,5.385" /></clipPath><linearGradient
       id="linearGradient28"
       spreadMethod="pad"
       gradientTransform="matrix(711.25494,711.25494,711.25494,-711.25494,98.663574,119.83282)"
       gradientUnits="userSpaceOnUse"
       y2="0"
       x2="1"
       y1="0"
       x1="0"><stop
         id="stop24"
         offset="0"
         style="stop-opacity:1;stop-color:#7e23aa" /><stop
         id="stop26"
         offset="1"
         style="stop-opacity:1;stop-color:#2796e4" /></linearGradient></defs><g
     transform="matrix(1.3333333,0,0,-1.3333333,0,1365.3333)"
     id="g10"><g
       id="g12"><g
         clip-path="url(#clipPath18)"
         id="g14"><g
           id="g20"><g
             id="g22"><path
               id="path30"
               style="fill:url(#linearGradient28);stroke:none"
               d="M 504.793,950.62 V 841.49 c 30.932,-18.189 61.864,-36.377 92.796,-54.565 v 0 c 30.932,18.188 61.864,36.376 92.796,54.565 v 0 109.13 c -30.932,18.19 -61.864,36.378 -92.796,54.566 v 0 C 566.657,986.998 535.725,968.81 504.793,950.62 m 8.169,0 c 28.21,16.588 56.418,33.175 84.627,49.762 v 0 c 28.209,-16.587 56.419,-33.174 84.627,-49.762 v 0 c -28.208,-16.586 -56.418,-33.174 -84.627,-49.761 v 0 c -28.209,16.587 -56.417,33.175 -84.627,49.761 m -4.515,-106.475 c 10e-4,49.762 0.002,99.524 0.002,99.524 v 0 c 0,0 42.743,-25.134 85.487,-50.269 v 0 -99.524 c -28.497,16.757 -56.993,33.513 -85.489,50.269 m 89.2,-94.891 c -32.358,19.125 -64.715,38.249 -97.072,57.374 v 0 c 1.372,-83.15 -1.322,-296.193 -10.887,-369.476 v 0 C 373.016,405.242 225.629,359.564 158.304,313.465 v 0 C 90.979,267.365 79.34,204.963 85.738,160.556 v 0 C 92.135,116.15 145.531,65.507 196.686,47.026 v 0 C 247.841,28.544 332.514,27.74 392.667,49.672 v 0 c 60.153,21.933 120.193,67.314 164.937,128.95 v 0 c 44.743,61.637 86.334,135.644 103.527,240.868 v 0 c 145.262,48.662 232.298,81.556 278.678,118.055 v 0 c 46.38,36.498 32.872,74.391 -0.395,100.937 v 0 c -33.267,26.544 -104.802,48.587 -199.209,58.331 v 0 C 831.296,676.775 884.609,654.042 912.128,632.2 v 0 c 27.521,-21.843 33.505,-41.676 -6.805,-66.44 v 0 C 865.012,540.995 771.396,513.2 670.265,483.613 v 0 c 6.548,55.446 18.765,212.937 19.367,323.015 v 0 C 658.97,787.503 628.308,768.379 597.647,749.254 M 496.014,413.432 c 14.07,99.932 13.201,289.013 13.908,378.36 v 0 c 27.671,-19.093 57.098,-36.515 83.792,-51.133 v 0 C 590.911,657.566 578.669,482.665 542.558,390.073 v 0 C 506.445,297.48 426.406,201.401 377.042,185.102 v 0 c 66.976,63.657 98.268,127.224 118.972,228.33 M 249.182,162.816 c -21.91,7.319 -43.784,23.236 -45.723,48.995 v 0 c 1.299,20.122 3.162,43.098 48.399,68.839 v 0 c 45.236,25.741 143.634,60.198 223.018,85.607 v 0 c -3,-28.513 -33.44,-88.508 -56.765,-121.568 v 0 C 394.786,211.63 363.079,181.548 334.924,167.902 v 0 c -15.393,-7.461 -33.036,-10.471 -49.447,-10.471 v 0 c -13.605,0 -26.364,2.068 -36.295,5.385" /></g></g></g></g></g></svg>