<?xml version="1.0"?>
<!-- Generated by SVGo -->
<svg width="220" height="220"
     xmlns="http://www.w3.org/2000/svg"
     xmlns:xlink="http://www.w3.org/1999/xlink">
<rect x="0" y="0" width="36" height="36" style="fill:rgba(255,245,249, 0)" />
<rect x="36" y="0" width="36" height="36" style="fill:rgba(232,70,134, 1)" />
<rect x="72" y="0" width="36" height="36" style="fill:rgba(232,70,134, 1)" />
<rect x="108" y="0" width="36" height="36" style="fill:rgba(232,70,134, 1)" />
<rect x="144" y="0" width="36" height="36" style="fill:rgba(232,70,134, 1)" />
<rect x="180" y="0" width="36" height="36" style="fill:rgba(255,245,249, 0)" />
<rect x="0" y="36" width="36" height="36" style="fill:rgba(232,70,134, 1)" />
<rect x="36" y="36" width="36" height="36" style="fill:rgba(232,70,134, 1)" />
<rect x="72" y="36" width="36" height="36" style="fill:rgba(232,70,134, 1)" />
<rect x="108" y="36" width="36" height="36" style="fill:rgba(232,70,134, 1)" />
<rect x="144" y="36" width="36" height="36" style="fill:rgba(232,70,134, 1)" />
<rect x="180" y="36" width="36" height="36" style="fill:rgba(232,70,134, 1)" />
<rect x="0" y="72" width="36" height="36" style="fill:rgba(255,245,249, 0)" />
<rect x="36" y="72" width="36" height="36" style="fill:rgba(255,245,249, 0)" />
<rect x="72" y="72" width="36" height="36" style="fill:rgba(232,70,134, 1)" />
<rect x="108" y="72" width="36" height="36" style="fill:rgba(232,70,134, 1)" />
<rect x="144" y="72" width="36" height="36" style="fill:rgba(255,245,249, 0)" />
<rect x="180" y="72" width="36" height="36" style="fill:rgba(255,245,249, 0)" />
<rect x="0" y="108" width="36" height="36" style="fill:rgba(232,70,134, 1)" />
<rect x="36" y="108" width="36" height="36" style="fill:rgba(232,70,134, 1)" />
<rect x="72" y="108" width="36" height="36" style="fill:rgba(232,70,134, 1)" />
<rect x="108" y="108" width="36" height="36" style="fill:rgba(232,70,134, 1)" />
<rect x="144" y="108" width="36" height="36" style="fill:rgba(232,70,134, 1)" />
<rect x="180" y="108" width="36" height="36" style="fill:rgba(232,70,134, 1)" />
<rect x="0" y="144" width="36" height="36" style="fill:rgba(255,245,249, 0)" />
<rect x="36" y="144" width="36" height="36" style="fill:rgba(255,245,249, 0)" />
<rect x="72" y="144" width="36" height="36" style="fill:rgba(232,70,134, 1)" />
<rect x="108" y="144" width="36" height="36" style="fill:rgba(232,70,134, 1)" />
<rect x="144" y="144" width="36" height="36" style="fill:rgba(255,245,249, 0)" />
<rect x="180" y="144" width="36" height="36" style="fill:rgba(255,245,249, 0)" />
<rect x="0" y="180" width="36" height="36" style="fill:rgba(232,70,134, 1)" />
<rect x="36" y="180" width="36" height="36" style="fill:rgba(255,245,249, 0)" />
<rect x="72" y="180" width="36" height="36" style="fill:rgba(255,245,249, 0)" />
<rect x="108" y="180" width="36" height="36" style="fill:rgba(255,245,249, 0)" />
<rect x="144" y="180" width="36" height="36" style="fill:rgba(255,245,249, 0)" />
<rect x="180" y="180" width="36" height="36" style="fill:rgba(232,70,134, 1)" />
</svg>
