<svg xmlns="http://www.w3.org/2000/svg" xmlns:xlink="http://www.w3.org/1999/xlink" width="24" height="24" viewBox="0 0 24 24">
    <defs>
        <path id="a" d="M9.612 10.008c.16.304.314.62.462.948.148.328.29.664.426 1.008.136-.352.28-.694.432-1.026.152-.332.308-.654.468-.966l4.488-8.832c.08-.152.162-.27.246-.354A.806.806 0 0 1 16.416.6c.104-.04.222-.064.354-.072.132-.008.286-.012.462-.012h2.096a1 1 0 0 1 1 1V17a1 1 0 0 1-1 1h-1.576a1 1 0 0 1-1-1V7.944c0-.488.024-1.016.072-1.584l-4.632 8.988c-.144.28-.338.492-.582.636a1.61 1.61 0 0 1-.834.216h-.552a1.61 1.61 0 0 1-.834-.216 1.526 1.526 0 0 1-.582-.636l-4.656-9a14.979 14.979 0 0 1 .096 1.596V17a1 1 0 0 1-1 1H1.672a1 1 0 0 1-1-1V1.516a1 1 0 0 1 1-1h2.096c.176 0 .33.004.462.012s.25.032.354.072c.104.04.198.102.282.186.084.084.166.202.246.354l4.5 8.868z"/>
    </defs>
    <g fill="none" fill-rule="evenodd" transform="translate(1.5 3)">
        <mask id="b" fill="#fff">
            <use xlink:href="#a"/>
        </mask>
        <use fill="#00D983" xlink:href="#a"/>
        <path fill="#E55541" d="M-.328-.484H10.5V19H-.328z" mask="url(#b)"/>
    </g>
</svg>
