<svg id="Layer_1" data-name="Layer 1" xmlns="http://www.w3.org/2000/svg" viewBox="0 0 2162.1 2209.19"><defs><style>.cls-1{fill:#7e6ced;}.cls-2{fill:#403ae0;}</style></defs><title>FINAL LOGO</title><path class="cls-1" d="M525.56,1125.87c-7.35,0-14.69.22-21.93.68C670,727.37,1064,446.78,1523.55,446.78c495.61,0,915,326.42,1054.87,776.05l-38.78-21.89c-6-3.38-12.06-6.8-18.15-10.08l-.9-.5-27.15-13.93-53.32-27.33-1.08-.54q-18-8.59-36.11-16.92c-5.76-2.66-44-20.45-44-20.45l-14.19-6.59-15-6.48c-18.72-8.14-39.17-16.2-62.47-24.74l-16.67-5.76-8.42-2.84-8.86-2.77-16.31-5.08-17.28-4.82c-53.43-14.4-103.19-21.82-152.19-22.68-2.77-.07-5.58-.07-8.39-.07a469.3,469.3,0,0,0-78.17,6.48,441.64,441.64,0,0,0-89,24.74,463.86,463.86,0,0,0-83.14,43.24,553.27,553.27,0,0,0-70.46,55.05c-44.47,40.79-78.45,83.42-103.23,116.15-26,34.46-48.68,67.62-70.57,99.66l-4.11,5.94c-22.86,33.52-43.49,63.62-64.59,92.5-10,13.83-20.27,27.4-31.32,41.48s-21.35,26.64-31.65,38.56c-11.7,13.57-22.25,25.24-32.58,35.93-11.74,12.24-22.65,23-33.41,32.94l-1.12,1c-3.13,3-6.23,5.72-9.79,8.86-1.44,1.26-2.88,2.52-4.32,3.82-1.19,1-2.41,1.94-3.64,3-2.38,1.94-5.69,4.64-7,5.54l-.94.65-.94.68c-10.12,7.38-16.63,10.95-20.34,12.67l-.43.18a54,54,0,0,1-13.32,4.54,27.87,27.87,0,0,1-5,.47,23.89,23.89,0,0,1-3.6-.29,57.29,57.29,0,0,1-14.65-4.72,151,151,0,0,1-23.87-14.11c-18.33-12.93-39.17-31.5-63.84-56.89s-49.43-53.54-72.73-80.29c-6-6.88-12-13.75-18-20.7-19.8-22.76-40.25-46.34-61.32-69.67-32.8-36.4-61.06-65.78-88.9-92.35-35-33.48-68.66-61.78-102.83-86.45l-.4-.29c-21.24-15.19-39.61-27.15-57.93-37.81a635.51,635.51,0,0,0-62-31.72l-.4-.14a561,561,0,0,0-65.89-24.16,478.11,478.11,0,0,0-70.32-15l-.68-.07A392.65,392.65,0,0,0,525.56,1125.87Z" transform="translate(-418.95 -446.78)"/><path class="cls-2" d="M2581.05,1871.32c-137.14,454-558.73,784.66-1057.5,784.66-610.07,0-1104.6-494.56-1104.6-1104.6q0-51.69,4.68-102.18c.79-.72,1.58-1.4,2.38-2.09q23.66-20.47,50.12-26.61a110,110,0,0,1,24.88-2.74,156.89,156.89,0,0,1,34,4,254.86,254.86,0,0,1,35.1,11.34,348.22,348.22,0,0,1,36.47,17.61A403.63,403.63,0,0,1,642,1473.43c10.3,7.34,21.35,16.13,34.71,27.62,52.5,45.69,99.63,104.85,134.95,151.4C829,1675.24,846,1698.53,864,1723.2q8.26,11.29,16.63,22.76c25,34,49.65,67.33,77.59,101.53,24.56,30,58.26,69.13,101.21,105.93a470.92,470.92,0,0,0,69.13,49.54c28.37,16.49,57.68,28.91,87,36.8a312.93,312.93,0,0,0,81.66,10.8c5.83,0,11.77-.18,17.43-.5a342.12,342.12,0,0,0,93.4-18.72c25.71-8.82,51.56-21,79.17-37.27l1.4-.83c4.93-2.92,11-6.52,17.39-10.84l3.13-2.05c4-2.63,7.92-5.22,11.81-7.92l1-.68,4.68-3.38c8.35-6.08,17-12.35,25.2-18.83,17-13.14,34.13-27.22,52-42.85,16-13.9,32.37-29.06,49.94-46.16,15.45-15.05,30.89-30.86,47.13-48.28,15.19-16.24,30-32.8,44.07-49,29.09-33.52,57.21-68.12,79.75-95.88l.32-.4c24.27-29.81,47.17-58,69.17-82.45,21.42-23.91,40.22-41.95,55.92-53.76a142.48,142.48,0,0,1,20.38-13,82.2,82.2,0,0,1,16-6.34,84.33,84.33,0,0,1,17-2.56c1.91-.11,3.82-.18,5.76-.18a129.87,129.87,0,0,1,16.31,1.12c18.36,2.34,39.17,8,61.86,16.63l9.18,3.56,13.83,5.87,14.19,6.52c15.41,7.45,27.26,13.54,38.49,19.8l9.94,5.44,33.41,19.62c5.8,3.38,11.59,6.8,17.39,10.19,9.07,5.29,18.11,10.59,27.11,16l44.07,28.16,21.49,13.68c4,2.7,8,5.47,12,8.21,2.77,1.94,5.58,3.89,8.14,5.65l42.41,29.38,40.72,30.57c57.39,44.21,106,86.56,148.56,129.4Z" transform="translate(-418.95 -446.78)"/></svg>