<?xml version="1.0" encoding="utf-8"?>
<!-- Generator: Adobe Illustrator 16.0.0, SVG Export Plug-In . SVG Version: 6.00 Build 0)  -->
<!DOCTYPE svg PUBLIC "-//W3C//DTD SVG 1.1//EN" "http://www.w3.org/Graphics/SVG/1.1/DTD/svg11.dtd">
<svg version="1.1" id="Design_x5F_1_1_" xmlns="http://www.w3.org/2000/svg" xmlns:xlink="http://www.w3.org/1999/xlink" x="0px"
	 y="0px" width="256px" height="256px" viewBox="0 0 256 256" enable-background="new 0 0 256 256" xml:space="preserve">
<g id="Shape_2">
	<g>
		<polygon fill-rule="evenodd" clip-rule="evenodd" fill="#565656" points="93.019,40.567 95.873,91.814 119.933,108.466 
			126.051,79.852 		"/>
	</g>
</g>
<g id="Shape_2_copy">
	<g>
		<polygon fill-rule="evenodd" clip-rule="evenodd" fill="#565656" points="131.148,79.594 136.345,108.36 160.913,92.425 
			165.405,41.31 		"/>
	</g>
</g>
<g id="Shape_2_copy_2">
	<g>
		<polygon fill-rule="evenodd" clip-rule="evenodd" fill="#565656" points="164.735,95.779 148.095,119.762 176.708,125.871 
			215.976,92.951 		"/>
	</g>
</g>
<g id="Shape_2_copy_3">
	<g>
		<polygon fill-rule="evenodd" clip-rule="evenodd" fill="#565656" points="176.981,131.128 148.219,136.331 164.147,160.913 
			215.258,165.4 		"/>
	</g>
</g>
<g id="Shape_2_copy_4">
	<g>
		<polygon fill-rule="evenodd" clip-rule="evenodd" fill="#565656" points="160.79,164.735 136.806,148.097 130.691,176.707 
			163.615,215.971 		"/>
	</g>
</g>
<g id="Shape_2_copy_5">
	<g>
		<polygon fill-rule="evenodd" clip-rule="evenodd" fill="#565656" points="120.418,148.389 95.831,164.317 91.346,215.432 
			125.621,177.155 		"/>
	</g>
</g>
<g id="Shape_2_copy_6">
	<g>
		<polygon fill-rule="evenodd" clip-rule="evenodd" fill="#565656" points="79.857,130.683 40.598,163.605 91.833,160.788 
			108.468,136.8 		"/>
	</g>
</g>
<g id="Shape_2_copy_7">
	<g>
		<polygon fill-rule="evenodd" clip-rule="evenodd" fill="#565656" points="92.427,95.65 41.314,91.165 79.589,125.449 
			108.355,120.242 		"/>
	</g>
</g>
<g id="Shape_2_copy_15">
	<g>
		<polygon fill-rule="evenodd" clip-rule="evenodd" fill="#565656" points="40.334,92.741 11.572,97.945 27.501,122.536 
			78.608,127.026 		"/>
	</g>
</g>
<g id="Shape_2_copy_8">
	<g>
		<polygon fill-rule="evenodd" clip-rule="evenodd" fill="#565656" points="91.201,40.973 67.187,24.305 61.081,52.945 
			94.05,92.267 		"/>
	</g>
</g>
<g id="Shape_2_copy_9">
	<g>
		<polygon fill-rule="evenodd" clip-rule="evenodd" fill="#565656" points="158.605,11.555 134.037,27.489 129.543,78.606 
			163.799,40.321 		"/>
	</g>
</g>
<g id="Shape_2_copy_10">
	<g>
		<polygon fill-rule="evenodd" clip-rule="evenodd" fill="#565656" points="203.599,61.109 164.329,94.028 215.573,91.206 
			232.214,67.222 		"/>
	</g>
</g>
<g id="Shape_2_copy_11">
	<g>
		<polygon fill-rule="evenodd" clip-rule="evenodd" fill="#565656" points="229.069,134.024 177.96,129.534 216.234,163.815 
			245,158.612 		"/>
	</g>
</g>
<g id="Shape_2_copy_12">
	<g>
		<polygon fill-rule="evenodd" clip-rule="evenodd" fill="#565656" points="162.535,164.326 165.358,215.563 189.347,232.2 
			195.458,203.59 		"/>
	</g>
</g>
<g id="Shape_2_copy_13">
	<g>
		<polygon fill-rule="evenodd" clip-rule="evenodd" fill="#565656" points="92.748,216.233 97.952,245 122.54,229.069 
			127.029,177.952 		"/>
	</g>
</g>
<g id="Shape_2_copy_14">
	<g>
		<polygon fill-rule="evenodd" clip-rule="evenodd" fill="#565656" points="40.998,165.354 24.361,189.343 52.977,195.461 
			92.24,162.537 		"/>
	</g>
</g>
<g id="Shape_2_copy_16">
	<g>
		<polygon fill-rule="evenodd" clip-rule="evenodd" fill="#565656" points="54.233,196.248 89.738,215.015 94.049,163.279 		"/>
	</g>
</g>
<g id="Shape_2_copy_17">
	<g>
		<polygon fill-rule="evenodd" clip-rule="evenodd" fill="#565656" points="27.863,123.978 39.698,162.354 79.33,128.819 		"/>
	</g>
</g>
<g id="Shape_2_copy_18">
	<g>
		<polygon fill-rule="evenodd" clip-rule="evenodd" fill="#565656" points="60.319,54.217 41.611,89.668 93.307,94.037 		"/>
	</g>
</g>
<g id="Shape_2_copy_19">
	<g>
		<polygon fill-rule="evenodd" clip-rule="evenodd" fill="#565656" points="94.257,39.656 127.749,79.328 132.563,27.827 		"/>
	</g>
</g>
<g id="Shape_2_copy_20">
	<g>
		<polygon fill-rule="evenodd" clip-rule="evenodd" fill="#565656" points="166.909,41.599 162.541,93.315 202.349,60.313 		"/>
	</g>
</g>
<g id="Shape_2_copy_21">
	<g>
		<polygon fill-rule="evenodd" clip-rule="evenodd" fill="#565656" points="216.914,94.255 177.244,127.745 228.741,132.555 		"/>
	</g>
</g>
<g id="Shape_2_copy_22">
	<g>
		<polygon fill-rule="evenodd" clip-rule="evenodd" fill="#565656" points="163.251,162.543 196.251,202.347 214.975,166.905 		"/>
	</g>
</g>
<g id="Shape_2_copy_23">
	<g>
		<polygon fill-rule="evenodd" clip-rule="evenodd" fill="#565656" points="128.823,177.237 124.014,228.731 162.322,216.907 		"/>
	</g>
</g>
</svg>
