<?xml version="1.0" encoding="UTF-8"?>
<svg width="120px" height="120px" viewBox="0 0 120 120" version="1.1" xmlns="http://www.w3.org/2000/svg" xmlns:xlink="http://www.w3.org/1999/xlink">
    <!-- Generator: Sketch 57.1 (83088) - https://sketch.com -->
    <title>newdex.io</title>
    <desc>Created with Sketch.</desc>
    <g id="newdex.io" stroke="none" stroke-width="1" fill="none" fill-rule="evenodd">
        <path d="M101.375632,42.2772573 C103.708321,47.7160374 105,53.7071748 105,60 C105,84.8528137 84.8528137,105 60,105 C44.7907781,105 31.3438584,97.4546869 23.1982808,85.9031004 L40,67 L63.0439608,82.0672051 C64.7326272,83.1713331 66.9792366,82.8450029 68.2839861,81.3060677 L68.2839861,81.3060677 Z M60,15 C73.6996429,15 85.9694541,21.121837 94.2230546,30.779132 L64,69 L40.7476602,54.6908678 C39.1441708,53.7041051 37.0696096,53.9691567 35.7657212,55.3273738 L35.7657212,55.3273738 L17.3800923,74.4791264 C15.8369447,69.9353911 15,65.065435 15,60 C15,35.1471863 35.1471863,15 60,15 Z" id="Combined-Shape" fill="#0583FF"></path>
    </g>
</svg>