<?xml version="1.0" encoding="utf-8"?>
<!-- Generator: Adobe Illustrator 20.1.0, SVG Export Plug-In . SVG Version: 6.00 Build 0)  -->
<svg version="1.1" id="图层_1" xmlns="http://www.w3.org/2000/svg" xmlns:xlink="http://www.w3.org/1999/xlink" x="0px" y="0px"
	 viewBox="0 0 560 560" style="enable-background:new 0 0 560 560;" xml:space="preserve">
<style type="text/css">
	.st0{fill:#008300;}
	.st1{fill:#FFDD00;}
	.st2{fill:#FF0009;}
	.st3{fill:#FFFFFF;}
</style>
<g>
	<rect x="-19.9" class="st0" width="609.9" height="564.5"/>
</g>
<g>
	<g>
		<rect x="474.3" y="244" class="st1" width="39.3" height="45.4"/>
		<rect x="513.7" y="244" class="st2" width="39.3" height="45.4"/>
		<rect x="474.3" y="289.4" class="st2" width="39.3" height="45.4"/>
		<rect x="513.7" y="289.4" class="st1" width="39.3" height="45.4"/>
	</g>
	<g>
		<path class="st3" d="M84.7,275.7c-2.2-5.1-5.2-9.4-9-13c-3.8-3.6-8.4-6.3-13.7-8.3c-5.3-1.9-11-2.9-17.2-2.9
			c-6.2,0-11.9,1-17.1,2.9c-5.2,1.9-9.8,4.7-13.6,8.3c-3.8,3.6-6.8,7.9-9,13c-2.2,5.1-3.2,10.8-3.2,17.1c0,6.3,1.1,12,3.2,17.1
			c2.2,5.2,5.2,9.6,9,13.3c3.8,3.7,8.4,6.5,13.6,8.5c5.2,2,11,3,17.1,3c6.2,0,11.9-1,17.2-3c5.3-2,9.8-4.9,13.7-8.5
			c3.8-3.7,6.8-8.1,9-13.3c2.2-5.2,3.2-10.9,3.2-17.1C88,286.6,86.9,280.8,84.7,275.7z M65.8,302.8c-1.1,3-2.7,5.6-4.7,7.8
			c-2,2.2-4.4,3.9-7.1,5.1s-5.8,1.8-9.2,1.8c-3.4,0-6.4-0.6-9.2-1.8s-5.1-2.9-7.1-5.1c-2-2.2-3.5-4.7-4.6-7.8
			c-1.1-3-1.7-6.3-1.7-9.9c0-3.4,0.5-6.6,1.6-9.6c1.1-3,2.6-5.5,4.6-7.6c2-2.1,4.4-3.8,7.1-5c2.8-1.2,5.8-1.8,9.2-1.8
			c3.4,0,6.4,0.6,9.2,1.8c2.8,1.2,5.2,2.9,7.1,5c2,2.1,3.5,4.7,4.6,7.6c1.1,3,1.7,6.2,1.7,9.6C67.5,296.5,67,299.8,65.8,302.8z"/>
		<polygon class="st3" points="560,226.9 95.1,226.9 95.1,334.8 115.3,334.8 115.3,289.9 148,289.9 148,273.1 115.3,273.1 
			115.3,244.3 158.2,244.3 158.2,335 178.3,335 178.3,289.8 211,289.8 211,272.9 178.3,272.9 178.3,244.3 213.7,244.3 213.7,244.3 
			560,244.3 		"/>
		<path class="st3" d="M261,274.2c-1.6-2.1-3.8-3.8-6.4-5c-2.7-1.2-5.2-1.8-7.7-1.8c-1.3,0-2.6,0.1-3.9,0.3
			c-1.3,0.2-2.5,0.7-3.5,1.3c-1,0.6-1.9,1.5-2.6,2.5c-0.7,1-1.1,2.3-1.1,3.9c0,1.3,0.3,2.5,0.8,3.4c0.6,0.9,1.4,1.7,2.5,2.4
			c1.1,0.7,2.4,1.3,3.9,1.8c1.5,0.6,3.2,1.1,5,1.7c2.7,0.9,5.5,1.9,8.4,3c2.9,1.1,5.6,2.5,8,4.3c2.4,1.8,4.4,4,5.9,6.7
			c1.6,2.7,2.4,6,2.4,9.9c0,4.6-0.8,8.5-2.5,11.8c-1.7,3.3-3.9,6.1-6.8,8.2c-2.8,2.2-6.1,3.8-9.7,4.8c-3.7,1-7.4,1.6-11.3,1.6
			c-5.7,0-11.2-1-16.5-3c-5.3-2-9.7-4.8-13.2-8.5l12.5-12.8c1.9,2.4,4.5,4.4,7.7,6c3.2,1.6,6.3,2.4,9.5,2.4c1.4,0,2.8-0.1,4.1-0.4
			c1.3-0.3,2.5-0.8,3.5-1.5c1-0.7,1.8-1.6,2.4-2.7c0.6-1.1,0.9-2.5,0.9-4c0-1.5-0.4-2.8-1.1-3.8c-0.7-1-1.8-2-3.2-2.9
			c-1.4-0.9-3.1-1.6-5.2-2.4c-2.1-0.7-4.4-1.5-7-2.3c-2.5-0.8-5-1.8-7.5-2.9c-2.4-1.1-4.6-2.6-6.5-4.3c-1.9-1.8-3.4-3.9-4.6-6.4
			c-1.2-2.5-1.7-5.5-1.7-9.1c0-4.4,0.9-8.2,2.7-11.3c1.8-3.1,4.1-5.7,7.1-7.7c2.9-2,6.2-3.5,9.9-4.4c3.7-0.9,7.4-1.4,11.1-1.4
			c4.5,0,9.1,0.8,13.7,2.5c4.7,1.6,8.8,4.1,12.3,7.3L261,274.2z"/>
		<rect x="284.3" y="251.6" class="st3" width="20.5" height="83.3"/>
		<path class="st3" d="M390.9,273.3c-2.8-5.4-6.4-9.7-11-12.9c-4.5-3.2-9.7-5.4-15.5-6.8c-5.8-1.4-11.7-2-17.6-2h-32.2v83.2h33.2
			c5.8,0,11.5-0.3,17.2-1.9c5.6-1.6,10.7-3.9,15.2-7.4c4.5-3.5,8.1-7.7,10.9-13.1c2.7-5.4,4.1-11.7,4.1-19.1
			C395,285.3,393.6,278.7,390.9,273.3z M371.5,305.2c-1.6,3.2-3.6,5.7-6.2,7.6c-2.6,1.9-5.6,3.3-8.9,4.1c-3.4,0.8-6.9,1.3-10.6,1.3
			H334v-49.9h12.3c3.5,0,6.9,0.7,10.2,1.5c3.3,0.8,6.2,2.3,8.8,4.1c2.6,1.9,4.7,4.4,6.2,7.6c1.6,3.1,2.3,7.1,2.3,11.9
			C373.8,298,373,302,371.5,305.2z"/>
		<polygon class="st3" points="402.5,334.8 402.5,251.6 459.3,251.6 459.3,268.5 422.2,268.5 422.2,284.3 457.3,284.3 457.3,300.4 
			422.2,300.4 422.2,317.6 461.5,317.6 461.5,334.8 		"/>
	</g>
</g>
</svg>
