<svg version="1.1" id="Layer_1" xmlns="http://www.w3.org/2000/svg" xmlns:xlink="http://www.w3.org/1999/xlink" x="0" y="0" viewBox="0 0 640 640" xml:space="preserve"><style>.st4{clip-path:url(#logo_3_)}</style><defs><path id="logo_1_" d="M631.4 119.3c-.6-3.2-1-5.6-1.2-6.8-.6-6.2-4.7-9.7-7.3-11.9-1.1-.9-2.6-2.3-4.3-3.7-1.2-1-29.7-24.9-80.8-48.9C490.9 26.1 415.1 0 320 0c-95.3 0-171.1 26.2-218 48.1C50.9 72 22.6 95.9 21.4 96.9c-2.4 2.1-4.3 3.6-5.2 4.4-5.1 3.6-6.1 9-6.7 12.3-.3 1.4-.6 3.4-1 5.6-.3 1.5-6.8 38.2-1.9 94.4C11 265.1 26.3 344 73.8 426.3 121.5 508.8 182 561.4 224.4 591c46.2 32.2 81.2 44.8 82.6 45.4 3.1 1.1 5.3 1.9 6.4 2.3 2.1 1 4.2 1.3 6.1 1.3 3.2 0 5.9-1 7.9-1.7 1.4-.5 3.3-1.2 5.4-1.9 1.5-.5 36.4-13.2 82.7-45.5 42.4-29.6 103-82.2 150.5-164.5 47.7-82.5 62.9-161.3 67.3-212.8 4.9-56.3-1.6-92.8-1.9-94.3zM19.6 99.5c-.2.1-.3.1-.5.2.2-.1.4-.2.5-.2zm290.6 537.2c.1.1.3.2.4.3-.1-.1-.3-.2-.4-.3zM630 116.9c-.1.4-.2.9-.3 1.3.2-.4.2-.8.3-1.3zm.2-1.3c0 .4-.1.9-.2 1.3.1-.5.2-.9.2-1.3zm0-.1c0-.5.1-1.1.1-1.6 0 .6-.1 1.1-.1 1.6z"/></defs><clipPath id="logo_3_"><use xlink:href="#logo_1_" overflow="visible"/></clipPath><g id="circle" class="st4"><circle cx="320" cy="273.5" r="465.5" fill="#8958c4"/><radialGradient id="SVGID_1_" cx="319.972" cy="273.455" r="465.455" fx="261.973" fy="276.616" gradientUnits="userSpaceOnUse"><stop offset="0" stop-color="#181424" stop-opacity=".6"/><stop offset="1" stop-color="#181424"/></radialGradient><circle cx="320" cy="273.5" r="465.5" opacity=".95" fill="url(#SVGID_1_)"/><circle cx="320" cy="273.5" r="465.5" fill="none"/></g><g id="logo" class="st4"><radialGradient id="SVGID_2_" cx="320" cy="320" r="317.605" gradientUnits="userSpaceOnUse"><stop offset="0" stop-color="#ffcb6b"/><stop offset="1" stop-color="#ffb733"/></radialGradient><path d="M631.4 119.3c-.6-3.2-1-5.6-1.2-6.8-.6-6.2-4.7-9.7-7.3-11.9-1.1-.9-2.6-2.3-4.3-3.7-1.2-1-29.7-24.9-80.8-48.9C490.9 26.1 415.1 0 320 0c-95.3 0-171.1 26.2-218 48.1C50.9 72 22.6 95.9 21.4 96.9c-2.4 2.1-4.3 3.6-5.2 4.4-5.1 3.6-6.1 9-6.7 12.3-.3 1.4-.6 3.4-1 5.6-.3 1.5-6.8 38.2-1.9 94.4C11 265.1 26.3 344 73.8 426.3 121.5 508.8 182 561.4 224.4 591c46.2 32.2 81.2 44.8 82.6 45.4 3.1 1.1 5.3 1.9 6.4 2.3 2.1 1 4.2 1.3 6.1 1.3 3.2 0 5.9-1 7.9-1.7 1.4-.5 3.3-1.2 5.4-1.9 1.5-.5 36.4-13.2 82.7-45.5 42.4-29.6 103-82.2 150.5-164.5 47.7-82.5 62.9-161.3 67.3-212.8 4.9-56.3-1.6-92.8-1.9-94.3zM116.7 76.5C160.4 56.2 231.1 32 320 32c88.7 0 159.4 24.2 203.1 44.6 18.3 8.5 33.5 17.1 45.4 24.4-35.2 4.3-85.5 15.2-133.4 42.9-40.5 23.4-71.5 54.2-93 80.3-6.9-2.5-14.3-3.9-22.1-3.9-27.9 0-51.6 17.9-60.4 42.8-30-5.2-67.4-15.6-102.7-36-58.6-33.8-96-86.3-110.4-109 9.2-7.3 33.5-24.5 70.2-41.6zm-97.1 23c-.2.1-.3.1-.5.2.2-.1.4-.2.5-.2zm81.9 310.9c-44.3-76.8-58.7-150.2-63-198.2-1.8-20.1-2-37.6-1.6-51.5 21.3 28.3 56 66.4 103.9 94.1 40.5 23.4 82.7 34.8 116.1 40.4 5.2 30.2 31.4 53.1 63.1 53.1 4 0 8-.4 11.8-1.1 10.5 28.6 20.2 66.2 20.2 107 0 67.6-26.7 126.3-39.2 150.1-10.8-4.5-37.9-16.9-71-40.1-39.5-27.8-95.8-76.9-140.3-153.8zm208.7 226.3c.1.1.3.2.4.3-.1-.1-.3-.2-.4-.3zM601.5 212c-4.2 48-18.6 121.3-63 198.3-44.4 76.9-100.8 126-140.2 153.7-16.5 11.6-31.5 20.5-43.8 27.1 13.9-32.6 29.5-81.6 29.5-137 0-46.8-11.2-89.1-23-120.7 14.1-11.7 23-29.4 23-49.2 0-15.9-5.8-30.5-15.5-41.7 19.5-23.3 47.1-50.5 82.6-71 58.6-33.8 122.8-40 149.6-41.1 1.5 11.7 4.3 41.3.8 81.6zm28.5-95.1c-.1.4-.2.9-.3 1.3.2-.4.2-.8.3-1.3zm.2-1.3c0 .4-.1.9-.2 1.3.1-.5.2-.9.2-1.3zm0-.1c0-.5.1-1.1.1-1.6 0 .6-.1 1.1-.1 1.6z" fill="url(#SVGID_2_)"/></g><path d="M320 4c94.3 0 169.6 25.9 216.1 47.6C585 74.6 613 97.4 616 100c.9.7 1.7 1.5 2.5 2.1.7.6 1.3 1.1 1.8 1.6 2.3 1.9 5.4 4.6 5.9 9.2v.2c0 .2.1.5.1.7h-.1v.4c0 .3-.1.7-.1 1.2 0 .1 0 .2-.1.3v.2c-.1.2-.1.4-.2.7 0 .2-.1.4-.1.5l1.2.4c.1.7.3 1.5.4 2.4.1.3 6.8 36.2 1.9 93.1-4.4 51.2-19.5 129.4-66.8 211.2-46.9 81.8-107 134-149.1 163.4-46.6 32.5-81.4 44.9-81.7 45-1.7.6-3.3 1.1-4.5 1.6l-.9.3-.3.1c-1.8.6-3.9 1.4-6.3 1.4-1.7 0-3.1-.3-4.4-.9l-.2-.1-.2-.1c-.4-.1-.9-.3-1.6-.6l.2-.2c-.3-.3-.6-.5-.8-.7l.4.4-.3.3c-1.1-.4-2.5-.9-4.2-1.5-.1-.1-.3-.1-.6-.2-11.5-4.4-42.3-17.7-81.1-44.7-42-29.3-102.1-81.5-149.4-163.4-47.2-81.8-62.3-159.9-66.7-211-4.9-56.1 1.8-92.9 1.8-93.3.2-.9.3-1.7.4-2.5.2-1.2.4-2.2.5-3v-.2c.5-3 1.3-7.1 5.1-9.7l.2-.1.2-.1c.3-.3.9-.7 1.5-1.2l.3-.3.2.5c-.1.1-.2.1-.3.1.1 0 .4-.1.8-.3l-.2-.8c.8-.7 1.7-1.5 2.8-2.4 3-2.5 31.1-25.5 79.7-48.2C150.3 30 225.6 4 320 4m0-4c-95.3 0-171.1 26.2-218 48.1C50.9 72 22.6 95.9 21.4 96.9c-2.4 2.1-4.3 3.6-5.2 4.4-5.1 3.6-6.1 9-6.7 12.3-.3 1.4-.6 3.4-1 5.6-.3 1.5-6.8 38.2-1.9 94.4C11 265.1 26.3 344 73.8 426.3 121.5 508.8 182 561.4 224.4 591c46.2 32.2 81.2 44.8 82.6 45.4 3.1 1.1 5.3 1.9 6.4 2.3 2.1 1 4.2 1.3 6.1 1.3 3.2 0 5.9-1 7.9-1.7 1.4-.5 3.3-1.2 5.4-1.9 1.5-.5 36.4-13.2 82.7-45.5 42.4-29.6 103-82.2 150.5-164.5 47.7-82.5 62.9-161.3 67.3-212.8 4.8-56.2-1.7-92.7-2-94.2-.6-3.2-1-5.6-1.2-6.8-.6-6.2-4.7-9.7-7.3-11.9-1.1-.9-2.6-2.3-4.3-3.7-1.2-1-29.7-24.9-80.8-48.9C490.9 26.1 415.1 0 320 0zM19.1 99.7c.2-.1.4-.2.5-.2-.2.1-.3.1-.5.2zm611.1 15.8c0-.5.1-1.1.1-1.6 0 .6-.1 1.1-.1 1.6zm-.2 1.4c.1-.5.2-.9.2-1.3 0 .4-.1.9-.2 1.3zm0 0c-.1.5-.1.9-.3 1.3.1-.4.2-.9.3-1.3zM310.6 637c-.1-.1-.3-.2-.4-.3.1.1.3.2.4.3z" fill="#181424" opacity=".25" id="logo_2_"/></svg>