<?xml version="1.0" encoding="utf-8"?>
<!-- Generator: Adobe Illustrator 23.0.0, SVG Export Plug-In . SVG Version: 6.00 Build 0)  -->
<svg version="1.1" id="Layer_1" xmlns="http://www.w3.org/2000/svg" xmlns:xlink="http://www.w3.org/1999/xlink" x="0px" y="0px"
	 viewBox="0 0 496 496" style="enable-background:new 0 0 496 496;" xml:space="preserve">
<style type="text/css">
	.st0{fill-rule:evenodd;clip-rule:evenodd;fill:#FFFFFF;}
	.st1{fill-rule:evenodd;clip-rule:evenodd;fill:#4EBFAE;}
</style>
<title>patr_logo_scatter</title>
<desc>Created with Sketch.</desc>
<g id="patr_logo_scatter">
	<rect class="st0" width="496" height="496"/>
	<g>
		<g id="Group-8" transform="translate(31.000000, 31.000000)">
			<g id="Group-3">
				<path id="Fill-1" class="st1" d="M347.6,434H86.4C38.7,434,0,395.3,0,347.6V86.4C0,38.7,38.7,0,86.4,0h261.2
					C395.3,0,434,38.7,434,86.4v261.2C434,395.3,395.3,434,347.6,434"/>
			</g>
			<path id="Fill-4" class="st0" d="M266.6,197.1c0,6.2-4.5,9.9-8.3,12l-63.5,34.3c-1.5,0.8-3.2,1.2-4.8,1.2c-3.6,0-7.1-1.9-8.9-5.3
				c-2.7-4.9-0.8-11,4.1-13.7l52.4-28.3l-52.2-26.6c-5-2.5-7-8.6-4.4-13.6c2.6-5,8.7-6.9,13.7-4.4l63.5,32.4c0,0,0.1,0,0.1,0.1
				C263.7,188.1,266.6,192.1,266.6,197.1"/>
			<path id="Fill-6" class="st0" d="M322.3,253.7c0,14.9-11.9,27.1-26.6,27.1h-88.9c-13.6,0-26.7,4.3-37.7,12.4
				c-0.2,0.2-0.4,0.3-0.6,0.5l-48.1,42.1c-2,1.8-4.9,1.9-6.8,0.4c-0.9-0.7-1.9-2-1.9-4.1V135.7c0-14.9,11.9-27.1,26.6-27.1h157.4
				c14.7,0,26.6,12.2,26.6,27.1V253.7z M295.7,89.6H138.3c-25,0-45.3,20.7-45.3,46.1V332c0,7.4,3.2,14.3,8.9,19
				c4.3,3.5,9.5,5.2,14.7,5.2c5.7,0,11.3-2,15.9-6.1l47.8-41.9c7.8-5.6,16.9-8.6,26.4-8.6h88.9c25,0,45.3-20.7,45.3-46.1V135.7
				C341,110.3,320.7,89.6,295.7,89.6L295.7,89.6z"/>
		</g>
	</g>
</g>
</svg>
