<?xml version="1.0" encoding="utf-8"?>
<!-- Generator: Adobe Illustrator 22.0.1, SVG Export Plug-In . SVG Version: 6.00 Build 0)  -->
<svg version="1.1" id="Layer_1" xmlns="http://www.w3.org/2000/svg" xmlns:xlink="http://www.w3.org/1999/xlink" x="0px" y="0px"
	 viewBox="0 0 107.8 124.5" style="enable-background:new 0 0 107.8 124.5;" xml:space="preserve">
<style type="text/css">
	.st0{fill:#4979BD;}
	.st1{fill:#D16161;}
	.st2{fill:#D65050;}
	.st3{fill:#E6E7E8;}
	.st4{fill:#F1F2F2;}
	.st5{fill:#EA5757;}
	.st6{fill:#D45757;}
	.st7{fill:#4F81BD;}
	.st8{fill:#4471A6;}
</style>
<g>
	<polygon class="st0" points="27,15.6 0,31.1 0,62.2 0,93.4 0,93.4 27,108.9 27,77.8 27,77.8 27,46.7 27,46.7 	"/>
	<polygon class="st0" points="27,108.9 53.9,93.4 27,77.8 	"/>
	<polygon class="st1" points="80.9,77.8 53.9,62.2 80.9,46.7 	"/>
	<g>
		<polygon class="st2" points="80.9,77.8 80.9,46.7 53.9,62.2 		"/>
	</g>
	<g>
		<polygon class="st3" points="53.9,62.2 53.9,31.1 27,46.7 		"/>
		<g>
			
				<image style="overflow:visible;enable-background:new    ;" width="417" height="433" xlink:href="DDEE294B35A11C26.png"  transform="matrix(0.2377 0 0 0.2377 -9.0475 -4.7395)">
			</image>
		</g>
	</g>
	<g>
		<polygon class="st4" points="53.9,93.4 53.9,62.2 27,77.8 		"/>
	</g>
	<g>
		<polygon class="st5" points="53.9,124.5 53.9,93.4 27,108.9 		"/>
		<polygon class="st5" points="27,77.8 27,108.9 53.9,93.4 		"/>
	</g>
	<polygon class="st6" points="80.9,46.7 80.9,77.8 80.9,77.8 53.9,93.4 53.9,93.4 53.9,124.5 80.9,108.9 80.9,108.9 80.9,108.9 
		107.8,93.4 107.8,93.4 107.8,93.4 107.8,62.2 107.8,31.1 	"/>
	<polygon class="st5" points="80.9,15.6 53.9,31.1 80.9,46.7 107.8,31.1 	"/>
	<polygon class="st7" points="27,46.7 27,77.8 53.9,62.2 	"/>
	<polygon class="st3" points="53.9,31.1 53.9,62.2 80.9,46.7 	"/>
	<polygon class="st3" points="53.9,62.2 53.9,93.4 80.9,77.8 	"/>
	<g>
		<polygon class="st0" points="27,77.8 23.6,75.9 27,77.8 26.9,46.7 27,46.7 0,31.1 0,62.2 16.8,52.5 0,62.3 0,62.2 0,62.3 0,62.3 
			0,62.3 0,93.4 16.8,83.6 0,93.4 27,108.9 26.9,77.8 		"/>
	</g>
	<polygon class="st8" points="53.9,0 53.9,23.4 53.9,0 27,15.6 27,15.6 27,15.6 26.9,15.6 27,15.6 27,38.9 26.9,15.6 0,31.1 
		27,46.7 27,46.7 27,46.7 27,46.7 27,46.7 53.9,31.1 50.5,29.2 53.9,31.1 53.9,31.1 53.9,31.1 53.9,31.1 53.9,31.1 80.9,15.6 	"/>
</g>
</svg>
