<?xml version="1.0" encoding="UTF-8"?>
<!DOCTYPE svg PUBLIC "-//W3C//DTD SVG 1.1//EN" "http://www.w3.org/Graphics/SVG/1.1/DTD/svg11.dtd">
<!-- Creator: CorelDRAW -->
<svg xmlns="http://www.w3.org/2000/svg" xml:space="preserve" width="129.357mm" height="129.357mm" style="shape-rendering:geometricPrecision; text-rendering:geometricPrecision; image-rendering:optimizeQuality; fill-rule:evenodd; clip-rule:evenodd"
viewBox="0 0 129.357 129.357"
 xmlns:xlink="http://www.w3.org/1999/xlink">
 <defs>
  <style type="text/css">
   <![CDATA[
    .fil0 {fill:white}
    .fil1 {fill:url(#id0)}
   ]]>
  </style>
  <linearGradient id="id0" gradientUnits="userSpaceOnUse" x1="83.1074" y1="35.9111" x2="41.2696" y2="92.5887">
   <stop offset="0" style="stop-color:#FFCC00"/>
   <stop offset="1" style="stop-color:#FF6600"/>
  </linearGradient>
 </defs>
 <g id="Слой_x0020_1">
  <metadata id="CorelCorpID_0Corel-Layer"/>
  <path class="fil0" d="M29.5382 0l70.2808 0c16.2462,0 29.5382,13.292 29.5382,29.5382l0 70.2808c0,16.2462 -13.292,29.5382 -29.5382,29.5382l-70.2808 0c-16.2462,0 -29.5382,-13.292 -29.5382,-29.5382l0 -70.2808c0,-16.2462 13.292,-29.5382 29.5382,-29.5382z"/>
  <path class="fil1" d="M64.9425 18.464c8.6121,0 16.6785,2.3311 23.6077,6.393 3.3405,-3.5262 7.0142,-6.5693 10.9459,-8.3273 1.2951,5.1924 0.8055,10.7579 -0.7852,16.3542 6.6102,6.9007 11.1247,15.8244 12.5237,25.7489 0.3639,11.1852 -21.2104,13.8083 -24.5988,15.1146 -3.5429,-1.3873 -3.7862,-2.0904 -5.6255,-1.2471 -1.1845,0.5431 -2.6074,1.2689 -4.002,2.0999 -2.0045,-1.782 -4.0381,-3.5956 -6.0801,-5.4182 8.5552,-10.8409 26.9463,-32.5718 24.3209,-48.7143 -15.604,9.0119 -25.506,28.1399 -33.0073,40.963 -7.813,-6.9601 -15.3102,-13.5789 -21.2942,-18.5614 1.2334,-5.0832 6.8608,-4.068 7.7577,1.2458l12.1902 9.2551c-2.0789,-10.8214 -11.3666,-19.3813 -19.2647,-23.1966 0.1982,5.3527 -7.172,8.7665 -15.5866,9.1007 8.3844,-12.5464 22.6756,-20.8103 38.8983,-20.8103zm-44.5748 20.0319c3.6147,10.5263 8.8268,18.1215 20.6186,23.8697 -12.4938,-2.1815 -23.0075,-12.7965 -28.2078,-26.2883 1.7395,0.9978 6.4828,2.7683 7.5892,2.4186zm65.9072 -2.2423c-11.3862,16.543 -26.1088,40.759 -30.8237,40.7358 0.5119,4.5283 -2.3266,7.6938 -3.4108,10.3758 2.1175,-1.4564 4.377,-5.9583 8.5833,-6.1353 -1.179,-4.3524 12.3279,-20.4149 25.6512,-44.9763zm17.5864 54.8749c-8.3815,12.5639 -22.6826,20.8416 -38.9188,20.8416 -6.1403,0 -12.0035,-1.1854 -17.3748,-3.3375 0.0094,-0.0637 0.031,-0.1228 0.0678,-0.1761 1.3363,0.1791 2.5809,-1.1068 3.1899,-2.7351 2.7946,-0.495 2.9235,-2.9611 2.0301,-5.1042 2.9307,-0.5466 3.5769,-2.9373 0.8977,-4.5766 -0.2246,-0.1374 -0.4885,-0.2857 -0.7837,-0.442 0.9644,-0.7075 1.9409,-1.0466 2.8957,-0.8365 2.5881,0.5694 6.4616,3.4173 9.6098,1.3388 -4.9644,-3.0216 -5.9531,-3.2399 -9.6525,-6.1208 2.5666,-3.0564 3.6181,-2.9905 7.9629,-3.7494 -1.1675,-3.6073 2.8854,-11.2063 3.9442,-12.7888 0.2201,-0.3288 0.4756,-0.6903 0.7579,-1.0774 1.7435,1.5242 3.4786,3.0394 5.1927,4.5326 -0.3314,0.2738 -0.642,0.5507 -0.9251,0.8291 -2.3115,2.2732 -1.0002,4.5823 2.161,4.4956 -0.339,2.3952 0.4607,4.896 3.4676,4.7864 1.0668,1.5354 2.694,2.5794 4.0197,2.1004 2.7526,2.4502 4.3516,1.8605 5.8006,0.2753 1.8962,1.5962 3.6987,3.0934 5.3805,4.4631 1.6311,-0.1901 2.516,-1.0328 2.4057,-2.7432 -1.7253,-1.4365 -3.5776,-3.0103 -5.5257,-4.6878 0.0561,-0.0743 0.1124,-0.1486 0.1694,-0.2226 6.9569,-3.2382 15.1624,-1.8547 13.2274,4.9351zm-73.0284 6.0607c-7.8407,-8.3612 -12.6435,-19.6053 -12.6435,-31.9721 0,-3.7722 0.4495,-7.439 1.2933,-10.9522 8.3807,10.0339 18.4934,13.2549 32.3597,13.6409l-12.7502 -16.057c-5.6355,4.3525 -12.8494,-7.3188 -3.0747,-7.4156 6.6708,5.4331 15.2303,12.8609 24.0734,20.5881 -3.4195,5.5319 -6.3523,9.2066 -9.1721,9.1529 0.1695,4.2642 -0.2076,9.6783 -2.7135,10.8465 -5.6839,-4.7669 -8.0925,-6.5901 -13.0189,-11.963 -1.8387,8.4747 11.5548,12.3578 8.0143,16.8905 -0.2818,0.3609 -0.585,0.8446 -0.9054,1.4137 -0.227,-0.0614 -0.4354,-0.1133 -0.621,-0.1537 -1.8241,-0.3975 -2.7201,1.195 -5.8198,6.4621 -1.1118,1.8891 -3.754,0.8708 -5.0216,-0.4811z"/>
  <path class="fil0" d="M73.3622 102.53c1.6009,-0.5654 3.3569,0.2741 3.9222,1.875 -0.5653,-1.6009 0.2742,-3.3569 1.8751,-3.9222 -1.6009,0.5653 -3.9775,-1.8441 -7.9547,-13.1068 3.9634,11.5989 3.7583,14.5886 2.1574,15.154zm-8.1394 -72.7059c-2.2815,0.2586 -4.3406,-1.3812 -4.5993,-3.6626 0.2587,2.2814 -1.3811,4.3406 -3.6625,4.5992 2.2814,-0.2586 4.6814,3.6385 6.501,19.6891 -1.6993,-16.4894 -0.5207,-20.3671 1.7608,-20.6257zm5.7543 5.3798c-1.1265,0 -2.0397,-0.9132 -2.0397,-2.0397 0,1.1265 -0.9131,2.0397 -2.0396,2.0397 1.1265,0 2.0396,0.9131 2.0396,2.0396 0,-1.1265 0.9132,-2.0396 2.0397,-2.0396zm27.9808 22.2601c-1.2277,-1.9403 -0.6501,-4.5084 1.2901,-5.7361 -1.9402,1.2277 -4.5084,0.6501 -5.7361,-1.2901 1.2277,1.9402 -1.2326,5.7996 -14.8826,14.4372 14.0974,-8.7207 18.1009,-9.3513 19.3286,-7.411zm-5.7962 8.0457c-1.8261,0 -3.3065,-1.4804 -3.3065,-3.3065 0,1.8261 -1.4803,3.3065 -3.3064,3.3065 1.8261,0 3.3064,1.4803 3.3064,3.3064 0,-1.8261 1.4804,-3.3064 3.3065,-3.3064z"/>
 </g>
</svg>
