<?xml version="1.0" encoding="UTF-8"?>
<!DOCTYPE svg PUBLIC "-//W3C//DTD SVG 1.1//EN" "http://www.w3.org/Graphics/SVG/1.1/DTD/svg11.dtd">
<!-- Creator: CorelDRAW -->
<svg xmlns="http://www.w3.org/2000/svg" xml:space="preserve" width="129.357mm" height="129.357mm" style="shape-rendering:geometricPrecision; text-rendering:geometricPrecision; image-rendering:optimizeQuality; fill-rule:evenodd; clip-rule:evenodd"
viewBox="0 0 129.357 129.357"
 xmlns:xlink="http://www.w3.org/1999/xlink">
 <defs>
  <style type="text/css">
   <![CDATA[
    .fil2 {fill:#FEFEFE}
    .fil0 {fill:white}
    .fil1 {fill:url(#id0)}
   ]]>
  </style>
  <linearGradient id="id0" gradientUnits="userSpaceOnUse" x1="93.3067" y1="26.6941" x2="36.801" y2="103.12">
   <stop offset="0" style="stop-color:red"/>
   <stop offset="1" style="stop-color:black"/>
  </linearGradient>
 </defs>
 <g id="Слой_x0020_1">
  <metadata id="CorelCorpID_0Corel-Layer"/>
  <path class="fil0" d="M29.5383 0l70.2809 0c16.2462,0 29.5382,13.292 29.5382,29.5382l0 70.2809c0,16.2462 -13.292,29.5383 -29.5382,29.5383l-70.2809 0c-16.2462,0 -29.5383,-13.2921 -29.5383,-29.5383l0 -70.2809c0,-16.2462 13.2921,-29.5382 29.5383,-29.5382z"/>
  <path class="fil1" d="M66.5204 18.1542c15.2049,0 28.7124,7.25971 37.2499,18.5007 0.901301,1.1872 1.2249,2.6716 0.4519,4.0368 -0.668401,1.1805 -2.1829,2.248 -4.9081,3.139 -4.857,1.5875 -9.62891,1.4748 -14.8898,3.3761 -4.8841,1.7653 -9.43091,4.3965 -13.4156,7.62931 -1.0105,0.819701 -1.9878,1.6804 -2.9292,2.5784l-6.0086 -14.5339c-4.5859,1.4967 -8.19551,2.7893 -12.307,4.5349 -0.859901,-2.0129 -1.7154,-4.0384 -2.5713,-6.0578 -0.854001,-2.0149 -1.7426,-4.0112 -2.6431,-5.9997 3.9546,-1.6021 8.05451,-2.7674 12.3186,-3.4494 -0.823901,-1.8947 -1.6555,-3.7894 -2.4424,-5.7104 -0.778301,-1.8998 -1.5016,-3.8411 -2.189,-5.8204 4.5023,-1.4438 9.30181,-2.2236 14.2837,-2.2236zm22.1892 47.8031c1.1993,-1.2923 2.4151,-2.603 3.647,-3.9314 0.805801,1.3962 2.4519,1.9155 3.8697,1.1459 1.587,-0.862101 2.2932,-2.9761 1.5782,-4.7146 -0.2232,-0.5332 -0.5553,-0.963601 -0.953001,-1.2783 0.5905,-0.637 1.1844,-1.2787 1.782,-1.9251 0.0289,0.3948 0.1174,0.786201 0.2704,1.1586 0.736401,1.7452 2.6636,2.4303 4.3326,1.5236 1.6887,-0.938701 2.4655,-3.1551 1.6967,-4.9486 -0.4666,-1.1068 -1.4178,-1.7712 -2.4658,-1.8849 0.978101,-1.0589 1.9666,-2.1279 2.9664,-3.2063 2.3224,2.3921 4.674,4.8224 7.05441,7.27801 -4.6951,3.5823 -9.20001,7.01541 -13.5321,10.2926 -3.5106,0.1727 -6.92361,0.334 -10.2465,0.4905zm-16.2043 12.0506c-1.3406,0.2768 -2.6639,0.5516 -3.9698,0.822701 0.456,1.3765 0.0595,2.923 -0.973801,3.5859 -1.1065,0.713001 -2.5349,0.1335 -3.1894,-1.2987 -0.2023,-0.4353 -0.3111,-0.900301 -0.3339,-1.3576l-1.6699 0.3431c0.1955,0.22 0.3677,0.4833 0.5058,0.786101 0.650901,1.4158 0.3079,3.1389 -0.746601,3.8297 -1.0516,0.689301 -2.4061,0.1026 -3.034,-1.2895 -0.3907,-0.861201 -0.4226,-1.8359 -0.1448,-2.6238 -0.825601,0.1692 -1.6447,0.3365 -2.4586,0.5018 0.4422,2.6961 0.880501,5.3818 1.3218,8.06291 3.1874,-1.195 6.50531,-2.4341 9.92701,-3.7261 1.556,-2.4945 3.147,-5.0355 4.7662,-7.63651zm0.364 -21.6355c4.1864,-3.2159 8.81491,-5.5501 12.7654,-6.54261 4.1024,-1.0308 7.55091,-0.684201 9.37001,1.2801 -6.91591,3.8327 -13.1944,7.82691 -18.9157,11.947 -5.3926,3.8833 -10.3204,7.89871 -14.8192,12.0284 -0.5237,-2.3563 0.3548,-5.4469 2.3044,-8.67421 2.0085,-3.3251 5.1086,-6.82271 9.29511,-10.0387zm46.5963 7.53121c0.472,0.956401 1.0077,2.0792 1.6608,3.4164 1.8096,4.9599 -4.0903,9.24051 -9.81651,11.0249 -3.6279,12.109 -12.0315,22.1533 -23.0232,27.9475l-5.5533 -13.4327c-0.794701,1.1726 -1.9601,2.2393 -3.3264,3.1609l5.0001 12.094c-5.5096,2.2843 -11.5507,3.5457 -17.8867,3.5457 -10.0529,0 -19.3629,-3.175 -26.9864,-8.57411l15.5436 -9.92031c0.912101,2.1081 1.8249,4.2273 2.741,6.3492 0.385,0.892001 1.3312,1.2594 2.0974,0.817901 3.4274,-1.9953 6.389,-3.8217 9.40251,-5.7268 2.7116,-1.7139 5.4856,-3.5016 8.73761,-5.5649 -0.873901,-1.8516 -1.7486,-3.6992 -2.6185,-5.542 -1.7198,-3.6427 -0.732701,-8.18151 2.2695,-10.1655 2.0716,-1.3688 4.1877,-2.7639 6.351,-4.1942 3.3195,-2.1943 7.71891,-0.818701 9.69331,3.1326 0.5483,1.0973 1.0962,2.1974 1.6441,3.2983 -0.956201,0.799401 -1.9028,1.591 -2.8387,2.3755 -3.1176,2.6127 -6.1493,5.146 -9.07381,7.59031 3.8152,-2.1042 7.79291,-4.3041 11.9232,-6.58981l3.0546 -1.6905c1.5022,-0.816301 3.1559,-1.7276 4.874,-2.7009 5.2194,-2.8955 11.6794,-6.64851 16.1308,-10.6515zm-80.986 38.4145c-8.43191,-6.3309 -14.6545,-15.4449 -17.3022,-25.9795l-0.1321 -0.3464 0.0328 -0.0604c2.3471,-4.3281 4.92,-8.41571 7.73881,-12.207 0.747001,1.8649 1.4882,3.7158 2.3181,5.5147 0.823301,1.7842 1.7429,3.5149 2.6521,5.2359 3.1165,-3.2994 6.4492,-6.2484 9.98591,-8.85891 -0.917501,-1.858 -1.8405,-3.7186 -2.7033,-5.6175 -0.865901,-1.9055 -1.6796,-3.8481 -2.4938,-5.7976 3.6004,-2.5573 7.33561,-4.8073 11.1879,-6.78591 0.868001,2.0115 1.7284,4.0236 2.6156,6.0184 0.885001,1.9902 1.7998,3.9664 2.6992,5.9444 2.6045,-1.1375 5.2158,-2.219 7.83311,-3.2564l1.6246 3.9294 -20.8949 16.073 19.5315 -13.2702c-2.9724,3.8407 -5.3597,8.11831 -7.00021,12.6608 -1.3121,1.3172 -2.6103,2.6117 -3.8883,3.8846l-0.0900001 0.903201 -9.01401 8.81511 8.66391 -5.3399 -0.2038 2.0059 -10.4543 9.46871 11.0365 -6.465 0.811701 1.0002 -14.5548 12.5304zm-21.709 -37.4047c-1.0198,-1.5999 -2.1256,-3.1599 -3.6879,-4.2772 -1.6078,-1.1499 -3.6911,-1.8166 -5.911,-2.3986 2.7387,-4.7188 5.6559,-9.28981 8.76081,-13.6581 4.6048,2.3687 6.0009,3.8464 8.39501,7.95671 -2.7863,3.972 -5.2783,8.10371 -7.55691,12.3772zm9.50381 -32.0242c3.815,-3.2842 7.81241,-6.2051 11.9906,-8.70921 1.1487,1.7809 2.2963,3.5841 3.3336,5.4279 1.0522,1.87 2.009,3.8041 2.9508,5.7501 -3.7813,2.0485 -7.41281,4.4373 -10.8815,7.16071 -2.1665,-4.0849 -3.9808,-6.49911 -7.39351,-9.62951zm-1.9469 19.647c0.856301,1.7795 1.6494,3.6237 2.3662,5.5068 0.719901,1.8917 1.3991,3.8023 2.1232,5.6818 3.0557,-3.488 6.3116,-6.66891 9.75901,-9.52341 -0.801301,-1.9552 -1.5813,-3.93 -2.3774,-5.8948 -0.794901,-1.9616 -1.6415,-3.8935 -2.5306,-5.7879 -3.3025,3.0431 -6.4126,6.3948 -9.34041,10.0175z"/>
  <path class="fil2" d="M108.782 78.4802l-17.0151 9.40841 14.3232 -9.97301 2.6919 0.5646zm-22.4563 -51.6246c5.4643,0.4028 9.56741,5.1597 9.16431,10.6239 -0.1546,2.0954 -0.949901,3.9902 -2.1791,5.508 0.6193,-1.1092 1.013,-2.3671 1.1123,-3.7172 0.3653,-4.9512 -3.3522,-9.26081 -8.30311,-9.62581 -3.2291,-0.2382 -6.1846,1.2605 -7.95161,3.7053 0.3164,0.3327 0.6013,0.705201 0.846501,1.1161 0.682901,1.1444 0.960101,2.4179 0.874701,3.6537 -0.0824001,-0.801501 -0.3362,-1.598 -0.776401,-2.3353 -1.6136,-2.7038 -5.1136,-3.5876 -7.81721,-1.9739 -2.1968,1.3111 -3.1916,3.867 -2.6222,6.2298 1.1491,-0.779601 2.6712,-0.941901 4.0111,-0.2937 0.766401,0.3708 1.3615,0.953001 1.75,1.6425 -0.3254,-0.3988 -0.740701,-0.734601 -1.2345,-0.973501 -1.8108,-0.876101 -3.989,-0.1183 -4.865,1.6925 -0.876001,1.8108 -0.1183,3.9889 1.6925,4.865 0.4939,0.2389 1.015,0.356 1.5296,0.3637 -0.781701,0.1234 -1.6076,0.0181 -2.374,-0.3527 -1.9986,-0.966901 -2.835,-3.3709 -1.8681,-5.3695 0.1875,-0.3874 0.4291,-0.731001 0.711101,-1.0264 -1.5253,-2.9338 -0.5158,-6.58401 2.3605,-8.30061 2.0272,-1.2101 4.46,-1.1474 6.3701,-0.0473 1.7611,-3.4483 5.4648,-5.6873 9.56851,-5.3846zm-33.43 48.0068l-21.979 14.9331 21.8738 -16.826 0.1052 1.8929z"/>
 </g>
</svg>
