<?xml version="1.0" encoding="UTF-8" standalone="no"?>
<!DOCTYPE svg PUBLIC "-//W3C//DTD SVG 1.1//EN" "http://www.w3.org/Graphics/SVG/1.1/DTD/svg11.dtd">
<svg version="1.1" xmlns="http://www.w3.org/2000/svg" xmlns:xlink="http://www.w3.org/1999/xlink" preserveAspectRatio="xMidYMid meet" viewBox="0 0 200 200" width="200" height="200"><defs><path d="M100.5 194.25C48.76 194.25 6.75 152.24 6.75 100.5C6.75 48.76 48.76 6.75 100.5 6.75C152.24 6.75 194.25 48.76 194.25 100.5C194.25 152.24 152.24 194.25 100.5 194.25Z" id="b4V8nTuzkS"></path><path d="M100 187.5C51.71 187.5 12.5 148.29 12.5 100C12.5 51.71 51.71 12.5 100 12.5C148.29 12.5 187.5 51.71 187.5 100C187.5 148.29 148.29 187.5 100 187.5Z" id="e2M9xOmU60"></path><path d="M100.5 185C53.87 185 16 147.13 16 100.5C16 53.87 53.87 16 100.5 16C147.13 16 185 53.87 185 100.5C185 147.13 147.13 185 100.5 185Z" id="bfhm4GZ74"></path><path d="M177.19 138L23.04 138" id="a1Gc6tswK"></path><path d="M99.99 90C91.72 90 85 83.28 85 75C85 66.72 91.72 60 99.99 60C108.28 60 115 66.72 115 75C115 83.28 108.28 90 99.99 90Z" id="aBvo8jOKq"></path><path d="M158.92 163L108.25 163" id="bFj2NSSL"></path><path d="M165 156.75L131 156.75" id="bceVrooGd"></path><path d="M77.42 145.17L27.42 145.17" id="d4lDdCZwBO"></path><path d="M69.25 151.5L31.75 151.5" id="dy0QZ12mm"></path><path d="M125.5 156.75L118.25 156.75" id="b3gIOuMpT"></path><path d="M88 145.17L81.75 145.17" id="e5cd3KTNiv"></path><path d="M176.14 139.35C160.74 139.31 37.56 138.98 22.16 138.94C46.47 172.63 73.99 188.4 104.74 186.24C135.49 184.09 159.29 168.46 176.14 139.35Z" id="d8nHS8QnAP"></path><path d="M150 143.75L150 150L50 150L50 143.75L150 143.75Z" id="aNkBE9sQ"></path><path d="M143.75 156.25L143.75 162.5L56.25 162.5L56.25 156.25L143.75 156.25Z" id="cbVEwt3g1"></path><path d="M125 168.75L125 175L75 175L75 168.75L125 168.75Z" id="ga9VjeeBi"></path></defs><g><g><g><use xlink:href="#b4V8nTuzkS" opacity="1" fill="#f96e5b" fill-opacity="1"></use><g><use xlink:href="#b4V8nTuzkS" opacity="1" fill-opacity="0" stroke="#000000" stroke-width="1" stroke-opacity="0"></use></g></g><g><use xlink:href="#e2M9xOmU60" opacity="1" fill="#f96e5b" fill-opacity="1"></use><g><use xlink:href="#e2M9xOmU60" opacity="1" fill-opacity="0" stroke="#000000" stroke-width="1" stroke-opacity="0"></use></g></g><g><use xlink:href="#bfhm4GZ74" opacity="1" fill="#000000" fill-opacity="0"></use><g><use xlink:href="#bfhm4GZ74" opacity="1" fill-opacity="0" stroke="#ffffff" stroke-width="10" stroke-opacity="1"></use></g></g><g><use xlink:href="#a1Gc6tswK" opacity="1" fill="#000000" fill-opacity="0"></use><g><use xlink:href="#a1Gc6tswK" opacity="1" fill-opacity="0" stroke="#ffffff" stroke-width="4" stroke-opacity="1"></use></g></g><g><use xlink:href="#aBvo8jOKq" opacity="1" fill="#000000" fill-opacity="0"></use><g><use xlink:href="#aBvo8jOKq" opacity="1" fill-opacity="0" stroke="#ffffff" stroke-width="6" stroke-opacity="1"></use></g></g><g><use xlink:href="#bFj2NSSL" opacity="1" fill="#000000" fill-opacity="0"></use><g><use xlink:href="#bFj2NSSL" opacity="1" fill-opacity="0" stroke="#ffffff" stroke-width="3" stroke-opacity="1"></use></g></g><g><use xlink:href="#bceVrooGd" opacity="1" fill="#000000" fill-opacity="0"></use><g><use xlink:href="#bceVrooGd" opacity="1" fill-opacity="0" stroke="#ffffff" stroke-width="3" stroke-opacity="1"></use></g></g><g><use xlink:href="#d4lDdCZwBO" opacity="1" fill="#000000" fill-opacity="0"></use><g><use xlink:href="#d4lDdCZwBO" opacity="1" fill-opacity="0" stroke="#ffffff" stroke-width="3" stroke-opacity="1"></use></g></g><g><use xlink:href="#dy0QZ12mm" opacity="1" fill="#000000" fill-opacity="0"></use><g><use xlink:href="#dy0QZ12mm" opacity="1" fill-opacity="0" stroke="#ffffff" stroke-width="3" stroke-opacity="1"></use></g></g><g><use xlink:href="#b3gIOuMpT" opacity="1" fill="#000000" fill-opacity="0"></use><g><use xlink:href="#b3gIOuMpT" opacity="1" fill-opacity="0" stroke="#ffffff" stroke-width="3" stroke-opacity="1"></use></g></g><g><use xlink:href="#e5cd3KTNiv" opacity="1" fill="#000000" fill-opacity="0"></use><g><use xlink:href="#e5cd3KTNiv" opacity="1" fill-opacity="0" stroke="#ffffff" stroke-width="3" stroke-opacity="1"></use></g></g><g><use xlink:href="#d8nHS8QnAP" opacity="1" fill="#ffffff" fill-opacity="1"></use><g><use xlink:href="#d8nHS8QnAP" opacity="1" fill-opacity="0" stroke="#000000" stroke-width="1" stroke-opacity="0"></use></g></g><g><use xlink:href="#aNkBE9sQ" opacity="1" fill="#f96e5b" fill-opacity="1"></use><g><use xlink:href="#aNkBE9sQ" opacity="1" fill-opacity="0" stroke="#000000" stroke-width="1" stroke-opacity="0"></use></g></g><g><use xlink:href="#cbVEwt3g1" opacity="1" fill="#f96e5b" fill-opacity="1"></use><g><use xlink:href="#cbVEwt3g1" opacity="1" fill-opacity="0" stroke="#000000" stroke-width="1" stroke-opacity="0"></use></g></g><g><use xlink:href="#ga9VjeeBi" opacity="1" fill="#f96e5b" fill-opacity="1"></use><g><use xlink:href="#ga9VjeeBi" opacity="1" fill-opacity="0" stroke="#000000" stroke-width="1" stroke-opacity="0"></use></g></g></g></g></svg>