<?xml version="1.0" encoding="utf-8"?>
<!-- Generator: Adobe Illustrator 22.1.0, SVG Export Plug-In . SVG Version: 6.00 Build 0)  -->
<svg version="1.1" id="Слой_1" xmlns="http://www.w3.org/2000/svg" xmlns:xlink="http://www.w3.org/1999/xlink" x="0px" y="0px"
	 viewBox="0 0 181 182" style="enable-background:new 0 0 181 182;" xml:space="preserve">
<style type="text/css">
	.st0{fill:url(#SVGID_1_);}
</style>
<linearGradient id="SVGID_1_" gradientUnits="userSpaceOnUse" x1="90.5" y1="181.194" x2="90.5" y2="0.7599">
	<stop  offset="0.2054" style="stop-color:#490082"/>
	<stop  offset="0.309" style="stop-color:#9C00A9"/>
	<stop  offset="0.8973" style="stop-color:#410074"/>
</linearGradient>
<path class="st0" d="M159.4,94.1V60.6l-25.6-14.8v-20l-43.3-25l-43.3,25v19.8L21.2,60.6v33.8L0.5,106.2v50l43.3,25l24-13.9l22.4,13
	l22.7-13.1l24.3,14l43.3-25v-50L159.4,94.1z M69.3,43.1l21.2-19.7l21.2,19.7c3.4,2.9,5.6,7.2,5.6,11.9c0,8.7-7.2,15.7-16,15.7
	c-3.7,0-7.1-1.2-9.8-3.3c0.8,3,2.4,5.6,4.6,7.8l3,2.9l-1-0.3c-5-1.4-10.3-1.4-15.2,0l-1,0.3l3-2.9c2.2-2.2,3.8-4.8,4.6-7.8
	c-2.7,2.1-6.1,3.3-9.8,3.3c-8.8,0-16-7.1-16-15.7C63.7,50.3,65.9,46,69.3,43.1z M56,152.4c-5,0-9.4-2.6-11.9-6.5l0.6,2.4
	c0.8,2.9,2.3,5.6,4.6,7.8l3,2.9l-1-0.3c-4.9-1.4-10.2-1.4-15.1,0l-1,0.3l3-2.9c2.2-2.1,3.8-4.8,4.6-7.8l0.6-2.4
	c-2.5,3.9-6.9,6.5-11.9,6.5c-7.7,0-14-6.2-14-13.9c0-7.6,6.3-13.9,14-13.9h0c-1.1-2-1.7-4.3-1.7-6.7c0-7.6,6.3-13.9,14-13.9
	c7.7,0,14,6.2,14,13.9c0,2.4-0.6,4.7-1.7,6.7h0c7.7,0,14,6.2,14,13.9C70,146.2,63.8,152.4,56,152.4z M90.5,176.1l-19-10.9l15.5-9
	v-36c-3.9-5.3-8.2-10.2-12.9-14.5c1.5-1.4,2.9-2.8,4.4-4.3L43.8,81.3L25.2,92V63l22-12.7v25.4L83,96.3c2.8-3.4,5.4-6.9,7.9-10.7
	c2.4,3.7,4.9,7.1,7.6,10.4l35.3-20.4V50.3l22,12.7v29l-18.6-10.7l-34.3,19.8c1.5,1.6,3,3.1,4.6,4.6c-4.9,4.6-9.5,9.8-13.5,15.5v35.1
	l15.5,9L90.5,176.1z M159,138.4l-21.7,20.5l-21.7-20.5c-3.5-3.1-5.7-7.5-5.7-12.5c0-9.1,7.3-16.4,16.3-16.4c4.3,0,8.2,1.7,11.1,4.4
	c2.9-2.7,6.8-4.4,11.1-4.4c9,0,16.3,7.3,16.3,16.4C164.7,130.9,162.5,135.4,159,138.4z"/>
</svg>
