<svg xmlns="http://www.w3.org/2000/svg" viewBox="0 0 113.82 144.22"><defs><style>.cls-1{fill:#fff;}</style></defs><title>Ресурс 43334</title><g id="Слой_2" data-name="Слой 2"><g id="Слой_1-2" data-name="Слой 1"><path d="M20.78,120.17h7.13c5.22,0,8.75,1.77,8.75,7,0,5-3.57,7.31-8.75,7.31h-4.1v9.36h-3ZM27.55,132c4.1,0,6.08-1.51,6.08-4.86s-2-4.5-6.08-4.5H23.81V132Z"/><path d="M47.64,131.87c0-7.63,3.74-12.13,9.07-12.13s9.07,4.5,9.07,12.13S62,144.22,56.71,144.22,47.64,139.61,47.64,131.87Zm15,0c0-5.94-2.38-9.47-5.94-9.47s-5.94,3.53-5.94,9.47,2.38,9.68,5.94,9.68S62.65,137.92,62.65,131.87Z"/><path d="M75.07,120.14h3.39L80.18,135c.22,2,.36,3.13.47,5.47h.11c.43-2.34.68-3.49,1.15-5.44l2.3-8.78h2.88L89.33,135c.5,1.95.72,3.1,1.15,5.44h.14c.15-2.34.22-3.49.43-5.44l1.66-14.86H96l-3.46,23.65H88.75l-2.3-9.51c-.36-1.44-.65-2.8-.87-4.24h-.11c-.25,1.44-.46,2.8-.82,4.24l-2.31,9.51H78.67Z"/><circle cx="56.91" cy="56.91" r="56.91"/><path class="cls-1" d="M56.87,94.47a4,4,0,0,1-3.8-2.7l-2.52-7.16c0-.11-3.77-10.89-5.38-16l-.67-2.15q-1.68-5.34-3.34-10.7L35.78,37.62a4,4,0,0,1,.58-3.47L53.52,9.93a4,4,0,0,1,3.27-1.7h0A4,4,0,0,1,60.07,9.9L77.53,34.11a4,4,0,0,1,.58,3.51L72.6,56c-2.69,8.42-9.42,28.44-9.48,28.64l-2.44,7.14a4,4,0,0,1-3.79,2.73ZM56.81,10h0A2.21,2.21,0,0,0,55,11L37.8,35.17a2.25,2.25,0,0,0-.32,1.95l5.37,18.07q1.65,5.34,3.34,10.7L46.86,68c1.6,5.13,5.32,15.89,5.36,16l2.52,7.16a2.21,2.21,0,0,0,2.13,1.51h0A2.21,2.21,0,0,0,59,91.17L61.44,84c.07-.2,6.79-20.2,9.47-28.59l5.51-18.33a2.27,2.27,0,0,0-.33-2h0L58.64,10.94A2.23,2.23,0,0,0,56.81,10Z"/><path class="cls-1" d="M51.24,104a1.76,1.76,0,0,1-1-.31h0c-6.83-4.48-16.48-11-21.63-14.43A2,2,0,0,1,27.84,87a1.85,1.85,0,0,1,1.79-1.37h17.1A1.88,1.88,0,0,1,48.51,87c.76,2.42,3.19,10.2,4.51,14.43a2,2,0,0,1-.69,2.22A1.84,1.84,0,0,1,51.24,104Zm0-1.78h0a.15.15,0,0,0,.07-.06.24.24,0,0,0,0-.23c-1.31-4.23-3.75-12-4.5-14.43,0-.08-.08-.11-.1-.11H29.63c-.05,0-.08.06-.1.11s-.05.2.07.28c5.14,3.46,14.79,9.93,21.61,14.42Z"/><path class="cls-1" d="M88.39,83.82a2.7,2.7,0,0,1-2.33-1.34L58.36,35.69a2.16,2.16,0,0,0-1.91-1.08,2.2,2.2,0,0,0-1.9,1.11L27.78,82.35a2.71,2.71,0,0,1-5-2L33,36a2.3,2.3,0,0,1,4.49,1L30.13,69,50.56,33.43A6.72,6.72,0,0,1,56.42,30a6.82,6.82,0,0,1,5.9,3.34L83.76,69.56,76.13,36.92a2.31,2.31,0,0,1,4.49-1.05L91,80.48a2.71,2.71,0,0,1-1.63,3.14A2.85,2.85,0,0,1,88.39,83.82Z"/><path class="cls-1" d="M62.71,104a1.74,1.74,0,0,1-1.07-.37,2,2,0,0,1-.7-2.21c1.3-4.23,3.71-12,4.46-14.43a1.86,1.86,0,0,1,1.77-1.36H84.09A1.84,1.84,0,0,1,85.86,87a2,2,0,0,1-.76,2.26C80,92.73,70.47,99.21,63.71,103.7h0A1.74,1.74,0,0,1,62.71,104Zm4.46-16.6a.14.14,0,0,0-.08.11c-.75,2.41-3.16,10.2-4.46,14.43a.25.25,0,0,0,0,.22.11.11,0,0,0,.07.07l.5.73-.49-.74c6.75-4.49,16.29-11,21.37-14.42.13-.08.08-.26.07-.28s0-.11-.09-.11Z"/></g></g></svg>