<svg id="Layer_1" data-name="Layer 1" xmlns="http://www.w3.org/2000/svg" viewBox="0 0 120 120"><defs><style>.cls-1{fill:#0d0554;}.cls-2{fill:#fff;}.cls-3{fill:#35dac0;}</style></defs><title>prediqt_logo_square-dark</title><rect class="cls-1" width="120" height="120"/><polygon class="cls-2" points="43.81 60.45 48.37 60.45 48.37 57.93 43.81 57.93 43.81 55.62 49.5 55.62 49.5 53.1 43.57 53.1 41.08 53.1 40.84 53.1 40.84 65.49 41.08 65.49 43.57 65.49 49.81 65.49 49.81 62.97 43.81 62.97 43.81 60.45"/><path class="cls-2" d="M14.84,53.88a4.15,4.15,0,0,0-1.5-.6,9.11,9.11,0,0,0-1.82-.17H6.92V65.49H9.65V60.66h2a8.52,8.52,0,0,0,1.82-.18,3.9,3.9,0,0,0,1.45-.62,3,3,0,0,0,1-1.17,4.22,4.22,0,0,0,.35-1.82A4,4,0,0,0,15.85,55,3.06,3.06,0,0,0,14.84,53.88Zm-1.61,3.71a1.26,1.26,0,0,1-.44.46,1.88,1.88,0,0,1-.61.24,3.52,3.52,0,0,1-.71.07H9.65V55.41H11a7.86,7.86,0,0,1,.8,0,2.4,2.4,0,0,1,.76.2,1.45,1.45,0,0,1,.56.45,1.23,1.23,0,0,1,.22.76A1.44,1.44,0,0,1,13.23,57.59Z" transform="translate(0)"/><path class="cls-2" d="M66.75,54.51a6.47,6.47,0,0,0-2.34-1.08,11.69,11.69,0,0,0-2.83-.33h-4.1V65.49H62a8.63,8.63,0,0,0,2.64-.4,6.76,6.76,0,0,0,2.22-1.18A5.7,5.7,0,0,0,68.35,62a5.89,5.89,0,0,0,.57-2.65,6.49,6.49,0,0,0-.59-2.89A5.27,5.27,0,0,0,66.75,54.51Zm-1,6.46a3.06,3.06,0,0,1-.94,1.17,3.76,3.76,0,0,1-1.41.64,7.62,7.62,0,0,1-1.76.19H60.22V55.62h1.61a6,6,0,0,1,1.64.22,4,4,0,0,1,1.36.66,3.17,3.17,0,0,1,.92,1.11,3.46,3.46,0,0,1,.34,1.58A4.15,4.15,0,0,1,65.74,61Z" transform="translate(0)"/><rect class="cls-3" x="75.55" y="53.1" width="2.73" height="12.39"/><path class="cls-2" d="M32.19,59.09a3.64,3.64,0,0,0,.68-2.23A3.91,3.91,0,0,0,32.5,55a3.06,3.06,0,0,0-1-1.16A4.26,4.26,0,0,0,30,53.28a8.46,8.46,0,0,0-1.79-.18h-4.8V65.49h2.73V55.41h1.79a5.57,5.57,0,0,1,.75.05,2.19,2.19,0,0,1,.68.2,1.29,1.29,0,0,1,.49.43,1.31,1.31,0,0,1,.19.75,1.25,1.25,0,0,1-.22.79,1.29,1.29,0,0,1-.55.41,2.44,2.44,0,0,1-.74.16l-.92,0c-.12,0-.12,0-.12.19v1.92a.81.81,0,0,0,.09.38l2.5,4.78h3.27L30.2,60.25A3.07,3.07,0,0,0,32.19,59.09Z" transform="translate(0)"/><polygon class="cls-2" points="104.13 53.14 104.13 55.64 107.89 55.64 107.89 65.48 110.6 65.48 110.6 55.64 114.35 55.64 114.35 53.14 104.13 53.14"/><path class="cls-3" d="M97.6,62a7.23,7.23,0,0,0,0-5.18,5.67,5.67,0,0,0-1.34-2,5.89,5.89,0,0,0-2-1.25,7.79,7.79,0,0,0-5.15,0,5.89,5.89,0,0,0-2,1.25,5.69,5.69,0,0,0-1.34,2,7.24,7.24,0,0,0,0,5.18,5.68,5.68,0,0,0,1.34,2,5.89,5.89,0,0,0,2,1.25,7.33,7.33,0,0,0,2.57.44,8.16,8.16,0,0,0,1-.06L91.46,63.2a3.81,3.81,0,0,1-1.32-.28,3.41,3.41,0,0,1-1.17-.8,3.52,3.52,0,0,1-.75-1.21,4.64,4.64,0,0,1,0-3.07A3.51,3.51,0,0,1,89,56.62a3.42,3.42,0,0,1,1.17-.8,4.19,4.19,0,0,1,3,0,3.42,3.42,0,0,1,1.17.8,3.52,3.52,0,0,1,.75,1.22,4.65,4.65,0,0,1,0,3.07,3.69,3.69,0,0,1-.33.66l-1-1.91s-1.81.11-2.41.11a.42.42,0,0,0-.37.61l1,1.84.48.92h0l1.18,2.25h0l.79,1.51H97.6l-1.5-2.82.16-.14A5.67,5.67,0,0,0,97.6,62Z" transform="translate(0)"/></svg>