<svg xmlns="http://www.w3.org/2000/svg" xmlns:xlink="http://www.w3.org/1999/xlink" viewBox="0 0 263.6 263.6"><defs><style>.cls-1{fill:#231f20;}.cls-2{fill:url(#linear-gradient);}.cls-3{fill:url(#linear-gradient-2);}</style><linearGradient id="linear-gradient" x1="126.25" y1="913.7" x2="126.25" y2="864.33" gradientTransform="matrix(1, 0, 0, -1, 0, 988.2)" gradientUnits="userSpaceOnUse"><stop offset="0" stop-color="#deb72e"/><stop offset="0.16" stop-color="#d1ae33" stop-opacity="0.84"/><stop offset="0.45" stop-color="#b09740" stop-opacity="0.55"/><stop offset="0.83" stop-color="#7a7256" stop-opacity="0.17"/><stop offset="1" stop-color="#606060" stop-opacity="0"/></linearGradient><linearGradient id="linear-gradient-2" x1="86.64" y1="929.95" x2="169.61" y2="816.57" gradientTransform="matrix(1, 0, 0, -1, 0, 988.2)" gradientUnits="userSpaceOnUse"><stop offset="0" stop-color="#deb72e"/><stop offset="0.22" stop-color="#f6f19a"/><stop offset="0.44" stop-color="#f8f192"/><stop offset="0.86" stop-color="#ebc539"/></linearGradient></defs><title>Asset 1</title><g id="Layer_2" data-name="Layer 2"><g id="Layer_1-2" data-name="Layer 1"><circle class="cls-1" cx="131.8" cy="131.8" r="131.8"/><path class="cls-2" d="M129.9,123.8c.1,0,.1-.1.1-.2l-35.8-47a3.44,3.44,0,0,1-.8-2.1h31.4a2.13,2.13,0,0,0-1,3.3l35.2,46H129.9Z"/><path class="cls-3" d="M208.2,98.1c0,25.2-18.1,46.4-41.2,48.9h0l-46.4.1a4,4,0,0,0-4,4v57.3a4,4,0,0,1-4,4H97.3a4,4,0,0,1-3.9-4V127.1a3.16,3.16,0,0,1,3.2-3.2h66.5c12.3-.6,22.5-13.4,22.2-25.8-.4-11.9-9.9-22.9-22.2-23.3v-.1l-15.7-.1-22-.1a.75.75,0,0,0-.5.1H93.3V55.4a4,4,0,0,1,4-4h65.8c1.3,0,2.6.1,3.9.2C190.1,53.8,208.2,72.9,208.2,98.1Z"/></g></g></svg>