<svg xmlns="http://www.w3.org/2000/svg" xmlns:xlink="http://www.w3.org/1999/xlink" width="80" height="80" viewBox="0 0 80 80">
  <defs>
    <linearGradient id="rngappicon-a" x1="50%" x2="50%" y1="0%" y2="100%">
      <stop offset="0%" stop-color="#21242E"/>
      <stop offset="100%" stop-color="#1D2029"/>
    </linearGradient>
    <linearGradient id="rngappicon-b" x1="0%" x2="100%" y1="0%" y2="100%">
      <stop offset="0%" stop-color="#1E1F2A"/>
      <stop offset="100%" stop-color="#21202C"/>
    </linearGradient>
    <filter id="rngappicon-c" width="280.5%" height="595.2%" x="-90.3%" y="-247.6%" filterUnits="objectBoundingBox">
      <feGaussianBlur in="SourceGraphic" stdDeviation="20"/>
    </filter>
    <path id="rngappicon-e" d="M11.9427256,20.5958848 L0.78120426,10.2979424 L8.74302133,10.2979424 L19.9045427,20.5958848 L11.9427256,20.5958848 Z M5.30787805,8.48065844 L0,8.48065844 L0,3.6345679 L18.5775732,3.6345679 L18.5775732,15.2757202 L13.2696951,10.4296296 L13.2696951,8.48065844 L5.30787805,8.48065844 Z M5.30787805,20.5958848 L0,20.5958848 L0,12.1152263 L5.30787805,16.9613169 L5.30787805,20.5958848 Z M29.2570238,16.1975309 L23.9491458,20.5958848 L23.9491458,9.69218107 L29.2570238,14.5382716 L29.2570238,16.1975309 Z M23.9491458,7.2691358 L23.9491458,0 L42.5267189,16.9613169 L42.5267189,24.2304527 L23.9491458,7.2691358 Z M37.2188409,8.23045267 L42.5267189,3.6345679 L42.5267189,14.5382716 L37.2188409,9.69218107 L37.2188409,8.23045267 Z M55.6374085,15.7497942 L61.1679866,15.7497942 L61.1679866,13.0540652 L66.4758647,8.55967078 L66.4758647,20.5958848 L50.2181804,20.5958848 L55.6374085,15.7497942 Z M53.2061696,15.7497942 L47.8982915,20.5958848 L47.8982915,3.6345679 L66.4758647,3.6345679 L61.1679866,8.48065844 L53.2061696,8.48065844 L53.2061696,15.7497942 Z"/>
    <filter id="rngappicon-d" width="118.1%" height="149.5%" x="-9%" y="-24.8%" filterUnits="objectBoundingBox">
      <feOffset in="SourceAlpha" result="shadowOffsetOuter1"/>
      <feGaussianBlur in="shadowOffsetOuter1" result="shadowBlurOuter1" stdDeviation="2"/>
      <feColorMatrix in="shadowBlurOuter1" values="0 0 0 0 0.862745098   0 0 0 0 0.68627451   0 0 0 0 0.447058824  0 0 0 1 0"/>
    </filter>
  </defs>
  <g fill="none" fill-rule="evenodd">
    <rect width="80" height="80" fill="url(#rngappicon-a)"/>
    <rect width="80" height="80" fill="url(#rngappicon-b)"/>
    <g fill-rule="nonzero" transform="translate(7 28)">
      <path fill="#DCAF72" d="M11.9427256,20.5958848 L0.78120426,10.2979424 L8.74302133,10.2979424 L19.9045427,20.5958848 L11.9427256,20.5958848 Z M5.30787805,8.48065844 L0,8.48065844 L0,3.6345679 L18.5775732,3.6345679 L18.5775732,15.2757202 L13.2696951,10.4296296 L13.2696951,8.48065844 L5.30787805,8.48065844 Z M5.30787805,20.5958848 L0,20.5958848 L0,12.1152263 L5.30787805,16.9613169 L5.30787805,20.5958848 Z M29.2570238,16.1975309 L23.9491458,20.5958848 L23.9491458,9.69218107 L29.2570238,14.5382716 L29.2570238,16.1975309 Z M23.9491458,7.2691358 L23.9491458,0 L42.5267189,16.9613169 L42.5267189,24.2304527 L23.9491458,7.2691358 Z M37.2188409,8.23045267 L42.5267189,3.6345679 L42.5267189,14.5382716 L37.2188409,9.69218107 L37.2188409,8.23045267 Z M55.6374085,15.7497942 L61.1679866,15.7497942 L61.1679866,13.0540652 L66.4758647,8.55967078 L66.4758647,20.5958848 L50.2181804,20.5958848 L55.6374085,15.7497942 Z M53.2061696,15.7497942 L47.8982915,20.5958848 L47.8982915,3.6345679 L66.4758647,3.6345679 L61.1679866,8.48065844 L53.2061696,8.48065844 L53.2061696,15.7497942 Z" filter="url(#rngappicon-c)"/>
      <use fill="#000" filter="url(#rngappicon-d)" xlink:href="#rngappicon-e"/>
      <path fill="#FFF" d="M11.9427256,20.5958848 L0.78120426,10.2979424 L8.74302133,10.2979424 L19.9045427,20.5958848 L11.9427256,20.5958848 Z M5.30787805,8.48065844 L0,8.48065844 L0,3.6345679 L18.5775732,3.6345679 L18.5775732,15.2757202 L13.2696951,10.4296296 L13.2696951,8.48065844 L5.30787805,8.48065844 Z M5.30787805,20.5958848 L0,20.5958848 L0,12.1152263 L5.30787805,16.9613169 L5.30787805,20.5958848 Z M29.2570238,16.1975309 L23.9491458,20.5958848 L23.9491458,9.69218107 L29.2570238,14.5382716 L29.2570238,16.1975309 Z M23.9491458,7.2691358 L23.9491458,0 L42.5267189,16.9613169 L42.5267189,24.2304527 L23.9491458,7.2691358 Z M37.2188409,8.23045267 L42.5267189,3.6345679 L42.5267189,14.5382716 L37.2188409,9.69218107 L37.2188409,8.23045267 Z M55.6374085,15.7497942 L61.1679866,15.7497942 L61.1679866,13.0540652 L66.4758647,8.55967078 L66.4758647,20.5958848 L50.2181804,20.5958848 L55.6374085,15.7497942 Z M53.2061696,15.7497942 L47.8982915,20.5958848 L47.8982915,3.6345679 L66.4758647,3.6345679 L61.1679866,8.48065844 L53.2061696,8.48065844 L53.2061696,15.7497942 Z"/>
    </g>
  </g>
</svg>
