<?xml version="1.0" encoding="utf-8"?>
<!-- Generator: Adobe Illustrator 22.1.0, SVG Export Plug-In . SVG Version: 6.00 Build 0)  -->
<svg version="1.1" id="Layer_1" xmlns="http://www.w3.org/2000/svg" xmlns:xlink="http://www.w3.org/1999/xlink" x="0px" y="0px"
	 viewBox="0 0 250 250" style="enable-background:new 0 0 250 250;" xml:space="preserve">
<style type="text/css">
	.st0{clip-path:url(#SVGID_2_);}
</style>
<g>
	<g>
		<defs>
			<rect id="SVGID_1_" x="16.7" y="62.3" width="216.6" height="125.4"/>
		</defs>
		<clipPath id="SVGID_2_">
			<use xlink:href="#SVGID_1_"  style="overflow:visible;"/>
		</clipPath>
		<path class="st0" d="M123.2,105.2c-8.4,0-15.1,6.7-15.1,15.1s6.7,15.1,15.1,15.1c8.2,0,15.1-6.7,15.1-15.1
			C138.3,112.1,131.6,105.2,123.2,105.2L123.2,105.2z M123.2,125.3c-2.7,0-5-2.3-5-5c0-2.7,2.3-5,5-5c2.7,0,5,2.3,5,5
			C128.2,123,125.9,125.3,123.2,125.3L123.2,125.3z M188.9,177.8c0,2.7-2.3,5-5,5H62.3c-2.7,0-5-2.3-5-5c0-2.7,2.3-5,5-5h121.6
			C186.8,172.8,188.9,175.1,188.9,177.8L188.9,177.8z M228.1,88.5c-1.7-1.7-4.2-1.9-6.3-0.6l-33.5,21.3l-8.4-18
			c-1.3-2.5-4.2-3.6-6.7-2.5l-20.9,9.6c-0.8,0.4-1.3,0.8-1.9,1.5L127,64.6c-1.9-2.7-6.5-2.7-8.4,0l-23,35.2c-0.4-0.6-1-1-1.9-1.5
			l-20.9-9.6c-2.5-1-5.4,0-6.7,2.5l-8.4,18.4L24.4,87.9c-1.9-1.3-4.6-1-6.3,0.6c-1.7,1.7-2.1,4.2-0.6,6.3l41,65.1
			c1,1.5,2.5,2.3,4.2,2.3h120.8c1.7,0,3.3-0.8,4.2-2.3l41-65.1C230.2,92.7,229.7,90.2,228.1,88.5L228.1,88.5z M156.9,107.3l16.3-7.5
			l6.7,14.7l-13.6,8.6l-10.3-15.5C156.3,107.5,156.5,107.5,156.9,107.3L156.9,107.3z M73.2,99.8l16.3,7.5c0.2,0,0.4,0,0.8,0.2
			l-10.7,16.1l-13.4-8.6L73.2,99.8z M38.3,108.6l36,23.4l-10.9,16.3L38.3,108.6z M72.8,152.1l9.8-14.9l22.6,14.9H72.8z M88.1,129.1
			l35.2-52.7l34.7,52.1l-35.8,22.6L88.1,129.1z M163.4,136.8l10.3,15.3h-34.3L163.4,136.8z M183.3,148.3l-11.3-17l36.6-23.2
			L183.3,148.3z"/>
	</g>
</g>
</svg>
