<?xml version="1.0" standalone="no"?>
<!DOCTYPE svg PUBLIC "-//W3C//DTD SVG 20010904//EN"
 "http://www.w3.org/TR/2001/REC-SVG-20010904/DTD/svg10.dtd">
<svg version="1.0" xmlns="http://www.w3.org/2000/svg"
 width="671.000000pt" height="430.000000pt" viewBox="0 0 671.000000 430.000000"
 preserveAspectRatio="xMidYMid meet">
<metadata>
Created by potrace 1.15, written by Peter Selinger 2001-2017
</metadata>
<g transform="translate(0.000000,430.000000) scale(0.100000,-0.100000)"
fill="#000000" stroke="none">
<path d="M1286 4040 c-325 -70 -572 -127 -590 -138 -40 -24 -44 -33 -269 -689
-247 -720 -297 -874 -297 -919 0 -69 19 -82 730 -513 195 -118 404 -243 464
-277 l108 -63 67 5 c78 7 831 82 910 91 43 5 52 3 46 -7 -10 -16 -36 -138 -36
-167 1 -12 -4 -25 -9 -28 -5 -3 -7 -12 -3 -20 3 -8 2 -23 -3 -32 -4 -10 -8
-29 -9 -43 -2 -14 -5 -34 -8 -46 -3 -12 -8 -45 -12 -75 -3 -30 -10 -87 -15
-127 -9 -64 -8 -79 9 -115 11 -23 19 -46 19 -51 0 -5 4 -12 9 -15 5 -3 33 -54
63 -114 29 -59 60 -107 67 -107 7 0 13 -4 13 -10 0 -11 33 -14 44 -3 4 4 24 9
44 10 20 1 62 5 92 9 62 7 136 13 225 19 33 2 80 7 105 10 70 8 161 17 210 19
83 4 110 35 116 131 1 28 5 64 7 80 3 17 8 57 11 90 16 152 19 176 26 180 4 2
5 15 3 29 -3 13 0 27 6 30 5 4 8 13 4 21 -3 8 -2 23 2 33 11 24 18 54 31 135
4 20 10 40 15 43 4 2 6 11 3 18 -3 8 0 17 5 21 6 3 9 11 6 16 -4 5 -3 15 2 22
4 6 8 17 9 24 2 13 22 80 31 103 4 8 5 21 4 28 -1 6 3 12 9 12 6 0 9 4 6 8 -3
5 6 37 19 73 13 35 24 58 24 51 1 -7 -20 -124 -45 -260 -25 -136 -47 -273 -47
-305 l-2 -59 80 -76 c76 -73 713 -624 987 -855 126 -105 129 -107 178 -107 55
0 133 27 830 290 617 232 598 223 620 299 21 70 262 989 321 1218 61 241 67
284 47 329 -8 18 -118 106 -303 244 -443 331 -938 688 -968 699 -29 11 -77 4
-187 -26 -89 -24 -769 -223 -787 -230 -11 -4 -6 6 13 30 26 34 29 44 30 119 1
46 4 179 8 295 l6 213 -30 22 c-20 14 -47 23 -78 24 -65 3 -139 11 -187 20
-49 10 -160 10 -895 1 l-575 -7 -240 167 c-433 304 -450 314 -491 318 -24 3
-252 -42 -598 -115z m311 -116 c23 -23 25 -31 20 -75 -13 -104 -89 -213 -173
-245 -136 -52 -151 122 -22 262 40 43 104 83 136 84 7 0 25 -12 39 -26z m-706
-141 c22 -26 16 -111 -11 -163 -66 -129 -166 -194 -222 -143 -38 34 -15 148
49 231 59 78 151 116 184 75z m4416 -718 c134 -40 186 -137 96 -180 -49 -23
-179 -17 -243 12 -60 27 -110 75 -110 105 0 24 31 60 60 71 31 11 148 6 197
-8z m-1052 -127 c-406 -436 -676 -963 -831 -1618 -19 -80 -32 -125 -29 -100
10 80 75 330 126 481 125 375 290 696 505 982 97 129 293 352 301 343 3 -3
-29 -42 -72 -88z m-3000 20 c73 -33 40 -192 -62 -293 -56 -56 -111 -75 -147
-51 -86 56 -5 270 126 335 50 25 49 24 83 9z m-693 -125 c27 -25 24 -105 -8
-173 -59 -129 -186 -203 -230 -135 -33 50 2 167 72 245 69 76 127 98 166 63z
m3928 -30 c25 -11 60 -34 78 -51 45 -42 42 -86 -7 -119 -28 -19 -48 -23 -106
-23 -98 0 -169 24 -222 75 -59 57 -56 94 12 130 42 22 184 15 245 -12z m1227
-28 c63 -28 113 -77 113 -109 0 -35 -41 -66 -101 -75 -101 -17 -228 24 -283
89 -41 50 -33 83 28 112 56 26 167 18 243 -17z m-3263 -17 c-12 -40 -34 -66
-70 -83 -45 -21 -85 -13 -130 27 -59 52 -45 65 71 71 149 8 137 9 129 -15z
m843 -105 c-175 -254 -367 -606 -460 -843 -118 -301 -229 -763 -273 -1133 -3
-31 -11 -57 -16 -57 -12 0 -7 44 33 290 115 702 303 1164 716 1758 35 50 66
92 69 92 2 0 -29 -48 -69 -107z m1553 -132 c207 -79 145 -233 -80 -201 -145
20 -256 126 -192 183 57 51 165 58 272 18z m1233 -21 c88 -33 150 -101 133
-145 -12 -33 -68 -55 -143 -55 -118 0 -236 54 -263 120 -37 90 122 137 273 80z
m-2111 -212 c57 -40 106 -77 110 -83 14 -19 8 -100 -10 -135 -49 -97 -146 -69
-211 62 -25 49 -31 74 -31 125 0 63 12 103 30 103 5 0 56 -32 112 -72z m1276
-67 c101 -45 139 -122 86 -172 -24 -22 -33 -24 -132 -24 -97 0 -112 3 -158 27
-111 58 -135 138 -56 183 42 24 191 15 260 -14z m-534 -528 c61 -42 114 -81
118 -87 14 -20 8 -107 -9 -139 -24 -48 -42 -58 -91 -53 -81 7 -157 112 -169
231 -6 54 11 125 29 125 6 0 60 -35 122 -77z m-474 -179 c119 -82 126 -92 117
-170 -6 -53 -47 -104 -84 -104 -78 0 -161 103 -178 221 -7 48 9 129 26 129 5
0 59 -34 119 -76z m-357 -232 c12 -11 17 -30 17 -71 0 -65 -15 -100 -51 -120
-101 -57 -242 176 -189 314 l10 26 98 -67 c53 -37 105 -74 115 -82z m627 -545
c58 -39 109 -75 113 -81 4 -6 6 -37 4 -69 -11 -183 -193 -142 -252 57 -25 82
-14 188 17 170 7 -4 60 -39 118 -77z"/>
</g>
</svg>
