<?xml version="1.0" encoding="utf-8"?>
<!-- Generator: Adobe Illustrator 22.1.0, SVG Export Plug-In . SVG Version: 6.00 Build 0)  -->
<svg version="1.1" id="Layer_1" xmlns="http://www.w3.org/2000/svg" xmlns:xlink="http://www.w3.org/1999/xlink" x="0px" y="0px"
	 viewBox="0 0 607 121" style="enable-background:new 0 0 607 121;" xml:space="preserve">
<style type="text/css">
	.st0{fill:#22716F;}
	.st1{fill:url(#SVGID_1_);}
	.st2{fill:url(#SVGID_2_);}
	.st3{fill:url(#SVGID_3_);}
</style>
<g>
	<g>
		<path d="M165.3,81.5l2.5-2.7c4.1,4.6,9.9,7.6,16.4,7.6c8.5,0,13.9-4.6,13.9-11.2c0-7-4.6-9.2-10.1-11.7l-8.5-3.8
			c-4.9-2.1-11.4-5.6-11.4-13.9c0-8.1,7-13.8,16.3-13.8c6.7,0,12.2,3.1,15.6,6.7l-2.3,2.6c-3.3-3.5-7.7-5.8-13.3-5.8
			c-7.4,0-12.4,4-12.4,10c0,6.5,5.6,9,9.7,10.8l8.5,3.8c6.3,2.8,11.8,6.3,11.8,14.8c0,8.6-7.1,15.1-17.9,15.1
			C176,89.9,169.7,86.4,165.3,81.5z"/>
		<path d="M230.9,32.9h30.6v3.4h-26.7v21.2h22.4v3.4h-22.4v24.7h27.6v3.4h-31.5V32.9z"/>
		<path d="M291.6,32.9h4.1l23.6,39.5l6.3,11.2h0.3c-0.2-5.5-0.5-10.9-0.5-16.3V32.9h3.7v56H325l-23.6-39.5l-6.3-11.2h-0.3
			c0.2,5.4,0.5,10.5,0.5,15.9v34.8h-3.7V32.9z"/>
		<path d="M362.6,32.9h12.9c17.3,0,25.5,10.9,25.5,27.8c0,16.9-8.2,28.2-25.4,28.2h-13V32.9z M375.2,85.6
			c15.2,0,21.8-10.3,21.8-24.9c0-14.6-6.6-24.5-21.8-24.5h-8.6v49.4H375.2z"/>
	</g>
	<g>
		<path class="st0" d="M433.6,33.1H467v8.3h-23.6v14.2h20v8.3h-20v16.4h24.4v8.3h-34.3V33.1z"/>
		<path class="st0" d="M493.3,60.7c0-18,10-28.6,24.5-28.6s24.5,10.7,24.5,28.6c0,18-10,29-24.5,29S493.3,78.7,493.3,60.7z
			 M532.2,60.7c0-12.5-5.6-20-14.4-20s-14.4,7.5-14.4,20c0,12.5,5.6,20.5,14.4,20.5S532.2,73.1,532.2,60.7z"/>
		<path class="st0" d="M566.7,81.6l5.7-6.8c4,3.8,9.3,6.3,14.5,6.3c6.3,0,9.7-2.8,9.7-7.2c0-4.6-3.6-6-8.6-8.2l-7.6-3.3
			c-5.5-2.3-11.2-6.6-11.2-14.7c0-8.9,7.8-15.7,18.7-15.7c6.5,0,12.8,2.7,17.1,7.1l-5.1,6.3c-3.5-3-7.3-4.8-12.1-4.8
			c-5.3,0-8.7,2.5-8.7,6.5c0,4.4,4.2,6,8.8,7.9l7.5,3.1c6.6,2.8,11.2,6.9,11.2,15c0,9-7.5,16.5-19.9,16.5
			C579.2,89.7,572,86.7,566.7,81.6z"/>
	</g>
	<g>
		<linearGradient id="SVGID_1_" gradientUnits="userSpaceOnUse" x1="0" y1="60.8986" x2="121" y2="60.8986">
			<stop  offset="0" style="stop-color:#22716F"/>
			<stop  offset="1" style="stop-color:#213B40"/>
		</linearGradient>
		<path class="st1" d="M60.5,0.4C27.1,0.4,0,27.5,0,60.9c0,33.4,27.1,60.5,60.5,60.5S121,94.3,121,60.9C121,27.5,93.9,0.4,60.5,0.4z
			 M60.5,113.9c-29.2,0-53-23.8-53-53s23.8-53,53-53s53,23.8,53,53S89.7,113.9,60.5,113.9z"/>
		<linearGradient id="SVGID_2_" gradientUnits="userSpaceOnUse" x1="30.9061" y1="47.0524" x2="106.526" y2="47.0524">
			<stop  offset="0" style="stop-color:#22716F"/>
			<stop  offset="1" style="stop-color:#213B40"/>
		</linearGradient>
		<polygon class="st2" points="85.9,36.7 80.8,41.8 89.1,50.2 30.9,50.2 30.9,57.4 106.5,57.4 		"/>
		<linearGradient id="SVGID_3_" gradientUnits="userSpaceOnUse" x1="15.1301" y1="75.8992" x2="90.75" y2="75.8992">
			<stop  offset="0" style="stop-color:#22716F"/>
			<stop  offset="1" style="stop-color:#213B40"/>
		</linearGradient>
		<polygon class="st3" points="35.8,86.2 40.9,81.1 32.6,72.8 90.8,72.8 90.8,65.6 15.1,65.6 		"/>
	</g>
</g>
</svg>
