<?xml version="1.0" encoding="utf-8"?>
<!-- Generator: Adobe Illustrator 22.1.0, SVG Export Plug-In . SVG Version: 6.00 Build 0)  -->
<svg version="1.1" xmlns="http://www.w3.org/2000/svg" xmlns:xlink="http://www.w3.org/1999/xlink" x="0px" y="0px"
	 viewBox="0 0 1133.9 708.7" style="enable-background:new 0 0 1133.9 708.7;" xml:space="preserve">
<style type="text/css">
	.st0{fill:#FCB712;}
	.st1{fill:#0089D1;}
	.st2{fill:#B07E0F;}
	.st3{fill:#045783;}
</style>
<g id="Слой_1">
	<g>
		<path class="st0" d="M792.7,499.5c0,11.5,0,22.8,0,34.3c-150.5,0-300.8,0-451.4,0c0-11.4,0-22.8,0-34.3
			C491.7,499.5,642.1,499.5,792.7,499.5z"/>
		<path class="st1" d="M364.9,481.1c-6.1,0-11.9,0-17.8,0c0-27.8,0-55.5,0-83.2c1.7-0.5,20-0.7,24.9-0.3
			c6.3,16.5,12.7,33.1,19.3,50.2c2.5-5.8,4.4-11.3,6.6-16.8c2.2-5.6,4.3-11.2,6.5-16.8c2.1-5.5,4.2-11,6.4-16.7c8.2,0,16.4,0,24.8,0
			c0,27.7,0,55.5,0,83.4c-5.8,0-11.5,0-17.6,0c0-16.2,0-32.4,0-48.6c-0.2,0-0.4-0.1-0.6-0.1c-6.1,16.2-12.1,32.5-18.2,48.8
			c-5.2,0-10.3,0-15.6,0c-6-16.2-12.1-32.4-18.1-48.6c-0.8,2.7-0.5,5.3-0.5,7.9c-0.1,2.7,0,5.4,0,8.2s0,5.4,0,8.2c0,2.6,0,5.3,0,7.9
			c0,2.7,0,5.4,0,8.2C364.9,475.4,364.9,478.1,364.9,481.1z"/>
		<path class="st1" d="M487.5,378.8c-6.1,0-11.9,0-17.7,0c0-27.8,0-55.5,0-83.2c1.8-0.5,21.4-0.6,24.9-0.2
			c3.2,8.2,6.4,16.6,9.6,24.9c3.2,8.3,6.3,16.5,10,24.8c6.4-16.6,12.7-33.1,19.1-49.8c8.2,0,16.4,0,24.6,0
			c0.5,1.8,0.7,78.6,0.2,83.2c-1.7,0.5-12.5,0.6-17.7,0.2c0-8,0-16.1,0-24.1c0-8.1,0-16.1,0-24.2c-0.3,0-0.4-0.1-0.4-0.1
			c-0.1,0-0.2,0-0.2,0.1c-6,16.1-12,32.1-18.1,48.3c-5.2,0-10.3,0-15.6,0c-6-16.2-12.1-32.5-18.2-48.8c-0.2,0-0.3,0.1-0.5,0.1
			C487.5,346.3,487.5,362.4,487.5,378.8z"/>
		<path class="st1" d="M529.7,397.4c0.7,0,1.5,0,2.3,0c11.1,0,22.2,0,33.4,0c3.2,0,6.4,0.3,9.5,1.3c6.9,2.2,11.2,7,12.8,14
			c0.6,2.6,0.9,5.4,1,8.1c0.1,3.6,0,7.2-0.3,10.8c-0.6,6.8-3.7,12.2-9.4,15.9c-0.3,0.2-0.6,0.5-1,0.8c3.6,10.9,7.1,21.7,10.7,32.8
			c-6,0-11.8,0-17.9,0c-3.8-9.7-7.7-19.6-11.7-29.5c-3.8,0-7.5,0-11.6,0c-0.2,2.4-0.1,4.9-0.1,7.3c0,2.5,0,5,0,7.4
			c0,2.4,0,4.8,0,7.2c0,2.5,0,4.9,0,7.6c-6,0-11.8,0-17.6,0C529.2,479.2,529.1,399.9,529.7,397.4z M547.4,433.2c2.4,0,4.7,0,7,0
			c3.8,0,7.5,0,11.2-0.1c2.8-0.1,4.6-1.5,4.8-4.1c0.2-3.2,0.2-6.4,0-9.5c-0.1-2-1.5-3.3-3.5-3.8c-0.8-0.2-1.7-0.3-2.6-0.3
			c-5,0-10.1,0-15.1,0c-0.6,0-1.2,0.1-1.9,0.2C547.4,421.5,547.4,427.2,547.4,433.2z"/>
		<path class="st1" d="M468.8,397.5c9.2,0,18.1,0,27.4,0c8.2,27.7,16.5,55.5,24.7,83.5c-6,0-11.8,0-17.9,0
			c-1.8-5.8-3.6-11.6-5.4-17.5c-10.1,0-20.1,0-30.3,0c-1.8,5.8-3.6,11.7-5.4,17.6c-5.9,0-11.8,0-17.9,0
			C452.3,453.2,460.5,425.4,468.8,397.5z M482.7,416.4c-0.2,0-0.3,0-0.5,0c-3.1,9.5-6.2,19-9.4,28.6c6.5,0,12.7,0,19.3,0
			C489,435.4,485.9,425.9,482.7,416.4z"/>
		<path class="st1" d="M668.7,481c0-27.9,0-55.6,0-83.5c17.7,0,35.3,0,52.8,0c0.5,1.8,0.6,15,0.1,17.9c-11.6,0-23.2,0-35,0
			c0,5,0,9.8,0,14.7c11.7,0,23.3,0,34.8,0c0.6,1.8,0.7,15.3,0.2,18.2c-11.6,0-23.2,0-34.9,0c0,5,0,9.6,0,14.6
			c5.8,0.3,11.6,0.1,17.4,0.1c5.8,0,11.7,0,17.4,0c0.6,1.9,0.6,15.4,0.2,17.9C704,481,686.5,481,668.7,481z"/>
		<path class="st1" d="M791.8,295.5c0,5.8,0,11.6,0,17.7c-11.7,0-23.3,0-35.1,0c0,5,0,9.8,0,14.8c11.6,0,23.3,0,35.1,0
			c0,6.1,0,12,0,18.2c-5.8,0-11.6,0-17.4,0c-5.8,0-11.6,0-17.6,0c0,4.9,0,9.7,0,14.7c11.7,0,23.3,0,35.1,0c0,6.1,0,11.9,0,17.8
			c-17.7,0-35.3,0-53.1,0c0-27.8,0-55.5,0-83.2C740.6,295.1,789.2,295,791.8,295.5z"/>
		<path class="st1" d="M347.1,378.9c0-6.1,0-11.8,0-17.9c1.1,0,2,0,3,0c10.3,0,20.6,0,31,0c5.9,0,7.4-1.5,7.3-7.4c0-1,0-2.1-0.2-3.1
			c-0.4-2.6-2-4.1-4.7-4.2c-2.4-0.1-4.8,0-7.2-0.1c-3.6-0.1-7.2-0.2-10.8-0.4c-3.1-0.2-6-1.2-8.6-2.7c-5.7-3.2-8.4-8.4-9.4-14.6
			c-0.8-5.5-0.9-11,0.2-16.5c2-10,8.2-15.6,18.4-16.6c1.4-0.1,2.9-0.2,4.3-0.2c11.1,0,22.2,0,33.4,0c0.7,0,1.4,0,2.1,0
			c0.6,1.8,0.7,15,0.2,18c-0.8,0-1.7,0-2.5,0c-10.5,0-21,0-31.4,0c-1,0-2.1,0-3.1,0.2c-2.2,0.4-3.6,1.8-3.8,4
			c-0.2,2.1-0.2,4.2,0,6.2c0.3,2.8,2.2,4.3,5.4,4.3c4.3,0.1,8.6-0.1,13,0.1c2.8,0.1,5.6,0.4,8.3,1.1c8.3,2.2,12.6,8,14,16.2
			c0.9,5.9,0.9,11.8-0.3,17.6c-1.8,8.4-7.4,13.8-15.8,15.3c-2,0.3-4,0.5-6,0.5c-11.3,0-22.6,0-33.8,0
			C348.9,378.9,348,378.9,347.1,378.9z"/>
		<path class="st1" d="M473.2,220c18.8,0,37.5,0,56.4,0c0.1,0.7,0.1,1.4,0.1,2.1c0,15.3,0,30.6,0,45.8c0,2.3-1.1,3.9-2.7,5.3
			c-3.8,3.4-8.4,5.5-13.3,6.6c-3.3,0.7-6.6,1.2-10,1.1c-4.7-0.1-9.4,0.1-14.1-0.9c-4.8-1.1-9.3-3-13.2-6c-2.2-1.7-3.4-3.7-3.4-6.7
			c0.1-15.1,0.1-30.2,0.1-45.4C473.2,221.4,473.2,220.7,473.2,220z"/>
		<path class="st0" d="M538.9,220c19,0,37.6,0,56.5,0c0.1,0.7,0.1,1.4,0.1,2.1c0,15.3,0,30.5,0,45.8c0,1.9-0.6,3.4-1.9,4.8
			c-2.5,2.7-5.7,4.4-9,5.7c-4.7,1.9-9.6,2.7-14.7,2.6c-5-0.1-10,0.2-15-1.1c-5.1-1.3-9.8-3.4-13.7-7c-1.6-1.5-2.4-3.1-2.4-5.4
			c0.1-14.9,0-29.9,0-44.8C538.9,221.8,538.9,221,538.9,220z"/>
		<path class="st0" d="M406.9,220c18.9,0,37.5,0,56.3,0c0,0.6,0,1.1,0,1.5c0,15.3,0,30.7,0,46c0,2.5-0.8,4.3-2.6,5.9
			c-3.9,3.3-8.4,5.6-13.4,6.5c-9.8,1.8-19.6,2-29.1-1.4c-4-1.5-7.9-3.5-10.5-7.2c-0.5-0.7-0.8-1.6-0.8-2.4
			C406.9,252.7,406.9,236.5,406.9,220z"/>
		<path class="st0" d="M670.8,219.9c19,0,37.6,0,56.4,0c0.1,0.8,0.1,1.5,0.1,2.2c0,15.3,0,30.6,0,45.8c0,1.7-0.5,3.1-1.7,4.3
			c-2.7,3.1-6.3,5-10,6.3c-4.4,1.6-9.1,2.5-13.8,2.4c-4.9-0.1-9.7,0.2-14.6-1c-4.1-0.9-7.9-2.5-11.4-4.8c-0.9-0.6-1.8-1.3-2.6-2.1
			c-1.7-1.5-2.5-3.3-2.5-5.7c0.1-8.6,0-17.1,0-25.7c0-6.3,0-12.6,0-19C670.8,222,670.8,221.1,670.8,219.9z"/>
		<path class="st1" d="M605,220c18.9,0,37.5,0,56.4,0c0,1.1,0,2,0,3c0,14.6-0.1,29.3,0.1,43.9c0.1,3.7-1.6,5.9-4.3,7.9
			c-4.3,3.2-9.1,5-14.3,5.7c-7.3,1-14.6,1.1-21.9-0.5c-5.1-1.1-9.7-3.2-13.6-6.7c-1.6-1.4-2.4-3-2.4-5.2c0.1-15.3,0-30.5,0-45.8
			C605,221.6,605,220.9,605,220z"/>
		<path class="st1" d="M397.3,220c0,1.2,0,2.1,0,3c0,14.6-0.1,29.3,0.1,43.9c0,3.7-1.6,6-4.3,7.9c-4.2,3-8.9,4.8-13.9,5.5
			c-7.5,1-15,1.1-22.4-0.5c-4.8-1-9-3.1-12.8-6.2c-2-1.6-2.9-3.5-2.9-6.2c0.1-14.9,0.1-29.7,0.1-44.6c0-0.9,0-1.9,0-3
			C359.9,220,378.4,220,397.3,220z"/>
		<path class="st1" d="M736.9,220c18.6,0,37.1,0,55.7,0c0.1,0.8,0.1,1.5,0.1,2.2c0,15.5,0,31,0,46.5c0,1.9-0.7,3.3-2.1,4.5
			c-4.6,4-10,6.4-15.9,7.1c-8.4,1.1-16.9,1.3-25.1-1.3c-4-1.2-7.4-3.3-10.6-5.9c-1.6-1.3-2.3-2.9-2.3-5c0.1-15.1,0.1-30.2,0.1-45.3
			C736.9,222,736.9,221.1,736.9,220z"/>
		<path class="st1" d="M581.6,295.3c0.9,0,1.7-0.1,2.4-0.1c11.1,0,22.2-0.1,33.3,0c2.8,0,5.8,0.4,8.5,1.1
			c7.2,1.8,11.9,6.5,13.6,13.7c1.8,7.8,1.8,15.7,0.2,23.5c-1.8,8.7-7.7,13.8-16.5,15.1c-2.2,0.3-4.5,0.4-6.7,0.5
			c-4.9,0.1-9.8,0-14.6,0c-0.8,0-1.6,0.1-2.5,0.1c0,9.9,0,19.6,0,29.5c-6,0-11.8,0-17.7,0C581.6,351,581.6,323.2,581.6,295.3z
			 M599.4,330.8c0.6,0.1,0.9,0.2,1.2,0.2c5.6,0,11.2,0,16.8-0.1c3.5-0.1,5.2-1.9,5.4-5.4c0.1-2,0-4,0-6c0-4.5-1.7-6.3-6.2-6.3
			c-5.1,0-10.2,0-15.3,0c-0.6,0-1.2,0.1-1.8,0.2C599.4,319.3,599.4,325,599.4,330.8z"/>
		<path class="st1" d="M617.6,397.5c0,12.7,0,25.1,0,37.5c0.2,0.1,0.3,0.1,0.5,0.2c0.4-0.7,0.9-1.4,1.3-2.1
			c6.4-11.1,12.9-22.3,19.3-33.5c0.9-1.6,1.9-2.2,3.7-2.2c4.6,0.1,9.3,0,13.9,0c0.7,0,1.4,0,2.6,0c-2.7,5-5.5,9.5-8.2,14
			c-2.7,4.6-5.5,9.2-8.2,13.8c-2.7,4.6-5.5,9.2-8.3,14c8.2,13.8,16.3,27.6,24.5,41.4c-1.9,0.5-12.8,0.7-18.9,0.3
			c-7.2-12.4-14.4-24.9-21.6-37.3c-0.2,0-0.3,0-0.4,0.1c-0.1,0-0.1,0.1-0.2,0.1c0,0.2-0.1,0.3-0.1,0.5c0,12.1-0.1,24.2-0.1,36.2
			c0,0.1-0.1,0.1-0.2,0.4c-5.7,0-11.5,0-17.5,0c0-27.7,0-55.4,0-83.5C605.7,397.4,611.4,397.4,617.6,397.5z"/>
		<path class="st1" d="M753.6,415.4c-7.1,0-13.8,0-20.6,0c0-6,0-11.8,0-17.8c19.7,0,39.2,0,59.1,0c0,5.8,0,11.6,0,17.8
			c-6.9,0.2-13.6,0-20.6,0.2c0,21.9,0,43.6,0,65.5c-6.1,0-11.9,0-17.9,0C753.6,459.2,753.6,437.5,753.6,415.4z"/>
		<path class="st1" d="M680.9,360.9c11.9,0,23.5,0,35.3,0c0,6.1,0,11.9,0,17.8c-17.6,0-35.2,0-53,0c0-27.7,0-55.5,0-83.4
			c5.8,0,11.6,0,17.7,0C680.9,317.2,680.9,338.9,680.9,360.9z"/>
		<path class="st2" d="M429.3,175c18.3,0,36.3,0,54.5,0c-0.2,0.6-0.4,1.1-0.6,1.6c-4,7.4-7.9,14.7-12,22.1c-1.7,3.1-3.5,6.1-5.2,9.1
			c-0.4,0.7-0.9,1-1.7,1c-0.4,0-0.8,0-1.2,0c-16.5,0-33.1,0-49.6,0c-0.7,0-1.4,0-2.6,0C417.2,197.3,423.2,186.1,429.3,175z"/>
		<path class="st2" d="M650.2,174.9c0.9,0,1.6,0,2.4,0c16.4,0,32.8,0,49.2,0c1.7,0,2.8,0.5,3.6,2.1c3,5.6,6.1,11.2,9.1,16.8
			c2.4,4.4,4.9,8.8,7.3,13.2c0.3,0.5,0.4,1,0.7,1.7c-0.9,0.1-1.6,0.2-2.3,0.2c-16.5,0-33.1,0-49.6,0.1c-1.7,0-2.6-0.6-3.3-2
			c-3.6-6.7-7.3-13.4-11-20.2c-2-3.6-3.9-7.1-5.8-10.7C650.2,175.7,650.3,175.5,650.2,174.9z"/>
		<path class="st3" d="M765.6,175.1c7.2,11,14.4,22.1,21.6,33.2c-1.8,0.6-45.8,0.9-53,0.3c-6-11-12.1-22.2-18.3-33.5
			C732.6,175.1,749.1,175.1,765.6,175.1z"/>
		<path class="st3" d="M346.6,208.2c7.5-11.1,15-22.1,22.5-33.2c16,0,32,0,48.3,0c-0.3,0.7-0.4,1.3-0.7,1.8
			c-5.4,9.9-10.8,19.7-16.1,29.6c-1,1.8-2,2.4-4.1,2.4c-15.7-0.1-31.3,0-47,0c-0.9,0-1.7,0-2.6,0
			C346.8,208.6,346.7,208.4,346.6,208.2z"/>
		<path class="st3" d="M538.5,175c-2.6,11.2-5.3,22.3-7.8,33.3c-1.8,0.5-50.2,0.7-53.3,0.1c6.2-11.2,12.2-22.4,18.3-33.4
			C510,175,524.1,175,538.5,175z"/>
		<path class="st3" d="M603.7,208.7c-2.1-11.4-4.2-22.5-6.4-33.7c13.7,0,27.1,0,40.8,0c6,11,12.1,22.1,18.2,33.2
			c-0.3,0.2-0.4,0.4-0.6,0.4C638.5,208.7,621.3,208.7,603.7,208.7z"/>
		<path class="st2" d="M593.7,208.6c-17.7,0-35.3,0-53.1,0c2.7-11.3,5.3-22.4,7.9-33.6c13,0,25.9,0,38.9,0
			C588.2,176.6,593.1,202.4,593.7,208.6z"/>
		<path class="st1" d="M446.3,378.8c-6,0-11.7,0-17.4,0c-0.5-1.9-0.6-81.1-0.1-83.5c5.8,0,11.6,0,17.5,0
			C446.3,323.2,446.3,350.9,446.3,378.8z"/>
	</g>
</g>
<g id="Слой_2">
</g>
</svg>
