<?xml version="1.0" encoding="utf-8"?>
<!-- Generator: Adobe Illustrator 22.1.0, SVG Export Plug-In . SVG Version: 6.00 Build 0)  -->
<svg version="1.1" id="Слой_1" xmlns="http://www.w3.org/2000/svg" xmlns:xlink="http://www.w3.org/1999/xlink" x="0px" y="0px"
	 viewBox="0 0 566.9 566.9" style="enable-background:new 0 0 566.9 566.9;" xml:space="preserve">

<g>
	<path style="fill: #FCB712;" d="M62.2,454.9c0-7.7,0-15.3,0-23c148.9,0,297.8,0,446.6,0c0.5,1.6,0.6,19.1,0.2,23
		C360.2,454.9,211.3,454.9,62.2,454.9z"/>
	<path style="fill: #0089D1;" d="M233.5,279.2c6.3-16.5,12.6-32.9,19-49.4c8.2,0,16.3,0,24.5,0c0,27.5,0,55,0,82.5c-5.7,0-11.4,0-17.4,0
		c-0.1-5.3,0-10.7,0-16c0-5.5,0-10.9,0-16.4c0-5.3,0-10.7,0-16c-0.2,0-0.4-0.1-0.5-0.1c-6,16.2-12,32.3-18.1,48.6
		c-5.1,0-10.1,0-15.4,0c-6-16.2-12.1-32.4-18.1-48.6c-0.2,0-0.3,0-0.4,0c-0.1,0-0.1,0.1-0.1,0.2c-0.1,16-0.1,32-0.1,48
		c0,0.1-0.1,0.1-0.2,0.4c-5.6,0-11.4,0-17.2,0c0-27.5,0-54.9,0-82.5c8.2,0,16.2,0,24.5,0c6.3,16.4,12.7,32.9,19,49.4
		C233.2,279.3,233.4,279.2,233.5,279.2z"/>
	<path style="fill: #0089D1;" d="M155.6,331.1c0,27.5,0,54.9,0,82.3c-1.6,0.5-14,0.6-17.4,0.2c0-16.1,0-32.2,0-48.3c-0.2,0-0.3-0.1-0.5-0.1
		c-3.2,8-6,16.1-9.1,24.1c-3.1,8.1-6.1,16.3-9.1,24.5c-5.1,0-10.1,0-15.3,0c-6-16.2-12-32.3-18.1-48.5c-0.2,0-0.4,0-0.5,0.1
		c-0.1,8,0,16.1,0,24.1c0,8.1,0,16.1,0,24.3c-5.9,0-11.6,0-17.4,0c0-27.5,0-54.9,0-82.5c8.2,0,16.3,0,24.5,0
		c6.3,16.4,12.6,32.9,18.9,49.3c0.2,0,0.3,0,0.5,0c6.3-16.4,12.6-32.9,19-49.4C139.2,331.1,147.2,331.1,155.6,331.1z"/>
	<path style="fill: #0089D1;" d="M248.8,330.9c0.9,0,1.7,0,2.5,0c10.8,0,21.7-0.1,32.5,0c2.7,0,5.5,0.3,8.2,0.9c7.8,1.8,12.4,6.8,14.2,14.6
		c0.4,1.6,0.7,3.3,0.7,4.9c0,4.7,0.2,9.4-0.2,14c-0.6,6.2-3.6,11.2-8.9,14.8c-0.5,0.3-0.9,0.6-1.4,1c3.5,10.8,7,21.5,10.6,32.5
		c-6,0-11.7,0-17.6,0c-3.9-9.8-7.7-19.5-11.6-29.3c-3.9,0-7.6,0-11.6,0c-0.2,2.5-0.1,4.9-0.1,7.3c0,2.5,0,4.9,0,7.4
		c0,2.4,0,4.8,0,7.1c0,2.4,0,4.9,0,7.5c-5.8,0-11.5,0-17.2,0C248.5,411.9,248.2,335.6,248.8,330.9z M266.3,366.4
		c6.1,0,11.9,0.1,17.7,0c3.6-0.1,5.2-1.7,5.4-5.3c0.2-2.4,0.2-4.7,0-7.1c-0.2-3.6-2.1-5.2-5.7-5.3c-4.3-0.1-8.7,0-13,0
		c-1.4,0-2.8,0-4.4,0C266.3,354.6,266.3,360.3,266.3,366.4z"/>
	<path style="fill: #0089D1;" d="M240.1,413.6c-5.9,0-11.6,0-17.6,0c-1.8-5.7-3.6-11.5-5.4-17.4c-10,0-20,0-30.1,0c-1.8,5.8-3.6,11.6-5.4,17.4
		c-5.8,0-11.5,0-17.6,0c8.2-27.6,16.3-55.1,24.5-82.6c9,0,17.9,0,27,0C223.7,358.5,231.9,386,240.1,413.6z M211.7,378.1
		c-3.1-9.7-6.2-19.1-9.8-28.5c-3.1,9.4-6.2,18.9-9.3,28.5C199,378.1,205.2,378.1,211.7,378.1z"/>
	<path style="fill: #0089D1;" d="M455.9,229.8c17.5,0,34.8,0,52.4,0c0.1,5.8,0,11.5,0,17.6c-11.6,0-23.2,0-35,0c0,4.9-0.1,9.7,0,14.7
		c11.7,0,23.2,0,34.8,0c0,6,0,11.7,0,17.8c-2.9,0-5.8,0-8.7,0c-2.8,0-5.7,0-8.5,0c-2.9,0-5.9,0-8.8,0c-2.8,0-5.7,0-8.7,0
		c0,5,0,9.7,0,14.7c11.6,0,23.1,0,34.5,0c0.5,1.9,0.7,13.2,0.3,17.6c-17.4,0-34.7,0-52.1,0C455.6,310.6,455.4,234.1,455.9,229.8z"/>
	<path style="fill: #0089D1;" d="M438.8,348.7c-11.7,0-23.1,0-34.7,0c0,5,0,9.7,0,14.7c11.6,0,23,0,34.4,0c0.6,1.8,0.7,14.4,0.2,17.9
		c-11.5,0-23,0-34.7,0c0,5,0,9.7,0,14.8c11.6,0.1,23.1,0,34.7,0.1c0,5.9,0,11.6,0,17.5c-17.4,0-34.7,0-52.3,0c0-27.5,0-54.9,0-82.5
		c17.4,0,34.8,0,52.3,0C438.8,336.9,438.8,342.6,438.8,348.7z"/>
	<path style="fill: #0089D1;" d="M126.3,247.5c-1,0-1.9,0-2.8,0c-10.2,0-20.4,0-30.6,0c-0.6,0-1.3,0-1.9,0c-3.4,0.2-5.1,1.7-5.4,5.1
		c-0.1,1.3-0.1,2.7-0.1,4c0.2,3.9,1.9,5.5,5.9,5.6c4,0,7.9-0.1,11.9,0c2.2,0.1,4.4,0.2,6.6,0.6c9.3,1.8,14.7,7.3,16.1,16.9
		c0.8,5.6,0.8,11.2-0.3,16.8c-1.7,8.6-7.3,14-15.9,15.5c-1.9,0.3-3.8,0.5-5.7,0.5c-11.3,0-22.6,0-34,0c-0.6,0-1.2,0-2.1,0
		c0-5.9,0-11.6,0-17.6c0.8,0,1.7-0.1,2.5-0.1c10.2,0,20.4,0,30.6,0c1.1,0,2.2-0.1,3.3-0.2c2.3-0.3,3.8-1.7,4-4
		c0.2-2.1,0.2-4.3,0-6.4c-0.3-2.6-1.9-3.9-4.5-4.1c-2.6-0.1-5.2,0-7.8-0.1c-3.6-0.1-7.3,0-10.9-0.5c-9.9-1.5-15.4-7-17-17.1
		c-0.9-5.6-0.9-11.4,0.3-17c1.7-8.3,7.2-13.6,15.7-15.1c2-0.4,4.1-0.6,6.1-0.6c11.3-0.1,22.6,0,34,0c0.5,0,1.1,0.1,1.8,0.1
		C126.3,235.7,126.3,241.4,126.3,247.5z"/>
	<path style="fill: #0089D1;" d="M193,155.2c18.6,0,37,0,55.6,0c0.1,0.7,0.2,1.3,0.2,1.9c0,15.3,0,30.5,0,45.8c0,2.2-1.1,3.7-2.6,5.1
		c-3.4,3.1-7.4,5.1-11.8,6.2c-3.5,0.9-7.1,1.5-10.8,1.4c-4.9-0.1-9.8,0.2-14.6-0.9c-4.8-1.1-9.1-3-13-6c-2.1-1.7-3.2-3.6-3.1-6.5
		c0.1-15.3,0.1-30.7,0.1-46C192.9,155.9,193,155.6,193,155.2z"/>
	<path style="fill: #FCB712;" d="M257.9,155.2c18.8,0,37.3,0,56,0c0,1,0,2,0,2.9c0,14.5-0.1,29,0.1,43.5c0,3.6-1.5,5.8-4.1,7.7
		c-4.2,3-8.8,5-13.9,5.7c-7.4,1-14.8,1.2-22.2-0.4c-5.1-1.1-9.7-3.3-13.6-6.9c-1.7-1.5-2.4-3.3-2.4-5.6c0.1-14.6,0-29.3,0-43.9
		C257.9,157.2,257.9,156.4,257.9,155.2z"/>
	<path style="fill: #FCB712;" d="M388.6,155.2c18.7,0,37.1,0,55.8,0c0,0.9,0,1.7,0,2.5c0,15,0,29.9,0,44.9c0,1.8-0.5,3.2-1.7,4.5
		c-2.8,3-6.2,4.9-10,6.2c-4.4,1.6-9,2.4-13.7,2.3c-4.8-0.1-9.6,0.1-14.4-1c-5-1.2-9.6-3.2-13.5-6.6c-1.8-1.5-2.6-3.4-2.6-5.8
		c0.1-15.1,0-30.3,0-45.4C388.5,156.4,388.6,155.9,388.6,155.2z"/>
	<path style="fill: #0089D1;" d="M323.3,155.2c18.7,0,37,0,55.6,0c0.1,0.7,0.2,1.4,0.2,2.1c0,15.3,0,30.6,0,45.8c0,1.6-0.5,2.8-1.6,4
		c-4,4.1-8.9,6.3-14.3,7.4c-2.9,0.6-5.9,0.9-8.9,1c-4.2,0.1-8.4,0-12.5-0.5c-5.9-0.7-11.3-2.9-15.9-6.9c-1.7-1.5-2.6-3.1-2.6-5.5
		c0.1-15,0-29.9,0-44.9C323.3,157,323.3,156.2,323.3,155.2z"/>
	<path style="fill: #0089D1;" d="M117.7,155.3c0,0.9,0,1.7,0,2.4c0,14.9,0,29.8,0,44.6c0,2.4-0.7,4.2-2.5,5.8c-3.7,3.2-8.1,5.2-12.8,6.3
		c-3.2,0.8-6.5,1.3-9.9,1.1c-4-0.2-8.1-0.1-12.1-0.5c-5.7-0.7-10.8-2.9-15.3-6.4c-2.1-1.7-3.1-3.6-3.1-6.5
		c0.1-14.7,0.1-29.4,0.1-44.2c0-0.9,0-1.7,0-2.5C64.1,155,113.4,154.8,117.7,155.3z"/>
	<path style="fill: #FCB712;" d="M182.9,155.2c0,16,0,31.9,0,47.8c0,2-0.7,3.5-2.2,4.8c-4,3.5-8.7,5.8-13.9,6.8c-3,0.6-6.1,0.9-9.2,1
		c-4.8,0.1-9.6,0.2-14.4-0.9c-4.9-1.2-9.4-3.2-13.3-6.4c-1.9-1.5-2.8-3.3-2.8-5.9c0.1-15,0.1-30.1,0.1-45.1c0-0.6,0-1.2,0-2
		C145.9,155.2,164.4,155.2,182.9,155.2z"/>
	<path style="fill: #0089D1;" d="M454,155.2c18.3,0,36.7,0,55.1,0c0.1,0.8,0.1,1.4,0.1,2.1c0,15.4,0,30.7,0,46.1c0,1.8-0.6,3.2-1.9,4.4
		c-4.5,4-9.8,6.4-15.7,7.2c-8.4,1.1-16.9,1.3-25.1-1.3c-3.9-1.2-7.3-3.2-10.5-5.9c-1.6-1.3-2.2-2.9-2.2-5
		c0.1-15.1,0.1-30.2,0.1-45.4C454,156.8,454,156.1,454,155.2z"/>
	<path style="fill: #0089D1;" d="M300.3,229.7c1,0,1.8,0,2.6,0c10.8,0,21.5-0.1,32.3,0c2.9,0,5.9,0.3,8.7,1c7.3,1.7,12,6.4,13.7,13.6
		c1.8,7.6,1.7,15.3,0.2,22.9c-1.8,8.9-7.8,14.2-16.8,15.3c-2.1,0.3-4.3,0.4-6.4,0.4c-4.8,0.1-9.5,0-14.3,0c-0.8,0-1.5,0.1-2.5,0.1
		c0,9.8,0,19.4,0,29c-1.8,0.5-14.1,0.7-17.5,0.2C300.3,284.9,300.3,257.5,300.3,229.7z M317.8,264.8c0.3,0.1,0.4,0.3,0.5,0.3
		c5.9,0,11.9,0.1,17.8,0c3.1-0.1,4.7-1.9,4.8-5c0.1-2.1,0.1-4.3,0-6.4c0-4.3-1.8-6.1-6-6.1c-5.1,0-10.3,0-15.4,0
		c-0.5,0-1.1,0.1-1.7,0.1C317.8,253.5,317.8,259.2,317.8,264.8z"/>
	<path style="fill: #0089D1;" d="M376.5,413.7c-6.4,0-12.4,0-18.7,0c-7.2-12.4-14.4-24.9-21.6-37.4c-0.2,0-0.3,0.1-0.5,0.1
		c0,12.4,0,24.7,0,37.2c-5.9,0-11.6,0-17.3,0c-0.4-1.7-0.6-78.3-0.2-82.5c5.7-0.3,11.4-0.1,17.3-0.1c0,12.6,0,24.9,0,37.1
		c0.3,0.1,0.4,0.2,0.5,0.1c0.1,0,0.2-0.1,0.2-0.1c7.2-12.3,14.3-24.6,21.5-37c6.1,0,12.1,0,18.6,0c-0.5,0.9-0.8,1.6-1.3,2.3
		c-7.3,12.3-14.5,24.5-21.8,36.7c-1,1.7-0.9,2.8,0,4.5c7.3,12.1,14.5,24.3,21.7,36.5C375.6,411.9,376,412.6,376.5,413.7z"/>
	<path style="fill: #0089D1;" d="M470.5,348.7c-6.9,0-13.5,0-20.4,0c-0.2-5.9-0.1-11.7-0.1-17.4c1.8-0.5,54.7-0.7,58.3-0.2c0,5.7,0,11.4,0,17.4
		c-6.6,0-13.2,0-20.1,0c-0.3,5.6-0.1,10.9-0.2,16.3c0,5.5,0,10.9,0,16.4c0,5.4,0,10.8,0,16.1c0,5.4,0,10.7,0,16.2
		c-5.9,0-11.5,0-17.6,0c0-5.3,0-10.7,0-16c0-5.5,0-10.9,0-16.4c0-5.4,0-10.8,0-16.1C470.5,359.7,470.5,354.3,470.5,348.7z"/>
	<path style="fill: #0089D1;" d="M433.4,294.8c0,6,0,11.6,0,17.3c-1.6,0.5-49.1,0.6-52.4,0.1c0-27.4,0-54.8,0-82.4c5.8,0,11.4,0,17.3,0
		c0,21.5,0,43,0,64.8c2.5,0.2,4.7,0.1,7,0.1c2.4,0,4.8,0,7.1,0c2.3,0,4.6,0,6.9,0c2.4,0,4.8,0,7.1,0
		C428.8,294.8,431,294.8,433.4,294.8z"/>
	<path style="fill: #B07E0F;" d="M131.2,145.5c6.2-11.4,12.3-22.4,18.3-33.4c18,0,35.9,0,54.1,0c-1.2,2.2-2.3,4.2-3.4,6.2
		c-3,5.6-6,11.3-9.1,16.9c-1.7,3.1-3.5,6.2-5.3,9.3c-0.4,0.7-0.9,1.1-1.7,1.1c-0.5,0-1,0-1.4,0c-16.3,0-32.6,0-48.9,0
		C133.1,145.5,132.4,145.5,131.2,145.5z"/>
	<path style="fill: #B07E0F;" d="M439.7,145.5c-1.3,0-2.1,0-2.9,0c-16.1,0-32.3,0-48.4,0.1c-1.9,0-2.8-0.7-3.6-2.2c-3.5-6.5-7-12.9-10.5-19.3
		c-2-3.6-3.9-7.2-5.9-10.8c-0.1-0.3-0.2-0.6-0.3-1.1c0.8,0,1.3-0.1,1.9-0.1c16.5,0,32.9,0,49.4,0c1.4,0,2.3,0.4,3,1.7
		c2.7,5,5.4,10,8.2,15c2.6,4.8,5.3,9.5,7.9,14.3C438.8,143.6,439.1,144.3,439.7,145.5z"/>
	<path style="fill: #045783;" d="M433.1,112.1c16.6,0,32.8,0,49.2,0c7.1,11,14.3,21.9,21.6,33.3c-6,0.3-11.8,0.1-17.6,0.1c-5.8,0-11.6,0-17.3,0
		c-5.8,0-11.7,0-17.6,0C445.3,134.4,439.3,123.4,433.1,112.1z"/>
	<path style="fill: #045783;" d="M89.9,112.1c16,0,31.7,0,47.7,0c-0.3,0.7-0.4,1.3-0.7,1.8c-5.4,9.9-10.8,19.8-16.2,29.8
		c-0.8,1.4-1.7,2-3.3,1.9c-15.8-0.1-31.5,0-47.3,0c-0.8,0-1.5-0.1-2.8-0.2C75,134.1,82.4,123.1,89.9,112.1z"/>
	<path style="fill: #045783;" d="M215.2,112.1c14.3,0,28.2,0,42.3,0c-2.6,11.1-5.2,22.1-7.8,33c-2.2,0.5-50.5,0.5-52.6,0
		C203.1,134.1,209.2,123.1,215.2,112.1z"/>
	<path style="fill: #045783;" d="M356.2,112.1c6,11,12,22,18.2,33.2c-17.6,0-34.8,0-52.2,0c-2.1-11-4.2-22.1-6.3-33.2
		C329.4,112.1,342.6,112.1,356.2,112.1z"/>
	<path style="fill: #B07E0F;" d="M267.4,112.1c12.9,0,25.7,0,38.8,0c2,10.9,4,22,6,33.3c-17.7,0-35,0-52.7,0
		C262.2,134.2,264.8,123.2,267.4,112.1z"/>
	<path style="fill: #0089D1;" d="M166.2,312.4c-5.8,0-11.5,0-17.3,0c0-27.5,0-55,0-82.5c5.8,0,11.4,0,17.3,0
		C166.2,257.4,166.2,284.8,166.2,312.4z"/>
</g>
</svg>
