<?xml version="1.0" encoding="UTF-8"?>
<svg width="1000px" height="1000px" viewBox="0 0 1000 1000" version="1.1" xmlns="http://www.w3.org/2000/svg" xmlns:xlink="http://www.w3.org/1999/xlink">
    <!-- Generator: Sketch 53.2 (72643) - https://sketchapp.com -->
    <title>Group 2</title>
    <desc>Created with Sketch.</desc>
    <g id="Page-1" stroke="none" stroke-width="1" fill="none" fill-rule="evenodd">
        <g id="Group-2">
            <g id="Group">
                <rect id="Rectangle" fill="#16002C" x="0" y="0" width="1000" height="1000"></rect>
                <path d="M722.5555,463.843106 C693.450131,484.737337 652.576647,512.496816 634.178607,512.496816 C630.498999,512.496816 629.338762,511.402357 628.476872,510.374228 C620.951908,501.087903 623.007184,468.552599 634.543253,413.69695 C635.712014,408.275231 632.860843,402.788405 627.753681,400.631018 C622.646518,398.473631 616.727681,400.255798 613.658991,404.874941 C573.879444,464.17476 555.680302,476.611803 547.359747,476.611803 C535.65793,476.611803 523.757216,442.915708 511.95595,376.485318 C511.020956,371.206692 506.566829,367.273086 501.215473,367 L501.215473,367 L500.651929,367 L500.651929,367 C495.318135,367.299972 490.887954,371.224544 489.944601,376.485318 C478.110186,442.816212 466.209472,476.611803 454.507655,476.611803 C446.253399,476.611803 427.987957,464.17476 388.208411,404.874941 C385.11634,400.29358 379.217794,398.539188 374.126327,400.686536 C369.03486,402.833884 366.171754,408.283541 367.290999,413.69695 C378.860217,468.552599 380.915494,501.087903 373.35738,510.374228 C372.528639,511.402357 371.335253,512.496816 367.688795,512.496816 C349.257605,512.496816 308.41727,484.737337 279.311902,463.843106 C274.709336,460.540619 268.393669,461.057463 264.388695,465.064348 C260.383722,469.071233 259.867125,475.389915 263.168036,479.994678 C329.732477,565.163547 317.20192,662.935285 317.20192,662.935285 C316.96107,664.315227 316.839073,665.713309 316.837274,667.114131 C316.837274,691.125915 350.450991,700.644398 379.821556,706.249359 C412.076139,712.418132 454.573954,715.867338 499.69059,716 L502.30941,716 C547.426046,716 589.923861,712.418132 622.178444,706.249359 C651.44956,700.644398 685.162726,691.125915 685.162726,667.114131 C685.160927,665.713309 685.03893,664.315227 684.79808,662.935285 C684.79808,662.935285 672.267523,565.163547 738.831964,479.994678 C742.132875,475.389915 741.616278,469.071233 737.611305,465.064348 C733.606331,461.057463 727.290664,460.540619 722.688098,463.843106 L722.5555,463.843106 Z M502.27626,682.735057 L499.65744,682.735057 C427.921658,682.502898 380.484549,674.178371 359.567137,667.014635 C380.484549,659.817733 427.921658,651.46004 499.65744,651.261047 L502.243111,651.261047 C573.978893,651.46004 621.382853,659.817733 642.333414,667.014635 C621.416002,674.311033 573.978893,682.63556 502.27626,682.867718 L502.27626,682.735057 Z" id="Shape" fill="#FE9E01" fill-rule="nonzero"></path>
                <circle id="Oval" fill="#FE9E01" fill-rule="nonzero" cx="501" cy="319" r="35"></circle>
                <circle id="Oval" fill="#FE9E01" fill-rule="nonzero" cx="353" cy="361" r="29"></circle>
                <circle id="Oval" fill="#FE9E01" fill-rule="nonzero" cx="646" cy="361" r="29"></circle>
                <circle id="Oval" fill="#FE9E01" fill-rule="nonzero" cx="240.5" cy="443.5" r="19.5"></circle>
                <circle id="Oval" fill="#FE9E01" fill-rule="nonzero" cx="760.5" cy="443.5" r="19.5"></circle>
                <g id="Монтажна-область-3" transform="translate(741.000000, 424.000000)"></g>
            </g>
        </g>
    </g>
</svg>