<?xml version="1.0" encoding="utf-8"?>
<!-- Generator: Adobe Illustrator 22.0.1, SVG Export Plug-In . SVG Version: 6.00 Build 0)  -->
<svg version="1.1" id="Слой_1" xmlns="http://www.w3.org/2000/svg" xmlns:xlink="http://www.w3.org/1999/xlink" x="0px" y="0px"
	 width="997.8px" height="999px" viewBox="0 0 997.8 999" style="enable-background:new 0 0 997.8 999;" xml:space="preserve">
<style type="text/css">
	.st0{fill:#18002F;}
	.st1{fill:#E69C25;}
	.st2{fill:#FFFFFF;}
</style>
<path class="st0" d="M848.9,998.1h-700c-82.8,0-150-67.2-150-150v-700c0-82.8,67.2-150,150-150h700c82.8,0,150,67.2,150,150v700
	C998.9,930.9,931.8,998.1,848.9,998.1z"/>
<path class="st1" d="M625.2,328.3c-16.6,11.9-39.8,27.7-50.3,27.7c-2.1,0-2.7-0.6-3.2-1.2c-4.3-5.3-3.1-23.8,3.4-55
	c0.6-3.1-1-6.2-3.9-7.4c-2.9-1.2-6.3-0.2-8,2.4c-22.6,33.7-33,40.8-37.7,40.8c-6.7,0-13.4-19.2-20.1-56.9c-0.5-3-3.1-5.2-6.1-5.4
	l0,0c-0.1,0-0.1,0-0.2,0s-0.1,0-0.2,0l0,0c-3,0.2-5.5,2.4-6.1,5.4c-6.7,37.8-13.5,56.9-20.2,56.9c-4.7,0-15-7.1-37.7-40.8
	c-1.8-2.6-5.1-3.6-8-2.4s-4.5,4.3-3.9,7.4c6.6,31.2,7.7,49.7,3.4,55c-0.5,0.6-1.2,1.2-3.2,1.2c-10.5,0-33.7-15.8-50.3-27.7
	c-2.6-1.9-6.2-1.6-8.5,0.7c-2.3,2.3-2.6,5.9-0.7,8.5c37.9,48.4,30.7,104,30.7,104c-0.1,0.8-0.2,1.6-0.2,2.4
	c0,13.7,19.1,19.1,35.8,22.2c18.3,3.5,42.5,5.5,68.2,5.5l0,0c0.2,0,0.5,0,0.7,0s0.5,0,0.7,0l0,0c25.7-0.1,49.8-2,68.2-5.5
	c16.7-3.2,35.8-8.6,35.8-22.2c0-0.8-0.1-1.6-0.2-2.4c0,0-7.1-55.6,30.7-104c1.9-2.6,1.6-6.2-0.7-8.5
	C631.4,326.7,627.8,326.4,625.2,328.3z M499.8,452.8L499.8,452.8c-0.3,0-0.5,0-0.7,0s-0.5,0-0.7,0h-0.1c-40.8-0.1-67.8-4.9-79.7-8.9
	c11.9-4.1,38.9-8.8,79.7-8.9h0.1c0.2,0,0.4,0,0.6,0s0.4,0,0.6,0h0.1c40.8,0.1,67.8,4.9,79.7,8.9
	C567.6,447.9,540.6,452.7,499.8,452.8z"/>
<circle class="st1" cx="499.1" cy="245.3" r="19.9"/>
<circle class="st1" cx="415.1" cy="269.3" r="16.6"/>
<circle class="st1" cx="581.7" cy="269.3" r="16.6"/>
<circle class="st1" cx="351.1" cy="316.6" r="11.2"/>
<circle class="st1" cx="646.7" cy="316.6" r="11.2"/>
<path class="st1" d="M124.8,701.9c-8,0-15.3-1-21.9-3.1s-12.2-5-16.7-8.9c-4.6-3.9-8.1-8.7-10.6-14.4s-3.8-12.1-3.8-19.3h37.4
	c0,4.8,1.5,8.3,4.6,10.5c3.1,2.3,6.7,3.4,10.8,3.4c3.9,0,7.3-0.9,10.3-2.8c3-1.9,4.5-4.6,4.5-8.3c0-2.1-0.6-3.9-1.8-5.3
	c-1.2-1.4-2.8-2.6-4.9-3.6c-2.1-1-4.5-1.9-7.2-2.6c-2.8-0.8-5.7-1.5-8.8-2.3c-4.8-1.1-9.7-2.5-14.8-4c-5.1-1.6-9.7-3.8-14-6.8
	c-4.3-2.9-7.7-6.8-10.4-11.5c-2.7-4.7-4-10.8-4-18.3c0-13,4.4-23.1,13.3-30.2c8.8-7.1,21.1-10.6,36.8-10.6
	c15.9,0,28.2,3.8,36.8,11.5c8.6,7.6,12.9,18.2,12.9,31.6H137c0-4.1-1.3-7.2-4-9.2s-5.9-3-9.7-3c-3.3,0-6.2,0.7-8.8,2.2
	c-2.6,1.4-3.9,3.7-3.9,6.9c0,1.9,0.6,3.4,1.8,4.7c1.2,1.3,2.8,2.4,4.8,3.3c2,0.9,4.4,1.8,7.1,2.6s5.6,1.6,8.7,2.4
	c4.9,1.3,10,2.7,15.2,4.4s10.1,4,14.5,7.1c4.4,3,8,6.9,10.8,11.7s4.2,10.9,4.2,18.4c0,7.1-1.3,13.4-3.9,18.9
	c-2.6,5.5-6.3,10-11,13.7s-10.2,6.5-16.6,8.3C139.4,701,132.4,701.9,124.8,701.9z"/>
<path class="st1" d="M254.2,593.8c7.8,0,14.9,1.3,21.4,4s12.1,6.4,16.8,11.2c4.7,4.8,8.4,10.5,11,17.1s3.9,13.9,3.9,21.8
	c0,7.9-1.3,15.2-3.9,21.8s-6.3,12.3-11,17.1s-10.3,8.5-16.8,11.2s-13.6,4-21.4,4c-4.6,0-9-0.6-13.1-1.8s-8-2.9-11.6-5v40.1H195
	V597.2h23.7l4.3,8.1c4.3-3.6,9-6.5,14.3-8.5C242.5,594.8,248.2,593.8,254.2,593.8z M249.6,671.3c3.3,0,6.3-0.6,9-1.8
	c2.8-1.2,5.2-2.8,7.2-4.9s3.7-4.5,4.8-7.3c1.1-2.8,1.7-5.9,1.7-9.3c0-6.8-2.1-12.3-6.4-16.7s-9.7-6.6-16.4-6.6
	c-6.6,0-12.1,2.2-16.4,6.6c-4.3,4.4-6.4,10-6.4,16.7s2.1,12.3,6.4,16.7C237.5,669.1,242.9,671.3,249.6,671.3z"/>
<path class="st1" d="M374,702.1c-8.3,0-15.9-1.3-22.8-4s-13-6.5-18-11.3c-5.1-4.8-9-10.5-11.8-17.1s-4.2-13.8-4.2-21.7
	s1.4-15.1,4.2-21.7c2.8-6.6,6.8-12.3,11.8-17.1c5.1-4.8,11.1-8.6,18-11.3s14.5-4,22.8-4s15.9,1.3,22.8,4s13,6.5,18,11.3
	c5.1,4.8,9,10.5,11.8,17.1s4.2,13.8,4.2,21.7s-1.4,15.1-4.2,21.7c-2.8,6.6-6.8,12.3-11.8,17.1c-5.1,4.8-11.1,8.6-18,11.3
	S382.3,702.1,374,702.1z M374.1,670.7c6.4,0,11.6-2.1,15.7-6.3s6.1-9.7,6.1-16.5s-2-12.3-6.1-16.5s-9.3-6.3-15.7-6.3
	s-11.7,2.1-15.8,6.3c-4.1,4.2-6.2,9.7-6.2,16.5s2.1,12.3,6.2,16.5C362.4,668.6,367.7,670.7,374.1,670.7z"/>
<path class="st1" d="M512.4,596.6v32.2h-13.5c-6.3,0-10.8,1.4-13.4,4.3c-2.7,2.9-4,7.5-4,13.9v51.7h-35V597.2h23.3l5.5,11.3
	c3.6-4.1,7.7-7.1,12.2-9s9.8-2.8,15.8-2.8h9.1V596.6z"/>
<path class="st1" d="M597.3,668.1v30.7h-24.1c-11.4,0-20.3-3.2-26.6-9.6c-6.3-6.4-9.5-15.3-9.5-26.7v-38.4h-18.6V616l45.5-48.5h7.1
	v29.7h25.6v26.9h-24.6v32.3c0,3.6,1,6.5,3.1,8.6s4.9,3.1,8.6,3.1H597.3z"/>
<path class="st2" d="M700,629.1c6.3,3,11.2,7.3,14.8,12.9c3.6,5.6,5.4,12,5.4,19.3c0,5.3-1.1,10.2-3.2,14.8
	c-2.1,4.6-5.1,8.6-8.9,11.9c-3.8,3.4-8.3,6-13.5,7.9s-10.9,2.8-17,2.8h-60.5V567.1h59.4c5.9,0,11.3,0.8,16.2,2.5s9.1,4,12.8,7.1
	c3.6,3,6.5,6.6,8.5,10.6c2,4.1,3,8.6,3,13.4c0,6-1.5,11.5-4.5,16.5C709.2,622.1,705.2,626.1,700,629.1z M682.3,606.8
	c0-3.4-1.1-6.1-3.3-8.3c-2.2-2.1-5.2-3.2-9.1-3.2h-18.1v22.9H670c3.9,0,6.9-1.1,9.1-3.2C681.2,612.9,682.3,610.1,682.3,606.8z
	 M671.5,669.2c3.9,0,7-1.1,9.3-3.4s3.6-5.2,3.6-8.7s-1.2-6.4-3.6-8.7c-2.4-2.3-5.5-3.4-9.3-3.4h-19.6v24.3L671.5,669.2L671.5,669.2z
	"/>
<path class="st2" d="M842,647c0,1.5-0.1,3-0.2,4.5c-0.1,1.5-0.3,3.1-0.6,4.7h-75.4c1.1,5.9,3.5,10.3,7.1,13.3
	c3.6,2.9,8.1,4.4,13.6,4.4c4.1,0,7.8-0.8,11-2.5s5.7-4,7.4-7.1h34.8c-1.8,5.8-4.3,11-7.7,15.7s-7.4,8.7-11.9,11.9
	c-4.6,3.3-9.7,5.8-15.4,7.5c-5.7,1.8-11.8,2.6-18.1,2.6c-7.9,0-15.2-1.4-21.9-4.1c-6.7-2.8-12.5-6.5-17.5-11.4
	c-5-4.8-8.8-10.5-11.6-17.1s-4.1-13.8-4.1-21.5c0-7.8,1.4-15,4.1-21.6c2.8-6.6,6.6-12.4,11.5-17.2s10.7-8.6,17.5-11.3s14.1-4,22-4
	c8.1,0,15.6,1.4,22.5,4.1c6.8,2.8,12.7,6.5,17.6,11.3c4.9,4.8,8.7,10.4,11.4,16.8C840.6,632.5,842,639.5,842,647z M786.5,621.2
	c-5.1,0-9.4,1.3-12.9,3.9c-3.4,2.6-5.9,6.5-7.2,11.7h41.2C804.3,626.4,797.3,621.2,786.5,621.2z"/>
<path class="st2" d="M926.1,668.1v30.7H902c-11.4,0-20.3-3.2-26.6-9.6c-6.3-6.4-9.5-15.3-9.5-26.7v-38.4h-18.6V616l45.5-48.5h7.1
	v29.7h25.6v26.9h-24.6v32.3c0,3.6,1,6.5,3.1,8.6s4.9,3.1,8.6,3.1H926.1z"/>
</svg>
