<svg id="Шар_1" data-name="Шар 1" xmlns="http://www.w3.org/2000/svg" viewBox="0 0 1000 1000"><defs><style>.cls-1{fill:#fe9e01;}.cls-2{fill:#16002c;}</style></defs><title>Монтажна область 1</title><path class="cls-1" d="M365.89,521.05c0,24.22-17,41.51-40.77,41.51a36.34,36.34,0,0,1-19-5.17V588H279.69V482.17H297.9l3.35,6.18a36,36,0,0,1,23.87-8.73C348.9,479.62,365.89,496.82,365.89,521.05Zm-26.95,0c0-10.21-7.37-17.79-17.4-17.79s-17.41,7.58-17.41,17.79,7.37,17.8,17.41,17.8S338.94,531.26,338.94,521Z"/><path class="cls-1" d="M373.32,521.05c0-24.11,18.24-41.43,43.6-41.43s43.59,17.32,43.59,41.43-18.32,41.42-43.59,41.42S373.32,545.07,373.32,521.05Zm43.6,17.37c9.76,0,16.77-7.09,16.77-17.37s-7-17.37-16.77-17.37-16.77,7.09-16.77,17.37,7,17.36,16.77,17.36Z"/><path class="cls-1" d="M523.12,481.8v24.51h-10.4c-9.48,0-13.45,4.16-13.45,14.07v39.55H472.48V482.17h17.95l4.18,8.63c5.48-6.35,12.16-9,21.41-9Z"/><path class="cls-1" d="M588,536.47v23.46H569.54c-17.2,0-27.65-10.52-27.65-27.8V502.79H527.66v-6.26l34.84-37.1H568v22.74h19.54v20.62H568.68v24.75c0,5.57,3.36,8.93,9,8.93Z"/><path class="cls-2" d="M669.62,506.7a26.51,26.51,0,0,1,15.46,24.52c0,16.34-14.1,28.71-32.7,28.71H605.92V459.13h45.53c17.87,0,30.91,10.9,30.91,25.8a25.65,25.65,0,0,1-12.74,21.77Zm-12,21.22c0-5.35-3.93-9.12-9.94-9.12H632.58v18.33h15.09C653.68,537.13,657.61,533.36,657.61,527.92ZM656,489.53c0-5.24-3.59-8.78-9.4-8.78h-14V498.3h14c5.8,0,9.39-3.54,9.39-8.77Z"/><path class="cls-2" d="M778.45,520.31a48.94,48.94,0,0,1-.56,7.09H720.16c1.75,8.92,7.41,13.53,15.87,13.53,6.26,0,11.48-2.74,14.06-7.29h26.65c-5.47,17.75-21.2,28.84-40.71,28.84-24.26,0-42.24-17.74-42.24-41.49s17.83-41.37,42.24-41.37c25.06,0,42.42,17.88,42.42,40.69Zm-57.82-7.74h31.43c-2.35-7.77-7.95-12-16-12C728.22,500.61,722.8,504.85,720.63,512.57Z"/><path class="cls-2" d="M842.88,536.47v23.46H824.45c-17.19,0-27.65-10.52-27.65-27.8V502.79H782.57v-6.26l34.84-37.1h5.5v22.74h19.54v20.62H823.59v24.75c0,5.57,3.36,8.93,9,8.93Z"/><g id="Layer_1" data-name="Layer 1"><circle class="cls-1" cx="186.89" cy="420.22" r="5.25"/><circle class="cls-1" cx="169.77" cy="435.64" r="4.37"/><circle class="cls-1" cx="209.25" cy="416.37" r="4.37"/><circle class="cls-1" cx="160.07" cy="454.23" r="2.95"/><circle class="cls-1" cx="230.12" cy="420.04" r="2.95"/></g><path class="cls-1" d="M237.6,457.59l.06,0a55.55,55.55,0,0,0,6.64,2.69l.22.08a29.78,29.78,0,0,1,8.34,5.19A28.46,28.46,0,0,1,261.28,479a34.42,34.42,0,0,1,1.09,5.13c.07.47.51,5.58.37,5.58H234.89c0-6.37-4.75-9.36-10.51-9.36-4.95,0-9.7,2.14-9.7,6.84,0,5.73,7.6,7.62,17.09,10C246.61,501,266,505.93,266,529c0,22-16.92,33.44-40.33,33.44-24.67,0-40.61-13-40.61-35h28.64c0,7.2,5.56,10.7,11.89,10.7,5.82,0,11.37-3.09,11.37-8.6,0-6.32-7.85-8.15-17.44-10.48-14.57-3.62-33.17-8.08-33.17-31,0-.6,0-1.2,0-1.78a14.49,14.49,0,0,0-1.23-6.62l-.35-.78A40.14,40.14,0,0,0,165.5,457.7a1.73,1.73,0,0,1-.61-2.5,1.79,1.79,0,0,1,1.82-.72c5.29.89,12.55,1.93,15,.72.49-.24.58-.46.62-.66.41-1.74-2-6-7.17-12.62a1.75,1.75,0,0,1,.06-2.21,1.73,1.73,0,0,1,2.18-.36c9.26,5.37,12.53,5.85,13.64,5.31,1.58-.77,1-6.09-1.81-15.82a1.75,1.75,0,0,1,.82-2l.05,0,0,0a1.73,1.73,0,0,1,2.07.58c6,8.17,9.78,11.93,11.36,11.16,1.11-.55,2.75-3.42,4.21-14a1.73,1.73,0,0,1,3.4-.19c2.05,8.15,3.91,12.67,5.54,13.42.18.09.41.16.9-.08,2.47-1.21,6.12-7.57,8.67-12.29a1.81,1.81,0,0,1,1.69-1,1.73,1.73,0,0,1,1.59,2c-1.7,8-.33,16.43,2.57,24a20.06,20.06,0,0,0,1.2,2.63A11.48,11.48,0,0,0,237.6,457.59Z"/></svg>