<?xml version="1.0" encoding="UTF-8"?>
<svg width="232px" height="233px" viewBox="0 0 232 233" version="1.1" xmlns="http://www.w3.org/2000/svg" xmlns:xlink="http://www.w3.org/1999/xlink">
    <!-- Generator: Sketch 51 (57462) - http://www.bohemiancoding.com/sketch -->
    <title>Staker_icon</title>
    <desc>Created with Sketch.</desc>
    <defs>
        <polygon id="path-1" points="0.000585365854 2.95609756 231.190244 2.95609756 231.190244 234.146341 0.000585365854 234.146341"></polygon>
    </defs>
    <g id="Page-1" stroke="none" stroke-width="1" fill="none" fill-rule="evenodd">
        <g id="assets" transform="translate(-684.000000, -636.000000)">
            <rect fill="#F5F8FA" x="0" y="0" width="1440" height="1800"></rect>
            <g id="Staker_icon" transform="translate(684.000000, 631.000000)">
                <g id="Group-3" transform="translate(0.000000, 2.898146)">
                    <mask id="mask-2" fill="white">
                        <use xlink:href="#path-1"></use>
                    </mask>
                    <g id="Clip-2"></g>
                    <path d="M196.068878,234.146341 L35.1225366,234.146341 C15.8054634,234.146341 0.000585365854,218.341463 0.000585365854,199.02439 L0.000585365854,38.0780488 C0.000585365854,18.7609756 15.8054634,2.95609756 35.1225366,2.95609756 L196.068878,2.95609756 C215.385951,2.95609756 231.190829,18.7609756 231.190829,38.0780488 L231.190829,199.02439 C231.190829,218.341463 215.385951,234.146341 196.068878,234.146341" id="Fill-1" fill="#0077FF" mask="url(#mask-2)"></path>
                </g>
                <path d="M204.820683,126.385171 L167.193366,126.385171 L146.284098,126.385171 L90.0187317,126.385171 C95.3689756,129.405659 101.509463,132.186146 108.586537,134.644683 C129.238244,141.873951 136.128,147.72761 136.128,159.083707 C136.128,170.100293 127.868488,177.674927 109.277268,177.674927 C94.128,177.674927 75.8821463,171.475902 66.2470244,165.628098 L57.9875122,196.266146 C70.3797073,203.144195 88.6197073,207.96761 108.931902,207.96761 C153.337756,207.96761 177.091902,185.934439 177.091902,155.641756 C177.004098,149.161756 175.850927,143.378341 173.825561,138.092488 L204.820683,138.092488 L204.820683,126.385171 Z" id="Fill-4" fill="#FFFFFF"></path>
                <path d="M126.488195,63.3898537 C141.292098,63.3898537 154.714537,68.8922927 161.943805,73.0249756 L170.203317,43.0776585 C160.568195,37.908878 144.388683,33.0913171 125.797463,33.0913171 C86.8999024,33.0913171 62.460878,56.1605854 62.460878,85.7625366 C62.3555122,91.704 63.6081951,97.4757073 66.2423415,102.972293 L29.4579512,102.972293 L29.4579512,114.67961 L74.4667317,114.67961 L81.3799024,114.67961 L153.82478,114.67961 C147.859902,110.827902 140.747707,107.409366 132.341854,104.353756 C110.999415,96.779122 103.079415,91.6103415 103.079415,80.9449756 C103.079415,70.6132683 111.34478,63.3898537 126.488195,63.3898537" id="Fill-6" fill="#FFFFFF"></path>
            </g>
        </g>
    </g>
</svg>