<?xml version="1.0" encoding="UTF-8"?>
<svg width="96px" height="96px" viewBox="0 0 96 96" version="1.1" xmlns="http://www.w3.org/2000/svg" xmlns:xlink="http://www.w3.org/1999/xlink">
    <!-- Generator: Sketch 51 (57462) - http://www.bohemiancoding.com/sketch -->
    <title>Staker signet</title>
    <desc>Created with Sketch.</desc>
    <defs>
        <polygon id="path-1" points="0.0009 0.051 83.7399 0.051 83.7399 42.4686 0.0009 42.4686"></polygon>
    </defs>
    <g id="Page-1" stroke="none" stroke-width="1" fill="none" fill-rule="evenodd">
        <g id="assets" transform="translate(-645.000000, -880.000000)">
            <rect fill="none" x="0" y="0" width="1440" height="1800"></rect>
            <g id="Staker-signet" transform="translate(645.000000, 877.000000)">
                <g id="Group-6">
                    <g id="Group-3" transform="translate(0.000000, 2.950500)">
                        <mask id="mask-2" fill="white">
                            <use xlink:href="#path-1"></use>
                        </mask>
                        <g id="Clip-2"></g>
                        <path d="M48.3339,15.9456 C59.6949,15.9456 69.9189,20.6796 75.4089,26.9226 L83.7399,12.9186 C75.4089,5.5386 63.6699,0.0486 48.1449,0.0486 C25.0449,0.0486 12.1689,12.9186 12.1689,27.8706 C12.1689,30.0456 12.4509,31.9716 12.8529,33.7956 L0.0009,33.7956 L0.0009,42.4686 L16.8069,42.4686 L34.6809,42.4686 L67.3809,42.4686 C62.1429,40.4976 56.4639,39.2226 51.1719,38.0886 C40.3809,35.6286 31.2909,33.1686 31.2909,26.1666 C31.2909,19.7316 37.9179,15.9456 48.3339,15.9456" id="Fill-1" fill="#0077FF" mask="url(#mask-2)"></path>
                    </g>
                    <path d="M96,54.0906 L80.889,54.0906 L61.32,54.0906 L29.433,54.0906 C34.878,56.2536 40.947,57.5946 46.629,58.8276 C57.801,61.2876 67.458,64.1286 67.458,72.0786 C67.458,78.8886 61.398,83.2416 49.47,83.2416 C37.542,83.2416 24.855,76.9956 18.417,70.3716 L9.33,84.7566 C18.798,94.0296 32.997,98.9496 48.522,98.9496 C73.137,98.9496 86.58,86.6496 86.58,70.5606 C86.58,67.6566 86.208,65.0826 85.551,62.7636 L96,62.7636 L96,54.0906 Z" id="Fill-4" fill="#0077FF"></path>
                </g>
            </g>
        </g>
    </g>
</svg>