<?xml version="1.0" standalone="no"?>
<!DOCTYPE svg PUBLIC "-//W3C//DTD SVG 20010904//EN"
 "http://www.w3.org/TR/2001/REC-SVG-20010904/DTD/svg10.dtd">
<svg version="1.0" xmlns="http://www.w3.org/2000/svg"
 width="428.000000pt" height="428.000000pt" viewBox="0 0 428.000000 428.000000"
 preserveAspectRatio="xMidYMid meet">
<metadata>
Created by potrace 1.15, written by Peter Selinger 2001-2017
</metadata>
<g transform="translate(0.000000,428.000000) scale(0.100000,-0.100000)"
fill="#000000" stroke="none">
<path d="M2651 4199 c-67 -27 -131 -101 -131 -153 0 -28 -39 -63 -79 -72 -54
-11 -113 -37 -161 -70 -27 -19 -58 -34 -69 -34 -32 0 -124 -81 -131 -115 -4
-17 -12 -39 -18 -50 -44 -81 -72 -156 -66 -178 4 -19 0 -30 -15 -44 -12 -9
-21 -27 -21 -39 0 -12 -7 -24 -15 -28 -8 -3 -12 -12 -9 -21 4 -10 0 -15 -13
-15 -33 0 -84 -22 -80 -34 2 -6 -10 -29 -28 -51 -17 -22 -40 -62 -50 -90 -21
-56 -58 -125 -92 -171 -13 -17 -23 -38 -23 -46 0 -8 -11 -32 -25 -52 -14 -21
-29 -61 -33 -89 -6 -46 -12 -54 -50 -80 -36 -24 -42 -33 -42 -64 0 -24 -9 -47
-30 -73 -17 -21 -33 -53 -37 -72 -3 -18 -17 -49 -30 -68 -12 -19 -23 -42 -23
-51 0 -8 -13 -33 -30 -55 -18 -24 -30 -51 -30 -70 0 -18 -20 -68 -45 -115 -39
-73 -45 -92 -45 -145 0 -46 5 -68 19 -85 14 -18 17 -29 10 -42 -6 -9 -8 -47
-6 -82 3 -36 1 -65 -3 -65 -19 0 -17 -32 3 -51 21 -19 21 -21 4 -30 -27 -16
-37 -52 -38 -137 -1 -92 2 -99 51 -137 21 -16 40 -41 43 -55 14 -66 28 -106
62 -177 20 -42 50 -120 66 -172 21 -68 36 -101 54 -114 13 -10 40 -40 59 -67
26 -37 49 -55 88 -72 90 -38 202 -99 230 -125 15 -14 48 -66 74 -117 40 -79
48 -103 55 -178 9 -92 42 -188 64 -188 8 0 15 5 17 11 2 6 30 -2 70 -20 36
-16 69 -27 72 -24 10 11 6 36 -8 52 -8 9 -17 28 -21 42 -5 21 -2 27 19 37 22
10 26 18 26 56 0 25 -7 75 -16 113 -21 89 -14 245 15 331 12 34 21 82 21 106
0 71 36 152 90 205 68 66 112 131 109 161 -2 18 8 36 34 62 20 20 37 42 37 50
0 8 18 49 40 92 22 42 40 83 40 91 0 8 9 29 19 47 14 23 22 62 27 128 5 72 12
105 30 135 25 44 49 150 59 265 4 41 13 109 21 150 8 41 14 93 14 116 0 22 11
73 24 112 17 49 23 83 19 107 -4 26 -1 41 12 55 15 17 16 24 4 70 -11 45 -11
54 4 79 9 16 17 44 17 62 0 26 9 41 44 74 37 34 45 48 51 90 10 74 30 129 66
182 21 30 32 57 31 74 -2 17 3 29 12 32 24 9 19 45 -14 106 -19 36 -27 63 -24
80 3 14 -2 46 -10 70 -18 50 -21 108 -6 145 11 30 114 138 148 156 30 15 24
30 -18 44 -23 7 -36 18 -38 31 -6 41 -44 75 -90 79 -23 2 -48 8 -55 14 -7 5
-32 12 -56 15 -36 4 -52 14 -90 55 -25 27 -54 63 -63 81 -18 33 -48 40 -97 20z
m-681 -1355 c109 -44 125 -182 49 -421 -73 -229 -189 -393 -325 -461 -88 -45
-226 -46 -284 -3 -51 37 -65 78 -65 181 2 225 154 544 314 655 89 61 226 83
311 49z m727 -4 c63 -28 85 -69 81 -150 -5 -97 -43 -166 -147 -270 -47 -47
-131 -118 -186 -158 -55 -39 -140 -101 -190 -137 l-90 -65 202 0 202 0 -21
-60 -20 -60 -279 0 c-153 0 -279 3 -279 7 0 3 7 29 16 57 14 44 25 58 78 96
237 173 413 308 459 353 123 119 147 256 52 287 -62 21 -139 7 -236 -42 l-86
-44 21 64 c19 59 24 66 69 88 109 56 273 71 354 34z"/>
<path d="M1734 2718 c-58 -40 -111 -115 -158 -223 -83 -193 -112 -366 -69
-422 17 -23 29 -29 72 -31 81 -5 139 40 204 154 98 173 163 437 125 507 -31
58 -101 64 -174 15z"/>
<path d="M992 2844 c-29 -7 -75 -23 -102 -35 -45 -19 -51 -26 -66 -73 -9 -28
-19 -56 -21 -63 -3 -6 31 7 76 29 68 35 91 42 158 46 74 4 81 3 109 -21 41
-36 39 -93 -8 -178 -42 -78 -119 -146 -397 -351 -182 -135 -195 -146 -212
-192 -10 -27 -16 -53 -13 -58 3 -4 127 -8 275 -8 l270 0 15 35 c8 19 15 45 17
57 l2 23 -194 5 -194 5 139 99 c287 205 389 301 442 416 59 128 29 233 -77
269 -46 15 -154 13 -219 -5z"/>
<path d="M3295 2846 c-166 -53 -298 -215 -385 -476 -80 -242 -57 -390 67 -431
57 -18 170 -6 237 27 112 55 215 183 287 360 71 173 98 340 70 425 -13 41 -54
83 -94 98 -38 14 -132 13 -182 -3z m113 -108 c49 -54 51 -108 6 -275 -76 -286
-208 -453 -338 -429 -21 4 -44 18 -57 34 -20 25 -21 35 -16 127 5 104 37 211
101 348 30 61 121 168 171 199 43 26 106 24 133 -4z"/>
</g>
</svg>
