<?xml version="1.0" encoding="utf-8"?>
<!-- Generator: Adobe Illustrator 22.0.1, SVG Export Plug-In . SVG Version: 6.00 Build 0)  -->
<svg version="1.1" id="图层_1" xmlns="http://www.w3.org/2000/svg" xmlns:xlink="http://www.w3.org/1999/xlink" x="0px" y="0px"
	 viewBox="0 0 120 120" style="enable-background:new 0 0 120 120;" xml:space="preserve">
<style type="text/css">
	.st0{fill:url(#SVGID_1_);}
	.st1{fill:url(#SVGID_2_);}
	.st2{fill:#FFFFFF;}
</style>
<linearGradient id="SVGID_1_" gradientUnits="userSpaceOnUse" x1="60" y1="120" x2="60" y2="1.515727e-06">
	<stop  offset="0" style="stop-color:#F8F4F2"/>
	<stop  offset="1" style="stop-color:#FCFAFA"/>
</linearGradient>
<path class="st0" d="M120,37.7c0-1.1,0-2.6,0-4.4c0-1.9,0-2.7,0-3.6c-0.1-2.7-0.2-5.4-0.7-7.8c-0.5-2.7-1.2-5.1-2.4-7.5
	c-1.2-2.4-2.9-4.6-4.8-6.4c-1.9-1.8-4-3.5-6.4-4.8c-2.4-1.2-4.8-1.9-7.5-2.4c-2.4-0.5-5.2-0.6-7.8-0.7c-0.9,0-1.7,0-3.6,0
	c-1.8,0-3.3,0-4.4,0c-5.6,0-39,0-44.6,0c-1.1,0-2.6,0-4.4,0c-1.9,0-2.7,0-3.6,0c-2.7,0.1-5.4,0.2-7.8,0.7c-2.7,0.5-5.1,1.2-7.5,2.4
	c-2.4,1.2-4.6,2.9-6.4,4.8c-1.8,1.9-3.5,4-4.8,6.4c-1.2,2.4-1.9,4.8-2.4,7.5c-0.5,2.4-0.6,5.2-0.7,7.8c0,0.9,0,1.7,0,3.6
	c0,1.8,0,3.3,0,4.4v44.6c0,1.1,0,2.6,0,4.4c0,1.9,0,2.7,0,3.6c0.1,2.7,0.2,5.4,0.7,7.8c0.5,2.7,1.2,5.1,2.4,7.5
	c1.2,2.4,2.9,4.6,4.8,6.4c1.9,1.8,4,3.5,6.4,4.8c2.4,1.2,4.8,1.9,7.5,2.4c2.4,0.5,5.2,0.6,7.8,0.7c0.9,0,1.7,0,3.6,0
	c1.8,0,3.3,0,4.4,0c5.6,0,39,0,44.6,0c1.1,0,2.6,0,4.4,0c1.9,0,2.7,0,3.6,0c2.7-0.1,5.4-0.2,7.8-0.7c2.7-0.5,5.1-1.2,7.5-2.4
	c2.4-1.2,4.6-2.9,6.4-4.8c1.8-1.9,3.5-4,4.8-6.4c1.2-2.4,1.9-4.8,2.4-7.5c0.5-2.4,0.6-5.2,0.7-7.8c0-0.9,0-1.7,0-3.6
	c0-1.8,0-3.3,0-4.4V37.7z"/>
<linearGradient id="SVGID_2_" gradientUnits="userSpaceOnUse" x1="60" y1="109.0461" x2="60" y2="10.954">
	<stop  offset="0" style="stop-color:#F5380C"/>
	<stop  offset="1" style="stop-color:#FE7F22"/>
</linearGradient>
<path class="st1" d="M60,11c-26.2,0-47,21.7-47,48c0,10.5,2.9,19.7,8.6,27.6l-7.2,19l0,0c0,0.1-0.1,0.2-0.1,0.3
	c-0.2,0.8,0,1.8,0.7,2.5c0.6,0.6,1.4,0.8,2.1,0.7l0,0l0,0c0.2,0,0.3-0.1,0.5-0.1c0,0,0,0,0,0c0.2-0.1,0.4-0.2,0.5-0.3l0,0l5.2-3.5
	l10.4-7c7.6,5.1,16.6,7.8,26.4,7.8c26.2,0,47-20.7,47-47C107,32.6,86.2,11,60,11z"/>
<g>
	<g>
		<path class="st2" d="M74.5,47c0-3-0.4-5.5-1-5.5h-10v-12c0,0-0.1-1-1.1-1.7c-0.3-0.2-0.5-0.3-0.8-0.3c-0.4,0-0.8,0.2-1,0.5
			l-17,21.7c-0.2,0.2-0.2,0.5-0.2,0.8c0,0.8,0.3,2.1,1.1,2.1h29C74.1,52.5,74.5,50,74.5,47z M76.1,83.5c-0.2-1.3-0.5-2.5-0.9-3.7
			c-0.7,0.1-1.5,0.3-2.4,0.4c-0.9,0.2-1.3,0.3-2.3,0.3c-1.2,0-2.7-0.2-3.6-0.5c-0.9-0.2-1.6-0.7-2.2-1.4c-0.6-0.7-1.4-1.9-1.2-3.1
			c0.1-1.3,0-2.1,0-4V55.4l-14,4.1v15c0,6,1.8,9.9,4.8,12.5c3,2.7,7.5,4.5,13.2,4.5c3.1,0,5.8-0.8,8.7-1.5c0.1-0.4,0.1-0.9,0.1-1.4
			c0-0.5,0.1-1.4,0.1-2.1C76.5,85.5,76.3,84.7,76.1,83.5z"/>
	</g>
</g>
</svg>
