<?xml version="1.0" encoding="utf-8"?>
<!-- Generator: Adobe Illustrator 22.1.0, SVG Export Plug-In . SVG Version: 6.00 Build 0)  -->
<svg version="1.1" id="图层_1" xmlns="http://www.w3.org/2000/svg" xmlns:xlink="http://www.w3.org/1999/xlink" x="0px" y="0px"
	 viewBox="0 0 512 512" style="enable-background:new 0 0 512 512;" xml:space="preserve">
<style type="text/css">
	.st0{fill:#071026;}
	.st1{fill:url(#Combined-Shape_2_);}
	.st2{fill:#4E3D0A;}
	.st3{fill:url(#Combined-Shape_3_);}
	.st4{fill:url(#Oval-3-Copy_2_);}
	.st5{fill:none;stroke:#6B5D18;stroke-width:6.4;stroke-dasharray:16,24;}
	.st6{fill:#B2A356;}
	.st7{fill:#402E0A;}
	.st8{fill:url(#Path-5_1_);}
	.st9{fill:none;}
	.st10{enable-background:new    ;}
	.st11{fill:#070911;}
	.st12{fill:url(#shadow_1_);}
	.st13{fill:#FFFFFF;}
	.st14{fill:#D22014;}
	.st15{fill:#EC1613;}
	.st16{fill:#E30B13;}
</style>
<g id="Group-8" transform="translate(50.138462, 49.123077)">
	<rect id="path-1" x="-50.1" y="-49.1" class="st0" width="512" height="512"/>
	
		<linearGradient id="Combined-Shape_2_" gradientUnits="userSpaceOnUse" x1="-1281.1566" y1="0.8314" x2="-1281.1566" y2="1.7936" gradientTransform="matrix(310 0 0 310 397389.5625 -169.9979)">
		<stop  offset="0" style="stop-color:#FDF07E"/>
		<stop  offset="0.4316" style="stop-color:#BFA634"/>
		<stop  offset="0.4654" style="stop-color:#754E09"/>
		<stop  offset="1" style="stop-color:#A68E2C"/>
	</linearGradient>
	<path id="Combined-Shape" class="st1" d="M231,386c-85.6,0-155-69.4-155-155S145.4,76,231,76s155,69.4,155,155S316.6,386,231,386z
		 M231,355c68.5,0,124-55.5,124-124s-55.5-124-124-124s-124,55.5-124,124S162.5,355,231,355z"/>
	<circle id="Oval-3-Copy" class="st2" cx="231" cy="231" r="124"/>
	
		<linearGradient id="Combined-Shape_3_" gradientUnits="userSpaceOnUse" x1="-1280.363" y1="0.9919" x2="-1280.363" y2="1.9919" gradientTransform="matrix(248 0 0 248 317761.0312 -139.003)">
		<stop  offset="0" style="stop-color:#7F642B"/>
		<stop  offset="1" style="stop-color:#F6EA89"/>
	</linearGradient>
	<path id="Combined-Shape_1_" class="st3" d="M231,355c-68.5,0-124-55.5-124-124s55.5-124,124-124s124,55.5,124,124
		S299.5,355,231,355z M231,347.3c64.2,0,116.2-52,116.2-116.3s-52-116.2-116.2-116.2s-116.2,52-116.2,116.2S166.8,347.3,231,347.3z"
		/>
	
		<linearGradient id="Oval-3-Copy_2_" gradientUnits="userSpaceOnUse" x1="-1279.0404" y1="1.3226" x2="-1279.0404" y2="2.3226" gradientTransform="matrix(186 0 0 186 238132.5156 -108.0003)">
		<stop  offset="0" style="stop-color:#D3C976"/>
		<stop  offset="0.4412" style="stop-color:#715103"/>
		<stop  offset="1" style="stop-color:#B39920"/>
	</linearGradient>
	<circle id="Oval-3-Copy_1_" class="st4" cx="231" cy="231" r="93"/>
	<path id="Oval-3-Copy-3" class="st5" d="M232.9,335.6c56.7,0,102.7-46,102.7-102.7s-46-102.7-102.7-102.7s-102.7,46-102.7,102.7
		S176.2,335.6,232.9,335.6z"/>
	<path id="path-7" class="st6" d="M231.5,180.8L208,214l23.5,76l23.9-75.9L231.5,180.8z M192.2,272.2l35.6,21.4l-23.2-74.5
		L192.2,272.2z M235.5,292.8l35-21l0,0l-12.1-52.2L235.5,292.8z"/>
	<g>
		<path id="path-7_1_" class="st7" d="M231.5,176.8L208,210l23.5,76l23.9-75.9L231.5,176.8z M192.2,268.2l35.6,21.4l-23.2-74.5
			L192.2,268.2z M235.5,288.8l35-21l0,0l-12.1-52.2L235.5,288.8z"/>
	</g>
</g>
<g id="Group-7" transform="translate(0.138462, 0.123077)">
	
		<linearGradient id="Path-5_1_" gradientUnits="userSpaceOnUse" x1="-977.8781" y1="0.9889" x2="-977.6848" y2="1.8881" gradientTransform="matrix(151.6912 0 0 264.1369 148482.5625 -139.0656)">
		<stop  offset="0" style="stop-color:#F8FAFF"/>
		<stop  offset="1" style="stop-color:#ABAEB3"/>
	</linearGradient>
	<path id="Path-5" class="st8" d="M168.2,106.9c-19.2,14.1-39.5,22.4-60.8,24.9c-31.9,3.8-34.1,33-28.8,47.5
		c5.3,14.5,91,123.8,28.8,183.8c-3.5,3.5-4.1,6-1.7,7.4c10.7,2.3,25-14.3,39.8-28.1c14.9-13.8,41.4-67.5,82.6-183L168.2,106.9z"/>
	
		<rect x="107.9" y="147.4" transform="matrix(0.9397 -0.342 0.342 0.9397 -53.2348 54.0805)" class="st9" width="37.7" height="61.2"/>
	<g class="st10">
		<path class="st11" d="M122.4,155.7l28.1,32.3l-6.2,2.2l-7-8.4l-16.2,5.9v11l-6.1,2.2l0.8-42.8L122.4,155.7z M133.9,177.8
			L121.5,163l-0.2,0.1l-0.1,19.3L133.9,177.8z"/>
	</g>
	<path id="Stroke-7" class="st11" d="M140.9,232.9c-2,4.4-7.1,6.3-11.3,4.4l-0.8-0.3c-4.3-1.9-6.2-7-4.2-11.4l3.8-8.5l7-15.4
		c0.2-0.5,0.4-0.9,0.7-1.3c0.4,0.2,0.8,0.4,1.2,0.7l20.9,15.2c3.8,2.8,4.6,8.2,1.8,12l-0.5,0.7c-2.8,3.9-8.1,4.8-12,2l-4.4-3.2
		c0,0,0.4,6.7-4.1,13.7l14.2-3.9c0,0-7.9-5.3-10.1-9.8L140.9,232.9z"/>
	
		<linearGradient id="shadow_1_" gradientUnits="userSpaceOnUse" x1="-979.4761" y1="1.1368" x2="-979.3951" y2="1.8131" gradientTransform="matrix(199.4609 -3.4816 4.4544 255.1922 195549 -3556.7695)">
		<stop  offset="0" style="stop-color:#695675;stop-opacity:0.2"/>
		<stop  offset="1" style="stop-color:#250834;stop-opacity:0.4"/>
	</linearGradient>
	<path id="shadow" class="st12" d="M176.4,118.1c-36.7-5.5-52.9,8.1-48.6,40.8c9.5,42.2,46.3,156.8-25.6,211c0,1.4,0.1,3.3,1.9,3.2
		c11.6-8.7,61.2-53.1,106.2-97.3c42.1-41.2,79.9-81.7,86.3-109.6c3.4-13.2,1.2-25.2-12.1-30.4C246.5,132.9,210.5,126.9,176.4,118.1z
		"/>
	<g>
		<path id="path-12_5_" d="M197.8,77.9c-43.2-7.3-62.6,8.5-58.3,47.2c10.4,50,51.6,186.2-34.5,248.6c0,1.7,0,3.9,2.2,3.9
			c13.8-10.1,73.3-61.4,127.4-112.6c50.5-47.8,96-94.7,104.1-127.5c4.2-15.6,2-29.8-13.6-36.1C280.4,96.9,237.9,89.1,197.8,77.9z"/>
	</g>
	<path id="path-12_2_" class="st9" d="M197.8,77.9c-43.2-7.3-62.6,8.5-58.3,47.2c10.4,50,51.6,186.2-34.5,248.6c0,1.7,0,3.9,2.2,3.9
		c13.8-10.1,73.3-61.4,127.4-112.6c50.5-47.8,96-94.7,104.1-127.5c4.2-15.6,2-29.8-13.6-36.1C280.4,96.9,237.9,89.1,197.8,77.9z"/>
	<path id="path-12_6_" class="st13" d="M197.8,77.9c-43.2-7.3-62.6,8.5-58.3,47.2c10.4,50,51.6,186.2-34.5,248.6
		c0,1.7,0,3.9,2.2,3.9c13.8-10.1,73.3-61.4,127.4-112.6c50.5-47.8,96-94.7,104.1-127.5c4.2-15.6,2-29.8-13.6-36.1
		C280.4,96.9,237.9,89.1,197.8,77.9z"/>
	<path id="Path-6" class="st14" d="M246.2,227c-8.3-11.8-16.1-17.6-23.3-17.5c-10.9,0.2-19.9,11-19.9,21.4c0,6.9,2.3,26,6.9,57.2
		l74.5-69.6c-3.1-6-8.1-9-15.1-9S254.6,215.3,246.2,227z"/>
	
		<rect x="172.7" y="98.2" transform="matrix(0.9998 -1.745656e-02 1.745656e-02 0.9998 -2.2946 3.4111)" class="st9" width="43.1" height="69.9"/>
	<g class="st10">
		<path class="st15" d="M189.3,107.5l8.5-0.1l18.4,45.4l-8.6,0.1l-4.5-12l-18.2,0.3l-4.1,12.2l-8.3,0.1L189.3,107.5z M187,135
			l13.9-0.2l-7.2-19.5h-0.2L187,135z"/>
	</g>
	<path id="Fill-5" class="st16" d="M194.3,204.5c0.4-0.3,0.7-0.7,1.1-1.1l11.6-13.3l6.4-7.3c3.3-3.8,3.1-9.7-0.3-13.2l-0.6-0.6
		c-3.4-3.5-8.9-3.3-12.1,0.4l-3.8,4.4l0,0l-3.1-4.8c-2.7-4.2-8.1-5.2-11.9-2.2l-0.7,0.5c-3.9,3-4.9,8.8-2.1,13l14.8,23.1
		C193.7,203.7,194,204.1,194.3,204.5L194.3,204.5z"/>
</g>
</svg>
