<?xml version="1.0" encoding="UTF-8"?>
<svg width="42px" height="40px" viewBox="0 0 42 40" version="1.1" xmlns="http://www.w3.org/2000/svg" xmlns:xlink="http://www.w3.org/1999/xlink">
    <!-- Generator: Sketch 49.3 (51167) - http://www.bohemiancoding.com/sketch -->
    <title>Group 3 Copy 6</title>
    <desc>Created with Sketch.</desc>
    <defs></defs>
    <g id="拍卖功能" stroke="none" stroke-width="1" fill="none" fill-rule="evenodd">
        <g id="Group-3-Copy-6">
            <g id="Group">
                <path d="M7.9,35.793372 C7.9,35.5366163 10.7495164,35.098751 13.0193346,34.8342457 C15.2891529,34.5697404 21.0166363,34.0748168 22.4705373,34.2292344 C23.3071059,34.3180857 26.0992714,35.6330134 28.3195775,36.780253 C28.4508193,36.8134856 30.0304055,36.780253 30.8884247,37.189722 C31.7860801,37.6181065 30.7184186,38.0712954 30.8034554,38.1387726 C31.0432002,38.3290115 31.2850515,38.448058 31.2850515,38.4860028 C31.2850515,38.7306774 29.2510151,39.0660843 26.5804683,39.4371792 C23.9099215,39.8082741 21.2272627,40 20.1674512,40 C19.1076397,40 15.9309383,39.160245 12.9056053,38.1305052 C9.88027227,37.1007653 7.9,36.0501277 7.9,35.793372 Z" id="Path" fill-opacity="0.300000012" fill="#000000"></path>
                <path d="M32.6146178,8.06475015 L35.8554135,6.81703255 L41.9120266,20.1764056 C42.1961884,20.8031954 41.9657409,21.5434496 41.3760196,21.8981921 L38.7315545,23.4889507 L36.8418824,20.063875 L37.2883874,19.5841925 C37.6711696,19.1729677 37.7607124,18.56828 37.5135329,18.0637699 L32.6146178,8.06475015 Z" id="Path-4" fill="#FFFFFF"></path>
                <path d="M0,10.9887724 C-1.54341371e-13,9.21804354 4.77477874,6.1982826 8.57818899,4.37410824 C12.3815992,2.54993389 21.9788298,-0.863332733 24.4150522,0.201616578 C25.8168446,0.814384037 30.4955236,9.88285082 34.2159689,17.7948481 C34.4358837,18.0240385 37.0827098,17.7948481 38.5204456,20.6187725 C40.0245977,23.5731483 38.2355758,26.6985893 38.3780673,27.1639493 C38.7797945,28.4759414 39.1850515,29.2969519 39.1850515,29.5586398 C39.1850515,31.2460511 35.7767279,33.5592021 31.3018388,36.1184773 C26.8269497,38.6777525 22.331765,40 20.5558969,40 C18.7800288,40 13.457004,34.2085864 8.38761895,27.1069322 C3.31823392,20.005278 1.54281913e-13,12.7595013 0,10.9887724 Z M33.2484008,8.80640567 C30.9999211,8.80640567 29.1771681,6.98666931 29.1771681,4.74191074 C29.1771681,2.49715218 30.9999211,0.677415821 33.2484008,0.677415821 C35.4968806,0.677415821 37.3196336,2.49715218 37.3196336,4.74191074 C37.3196336,6.98666931 35.4968806,8.80640567 33.2484008,8.80640567 Z" id="Combined-Shape" fill="#FFCD00"></path>
                <path d="M7.00987528,13.900756 C7.00987528,15.0992728 9.25581991,20.0035724 12.6870301,24.8103228 C16.1182403,29.6170732 19.7211265,33.536988 20.9231217,33.536988 C22.125117,33.536988 25.16768,32.6420255 28.196506,30.9097816 C31.225332,29.1775378 33.5322538,27.6118829 33.5322538,26.4697596 C33.5322538,25.3276363 25.1841443,7.32028639 23.5351887,6.59947609 C21.886233,5.87866579 15.3903533,8.18893325 12.8160173,9.42362457 C10.2416814,10.6583159 7.00987528,12.7022393 7.00987528,13.900756 Z" id="Path" fill="#FFFFFF"></path>
                <path d="M27.5338986,33.6687791 C27.409486,34.4880573 27.948497,35.2612593 28.7602326,35.4279343 L29.279544,35.5345816 C30.2211502,35.7279231 31.1662375,35.219976 31.5245249,34.3279932 C31.5448107,34.2774901 31.5817264,34.0728871 31.635255,33.7141816 C31.6510503,33.608369 31.6569672,33.5013164 31.6529294,33.3944077 C31.6169743,32.4424221 30.8160901,31.6998328 29.8641045,31.735788 L29.4922057,31.7498341 C28.5194047,31.7865754 27.7099589,32.5093913 27.5638032,33.4718519 L27.5338986,33.6687791 Z" id="Path" fill="#FFFFFF"></path>
                <path d="M23.9779122,22.4499935 C24.457996,22.6596124 25.1535957,22.8894189 26.033218,23.1380085 C26.1782312,23.1789906 26.3054569,23.2671196 26.3947968,23.3884735 C26.6167737,23.6899936 26.5522913,24.1143718 26.2507712,24.3363488 L23.5699972,26.3741555 C23.4500708,26.4624445 23.30441,26.5087888 23.1555151,26.5060297 C22.7811653,26.4990928 22.4833183,26.1899988 22.4902553,25.8156489 C22.5029202,25.1306017 22.5068186,24.4854197 22.4548086,24.0677966 C22.4032926,23.6541397 22.3368492,23.3097654 22.1565023,22.6337401 C21.0881795,25.4228087 19.4083252,26.0847598 17.2159157,25.0205272 C15.6643383,24.2673653 14.7232125,22.862924 15.132098,20.302111 C15.2862795,19.3364864 16.712102,17.825854 17.0490468,16.5937624 C17.2463115,15.872433 17.3478707,14.8088993 17.3537244,13.4031614 C18.9210658,14.2600576 20.2905938,14.7569182 21.4623084,14.8937432 C23.2198804,15.0989805 23.6951958,14.9315441 25.269439,15.4400968 C26.8228845,15.941931 27.7594159,17.2248508 27.8646474,18.4174008 C28.0968966,21.0493972 26.5529776,22.2680142 23.2328904,22.0732517 C23.4880265,22.2189471 23.736367,22.3445277 23.9779122,22.4499935 Z" id="Combined-Shape" fill="#1C1E27"></path>
            </g>
        </g>
    </g>
</svg>