<?xml version="1.0" encoding="UTF-8" ?>
<!DOCTYPE svg PUBLIC "-//W3C//DTD SVG 1.1//EN" "http://www.w3.org/Graphics/SVG/1.1/DTD/svg11.dtd">
<svg width="585pt" height="596pt" viewBox="0 0 585 596" version="1.1" xmlns="http://www.w3.org/2000/svg">
<g id="#000000ff">
<path fill="#000000" opacity="1.00" d=" M 0.00 0.00 L 585.00 0.00 L 585.00 596.00 L 0.00 596.00 L 0.00 0.00 M 277.42 42.14 C 280.83 44.18 285.26 42.75 289.02 42.45 C 285.18 41.84 281.28 41.74 277.42 42.14 M 300.88 42.44 C 304.93 43.15 309.23 43.76 313.20 42.34 C 309.12 41.57 304.96 41.86 300.88 42.44 M 252.81 48.65 C 248.22 49.96 243.33 49.92 238.89 51.79 C 212.26 59.62 187.47 73.41 166.45 91.48 C 162.36 94.30 158.20 97.24 155.28 101.32 C 155.92 101.85 157.21 102.91 157.85 103.44 L 156.90 103.24 C 152.66 108.52 147.68 113.21 143.83 118.82 C 142.68 118.65 141.53 118.48 140.38 118.31 C 138.04 119.93 138.64 122.59 139.25 124.91 C 138.46 125.94 137.71 126.99 136.95 128.05 C 125.10 145.20 116.53 164.41 110.49 184.32 C 110.82 184.64 111.49 185.28 111.82 185.60 C 110.36 186.70 109.28 188.24 109.06 190.08 C 106.17 211.58 102.57 233.20 103.92 254.97 C 104.85 262.38 106.69 269.64 108.11 276.96 C 109.02 280.10 108.75 283.91 111.55 286.14 C 111.30 286.34 110.79 286.73 110.54 286.93 C 118.84 317.33 134.87 345.73 156.95 368.24 C 157.42 368.18 158.34 368.05 158.81 367.99 C 160.63 371.81 163.40 375.20 167.45 376.75 C 167.67 377.15 168.10 377.97 168.31 378.37 C 168.61 378.44 169.20 378.56 169.50 378.63 C 172.88 383.68 178.70 386.07 182.93 390.26 C 183.33 390.05 184.14 389.64 184.54 389.44 C 186.17 391.79 187.62 394.37 189.90 396.16 C 191.20 396.78 192.73 396.34 194.07 396.80 C 194.36 398.99 195.91 400.34 197.88 401.13 C 198.03 400.69 198.32 399.82 198.46 399.38 C 199.39 400.06 200.32 400.75 201.24 401.46 C 201.49 402.50 201.57 403.76 202.70 404.28 C 206.54 406.70 210.78 408.44 215.05 409.93 C 218.46 411.40 222.15 409.38 225.59 410.46 C 228.50 411.86 231.14 413.80 234.19 414.94 C 237.72 416.23 241.11 418.50 245.02 418.16 C 245.12 417.56 245.31 416.38 245.41 415.78 C 245.61 417.34 245.95 418.90 246.50 420.39 C 251.81 422.18 257.43 423.19 263.00 423.77 C 265.48 425.01 268.34 424.48 271.01 424.82 C 272.60 425.38 274.28 425.65 275.97 425.70 C 287.32 425.90 298.67 425.87 310.02 425.73 C 312.03 425.68 314.08 425.58 315.96 424.78 C 318.61 424.46 321.50 425.10 323.93 423.73 C 325.96 423.52 328.15 423.87 329.97 422.74 C 331.34 422.60 332.72 422.50 334.09 422.38 L 334.84 421.80 C 337.55 423.04 340.47 421.97 343.17 421.30 C 348.96 419.53 354.80 417.88 360.39 415.53 C 369.42 411.91 377.55 406.49 386.34 402.37 C 392.70 399.09 399.39 396.36 405.29 392.25 C 411.65 388.10 416.11 381.77 421.78 376.84 C 426.53 376.16 429.08 372.10 432.54 369.29 C 453.84 346.98 470.19 319.69 478.59 289.94 C 482.86 276.73 484.85 262.89 485.81 249.08 C 487.44 229.27 485.56 209.27 480.88 189.99 C 480.25 187.47 479.96 184.78 478.39 182.63 L 478.77 182.23 C 470.87 154.90 456.46 129.66 437.84 108.24 C 437.07 107.52 436.30 106.81 435.53 106.11 C 435.91 105.47 436.65 104.21 437.03 103.58 C 434.82 100.87 432.66 97.82 429.02 97.01 C 426.78 93.97 423.48 91.88 420.78 89.26 C 398.37 70.34 372.16 54.89 343.30 48.59 C 338.93 49.92 333.72 48.44 331.37 44.34 C 331.31 44.80 331.20 45.73 331.15 46.19 C 326.21 47.70 321.09 45.12 316.06 45.18 C 311.95 45.34 307.86 43.47 303.81 44.69 C 303.50 44.73 302.87 44.81 302.56 44.85 C 297.50 44.49 292.41 44.46 287.36 44.87 C 287.07 44.83 286.50 44.75 286.21 44.71 C 285.16 44.33 284.09 44.14 282.98 44.14 C 272.91 45.46 262.70 46.15 252.81 48.65 M 155.47 370.67 C 156.39 373.27 158.36 375.50 161.09 376.24 C 159.81 373.86 157.89 371.89 155.47 370.67 M 277.49 429.87 C 281.30 430.26 285.15 430.12 288.94 429.54 C 285.23 429.28 280.79 427.80 277.49 429.87 M 300.90 429.49 C 304.94 430.30 309.11 430.39 313.16 429.63 C 309.20 428.27 304.95 428.88 300.90 429.49 M 238.66 457.76 C 224.76 460.48 214.11 473.10 212.76 487.04 C 212.11 488.42 213.51 489.93 214.89 489.71 C 220.49 489.68 226.11 489.91 231.70 489.59 C 233.85 486.90 233.65 482.85 235.86 480.07 C 240.40 472.08 253.40 472.33 258.26 479.87 C 260.55 482.62 260.59 486.55 262.39 489.45 C 268.19 490.09 274.13 489.59 279.99 489.72 C 281.50 490.02 282.74 488.42 282.15 487.01 C 280.77 476.38 274.40 466.38 264.97 461.14 C 257.06 456.65 247.45 455.82 238.66 457.76 M 83.40 474.67 C 83.64 474.91 84.12 475.37 84.36 475.60 C 89.72 475.93 95.11 475.65 100.48 475.72 C 100.57 493.22 100.56 510.72 100.49 528.22 C 103.80 529.69 107.53 528.75 111.03 529.00 C 114.18 528.80 117.55 529.62 120.51 528.20 C 120.35 513.87 120.61 499.53 120.38 485.21 C 111.84 476.57 103.40 467.80 94.77 459.26 C 91.22 458.73 87.55 458.93 83.97 459.18 C 82.48 464.06 83.49 469.56 83.40 474.67 M 100.26 462.60 C 106.39 468.52 112.09 474.89 118.27 480.76 C 121.48 482.13 121.13 477.64 121.05 475.73 C 126.38 475.63 131.74 475.95 137.07 475.58 C 138.59 474.16 137.81 471.82 138.02 470.00 C 137.75 466.32 138.69 462.43 137.21 458.94 C 124.70 459.06 112.19 459.01 99.67 458.96 C 99.32 460.21 98.95 461.73 100.26 462.60 M 143.49 459.96 C 143.73 482.73 143.23 505.51 143.74 528.27 C 149.84 528.60 155.96 528.52 162.06 528.38 C 163.94 528.63 163.67 526.19 163.75 525.05 C 163.73 518.36 163.73 511.68 163.73 505.00 C 166.58 504.87 169.64 505.53 172.26 504.11 C 172.26 499.35 172.28 494.59 172.25 489.84 C 169.54 488.57 166.49 489.06 163.60 489.00 C 163.60 484.33 163.60 479.66 163.60 475.00 C 166.29 474.36 170.96 476.60 172.21 473.27 C 172.28 468.86 172.44 464.44 172.10 460.05 C 171.81 459.81 171.24 459.34 170.95 459.10 C 163.30 458.84 155.64 459.09 147.98 458.98 C 146.40 458.85 144.85 459.14 143.49 459.96 M 174.88 460.03 C 174.60 464.40 174.69 468.80 174.80 473.18 C 175.02 473.62 175.46 474.49 175.68 474.92 C 177.91 475.13 180.39 475.30 182.07 476.99 C 184.05 479.25 184.02 482.67 183.25 485.41 C 181.87 488.76 177.92 488.94 174.92 489.85 C 174.61 497.22 174.64 504.63 174.86 512.00 C 177.03 516.42 179.70 520.58 182.01 524.93 C 182.92 526.27 183.46 528.06 184.92 528.92 C 190.62 529.13 196.34 528.93 202.05 529.01 C 203.60 529.28 205.02 528.71 205.65 527.22 C 200.80 518.68 196.04 510.10 191.08 501.63 C 195.82 498.85 201.01 495.61 202.61 489.99 C 204.86 482.14 204.24 472.63 198.35 466.48 C 193.33 461.34 185.98 459.50 179.03 459.00 C 177.59 459.00 175.81 458.59 174.88 460.03 M 289.51 462.93 C 289.58 473.96 289.49 485.00 289.55 496.04 C 289.11 497.79 290.50 498.56 291.88 499.03 C 299.48 491.56 306.84 483.85 314.37 476.30 C 315.19 475.25 316.67 474.42 316.55 472.91 C 314.50 468.89 311.98 465.14 309.81 461.20 C 309.10 460.24 308.58 458.46 307.06 458.75 C 301.72 458.76 296.37 458.60 291.04 458.83 C 288.97 458.99 289.68 461.56 289.51 462.93 M 329.08 459.18 C 329.04 471.18 329.41 483.19 329.55 495.20 C 325.86 489.24 322.90 482.84 318.95 477.04 C 318.54 477.08 317.72 477.15 317.31 477.19 C 314.46 479.69 311.91 482.52 309.20 485.17 C 303.01 492.10 295.95 498.20 289.75 505.12 C 289.25 512.05 289.65 519.05 289.54 526.01 C 289.18 527.58 290.27 529.00 291.93 528.72 C 297.36 528.80 302.78 528.66 308.21 528.76 C 309.54 526.03 308.48 522.92 308.72 520.03 C 308.97 511.25 308.36 502.49 308.50 493.72 C 315.87 505.07 322.07 517.17 329.58 528.41 C 334.46 529.75 339.90 528.65 345.00 529.01 C 346.85 529.45 348.90 528.12 348.46 526.05 C 348.41 504.07 348.56 482.09 348.39 460.12 C 348.08 459.79 347.47 459.13 347.16 458.81 C 341.14 458.77 335.07 458.38 329.08 459.18 M 355.16 462.00 C 355.52 474.57 354.97 487.17 355.42 499.73 C 356.95 501.78 359.83 500.77 362.00 501.02 C 365.44 500.73 369.14 501.66 372.41 500.39 C 373.35 497.59 373.47 494.49 375.14 491.97 C 377.39 488.24 383.47 487.01 386.47 490.51 C 389.02 493.08 388.86 496.90 389.70 500.18 C 390.02 500.37 390.65 500.74 390.97 500.93 C 395.97 501.02 401.02 501.19 406.01 500.81 C 406.31 500.61 406.91 500.22 407.21 500.02 C 407.46 495.38 406.42 490.51 403.97 486.55 C 400.39 479.08 392.39 473.87 383.99 474.50 C 380.01 474.23 376.53 476.35 373.00 477.61 C 373.06 472.04 372.85 466.46 373.14 460.90 C 372.95 459.20 371.72 458.04 369.97 458.52 C 365.24 458.52 360.51 458.52 355.78 458.57 C 355.55 459.71 355.34 460.85 355.16 462.00 M 480.75 464.87 C 480.73 468.55 480.70 472.23 480.78 475.92 C 478.65 476.19 476.04 475.39 474.28 476.92 C 474.03 480.50 474.00 484.12 474.29 487.71 C 477.92 489.49 482.11 488.91 486.02 489.00 C 492.68 488.87 499.37 489.24 506.02 488.83 C 507.89 485.33 506.40 480.81 506.83 476.92 C 504.03 475.55 500.87 476.05 497.87 476.00 C 497.55 470.96 498.59 465.75 497.20 460.84 C 491.74 462.27 486.05 462.89 480.75 464.87 M 439.32 475.89 C 439.11 480.36 438.83 485.02 439.83 489.41 C 443.49 489.13 447.15 490.92 448.76 494.31 C 447.71 494.99 444.87 493.83 444.82 495.69 C 445.02 499.43 443.73 503.71 445.82 507.05 C 448.28 506.98 450.74 506.99 453.21 507.07 C 451.67 509.52 450.17 512.15 447.69 513.78 C 445.19 515.49 442.05 515.49 439.16 515.84 C 439.12 520.29 439.11 524.73 439.17 529.18 C 442.36 530.47 445.90 529.29 449.16 528.79 C 456.75 527.24 462.20 521.25 466.54 515.24 C 466.28 514.58 465.75 513.26 465.49 512.60 C 462.11 510.59 458.54 508.91 454.97 507.30 C 458.66 506.81 462.38 507.14 466.09 506.91 C 468.48 505.56 467.07 502.26 467.20 500.05 C 466.48 489.40 459.83 478.27 448.80 475.94 C 445.77 475.65 442.00 473.86 439.32 475.89 M 420.63 483.63 C 414.19 491.48 413.42 502.60 415.75 512.15 C 418.10 521.22 426.03 528.20 435.24 529.72 C 436.40 528.78 436.77 527.40 436.61 525.98 C 436.51 522.01 436.83 518.02 436.42 514.08 C 434.98 511.87 433.71 509.58 432.97 507.04 C 435.74 506.98 438.50 506.98 441.27 507.04 C 443.08 503.36 442.17 498.99 442.05 495.04 C 439.62 493.05 436.05 494.40 433.18 493.95 C 434.18 492.39 435.31 490.92 436.54 489.54 C 436.36 484.93 437.19 480.12 436.16 475.65 C 430.08 475.12 424.42 479.17 420.63 483.63 M 212.32 494.05 C 212.30 503.95 215.57 514.21 222.80 521.21 C 229.03 527.69 238.12 530.92 247.02 530.76 C 256.50 531.13 266.17 527.51 272.64 520.48 C 279.40 513.54 282.74 503.72 282.50 494.10 C 282.04 493.65 281.11 492.73 280.64 492.27 C 274.85 492.36 269.05 492.06 263.27 492.41 C 261.97 493.15 262.42 494.75 262.25 495.97 C 262.15 501.03 260.29 506.20 256.61 509.74 C 252.21 513.94 244.86 514.54 239.86 511.09 C 235.58 507.74 233.02 502.45 232.57 497.07 C 232.36 495.49 232.70 493.68 231.49 492.44 C 226.32 492.03 221.12 492.38 215.94 492.25 C 214.58 492.30 212.29 492.07 212.32 494.05 M 481.05 491.67 C 480.66 498.75 480.96 505.85 480.86 512.95 C 480.83 517.98 481.72 523.81 485.94 527.11 C 490.30 530.30 495.95 529.36 501.00 529.47 C 502.79 529.43 505.27 529.12 505.80 527.05 C 506.56 523.09 506.43 518.98 506.27 514.97 C 504.44 513.07 501.27 514.34 498.90 513.97 C 495.34 506.89 499.86 498.79 497.35 491.51 C 491.91 491.61 486.47 491.39 481.05 491.67 M 356.45 503.60 C 356.21 503.78 355.74 504.14 355.51 504.32 C 354.95 508.20 355.39 512.14 355.27 516.05 C 355.40 520.20 354.86 524.41 355.71 528.52 C 360.90 528.43 366.09 528.42 371.28 528.54 C 371.72 528.13 372.60 527.33 373.04 526.92 C 380.39 531.02 390.14 531.29 397.07 526.17 C 403.40 521.40 406.44 513.44 407.26 505.77 C 406.69 505.00 406.13 504.24 405.58 503.49 C 400.58 503.41 395.58 503.68 390.59 503.33 C 388.62 506.50 389.37 510.84 386.64 513.65 C 383.58 516.93 377.82 516.14 375.27 512.62 C 372.98 510.15 373.33 506.54 371.91 503.68 L 371.91 503.48 C 366.76 503.62 361.59 503.32 356.45 503.60 Z" />
<path fill="#000000" opacity="1.00" d=" M 233.78 134.72 C 236.07 131.04 239.99 126.54 244.85 127.37 C 248.37 128.45 251.30 130.80 254.39 132.72 C 288.32 154.78 322.29 176.78 356.22 198.84 C 376.44 212.29 398.30 223.66 416.07 240.48 C 415.85 247.86 409.45 253.44 402.90 255.72 C 397.87 257.37 394.12 261.40 389.13 263.11 C 384.21 264.86 380.50 268.80 375.61 270.59 C 369.80 272.83 364.79 276.60 359.15 279.16 C 353.29 281.72 348.31 285.93 342.28 288.16 C 336.87 290.09 332.67 294.27 327.27 296.22 C 322.83 297.81 319.25 300.98 315.02 302.98 C 309.42 305.60 304.27 309.10 298.61 311.61 C 293.58 313.71 289.42 317.42 284.29 319.31 C 278.09 321.72 272.97 326.14 266.89 328.79 C 262.08 330.81 257.88 333.98 253.13 336.10 C 247.73 338.53 243.05 342.54 237.21 343.95 C 234.96 344.42 232.70 344.84 230.51 345.53 C 228.43 344.32 226.36 343.07 224.31 341.80 C 223.68 334.51 225.51 327.31 225.20 320.02 C 225.04 315.67 225.33 311.34 225.78 307.02 C 226.32 301.70 225.73 296.34 226.23 291.02 C 227.30 282.73 225.73 274.27 227.64 266.05 C 229.82 264.43 228.75 261.32 229.03 259.01 C 228.57 248.31 230.01 237.67 229.85 226.98 C 230.07 224.89 229.39 222.25 231.38 220.79 C 232.18 234.09 230.47 247.37 230.50 260.67 C 230.34 268.05 229.74 275.40 229.56 282.78 C 229.45 293.54 228.37 304.27 228.42 315.04 C 228.41 322.39 227.12 329.71 227.71 337.06 C 229.04 341.68 235.28 341.27 238.88 339.85 C 257.52 330.00 276.10 320.04 294.65 310.03 C 305.54 304.21 316.46 298.47 327.29 292.54 C 337.07 287.28 346.92 282.14 356.67 276.82 C 368.53 270.41 380.53 264.28 392.30 257.72 C 398.68 253.88 406.20 251.54 411.28 245.88 C 413.67 242.71 412.11 238.11 408.91 236.17 C 405.28 233.76 401.64 231.36 397.95 229.05 C 386.32 221.36 374.74 213.59 362.98 206.10 C 349.37 197.00 335.67 188.03 321.94 179.10 C 299.79 164.56 277.62 150.03 255.42 135.57 C 250.85 132.56 245.60 128.79 239.83 130.67 C 236.93 132.85 234.64 136.21 234.81 139.97 C 234.55 151.29 234.52 162.63 233.66 173.92 C 233.38 181.11 233.44 188.30 233.12 195.49 C 231.79 203.74 233.28 212.20 231.56 220.39 L 231.47 220.21 C 230.35 213.52 231.56 206.73 231.38 199.99 C 232.26 178.24 232.65 156.44 233.78 134.72 Z" />
<path fill="#000000" opacity="1.00" d=" M 246.45 169.59 C 249.17 165.62 254.28 164.20 258.00 161.29 C 268.93 166.99 278.74 174.53 289.13 181.11 C 302.56 189.95 315.96 198.81 329.35 207.70 C 339.20 214.44 349.37 220.73 358.99 227.81 C 349.13 232.85 339.30 237.94 329.51 243.12 C 321.88 247.03 314.24 250.95 306.69 255.02 C 301.29 257.61 296.13 260.69 290.63 263.08 C 290.60 262.71 290.54 261.98 290.50 261.62 C 291.01 256.77 289.91 251.82 290.83 247.02 C 302.84 240.78 314.88 234.57 326.82 228.18 C 325.78 224.34 322.33 222.47 319.02 220.87 C 303.67 211.96 288.50 202.74 273.12 193.89 C 271.00 192.61 268.74 191.59 266.43 190.70 C 265.80 200.33 265.36 209.98 265.41 219.64 C 264.35 228.59 264.64 237.62 264.16 246.62 C 263.16 254.60 263.70 262.68 263.02 270.69 C 262.82 273.05 262.64 275.42 262.51 277.80 C 258.18 280.17 254.13 283.13 249.51 284.91 C 250.09 277.75 250.70 270.57 250.30 263.38 C 250.85 255.94 250.22 248.46 250.84 241.02 C 251.18 237.31 251.36 233.59 251.35 229.86 C 251.40 225.42 251.55 220.98 251.66 216.55 C 251.73 215.93 251.86 214.70 251.93 214.09 C 252.63 205.43 252.12 196.69 252.95 188.02 C 253.31 184.69 253.49 181.34 253.57 177.99 C 251.23 175.16 248.99 172.25 246.45 169.59 M 249.53 169.02 C 250.90 172.49 254.72 174.49 255.97 178.09 C 256.43 186.08 255.23 194.05 255.10 202.04 C 254.99 206.71 255.17 211.39 254.75 216.05 C 253.84 225.67 254.41 235.36 253.55 244.98 C 253.31 252.26 252.80 259.55 253.15 266.84 L 254.00 266.87 C 254.13 270.93 253.70 274.98 253.19 279.01 C 255.51 278.32 257.95 277.57 259.69 275.78 C 260.40 272.88 260.22 269.86 260.14 266.91 C 260.53 266.90 261.30 266.88 261.69 266.87 C 261.81 253.21 262.96 239.60 263.17 225.95 C 264.26 213.34 263.75 200.65 265.21 188.07 C 269.53 188.52 272.97 191.34 276.62 193.42 C 293.34 203.39 309.98 213.49 326.76 223.36 C 327.19 225.79 329.63 229.96 326.29 231.25 C 315.18 237.02 304.25 243.19 293.14 248.93 C 292.79 252.44 293.03 255.97 293.04 259.49 C 296.61 258.68 299.60 256.48 302.83 254.86 C 317.42 247.06 331.94 239.12 346.60 231.46 C 349.03 230.19 351.45 228.86 353.56 227.09 C 348.82 224.81 344.66 221.58 340.33 218.63 C 313.09 200.70 286.19 182.23 259.02 164.20 C 255.65 165.11 252.32 166.91 249.53 169.02 Z" />
<path fill="#000000" opacity="1.00" d=" M 275.60 207.05 C 277.95 208.36 280.27 209.72 282.58 211.10 C 282.37 217.81 282.44 224.54 282.12 231.25 C 281.35 237.70 281.64 244.22 281.51 250.70 C 281.25 259.80 281.51 268.91 281.07 278.01 C 280.98 279.60 281.23 281.18 281.50 282.74 C 297.22 274.40 313.01 266.19 328.71 257.80 C 336.39 253.86 344.00 249.77 351.63 245.72 C 358.99 242.07 366.06 237.90 373.35 234.12 C 375.54 237.80 373.26 242.16 373.30 246.14 C 367.09 249.70 360.83 253.16 354.57 256.62 C 345.35 261.68 336.15 266.79 326.97 271.94 C 317.92 276.89 308.89 281.87 299.92 286.98 C 293.51 290.21 287.38 293.98 281.08 297.43 C 272.93 301.75 265.11 306.69 256.91 310.89 C 252.09 308.96 247.57 306.27 243.24 303.41 C 252.82 298.12 262.91 293.81 272.27 288.12 C 271.99 276.26 273.55 264.47 273.47 252.61 C 274.01 245.32 274.72 238.03 274.44 230.71 C 275.12 222.84 275.58 214.95 275.60 207.05 M 277.38 210.94 C 276.88 229.61 275.36 248.24 275.00 266.92 L 276.23 267.34 C 274.68 275.02 277.36 283.03 274.58 290.53 C 271.57 292.11 269.18 294.70 265.87 295.74 C 260.58 298.39 254.47 300.20 250.18 304.33 C 252.65 305.12 254.82 306.49 256.96 307.90 C 264.67 303.17 272.62 298.83 280.57 294.52 C 282.69 292.91 284.76 291.16 287.33 290.31 C 294.52 287.60 300.26 282.25 307.42 279.47 C 312.73 276.18 318.18 273.15 324.00 270.85 L 323.50 270.59 C 328.50 267.38 334.07 265.20 339.05 261.95 C 343.58 259.07 348.62 257.09 353.15 254.21 C 358.33 250.87 364.22 248.76 369.19 245.08 C 370.73 243.93 371.32 241.94 371.71 240.15 C 371.40 238.40 369.67 238.87 368.60 239.60 C 351.81 248.55 335.15 257.74 318.25 266.47 C 312.90 270.83 306.18 272.84 300.33 276.38 C 295.64 279.62 290.23 281.55 285.25 284.28 C 283.43 285.45 281.31 285.11 279.30 284.83 C 277.44 279.39 278.06 273.63 278.17 268.01 L 278.88 268.26 C 279.89 257.19 279.82 246.07 280.04 234.97 C 280.27 227.96 280.74 220.94 280.82 213.93 C 281.25 211.77 278.79 211.58 277.38 210.94 Z" />
<path fill="#000000" opacity="1.00" d=" M 293.41 216.94 C 297.63 219.07 301.75 221.40 305.91 223.64 C 307.48 224.49 309.04 225.34 310.61 226.20 C 304.56 229.55 298.39 232.67 292.31 235.96 C 292.37 233.48 292.40 231.00 292.44 228.53 C 292.60 224.65 292.89 220.78 293.41 216.94 M 295.99 222.07 C 295.67 224.76 295.75 227.48 296.06 230.18 C 298.81 229.03 301.56 227.86 304.16 226.39 C 301.42 224.97 298.71 223.51 295.99 222.07 Z" />
<path fill="#000000" opacity="1.00" d=" M 146.98 275.09 C 147.27 274.92 147.85 274.59 148.14 274.42 C 148.29 275.24 148.43 276.07 148.59 276.90 C 149.84 278.24 150.70 279.89 151.21 281.66 C 152.73 286.74 154.64 291.70 156.49 296.67 C 157.13 298.63 158.67 300.05 160.06 301.51 C 160.42 303.23 160.83 304.95 161.57 306.56 C 162.87 309.19 165.47 311.80 164.14 314.97 C 156.46 302.63 150.77 289.11 146.98 275.09 Z" />
</g>
<g id="#232323ff">
<path fill="#232323" opacity="1.00" d=" M 277.42 42.14 C 281.28 41.74 285.18 41.84 289.02 42.45 C 285.26 42.75 280.83 44.18 277.42 42.14 Z" />
<path fill="#232323" opacity="1.00" d=" M 277.49 429.87 C 280.79 427.80 285.23 429.28 288.94 429.54 C 285.15 430.12 281.30 430.26 277.49 429.87 Z" />
</g>
<g id="#212121ff">
<path fill="#212121" opacity="1.00" d=" M 300.88 42.44 C 304.96 41.86 309.12 41.57 313.20 42.34 C 309.23 43.76 304.93 43.15 300.88 42.44 Z" />
<path fill="#212121" opacity="1.00" d=" M 300.90 429.49 C 304.95 428.88 309.20 428.27 313.16 429.63 C 309.11 430.39 304.94 430.30 300.90 429.49 Z" />
</g>
<g id="#323232ff">
<path fill="#323232" opacity="1.00" d=" M 252.81 48.65 C 262.70 46.15 272.91 45.46 282.98 44.14 C 284.09 44.14 285.16 44.33 286.21 44.71 C 274.77 45.65 263.32 46.87 252.14 49.55 C 250.32 49.97 248.67 50.86 247.04 51.73 C 246.98 54.38 246.66 57.06 245.36 59.42 C 228.03 63.50 211.66 71.19 196.60 80.62 C 186.55 87.36 176.53 94.42 168.25 103.32 C 167.17 104.62 165.57 105.15 163.96 105.42 C 161.94 104.70 159.95 103.91 157.85 103.44 C 157.21 102.91 155.92 101.85 155.28 101.32 C 158.20 97.24 162.36 94.30 166.45 91.48 C 187.47 73.41 212.26 59.62 238.89 51.79 C 243.33 49.92 248.22 49.96 252.81 48.65 Z" />
<path fill="#323232" opacity="1.00" d=" M 303.81 44.69 C 307.86 43.47 311.95 45.34 316.06 45.18 C 321.09 45.12 326.21 47.70 331.15 46.19 C 331.20 45.73 331.31 44.80 331.37 44.34 C 333.72 48.44 338.93 49.92 343.30 48.59 C 372.16 54.89 398.37 70.34 420.78 89.26 C 423.48 91.88 426.78 93.97 429.02 97.01 C 429.10 98.57 429.13 100.13 429.16 101.70 C 427.77 102.23 426.41 102.83 425.07 103.46 C 420.59 102.78 418.38 98.48 415.16 95.83 C 396.67 80.23 375.17 68.13 352.10 60.79 C 348.62 59.54 345.00 58.67 341.33 58.24 C 340.51 55.49 340.26 52.52 339.03 49.92 C 327.52 46.91 315.63 45.74 303.81 44.69 Z" />
</g>
<g id="#ebe8e8ff">
<path fill="#ebe8e8" opacity="1.00" d=" M 252.14 49.55 C 263.32 46.87 274.77 45.65 286.21 44.71 C 286.50 44.75 287.07 44.83 287.36 44.87 C 292.21 46.58 297.70 46.60 302.56 44.85 C 302.87 44.81 303.50 44.73 303.81 44.69 C 315.63 45.74 327.52 46.91 339.03 49.92 C 340.26 52.52 340.51 55.49 341.33 58.24 C 342.48 65.45 341.48 72.76 341.42 80.01 C 341.42 84.05 340.34 87.98 339.97 92.00 C 330.46 89.23 320.78 86.93 310.92 85.86 C 299.98 84.88 288.98 85.08 278.03 85.69 C 267.63 86.75 257.41 89.08 247.40 92.07 C 245.57 81.31 244.55 70.33 245.36 59.42 C 246.66 57.06 246.98 54.38 247.04 51.73 C 248.67 50.86 250.32 49.97 252.14 49.55 Z" />
<path fill="#ebe8e8" opacity="1.00" d=" M 425.07 103.46 C 426.41 102.83 427.77 102.23 429.16 101.70 C 429.57 101.70 430.40 101.71 430.81 101.72 C 432.41 103.14 433.95 104.65 435.53 106.11 C 436.30 106.81 437.07 107.52 437.84 108.24 C 456.46 129.66 470.87 154.90 478.77 182.23 L 478.39 182.63 C 476.35 184.80 474.19 186.87 471.81 188.65 C 462.77 195.65 452.09 200.00 441.62 204.34 C 438.61 193.31 435.59 182.19 430.49 171.91 C 422.55 154.70 411.12 139.26 397.43 126.20 C 400.19 123.01 402.67 119.58 405.56 116.51 C 411.25 111.09 417.87 106.64 425.07 103.46 Z" />
</g>
<g id="#fffdfdff">
<path fill="#fffdfd" opacity="1.00" d=" M 287.36 44.87 C 292.41 44.46 297.50 44.49 302.56 44.85 C 297.70 46.60 292.21 46.58 287.36 44.87 Z" />
</g>
<g id="#464646ff">
<path fill="#464646" opacity="1.00" d=" M 341.33 58.24 C 345.00 58.67 348.62 59.54 352.10 60.79 C 375.17 68.13 396.67 80.23 415.16 95.83 C 418.38 98.48 420.59 102.78 425.07 103.46 C 417.87 106.64 411.25 111.09 405.56 116.51 C 402.67 119.58 400.19 123.01 397.43 126.20 C 411.12 139.26 422.55 154.70 430.49 171.91 C 435.59 182.19 438.61 193.31 441.62 204.34 C 452.09 200.00 462.77 195.65 471.81 188.65 C 474.19 199.25 475.20 210.10 476.91 220.83 C 465.32 226.99 453.11 231.89 441.34 237.71 C 439.56 238.50 437.76 239.24 435.96 239.98 C 436.89 221.96 433.31 203.98 428.02 186.83 C 426.45 181.28 422.86 176.63 420.82 171.27 C 412.63 153.05 398.32 138.59 383.83 125.23 C 373.29 118.20 362.99 110.53 351.13 105.81 C 329.40 96.56 305.48 92.31 281.92 94.63 C 232.39 98.73 185.42 130.81 165.90 176.88 C 161.30 186.47 157.87 196.72 156.09 207.21 C 152.49 207.21 150.29 204.39 148.33 201.78 C 149.68 194.83 152.13 188.19 154.35 181.50 C 154.98 180.07 154.28 178.60 153.98 177.20 C 160.24 162.65 168.81 149.10 179.28 137.21 C 183.60 132.77 187.91 128.32 192.26 123.91 C 189.24 120.50 185.25 118.15 181.60 115.49 C 175.97 111.74 170.38 107.72 163.96 105.42 C 165.57 105.15 167.17 104.62 168.25 103.32 C 176.53 94.42 186.55 87.36 196.60 80.62 C 211.66 71.19 228.03 63.50 245.36 59.42 C 244.55 70.33 245.57 81.31 247.40 92.07 C 257.41 89.08 267.63 86.75 278.03 85.69 C 288.98 85.08 299.98 84.88 310.92 85.86 C 320.78 86.93 330.46 89.23 339.97 92.00 C 340.34 87.98 341.42 84.05 341.42 80.01 C 341.48 72.76 342.48 65.45 341.33 58.24 Z" />
<path fill="#464646" opacity="1.00" d=" M 217.73 134.78 C 235.68 122.48 256.51 114.01 278.18 111.54 C 285.02 111.60 291.81 110.47 298.65 110.71 C 307.08 111.15 315.50 112.00 323.76 113.84 C 346.55 119.83 367.77 131.78 384.36 148.54 C 395.91 161.62 406.15 176.35 411.96 192.90 C 410.55 199.62 414.96 205.53 415.69 212.01 C 416.38 216.98 417.30 221.93 417.64 226.95 C 417.91 224.63 418.19 222.32 418.31 219.99 C 419.06 226.85 419.90 233.76 419.28 240.67 C 419.00 242.58 418.65 244.48 418.36 246.39 C 417.86 244.06 417.57 241.69 417.56 239.31 C 417.18 239.60 416.44 240.19 416.07 240.48 C 398.30 223.66 376.44 212.29 356.22 198.84 C 322.29 176.78 288.32 154.78 254.39 132.72 C 251.30 130.80 248.37 128.45 244.85 127.37 C 239.99 126.54 236.07 131.04 233.78 134.72 C 232.65 156.44 232.26 178.24 231.38 199.99 C 231.56 206.73 230.35 213.52 231.47 220.21 L 231.38 220.79 C 229.39 222.25 230.07 224.89 229.85 226.98 C 230.01 237.67 228.57 248.31 229.03 259.01 C 228.75 261.32 229.82 264.43 227.64 266.05 C 225.14 265.27 222.65 264.47 220.10 263.92 C 202.94 260.12 185.84 256.06 168.70 252.20 C 168.66 252.91 168.60 254.33 168.57 255.04 C 166.14 242.39 167.43 229.42 168.28 216.67 C 169.65 208.34 171.88 200.14 175.01 192.30 C 177.95 184.40 182.02 176.96 186.43 169.80 C 189.54 164.89 193.06 160.27 196.51 155.59 C 202.34 147.48 210.37 141.40 217.73 134.78 Z" />
</g>
<g id="#211d1dff">
<path fill="#211d1d" opacity="1.00" d=" M 281.92 94.63 C 305.48 92.31 329.40 96.56 351.13 105.81 C 362.99 110.53 373.29 118.20 383.83 125.23 C 398.32 138.59 412.63 153.05 420.82 171.27 C 422.86 176.63 426.45 181.28 428.02 186.83 C 433.31 203.98 436.89 221.96 435.96 239.98 C 437.76 239.24 439.56 238.50 441.34 237.71 C 441.60 239.65 441.79 241.59 441.95 243.55 C 440.20 243.87 438.36 243.94 436.72 244.67 C 434.89 248.93 435.12 253.69 434.32 258.18 C 433.64 263.89 432.12 269.44 430.89 275.05 C 430.39 283.81 424.88 290.85 421.60 298.67 C 418.47 305.84 414.46 312.60 410.00 319.02 C 405.32 325.71 397.64 329.25 392.27 335.27 C 388.60 338.61 386.04 343.04 382.06 346.04 C 372.89 351.51 364.92 359.08 354.73 362.75 C 350.40 364.20 346.49 366.59 342.33 368.42 C 309.94 379.19 273.96 378.84 241.89 367.09 C 239.00 365.75 236.52 363.71 233.67 362.32 C 229.82 360.43 225.67 359.19 222.00 356.96 C 216.78 353.98 212.35 349.86 207.18 346.82 C 203.56 344.83 201.55 341.09 198.73 338.25 C 193.83 333.46 189.42 328.16 183.79 324.20 C 178.65 316.59 172.47 309.51 169.14 300.82 C 167.44 296.10 164.68 291.89 162.53 287.39 C 159.66 280.80 157.89 273.81 156.20 266.84 C 154.74 261.01 154.11 254.93 151.67 249.37 C 152.70 246.25 153.27 242.86 151.77 239.78 C 150.01 239.09 148.25 238.35 146.70 237.26 C 148.33 237.48 149.97 237.63 151.61 237.77 C 152.03 231.78 153.80 225.99 154.27 220.01 C 154.65 215.71 155.60 211.49 156.09 207.21 C 157.87 196.72 161.30 186.47 165.90 176.88 C 185.42 130.81 232.39 98.73 281.92 94.63 M 240.90 112.79 C 235.15 115.68 229.18 118.21 223.87 121.90 C 223.53 122.21 222.85 122.85 222.51 123.17 C 221.34 122.92 220.38 124.06 219.37 124.49 C 214.04 127.97 208.95 131.86 204.42 136.33 C 193.71 145.74 184.70 156.95 177.56 169.26 L 177.73 169.52 C 167.08 187.11 161.90 207.66 160.62 228.07 C 159.87 232.88 159.93 237.78 160.57 242.61 L 160.80 242.56 C 161.13 254.86 163.75 267.02 167.48 278.71 L 167.99 278.75 C 168.19 282.02 169.86 284.89 171.05 287.87 C 173.23 293.44 176.06 298.75 179.25 303.80 C 182.74 308.98 185.64 314.56 189.73 319.32 C 191.35 321.12 192.51 323.67 195.06 324.32 L 195.05 324.76 C 198.94 328.94 203.44 332.55 206.87 337.15 C 213.69 342.80 220.87 348.13 228.72 352.31 C 236.83 357.47 246.01 360.65 255.05 363.77 C 265.09 366.23 275.31 368.71 285.68 369.06 C 292.07 370.11 298.59 369.72 305.00 369.00 C 320.93 368.01 336.63 363.66 351.20 357.18 C 362.36 351.93 372.52 344.79 381.91 336.89 C 385.14 332.83 389.01 329.36 392.66 325.70 C 396.27 323.04 398.56 319.12 401.70 315.98 C 405.38 310.23 409.72 304.87 412.50 298.60 C 413.98 295.04 416.78 291.91 416.75 287.87 C 420.29 284.38 420.41 279.07 422.55 274.78 C 425.05 263.95 427.78 252.82 426.45 241.63 C 426.82 237.44 427.52 233.24 427.34 229.03 C 425.85 215.83 423.88 202.57 419.34 190.02 C 418.97 189.41 418.25 188.21 417.89 187.61 C 417.49 185.67 416.59 183.87 415.62 182.15 C 414.99 177.94 412.30 174.55 410.25 170.95 C 399.90 152.69 385.84 136.20 367.94 125.01 C 364.82 123.18 361.68 121.36 358.89 119.03 C 353.16 116.79 348.09 112.97 342.06 111.50 C 339.92 109.77 336.99 109.78 334.57 108.62 C 331.10 106.83 327.10 106.08 323.27 105.88 C 314.40 103.64 305.23 102.20 296.06 102.52 C 289.03 102.61 281.92 102.00 274.96 103.26 C 263.30 105.11 251.62 107.67 240.90 112.79 Z" />
</g>
<g id="#1b1b1bff">
<path fill="#1b1b1b" opacity="1.00" d=" M 429.02 97.01 C 432.66 97.82 434.82 100.87 437.03 103.58 C 436.65 104.21 435.91 105.47 435.53 106.11 C 433.95 104.65 432.41 103.14 430.81 101.72 C 430.40 101.71 429.57 101.70 429.16 101.70 C 429.13 100.13 429.10 98.57 429.02 97.01 Z" />
<path fill="#1b1b1b" opacity="1.00" d=" M 471.81 188.65 C 474.19 186.87 476.35 184.80 478.39 182.63 C 479.96 184.78 480.25 187.47 480.88 189.99 C 485.56 209.27 487.44 229.27 485.81 249.08 C 484.85 262.89 482.86 276.73 478.59 289.94 C 476.76 288.34 475.01 286.65 473.21 285.03 C 474.29 282.23 471.18 280.94 469.38 279.63 C 465.68 277.48 462.41 274.66 460.06 271.07 C 459.35 271.65 458.66 272.24 457.97 272.83 C 454.21 272.14 450.87 270.26 448.16 267.59 C 446.27 267.54 444.38 267.33 442.53 266.99 C 442.77 261.14 443.33 255.32 444.58 249.60 C 445.20 247.31 444.48 245.05 443.51 242.98 C 442.61 251.02 440.80 258.90 439.71 266.91 C 439.43 268.42 437.85 269.20 436.91 270.30 C 437.45 273.01 437.08 275.77 435.98 278.30 C 435.60 276.63 435.26 274.94 434.94 273.26 C 434.30 273.20 433.03 273.07 432.40 273.00 C 432.95 273.86 433.50 274.72 434.07 275.59 C 433.00 275.41 431.95 275.23 430.89 275.05 C 432.12 269.44 433.64 263.89 434.32 258.18 C 435.12 253.69 434.89 248.93 436.72 244.67 C 438.36 243.94 440.20 243.87 441.95 243.55 C 441.79 241.59 441.60 239.65 441.34 237.71 C 453.11 231.89 465.32 226.99 476.91 220.83 C 475.20 210.10 474.19 199.25 471.81 188.65 Z" />
<path fill="#1b1b1b" opacity="1.00" d=" M 109.06 190.08 C 109.28 188.24 110.36 186.70 111.82 185.60 C 113.28 186.90 114.81 188.14 116.39 189.31 C 115.10 191.69 114.07 194.23 113.85 196.95 C 113.08 203.27 111.65 209.47 110.72 215.76 C 110.71 217.98 110.21 221.26 112.73 222.31 C 119.64 225.94 127.00 228.61 134.01 232.03 C 138.10 234.17 143.10 234.11 146.70 237.26 C 148.25 238.35 150.01 239.09 151.77 239.78 C 153.27 242.86 152.70 246.25 151.67 249.37 C 151.23 248.57 150.78 247.77 150.32 246.98 C 149.38 252.63 149.20 258.49 150.97 264.01 C 152.69 269.31 153.27 275.02 156.08 279.92 C 157.17 281.36 156.30 283.10 156.08 284.68 C 155.38 284.18 154.68 283.68 153.98 283.18 C 154.06 283.79 154.23 285.00 154.31 285.61 C 154.98 285.85 155.65 286.10 156.33 286.35 C 155.36 287.71 154.64 289.20 156.16 290.46 C 156.33 289.83 156.69 288.56 156.87 287.92 C 159.96 292.97 162.17 298.53 165.77 303.27 C 164.37 304.37 162.97 305.46 161.57 306.56 C 160.83 304.95 160.42 303.23 160.06 301.51 C 158.67 300.05 157.13 298.63 156.49 296.67 C 154.64 291.70 152.73 286.74 151.21 281.66 C 150.70 279.89 149.84 278.24 148.59 276.90 C 148.43 276.07 148.29 275.24 148.14 274.42 C 147.85 274.59 147.27 274.92 146.98 275.09 C 146.30 272.75 145.79 270.36 145.27 267.99 C 133.23 272.25 121.42 277.89 111.55 286.14 C 108.75 283.91 109.02 280.10 108.11 276.96 C 106.69 269.64 104.85 262.38 103.92 254.97 C 102.57 233.20 106.17 211.58 109.06 190.08 Z" />
</g>
<g id="#f5f3f3ff">
<path fill="#f5f3f3" opacity="1.00" d=" M 156.90 103.24 L 157.85 103.44 C 159.95 103.91 161.94 104.70 163.96 105.42 C 170.38 107.72 175.97 111.74 181.60 115.49 C 185.25 118.15 189.24 120.50 192.26 123.91 C 187.91 128.32 183.60 132.77 179.28 137.21 C 168.81 149.10 160.24 162.65 153.98 177.20 C 153.43 178.52 152.90 179.85 152.39 181.19 C 149.65 177.77 153.12 174.04 154.15 170.67 C 153.18 170.55 152.21 170.44 151.25 170.32 C 150.79 168.48 150.34 166.65 149.89 164.81 C 149.39 166.13 148.89 167.44 148.40 168.76 C 146.32 166.88 144.26 164.96 142.27 162.99 C 142.58 161.90 142.89 160.82 143.20 159.74 C 140.01 157.46 136.11 156.79 132.37 155.95 C 132.72 154.15 133.06 152.36 133.40 150.57 C 134.50 150.05 135.60 149.54 136.70 149.04 C 136.30 148.47 135.89 147.90 135.49 147.34 C 136.13 147.14 137.42 146.76 138.06 146.57 C 138.39 144.45 137.07 143.14 135.34 142.21 C 136.20 139.69 137.77 137.53 139.60 135.63 C 139.66 133.29 139.68 130.95 139.69 128.62 C 138.78 128.42 137.86 128.23 136.95 128.05 C 137.71 126.99 138.46 125.94 139.25 124.91 C 140.81 122.91 142.38 120.91 143.83 118.82 C 147.68 113.21 152.66 108.52 156.90 103.24 Z" />
</g>
<g id="#38ec87ff">
<path fill="#38ec87" opacity="1.00" d=" M 240.90 112.79 C 251.62 107.67 263.30 105.11 274.96 103.26 C 281.92 102.00 289.03 102.61 296.06 102.52 C 305.23 102.20 314.40 103.64 323.27 105.88 L 321.69 106.26 C 316.41 106.36 311.34 104.59 306.09 104.40 C 299.50 104.12 292.84 102.83 286.32 104.40 C 279.15 105.68 270.61 103.63 264.71 108.80 C 259.18 110.88 253.30 111.83 247.79 113.98 C 233.08 119.67 218.78 127.06 207.24 137.99 C 206.30 137.43 205.36 136.88 204.42 136.33 C 208.95 131.86 214.04 127.97 219.37 124.49 C 220.38 124.06 221.34 122.92 222.51 123.17 C 223.68 123.95 225.52 123.76 225.75 122.13 C 225.28 122.07 224.34 121.95 223.87 121.90 C 229.18 118.21 235.15 115.68 240.90 112.79 Z" />
</g>
<g id="#16fd5dff">
<path fill="#16fd5d" opacity="1.00" d=" M 264.71 108.80 C 270.61 103.63 279.15 105.68 286.32 104.40 C 292.84 102.83 299.50 104.12 306.09 104.40 C 311.34 104.59 316.41 106.36 321.69 106.26 C 324.09 107.54 326.24 109.20 328.43 110.80 C 327.85 110.66 326.70 110.36 326.12 110.21 C 310.03 106.04 293.11 105.11 276.64 107.11 C 272.66 107.68 268.71 108.39 264.71 108.80 Z" />
</g>
<g id="#c2fed6ff">
<path fill="#c2fed6" opacity="1.00" d=" M 276.64 107.11 C 293.11 105.11 310.03 106.04 326.12 110.21 C 326.73 111.32 327.31 112.46 327.90 113.60 C 326.51 113.69 325.13 113.77 323.76 113.84 C 315.50 112.00 307.08 111.15 298.65 110.71 C 298.53 110.53 298.31 110.17 298.20 109.99 C 294.44 110.87 290.60 109.69 286.84 110.53 C 283.00 111.59 280.12 108.05 276.64 107.11 Z" />
</g>
<g id="#24cf6aff">
<path fill="#24cf6a" opacity="1.00" d=" M 321.69 106.26 L 323.27 105.88 C 327.10 106.08 331.10 106.83 334.57 108.62 C 336.99 109.78 339.92 109.77 342.06 111.50 C 344.06 113.26 345.74 115.34 347.13 117.62 C 341.15 114.69 334.74 112.84 328.43 110.80 C 326.24 109.20 324.09 107.54 321.69 106.26 Z" />
</g>
<g id="#ebffeeff">
<path fill="#ebffee" opacity="1.00" d=" M 264.71 108.80 C 268.71 108.39 272.66 107.68 276.64 107.11 C 280.12 108.05 283.00 111.59 286.84 110.53 C 290.60 109.69 294.44 110.87 298.20 109.99 C 298.31 110.17 298.53 110.53 298.65 110.71 C 291.81 110.47 285.02 111.60 278.18 111.54 C 256.51 114.01 235.68 122.48 217.73 134.78 C 210.37 141.40 202.34 147.48 196.51 155.59 C 193.06 160.27 189.54 164.89 186.43 169.80 C 185.26 168.79 184.09 167.79 182.92 166.79 C 189.68 156.14 197.88 146.45 207.24 137.99 C 218.78 127.06 233.08 119.67 247.79 113.98 C 253.30 111.83 259.18 110.88 264.71 108.80 Z" />
</g>
<g id="#afffc3ff">
<path fill="#afffc3" opacity="1.00" d=" M 326.12 110.21 C 326.70 110.36 327.85 110.66 328.43 110.80 C 334.74 112.84 341.15 114.69 347.13 117.62 C 353.88 120.66 360.20 124.55 366.47 128.47 C 385.24 141.06 400.13 158.90 410.35 178.98 C 411.66 181.75 412.80 184.60 413.91 187.46 C 413.96 189.85 414.14 192.24 414.59 194.59 C 414.00 194.40 412.83 194.01 412.24 193.82 L 411.96 192.90 C 406.15 176.35 395.91 161.62 384.36 148.54 C 367.77 131.78 346.55 119.83 323.76 113.84 C 325.13 113.77 326.51 113.69 327.90 113.60 C 327.31 112.46 326.73 111.32 326.12 110.21 Z" />
</g>
<g id="#23b36cff">
<path fill="#23b36c" opacity="1.00" d=" M 342.06 111.50 C 348.09 112.97 353.16 116.79 358.89 119.03 C 361.68 121.36 364.82 123.18 367.94 125.01 C 385.84 136.20 399.90 152.69 410.25 170.95 C 412.30 174.55 414.99 177.94 415.62 182.15 C 413.99 180.90 412.19 179.89 410.35 178.98 C 400.13 158.90 385.24 141.06 366.47 128.47 C 360.20 124.55 353.88 120.66 347.13 117.62 C 345.74 115.34 344.06 113.26 342.06 111.50 Z" />
</g>
<g id="#393938ff">
<path fill="#393938" opacity="1.00" d=" M 140.38 118.31 C 141.53 118.48 142.68 118.65 143.83 118.82 C 142.38 120.91 140.81 122.91 139.25 124.91 C 138.64 122.59 138.04 119.93 140.38 118.31 Z" />
</g>
<g id="#77e9b3ff">
<path fill="#77e9b3" opacity="1.00" d=" M 222.51 123.17 C 222.85 122.85 223.53 122.21 223.87 121.90 C 224.34 121.95 225.28 122.07 225.75 122.13 C 225.52 123.76 223.68 123.95 222.51 123.17 Z" />
</g>
<g id="#efececff">
<path fill="#efecec" opacity="1.00" d=" M 136.95 128.05 C 137.86 128.23 138.78 128.42 139.69 128.62 C 139.68 130.95 139.66 133.29 139.60 135.63 C 137.77 137.53 136.20 139.69 135.34 142.21 C 137.07 143.14 138.39 144.45 138.06 146.57 C 137.42 146.76 136.13 147.14 135.49 147.34 C 135.89 147.90 136.30 148.47 136.70 149.04 C 135.60 149.54 134.50 150.05 133.40 150.57 C 133.06 152.36 132.72 154.15 132.37 155.95 C 136.11 156.79 140.01 157.46 143.20 159.74 C 142.89 160.82 142.58 161.90 142.27 162.99 C 144.26 164.96 146.32 166.88 148.40 168.76 C 148.89 167.44 149.39 166.13 149.89 164.81 C 150.34 166.65 150.79 168.48 151.25 170.32 C 152.21 170.44 153.18 170.55 154.15 170.67 C 153.12 174.04 149.65 177.77 152.39 181.19 C 149.70 188.58 147.20 196.04 145.40 203.71 C 135.41 199.62 125.32 195.48 116.39 189.31 C 114.81 188.14 113.28 186.90 111.82 185.60 C 111.49 185.28 110.82 184.64 110.49 184.32 C 116.53 164.41 125.10 145.20 136.95 128.05 Z" />
</g>
<g id="#7afc5bff">
<path fill="#7afc5b" opacity="1.00" d=" M 239.83 130.67 C 245.60 128.79 250.85 132.56 255.42 135.57 C 277.62 150.03 299.79 164.56 321.94 179.10 C 318.35 180.56 315.67 176.54 312.10 176.93 C 304.27 176.93 296.45 177.11 288.63 176.94 C 288.82 178.33 288.99 179.72 289.13 181.11 C 278.74 174.53 268.93 166.99 258.00 161.29 C 254.28 164.20 249.17 165.62 246.45 169.59 C 243.82 172.16 239.62 170.63 236.31 171.12 C 236.10 172.65 235.89 174.19 235.69 175.72 C 235.01 175.12 234.33 174.52 233.66 173.92 C 234.52 162.63 234.55 151.29 234.81 139.97 C 234.64 136.21 236.93 132.85 239.83 130.67 Z" />
</g>
<g id="#2fe87dff">
<path fill="#2fe87d" opacity="1.00" d=" M 177.56 169.26 C 184.70 156.95 193.71 145.74 204.42 136.33 C 205.36 136.88 206.30 137.43 207.24 137.99 C 197.88 146.45 189.68 156.14 182.92 166.79 C 181.74 168.57 180.60 170.38 179.59 172.27 C 179.12 171.58 178.19 170.21 177.73 169.52 L 177.56 169.26 Z" />
</g>
<g id="#373938ff">
<path fill="#373938" opacity="1.00" d=" M 249.53 169.02 C 252.32 166.91 255.65 165.11 259.02 164.20 C 286.19 182.23 313.09 200.70 340.33 218.63 C 344.66 221.58 348.82 224.81 353.56 227.09 C 351.45 228.86 349.03 230.19 346.60 231.46 C 331.94 239.12 317.42 247.06 302.83 254.86 C 299.60 256.48 296.61 258.68 293.04 259.49 C 293.03 255.97 292.79 252.44 293.14 248.93 C 304.25 243.19 315.18 237.02 326.29 231.25 C 329.63 229.96 327.19 225.79 326.76 223.36 C 309.98 213.49 293.34 203.39 276.62 193.42 C 272.97 191.34 269.53 188.52 265.21 188.07 C 263.75 200.65 264.26 213.34 263.17 225.95 C 262.96 239.60 261.81 253.21 261.69 266.87 C 261.30 266.88 260.53 266.90 260.14 266.91 C 258.09 266.95 256.05 266.92 254.00 266.87 L 253.15 266.84 C 252.80 259.55 253.31 252.26 253.55 244.98 C 254.41 235.36 253.84 225.67 254.75 216.05 C 255.17 211.39 254.99 206.71 255.10 202.04 C 255.23 194.05 256.43 186.08 255.97 178.09 C 254.72 174.49 250.90 172.49 249.53 169.02 Z" />
<path fill="#373938" opacity="1.00" d=" M 277.38 210.94 C 278.79 211.58 281.25 211.77 280.82 213.93 C 280.74 220.94 280.27 227.96 280.04 234.97 C 279.82 246.07 279.89 257.19 278.88 268.26 L 278.17 268.01 C 277.69 267.85 276.71 267.51 276.23 267.34 L 275.00 266.92 C 275.36 248.24 276.88 229.61 277.38 210.94 Z" />
<path fill="#373938" opacity="1.00" d=" M 368.60 239.60 C 369.67 238.87 371.40 238.40 371.71 240.15 C 371.32 241.94 370.73 243.93 369.19 245.08 C 364.22 248.76 358.33 250.87 353.15 254.21 C 348.62 257.09 343.58 259.07 339.05 261.95 C 334.07 265.20 328.50 267.38 323.50 270.59 C 321.41 269.68 319.61 268.30 318.25 266.47 C 335.15 257.74 351.81 248.55 368.60 239.60 Z" />
</g>
<g id="#ceffd9ff">
<path fill="#ceffd9" opacity="1.00" d=" M 179.59 172.27 C 180.60 170.38 181.74 168.57 182.92 166.79 C 184.09 167.79 185.26 168.79 186.43 169.80 C 182.02 176.96 177.95 184.40 175.01 192.30 C 173.18 193.23 172.42 191.16 171.40 190.12 C 173.81 184.03 176.56 178.07 179.59 172.27 Z" />
</g>
<g id="#1fff62ff">
<path fill="#1fff62" opacity="1.00" d=" M 160.62 228.07 C 161.90 207.66 167.08 187.11 177.73 169.52 C 178.19 170.21 179.12 171.58 179.59 172.27 C 176.56 178.07 173.81 184.03 171.40 190.12 C 165.08 206.58 162.68 224.40 163.45 241.98 C 162.79 242.12 161.46 242.41 160.80 242.56 L 160.57 242.61 C 159.93 237.78 159.87 232.88 160.62 228.07 Z" />
<path fill="#1fff62" opacity="1.00" d=" M 165.03 259.54 C 166.02 262.51 166.94 265.50 167.57 268.56 C 169.27 277.12 173.61 284.79 176.15 293.09 C 172.95 288.84 172.18 283.42 169.55 278.87 C 167.08 272.71 165.59 266.15 165.03 259.54 Z" />
</g>
<g id="#72f853ff">
<path fill="#72f853" opacity="1.00" d=" M 236.31 171.12 C 239.62 170.63 243.82 172.16 246.45 169.59 C 248.99 172.25 251.23 175.16 253.57 177.99 C 253.49 181.34 253.31 184.69 252.95 188.02 C 252.12 196.69 252.63 205.43 251.93 214.09 C 252.09 207.75 251.76 201.41 251.49 195.08 C 251.14 196.39 250.79 197.69 250.44 199.00 C 250.21 196.72 249.98 194.44 249.76 192.17 C 245.03 191.89 240.30 191.83 235.57 192.13 C 235.10 193.98 234.62 195.83 234.20 197.70 C 233.93 197.14 233.39 196.04 233.12 195.49 C 233.44 188.30 233.38 181.11 233.66 173.92 C 234.33 174.52 235.01 175.12 235.69 175.72 C 235.89 174.19 236.10 172.65 236.31 171.12 Z" />
</g>
<g id="#6ef550ff">
<path fill="#6ef550" opacity="1.00" d=" M 288.63 176.94 C 296.45 177.11 304.27 176.93 312.10 176.93 C 315.67 176.54 318.35 180.56 321.94 179.10 C 335.67 188.03 349.37 197.00 362.98 206.10 C 356.98 206.58 350.98 205.51 344.96 205.96 C 339.78 206.39 333.93 204.53 329.35 207.70 C 315.96 198.81 302.56 189.95 289.13 181.11 C 288.99 179.72 288.82 178.33 288.63 176.94 Z" />
</g>
<g id="#303030ff">
<path fill="#303030" opacity="1.00" d=" M 152.39 181.19 C 152.90 179.85 153.43 178.52 153.98 177.20 C 154.28 178.60 154.98 180.07 154.35 181.50 C 152.13 188.19 149.68 194.83 148.33 201.78 C 150.29 204.39 152.49 207.21 156.09 207.21 C 155.60 211.49 154.65 215.71 154.27 220.01 C 153.80 225.99 152.03 231.78 151.61 237.77 C 149.97 237.63 148.33 237.48 146.70 237.26 C 143.10 234.11 138.10 234.17 134.01 232.03 C 127.00 228.61 119.64 225.94 112.73 222.31 C 110.21 221.26 110.71 217.98 110.72 215.76 C 111.65 209.47 113.08 203.27 113.85 196.95 C 114.07 194.23 115.10 191.69 116.39 189.31 C 125.32 195.48 135.41 199.62 145.40 203.71 C 147.20 196.04 149.70 188.58 152.39 181.19 Z" />
</g>
<g id="#15d253ff">
<path fill="#15d253" opacity="1.00" d=" M 410.35 178.98 C 412.19 179.89 413.99 180.90 415.62 182.15 C 416.59 183.87 417.49 185.67 417.89 187.61 C 417.05 192.37 418.46 196.97 419.20 201.62 L 418.65 200.40 C 416.77 196.19 416.15 191.53 413.91 187.46 C 412.80 184.60 411.66 181.75 410.35 178.98 Z" />
</g>
<g id="#8affa0ff">
<path fill="#8affa0" opacity="1.00" d=" M 413.91 187.46 C 416.15 191.53 416.77 196.19 418.65 200.40 C 418.32 201.27 417.67 203.01 417.34 203.88 C 416.48 203.29 415.61 202.70 414.77 202.12 C 413.99 199.33 413.10 196.58 412.24 193.82 C 412.83 194.01 414.00 194.40 414.59 194.59 C 414.14 192.24 413.96 189.85 413.91 187.46 Z" />
</g>
<g id="#1ea04aff">
<path fill="#1ea04a" opacity="1.00" d=" M 417.89 187.61 C 418.25 188.21 418.97 189.41 419.34 190.02 C 423.88 202.57 425.85 215.83 427.34 229.03 C 427.52 233.24 426.82 237.44 426.45 241.63 C 426.26 242.33 425.87 243.74 425.68 244.45 C 424.94 239.63 425.69 234.77 425.54 229.93 C 425.45 224.79 423.31 220.02 422.61 214.98 C 422.04 211.19 421.45 207.38 419.94 203.83 C 419.69 203.09 419.44 202.35 419.20 201.62 C 418.46 196.97 417.05 192.37 417.89 187.61 Z" />
</g>
<g id="#afffc6ff">
<path fill="#afffc6" opacity="1.00" d=" M 163.45 241.98 C 162.68 224.40 165.08 206.58 171.40 190.12 C 172.42 191.16 173.18 193.23 175.01 192.30 C 171.88 200.14 169.65 208.34 168.28 216.67 C 166.05 225.01 166.37 233.69 166.47 242.23 C 165.72 242.57 164.22 243.24 163.47 243.57 C 163.46 243.17 163.46 242.38 163.45 241.98 Z" />
</g>
<g id="#66f048ff">
<path fill="#66f048" opacity="1.00" d=" M 266.43 190.70 C 268.74 191.59 271.00 192.61 273.12 193.89 C 288.50 202.74 303.67 211.96 319.02 220.87 C 314.81 221.89 310.50 220.79 306.24 221.00 C 306.59 221.38 307.29 222.14 307.64 222.52 C 307.21 222.80 306.34 223.36 305.91 223.64 C 301.75 221.40 297.63 219.07 293.41 216.94 C 292.89 220.78 292.60 224.65 292.44 228.53 C 290.54 226.48 290.77 223.63 290.58 221.06 C 288.89 221.08 287.20 221.10 285.52 221.12 C 284.79 224.63 283.54 227.98 282.12 231.25 C 282.44 224.54 282.37 217.81 282.58 211.10 C 280.27 209.72 277.95 208.36 275.60 207.05 C 275.58 214.95 275.12 222.84 274.44 230.71 C 272.58 228.14 272.75 224.94 272.68 221.94 C 270.97 222.07 269.28 222.21 267.58 222.35 C 267.21 224.23 266.86 226.12 266.52 228.01 C 266.20 225.21 265.77 222.42 265.41 219.64 C 265.36 209.98 265.80 200.33 266.43 190.70 Z" />
</g>
<g id="#6af34cff">
<path fill="#6af34c" opacity="1.00" d=" M 235.57 192.13 C 240.30 191.83 245.03 191.89 249.76 192.17 C 249.98 194.44 250.21 196.72 250.44 199.00 C 250.79 197.69 251.14 196.39 251.49 195.08 C 251.76 201.41 252.09 207.75 251.93 214.09 C 251.86 214.70 251.73 215.93 251.66 216.55 C 249.92 214.45 249.67 211.72 249.36 209.13 C 244.28 208.89 239.19 208.87 234.13 209.42 C 233.92 205.51 233.96 201.60 234.20 197.70 C 234.62 195.83 235.10 193.98 235.57 192.13 Z" />
</g>
<g id="#141717ff">
<path fill="#141717" opacity="1.00" d=" M 415.69 212.01 C 414.96 205.53 410.55 199.62 411.96 192.90 L 412.24 193.82 C 413.10 196.58 413.99 199.33 414.77 202.12 C 416.48 207.96 417.53 213.96 418.31 219.99 C 418.19 222.32 417.91 224.63 417.64 226.95 C 417.30 221.93 416.38 216.98 415.69 212.01 Z" />
<path fill="#141717" opacity="1.00" d=" M 300.33 276.38 C 306.18 272.84 312.90 270.83 318.25 266.47 C 319.61 268.30 321.41 269.68 323.50 270.59 L 324.00 270.85 C 318.18 273.15 312.73 276.18 307.42 279.47 C 300.26 282.25 294.52 287.60 287.33 290.31 C 284.76 291.16 282.69 292.91 280.57 294.52 C 272.62 298.83 264.67 303.17 256.96 307.90 C 254.82 306.49 252.65 305.12 250.18 304.33 C 254.47 300.20 260.58 298.39 265.87 295.74 C 269.18 294.70 271.57 292.11 274.58 290.53 C 277.36 283.03 274.68 275.02 276.23 267.34 C 276.71 267.51 277.69 267.85 278.17 268.01 C 278.06 273.63 277.44 279.39 279.30 284.83 C 281.31 285.11 283.43 285.45 285.25 284.28 C 290.23 281.55 295.64 279.62 300.33 276.38 Z" />
<path fill="#141717" opacity="1.00" d=" M 254.00 266.87 C 256.05 266.92 258.09 266.95 260.14 266.91 C 260.22 269.86 260.40 272.88 259.69 275.78 C 257.95 277.57 255.51 278.32 253.19 279.01 C 253.70 274.98 254.13 270.93 254.00 266.87 Z" />
</g>
<g id="#62ee45ff">
<path fill="#62ee45" opacity="1.00" d=" M 233.12 195.49 C 233.39 196.04 233.93 197.14 234.20 197.70 C 233.96 201.60 233.92 205.51 234.13 209.42 C 239.19 208.87 244.28 208.89 249.36 209.13 C 249.67 211.72 249.92 214.45 251.66 216.55 C 251.55 220.98 251.40 225.42 251.35 229.86 C 250.58 230.88 249.83 231.90 249.07 232.92 C 248.89 230.71 248.72 228.51 248.54 226.31 C 243.95 226.19 239.35 226.10 234.76 226.30 C 234.21 227.74 233.64 229.19 232.52 230.29 C 232.29 226.99 232.81 223.55 231.56 220.39 C 233.28 212.20 231.79 203.74 233.12 195.49 Z" />
<path fill="#62ee45" opacity="1.00" d=" M 329.35 207.70 C 333.93 204.53 339.78 206.39 344.96 205.96 C 350.98 205.51 356.98 206.58 362.98 206.10 C 374.74 213.59 386.32 221.36 397.95 229.05 C 394.68 230.70 392.24 227.00 389.06 227.00 C 384.70 226.70 380.32 226.97 375.95 226.97 C 370.29 227.09 364.56 226.55 358.99 227.81 C 349.37 220.73 339.20 214.44 329.35 207.70 Z" />
</g>
<g id="#6eff80ff">
<path fill="#6eff80" opacity="1.00" d=" M 418.65 200.40 L 419.20 201.62 C 419.44 202.35 419.69 203.09 419.94 203.83 C 421.13 211.88 423.21 219.83 423.42 228.00 C 423.50 233.67 423.75 239.37 422.98 245.01 C 422.34 245.00 421.05 244.98 420.41 244.96 C 419.96 243.55 419.58 242.12 419.28 240.67 C 419.90 233.76 419.06 226.85 418.31 219.99 C 417.53 213.96 416.48 207.96 414.77 202.12 C 415.61 202.70 416.48 203.29 417.34 203.88 C 417.67 203.01 418.32 201.27 418.65 200.40 Z" />
</g>
<g id="#0fff3fff">
<path fill="#0fff3f" opacity="1.00" d=" M 419.94 203.83 C 421.45 207.38 422.04 211.19 422.61 214.98 C 423.31 220.02 425.45 224.79 425.54 229.93 C 425.69 234.77 424.94 239.63 425.68 244.45 C 425.01 253.07 422.37 261.47 419.25 269.50 C 419.41 264.24 421.29 259.30 422.14 254.16 C 422.43 251.11 422.60 248.05 422.98 245.01 C 423.75 239.37 423.50 233.67 423.42 228.00 C 423.21 219.83 421.13 211.88 419.94 203.83 Z" />
<path fill="#0fff3f" opacity="1.00" d=" M 419.28 240.67 C 419.58 242.12 419.96 243.55 420.41 244.96 C 418.68 247.94 418.96 251.53 418.37 254.82 C 417.97 258.07 417.25 261.29 416.11 264.38 C 416.56 258.34 418.29 252.47 418.36 246.39 C 418.65 244.48 419.00 242.58 419.28 240.67 Z" />
</g>
<g id="#6cffa0ff">
<path fill="#6cffa0" opacity="1.00" d=" M 166.47 242.23 C 166.37 233.69 166.05 225.01 168.28 216.67 C 167.43 229.42 166.14 242.39 168.57 255.04 C 171.05 271.46 176.93 287.27 185.28 301.59 C 195.56 317.30 208.37 331.67 224.31 341.80 C 226.36 343.07 228.43 344.32 230.51 345.53 C 241.89 351.77 254.07 356.81 266.86 359.20 C 279.65 362.19 292.91 362.12 305.95 361.39 C 316.50 360.14 327.10 358.34 337.06 354.50 C 367.10 343.33 392.63 320.39 406.56 291.48 C 407.45 292.85 408.35 294.23 409.25 295.60 C 402.77 307.22 395.19 318.37 385.83 327.87 C 374.14 339.01 360.88 348.78 345.91 355.03 C 339.50 358.02 332.62 359.80 325.88 361.86 C 309.82 366.06 293.04 366.75 276.59 364.87 C 262.40 363.28 248.64 358.88 235.73 352.86 C 220.60 344.80 206.53 334.66 195.10 321.82 C 187.64 313.04 181.36 303.35 176.15 293.09 C 173.61 284.79 169.27 277.12 167.57 268.56 C 166.94 265.50 166.02 262.51 165.03 259.54 C 164.31 254.24 163.46 248.93 163.47 243.57 C 164.22 243.24 165.72 242.57 166.47 242.23 Z" />
</g>
<g id="#55e337ff">
<path fill="#55e337" opacity="1.00" d=" M 231.47 220.21 L 231.56 220.39 C 232.81 223.55 232.29 226.99 232.52 230.29 C 233.64 229.19 234.21 227.74 234.76 226.30 C 239.35 226.10 243.95 226.19 248.54 226.31 C 248.72 228.51 248.89 230.71 249.07 232.92 C 249.83 231.90 250.58 230.88 251.35 229.86 C 251.36 233.59 251.18 237.31 250.84 241.02 C 250.22 248.46 250.85 255.94 250.30 263.38 C 248.41 266.59 248.78 270.40 248.53 273.97 C 248.30 271.64 248.10 269.32 247.92 267.00 C 243.01 266.64 238.08 266.71 233.17 267.03 C 232.18 271.00 231.83 275.08 231.34 279.13 C 230.91 272.97 231.92 266.75 230.50 260.67 C 230.47 247.37 232.18 234.09 231.38 220.79 L 231.47 220.21 Z" />
</g>
<g id="#5be83dff">
<path fill="#5be83d" opacity="1.00" d=" M 264.16 246.62 C 264.64 237.62 264.35 228.59 265.41 219.64 C 265.77 222.42 266.20 225.21 266.52 228.01 C 266.86 226.12 267.21 224.23 267.58 222.35 C 269.28 222.21 270.97 222.07 272.68 221.94 C 272.75 224.94 272.58 228.14 274.44 230.71 C 274.72 238.03 274.01 245.32 273.47 252.61 C 271.75 250.15 271.70 247.12 271.46 244.26 C 269.92 244.32 268.12 243.71 266.86 244.90 C 266.09 247.16 265.98 249.57 265.70 251.92 C 265.17 250.15 264.62 248.39 264.16 246.62 Z" />
<path fill="#5be83d" opacity="1.00" d=" M 285.52 221.12 C 287.20 221.10 288.89 221.08 290.58 221.06 C 290.77 223.63 290.54 226.48 292.44 228.53 C 292.40 231.00 292.37 233.48 292.31 235.96 C 298.39 232.67 304.56 229.55 310.61 226.20 C 309.04 225.34 307.48 224.49 305.91 223.64 C 306.34 223.36 307.21 222.80 307.64 222.52 C 307.29 222.14 306.59 221.38 306.24 221.00 C 310.50 220.79 314.81 221.89 319.02 220.87 C 322.33 222.47 325.78 224.34 326.82 228.18 C 314.88 234.57 302.84 240.78 290.83 247.02 C 289.91 251.82 291.01 256.77 290.50 261.62 C 289.64 259.54 288.88 257.42 288.26 255.27 C 286.98 255.15 285.70 255.03 284.42 254.93 C 284.02 256.27 283.63 257.62 283.24 258.97 C 282.61 256.22 281.96 253.48 281.51 250.70 C 281.64 244.22 281.35 237.70 282.12 231.25 C 283.54 227.98 284.79 224.63 285.52 221.12 Z" />
</g>
<g id="#303130ff">
<path fill="#303130" opacity="1.00" d=" M 295.99 222.07 C 298.71 223.51 301.42 224.97 304.16 226.39 C 301.56 227.86 298.81 229.03 296.06 230.18 C 295.75 227.48 295.67 224.76 295.99 222.07 Z" />
</g>
<g id="#5ae73dff">
<path fill="#5ae73d" opacity="1.00" d=" M 358.99 227.81 C 364.56 226.55 370.29 227.09 375.95 226.97 C 380.32 226.97 384.70 226.70 389.06 227.00 C 392.24 227.00 394.68 230.70 397.95 229.05 C 401.64 231.36 405.28 233.76 408.91 236.17 C 412.11 238.11 413.67 242.71 411.28 245.88 C 410.11 244.57 409.16 242.52 407.04 243.01 C 396.87 243.11 386.69 242.77 376.54 243.19 C 376.01 244.34 375.50 245.49 374.98 246.65 C 374.56 246.52 373.72 246.26 373.30 246.14 C 373.26 242.16 375.54 237.80 373.35 234.12 C 366.06 237.90 358.99 242.07 351.63 245.72 C 348.61 243.27 344.59 243.97 341.00 243.95 C 337.15 244.12 333.26 244.13 329.51 243.12 C 339.30 237.94 349.13 232.85 358.99 227.81 Z" />
</g>
<g id="#141616ff">
<path fill="#141616" opacity="1.00" d=" M 416.07 240.48 C 416.44 240.19 417.18 239.60 417.56 239.31 C 417.57 241.69 417.86 244.06 418.36 246.39 C 418.29 252.47 416.56 258.34 416.11 264.38 C 413.62 273.63 410.85 282.88 406.56 291.48 C 392.63 320.39 367.10 343.33 337.06 354.50 C 327.10 358.34 316.50 360.14 305.95 361.39 C 292.91 362.12 279.65 362.19 266.86 359.20 C 254.07 356.81 241.89 351.77 230.51 345.53 C 232.70 344.84 234.96 344.42 237.21 343.95 C 243.05 342.54 247.73 338.53 253.13 336.10 C 257.88 333.98 262.08 330.81 266.89 328.79 C 272.97 326.14 278.09 321.72 284.29 319.31 C 289.42 317.42 293.58 313.71 298.61 311.61 C 304.27 309.10 309.42 305.60 315.02 302.98 C 319.25 300.98 322.83 297.81 327.27 296.22 C 332.67 294.27 336.87 290.09 342.28 288.16 C 348.31 285.93 353.29 281.72 359.15 279.16 C 364.79 276.60 369.80 272.83 375.61 270.59 C 380.50 268.80 384.21 264.86 389.13 263.11 C 394.12 261.40 397.87 257.37 402.90 255.72 C 409.45 253.44 415.85 247.86 416.07 240.48 Z" />
</g>
<g id="#06c43bff">
<path fill="#06c43b" opacity="1.00" d=" M 160.80 242.56 C 161.46 242.41 162.79 242.12 163.45 241.98 C 163.46 242.38 163.46 243.17 163.47 243.57 C 163.46 248.93 164.31 254.24 165.03 259.54 C 165.59 266.15 167.08 272.71 169.55 278.87 L 167.99 278.75 L 167.48 278.71 C 163.75 267.02 161.13 254.86 160.80 242.56 Z" />
<path fill="#06c43b" opacity="1.00" d=" M 276.59 364.87 C 293.04 366.75 309.82 366.06 325.88 361.86 C 323.67 363.15 321.74 365.37 319.02 365.43 C 314.67 365.61 310.35 366.07 306.06 366.81 C 299.49 367.70 292.85 367.01 286.26 366.89 C 282.91 366.93 279.63 366.25 276.59 364.87 Z" />
</g>
<g id="#157d3dff">
<path fill="#157d3d" opacity="1.00" d=" M 425.68 244.45 C 425.87 243.74 426.26 242.33 426.45 241.63 C 427.78 252.82 425.05 263.95 422.55 274.78 C 420.41 279.07 420.29 284.38 416.75 287.87 C 416.78 291.91 413.98 295.04 412.50 298.60 C 409.72 304.87 405.38 310.23 401.70 315.98 C 398.56 319.12 396.27 323.04 392.66 325.70 C 389.01 329.36 385.14 332.83 381.91 336.89 C 372.52 344.79 362.36 351.93 351.20 357.18 C 336.63 363.66 320.93 368.01 305.00 369.00 C 305.27 368.45 305.80 367.36 306.06 366.81 C 310.35 366.07 314.67 365.61 319.02 365.43 C 321.74 365.37 323.67 363.15 325.88 361.86 C 332.62 359.80 339.50 358.02 345.91 355.03 C 360.88 348.78 374.14 339.01 385.83 327.87 C 395.19 318.37 402.77 307.22 409.25 295.60 C 413.51 287.30 416.92 278.54 419.25 269.50 C 422.37 261.47 425.01 253.07 425.68 244.45 Z" />
</g>
<g id="#54e136ff">
<path fill="#54e136" opacity="1.00" d=" M 306.69 255.02 C 314.24 250.95 321.88 247.03 329.51 243.12 C 333.26 244.13 337.15 244.12 341.00 243.95 C 344.59 243.97 348.61 243.27 351.63 245.72 C 344.00 249.77 336.39 253.86 328.71 257.80 C 325.34 255.16 320.90 256.09 316.95 256.04 C 313.50 256.20 310.03 255.90 306.69 255.02 Z" />
<path fill="#54e136" opacity="1.00" d=" M 376.54 243.19 C 386.69 242.77 396.87 243.11 407.04 243.01 C 409.16 242.52 410.11 244.57 411.28 245.88 C 406.20 251.54 398.68 253.88 392.30 257.72 C 390.05 256.56 387.60 255.73 385.04 255.92 C 377.99 256.11 370.94 255.88 363.90 255.98 C 360.44 255.96 357.37 257.70 354.31 259.07 C 354.38 258.46 354.51 257.23 354.57 256.62 C 360.83 253.16 367.09 249.70 373.30 246.14 C 373.72 246.26 374.56 246.52 374.98 246.65 C 375.50 245.49 376.01 244.34 376.54 243.19 Z" />
</g>
<g id="#121212ff">
<path fill="#121212" opacity="1.00" d=" M 443.51 242.98 C 444.48 245.05 445.20 247.31 444.58 249.60 C 443.33 255.32 442.77 261.14 442.53 266.99 C 444.38 267.33 446.27 267.54 448.16 267.59 C 450.87 270.26 454.21 272.14 457.97 272.83 C 458.66 272.24 459.35 271.65 460.06 271.07 C 462.41 274.66 465.68 277.48 469.38 279.63 C 471.18 280.94 474.29 282.23 473.21 285.03 C 465.09 278.72 455.55 274.63 446.19 270.55 C 444.50 269.77 442.67 269.38 440.85 269.07 C 434.71 299.47 417.92 327.50 394.92 348.17 C 406.19 357.07 418.16 366.33 432.54 369.29 C 429.08 372.10 426.53 376.16 421.78 376.84 C 416.11 381.77 411.65 388.10 405.29 392.25 C 399.39 396.36 392.70 399.09 386.34 402.37 C 377.55 406.49 369.42 411.91 360.39 415.53 C 354.80 417.88 348.96 419.53 343.17 421.30 C 340.47 421.97 337.55 423.04 334.84 421.80 C 335.99 421.55 337.15 421.37 338.33 421.24 C 338.79 420.95 339.72 420.36 340.18 420.07 C 340.63 415.70 341.60 411.37 341.48 406.95 C 341.71 400.60 340.53 394.33 340.15 388.02 C 339.60 385.52 339.34 382.98 339.14 380.45 C 316.83 387.09 293.10 389.33 270.07 385.54 C 262.16 384.39 254.43 382.38 246.74 380.25 C 245.22 392.01 243.70 403.95 245.41 415.78 C 245.31 416.38 245.12 417.56 245.02 418.16 C 241.11 418.50 237.72 416.23 234.19 414.94 C 231.14 413.80 228.50 411.86 225.59 410.46 C 222.15 409.38 218.46 411.40 215.05 409.93 C 210.78 408.44 206.54 406.70 202.70 404.28 C 201.57 403.76 201.49 402.50 201.24 401.46 C 200.32 400.75 199.39 400.06 198.46 399.38 C 198.32 399.82 198.03 400.69 197.88 401.13 C 195.91 400.34 194.36 398.99 194.07 396.80 C 192.73 396.34 191.20 396.78 189.90 396.16 C 187.62 394.37 186.17 391.79 184.54 389.44 C 184.14 389.64 183.33 390.05 182.93 390.26 C 178.70 386.07 172.88 383.68 169.50 378.63 C 169.20 378.56 168.61 378.44 168.31 378.37 C 168.10 377.97 167.67 377.15 167.45 376.75 C 163.40 375.20 160.63 371.81 158.81 367.99 C 170.74 363.48 180.90 355.57 190.95 347.92 C 180.83 337.99 171.31 327.27 164.14 314.97 C 165.47 311.80 162.87 309.19 161.57 306.56 C 162.97 305.46 164.37 304.37 165.77 303.27 C 162.17 298.53 159.96 292.97 156.87 287.92 C 156.69 288.56 156.33 289.83 156.16 290.46 C 154.64 289.20 155.36 287.71 156.33 286.35 C 155.65 286.10 154.98 285.85 154.31 285.61 C 154.23 285.00 154.06 283.79 153.98 283.18 C 154.68 283.68 155.38 284.18 156.08 284.68 C 156.30 283.10 157.17 281.36 156.08 279.92 C 153.27 275.02 152.69 269.31 150.97 264.01 C 149.20 258.49 149.38 252.63 150.32 246.98 C 150.78 247.77 151.23 248.57 151.67 249.37 C 154.11 254.93 154.74 261.01 156.20 266.84 C 157.89 273.81 159.66 280.80 162.53 287.39 C 164.68 291.89 167.44 296.10 169.14 300.82 C 172.47 309.51 178.65 316.59 183.79 324.20 C 189.42 328.16 193.83 333.46 198.73 338.25 C 201.55 341.09 203.56 344.83 207.18 346.82 C 212.35 349.86 216.78 353.98 222.00 356.96 C 225.67 359.19 229.82 360.43 233.67 362.32 C 236.52 363.71 239.00 365.75 241.89 367.09 C 273.96 378.84 309.94 379.19 342.33 368.42 C 346.49 366.59 350.40 364.20 354.73 362.75 C 364.92 359.08 372.89 351.51 382.06 346.04 C 386.04 343.04 388.60 338.61 392.27 335.27 C 397.64 329.25 405.32 325.71 410.00 319.02 C 414.46 312.60 418.47 305.84 421.60 298.67 C 424.88 290.85 430.39 283.81 430.89 275.05 C 431.95 275.23 433.00 275.41 434.07 275.59 C 433.50 274.72 432.95 273.86 432.40 273.00 C 433.03 273.07 434.30 273.20 434.94 273.26 C 435.26 274.94 435.60 276.63 435.98 278.30 C 437.08 275.77 437.45 273.01 436.91 270.30 C 437.85 269.20 439.43 268.42 439.71 266.91 C 440.80 258.90 442.61 251.02 443.51 242.98 Z" />
</g>
<g id="#50df32ff">
<path fill="#50df32" opacity="1.00" d=" M 266.86 244.90 C 268.12 243.71 269.92 244.32 271.46 244.26 C 271.70 247.12 271.75 250.15 273.47 252.61 C 273.55 264.47 271.99 276.26 272.27 288.12 C 272.31 281.18 271.54 274.27 270.38 267.43 C 268.76 267.34 267.14 267.25 265.53 267.17 C 265.25 269.48 264.96 271.80 264.60 274.11 C 264.05 272.98 263.52 271.84 263.02 270.69 C 263.70 262.68 263.16 254.60 264.16 246.62 C 264.62 248.39 265.17 250.15 265.70 251.92 C 265.98 249.57 266.09 247.16 266.86 244.90 Z" />
</g>
<g id="#83ffcaff">
<path fill="#83ffca" opacity="1.00" d=" M 418.37 254.82 C 418.96 251.53 418.68 247.94 420.41 244.96 C 421.05 244.98 422.34 245.00 422.98 245.01 C 422.60 248.05 422.43 251.11 422.14 254.16 C 420.88 254.38 419.63 254.60 418.37 254.82 Z" />
</g>
<g id="#4ddb2eff">
<path fill="#4ddb2e" opacity="1.00" d=" M 281.07 278.01 C 281.51 268.91 281.25 259.80 281.51 250.70 C 281.96 253.48 282.61 256.22 283.24 258.97 C 283.63 257.62 284.02 256.27 284.42 254.93 C 285.70 255.03 286.98 255.15 288.26 255.27 C 288.88 257.42 289.64 259.54 290.50 261.62 C 290.54 261.98 290.60 262.71 290.63 263.08 C 296.13 260.69 301.29 257.61 306.69 255.02 C 310.03 255.90 313.50 256.20 316.95 256.04 C 320.90 256.09 325.34 255.16 328.71 257.80 C 313.01 266.19 297.22 274.40 281.50 282.74 C 281.23 281.18 280.98 279.60 281.07 278.01 Z" />
</g>
<g id="#151717ff">
<path fill="#151717" opacity="1.00" d=" M 168.70 252.20 C 185.84 256.06 202.94 260.12 220.10 263.92 C 222.65 264.47 225.14 265.27 227.64 266.05 C 225.73 274.27 227.30 282.73 226.23 291.02 C 225.73 296.34 226.32 301.70 225.78 307.02 C 225.33 311.34 225.04 315.67 225.20 320.02 C 225.51 327.31 223.68 334.51 224.31 341.80 C 208.37 331.67 195.56 317.30 185.28 301.59 C 176.93 287.27 171.05 271.46 168.57 255.04 C 168.60 254.33 168.66 252.91 168.70 252.20 Z" />
</g>
<g id="#74ffb0ff">
<path fill="#74ffb0" opacity="1.00" d=" M 418.37 254.82 C 419.63 254.60 420.88 254.38 422.14 254.16 C 421.29 259.30 419.41 264.24 419.25 269.50 C 416.92 278.54 413.51 287.30 409.25 295.60 C 408.35 294.23 407.45 292.85 406.56 291.48 C 410.85 282.88 413.62 273.63 416.11 264.38 C 417.25 261.29 417.97 258.07 418.37 254.82 Z" />
</g>
<g id="#4dda2eff">
<path fill="#4dda2e" opacity="1.00" d=" M 354.31 259.07 C 357.37 257.70 360.44 255.96 363.90 255.98 C 370.94 255.88 377.99 256.11 385.04 255.92 C 387.60 255.73 390.05 256.56 392.30 257.72 C 380.53 264.28 368.53 270.41 356.67 276.82 C 356.15 275.92 355.64 275.02 355.12 274.12 C 347.75 273.90 340.37 273.94 333.00 274.08 C 330.74 274.30 328.83 272.99 326.97 271.94 C 336.15 266.79 345.35 261.68 354.57 256.62 C 354.51 257.23 354.38 258.46 354.31 259.07 Z" />
</g>
<g id="#49d529ff">
<path fill="#49d529" opacity="1.00" d=" M 229.56 282.78 C 229.74 275.40 230.34 268.05 230.50 260.67 C 231.92 266.75 230.91 272.97 231.34 279.13 C 231.83 275.08 232.18 271.00 233.17 267.03 C 238.08 266.71 243.01 266.64 247.92 267.00 C 248.10 269.32 248.30 271.64 248.53 273.97 C 248.78 270.40 248.41 266.59 250.30 263.38 C 250.70 270.57 250.09 277.75 249.51 284.91 C 243.73 285.13 237.96 284.83 232.19 285.10 C 232.03 287.00 231.87 288.90 231.70 290.81 C 231.18 289.77 230.67 288.73 230.19 287.69 C 229.97 286.05 229.73 284.41 229.56 282.78 Z" />
</g>
<g id="#43d023ff">
<path fill="#43d023" opacity="1.00" d=" M 265.53 267.17 C 267.14 267.25 268.76 267.34 270.38 267.43 C 271.54 274.27 272.31 281.18 272.27 288.12 C 262.91 293.81 252.82 298.12 243.24 303.41 C 239.62 305.47 235.34 304.90 231.36 305.16 C 231.06 307.46 230.76 309.76 230.44 312.06 C 229.66 303.96 229.76 295.81 230.19 287.69 C 230.67 288.73 231.18 289.77 231.70 290.81 C 231.87 288.90 232.03 287.00 232.19 285.10 C 237.96 284.83 243.73 285.13 249.51 284.91 C 254.13 283.13 258.18 280.17 262.51 277.80 C 262.64 275.42 262.82 273.05 263.02 270.69 C 263.52 271.84 264.05 272.98 264.60 274.11 C 264.96 271.80 265.25 269.48 265.53 267.17 Z" />
</g>
<g id="#ece6e4ff">
<path fill="#ece6e4" opacity="1.00" d=" M 111.55 286.14 C 121.42 277.89 133.23 272.25 145.27 267.99 C 145.79 270.36 146.30 272.75 146.98 275.09 C 150.77 289.11 156.46 302.63 164.14 314.97 C 171.31 327.27 180.83 337.99 190.95 347.92 C 180.90 355.57 170.74 363.48 158.81 367.99 C 158.34 368.05 157.42 368.18 156.95 368.24 C 134.87 345.73 118.84 317.33 110.54 286.93 C 110.79 286.73 111.30 286.34 111.55 286.14 Z" />
</g>
<g id="#ece5e4ff">
<path fill="#ece5e4" opacity="1.00" d=" M 440.85 269.07 C 442.67 269.38 444.50 269.77 446.19 270.55 C 455.55 274.63 465.09 278.72 473.21 285.03 C 475.01 286.65 476.76 288.34 478.59 289.94 C 470.19 319.69 453.84 346.98 432.54 369.29 C 418.16 366.33 406.19 357.07 394.92 348.17 C 417.92 327.50 434.71 299.47 440.85 269.07 Z" />
</g>
<g id="#46d327ff">
<path fill="#46d327" opacity="1.00" d=" M 299.92 286.98 C 308.89 281.87 317.92 276.89 326.97 271.94 C 328.83 272.99 330.74 274.30 333.00 274.08 C 340.37 273.94 347.75 273.90 355.12 274.12 C 355.64 275.02 356.15 275.92 356.67 276.82 C 346.92 282.14 337.07 287.28 327.29 292.54 C 325.32 291.59 323.25 290.76 321.02 290.91 C 313.75 290.96 306.48 291.07 299.21 290.89 C 300.07 289.66 300.93 288.44 301.79 287.22 C 301.32 287.16 300.39 287.04 299.92 286.98 Z" />
</g>
<g id="#128e42ff">
<path fill="#128e42" opacity="1.00" d=" M 167.99 278.75 L 169.55 278.87 C 172.18 283.42 172.95 288.84 176.15 293.09 C 181.36 303.35 187.64 313.04 195.10 321.82 C 195.09 322.44 195.07 323.69 195.06 324.32 C 192.51 323.67 191.35 321.12 189.73 319.32 C 185.64 314.56 182.74 308.98 179.25 303.80 C 176.06 298.75 173.23 293.44 171.05 287.87 C 169.86 284.89 168.19 282.02 167.99 278.75 Z" />
</g>
<g id="#3ac418ff">
<path fill="#3ac418" opacity="1.00" d=" M 228.42 315.04 C 228.37 304.27 229.45 293.54 229.56 282.78 C 229.73 284.41 229.97 286.05 230.19 287.69 C 229.76 295.81 229.66 303.96 230.44 312.06 C 230.76 309.76 231.06 307.46 231.36 305.16 C 235.34 304.90 239.62 305.47 243.24 303.41 C 247.57 306.27 252.09 308.96 256.91 310.89 C 265.11 306.69 272.93 301.75 281.08 297.43 C 279.27 300.07 277.16 302.49 274.97 304.82 C 282.21 305.35 289.47 304.90 296.72 305.08 C 295.71 306.58 294.53 308.10 294.65 310.03 C 276.10 320.04 257.52 330.00 238.88 339.85 C 235.28 341.27 229.04 341.68 227.71 337.06 C 227.12 329.71 228.41 322.39 228.42 315.04 Z" />
</g>
<g id="#40cc20ff">
<path fill="#40cc20" opacity="1.00" d=" M 281.08 297.43 C 287.38 293.98 293.51 290.21 299.92 286.98 C 300.39 287.04 301.32 287.16 301.79 287.22 C 300.93 288.44 300.07 289.66 299.21 290.89 C 306.48 291.07 313.75 290.96 321.02 290.91 C 323.25 290.76 325.32 291.59 327.29 292.54 C 316.46 298.47 305.54 304.21 294.65 310.03 C 294.53 308.10 295.71 306.58 296.72 305.08 C 289.47 304.90 282.21 305.35 274.97 304.82 C 277.16 302.49 279.27 300.07 281.08 297.43 Z" />
</g>
<g id="#0a8540ff">
<path fill="#0a8540" opacity="1.00" d=" M 195.10 321.82 C 206.53 334.66 220.60 344.80 235.73 352.86 C 233.38 352.80 231.02 352.77 228.72 352.31 C 220.87 348.13 213.69 342.80 206.87 337.15 C 203.44 332.55 198.94 328.94 195.05 324.76 L 195.06 324.32 C 195.07 323.69 195.09 322.44 195.10 321.82 Z" />
</g>
<g id="#0b6f3dff">
<path fill="#0b6f3d" opacity="1.00" d=" M 228.72 352.31 C 231.02 352.77 233.38 352.80 235.73 352.86 C 248.64 358.88 262.40 363.28 276.59 364.87 C 279.63 366.25 282.91 366.93 286.26 366.89 C 286.11 367.43 285.82 368.52 285.68 369.06 C 275.31 368.71 265.09 366.23 255.05 363.77 C 246.01 360.65 236.83 357.47 228.72 352.31 Z" />
</g>
<g id="#169d4fff">
<path fill="#169d4f" opacity="1.00" d=" M 286.26 366.89 C 292.85 367.01 299.49 367.70 306.06 366.81 C 305.80 367.36 305.27 368.45 305.00 369.00 C 298.59 369.72 292.07 370.11 285.68 369.06 C 285.82 368.52 286.11 367.43 286.26 366.89 Z" />
</g>
<g id="#161616ff">
<path fill="#161616" opacity="1.00" d=" M 155.47 370.67 C 157.89 371.89 159.81 373.86 161.09 376.24 C 158.36 375.50 156.39 373.27 155.47 370.67 Z" />
</g>
<g id="#ece6e5ff">
<path fill="#ece6e5" opacity="1.00" d=" M 245.41 415.78 C 243.70 403.95 245.22 392.01 246.74 380.25 C 254.43 382.38 262.16 384.39 270.07 385.54 C 293.10 389.33 316.83 387.09 339.14 380.45 C 339.34 382.98 339.60 385.52 340.15 388.02 C 340.53 394.33 341.71 400.60 341.48 406.95 C 341.60 411.37 340.63 415.70 340.18 420.07 C 339.72 420.36 338.79 420.95 338.33 421.24 C 337.15 421.37 335.99 421.55 334.84 421.80 L 334.09 422.38 C 332.72 422.50 331.34 422.60 329.97 422.74 C 328.15 423.87 325.96 423.52 323.93 423.73 C 321.50 425.10 318.61 424.46 315.96 424.78 C 314.08 425.58 312.03 425.68 310.02 425.73 C 298.67 425.87 287.32 425.90 275.97 425.70 C 274.28 425.65 272.60 425.38 271.01 424.82 C 268.34 424.48 265.48 425.01 263.00 423.77 C 257.43 423.19 251.81 422.18 246.50 420.39 C 245.95 418.90 245.61 417.34 245.41 415.78 Z" />
</g>
<g id="#ffffffff">
<path fill="#ffffff" opacity="1.00" d=" M 238.66 457.76 C 247.45 455.82 257.06 456.65 264.97 461.14 C 274.40 466.38 280.77 476.38 282.15 487.01 C 282.74 488.42 281.50 490.02 279.99 489.72 C 274.13 489.59 268.19 490.09 262.39 489.45 C 260.59 486.55 260.55 482.62 258.26 479.87 C 253.40 472.33 240.40 472.08 235.86 480.07 C 233.65 482.85 233.85 486.90 231.70 489.59 C 226.11 489.91 220.49 489.68 214.89 489.71 C 213.51 489.93 212.11 488.42 212.76 487.04 C 214.11 473.10 224.76 460.48 238.66 457.76 Z" />
<path fill="#ffffff" opacity="1.00" d=" M 83.40 474.67 C 83.49 469.56 82.48 464.06 83.97 459.18 C 87.55 458.93 91.22 458.73 94.77 459.26 C 103.40 467.80 111.84 476.57 120.38 485.21 C 120.61 499.53 120.35 513.87 120.51 528.20 C 117.55 529.62 114.18 528.80 111.03 529.00 C 107.53 528.75 103.80 529.69 100.49 528.22 C 100.56 510.72 100.57 493.22 100.48 475.72 C 95.11 475.65 89.72 475.93 84.36 475.60 C 84.12 475.37 83.64 474.91 83.40 474.67 Z" />
<path fill="#ffffff" opacity="1.00" d=" M 100.26 462.60 C 98.95 461.73 99.32 460.21 99.67 458.96 C 112.19 459.01 124.70 459.06 137.21 458.94 C 138.69 462.43 137.75 466.32 138.02 470.00 C 137.81 471.82 138.59 474.16 137.07 475.58 C 131.74 475.95 126.38 475.63 121.05 475.73 C 121.13 477.64 121.48 482.13 118.27 480.76 C 112.09 474.89 106.39 468.52 100.26 462.60 Z" />
<path fill="#ffffff" opacity="1.00" d=" M 143.49 459.96 C 144.85 459.14 146.40 458.85 147.98 458.98 C 155.64 459.09 163.30 458.84 170.95 459.10 C 171.24 459.34 171.81 459.81 172.10 460.05 C 172.44 464.44 172.28 468.86 172.21 473.27 C 170.96 476.60 166.29 474.36 163.60 475.00 C 163.60 479.66 163.60 484.33 163.60 489.00 C 166.49 489.06 169.54 488.57 172.25 489.84 C 172.28 494.59 172.26 499.35 172.26 504.11 C 169.64 505.53 166.58 504.87 163.73 505.00 C 163.73 511.68 163.73 518.36 163.75 525.05 C 163.67 526.19 163.94 528.63 162.06 528.38 C 155.96 528.52 149.84 528.60 143.74 528.27 C 143.23 505.51 143.73 482.73 143.49 459.96 Z" />
<path fill="#ffffff" opacity="1.00" d=" M 174.88 460.03 C 175.81 458.59 177.59 459.00 179.03 459.00 C 185.98 459.50 193.33 461.34 198.35 466.48 C 204.24 472.63 204.86 482.14 202.61 489.99 C 201.01 495.61 195.82 498.85 191.08 501.63 C 196.04 510.10 200.80 518.68 205.65 527.22 C 205.02 528.71 203.60 529.28 202.05 529.01 C 196.34 528.93 190.62 529.13 184.92 528.92 C 183.46 528.06 182.92 526.27 182.01 524.93 C 179.70 520.58 177.03 516.42 174.86 512.00 C 174.64 504.63 174.61 497.22 174.92 489.85 C 177.92 488.94 181.87 488.76 183.25 485.41 C 184.02 482.67 184.05 479.25 182.07 476.99 C 180.39 475.30 177.91 475.13 175.68 474.92 C 175.46 474.49 175.02 473.62 174.80 473.18 C 174.69 468.80 174.60 464.40 174.88 460.03 Z" />
<path fill="#ffffff" opacity="1.00" d=" M 289.51 462.93 C 289.68 461.56 288.97 458.99 291.04 458.83 C 296.37 458.60 301.72 458.76 307.06 458.75 C 308.58 458.46 309.10 460.24 309.81 461.20 C 311.98 465.14 314.50 468.89 316.55 472.91 C 316.67 474.42 315.19 475.25 314.37 476.30 C 306.84 483.85 299.48 491.56 291.88 499.03 C 290.50 498.56 289.11 497.79 289.55 496.04 C 289.49 485.00 289.58 473.96 289.51 462.93 Z" />
<path fill="#ffffff" opacity="1.00" d=" M 329.08 459.18 C 335.07 458.38 341.14 458.77 347.16 458.81 C 347.47 459.13 348.08 459.79 348.39 460.12 C 348.56 482.09 348.41 504.07 348.46 526.05 C 348.90 528.12 346.85 529.45 345.00 529.01 C 339.90 528.65 334.46 529.75 329.58 528.41 C 322.07 517.17 315.87 505.07 308.50 493.72 C 308.36 502.49 308.97 511.25 308.72 520.03 C 308.48 522.92 309.54 526.03 308.21 528.76 C 302.78 528.66 297.36 528.80 291.93 528.72 C 290.27 529.00 289.18 527.58 289.54 526.01 C 289.65 519.05 289.25 512.05 289.75 505.12 C 295.95 498.20 303.01 492.10 309.20 485.17 C 311.91 482.52 314.46 479.69 317.31 477.19 C 317.72 477.15 318.54 477.08 318.95 477.04 C 322.90 482.84 325.86 489.24 329.55 495.20 C 329.41 483.19 329.04 471.18 329.08 459.18 Z" />
<path fill="#ffffff" opacity="1.00" d=" M 355.16 462.00 C 355.34 460.85 355.55 459.71 355.78 458.57 C 360.51 458.52 365.24 458.52 369.97 458.52 C 371.72 458.04 372.95 459.20 373.14 460.90 C 367.13 461.02 361.12 461.22 355.16 462.00 Z" />
<path fill="#ffffff" opacity="1.00" d=" M 480.75 464.87 C 486.05 462.89 491.74 462.27 497.20 460.84 C 498.59 465.75 497.55 470.96 497.87 476.00 C 500.87 476.05 504.03 475.55 506.83 476.92 C 506.40 480.81 507.89 485.33 506.02 488.83 C 499.37 489.24 492.68 488.87 486.02 489.00 C 482.11 488.91 477.92 489.49 474.29 487.71 C 474.00 484.12 474.03 480.50 474.28 476.92 C 476.04 475.39 478.65 476.19 480.78 475.92 C 480.70 472.23 480.73 468.55 480.75 464.87 Z" />
<path fill="#ffffff" opacity="1.00" d=" M 373.00 477.61 C 376.53 476.35 380.01 474.23 383.99 474.50 C 392.39 473.87 400.39 479.08 403.97 486.55 C 399.99 482.91 396.03 478.68 390.50 477.58 C 384.36 476.62 378.35 478.90 372.72 481.09 C 372.43 479.93 372.15 478.77 371.87 477.62 L 373.00 477.61 Z" />
<path fill="#ffffff" opacity="1.00" d=" M 439.32 475.89 C 442.00 473.86 445.77 475.65 448.80 475.94 C 459.83 478.27 466.48 489.40 467.20 500.05 C 467.07 502.26 468.48 505.56 466.09 506.91 C 462.38 507.14 458.66 506.81 454.97 507.30 C 458.54 508.91 462.11 510.59 465.49 512.60 C 465.75 513.26 466.28 514.58 466.54 515.24 C 462.20 521.25 456.75 527.24 449.16 528.79 C 445.90 529.29 442.36 530.47 439.17 529.18 C 439.11 524.73 439.12 520.29 439.16 515.84 C 442.05 515.49 445.19 515.49 447.69 513.78 C 450.17 512.15 451.67 509.52 453.21 507.07 C 450.74 506.99 448.28 506.98 445.82 507.05 C 443.73 503.71 445.02 499.43 444.82 495.69 C 444.87 493.83 447.71 494.99 448.76 494.31 C 447.15 490.92 443.49 489.13 439.83 489.41 C 438.83 485.02 439.11 480.36 439.32 475.89 Z" />
<path fill="#ffffff" opacity="1.00" d=" M 420.63 483.63 C 424.42 479.17 430.08 475.12 436.16 475.65 C 437.19 480.12 436.36 484.93 436.54 489.54 C 435.31 490.92 434.18 492.39 433.18 493.95 C 436.05 494.40 439.62 493.05 442.05 495.04 C 442.17 498.99 443.08 503.36 441.27 507.04 C 438.50 506.98 435.74 506.98 432.97 507.04 C 433.71 509.58 434.98 511.87 436.42 514.08 C 436.83 518.02 436.51 522.01 436.61 525.98 C 436.77 527.40 436.40 528.78 435.24 529.72 C 426.03 528.20 418.10 521.22 415.75 512.15 C 413.42 502.60 414.19 491.48 420.63 483.63 Z" />
<path fill="#ffffff" opacity="1.00" d=" M 212.32 494.05 C 212.29 492.07 214.58 492.30 215.94 492.25 C 221.12 492.38 226.32 492.03 231.49 492.44 C 232.70 493.68 232.36 495.49 232.57 497.07 C 233.02 502.45 235.58 507.74 239.86 511.09 C 244.86 514.54 252.21 513.94 256.61 509.74 C 260.29 506.20 262.15 501.03 262.25 495.97 C 262.42 494.75 261.97 493.15 263.27 492.41 C 269.05 492.06 274.85 492.36 280.64 492.27 C 281.11 492.73 282.04 493.65 282.50 494.10 C 282.74 503.72 279.40 513.54 272.64 520.48 C 266.17 527.51 256.50 531.13 247.02 530.76 C 238.12 530.92 229.03 527.69 222.80 521.21 C 215.57 514.21 212.30 503.95 212.32 494.05 Z" />
<path fill="#ffffff" opacity="1.00" d=" M 481.05 491.67 C 486.47 491.39 491.91 491.61 497.35 491.51 C 499.86 498.79 495.34 506.89 498.90 513.97 C 501.27 514.34 504.44 513.07 506.27 514.97 C 506.43 518.98 506.56 523.09 505.80 527.05 C 505.27 529.12 502.79 529.43 501.00 529.47 C 495.95 529.36 490.30 530.30 485.94 527.11 C 481.72 523.81 480.83 517.98 480.86 512.95 C 480.96 505.85 480.66 498.75 481.05 491.67 Z" />
<path fill="#ffffff" opacity="1.00" d=" M 371.91 503.68 C 373.33 506.54 372.98 510.15 375.27 512.62 C 377.82 516.14 383.58 516.93 386.64 513.65 C 389.37 510.84 388.62 506.50 390.59 503.33 C 392.47 507.60 391.30 512.84 388.33 516.33 C 384.80 520.34 377.63 519.89 374.62 515.48 C 372.06 512.13 371.53 507.76 371.91 503.68 Z" />
</g>
<g id="#46e94cff">
<path fill="#46e94c" opacity="1.00" d=" M 355.16 462.00 C 361.12 461.22 367.13 461.02 373.14 460.90 C 372.85 466.46 373.06 472.04 373.00 477.61 L 371.87 477.62 C 372.15 478.77 372.43 479.93 372.72 481.09 C 378.35 478.90 384.36 476.62 390.50 477.58 C 396.03 478.68 399.99 482.91 403.97 486.55 C 406.42 490.51 407.46 495.38 407.21 500.02 C 406.91 500.22 406.31 500.61 406.01 500.81 C 401.02 501.19 395.97 501.02 390.97 500.93 C 390.65 500.74 390.02 500.37 389.70 500.18 C 388.86 496.90 389.02 493.08 386.47 490.51 C 383.47 487.01 377.39 488.24 375.14 491.97 C 373.47 494.49 373.35 497.59 372.41 500.39 C 369.14 501.66 365.44 500.73 362.00 501.02 C 359.83 500.77 356.95 501.78 355.42 499.73 C 354.97 487.17 355.52 474.57 355.16 462.00 Z" />
<path fill="#46e94c" opacity="1.00" d=" M 356.45 503.60 C 361.59 503.32 366.76 503.62 371.91 503.48 L 371.91 503.68 C 371.53 507.76 372.06 512.13 374.62 515.48 C 377.63 519.89 384.80 520.34 388.33 516.33 C 391.30 512.84 392.47 507.60 390.59 503.33 C 395.58 503.68 400.58 503.41 405.58 503.49 C 406.13 504.24 406.69 505.00 407.26 505.77 C 406.44 513.44 403.40 521.40 397.07 526.17 C 390.14 531.29 380.39 531.02 373.04 526.92 C 372.60 527.33 371.72 528.13 371.28 528.54 C 366.09 528.42 360.90 528.43 355.71 528.52 C 354.86 524.41 355.40 520.20 355.27 516.05 C 355.39 512.14 354.95 508.20 355.51 504.32 C 355.74 504.14 356.21 503.78 356.45 503.60 Z" />
</g>
</svg>
