<?xml version="1.0" encoding="utf-8"?>
<!-- Generator: Adobe Illustrator 21.0.0, SVG Export Plug-In . SVG Version: 6.00 Build 0)  -->
<svg version="1.1" id="TrustDice" xmlns="http://www.w3.org/2000/svg" xmlns:xlink="http://www.w3.org/1999/xlink" x="0px" y="0px"
	 viewBox="0 0 374.1 270.5" style="enable-background:new 0 0 374.1 270.5;" xml:space="preserve">
<style type="text/css">
	.st0{fill:#ECB241;}
	.st1{fill:#341F3B;}
</style>
<g>
	<g>
		<path class="st0" d="M355.9,136l-62.5-63.2c-2.9-3-7.7-3-10.7,0L220.2,136c-2.9,3-2.9,7.8,0,10.8l62.5,63.2c2.9,3,7.7,3,10.7,0
			l62.5-63.2C358.9,143.8,358.9,138.9,355.9,136z M265.4,140.4c-3.2,3.2-8.3,3.2-11.5,0s-3.2-8.4,0-11.7c3.2-3.2,8.4-3.2,11.5,0
			C268.6,132,268.6,137.2,265.4,140.4z M283.1,158.4c-3.2,3.2-8.3,3.2-11.5,0s-3.2-8.4,0-11.7c3.2-3.2,8.4-3.2,11.5,0
			C286.3,149.9,286.3,155.1,283.1,158.4z M275.3,118.8c-3.2-3.2-3.2-8.4,0-11.7c3.2-3.2,8.3-3.2,11.5,0s3.2,8.4,0,11.7
			S278.5,122,275.3,118.8z M300.8,176.3c-3.2,3.2-8.3,3.2-11.5,0s-3.2-8.4,0-11.7c3.2-3.2,8.4-3.2,11.5,0
			C304,167.8,304,173,300.8,176.3z M304.5,136.7c-3.2,3.2-8.3,3.2-11.5,0c-3.2-3.2-3.2-8.4,0-11.7s8.3-3.2,11.5,0
			S307.7,133.5,304.5,136.7z M322.2,154.6c-3.2,3.2-8.3,3.2-11.5,0s-3.2-8.4,0-11.7c3.2-3.2,8.3-3.2,11.5,0
			C325.4,146.2,325.4,151.4,322.2,154.6z"/>
		<path class="st0" d="M17.5,146.8L80,210c2.9,3,7.7,3,10.7,0l62.5-63.2c2.9-3,2.9-7.8,0-10.8L90.7,72.8c-2.9-3-7.7-3-10.7,0
			L17.5,136C14.6,138.9,14.6,143.8,17.5,146.8z M108.1,128.8c3.2-3.2,8.3-3.2,11.5,0s3.2,8.4,0,11.7c-3.2,3.2-8.4,3.2-11.5,0
			C104.9,137.2,104.9,132,108.1,128.8z M90.4,146.7c3.2-3.2,8.3-3.2,11.5,0s3.2,8.4,0,11.7c-3.2,3.2-8.4,3.2-11.5,0
			C87.2,155.1,87.2,149.9,90.4,146.7z M86.7,118.8c-3.2-3.2-3.2-8.4,0-11.7c3.2-3.2,8.3-3.2,11.5,0s3.2,8.4,0,11.7
			S89.8,122,86.7,118.8z M72.6,164.6c3.2-3.2,8.3-3.2,11.5,0s3.2,8.4,0,11.7c-3.2,3.2-8.4,3.2-11.5,0
			C69.4,173,69.4,167.8,72.6,164.6z M68.9,125.1c3.2-3.2,8.3-3.2,11.5,0s3.2,8.4,0,11.7c-3.2,3.2-8.3,3.2-11.5,0
			C65.7,133.5,65.7,128.3,68.9,125.1z M51.2,143c3.2-3.2,8.3-3.2,11.5,0s3.2,8.4,0,11.7c-3.2,3.2-8.3,3.2-11.5,0
			C48,151.4,48,146.2,51.2,143z"/>
	</g>
	<path class="st1" d="M369.6,31c-5.1-3.7-12.1-2.5-15.7,2.6l0.1-0.2l0,0l-0.1,0.1l-0.3,0.2c-0.2,0.2-0.4,0.4-0.6,0.6
		c-0.5,0.4-1,0.8-1.5,1.2c-1,0.8-2.2,1.4-3.4,2c-2.4,1.1-4.9,1.9-7.5,2.2c-0.6,0.1-1.3,0.1-2,0.2c-0.3,0-0.7,0.1-1,0h-1h-1h-0.1l0,0
		h-0.1c-0.1,0-0.1,0-0.2,0s-0.3-0.1-0.5-0.1c-0.2-0.1-0.4-0.1-0.7-0.2l-0.8-0.3l-0.9-0.4l-0.5-0.2l-0.5-0.2l-1-0.4
		c-0.7-0.3-1.4-0.7-2.2-1c-0.8-0.4-1.5-0.7-2.3-1.2c-3.1-1.7-6.3-3.6-9.6-5.6l-10.1-6.2c-6.9-4.2-14.1-8.5-21.9-12.4
		c-3.9-1.9-8-3.8-12.3-5.4s-8.8-3.1-13.7-4.1c-2.4-0.5-4.9-1-7.5-1.3c-0.6-0.1-1.3-0.2-1.9-0.2l-2-0.1l-2-0.1h-1.7h-3.5
		c-1.2,0-2.3,0-3.5,0l-3.5,0.2c-1.2,0.1-2.3,0.1-3.5,0.2c-9.3,0.8-18.5,2.7-27.4,5.6L200,7l-1.7,0.6c-0.2,0.1-0.3,0.1-0.5,0.2
		c-1.4-4.3-5.4-7.6-10.2-7.8c-5.1-0.2-9.6,3.1-11.1,7.8c-0.2-0.1-0.3-0.1-0.5-0.2L174.3,7l-1.7-0.5c-8.9-2.9-18.1-4.7-27.4-5.6
		c-1.2-0.1-2.3-0.2-3.5-0.2l-3.5-0.2c-1.2-0.1-2.3,0-3.5,0h-3.5h-1.7l-2,0.1l-2,0.1c-0.7,0.1-1.3,0.1-1.9,0.2
		c-2.6,0.3-5,0.8-7.5,1.3c-4.8,1.1-9.4,2.5-13.7,4.1S94,9.8,90.1,11.7c-7.8,3.9-15,8.2-21.9,12.4l-10.1,6.2c-3.3,2-6.5,3.9-9.6,5.6
		c-0.8,0.4-1.5,0.8-2.3,1.2c-0.7,0.4-1.5,0.7-2.2,1l-1,0.4l-0.5,0.2L42,38.9l-0.9,0.4l-0.8,0.3c-0.3,0.1-0.5,0.1-0.7,0.2
		c-0.2,0.1-0.5,0.1-0.5,0.1c-0.1,0-0.1,0-0.2,0h-0.1l0,0h-0.1h-1h-1c-0.3,0-0.7,0-1,0c-0.7,0-1.4,0-2-0.2c-2.6-0.3-5.2-1-7.5-2.2
		c-1.2-0.6-2.3-1.2-3.4-2c-0.5-0.4-1-0.8-1.5-1.2c-0.3-0.2-0.4-0.4-0.6-0.6l-0.3-0.2l-0.1-0.1l0,0l0.1,0.2
		C16.8,28.5,9.8,27.3,4.7,31s-6.2,10.8-2.6,15.9l0.5,0.7L3,48.1L3.7,49c0.5,0.5,0.9,1.1,1.4,1.6c0.9,1,1.9,2,2.9,2.9
		c2,1.8,4.1,3.4,6.3,4.8c4.5,2.8,9.5,4.9,14.6,6.1c1.3,0.4,2.6,0.5,3.9,0.7c0.6,0.1,1.3,0.2,1.9,0.3l1.9,0.2l1.9,0.1h0.3h0.3h0.6H41
		c0.9,0,1.6-0.1,2.4-0.2c0.8-0.1,1.6-0.2,2.2-0.3c5.7-1.1,10-2.8,14.2-4.4c4.1-1.7,7.9-3.5,11.6-5.3l10.8-5.3
		c7-3.4,13.9-6.6,20.6-9.1c6.7-2.5,13.2-4.4,19.2-5c1.5-0.2,2.9-0.3,4.3-0.3c0.3,0,0.7,0,1,0h1h1l1.2,0.1l2.5,0.2
		c0.8,0.1,1.6,0.1,2.4,0.3l2.4,0.4c0.8,0.1,1.6,0.2,2.4,0.4c6.4,1.2,12.7,3.2,18.7,5.8l1.1,0.5l1.1,0.5l2.2,1.1
		c1.4,0.8,2.9,1.5,4.2,2.3c0.7,0.4,1.4,0.8,2,1.2c0.7,0.4,1.3,0.8,1.9,1.3c0.6,0.4,1.2,0.8,1.7,1.2c0.2,0.2,0.4,0.3,0.6,0.5
		l-7.6,184.9h-46.2c-9.3,0-16.9,7.6-16.9,17c0,9.4,7.6,17,16.9,17h132.3c9.3,0,16.9-7.6,16.9-17c0-9.4-7.6-17-16.9-17h-45.1
		l-7.6-184.9c0.2-0.2,0.4-0.3,0.6-0.5c0.6-0.4,1.1-0.8,1.7-1.2s1.3-0.9,1.9-1.3c0.7-0.4,1.3-0.8,2-1.2c1.4-0.8,2.8-1.6,4.2-2.3
		l2.2-1.1l1.1-0.5l1.1-0.5c6-2.6,12.3-4.6,18.7-5.8c0.8-0.2,1.6-0.3,2.4-0.4l2.4-0.4c0.8-0.2,1.6-0.2,2.4-0.3l2.5-0.2l1.2-0.1h1h1
		c0.3,0,0.7,0,1,0c1.4,0,2.8,0.1,4.3,0.3c6,0.6,12.5,2.5,19.2,5s13.5,5.7,20.6,9.1l10.8,5.3c3.7,1.8,7.5,3.6,11.6,5.3
		s8.5,3.4,14.2,4.4c0.7,0.1,1.5,0.2,2.2,0.3c0.8,0.1,1.5,0.2,2.4,0.2h1.3h0.6h0.3h0.3l1.9-0.1l1.9-0.2c0.6-0.1,1.3-0.2,1.9-0.3
		c1.3-0.2,2.6-0.4,3.9-0.7c5.1-1.2,10.1-3.3,14.6-6.1c2.2-1.4,4.4-3,6.3-4.8c1-0.9,2-1.8,2.9-2.9c0.5-0.5,0.9-1.1,1.4-1.6l0.7-0.9
		l0.4-0.5l0.5-0.7C375.8,41.7,374.6,34.6,369.6,31z"/>
</g>
</svg>
