<?xml version="1.0" encoding="UTF-8" standalone="no"?>
<!-- Created with Inkscape (http://www.inkscape.org/) -->

<svg
   xmlns:dc="http://purl.org/dc/elements/1.1/"
   xmlns:cc="http://creativecommons.org/ns#"
   xmlns:rdf="http://www.w3.org/1999/02/22-rdf-syntax-ns#"
   xmlns:svg="http://www.w3.org/2000/svg"
   xmlns="http://www.w3.org/2000/svg"
   xmlns:sodipodi="http://sodipodi.sourceforge.net/DTD/sodipodi-0.dtd"
   xmlns:inkscape="http://www.inkscape.org/namespaces/inkscape"
   id="svg13661"
   version="1.1"
   inkscape:version="0.48.1 "
   width="180"
   height="133.75"
   xml:space="preserve"
   sodipodi:docname="Ant_Hill_1.pdf"><metadata
     id="metadata13667"><rdf:RDF><cc:Work
         rdf:about=""><dc:format>image/svg+xml</dc:format><dc:type
           rdf:resource="http://purl.org/dc/dcmitype/StillImage" /><dc:title></dc:title></cc:Work></rdf:RDF></metadata><defs
     id="defs13665" /><sodipodi:namedview
     pagecolor="#ffffff"
     bordercolor="#666666"
     borderopacity="1"
     objecttolerance="10"
     gridtolerance="10"
     guidetolerance="10"
     inkscape:pageopacity="0"
     inkscape:pageshadow="2"
     inkscape:window-width="640"
     inkscape:window-height="480"
     id="namedview13663"
     showgrid="false"
     inkscape:zoom="2.1757009"
     inkscape:cx="90"
     inkscape:cy="66.875"
     inkscape:window-x="0"
     inkscape:window-y="0"
     inkscape:window-maximized="0"
     inkscape:current-layer="g13669" /><g
     id="g13669"
     inkscape:groupmode="layer"
     inkscape:label="Ant_Hill_1"
     transform="matrix(1.25,0,0,-1.25,0,133.75)"><g
       id="g13671"
       transform="scale(0.24,0.24)"><path
         d="m 55.5117,184.406 c 0,0 -31.2773,214.875 -31.1992,211.504 0,-3.375 64.6992,-110.238 64.6992,-110.238 l 5.5977,144.043 34.6486,-119.281 c 0,0 35.722,123.726 40.246,123.726 4.523,0 44.691,-111.383 44.691,-111.383 l 20.164,113.684 c 0,0 31.2,-87.699 35.723,-86.625 4.523,1.074 62.629,93.371 62.629,93.371 0,0 46.992,-115.91 51.441,-115.91 4.446,0 62.551,97.894 62.551,97.894 l 11.195,-112.535 89.383,103.492 -25.679,-209.207 -26.832,20.239 -42.469,-2.297 -317.446,-12.344 -49.1402,-5.598 -20.1601,-4.519 2.2226,-24.688 -12.2656,6.672"
         style="fill:#54a7aa;fill-opacity:1;fill-rule:nonzero;stroke:none"
         id="path13673" /><path
         d="m 128.34,205.41 c -3.758,-6.437 -34.7267,-3.832 -42.4689,-5.137 -7.7461,-1.3 -10.2734,3.832 -8.9727,-11.652 C 78.125,173.059 60.0352,165.242 52.3711,154.969 44.625,144.465 32.8984,152.207 36.8828,136.723 40.7188,121.086 23.9297,76.9297 24.0039,66.6563 23.9297,56.2305 2.00391,50.9414 61.4141,43.2773 120.672,35.457 130.945,26.4102 151.566,27.7148 c 20.7,1.2266 28.364,15.5625 56.727,14.2579 28.441,-1.3789 69.684,-32.58207 90.305,-35.10942 20.699,-2.60547 41.32,6.51562 46.457,14.33592 5.211,7.7422 -7.668,42.8516 25.832,31.1992 33.504,-11.8046 43.926,-15.7929 61.941,-7.8945 18.016,7.8164 -20.695,37.5625 41.242,20.7734 61.942,-16.8671 92.914,-23.3828 92.914,-7.7421 0,15.5625 -10.273,28.5156 5.211,39.0195 15.41,10.2733 24.532,46.6093 11.575,59.6403 -12.954,12.957 -41.317,40.168 -56.805,36.336 -15.485,-3.91 -15.485,40.168 -38.711,28.516 C 465.102,209.32 128.34,205.41 128.34,205.41"
         style="fill:#fffccc;fill-opacity:1;fill-rule:nonzero;stroke:none"
         id="path13675" /><path
         d="m 96.1406,124.918 c 3.8321,0 72.2894,72.672 72.2894,72.672 0,0 34.804,31.277 37.336,36.414 2.527,5.215 25.984,33.73 30.968,36.262 4.985,2.527 8.817,34.418 21.621,39.402 12.801,4.984 11.266,21.234 18.934,21.234 7.664,0 13.875,-3.605 18.781,-6.058 4.907,-2.453 -2.992,11.73 15.102,11.73 18.09,0 28.824,-16.863 39.094,-32.504 10.273,-15.636 30.972,-31.125 41.32,-38.941 10.348,-7.82 31.047,-23.383 41.32,-36.336 10.274,-13.035 48.91,-23.383 51.516,-31.203 2.605,-7.742 -30.973,-2.606 15.484,-23.379 46.457,-20.777 46.457,-23.383 46.457,-23.383 l -6.441,-18.09 -79.957,2.606 -363.8244,-10.426"
         style="fill:#fbca8e;fill-opacity:1;fill-rule:nonzero;stroke:none"
         id="path13677" /><path
         d="m 199.402,252.555 c 1.301,-0.766 4.063,-3.067 6.133,-2.836 1.074,0.613 -6.976,9.199 -1.992,5.902 0.766,-0.383 2.836,-3.219 4.98,-3.219 0,1.762 -2.914,4.141 -5.593,5.672 10.347,3.375 4.906,7.742 7.742,11.192 1.683,1.918 13.566,11.5 1.457,5.136 0,-0.996 -3.453,-4.136 -4.906,-4.906 0,0.387 -2.301,3.145 -3.68,3.297 1.379,6.824 0.766,17.25 -1.227,6.746 -0.539,-2.527 -0.769,-6.363 -2.839,-8.816 0,0.382 -0.688,3.144 -1.301,3.144 -3.832,-3.679 -6.285,-8.894 -4.063,-14.797 0,-0.23 -0.843,-0.996 -4.449,-1.3 -4.367,-0.309 -15.023,-7.59 -15.023,-9.508 -0.305,-5.442 -3.602,-3.297 -14.871,-3.219 -9.965,-1.305 -22.997,-10.578 -8.665,-16.711 7.973,-3.449 13.418,-2.453 21.004,1.148 2.071,-0.996 3.528,-7.359 6.289,-7.359 0,1.457 -5.519,10.195 -0.691,9.199 2.836,-0.765 5.672,-5.367 8.434,-5.367 0,5.981 -8.434,5.676 -3.45,11.961 2.145,3.141 0,2.836 4.981,5.211 2.07,-2.527 0,-6.437 4.219,-8.43 0,2.375 -2.84,9.43 0.687,10.118 2.07,-1.075 4.219,-6.977 5.981,-6.977 0,2.379 -1.075,6.594 -4.602,8.355 4.832,-0.152 5.445,2.914 5.445,6.364"
         style="fill:#231f20;fill-opacity:1;fill-rule:nonzero;stroke:none"
         id="path13679" /><path
         d="m 166.207,229.328 c -1.379,-0.691 -4.906,-1.379 -7.051,-1.074 -1.379,-0.305 -1.992,-0.305 -3.449,0 0.766,0.691 2.07,1.687 2.758,2.453 0,-0.305 1.457,-0.996 2.148,-1.379 0.688,0.613 1.379,1.688 2.836,2.375 2.914,-2.836 6.977,2.61 9.199,5.215 1.993,-2.531 -2.914,-6.059 -6.441,-7.59"
         style="fill:#ffffff;fill-opacity:1;fill-rule:nonzero;stroke:none"
         id="path13681" /><path
         d="m 155.016,232.855 c 0,-1.382 -0.766,-2.453 -2.071,-3.91 -7.05,3.68 -8.507,9.121 1.457,7.36 1.379,-1.379 0.692,-2.149 0.614,-3.45"
         style="fill:#ffffff;fill-opacity:1;fill-rule:nonzero;stroke:none"
         id="path13683" /><path
         d="m 181.691,247.035 c 2.149,0.383 1.383,-0.305 3.528,-0.305 0,0.305 0.613,0.688 0.613,0.997 0.766,0 1.535,-0.844 2.148,-0.844 0,1.074 2.836,1.762 4.215,1.074 -7.664,-3.68 -10.504,-4.676 -10.504,-0.922"
         style="fill:#ffffff;fill-opacity:1;fill-rule:nonzero;stroke:none"
         id="path13685" /><path
         d="m 482.582,104.449 c -0.691,-1.379 -1.457,-10.5779 -3.297,-11.7263 -1.305,-0.2305 -0.922,16.9413 -1.918,11.5743 0,0 -0.996,-10.8868 -2.605,-12.1876 -1.149,1.3008 0.23,11.4956 1.535,14.4106 -10.199,-3.832 -12.266,8.203 -13.188,3.832 -0.078,-0.536 -11.039,-2.145 -4.371,2.992 0.844,-0.614 5.293,-0.922 7.055,-0.383 -0.23,0.074 -0.309,3.754 0.766,4.445 -3.528,0.614 -9.582,9.121 -3.371,6.055 1.914,-1.531 4.597,-4.367 7.816,-4.981 -0.305,0.227 -1.609,2.911 -1.149,3.293 5.368,-0.382 10.426,-2.835 12.649,-8.738 0.23,-0.305 1.148,-0.461 4.219,1.61 3.601,2.609 16.554,3.527 17.629,2.148 3.679,-3.988 4.984,-0.309 13.57,6.898 8.586,5.211 24.531,6.364 17.324,-7.511 -4.141,-7.59 -8.816,-10.426 -17.094,-12.418 -1.074,-1.918 1.84,-7.8987 -0.23,-9.5862 -0.844,1 -2.223,11.3472 -5.289,7.4372 -1.61,-2.3747 -0.996,-7.6638 -3.223,-9.5817 -3.68,4.6757 2.992,9.8127 -4.828,11.5737 -3.68,1.153 -1.84,2.149 -7.207,0.922 0,-3.144 4.141,-4.984 2.223,-9.1247 -1.61,1.8399 -3.907,9.0467 -6.973,7.3597 -0.844,-2.223 1.301,-7.9729 -0.309,-9.1995 -1.378,1.918 -3.296,5.75 -1.687,9.3555 -3.602,-3.1446 -5.977,-1.152 -8.047,1.531"
         style="fill:#231f20;fill-opacity:1;fill-rule:nonzero;stroke:none"
         id="path13687" /><path
         d="m 522.902,107.285 c 1.457,0.383 4.524,2.149 5.981,3.758 1.305,0.535 1.84,0.996 2.762,2.223 -0.922,0 -2.61,-0.153 -3.68,0 0.23,-0.231 -0.461,-1.688 -0.844,-2.375 -0.996,0 -2.223,0.382 -3.68,0.074 -0.382,-4.215 -7.054,-2.297 -10.425,-1.684 0,-3.222 6.054,-2.992 9.886,-1.996"
         style="fill:#ffffff;fill-opacity:1;fill-rule:nonzero;stroke:none"
         id="path13689" /><path
         d="m 529.191,117.176 c 0.918,-1.153 2.223,-1.457 4.137,-1.61 3.223,7.051 0.922,12.418 -5.75,4.676 -0.152,-1.992 0.77,-2.07 1.613,-3.066"
         style="fill:#ffffff;fill-opacity:1;fill-rule:nonzero;stroke:none"
         id="path13691" /><path
         d="m 499.523,111.348 c -1.765,-1.071 -0.765,-1.149 -2.378,-2.528 -0.227,0.305 -0.997,0.153 -1.227,0.383 -0.457,-0.461 -0.688,-1.457 -1.227,-1.918 -0.613,0.844 -3.218,-0.383 -3.832,-1.914 8.282,2.07 11.192,2.988 8.664,5.977"
         style="fill:#ffffff;fill-opacity:1;fill-rule:nonzero;stroke:none"
         id="path13693" /><path
         d="m 140.066,96.0938 c 0.383,-1.0743 0.922,-7.9727 2.454,-8.7383 1.152,-0.0782 1.074,12.6485 1.839,8.5859 0,0 0.539,-7.9726 1.996,-9.125 0.918,1 -0.156,8.7422 -1.074,10.8125 8.43,-3.1445 10.27,5.9021 10.961,2.6051 0.231,-0.3082 9.199,-1.6871 3.758,2.301 -0.691,-0.539 -4.449,-0.691 -5.902,-0.387 0.23,0.157 0.23,2.84 -0.692,3.454 3.067,0.382 8.051,6.668 2.914,4.445 -1.609,-1.152 -3.91,-3.145 -6.515,-3.68 0.152,0.231 1.379,2.145 0.84,2.453 -4.368,-0.078 -8.586,-1.992 -10.426,-6.363 -0.074,-0.23 -0.996,-0.23 -3.524,1.227 -2.992,1.992 -13.722,2.914 -14.644,1.839 -3.141,-2.914 -4.137,-0.152 -11.344,5.29 -6.977,3.91 -20.1601,4.984 -14.4101,-5.52 3.3711,-5.6719 7.1291,-7.7422 13.9491,-9.2774 0.922,-1.5312 -1.531,-5.8242 0.152,-7.1289 0.77,0.7696 1.918,8.4336 4.524,5.3672 1.305,-1.7617 0.769,-5.6719 2.531,-7.0508 3.219,3.5235 -2.223,7.2813 4.063,8.5078 3.066,0.8438 1.687,1.6875 5.98,0.6914 0,-2.3789 -3.375,-3.6796 -1.766,-6.8242 1.461,1.3047 3.223,6.7461 5.829,5.3672 0.687,-1.6094 -0.996,-5.9023 0.152,-6.8242 1.227,1.3828 2.836,4.293 1.457,6.8984 3.066,-2.375 4.984,-0.8437 6.898,1.0743"
         style="fill:#231f20;fill-opacity:1;fill-rule:nonzero;stroke:none"
         id="path13695" /><path
         d="m 106.492,98.6992 c -1.226,0.3086 -3.836,1.5348 -4.984,2.7618 -1.149,0.457 -1.5353,0.766 -2.301,1.687 0.844,0 2.301,-0.078 3.145,0 -0.309,-0.156 0.304,-1.23 0.613,-1.765 0.765,0 1.84,0.308 2.988,0 0.383,-3.0666 6.059,-1.7619 8.664,-1.379 -0.078,-2.3751 -4.984,-1.9923 -8.125,-1.3048"
         style="fill:#ffffff;fill-opacity:1;fill-rule:nonzero;stroke:none"
         id="path13697" /><path
         d="m 101.277,106.059 c -0.687,-0.766 -1.8395,-1.071 -3.3707,-1.227 -2.7618,5.445 -0.8438,9.277 4.7497,3.527 0.078,-1.457 -0.687,-1.531 -1.379,-2.3"
         style="fill:#ffffff;fill-opacity:1;fill-rule:nonzero;stroke:none"
         id="path13699" /><path
         d="m 125.887,101.461 c 1.531,-0.844 0.687,-0.922 1.992,-1.918 0.23,0.2304 0.922,0.1523 1.148,0.3086 0.383,-0.3828 0.461,-1.1524 0.922,-1.4571 0.461,0.5352 2.606,-0.4609 2.989,-1.457 -6.747,1.5313 -9.122,2.375 -7.051,4.5235"
         style="fill:#ffffff;fill-opacity:1;fill-rule:nonzero;stroke:none"
         id="path13701" /><path
         d="m 225.234,250.18 c 7.821,7.742 19.012,19.777 19.012,28.593 0,2.758 3.449,13.875 11.195,13.797 0,6.137 12.34,19.856 17.782,25.453 5.754,5.903 3.527,9.2 12.422,4.829 -0.079,-3.602 16.402,-5.211 17.628,0.996 -1.226,2.222 5.676,17.25 13.262,11.422 3.375,0.078 17.711,-20.543 17.633,-22.766 0,-4.445 9.891,-8.816 9.812,-12.113 4.446,-0.153 25.375,-16.328 29.747,-19.086 6.668,-3.989 6.589,-12.266 9.886,-17.25 1.153,-2.301 13.262,-5.672 13.262,-7.895 2.223,0 7.82,-2.84 7.742,-3.91 2.223,0 14.262,-13.109 14.262,-14.797 4.445,1.152 12.648,-20.621 17.476,-25.527 -2.144,-2.758 5.598,-5.52 5.52,-7.742 7.742,-0.153 12.035,-10.118 16.559,-12.266 12.113,-6.285 22.156,-9.582 27.519,-17.477 2.223,-2.683 14.414,-8.355 14.262,-11.039 2.223,-0.078 12.109,-12.879 17.629,-14.566 5.519,-1.688 8.816,-2.914 13.261,-5.059 -2.222,-0.539 -7.82,0 -9.964,0.536 -2.836,-0.536 -7.36,-2.758 -9.965,-1.458 -1.153,0 -52.051,-0.23 -37.641,-4.828 13.11,-4.218 26.524,2.914 41.012,-0.765 5.75,1.379 10.273,-1.614 14.336,0.457 5.519,-1.149 15.488,4.293 13.262,8.129 -0.997,1.683 -7.586,4.519 -7.586,6.207 -6.442,0.078 -26.602,9.351 -26.528,16.711 -2.605,4.449 -40.398,30.589 -45.074,31.89 -1.918,0.539 -12.113,8.356 -12.191,10.043 -4.446,0.153 -14.102,18.399 -14.258,20.621 -1.61,17.555 -46.301,30.743 -48.293,47.145 -0.461,3.223 -7.82,7.668 -7.668,10.504 -6.594,0.078 -24.375,13.414 -24.223,16.789 -12.191,0.074 -16.558,13.797 -18.707,17.859 -4.828,8.281 -26.445,25.914 -25.297,17.785 -9.047,-4.289 -7.894,-10.422 -16.789,-14.793 -4.367,2.301 -5.441,6.207 -11.113,8.969 -12.113,-2.605 -19.09,-19.164 -24.457,-24.762 -13.949,-14.105 -21.691,-37.101 -35.57,-46.609 -17.325,-11.269 -23.84,-33.805 -38.559,-42.469 -3.297,-2.144 -9.352,-0.461 -14.258,-14.64 -0.152,-9.969 -18.859,-23.688 -25.679,-32.965 -1.149,-1.688 -7.821,-16.098 -10.122,-16.098 0,-1.074 -13.261,-7.59 -15.484,-7.59 -0.078,-11.117 -25.5273,-13.875 -12.187,-27.75 6.589,7.051 9.886,10.348 9.886,17.785 0,0.688 17.785,12.036 21.16,12.036 1.688,8.89 20.696,23.535 25.602,32.578 5.293,9.812 13.492,18.707 22.309,27.445 1.152,1.609 13.418,13.188 16.789,13.262 -0.078,7.207 21.386,18.015 21.386,24.379"
         style="fill:#a4835b;fill-opacity:1;fill-rule:nonzero;stroke:none"
         id="path13703" /><path
         d="m 200.551,195.063 c -1.914,13.796 -13.184,3.449 -4.215,-5.829 1.074,1.688 4.215,4.371 4.215,5.829"
         style="fill:#f89b5c;fill-opacity:1;fill-rule:nonzero;stroke:none"
         id="path13705" /><path
         d="m 226.234,215.836 c -7.515,-3.832 -8.664,-9.891 -4.218,-14.641 11.804,3.602 10.347,8.739 4.218,14.641"
         style="fill:#f89b5c;fill-opacity:1;fill-rule:nonzero;stroke:none"
         id="path13707" /><path
         d="m 258.199,205.105 c 0,1.61 -1.074,3.293 -5.519,3.293 0,-3.293 -1.149,-8.199 -1.149,-11.496 l 2.223,-0.539 c 3.297,1.61 4.445,5.981 4.445,8.742"
         style="fill:#f89b5c;fill-opacity:1;fill-rule:nonzero;stroke:none"
         id="path13709" /><path
         d="m 259.578,232.086 c -7.742,-1.531 -3.371,-9.273 -3.371,-11.957 3.602,3.449 11.039,8.125 3.371,11.957"
         style="fill:#f89b5c;fill-opacity:1;fill-rule:nonzero;stroke:none"
         id="path13711" /><path
         d="m 241.027,248.875 c 0,-2.223 -6.054,-8.891 -1.226,-11.422 4.676,0.844 6.285,5.059 6.441,8.281 0,0.918 -4.293,3.141 -5.215,3.141"
         style="fill:#f89b5c;fill-opacity:1;fill-rule:nonzero;stroke:none"
         id="path13713" /><path
         d="m 269.699,256.543 c -6.594,7.203 -6.668,-6.059 -6.668,-8.738 l 2.223,-0.614 c 0,3.293 4.445,6.055 4.445,9.352"
         style="fill:#f89b5c;fill-opacity:1;fill-rule:nonzero;stroke:none"
         id="path13715" /><path
         d="m 275.293,282.988 c 0,1.075 -1.992,2.223 -1.992,3.297 -12.34,-7.051 -7.207,-3.68 -2.223,-12.418 0,2.145 4.215,6.055 4.215,9.121"
         style="fill:#f89b5c;fill-opacity:1;fill-rule:nonzero;stroke:none"
         id="path13717" /><path
         d="m 293.004,276.855 c 0,0.54 -2.149,1.688 -2.149,2.223 -9.964,-2.144 -5.671,-14.332 -2.296,-9.887 1.148,2.145 6.589,5.442 4.445,7.664"
         style="fill:#f89b5c;fill-opacity:1;fill-rule:nonzero;stroke:none"
         id="path13719" /><path
         d="m 290.703,264.207 -1.992,-0.535 c -11.731,-11.5 -1.918,-16.254 1.992,0.535"
         style="fill:#f89b5c;fill-opacity:1;fill-rule:nonzero;stroke:none"
         id="path13721" /><path
         d="m 300.898,296.176 c 1.075,1.07 2.223,7.664 -2.144,7.742 0,-4.445 -6.672,-7.129 -2.223,-12.113 1.071,0.539 4.367,3.297 4.367,4.371"
         style="fill:#f89b5c;fill-opacity:1;fill-rule:nonzero;stroke:none"
         id="path13723" /><path
         d="m 403.086,197.973 c -7.668,7.746 -11.039,-0.457 -11.117,-4.907 4.449,0 11.117,1.614 11.117,4.907"
         style="fill:#f89b5c;fill-opacity:1;fill-rule:nonzero;stroke:none"
         id="path13725" /><path
         d="m 429.84,194.523 c -6.668,0.079 -8.969,-5.824 -4.524,-8.125 1.149,0.536 5.52,3.297 6.594,3.297 0,2.223 -2.07,3.985 -2.07,4.828"
         style="fill:#f89b5c;fill-opacity:1;fill-rule:nonzero;stroke:none"
         id="path13727" /><path
         d="m 414.199,176.355 c 0,-0.996 -3.449,-14.257 4.293,-6.054 5.446,5.367 -0.304,6.054 -4.293,6.054"
         style="fill:#f89b5c;fill-opacity:1;fill-rule:nonzero;stroke:none"
         id="path13729" /><path
         d="m 175.254,125.07 c 0,1.996 0.078,3.68 -14.871,4.907 -13.188,-1.914 -20.774,-2.223 -37.641,-2.145 0,-1.687 -9.429,-3.91 -3.758,-5.98 9.356,1.457 43.161,2.144 50.672,0.996 1.84,0.535 5.598,1.687 5.598,2.222"
         style="fill:#a4835b;fill-opacity:1;fill-rule:nonzero;stroke:none"
         id="path13731" /><path
         d="m 352.262,128.063 c 4.445,0.917 31.504,5.671 18.855,7.664 -6.976,1.226 -12.109,-2.532 -16.328,-2.223 -0.844,-4.371 -28.516,1.305 -32.887,1.226 -11.652,-0.535 -15.101,-2.683 -29.359,-1.839 -31.969,1.918 -101.652,-6.668 -22.77,-5.289 21.465,-1.305 43.774,1.687 60.793,-0.079 5.594,1.075 14.106,-0.918 21.696,0.54"
         style="fill:#a4835b;fill-opacity:1;fill-rule:nonzero;stroke:none"
         id="path13733" /><path
         d="m 390.898,115.41 c 0,4.68 -12.496,-1.222 -13.265,-2.066 -6.516,-6.594 14.031,-4.449 13.265,2.066"
         style="fill:#785f42;fill-opacity:1;fill-rule:nonzero;stroke:none"
         id="path13735" /><path
         d="m 463.723,159.414 c -0.692,9.352 -11.27,3.219 -8.817,-4.828 4.446,-0.078 8.817,2.684 8.817,4.828"
         style="fill:#f89b5c;fill-opacity:1;fill-rule:nonzero;stroke:none"
         id="path13737" /><path
         d="m 479.207,159.414 c 0.078,8.816 -8.816,1.688 -8.816,-3.758 3.297,0 8.816,1 8.816,3.758"
         style="fill:#f89b5c;fill-opacity:1;fill-rule:nonzero;stroke:none"
         id="path13739" /><path
         d="m 498.066,159.262 c 0,1.609 -5.367,1.148 -6.515,1.148 -7.285,-19.547 4.676,-7.203 6.515,-1.148"
         style="fill:#f89b5c;fill-opacity:1;fill-rule:nonzero;stroke:none"
         id="path13741" /><path
         d="m 441.566,152.363 c -13.105,6.746 -14.179,2.836 -28.593,2.989 -6.668,0 -9.965,-3.145 -13.336,-3.145 0,-2.68 -12.266,-13.644 -15.563,-15.867 -1.84,-1.531 -6.746,-6.899 -6.746,-9.352 -0.078,-0.535 3.297,-2.836 3.297,-3.449 6.285,0 37.945,1.149 42.086,-0.766 0,0.536 18.629,2.067 20.852,2.606 3.296,1.148 7.82,4.367 8.89,6.055 0,-0.614 2.223,-2.223 2.149,-3.371 6.668,0 1.226,12.722 0.152,15.023 -1.149,1.074 -8.816,6.668 -8.816,7.207 -2.223,0 -4.372,1.687 -4.372,2.07"
         style="fill:#785f42;fill-opacity:1;fill-rule:nonzero;stroke:none"
         id="path13743" /><path
         d="m 448.086,139.637 c 0,-0.844 2.144,-3.68 3.297,-4.828 -1.153,-0.539 -3.297,-1.614 -4.219,-1.536 -0.152,-5.824 -51.359,-5.136 -53.125,-1.839 -2.223,-0.536 -4.367,0 -6.668,1.074 4.445,4.445 8.969,14.18 18.934,16.25 19.777,-4.063 22.922,0.844 41.781,-9.121"
         style="fill:#fbca8e;fill-opacity:1;fill-rule:nonzero;stroke:none"
         id="path13745" /><path
         d="m 284.492,98.3164 c -6.133,3.9886 -6.668,1.6876 -13.414,1.7656 -3.219,0 -4.75,-1.8398 -6.285,-1.8398 0,-1.6875 -5.828,-8.1289 -7.359,-9.5078 -0.922,-0.8438 -3.219,-3.9844 -3.219,-5.5196 0,-0.2304 1.609,-1.6093 1.609,-1.9921 2.91,-0.0782 17.86,0.7656 19.852,-0.461 0,0.3086 8.742,1.3047 9.812,1.6094 1.535,0.6133 3.606,2.6055 4.141,3.5273 0,-0.3086 1.074,-1.2265 0.996,-1.9179 3.223,-0.0742 0.613,7.5156 0.078,8.8945 -0.461,0.6133 -4.14,3.9102 -4.14,4.2148 -0.918,0 -2.071,0.9961 -2.071,1.2266"
         style="fill:#785f42;fill-opacity:1;fill-rule:nonzero;stroke:none"
         id="path13747" /><path
         d="m 287.559,90.8047 c 0,-0.5352 1.074,-2.1484 1.535,-2.8359 -0.461,-0.3086 -1.535,-0.9219 -1.918,-0.9219 -0.074,-3.4492 -24.223,-3.1406 -25.145,-1.2266 -0.918,-0.3047 -2.07,0 -3.066,0.6914 2.148,2.6055 4.293,8.3555 8.969,9.6602 9.277,-2.4531 10.812,0.457 19.625,-5.3672"
         style="fill:#fbca8e;fill-opacity:1;fill-rule:nonzero;stroke:none"
         id="path13749" /><path
         d="m 397.566,110.504 c 4.215,2.992 4.446,1.23 8.969,1.23 2.149,-0.078 3.145,-1.457 4.215,-1.457 0,-1.304 3.758,-6.289 4.832,-7.285 0.535,-0.765 2.07,-3.1404 2.07,-4.2928 0,-0.2304 -1.074,-1.2226 -1.074,-1.457 -1.992,0 -11.883,0.6914 -13.187,-0.1524 0,0.2305 -5.825,0.9961 -6.59,1.2266 -0.996,0.6133 -2.379,2.0706 -2.684,2.7616 0,-0.156 -0.769,-0.922 -0.769,-1.4569 -2.067,0.0742 -0.305,5.7499 0,6.7459 0.386,0.613 2.84,3.067 2.84,3.219 0.687,-0.078 1.378,0.766 1.378,0.918"
         style="fill:#785f42;fill-opacity:1;fill-rule:nonzero;stroke:none"
         id="path13751" /><path
         d="m 395.418,104.832 c 0,-0.383 -0.688,-1.609 -0.996,-2.144 0.308,-0.231 0.996,-0.77 1.305,-0.77 0.078,-2.6055 16.097,-2.6055 16.711,-1.148 0.691,-0.153 1.378,0 2.07,0.539 -1.379,1.992 -2.762,6.437 -5.903,7.433 -6.21,-1.762 -7.207,0.383 -13.187,-3.91"
         style="fill:#fbca8e;fill-opacity:1;fill-rule:nonzero;stroke:none"
         id="path13753" /><path
         d="m 187.137,128.445 c 13.183,6.821 14.258,2.758 28.672,2.684 6.668,-0.078 9.886,-3.297 13.261,-3.297 0,-2.914 12.11,-14.488 15.332,-16.789 1.84,-1.609 6.668,-7.203 6.668,-9.813 0,-0.535 -3.375,-2.7612 -3.375,-3.4487 -6.285,0 -37.945,1.6875 -42.086,-0.3047 0,0.6093 -18.625,2.5274 -20.773,3.1404 -3.371,1.074 -7.82,4.598 -8.891,6.285 0,-0.535 -2.148,-2.222 -2.148,-3.449 -6.746,0.078 -0.996,13.262 0.078,15.563 1.07,1.148 8.891,6.824 8.891,7.359 2.222,0 4.371,1.688 4.371,2.07"
         style="fill:#785f42;fill-opacity:1;fill-rule:nonzero;stroke:none"
         id="path13755" /><path
         d="m 180.465,115.41 c 0,-0.918 -2.223,-3.754 -3.371,-4.98 1.148,-0.535 3.297,-1.688 4.215,-1.688 0.078,-5.98 51.211,-6.054 53.125,-2.683 2.222,-0.536 4.371,0 6.593,1.074 -4.371,4.676 -8.738,14.797 -18.703,17.094 -19.781,-3.911 -22.847,1.152 -41.859,-8.817"
         style="fill:#fbca8e;fill-opacity:1;fill-rule:nonzero;stroke:none"
         id="path13757" /></g></g></svg>