<?xml version="1.0" encoding="UTF-8" standalone="no"?>
<!DOCTYPE svg PUBLIC "-//W3C//DTD SVG 1.1//EN" "http://www.w3.org/Graphics/SVG/1.1/DTD/svg11.dtd">
<svg width="100%" height="100%" viewBox="0 0 800 800" version="1.1" xmlns="http://www.w3.org/2000/svg" xmlns:xlink="http://www.w3.org/1999/xlink" xml:space="preserve" xmlns:serif="http://www.serif.com/" style="fill-rule:evenodd;clip-rule:evenodd;stroke-linejoin:round;stroke-miterlimit:1.41421;">
    <g transform="matrix(0.973645,0,0,0.973645,57.4445,43.0614)">
        <g transform="matrix(4.74853,0,0,4.74853,5,-2359.53)">
            <path d="M72.786,658L0,616.27L0.251,532.372L73.291,490.201L146.078,531.932L145.823,615.83L72.786,658Z" style="fill:rgb(222,35,42);"/>
        </g>
        <g transform="matrix(4.74853,0,0,4.74853,5,-2359.53)">
            <path d="M74.141,574.759L99.233,560.267L74.141,545.786L74.141,516.841L48.97,531.328L48.97,560.308L23.908,574.759L48.97,589.246L48.97,618.225L74.098,632.715L99.217,618.225L74.141,603.737L74.141,574.759Z" style="fill:white;"/>
        </g>
    </g>
</svg>
