<?xml version="1.0" encoding="UTF-8" standalone="no"?>
<!-- Created with Inkscape (http://www.inkscape.org/) -->

<svg
   xmlns:dc="http://purl.org/dc/elements/1.1/"
   xmlns:cc="http://creativecommons.org/ns#"
   xmlns:rdf="http://www.w3.org/1999/02/22-rdf-syntax-ns#"
   xmlns:svg="http://www.w3.org/2000/svg"
   xmlns="http://www.w3.org/2000/svg"
   xmlns:xlink="http://www.w3.org/1999/xlink"
   xmlns:sodipodi="http://sodipodi.sourceforge.net/DTD/sodipodi-0.dtd"
   xmlns:inkscape="http://www.inkscape.org/namespaces/inkscape"
   width="64mm"
   height="64mm"
   viewBox="0 0 64 64"
   version="1.1"
   id="svg8"
   inkscape:version="0.92.4 (33fec40, 2019-01-16)"
   sodipodi:docname="vapaee.io.svg">
  <defs
     id="defs2">
    <linearGradient
       inkscape:collect="always"
       id="linearGradient996">
      <stop
         style="stop-color:#2e362e;stop-opacity:1"
         offset="0"
         id="stop992" />
      <stop
         style="stop-color:#202523;stop-opacity:1"
         offset="1"
         id="stop994" />
    </linearGradient>
    <linearGradient
       inkscape:collect="always"
       xlink:href="#linearGradient996"
       id="linearGradient998"
       x1="32.339611"
       y1="296.93869"
       x2="32.32856"
       y2="232.92766"
       gradientUnits="userSpaceOnUse" />
  </defs>
  <sodipodi:namedview
     id="base"
     pagecolor="#ffffff"
     bordercolor="#666666"
     borderopacity="1.0"
     inkscape:pageopacity="0.0"
     inkscape:pageshadow="2"
     inkscape:zoom="1"
     inkscape:cx="94.155291"
     inkscape:cy="156.10913"
     inkscape:document-units="mm"
     inkscape:current-layer="layer1"
     showgrid="false"
     inkscape:window-width="1853"
     inkscape:window-height="1025"
     inkscape:window-x="67"
     inkscape:window-y="27"
     inkscape:window-maximized="1" />
  <metadata
     id="metadata5">
    <rdf:RDF>
      <cc:Work
         rdf:about="">
        <dc:format>image/svg+xml</dc:format>
        <dc:type
           rdf:resource="http://purl.org/dc/dcmitype/StillImage" />
        <dc:title></dc:title>
      </cc:Work>
    </rdf:RDF>
  </metadata>
  <g
     inkscape:label="Capa 1"
     inkscape:groupmode="layer"
     id="layer1"
     transform="translate(0,-233)">
    <circle
       id="path164"
       cx="32"
       cy="265"
       style="stroke-width:0.42379108;fill-opacity:1;fill:url(#linearGradient998)"
       r="32" />
    <path
       inkscape:connector-curvature="0"
       id="path166"
       d="m 28.67166,277.89595 c -0.229391,-0.0995 -0.436932,-0.2008 -0.461201,-0.22505 -0.02427,-0.0242 0.07552,-0.27867 0.221763,-0.56533 0.238192,-0.46689 0.259152,-0.64735 0.201208,-1.73225 -0.03558,-0.66609 -0.186589,-1.73586 -0.335581,-2.37725 l -0.270899,-1.16618 -0.554186,-0.0831 c -0.521763,-0.0783 -1.221443,-0.35717 -1.221443,-0.48694 0,-0.0324 0.298833,-0.19096 0.664075,-0.35249 0.365242,-0.16152 0.664076,-0.3115 0.664076,-0.33326 0,-0.17563 -0.858996,-2.20023 -1.353478,-3.19006 l -0.612317,-1.22571 -2.005442,0.0164 c -2.182089,0.0178 -2.595941,-0.0739 -2.52592,-0.56009 0.06419,-0.44576 0.521898,-0.56468 2.180666,-0.56659 0.846696,-9.7e-4 1.53813,-0.0425 1.536519,-0.0924 -0.0016,-0.0498 -0.190219,-0.33506 -0.419129,-0.63389 -0.228911,-0.29884 -0.530092,-0.6927 -0.669293,-0.87527 l -0.25309,-0.33193 0.317857,-0.12079 c 0.555965,-0.21137 1.703723,-0.14432 2.296139,0.13419 0.464196,0.21819 1.359731,1.01865 1.896417,1.69506 0.08492,0.1071 0.388369,0.22934 0.674325,0.27183 1.242408,0.18452 3.560244,1.22902 4.322364,1.94779 0.286126,0.26985 0.409949,0.49423 0.409949,0.7429 0,0.71013 -1.55839,2.79332 -2.425914,3.24285 l -0.312948,0.16216 0.336046,1.63949 c 0.420833,2.05312 0.556747,3.72496 0.353009,4.34229 -0.203007,0.61511 -0.72066,0.9143 -1.572422,0.90883 -0.365242,-0.003 -0.851759,-0.0857 -1.08115,-0.18521 z m 1.716713,-9.58035 0.333712,-0.59417 -0.333712,-0.23513 c -0.18354,-0.12935 -0.566882,-0.35314 -0.85187,-0.49739 l -0.518158,-0.26226 0.228253,0.45779 c 0.125537,0.25179 0.328694,0.74304 0.451454,1.09167 0.122756,0.34865 0.253218,0.63384 0.289905,0.63378 0.03669,-7e-5 0.216876,-0.2675 0.400416,-0.59429 z m 15.71071,3.42177 c -0.206996,-0.10211 -0.434492,-0.31327 -0.505549,-0.46922 -0.117053,-0.2569 -0.172454,-0.27349 -0.589571,-0.17668 -0.253208,0.0588 -0.886835,0.1081 -1.40806,0.10981 -1.10645,0.003 -1.547539,-0.1663 -2.244619,-0.86338 -0.51727,-0.51728 -0.670063,-0.51427 -1.155728,0.0227 -0.6539,0.72302 -2.288353,1.13246 -4.469685,1.11967 -1.842466,-0.0114 -2.471572,-0.18524 -2.471572,-0.68527 0,-0.47802 1.07967,-2.46259 1.649992,-3.03292 0.285199,-0.2852 0.777709,-0.64616 1.094464,-0.80214 0.521315,-0.25671 0.736199,-0.28361 2.266296,-0.28361 1.448892,0 1.759369,0.0345 2.173338,0.24148 1.001252,0.50064 0.408977,0.81024 -1.033956,0.54051 -1.504678,-0.28128 -2.617465,0.28411 -3.348327,1.70122 -0.296723,0.57534 -0.35571,0.78975 -0.251732,0.91503 0.281513,0.33921 1.347263,0.12464 2.038084,-0.41044 1.304964,-1.01064 2.791673,-1.84076 3.296757,-1.84076 0.343781,0 1.063805,0.45786 1.645053,1.04607 0.664972,0.67293 1.003798,0.79476 2.074955,0.74613 l 0.945286,-0.0429 0.637318,-0.6212 c 2.353666,-2.29411 6.131033,-2.96522 6.131033,-1.08926 0,0.703 -0.945606,1.31244 -3.139266,2.0233 -1.353298,0.43853 -1.379332,0.45362 -1.026297,0.59451 0.607747,0.24257 2.255573,-0.13362 3.693427,-0.84316 0.371195,-0.18318 0.877206,-0.39982 1.124467,-0.48143 0.247263,-0.0816 0.867225,-0.43498 1.377697,-0.78528 2.239594,-1.53693 4.218337,-2.14655 4.865804,-1.49908 0.197593,0.1976 0.239783,0.34932 0.187217,0.67324 -0.102307,0.63044 -0.640066,1.45589 -1.163904,1.78657 -0.557706,0.35207 -1.738493,0.76433 -2.480383,0.86603 -0.923911,0.12663 -0.458968,0.2828 0.841952,0.2828 1.449081,0 2.701642,-0.31542 3.229772,-0.81332 0.231028,-0.2178 0.495611,-0.32189 0.905558,-0.35625 0.810047,-0.0679 0.948934,0.053 0.688442,0.59928 -0.242775,0.50911 -0.963238,0.8761 -2.584469,1.3165 -0.877279,0.23831 -1.315576,0.27888 -3.018526,0.27944 -2.186219,7.3e-4 -2.698697,-0.12806 -2.846112,-0.71546 -0.06979,-0.27807 -0.08808,-0.28265 -0.477782,-0.11979 -0.661293,0.2763 -2.819071,0.86786 -3.903721,1.07021 -1.271141,0.23713 -2.263277,0.2361 -2.747653,-0.003 z m 10.274307,-2.71593 c 0.489877,-0.1833 0.721011,-0.34883 0.85862,-0.61494 0.243457,-0.47079 0.135349,-0.56421 -0.347425,-0.30026 -0.472284,0.25823 -0.663231,0.41159 -1.042577,0.83742 -0.351409,0.39445 -0.325258,0.39829 0.531382,0.0777 z m -7.288735,-0.36974 c 0.704527,-0.3755 0.962879,-0.68079 0.439495,-0.51935 -0.457964,0.14133 -0.864874,0.37848 -1.105667,0.64456 -0.313906,0.34686 -0.168095,0.31945 0.666172,-0.12521 z M 5.4234953,271.36525 C 4.4681947,270.8605 4.1725536,270.24363 3.5418862,267.43919 3.2683208,266.22271 2.7783528,264.34732 2.4530665,263.27165 2.1071463,262.12773 1.8616361,261.08087 1.8616361,260.74973 v -0.56614 l 0.7546304,0.0613 c 2.1252397,0.17252 3.3863593,1.66622 3.9806532,4.71477 0.1515077,0.7772 0.3026346,1.41117 0.3358393,1.40886 0.033199,-0.003 0.3048706,-0.50176 0.6037046,-1.10988 2.5194944,-5.12708 8.9174854,-12.00024 14.7151434,-15.80802 2.390083,-1.56975 4.255101,-2.19791 6.319036,-2.12831 l 1.051542,0.0355 -1.293024,0.77421 c -1.859436,1.11335 -4.482968,2.85278 -5.881182,3.89928 -1.828521,1.36856 -3.107254,2.53921 -5.118307,4.68571 -3.406088,3.63551 -5.096751,6.23628 -8.1105592,12.47663 -0.43518,0.90108 -1.2747632,1.91827 -1.8130951,2.19665 -0.4458182,0.23054 -1.5246625,0.21695 -1.9825224,-0.025 z m 17.0244837,-0.0265 c -0.837448,-0.30361 -2.279739,-1.04381 -3.11762,-1.59998 -0.788779,-0.52358 -1.327942,-0.60427 -1.528882,-0.22881 -0.182864,0.34168 -1.045503,0.80352 -1.7889,0.95773 -0.351908,0.073 -1.722576,0.13277 -3.045928,0.13277 H 10.560556 L 10.3657,270.30307 c -0.164572,-0.25118 -0.173953,-0.39487 -0.06035,-0.92454 0.286952,-1.33802 1.053079,-2.29419 2.29307,-2.86186 1.260686,-0.57716 4.153441,-0.49037 5.44252,0.1633 0.298834,0.15152 1.164285,0.74596 1.923223,1.32097 1.62555,1.23159 3.155351,2.01091 4.727614,2.40834 0.711492,0.17986 1.136957,0.34668 1.136957,0.44578 0,0.0871 -0.184618,0.28279 -0.410263,0.43485 -0.345586,0.23289 -0.564487,0.27579 -1.388522,0.27212 -0.632202,-0.003 -1.191815,-0.0817 -1.581962,-0.22323 z m -6.675285,-2.45958 c 0.711493,-0.34826 1.295578,-0.68035 1.297967,-0.73796 0.0024,-0.0576 -0.206599,-0.31571 -0.464416,-0.57353 -0.38323,-0.38323 -0.553964,-0.46868 -0.935743,-0.4683 -0.75732,7.2e-4 -1.70838,0.68063 -2.3547,1.68338 -0.40476,0.62795 -0.416064,0.69296 -0.134693,0.77456 0.508341,0.14741 1.360643,-0.0756 2.591588,-0.67815 z m 37.977871,-2.95484 c -0.356334,-0.0374 -0.467648,-0.10852 -0.524631,-0.33551 -0.104645,-0.41693 0.13977,-1.04683 0.581507,-1.49863 0.674499,-0.6899 2.361765,-1.38424 3.196488,-1.31542 0.400666,0.0331 0.463826,0.0803 0.497395,0.37244 0.04628,0.40271 -0.310689,1.01682 -1.05793,1.81998 -0.881507,0.9475 -1.314448,1.10139 -2.692829,0.95714 z"
       style="fill:#ffffff;stroke-width:0.12074102" />
  </g>
</svg>
