<?xml version="1.0" encoding="utf-8"?>
<!-- Generator: Adobe Illustrator 22.0.1, SVG Export Plug-In . SVG Version: 6.00 Build 0)  -->
<svg version="1.1" id="Layer_1" xmlns="http://www.w3.org/2000/svg" xmlns:xlink="http://www.w3.org/1999/xlink" x="0px" y="0px"
	 viewBox="0 0 1024 1024" style="enable-background:new 0 0 1024 1024;" xml:space="preserve">
<style type="text/css">
	.st0{fill:#081C51;}
	.st1{fill:#42B25F;}
	.st2{fill:#FFFFFF;}
	.st3{opacity:0.3;fill:#FFFFFF;}
	.st4{fill:#30B778;}
	.st5{opacity:0.2;fill:#166971;}
	.st6{opacity:0.34;fill:#166971;}
	.st7{opacity:0.5;fill:#75D344;}
	.st8{opacity:0.45;fill:#75D344;}
	.st9{opacity:0.7;fill:#ACFE88;}
	.st10{opacity:0.3;}
</style>
<g>
	<rect x="-1.5" y="1.1" class="st0" width="1025.5" height="1023.3"/>
	<g>
		<path class="st1" d="M99.9,809.4c-7.2-4.3-12.7-10.3-16.8-17.9c-4-7.6-6-16.1-6-25.7c0-9.1,1.9-17.5,5.6-25.2
			c3.8-7.7,9.1-13.8,16-18.3c6.9-4.6,14.9-6.9,24.1-6.9c9.3,0,17.3,2.1,24.1,6.2c6.8,4.1,12,9.8,15.6,17.1c3.6,7.3,5.5,15.6,5.5,25
			c0,1.9-0.2,3.5-0.6,4.8H92.8c0.4,7.2,2.1,13.2,5.2,18.1c3.1,4.9,7,8.6,11.8,11.1c4.8,2.5,9.7,3.7,14.9,3.7c12.1,0,21.4-5.7,28-17
			l13.3,6.5c-4.1,7.7-9.6,13.7-16.6,18.2c-7,4.4-15.4,6.7-25.3,6.7C115.1,815.9,107,813.8,99.9,809.4z M151.3,755.7
			c-0.2-3.9-1.4-7.9-3.3-11.9c-2-3.9-5.1-7.3-9.4-10c-4.3-2.7-9.6-4.1-16-4.1c-7.4,0-13.7,2.4-18.8,7.1c-5.1,4.8-8.5,11-10.1,18.8
			H151.3z"/>
		<path class="st1" d="M224.3,809.2c-7.4-4.4-13.2-10.5-17.3-18.2c-4.1-7.7-6.2-16.1-6.2-25.4c0-9.3,2.1-17.7,6.2-25.4
			c4.1-7.7,9.9-13.7,17.3-18.1c7.4-4.4,15.7-6.7,25-6.7c9.3,0,17.6,2.2,25,6.7c7.4,4.4,13.2,10.5,17.3,18.1
			c4.1,7.7,6.2,16.1,6.2,25.4c0,9.3-2.1,17.7-6.2,25.4c-4.1,7.7-9.9,13.7-17.3,18.2c-7.4,4.4-15.7,6.7-25,6.7
			C240,815.9,231.7,813.7,224.3,809.2z M265.5,797.3c5-2.9,9-7.1,12-12.5c3-5.4,4.5-11.8,4.5-19.1c0-7.3-1.5-13.6-4.5-19.1
			c-3-5.4-7-9.6-12-12.5c-5-2.9-10.4-4.4-16.2-4.4c-5.8,0-11.2,1.5-16.3,4.4c-5.1,2.9-9.1,7.1-12.1,12.5c-3,5.4-4.5,11.8-4.5,19.1
			c0,7.3,1.5,13.6,4.5,19.1c3,5.4,7.1,9.6,12.1,12.5c5.1,2.9,10.5,4.4,16.3,4.4C255.1,801.7,260.5,800.2,265.5,797.3z"/>
		<path class="st1" d="M341.4,808.8c-6.8-4.8-11.6-10.8-14.4-18.2l14.1-6.3c2.3,5.7,5.8,10.1,10.5,13.1c4.6,3.1,9.7,4.6,15.3,4.6
			c5.9,0,11-1.2,15.2-3.6c4.2-2.4,6.3-5.8,6.3-10.3c0-4-1.7-7.1-5-9.5s-8.6-4.5-15.7-6.2l-11.5-3c-7.5-1.9-13.7-5-18.5-9.4
			c-4.8-4.4-7.2-10.2-7.2-17.2c0-5.4,1.6-10.2,4.9-14.4c3.3-4.1,7.6-7.3,13.1-9.5c5.4-2.2,11.3-3.3,17.6-3.3
			c8.3,0,15.7,1.8,22.1,5.4c6.5,3.6,11.1,8.6,13.8,15l-13.7,6.3c-4.2-8.4-11.7-12.6-22.4-12.6c-5.2,0-9.7,1.2-13.6,3.6
			c-3.9,2.4-5.8,5.5-5.8,9.2c0,3.5,1.4,6.3,4.1,8.4c2.7,2.2,6.8,3.9,12.2,5.3l13.7,3.5c9.3,2.3,16.2,5.8,20.9,10.5
			c4.7,4.6,7,10.3,7,16.9c0,5.8-1.7,10.9-5,15.3c-3.3,4.4-7.8,7.7-13.5,10.1c-5.7,2.3-12,3.5-18.9,3.5
			C356.6,815.9,348.1,813.5,341.4,808.8z"/>
	</g>
	<g>
		<path class="st2" d="M440.9,718.2h15v13.9h0.7c2.7-4.8,6.8-8.8,12.2-12c5.4-3.2,11.2-4.8,17.2-4.8c6.9,0,12.9,1.7,18.1,5
			c5.1,3.3,8.8,7.8,11,13.3c3.3-5.6,7.7-10,13.2-13.3c5.5-3.3,11.9-5,19.2-5c10.9,0,19,3.3,24.5,9.9c5.5,6.6,8.2,15.6,8.2,26.9v60.6
			h-15.6v-58.2c0-8.8-1.8-15.1-5.4-19.1c-3.6-4-8.9-5.9-15.9-5.9c-4.7,0-9,1.4-12.8,4.1c-3.8,2.7-6.8,6.4-9,10.9
			c-2.2,4.6-3.2,9.5-3.2,14.8v53.3h-15.7v-58c0-8.9-1.8-15.3-5.4-19.3c-3.6-4-8.8-5.9-15.7-5.9c-4.7,0-9,1.4-12.8,4.2
			c-3.8,2.8-6.8,6.5-9,11.1c-2.2,4.6-3.2,9.6-3.2,14.9v53h-15.7V718.2z"/>
		<path class="st2" d="M639.3,809.1c-7.2-4.3-12.7-10.3-16.8-17.9c-4-7.6-6-16.1-6-25.7c0-9.1,1.9-17.5,5.6-25.2
			c3.8-7.7,9.1-13.8,16-18.3c6.9-4.6,14.9-6.9,24.1-6.9c9.3,0,17.3,2.1,24.1,6.2c6.8,4.1,12,9.8,15.6,17.1c3.6,7.3,5.5,15.6,5.5,25
			c0,1.9-0.2,3.5-0.6,4.8h-74.6c0.4,7.2,2.1,13.2,5.2,18.1c3.1,4.9,7,8.6,11.8,11.1c4.8,2.5,9.7,3.7,14.9,3.7c12.1,0,21.4-5.7,28-17
			l13.3,6.5c-4.1,7.7-9.6,13.7-16.6,18.2c-7,4.4-15.4,6.7-25.3,6.7C654.5,815.6,646.4,813.5,639.3,809.1z M690.7,755.4
			c-0.2-3.9-1.4-7.9-3.3-11.9c-2-3.9-5.1-7.3-9.4-10c-4.3-2.7-9.6-4.1-16-4.1c-7.4,0-13.7,2.4-18.8,7.1c-5.1,4.8-8.5,11-10.1,18.8
			H690.7z"/>
		<path class="st2" d="M752.8,808.5c-6.8-4.8-11.6-10.8-14.4-18.2l14.1-6.3c2.3,5.7,5.8,10.1,10.5,13.1c4.6,3.1,9.7,4.6,15.3,4.6
			c5.9,0,11-1.2,15.2-3.6c4.2-2.4,6.3-5.8,6.3-10.3c0-4-1.7-7.1-5-9.5c-3.3-2.4-8.6-4.5-15.7-6.2l-11.5-3c-7.5-1.9-13.7-5-18.5-9.4
			c-4.8-4.4-7.2-10.2-7.2-17.2c0-5.4,1.6-10.2,4.9-14.4c3.3-4.1,7.6-7.3,13.1-9.5c5.4-2.2,11.3-3.3,17.6-3.3
			c8.3,0,15.6,1.8,22.1,5.4c6.5,3.6,11.1,8.6,13.8,15l-13.7,6.3c-4.2-8.4-11.7-12.6-22.4-12.6c-5.2,0-9.7,1.2-13.6,3.6
			s-5.8,5.5-5.8,9.2c0,3.5,1.4,6.3,4.1,8.4c2.7,2.2,6.8,3.9,12.2,5.3l13.7,3.5c9.3,2.3,16.2,5.8,20.9,10.5c4.7,4.6,7,10.3,7,16.9
			c0,5.8-1.7,10.9-5,15.3c-3.3,4.4-7.8,7.7-13.5,10.1c-5.7,2.3-12,3.5-18.9,3.5C768,815.6,759.6,813.2,752.8,808.5z"/>
		<path class="st2" d="M870.7,808.9c-7.4-4.4-13.2-10.5-17.3-18.2c-4.1-7.7-6.2-16.1-6.2-25.4c0-9.3,2.1-17.7,6.2-25.4
			c4.1-7.7,9.9-13.7,17.3-18.1c7.4-4.4,15.7-6.7,25-6.7c9.3,0,17.6,2.2,25,6.7c7.4,4.4,13.2,10.5,17.3,18.1
			c4.1,7.7,6.2,16.1,6.2,25.4c0,9.3-2.1,17.7-6.2,25.4c-4.1,7.7-9.9,13.7-17.3,18.2c-7.4,4.4-15.7,6.7-25,6.7
			C886.5,815.6,878.2,813.4,870.7,808.9z M912,797c5-2.9,9-7.1,12-12.5c3-5.4,4.5-11.8,4.5-19.1c0-7.3-1.5-13.6-4.5-19.1
			c-3-5.4-7-9.6-12-12.5c-5-2.9-10.4-4.4-16.2-4.4c-5.8,0-11.2,1.5-16.3,4.4c-5.1,2.9-9.1,7.1-12.1,12.5c-3,5.4-4.5,11.8-4.5,19.1
			c0,7.3,1.5,13.6,4.5,19.1c3,5.4,7.1,9.6,12.1,12.5c5.1,2.9,10.5,4.4,16.3,4.4C901.5,801.4,907,799.9,912,797z"/>
	</g>
	<g>
		<path class="st3" d="M568.7,267.7l-57.4-0.3v0l-0.7,0l-0.7,0v0l-57.4,0.3c-47.1,0.3-83.7,41.1-78.9,88l13,126.2
			c3.5,33.8,32,59.5,66,59.5h57.3h1.4h57.3c34,0,62.5-25.7,66-59.5l13-126.2C652.4,308.8,615.8,268,568.7,267.7z"/>
		<g>
			<polygon class="st4" points="510.6,210.2 574.1,302.9 602.9,435.1 510.6,491.4 418.3,435.1 447.2,302.9 			"/>
			<polygon class="st4" points="510.6,210.2 574.1,302.9 510.6,491.4 447.2,302.9 			"/>
			<polygon class="st5" points="509.9,285.1 418.3,435.1 602.9,435.1 			"/>
			<polygon class="st6" points="418.3,435.1 509.9,285.1 510.6,210.2 447.2,302.9 			"/>
			<polygon class="st7" points="603,435.3 509.9,285.1 510.6,210.2 574.1,303.1 			"/>
			<polygon class="st8" points="510.6,491.4 574.1,302.9 602.9,435.1 			"/>
			<polyline class="st8" points="447.5,302.9 418.7,435.1 510.9,491.4 447.5,302.9 			"/>
			<line class="st9" x1="602.9" y1="435.1" x2="510.6" y2="491.4"/>
			<g>
				<path class="st0" d="M510.6,495c-0.6,0-1.3-0.2-1.8-0.5l-92.3-56.3c-1.3-0.8-1.9-2.3-1.6-3.8l28.8-132.2
					c0.1-0.4,0.3-0.9,0.5-1.2l63.4-92.7c0.7-1,1.8-1.5,2.9-1.5c1.2,0,2.3,0.6,2.9,1.5l63.4,92.7c0.3,0.4,0.4,0.8,0.5,1.2l28.8,132.2
					c0.3,1.5-0.3,3-1.6,3.8l-92.3,56.3C511.9,494.8,511.3,495,510.6,495z M422.3,433.4l88.3,53.9l88.3-53.9l-28.2-129.1l-60.1-87.9
					l-60.1,87.9L422.3,433.4z"/>
				<path class="st0" d="M510.6,495c-1.5,0-2.9-1-3.4-2.4L443.8,304c-0.4-1.1-0.2-2.2,0.4-3.1l63.4-92.7c0.7-1,1.8-1.5,2.9-1.5
					c1.2,0,2.3,0.6,2.9,1.5l63.4,92.7c0.6,0.9,0.8,2.1,0.4,3.1L514,492.5C513.5,494,512.1,495,510.6,495z M451.1,303.4l59.5,176.9
					l59.5-176.9l-59.5-87L451.1,303.4z"/>
			</g>
		</g>
		<g class="st10">
			<g>
				<g>
					<path class="st2" d="M407,584.9c0.4-7.3,0.8-14.6,1.1-21.8c0.3-6.4,3.1-8.5,9.9-9.5c2.8-0.4,5.6,0,8.1,1.4
						c1.2,0.7,2.2,0.6,3.4-0.2c1-0.6,2.1-1.2,3.2-1.2c10.1,0,20.3,0,30.4,0.3c3.8,0.1,6.6,2.3,7.5,6.2c0.6,2.8,1.2,5.7,1.2,8.6
						c0.2,8.2,0.1,16.4,0.1,24.6c0,1.9-0.3,3.7-1.7,5.1c-0.6,0.5-0.5,1,0.1,1.6c1.9,1.7,2.8,3.9,3.4,6.3c0.2,0.7,0.2,1.6-0.2,2.1
						c-1.5,2.1-3.2,4.1-4.8,6c-0.1,0.2-0.5,0.3-0.7,0.3c-4.1,0.1-8.2,0.3-12.4,0.2c-1.5,0-3-0.8-4.5-1.5c-1.1-0.5-1.9-0.6-2.8,0.3
						c-1.6,1.6-3.7,1.8-5.7,1.9c-3.2,0.3-6.5,0.2-9.6-0.9c-2-0.7-3.9-0.5-5.9,0.1c-2.5,0.7-5.1,1.4-7.7,1.5c-5.6,0.2-10.3-4-11-9.6
						c-0.4-3.4-0.8-6.8-0.9-10.3c-0.2-3.9,0-7.7,0-11.6C407.4,584.9,407.2,584.9,407,584.9z M425.5,562.8c-0.2-0.6-0.3-0.9-0.4-1.3
						c-0.8-2.4-2.2-3.6-4.3-3.5c-2.8,0.1-4.9,1.5-5.4,3.9c-1.5,6.7-1.8,13.5-1.3,20.3c0.2,2.6,0.8,5.2,1.4,7.8
						c0.4,1.7,1.5,2.9,3.2,3.2c2,0.4,4.2,0.4,6.3,0.5c0.4,0,1.1-0.4,1.2-0.8c0.8-1.7-0.8-4.2-2.7-4.4c-4.3-0.6-6-2.2-6.1-6.6
						c-0.2-4.7-0.2-9.4-0.2-14.1c0-1.7,0.3-3.5,0.8-5.1c0.4-1.4,1.4-2.5,3.1-2.6c1.6-0.1,2.5,1,3.2,2.2c0.5,0.9,1,1.7,1.4,2.6
						c0.2,0,0.4,0,0.5-0.1c0.3-1.4,0.6-2.8,0.8-4.3c0.3-2.8-1.2-4.7-4.1-4.8c-1.9-0.1-3.9-0.1-5.9-0.1c-4.4,0.1-7.3,2.9-7.5,7.3
						c-0.8,13.4-0.9,26.8,0.1,40.2c0.2,2.6,1.4,5.2,2.5,7.6c1,2.2,3.1,3.6,5.6,3.6c2.8,0,5.6-0.5,8.3-0.8c1.4-0.2,2-1,1.7-2.5
						c-0.1-0.5-0.2-0.9-0.2-1.4c-0.6-3.2-0.4-6.2,1.8-8.8c0.3-0.3,0.4-0.8,0.6-1.2c-1.2,0.5-2.1,1.2-3,2c-2.3,1.9-5,2.7-7.8,1.6
						c-1.9-0.8-3.8-1.9-5.4-3.2c-1.6-1.2-1.8-2.4-0.8-4.2c1.5-2.8,1.6-5.5,1-8.7c-1.3-7-1-14.1-0.1-21.2c0.2-2.1,0.9-4.1,1.8-6
						c1.3-2.6,4.8-3.5,8.3-2.3C425.4,558.3,425.9,559.5,425.5,562.8z M456.5,594.2c0.4,0.4,0.4,0.4,0.4,0.4c2.8,0.4,7.6-2.2,8.9-4.6
						c0.1-0.3,0.1-0.6,0.1-0.9c0.1-5.1,0.3-10.1,0.2-15.2c-0.1-3.5-0.5-6.9-0.8-10.4c-0.3-3.5-2.3-5.6-5.8-6.1
						c-0.6-0.1-1.2-0.4-2-0.7c1.2-1.1,2.2-0.8,3.2-0.4c3.6,1.2,5.2,3.9,5.9,7.4c1.4,7.4,1.4,14.9,0.8,22.3c-0.5,6.5-2.9,8.6-9.5,9.7
						c-1.4,0.2-1.3,1.1-1.3,2.1c0,1.1,0.2,2.1,1.5,2c2.4-0.2,4.8-0.4,7.2-0.9c3.5-0.7,5.5-3,5.6-6.6c0.1-5.9,0.2-11.8-0.1-17.7
						c-0.2-4.6-0.9-9.1-1.5-13.7c-0.3-2.1-1.4-4.1-3.6-4.6c-2.6-0.6-5.4-0.8-8.1-1c-1.3-0.1-2.2,0.8-2.2,2c0,1.4,1.4,1,2.2,1.1
						c4.2,0.2,5.5,1.2,6.3,5.2c1.5,7.3,1.3,14.7,0.8,22.1c-0.2,3.8-2,6.4-5.8,7.4C458,593.2,457.3,593.7,456.5,594.2z M439.7,557.6
						c-1,0.5-2,1.1-3.1,1.5c-2.7,1-4.2,2.9-4.3,5.7c-0.2,6.6-0.4,13.3-0.4,19.9c0,1.8,0.2,3.7,0.5,5.5c0.7,3.9,6.5,6.7,10.1,5
						c0.3-0.1,0.6-0.5,0.6-0.8c0-0.3-0.4-0.7-0.7-0.7c-0.7-0.2-1.5-0.2-2.2-0.3c-4.2-0.1-6.4-1.8-7-5.9c-1.1-7.8-0.6-15.6,0.8-23.3
						c0.5-3,3.3-4.7,6.4-4.5c2,0.1,2.8-0.9,1.8-2.7c-0.5-0.8-1.5-1.8-2.3-1.9c-2.1-0.2-4.2-0.2-6.2,0.1c-2.8,0.4-4.4,2.2-4.8,5
						c-0.3,1.9-0.7,3.9-0.7,5.8c0,8.4-0.1,16.8,0.1,25.2c0.1,4.2,2.9,7.2,7.1,8c2.3,0.4,4.7,0.3,7.1,0.4c0.4,0,1.3-0.6,1.2-0.8
						c-0.1-0.8-0.1-1.8-1.3-1.8c-0.7,0-1.5,0-2.2-0.1c-5.4-0.3-9.7-4.2-9.9-9.5c-0.2-6.5-0.2-13.1,0.3-19.6
						C431,560.7,433.6,558.2,439.7,557.6z M449.4,599.7c-0.3-14.9-0.5-29.7-0.8-44.5c-1.2,0-2.4,0-3.8,0c-0.5,14.9-1.1,29.7,0,44.5
						C446.5,599.7,448,599.7,449.4,599.7z M449.9,555.5c0,0.5-0.1,0.8-0.1,1.1c0.2,10.3,0.4,20.6,0.7,30.9c0.1,3.7,0.4,7.5,0.6,11.2
						c0.1,1.1,0.5,1.7,1.6,1.6c1.1,0,1.7-0.5,1.8-1.6c0.1-0.9,0.3-1.9,0.3-2.8c-0.1-12.1-0.3-24.3-0.4-36.4c0-1.5-0.2-2.9-0.2-4.5
						C452.7,555.2,451.4,555.3,449.9,555.5z M467.9,612c0.2,0.1,0.3,0.2,0.5,0.3c0.8-0.8,1.8-1.4,2.5-2.3c1.5-2,1.4-4.3,0.3-6.4
						c-0.9-1.8-2.3-3-4.4-2.8c-3.8,0.4-7.7,0.8-11.5,1.4c-1,0.2-2.6,0.9-2.8,1.7c-0.6,2.1-0.7,4.4-1,6.7c1.4,0.9,2.9,1.9,4.3,2.8
						c0,0,0.1,0,0.2,0c1.7,0.5,2.3,0.2,2.7-1.6c0.2-1.1,0.4-2.3,0.7-3.4c0.6-2.4,1.8-3.2,4.2-3.1c2.5,0.2,3.8,1.4,4.1,3.8
						C467.7,610.1,467.8,611,467.9,612z M443.2,570.1c-1.7,0.3-3,1-4.1,0.6c-1.9-0.6-0.5-2.3-0.4-3.5c-3.8,0.6-5.1,2.6-4.3,6.6
						c0.6-0.3,1.2-0.7,1.8-0.9c1.5-0.4,3-0.7,4.6-1c0.4-0.1,0.9,0.4,1.3,0.7c-0.3,0.4-0.4,1-0.8,1.2c-0.7,0.4-1.5,0.7-2.3,1
						c-4,1.2-5.7,4.3-4.6,8.4c1.4-0.6,2.7-1.4,4.1-1.8c1-0.3,3-0.1,3.1,0.2c0.3,1.4-1.1,1.7-2.1,2.4c-1.2,0.8-2.6,1.5-3.5,2.6
						c-1.7,2-1.1,4.4,1.3,5.4c1.1,0.5,2.3,0.7,3.5,0.7c0.7,0,1.7-0.5,2.1-1.1c0.3-0.5-0.1-1.5-0.1-2.3c-0.7,0.1-1.4,0.2-2.1,0.4
						c-1,0.3-2.2,0.4-2.6-0.7c-0.3-0.8-0.1-2.1,0.4-2.7c0.5-0.6,1.7-0.7,2.6-1c0.4-0.2,1.2-0.3,1.2-0.6c0.1-1.8,0.1-3.6,0.1-5.6
						c-1.3,0.5-2.6,1.7-3.5,0.3c-0.4-0.6-0.2-1.9,0.2-2.7c0.6-1.3,1.8-1.6,3.3-0.4C442.7,574,442.9,572.1,443.2,570.1z M425.4,568.1
						c-0.1,0-0.2,0-0.2,0c-0.2,0.6-0.4,1.1-0.7,1.7c-0.5,1.2-1.3,2.1-2.8,1.8c-1.5-0.3-2-1.5-2-2.9c0-1.4,0.5-2.7,2.2-3.1
						c1.2-0.3,1.1-1.3,1-2.2c0-1-0.7-1.4-1.6-1.3c-0.9,0-1.9,0.2-2,1.4c-0.4,5.5-0.8,10.9-0.9,16.4c-0.1,2.7,1.2,5.1,3.6,6.7
						c1.5,1,3.1,0.4,3.5-1.3c0.1-0.5,0.2-1,0.2-1.6c0-4.6,0-9.3,0-13.9C425.6,569.2,425.5,568.6,425.4,568.1z M429.7,606.6
						c-0.1,0-0.1-0.1-0.2-0.1c0.2-0.7,0.3-1.4,0.5-2.1c0.5-1.7,1.2-1.9,2.6-0.9c0.7,0.5,1.3,1.1,2,1.5c0.5,0.3,1.1,0.6,1.6,0.9
						c-0.3-0.7-0.7-1-1.1-1.5c-0.4-0.5-0.8-1-1-1.6c-0.6-1.9-1.6-2.2-3.2-1c-2.7,2.1-3,6.7-0.6,9.4c0.8,0.9,1.7,1.5,2.8,0.5
						c1.2-1.1,1.2-2.5,0.1-3.5c-0.7-0.6-1.3-1.2-2-1.9c0.1-0.1,0.2-0.3,0.3-0.4c0.7,0.4,1.4,0.7,2.1,1.1c3.6,2,7.2,1.8,10.7-0.3
						c1.7-1,2.6-2.6,3.1-5c-1.1,0.4-1.7,0.5-2.2,0.9c-1.1,0.8-2.2,1.7-3.3,2.5c-3.1,2.3-6.1,2.3-9.2,0c-0.5-0.4-1.1-0.7-1.7-1.1
						C430.7,604.9,430.2,605.8,429.7,606.6z M463,585.5c0.6-3.2,0.6-5.7-0.5-8.2c-0.8-1.7-4.7-2.2-6.1-0.9c-0.2,0.2-0.5,0.6-0.5,1
						c0,2,0,4.1,0,6.2C458.3,583.7,460.8,583.1,463,585.5z M415.9,593.3c-0.1-0.1-0.3-0.1-0.4-0.2c-0.6,0.8-1.2,1.6-1.7,2.4
						c-0.9,1.7-0.6,3,0.8,4.3c2.5,2.4,8.1,3.1,11.2,1.4c1.8-1,2.6-3.3,1.7-5.3c-0.3,0.4-0.5,0.7-0.8,1c-2.4,3.5-5.4,4.3-9.3,2.5
						c-2-1-2.6-2.4-1.9-4.5C415.6,594.4,415.7,593.8,415.9,593.3z M456,571.5c-0.3,2.2-0.2,2.3,1.7,2c1.3-0.2,2.7-0.2,4.1-0.4
						c0.5-0.1,1.1-0.2,1.4-0.5c0.7-0.7,0.3-4.2-0.5-4.9c-1.3-1.2-5.9-1.9-7.5-1c0.1,0.4,0.3,0.9,0.4,1.3c0.1,0.2,0.3,0.4,0.4,0.6
						c2-1.7,2.6-1.9,3.7-1c1,0.9,1,1.9,0.4,3C459,572.3,458.2,572.5,456,571.5z M465.9,611.1c0.1,0,0.2,0,0.3,0
						c-0.1-1-0.1-1.9-0.3-2.9c-0.4-1.8-1.9-2.5-3.7-1.8c-2.1,0.9-3.5,5-2.4,7.5c0.5-0.9,0.9-1.6,1.2-2.3c0.3-0.8,0.2-1.7,0.6-2.5
						c0.3-0.6,1-1.4,1.5-1.4c0.6,0,1.4,0.5,1.9,1.1C465.5,609.5,465.6,610.3,465.9,611.1z M446.5,611c0-1.5-1.1-2.8-2.3-2.8
						c-1.1,0-1.8,1.2-1.8,3.1c0,1.6,0.7,2.5,1.9,2.4C445.5,613.7,446.5,612.4,446.5,611z M449.2,610.3c1.2-2.2,1.3-5.9,0.2-7.3
						C446.1,605.1,446.4,607,449.2,610.3z M425.6,595.4c-1.5-0.2-2.9-0.2-3.8,1c-0.4,0.5-0.5,1.6-0.2,2.2c0.2,0.4,1.4,0.5,2,0.2
						C425.1,598.3,425.7,597.1,425.6,595.4z M461.4,587.4c-0.8,1.2-1.2,2.7-2,3c-0.9,0.4-2.3-0.3-3.5-0.6c-0.1,0.9-0.1,2.1,1.4,1.9
						c1.5-0.2,3.1-0.7,4.5-1.3c0.5-0.2,0.9-1.2,0.9-1.8C462.6,588.2,461.8,587.8,461.4,587.4z M420,596.3c0-1.3-0.8-1.6-1.8-1.7
						c-1,0-1.5,0.6-1.5,1.7c0.1,0.9,0.3,1.9,1.4,1.9C419.4,598.2,420,597.3,420,596.3z M439.5,611.2c-0.6-0.7-1-1.5-1.4-1.5
						c-1.4,0-1.9,1.1-1.8,2.3c0.1,0.8,0.7,1.5,1,2.2C438,613.3,438.7,612.3,439.5,611.2z M460.7,560.2c-0.4,1.1-0.9,2.2-1.4,3.6
						c0.8,0.1,1.7,0.2,2.5,0.2c0.3,0,0.8-0.5,0.9-0.8C462.9,562.2,461.6,560.5,460.7,560.2z M443.1,561.4c-0.2,0-0.3-0.1-0.5-0.1
						c-0.3,0.9-1,1.9-0.7,2.6c0.4,1.4,0,2.1-1.5,2.9c0.6,0.6,1.1,1.1,1.7,1.7C443.7,565.9,443,563.6,443.1,561.4z M440.8,602.6
						c0-0.2-0.1-0.4-0.1-0.7c-1-0.1-2-0.3-2.9-0.2c-0.5,0-0.9,0.5-1.4,0.7c0.5,0.5,1.1,1.4,1.6,1.3
						C438.9,603.6,439.8,603,440.8,602.6z M441.8,609.4c-0.3,0-0.6,0-0.9-0.1c-0.3,1.3-0.6,2.7-0.8,4c0,0.3,0.4,0.6,0.6,1
						c0.3-0.2,0.8-0.4,0.9-0.7C441.7,612.2,441.7,610.8,441.8,609.4z M434.6,564.9c1.3-0.3,2.2-0.4,2.9-0.8c0.4-0.2,0.6-0.9,0.7-1.4
						c0.1-0.3-0.3-0.7-0.5-1.1c-0.4,0.2-0.9,0.3-1.2,0.6C436,563,435.4,563.8,434.6,564.9z M463.7,609.1c-0.3,0-0.6,0-0.9-0.1
						c-0.2,1-0.5,2-0.7,3c0,0.2,0.5,0.8,0.7,0.8c0.4,0,1-0.4,1-0.7C464,611.2,463.8,610.1,463.7,609.1z M421.8,570.5
						c0.7-0.9,2.1-1.2,1.5-2.6c-0.1-0.3-1.3-0.7-1.6-0.5C420.6,568.3,421,569.3,421.8,570.5z M441.1,586.1c-0.2-0.1-0.5-0.3-0.7-0.4
						c-0.5,0.7-1.2,1.3-1.6,2c-0.2,0.3,0.3,0.9,0.4,1.3c0.5-0.2,1.2-0.3,1.4-0.6C440.9,587.7,440.9,586.8,441.1,586.1z M439.9,582.5
						c-2.1-0.2-4.9,1.5-5.5,3.5C436.2,584.8,438,583.7,439.9,582.5z M439.9,573.2c-0.1-0.2-0.2-0.5-0.3-0.7
						c-1.8,0.9-3.5,1.8-5.3,2.7c0.1,0.2,0.2,0.4,0.3,0.6C436.4,575,438.1,574.1,439.9,573.2z M440,565.5c0-0.2-0.1-0.3-0.1-0.5
						c-1.8-0.2-3.4,0.3-4.5,1.9C436.9,566.4,438.4,565.9,440,565.5z M455.6,587.9c0.3,0.1,0.6,0.2,0.9,0.3c0.4-0.8,0.7-1.6,1.1-2.5
						c-0.4-0.2-0.8-0.3-1.3-0.5C456.1,586.1,455.9,587,455.6,587.9z M458.4,586.7c-0.5,0.9-1,1.4-1,1.9c0,0.3,0.5,0.7,0.9,1.1
						c0.3-0.5,0.8-0.9,0.9-1.4C459.3,587.9,458.9,587.5,458.4,586.7z M455.5,561.2c-0.1,0-0.2,0-0.4,0c0,0.8,0,1.6,0,2.4
						c0,0.3,0.3,0.7,0.6,0.8c0.2,0.1,0.7-0.1,0.8-0.3c0.1-0.3,0.1-0.7-0.1-1C456.2,562.5,455.9,561.8,455.5,561.2z M457.1,570.6
						c0.2,0.1,0.3,0.2,0.5,0.3c1.5-0.5,1.8-1.1,1-2.9C458,569.1,457.5,569.9,457.1,570.6z M457.1,562.3c0.2,0.2,0.5,0.3,0.7,0.5
						c0.4-0.5,0.8-1,1-1.5c0-0.1-0.5-0.4-0.8-0.7C457.8,561.2,457.5,561.7,457.1,562.3z"/>
					<path class="st2" d="M542.6,561.3c-0.2,1.7-0.4,3.1-0.5,4.6c-0.1,0.5-0.1,1.1,0,1.6c0.3,3.2,0.8,6.4,0.7,9.6
						c-0.1,7.6-0.4,15.1-0.8,22.7c-0.1,1.5-0.8,2.9-1,4.4c-0.1,0.7,0.1,1.5,0.5,2.1c2.2,3.6,0.7,7.2-3.6,7.7
						c-1.7,0.2-3.5-0.1-5.3-0.2c-2.3-0.2-4.5-0.5-6.8-0.5c-5.5,0-11.1-0.7-16.4,0.3c-7.4,1.4-14.8,1-22.2,1.1
						c-0.8,0-1.7-0.1-2.5-0.2c-5.4-0.1-6.5-5.1-5.3-8.5c0.4-1.1,1-2.1,1.4-3.2c0.2-0.6,0.2-1.5-0.1-1.9c-2.9-3.2-3.5-7.3-4-11.3
						c-1-8.7,0.3-17.2,1.7-25.7c1.6-9.9,10.3-13.1,17.6-12.5c2.8,0.2,5.6,0.8,8.5,1.2c5.3,0.7,10.5,0.6,15.8-0.4
						c2.5-0.5,5.3-0.3,7.9-0.2c3.3,0.1,6.6,0.3,10,0.5c1.9,0.1,3.1,0.9,3.5,2.8C542.2,557.3,542.3,559.4,542.6,561.3z M511.6,573.5
						c0.1,0.1,0.2,0.1,0.4,0.2c-0.3,0.7-0.5,1.4-0.8,2.2c-0.4,1.1,0.2,1.9,1.1,2.3c0.3,0.1,1-0.5,1.5-0.8c1.7-1.1,3.3-2.6,5.1-3.2
						c4.9-1.7,8.4,0.3,10,5.1c0.1,0.3,0.4,0.8,0.6,0.8c0.4,0,0.8-0.3,1-0.6c0.6-0.8,1-1.7,1.6-2.6c1.8-2.9,4.5-3.6,7.4-1.9
						c0.4,0.2,0.8,0.4,1.7,0.9c-0.1-2.5,0-4.6-0.4-6.6c-0.4-2.3-0.9-2.4-3.2-2.3c-1.8,0.1-3.6,0.2-5.4,0.2c0-0.2,0-0.3-0.1-0.5
						c0.9-0.2,1.8-0.5,2.7-0.6c1.6-0.2,3.3-0.3,4.9-0.5c0.4-0.1,1.1-0.8,1.1-1.2c0-0.7-0.2-1.8-0.7-2.2c-1-0.8-4.1-0.2-4.9,0.7
						c-1.9,2.2-4.5,2.9-7.2,3.1c-1.9,0.2-3.3,0.8-4.7,2c-2.9,2.7-6.3,3-9.7,1c-0.7-0.4-1.6-0.8-2.4-0.7c-2.6,0.3-4.9,5.5-3.5,7.8
						c0.2,0.3,0.6,0.6,1,0.6c0.3,0,0.6-0.5,0.8-0.8C510.3,575.3,511,574.4,511.6,573.5z M490.2,593.2c0.1,0,0.2,0,0.3,0
						c0,0.5,0.1,0.9,0.1,1.4c0,0.5-0.1,1.1,0.1,1.6c0.2,0.5,0.5,1.2,0.9,1.3c1.2,0.5,2.8-0.4,3.1-1.7c0.3-1.1,0.4-2.3,0.7-3.7
						c0.1,1.4,0.2,2.5,0.4,3.5c0.1,0.5,0.7,1.3,1,1.3c0.6,0,1.2-0.5,1.7-1c0.4-0.4,0.5-1.1,0.6-1.6c0.4-2.5,0.7-5,1-7.5
						c0.3-2.1-0.2-2.7-2.3-2.8c-2.3-0.1-4.6-0.2-7-0.2c-1.4,0-2.2-0.5-2.9-1.8c-0.3-0.7-1.1-1.4-1.8-1.5c-2.6-0.2-5.2-0.1-8-0.1
						c0.1,2.3,0.3,4.6,0.4,6.9c0.1,1.2,0.7,1.8,1.9,1.8c0.9,0.1,1.9,0.3,2.8,0.5c1.2,0.2,1.8,0.9,1.8,2.2c0,0.8,0.1,1.6,0.3,2.4
						c0.3,1.2,2.2,2.7,3.2,2.5c1.5-0.3,1.2-1.6,1.5-2.7C490.1,593.7,490.1,593.5,490.2,593.2z M503,561.4c0.3-1.6,0.5-2.9,0.8-4.2
						c0.6-2.5,0.4-3-2.2-3.3c-3.6-0.3-7.2-0.7-10.7-0.2c-4,0.5-7.8,2.4-9.3,6.3c-1.5,4.1-1.9,8.6-2.7,13c-0.1,0.4,0.3,1.3,0.5,1.3
						c1.4,0.1,2.8,0.3,4.2,0c0.4-0.1,0.6-1.4,0.7-2.1c0.2-0.7,0.2-1.4,0.3-2c1.2-5.8,4.7-8.7,10.6-8.7
						C497.8,561.4,500.4,561.4,503,561.4z M534.5,606c-0.2-0.9-0.2-1.5-0.4-1.9c-0.7-1.7-0.5-3.2,0.2-5c0.6-1.8,0.3-3.9,0.3-5.9
						c0-0.4-0.7-0.8-1-1.2c-0.5-0.7-1.5-1.5-1.4-2.2c0.1-1.4,0.7-2.8,1.2-4.2c0.2-0.6,0.7-1.1,0.9-1.4c-1.1-1-1.9-1.9-2.9-2.6
						c-0.5-0.4-1.1-0.6-1.7-0.6c-0.2,0-0.5,0.8-0.5,1.3c-0.3,3.7-1.8,6.9-4.2,9.7c-2,2.3-4.7,2.9-7.6,1.7c-0.3-0.1-0.8,0.1-1.2,0.1
						c0.3,0.4,0.5,0.9,0.8,1.1c0.4,0.2,1,0.3,1.5,0.3c1.6,0.1,3.2,0.1,4.7,0.3c2.7,0.2,4.3,2.1,5.9,3.9c1.2,1.3-0.5,2.4-0.5,3.7
						c0,0.1-0.1,0.3-0.2,0.4c-1.5-0.8-3.1,0.2-4.8,3.2C527.2,606.6,530.7,606.3,534.5,606z M501.7,612.3c0-0.1,0-0.3,0-0.4
						c0.4,0.3,0.7,0.7,1.1,0.8c0.7,0.1,1.4,0.1,2.1,0.1c0-0.5,0-1.1,0-1.6c-0.1-1.4-0.3-2.7-0.2-4.1c0.2-2.7,0.3-2.7-2.5-2.8
						c-0.2,0-0.3,0-0.5,0c-5.6-0.1-11.3,0.1-16.9-1.1c-0.6-0.1-1.7,0.3-2,0.8c-0.8,1-1.5,2.2-1.8,3.4c-0.5,1.9-0.1,3.8,1.6,5.1
						c0.3,0.2,1.1,0.4,1.2,0.2c1.2-1.6,2.5-1.5,4-0.3c0.2,0.2,0.6,0.2,0.9,0.2c2.4,0.2,4.8,0.5,7.3,0.4
						C497.9,612.9,499.8,612.5,501.7,612.3z M504,602c-0.4-0.6-0.5-0.9-0.7-1.1c-2-2-4.1-3.3-7.2-3c-2.2,0.2-4.5,0.2-6.8,0
						c-2.8-0.3-4.4-1.8-4.9-4.2c-0.6-2.6-1.7-3.3-4.3-3c-0.9,0.1-1.4,0.6-1.1,1.5c0.3,1.3,0.7,2.6,1.2,3.9c0.9,2.9,2.9,4.8,5.9,5.3
						C491.9,602.7,497.8,602.5,504,602z M522,589.3c0.2,0,0.4,0,0.6,0.1c2-2.1,2.8-4.7,3.2-7.5c0.4-2.4-0.5-4.1-2.2-4.8
						c-2.3-0.9-4.9-0.4-6.3,1.5c-1.9,2.7-2.4,5.7-1.6,8.9c0.4,1.6,1.7,2.1,3.2,1.5c1.4-0.5,1.8-1.5,1.1-3.3
						c-0.7,0.4-1.4,0.8-2.2,1.3c0.4-1.5,1.5-1.6,2.6-1.6c1.1,0.1,1.1,0.9,1.2,1.7C521.8,587.9,521.9,588.6,522,589.3z M519,566.1
						c-0.1-0.5-0.2-0.7-0.3-1c-1.9-3.4,0.6-7,3.4-8c2.7-1,5.4-1.1,6,2.7c0,0.2,0.1,0.3,0.2,0.4c0.3,0.4,0.7,1.1,1.1,1.1
						c0.4,0,1.1-0.5,1.3-1c0.9-1.9,0.9-3.8,0-5.7c-0.3-0.6-1.2-1.2-1.9-1.2c-3.4,0.1-6.8,0.3-10.2,0.7c-1.8,0.2-3,1.5-3.4,3.3
						c-0.4,2-0.9,3.9-1.2,5.9c-0.1,0.4,0.1,1.1,0.4,1.2C515.7,565.6,517.1,566.4,519,566.1z M500.6,593.1c0.2,1,0.4,2.1,0.7,3.1
						c0.3,1,0.8,1.1,1.8,0.7c1.4-0.6,2.8-1.2,4.3-1.6c2.1-0.6,4.2-0.9,6.3-1.5c2-0.6,2.7-2.2,1.7-4.1c-0.9-1.7-2.7-2.6-4.6-2.1
						c-2.2,0.6-4.4,1.2-6.6,1.6C501.7,589.7,500.8,590.6,500.6,593.1z M536.5,582.3c-2.4-1.1-2.9-1.8-2.2-3.5c0.4-1.1,2.3-1.7,3.4-1
						c0.4,0.3,0.5,1,0.8,1.6c-1.1-0.5-1.8-1-2.6-1.1c-0.3-0.1-1,0.6-1,1c0,0.5,0.4,1,0.6,1.6c0.5-0.5,0.8-0.7,1-1
						c0.2,0.3,0.7,0.6,0.7,0.9c0.3,1.7-0.6,3-1.7,4.2c-0.8,0.9-1.6,2-2,3.1c-0.2,0.8,0,2.2,0.6,2.7c1.3,1.2,1.9,2.4,1.9,4.1
						c0,0.9,0.3,2.1,1.4,1.8c0.6-0.1,1.4-1.1,1.6-1.8c0.4-1.6,0.5-3.2,0.5-4.9c0.1-3.9,0.2-7.7,0.1-11.6c0-2.3-1.4-3.7-3.1-3.6
						c-2.6,0.2-4.9,4-3.8,6.4c0.3,0.6,1,1.1,1.6,1.2C535.1,582.8,535.8,582.4,536.5,582.3z M510,557.4c0.1,0,0.3,0.1,0.4,0.1
						c-0.2,1.3-0.5,2.7-0.7,4c-0.1,1.1,0.5,1.8,1.6,1.9c1.2,0.1,1.6-0.6,1.8-1.5c0.4-1.8,0.7-3.5,1-5.3c0.1-0.4-0.1-1-0.4-1.3
						c-1.7-1.5-6.1-1-7.3,0.9c-1.5,2.3-1.9,4.9-1.1,7.6c0.8,2.6,4.1,3.7,6.1,2.1c0.3-0.3,0.5-0.7,0.8-1.1c-0.4-0.2-0.8-0.4-1.2-0.6
						c-0.7-0.4-1.7-0.6-1.9-1.2C508.7,561.1,509,559.2,510,557.4z M502.3,575.3c0.1,0,0.6,0.1,1,0c0.6-0.1,1.3-0.4,1.9-0.7
						c-0.3-0.6-0.4-1.3-0.8-1.8c-2.1-2-4.2-4-6.3-6c-1.8-1.7-3.8-1.5-5.8-0.5c-1.9,0.9-1.9,1.7-0.3,3c1.6,1.3,3.2,2.4,4.6,3.8
						C498.1,574.7,499.8,575.5,502.3,575.3z M506.2,578.3c0-0.2,0.1-0.4,0.1-0.6c-0.6-0.2-1.3-0.6-1.9-0.7c-2.8-0.3-5.7-0.7-8.5-0.8
						c-5.4-0.2-10.9-0.2-16.3-0.2c-0.4,0-0.9,0.6-1.3,0.9c0.4,0.5,0.7,1.1,1.2,1.4c0.3,0.2,0.9,0.2,1.4,0.2c7.8,0,15.6,0,23.4,0
						C504.9,578.6,505.5,578.4,506.2,578.3z M512.6,566.4c1.6,3.2,6.3,4,9,1.8c2.3-1.9,4.9-3,7.8-3.7c1.3-0.3,2.6-0.7,3.9-1.2
						c0.5-0.2,1.1-0.7,1.2-1.1c0.3-2.3,0.4-4.7,0.5-7c0-0.4-0.6-0.9-1-1.3c-0.4,0.4-0.8,0.8-1,1.2c-0.2,0.6-0.3,1.3-0.3,2
						c-0.2,3.5-1.4,5.1-4.7,5.8c-2.9,0.6-5.5,1.6-7.9,3.4c-1.1,0.9-2.3,1.2-3.8,0.6C515,566.5,513.8,566.6,512.6,566.4z
						 M502.9,565.5c0.5-2.1,0.1-2.9-1.7-3c-2.9-0.1-5.9-0.2-8.8,0c-2.1,0.2-4.4,0.9-5.1,3.1c-0.8,2.5-1,5.3-1.3,7.9
						c0,0.3,0.5,0.7,0.7,1c0.4-0.3,0.9-0.5,1.1-0.9c0.2-0.3,0.1-0.8,0.2-1.2c0.8-6,3.7-8.4,9.8-7.9
						C499.4,564.7,501.1,565.2,502.9,565.5z M510.7,583.1c-1,0.6-1.8,0.8-2.3,1.4c-0.4,0.5-0.4,1.3-0.5,1.9c0.6,0.1,1.3,0.4,1.9,0.2
						c2.2-0.8,2.8-2.6,2.5-4.7c-0.1-0.8-0.4-1.9-0.9-2.2c-1-0.7-3.5-0.1-3.9,0.7c-0.8,1.7-2.2,2.6-3.7,3.6c-0.5,0.3-1.1,0.8-1.3,1.4
						c-0.3,0.7-0.5,1.7-0.1,2.3c0.3,0.5,1.3,0.7,2,0.7c1.6,0.1,2.2-1,2.4-2.5C507.1,583.7,508.1,583,510.7,583.1z M528.2,600.4
						c-0.9-1.4-1.8-1.4-3.8,0.1c-2.3,1.8-3.3,1.5-4.5-1c-0.3-0.6-1.2-1-1.8-1.1c-0.4-0.1-1.2,0.3-1.4,0.7c-0.9,1.7,0.1,4.4,2,5.8
						c2,1.4,3,1.3,5-0.5C525.2,603,526.6,601.8,528.2,600.4z M511,611.7c0.4-0.1,1.4-0.1,2.1-0.6c0.7-0.5,1.5-1.4,1.6-2.2
						c0-0.7-0.7-1.8-1.4-2.1c-1.5-0.6-3.2-1-4.8-1.1c-1.8-0.1-2.5,0.9-2.3,2.7C506.4,610.4,508.1,611.7,511,611.7z M517.2,590.8
						c3.1,2,7.5,0.7,9-2.4c1.5-3.2,1.9-6.7,1.2-10.2c-0.3-1.7-1.3-3-3.1-3.2c-1.9-0.2-3.8-0.4-5.6-0.1c-2.3,0.4-3.6,2.2-4.5,4.3
						c0.7-0.2,1.4-0.5,1.8-1c2.2-2.3,4.9-2.4,7.8-1.9c1.9,0.4,3,1.5,3,3.5c-0.1,2-0.3,4.1-0.8,6.1c-0.8,3.1-2.8,4.5-6,4.7
						C519.1,590.7,518.2,590.7,517.2,590.8z M540.6,609.3c0-1.9-0.4-2.4-2.1-2.4c-2.1-0.1-3.9,0.9-5.2,2.4c-0.7,0.8-0.5,1.7,0.4,2.3
						c1.6,1.2,3.4,1,5.1,0.3C540,611.4,540.7,610.5,540.6,609.3z M516.8,606c-0.1-0.6-0.2-0.9-0.3-1.1c-1.2-3.1-4-4-6.8-4.6
						c-2-0.4-3.4,0.1-3.6,1.1c-0.2,1.2,1.2,2.2,3.1,2.6c1.8,0.3,3.7,0.9,5.5,1.4C515.3,605.4,515.9,605.7,516.8,606z M540.6,600.4
						c-0.6-1-0.9-2.2-1.5-2.4c-0.8-0.2-2.2,0.1-2.8,0.7c-0.8,0.8-1.4,2.1-1.5,3.3c-0.1,0.7,0.8,1.8,1.5,2.3c0.5,0.3,1.7-0.1,2.2-0.6
						C539.4,602.8,539.9,601.6,540.6,600.4z M540.9,558.3c0.1-1.8-1-3.7-2.2-4.1c-0.4-0.1-1.3,0.3-1.4,0.6c-0.4,1.4-0.6,2.8-0.7,4.2
						c0,0.7,0.4,1.7,0.9,2.1c1,0.6,1.9-0.1,2.5-1C540.4,559.4,540.7,558.6,540.9,558.3z M520.2,565c0.1-0.6,0.3-1.1,0.1-1.6
						c-0.7-2.5,1.2-3.7,3.1-4.3c1.9-0.6,2.3,0.9,2.9,2.1c0.1,0.1,0.2,0.2,0.4,0.4c0-0.5,0.1-1,0.1-1.4c0-2.1-0.7-2.9-2.8-2.5
						c-1.4,0.3-2.8,0.8-3.9,1.5C518.3,560.4,518.4,563.5,520.2,565z M500.4,566.7c1,1.8,2.2,3.3,4.1,3.8c0.6,0.2,1.5-0.3,2.1-0.6
						c0.2-0.1,0.3-1,0.1-1.4C505.8,566.9,502.4,565.9,500.4,566.7z M496.1,574.7c0.1-0.2,0.2-0.4,0.3-0.6c-1.3-1-2.5-2.5-3.9-2.7
						c-1.4-0.2-2.8,1.1-4,2.9C491.3,574.5,493.7,574.6,496.1,574.7z M529.8,612.3c0.3-0.3,1-0.9,1.1-1.5c0.2-1-1-2.1-2-2
						c-1,0.1-1.8,0.5-1.7,1.6C527.1,611.9,528.1,612.2,529.8,612.3z M520.6,610.1c-1.1-0.8-1.7-1.6-2.4-1.8
						c-0.9-0.2-1.6,0.5-1.5,1.5c0.1,1.2,0.9,1.8,2,1.7C519.2,611.4,519.7,610.8,520.6,610.1z M525.2,598.3c0-0.2,0.1-0.5,0.1-0.7
						c-3.3-1.2-6.8-1-10.2-1.7c0,0.2-0.1,0.4-0.1,0.6C518.4,597.2,521.8,597.8,525.2,598.3z M495.2,583.3c0.9-0.7,1.5-1.2,2.1-1.7
						c-0.6-0.5-1.2-1.1-1.8-1.3c-0.9-0.2-1.8,0.3-1.7,1.3C493.8,582.2,494.6,582.6,495.2,583.3z M521.3,563.4
						c1.2-0.7,2.2-1.1,3.1-1.8c0.3-0.2,0.4-0.8,0.3-1.1c-0.1-0.3-0.7-0.5-1-0.5C522.2,560,521.1,561.2,521.3,563.4z M525.7,610.6
						c-1-0.7-1.5-1.4-2.1-1.4c-0.4,0-1.3,0.8-1.3,1.3c0,0.6,0.8,1.7,1.1,1.6C524.1,612,524.7,611.3,525.7,610.6z M491,579.9
						c-0.9,0.8-1.5,1.3-2.1,1.9c0.5,0.4,1.1,1.1,1.6,1.1c0.7-0.1,1.3-0.7,1.9-1.1C492,581.2,491.6,580.7,491,579.9z M505.3,599.2
						c0,0.2,0.1,0.3,0.1,0.5c2-0.4,3.9-0.9,5.9-1.3c-0.1-0.2-0.1-0.5-0.2-0.7C509.1,597.5,507.1,598,505.3,599.2z M500.7,583.4
						c0.7-0.6,1.3-1,1.8-1.4c-0.5-0.4-1.1-1-1.6-1c-0.6,0-1.2,0.6-1.7,0.9C499.6,582.3,500,582.8,500.7,583.4z M505.1,597.7
						c1.7-0.6,3.3-1.1,5-1.7C507.3,595.8,505.7,596.3,505.1,597.7z M513.9,597.4c-0.5,0.5-0.9,0.9-1.3,1.3c0.5,0.3,0.9,0.9,1.4,0.9
						c0.5,0,1-0.5,1.4-0.9C515,598.4,514.5,598,513.9,597.4z M523.5,599.9c0-0.2,0-0.3,0-0.5c-0.6-0.2-1.2-0.5-1.8-0.6
						c-0.2,0-0.5,0.5-0.7,0.8c0.5,0.3,1,0.7,1.5,0.8C522.8,600.4,523.2,600.1,523.5,599.9z M491.5,570.5c-0.6-0.5-1-0.8-1.3-1.1
						c-0.3,0.3-0.7,0.7-0.8,1.1c-0.1,0.3,0.4,0.7,0.6,1.1C490.4,571.2,490.9,570.9,491.5,570.5z"/>
					<path class="st2" d="M424.3,575.1c-0.1,1.9-1,2.9-2.2,2.9c-1.3,0-2.4-1.2-2.3-2.5c0.1-1.6,1.4-3,2.7-3
						C423.7,572.6,424.4,573.6,424.3,575.1z M423,573.7c-0.2-0.1-0.3-0.1-0.5-0.2c-0.8,0.8-1.7,1.6-1.1,2.9c0.2,0.1,0.4,0.2,0.6,0.2
						C422.4,575.7,422.7,574.7,423,573.7z"/>
					<path class="st2" d="M419.6,582.4c0-1.6,1.1-3.3,2.2-3.2c1.5,0.1,1.6,1.5,1.7,2.6c0.1,1.5-1,3.2-2.1,3.1
						C420.6,584.9,419.7,583.6,419.6,582.4z M422.2,580.7c-0.2,0-0.4-0.1-0.6-0.1c-0.8,1-1.1,1.9-0.1,3c0.2,0,0.4,0,0.6,0
						C422.1,582.6,422.1,581.7,422.2,580.7z"/>
					<path class="st2" d="M461.1,579.1c0,1.2-1.6,3.1-2.6,3.1c-1,0-2-1.4-2-2.7c0.1-1.4,1.1-2.6,2.3-2.6
						C460.1,576.9,461.2,577.9,461.1,579.1z M460.4,579.1c-0.8-0.5-1.3-1-1.5-0.9c-0.6,0.3-1.1,0.8-1.4,1.3
						c-0.1,0.1,0.8,1.1,0.9,1.1C459,580.3,459.5,579.8,460.4,579.1z"/>
					<path class="st2" d="M484.5,608.7c2.4-3.1,15.6-3.8,18.3-1c-0.5,0-0.9,0.1-1.2,0c-1.3-0.3-2.5-0.5-2.7,1.4
						c0,0.3-0.7,0.8-1.2,0.9c-2,0.2-4.1,0.3-6.1,0.3c-0.5,0-1.3-0.9-1.4-1.5c-0.3-1.2-0.9-1.4-2-1.1
						C487,607.9,485.9,608.3,484.5,608.7z M498.1,608.4c-1-1.1-1.9-1.2-2.9-0.6c-0.2,0.1-0.1,1,0.1,1.2
						C496.4,609.9,497.2,609.1,498.1,608.4z M490.7,609.6c1.2-0.3,2.1-0.5,3.1-0.8C492.4,607.4,491.5,607.6,490.7,609.6z"/>
					<path class="st2" d="M536,587.8c1-2.7,1.9-5,2.8-7.6c1.1,3.2-1.7,5.7-1.1,8.9C537,588.6,536.3,588,536,587.8z"/>
				</g>
			</g>
			<g id="rAwxYb_1_">
				<g>
					<g>
						<g>
							<path class="st2" d="M614.4,591.4c0.7,0.6,1.6,1.2,2.3,1.9c1.2,1.2,1.2,2.7,0.9,4.1c-0.2,0.8-0.6,1.6-0.9,2.4
								c-0.1,0.2-0.1,0.6,0.1,0.7c1.5,2.1,1.3,4.3-0.4,6.2c-0.1,0.1,0,0.4,0,0.6c0.3,0.7,0.8,1.3,0.8,2c0,2.1-0.7,3.9-2.6,5.1
								c-1.2,0.7-2.6,1-4,1.1c-1.5,0.1-3,0.1-4.4,0c-0.8-0.1-1.7-0.5-2.5-0.8c-0.6-0.2-0.6-0.8-0.5-1.3c0.2-2.8,1.5-4.5,3.4-6.2
								c-0.5-0.6-1-1.2-1.4-1.8c-0.1,0.2-0.3,0.4-0.3,0.7c-0.3,2.1-1.3,3.7-2.5,5.4c-1.3,1.9-3,3-5.1,3.7c-2,0.7-4.5-0.4-4.9-2.4
								c-5.7,3.6-11.3,3.5-16.7-0.9c0.1,1-0.2,1.9-1.1,2.3c-0.8,0.4-1.7,0.7-2.6,0.8c-3.8,0.2-7.5,0.3-11.3,0.3
								c-1.9,0-3.9-0.3-5.7-0.9c-2.3-0.7-3.8-2.4-4.6-4.7c-0.9-2.7-1.1-5.5-1-8.3c0-2.9,0-5.7,0.2-8.6c0.1-1.7,0.3-3.4,1.3-4.9
								c0.3-0.4,0.5-0.7,0.8-1c-1.3-1.3-1.7-2.9-1.9-4.7c-0.7-5.8-0.2-11.5-0.1-17.3c0-1.8,0.3-3.6,0.8-5.2c0.8-2.6,2.2-4.8,4.9-6
								c2.3-1.1,4.7-1.4,7.2-1.5c2.7-0.1,5.4-0.1,8.1,0c2.9,0.1,5.8,0.4,8.7,0.7c1.1,0.1,2.2,0.7,3.2,1.1c1.4-0.4,2.9-1,4.4-1.2
								c2.7-0.4,5.4-0.7,8-0.8c3-0.1,6.1,0,9.1,0.8c2,0.5,4,0.9,5.9,1.6c3.3,1.3,6,3.3,7.3,6.7c0.4,1.1,0.7,2.3,0.7,3.5
								c0.1,2.5,0.1,5.1,0,7.6c-0.1,1.6-0.2,3.3-0.6,4.9c-0.1,0.6-0.2,1.1,0.1,1.6c1.5,3.4,0.9,6.7-0.9,9.8
								C615.7,589.6,615,590.6,614.4,591.4z M604.5,581.1c0.7,0.3,0.8-0.1,0.8-0.7c0-2.7,0-5.4,0-8.1c0-1.1,0.4-1.5,1.2-1.5
								c0.8,0,1.1,0.4,1.1,1.5c0,2.3,0,4.6,0,6.9c0,0.4-0.1,0.9,0.5,0.9c0.2,0,0.4-0.6,0.4-0.9c0-2.3,0-4.7,0-7c0-0.8,0-1.7,0-2.5
								c0-0.8,0.6-1.5,1.3-1.5c0.7,0,1.1,0.5,1.1,1.4c0,2.6,0,5.2,0,7.8c0,0.4,0,1,0.6,0.9c0.2,0,0.4-0.6,0.4-0.9c0-3.1,0-6.1,0-9.2
								c0-1,0.3-1.3,1.3-1.3c0.7,0,1.1,0.5,1.1,1.4c0,2.5,0,5,0,7.4c0,0.2,0.2,0.5,0.3,0.7c0.1-0.2,0.4-0.4,0.4-0.6
								c0.1-1.6,0.3-3.2,0.3-4.8c0-1.8-0.1-3.5-0.1-5.3c0-1.8-0.2-3.6-1.2-5.1c-1.6-2.5-4-3.8-6.7-4.7c-0.2-0.1-0.6,0-0.6,0.2
								c-0.5,1.5-1.5,2.7-2.5,3.9c-1.2,1.3-2.4,2.7-3.9,3.7c-1.6,1.1-3.4,1.9-4.9,2.6c1.1,0.3,2.6,0.7,4,1.1c2.1,0.7,3.4,2.3,4,4.3
								c0.7,2.4,0.9,4.9,0.9,7.4C604.5,579.8,604.5,580.4,604.5,581.1z M580.7,556.3c0-0.1,0-0.1,0-0.2c-0.4-0.2-0.7-0.5-1.1-0.6
								c-1.7-0.3-3.4-0.6-5.2-0.7c-3.6-0.2-7.2-0.3-10.8-0.2c-2,0-3.9,0.3-5.9,0.7c-3.1,0.6-4.8,2.9-5.4,5.8
								c-0.4,1.9-0.5,3.9-0.6,5.9c-0.1,4.2-0.1,8.5,0,12.7c0,1.5,0.3,3,0.5,4.4c0.1,0.5,0.4,1.2,1.1,1.1c0.3,0,0.8-0.5,0.9-0.9
								c0.3-1,0.5-2.1,0.6-3.1c0.1-1.7,0.1-3.4,0.1-5.1c0.1-3.6,0.2-7.1,0.9-10.6c0.7-3.5,2.3-6.1,5.7-7.4c2.6-1,5.3-1.6,8.1-1.7
								c3.1,0,6.2,0,9.3,0C579.5,556.5,580.1,556.3,580.7,556.3z M593.4,605.6c-0.2-0.9-0.3-1.8-0.5-2.7c-0.5-2.1-2.1-3.3-4-3.7
								c-2-0.4-4.1-0.6-6.3-0.3c-2.6,0.4-4.7,1.3-6.3,3.5c-1.3,1.8-1.4,3.9-0.6,5.8c1.1,2.8,3.5,4.3,6.4,4.9
								c2.2,0.4,4.5,0.3,6.7-0.8C591.6,611,593.3,608.8,593.4,605.6z M571.6,588.8c-0.1,0-0.2,0-0.3-0.1c-0.1,0.1-0.3,0.2-0.3,0.3
								c-0.2,0.8-0.4,1.5-0.6,2.3c-0.1,0.6-0.2,1.1-1,1c-0.8,0-0.6-0.6-0.6-1.1c0-0.5,0.1-1.1,0-1.6c-0.1-0.5-0.2-1.2-1-1.2
								c-0.7,0-1,0.4-1,1.1c-0.1,0.8-0.4,1.6-0.5,2.4c-0.1,0.7-0.4,1.2-1.1,1.1c-0.8,0-1-0.6-1-1.4c0-0.8,0.1-1.6,0-2.4
								c0-0.3-0.4-0.7-0.6-0.7c-0.4,0-0.9,0.2-1,0.5c-0.3,0.7-0.6,1.5-0.6,2.3c-0.1,2.9-0.1,5.8,0,8.7c0.1,2.4,0.7,4.1,3.3,4.4
								c1.6,0.2,3.2,0.1,4.5-1.1c1.4-1.3,1.8-2.9,1.8-4.7c0-0.9,0.1-1.8,0.1-2.7C571.6,593.6,571.6,591.2,571.6,588.8z M577,579
								c2.3,0.1,3.8-1.9,4.3-3.7c0.4-1.7,0.9-3.3,2-4.7c1.9-2.4,4.6-3.5,7.5-4c-5.6-1.8-6.6-5.9-5.4-11.1c-0.8,0.4-1.5,0.8-2.1,1.3
								c-1.5,1.7-2.3,3.7-3,5.7c-1.1,3.1-1.9,6.3-2.7,9.5C577,574.2,576.8,576.6,577,579z M579.3,560.2c-1.2-1.1-2.8-1.4-4.3-1.5
								c-3.3-0.3-6.6,0-9.9,0.8c-1.6,0.4-3.2,1-4.5,1.9c-1.7,1.2-2.2,3.2-2.5,5.1c-0.4,2.5-0.4,5-0.6,7.6c-0.1,2.6-0.3,5.2-0.3,7.9
								c0,1.1,0.2,2.2,0.3,3.3c0,0.2,0.4,0.5,0.6,0.6c0.3,0,0.7-0.1,0.9-0.3c0.3-0.4,0.5-0.9,0.5-1.3c0.2-2.3,0.4-4.5,0.5-6.8
								c0.2-3-0.3-6,0.5-9c0.5-2,1.2-3.8,2.8-5.1c1.8-1.6,4.1-1.9,6.4-2c2.2,0,4.3,0.1,6.5,0.1C577.3,561.3,578.5,561.3,579.3,560.2
								z M573.1,612.2c-0.1-0.1-0.1-0.2-0.2-0.3c-1.3-0.1-2.5-0.2-3.8-0.3c-1.8,0-3.6,0-5.5,0c-1.1,0-2.2-0.2-3.3-0.5
								c-2.8-0.7-4.3-2.7-5-5.3c-0.5-1.7-0.6-3.6-0.7-5.4c-0.2-3.4-0.3-6.7-0.4-10.1c0-0.6,0-1.1-0.8-1.2c-0.8-0.2-1.2,0.5-1.3,1.1
								c-0.3,1.8-0.7,3.7-0.7,5.5c-0.1,3.6,0,7.2,0.2,10.8c0.1,1.3,0.6,2.7,1.2,4c1,2.1,3.1,2.5,5.1,2.7c2.2,0.2,4.4,0.2,6.6,0.2
								c2,0,3.9-0.1,5.9-0.2c0.7,0,1.4-0.3,2.1-0.5C572.8,612.7,573,612.4,573.1,612.2z M588.1,588c0,0.2,0,0.3,0,0.5
								c0.5,0.2,1.1,0.5,1.6,0.6c1.1,0.1,2.3,0.3,3.3,0c2.6-0.9,5-2.2,7.6-3.2c1.3-0.5,2.8-0.7,4.2-0.8c1.3-0.1,2.3,0.7,2.6,2
								c0.2,1,0.2,2,0.3,3.1c0.1,2,0.1,2.1,2.2,1.7c0.1,0,0.2-0.1,0.4-0.2c1.9-1,3.1-2.6,4.1-4.4c1.3-2.5,1.8-5,0.8-7.6
								c-0.1-0.3-0.4-0.5-0.7-0.7c-0.1,0-0.4,0.3-0.6,0.5c-0.6,0.7-1.3,1.1-2.2,1c-0.4,0-0.7,0.1-1,0.5c-0.6,1-1.6,1.5-2.8,1.4
								c-0.3,0-0.8,0.2-1,0.4c-1,0.8-2,1-3.1,0.5c-0.2-0.1-0.3-0.2-0.5-0.1c-1.2,0.3-2.4,0.7-3.4,1.6c-2.1,1.9-4.7,2.8-7.5,2.9
								c-0.9,0-1.9-0.1-2.8,0C589.1,587.6,588.6,587.9,588.1,588z M577.7,563.9c-1-0.8-2.2-0.9-3.4-1.1c-0.7-0.1-1.5,0-2.2-0.1
								c-1.9-0.2-3.7-0.1-5.5,0.4c-2.5,0.7-3.7,2.5-4.4,4.8c-0.6,1.7-0.7,3.5-0.7,5.3c0.1,3.6-0.5,7.3,0.2,10.9
								c0.1,0.7,0.2,1.6,1.2,1.8c0.9,0.2,1.1-0.6,1.3-1.2c0.1-0.2,0.1-0.6,0.1-0.8c0-4.2-0.1-8.3,0-12.5c0.1-3,1.5-5.2,4.7-5.8
								c2.2-0.4,4.5-0.4,6.7-0.6C576.4,565,577.3,565,577.7,563.9z M560.5,597.4c0.1,0,0.1,0,0.2,0c-0.2-2-0.3-4.1-0.5-6.1
								c-0.1-0.7-0.3-1.4-0.7-2c-0.2-0.3-0.7-0.5-1.1-0.6c-0.2,0-0.6,0.4-0.6,0.6c-0.2,0.7-0.4,1.4-0.5,2.1
								c-0.1,2.8-0.3,5.5-0.3,8.3c0,2.2,0.2,4.4,1,6.5c0.5,1.4,1.5,2.5,2.9,2.9c3.4,0.9,6.9,0.8,10.4,0.2c0.2,0,0.6-0.5,0.6-0.5
								c-0.1-0.3-0.4-0.7-0.7-0.8c-0.8-0.2-1.7-0.3-2.5-0.2c-1.6,0.1-3.2,0.2-4.7-0.5c-2.2-1.1-2.9-3.2-3.3-5.4
								C560.5,600.3,560.6,598.8,560.5,597.4z M600.6,591.2c-0.1,0.5-0.2,0.9-0.2,1.3c-0.3,1.3-0.9,1.6-2,0.8
								c-0.5-0.3-0.9-0.7-1.2-0.9c-0.2,0.8-0.4,1.5-0.6,2.1c-0.2,0.7-0.7,0.7-1.2,0.2c-0.7-0.6-1.4-1.3-2.1-1.8
								c-0.5,0.7-1,1.3-1.6,2c-0.4,0.4-0.9,0.5-1.3,0c-0.4-0.5-0.8-1.1-1.3-1.6c-0.1-0.1-0.4-0.1-0.5,0c-0.5,0.5-0.9,1.1-1.3,1.6
								c-0.4,0.4-0.9,0.5-1.2-0.1c-0.4-0.6-0.8-1.3-1.2-1.9c-0.1,0.2-0.3,0.5-0.4,0.8c-0.2,0.3-0.3,0.6-0.5,0.9
								c-0.4,0.8-0.9,0.9-1.4,0.1c-0.4-0.6-0.7-1.2-1.1-1.7c-0.5,0.9-1,1.7-1.4,2.3c-1.3-0.1-2.2-0.2-3.1-0.2
								c-0.3,0-0.6,0.4-0.8,0.6c0.3,0.2,0.5,0.6,0.8,0.6c0.8,0.1,1.6,0.2,2.4,0.2c4.8,0,9.6-0.1,14.5-0.1c1.3,0,2.7-0.2,4-0.3
								c2.2-0.3,4.2-1,6-2.2c1.6-1.2,2.8-3.4,2.5-5.5c-0.1-0.9-0.7-1.5-1.4-1.5c-0.8,0-1.6,0-2.4,0.2c-2.4,0.6-4.6,1.7-6.9,2.8
								c-1.5,0.8-3.2,1.4-4.9,1.1c-1.1-0.2-2.2-0.6-3.3-0.8c-1.9-0.3-3.8-0.7-5.8-0.8c-1.7-0.1-3.4,0.2-4.9,1.2
								c-0.5,0.4-1.1,0.8-1,1.8c0.5-0.3,0.9-0.6,1.3-0.9c1.5-1.1,3.2-1.7,5.1-1.5c2.5,0.3,4.9,0.8,7.3,1.2c2.8,0.4,5.5,0,7.9-1.4
								c2-1.1,4.2-1.9,6.6-1.8c0.6,0,1.1,0.1,1.2,0.7c0,0.6-0.6,0.7-1.1,0.7c0,0-0.1,0.1,0,0c-0.2,1-0.4,1.9-0.7,2.7
								c-0.3,0.9-0.8,0.8-1.6,0.2C601.3,591.8,601,591.5,600.6,591.2z M601.3,577.8c0.9-0.6,0.9-0.6,0.9-1.6
								c-0.1-1.2-0.3-2.4-0.6-3.6c-0.1-0.5-0.4-1.1-0.8-1.5c-1.4-1.8-3.5-2.3-5.6-2.5c-1.4-0.1-2.8,0.1-4.3,0.2
								c-1.5,0.1-2.7,0.7-3.9,1.5c-1.7,1.1-2.7,2.7-3.1,4.8c-0.3,1.5-0.3,2.9,0,4.3c0.1,0.4,0.6,1,1,1c0.4,0,1-0.5,1.1-0.9
								c0.4-1.3,0.7-2.7,1.1-4c0.2-0.7,0.4-1.5,0.9-2.1c1.6-1.8,3.5-2.7,6-2.4c2.2,0.3,3.7,1.3,4.6,3.3
								C599.2,575.8,599.6,577.2,601.3,577.8z M569.9,588.1c1.3-1.2,2.2-1,2.8,0.4c0.2,0.4,0.3,0.8,0.3,1.2c0,3.4,0,6.8-0.2,10.2
								c-0.1,1.1-0.5,2.4-1.1,3.3c-1.5,2.2-3.8,2.8-6.3,2.7c-0.2,0-0.3-0.1-0.5-0.1c-0.2,0-0.3,0-0.5,0c1.4,0.9,2.9,0.6,4.4,0.6
								c1.5,0,3-0.3,4.4,1.2c-0.3-2.3-0.1-4.3,1.1-6.1c1.1-1.7,2.7-2.9,4.5-3.8c-0.8-0.2-1.6-0.4-2.3-0.6c-1.2-0.3-1.7-0.9-1.6-1.8
								c0.1-1,1-1.8,2-1.9c0.4,0,0.7,0,1.2,0c-0.2-0.4-0.3-0.7-0.4-1.1c-0.4,0.3-0.8,0.7-1.2,0.7c-0.6,0.1-1.3,0.1-1.8-0.1
								c-0.7-0.3-0.7-1.1-0.4-1.7c0.3-0.7,0.8-1.3,1.2-2c-1.7-0.5-2.2-2-2.3-3.5c-0.1-2,1-3.5,2.7-4.4c0-0.1,0-0.2-0.1-0.3
								c-1-0.8-1.2-1.8-1.2-2.9c0-1.7,0-3.4,0-5.1c-0.2,0.2-0.6,0.5-0.7,0.8c-0.3,1-0.8,2.1-0.9,3.2c-0.1,2.3,0,4.7,0,7
								c0,0.5-0.1,1-0.2,1.4c-0.4,1.3-1.2,1.9-2.3,1.7c-0.6-0.1-1.1-0.7-1.7-1.1c-0.2,0.3-0.6,0.7-0.8,1
								C568.6,587.4,569.2,587.7,569.9,588.1z M592.9,565.4c0.5-0.1,1.1-0.3,1.6-0.4c1.6-0.2,3-0.9,4.3-1.8c1.5-1.1,3-2.3,4.2-3.6
								c1-1.1,1.8-2.4,2.6-3.6c0.4-0.7,0.2-1.3-0.5-1.5c-0.5-0.1-1.4-0.1-1.7,0.2c-1,1.1-2,2.3-2.9,3.5c-1.7,2.3-3.3,4.6-6.4,5.1
								c-1.7,0.3-3.3,0.1-4.6-1.3c-1-1.1-0.9-2.4-0.8-3.6c0.1-1.1,0.3-2.2,0.4-3.3c0-0.3-0.2-0.7-0.4-1c-0.4,0.2-1,0.2-1.2,0.6
								c-0.9,1.3-1.2,2.8-1.1,4.4c0,1.5,0.4,3,1.4,4.2C589.1,564.9,591,565.1,592.9,565.4z M565.5,576.8
								C565.5,576.8,565.5,576.8,565.5,576.8c0.1,1.7,0,3.4,0.1,5.1c0.1,1.1,0.4,2.2,0.7,3.2c0.1,0.3,0.4,0.5,0.7,0.6
								c0.1,0,0.5-0.3,0.6-0.5c0.2-0.8,0.4-1.6,0.4-2.4c0.1-2,0-4,0-6.1c0-1.7,0.2-3.5,0.8-5.1c0.6-1.5,1.6-2.4,3.2-2.7
								c1.1-0.2,2.2-0.5,3.2-0.8c0.4-0.1,0.7-0.4,1.1-0.6c-0.4-0.2-0.8-0.6-1.3-0.7c-2.1-0.2-4.1-0.6-6.2-0.1
								c-1.4,0.3-2.9,1.9-3,3.3C565.6,572.4,565.6,574.6,565.5,576.8z M594.5,613c1.5,0.4,2.7,0.4,3.7-0.4c0.8-0.6,1.5-1.4,2.2-2.1
								c1.2-1.5,1.9-3.3,2.3-5.2c0.3-1.4,0.2-3,0-4.5c-0.1-1-0.5-2.1-1.5-2.6c-0.6-0.3-1.3-0.3-2-0.3c-0.1,0-0.2,0.9-0.3,1.4
								c0,0.1,0.1,0.3,0.1,0.4c0,1.4,0.1,2.9-0.1,4.3c-0.2,1.9-1.3,3.5-2.2,5.1C596,610.5,595.2,611.8,594.5,613z M584.8,582.4
								c0-0.1-0.1-0.2-0.1-0.3c-0.8-0.2-1.5-0.5-2.3-0.5c-1.7,0-3.4-0.1-5.1,0.4c-2,0.6-3.3,2.7-2.9,4.7c0.3,1.7,1.5,2,2.7,1.7
								c1.8-0.5,3.7-0.7,5.6-0.6c0.8,0,1.5,0,2.5,0c-0.3-0.3-0.4-0.4-0.5-0.5c-1.1-0.3-2.2-0.5-3.3-0.7c-0.5-0.1-1.1-0.1-1-0.7
								c0.1-0.6,0.7-0.5,1.1-0.5c0.2,0,0.3,0,0.5,0c1,0,2-0.1,3-0.1c0-0.1,0-0.3,0-0.4c-0.8-0.2-1.5-0.5-2.3-0.7
								c-0.7-0.2-1.5-0.2-2.2-0.4c-0.2-0.1-0.3-0.4-0.5-0.6c0.2-0.1,0.4-0.4,0.7-0.4c0.9,0,1.8,0,2.7,0
								C583.8,582.7,584.3,582.5,584.8,582.4z M590.5,583c-0.8,0.1-1.8,0.2-2.8,0.4c-0.4,0.1-0.8,0.4-0.6,0.9
								c0.3,0.6,0.6,1.3,1.3,1.5c0.8,0.2,1.6,0.6,2.5,0.6c1.5,0,3,0.2,4.4-0.2c1.5-0.5,2.9-1.4,4.2-2.4c1.1-0.8,2-1.9,2.3-3.3
								c0.2-1-0.2-1.4-1.1-1.1c-0.9,0.4-1.7,0.9-2.5,1.4C595.9,582.2,593.6,583.4,590.5,583z M589.8,573.4c-1.4,1.2-1.8,2.8-0.9,4.1
								c1.5,2.4,4.5,3.2,7.1,1.4c2-1.4,2-3.7,0.7-5.1c-0.3-0.4-0.6-0.4-0.9,0c-0.7,0.7-1.6,1.4-2.3,2.2c-0.4,0.4-0.6,0.3-0.9,0
								C591.7,575.1,590.7,574.3,589.8,573.4z M575.6,570.8c0-0.1,0-0.3-0.1-0.4c-1.1,0-2.1,0-3.2,0c-1,0-1.7,0.5-2,1.4
								c-0.4,1.4-0.8,2.9-1,4.3c-0.2,1.7-0.1,3.5,0,5.2c0.1,1.4,0.5,2.7,0.9,4.1c0,0.2,0.4,0.5,0.6,0.5c0.2,0,0.5-0.3,0.6-0.6
								c0.1-0.5,0.2-1,0.2-1.4c0-2.2,0-4.5,0-6.7c0.1-2,0.5-3.9,2.2-5.2C574.4,571.5,575,571.2,575.6,570.8z M615.5,596.5
								c-0.1-2-0.9-2.8-2.9-2.8c-2.3,0-4.2,1.2-5.7,2.9c-0.3,0.3-0.7,0.9-0.1,1.3c0.4,0.3,0.9,0.5,1.5,0.6c1.2,0.3,2.5,0.5,3.8,0.7
								c1.1,0.1,2.2,0.2,2.8-0.9C615.2,597.8,615.3,597.2,615.5,596.5z M605.2,613.2c2.1,0,4.1,0.1,6,0c2.3-0.1,3.5-1.3,3.4-3.5
								c0-0.3-0.3-0.7-0.5-0.8c-0.5-0.2-1.1-0.3-1.6-0.4c-1.2-0.3-2.5-0.3-3.6,0.2C607,609.4,605.9,611.1,605.2,613.2z M611.5,606.2
								c2.1-0.1,2.4-0.2,3.3-1.3c0.7-0.7,0.6-1.6,0.4-2.4c-0.1-0.3-0.8-0.7-1.3-0.7c-1.1-0.2-2.3-0.2-3.5-0.2
								c-0.7,0-1.5,0.3-2.2,0.5c-0.8,0.2-1.1,0.9-1,1.6c0.1,0.8,0.3,1.6,1.2,1.9C609.4,605.9,610.5,606,611.5,606.2z M597.1,553.3
								c-1.5,0.2-2.8,0.4-4.1,0.6c-1.4,0.2-2.3,1-2.5,2.4c-0.1,1.2-0.2,2.4-0.3,3.6c-0.1,0.8,0.4,1.3,0.9,1.8
								C593.7,559.4,595.5,556.6,597.1,553.3z M592.5,562.2c1.1,0.2,2.2-0.1,3.2-0.7c2.1-1.2,3.3-3.1,4.3-5.2
								c0.4-0.7,0.4-1.6-0.5-2.2c-0.7-0.5-1.3-0.4-1.7,0.3c-0.4,0.7-0.8,1.5-1.3,2.2C595.2,558.5,593.9,560.4,592.5,562.2z
								 M596.5,597.5c-1.8,0-3.6,0-5.3,0c3.6,1.6,4.5,4.8,4.6,8.3C597.5,603.1,596.2,600.2,596.5,597.5z M596.2,580.6
								c0-0.1,0-0.1,0-0.2c-3.1,1.4-5.9,0.9-8.2-1.7c-0.3,0.5-0.5,1.1-0.8,1.6c-0.3,0.5-0.8,0.9-1.1,1.2c0,0.4,0,0.9-0.2,1.2
								c-0.2,0.3-0.6,0.5-0.9,0.8c0.4,0.2,0.7,0.4,1,0.6c0.1-1.2,0.5-1.8,1.4-2c0.6-0.1,1.3-0.2,2-0.2c1.7,0,3.4,0.2,5-0.5
								C595,581.2,595.6,580.9,596.2,580.6z M590.6,572.9c0.8,0.8,1.5,1.5,2.4,2.3c0.8-0.8,1.7-1.6,2.5-2.4
								C593.8,572.1,592.3,571.8,590.6,572.9z M606.4,593.9c-0.4,0-0.7-0.2-0.8-0.1c-1.2,0.8-2.3,1.6-3.4,2.3c0.6,0.6,1.3,1.3,2.1,2
								C603.9,596.2,605.2,595.2,606.4,593.9z M560.8,588.5c0.5-0.5,1-0.9,1.4-1.3c-0.4-0.4-1-1-1.6-1.5c-0.5,0.5-0.9,1-1.3,1.4
								C559.8,587.6,560.4,588.1,560.8,588.5z M581.7,590.8c0.5,1.1,0.9,2,1.3,2.9c0.1,0,0.2,0,0.3,0c0.4-0.8,0.8-1.6,1.2-2.4
								C583.6,591.2,582.8,591.1,581.7,590.8z M579.5,594.2c0.1,0,0.2-0.1,0.3-0.1c0.3-1,0.6-1.9,1.1-3.2c-1,0.4-1.8,0.7-2.7,1
								C578.7,592.7,579.1,593.4,579.5,594.2z M602.3,591.7c0.1-0.1,0.2-0.1,0.3-0.2c0.1-0.8,0.2-1.6,0.3-2.4
								c-0.9,0.1-1.6,0.2-2.6,0.3C601.1,590.3,601.7,591,602.3,591.7z M597.2,591.1c0.6,0.5,1.1,1,1.7,1.4c0.4,0.3,0.6,0.2,0.6-0.4
								c0-0.7,0-1.4,0-2.3C598.8,590.3,598.1,590.6,597.2,591.1z M585.5,591.6c0.4,0.8,0.7,1.4,1,2.1c0.1,0.1,0.5,0.1,0.6,0.1
								c0.4-0.5,0.7-1,1.2-1.7C587.3,591.9,586.4,591.8,585.5,591.6z M586.1,585.2c0.1,0.1,0.2,0.2,0.3,0.3c-0.4,0.3-0.7,0.6-1,0.8
								c0.8,0.1,1.1,1.1,1.3,2.1c0.5-0.7,0.8-1.3,1.1-1.7C587.3,586.3,586.7,585.8,586.1,585.2z M565,586.1
								c-0.3,0.3-0.8,0.7-1.1,0.9c0.6,0.5,1.2,0.9,1.7,1.4c0.3-0.4,0.7-0.8,0.9-1.1C566.1,587,565.6,586.6,565,586.1z M596.1,591.6
								c-0.8,0.2-1.4,0.3-2.1,0.5c-0.1,0.1-0.1,0.3-0.2,0.4c0.6,0.5,1.1,1.1,1.7,1.6c0.1-0.1,0.2-0.1,0.3-0.2
								C596,593.2,596.1,592.4,596.1,591.6z M589.7,592.4c0.5,0.7,0.9,1.2,1.4,1.9c0.5-0.7,0.9-1.2,1.3-1.9
								C591.4,592.4,590.7,592.4,589.7,592.4z M556.3,588.3c0.4-0.4,0.8-0.8,1.1-1.1c-0.3-0.3-0.7-0.7-1.2-1.1
								c-0.3,0.3-0.6,0.7-0.9,1C555.7,587.6,556,588,556.3,588.3z M604.6,599.1c0.2,0.9,0.4,1.8,0.6,2.7c0.4-0.5,0.9-0.9,1.3-1.3
								C605.8,599.9,605.2,599.5,604.6,599.1z M582.3,578.8c-0.5,0.5-1.1,1-1.7,1.6c0.8,0,1.5,0,2.1,0
								C582.5,579.8,582.4,579.3,582.3,578.8z M599.5,578.4c-0.3-0.3-0.6-0.5-0.8-0.6c-0.6,0.7-1.1,1.4-1.7,2.1c0,0,0,0.1,0.1,0.1
								C597.9,579.4,598.7,578.9,599.5,578.4z"/>
							<path class="st2" d="M583.5,609.4c-1-0.1-2.4-0.5-3.3-2.1c-1-1.7-0.5-3.8,1.1-4.9c1.7-1.1,4.6-1.2,6.3-0.1
								c1.1,0.7,1.6,3.1,1.2,4C588.1,608.6,586.1,609.5,583.5,609.4z M584.6,608c1.2,0.1,2.2-0.4,2.9-1.8c0.6-1.2,0-2.8-1.2-3.1
								c-0.7-0.2-1.6-0.4-2.3-0.3c-1,0.2-2.1,0.5-2.5,1.7C580.7,606.3,581.7,608.1,584.6,608z"/>
						</g>
					</g>
				</g>
			</g>
		</g>
	</g>
</g>
</svg>
