<?xml version="1.0" standalone="no"?>
<!DOCTYPE svg PUBLIC "-//W3C//DTD SVG 20010904//EN"
 "http://www.w3.org/TR/2001/REC-SVG-20010904/DTD/svg10.dtd">
<svg version="1.0" xmlns="http://www.w3.org/2000/svg"
 width="100.000000pt" height="100.000000pt" viewBox="0 0 100.000000 100.000000"
 preserveAspectRatio="xMidYMid meet">

<g transform="translate(0.000000,100.000000) scale(0.100000,-0.100000)"
fill="#000000" stroke="none">
<path d="M0 501 l0 -500 500 -1 499 0 1 281 0 281 -55 -4 c-47 -4 -55 -2 -50
11 4 15 25 119 25 127 0 2 7 4 16 4 8 0 12 5 9 10 -3 6 -14 10 -23 10 -13 0
-34 -45 -87 -189 l-70 -189 -38 -4 c-21 -2 -39 -2 -41 -1 -1 2 33 106 77 233
l80 230 44 0 c41 0 43 -1 37 -25 -5 -20 -2 -25 12 -25 16 0 17 2 4 10 -10 6
-11 10 -3 10 19 0 11 23 -12 37 -22 13 -234 8 -309 -7 l-41 -8 35 -2 c19 -2
50 -4 67 -6 18 -1 35 2 39 7 8 13 84 11 84 -2 0 -6 -30 -94 -66 -195 l-67
-185 -41 3 -41 3 -39 107 c-21 59 -42 105 -46 103 -4 -2 -24 -52 -45 -110
l-38 -106 -39 3 -40 3 -67 187 -67 186 35 5 c20 2 39 2 43 -2 3 -3 25 -60 48
-126 23 -66 44 -122 46 -124 5 -5 28 52 48 117 8 29 11 50 6 47 -6 -4 -10 5
-10 19 0 22 5 25 43 29 l42 4 -42 1 c-42 2 -42 2 -36 33 8 39 -15 36 -35 -4
-22 -45 -81 -26 -82 25 0 26 -49 92 -73 100 -40 11 -142 8 -169 -6 -33 -17
-41 -11 -22 19 12 19 24 22 81 24 37 1 85 6 108 11 22 5 104 12 180 15 240 11
230 23 -18 24 -194 1 -233 -1 -260 -16 -30 -15 -31 -15 -18 0 12 16 8 17 -53
17 l-66 0 0 -499z m174 247 c58 -158 146 -403 146 -408 0 -4 -19 -4 -41 -1
l-42 6 -78 215 c-43 118 -78 218 -79 223 0 4 18 7 39 7 37 0 40 -2 55 -42z
m206 -23 c0 -30 -11 -32 -33 -7 -19 21 -13 32 15 32 13 0 18 -7 18 -25z m602
-217 c-9 -9 -12 -9 -12 0 0 7 -12 13 -27 13 l-28 1 30 7 c35 9 55 -3 37 -21z
m-874 -255 l10 -28 7 28 c8 32 25 35 32 7 7 -26 19 -25 26 2 4 12 9 20 12 17
8 -8 -15 -69 -26 -69 -5 0 -14 10 -19 23 l-9 22 -7 -23 c-3 -13 -11 -21 -17
-19 -14 4 -40 67 -28 67 5 0 14 -12 19 -27z m172 17 c0 -5 -12 -11 -27 -11
l-28 -1 30 -8 30 -8 -27 -1 c-16 0 -28 -5 -28 -10 0 -5 12 -12 28 -14 22 -3
20 -4 -10 -6 -37 -1 -38 0 -38 34 0 33 2 35 35 35 19 0 35 -4 35 -10z m80 0
c11 -7 7 -10 -20 -11 l-35 -1 30 -7 c39 -8 40 -35 1 -39 -16 -2 -33 1 -39 7
-8 8 -2 10 22 5 25 -5 32 -4 27 4 -4 7 -15 12 -25 12 -25 0 -33 11 -20 27 13
15 38 17 59 3z m90 0 c0 -5 -7 -10 -15 -10 -9 0 -16 -10 -16 -27 l-2 -28 -4
28 c-2 15 -11 27 -19 27 -8 0 -14 5 -14 10 0 6 16 10 35 10 19 0 35 -4 35 -10z
m30 -16 c0 -21 17 -17 23 6 7 28 24 25 32 -7 l7 -28 10 28 c5 15 14 27 19 27
12 0 -14 -63 -28 -67 -6 -2 -15 6 -19 19 l-7 23 -8 -23 c-12 -31 -25 -28 -38
9 -13 39 -14 42 -1 34 6 -3 10 -13 10 -21z m164 20 c20 -8 21 -53 1 -60 -25
-10 -65 5 -65 24 0 34 29 50 64 36z m103 -33 c1 -24 -2 -30 -10 -22 -15 15
-44 14 -50 -1 -3 -7 -6 4 -6 25 -1 37 0 38 32 35 29 -3 32 -6 34 -37z m43 10
c0 -23 5 -31 23 -34 16 -3 13 -5 -10 -6 -31 -1 -33 1 -33 34 0 19 5 35 10 35
6 0 10 -13 10 -29z m118 20 c8 -4 12 -19 10 -32 -2 -19 -10 -25 -39 -27 -35
-3 -35 -3 -31 33 3 28 8 35 26 35 11 0 27 -4 34 -9z m-8 -245 c0 -2 -7 -7 -16
-10 -8 -3 -12 -2 -9 4 6 10 25 14 25 6z"/>
<path d="M600 240 c0 -16 5 -21 23 -18 12 2 22 10 22 18 0 8 -10 16 -22 18
-18 3 -23 -2 -23 -18z"/>
<path d="M703 253 c9 -2 23 -2 30 0 6 3 -1 5 -18 5 -16 0 -22 -2 -12 -5z"/>
<path d="M860 240 c0 -23 35 -28 43 -6 7 18 -1 26 -25 26 -11 0 -18 -7 -18
-20z"/>
<path d="M876 986 c10 -8 16 -17 13 -20 -11 -11 -205 -9 -227 3 -13 7 -29 8
-39 3 -10 -5 -54 -9 -98 -11 -44 -1 -109 -8 -145 -16 -36 -8 -74 -16 -85 -18
-11 -1 127 -3 307 -4 180 -1 332 -4 338 -8 9 -6 9 -2 1 14 -24 45 0 18 29 -31
l30 -53 0 78 0 77 -72 0 c-64 0 -70 -1 -52 -14z"/>
<path d="M992 795 c0 -16 2 -22 5 -12 2 9 2 23 0 30 -3 6 -5 -1 -5 -18z"/>
<path d="M563 763 c9 -2 25 -2 35 0 9 3 1 5 -18 5 -19 0 -27 -2 -17 -5z"/>
<path d="M630 760 c0 -5 15 -10 34 -10 19 0 38 5 41 10 4 6 -10 10 -34 10 -23
0 -41 -4 -41 -10z"/>
<path d="M678 728 c-4 -10 -16 -18 -26 -18 -10 0 -23 -5 -30 -12 -8 -8 -15 -8
-27 2 -28 24 -28 1 1 -84 l28 -85 34 92 c18 50 31 98 30 107 -3 12 -5 12 -10
-2z"/>
</g>
</svg>

