<svg id="Layer_1" data-name="Layer 1" xmlns="http://www.w3.org/2000/svg" xmlns:xlink="http://www.w3.org/1999/xlink" viewBox="0 0 128 128"><defs><style>.cls-1{fill:none;}.cls-2{fill:#fff;}.cls-3{fill:#bbbdbf;}.cls-4{fill:#d0d2d3;}.cls-5{fill:#343434;}.cls-6{fill:#6d6e70;}.cls-7{fill:#808184;}.cls-8{clip-path:url(#clip-path);}.cls-9{clip-path:url(#clip-path-2);}.cls-10{clip-path:url(#clip-path-3);}</style><clipPath id="clip-path"><rect class="cls-1" x="56.26" y="78.26" width="14.09" height="14.12"/></clipPath><clipPath id="clip-path-2"><rect class="cls-1" x="56.26" y="62.24" width="14.09" height="14.12"/></clipPath><clipPath id="clip-path-3"><rect class="cls-1" x="56.26" y="46.23" width="14.09" height="14.12"/></clipPath></defs><title>SVG</title><rect width="128" height="128" rx="13" ry="13"/><polygon id="tracing" class="cls-2" points="87.47 42.09 63.09 7.3 38.7 42.09 25.77 97.4 63.09 120.3 63.24 120.3 100.56 97.4 87.47 42.09"/><polygon class="cls-3" points="63.69 10.27 86.19 42.36 80.06 62.32 63.69 33.56 63.69 10.27"/><polygon class="cls-4" points="62.48 33.55 46.09 62.13 39.99 42.36 62.48 10.27 62.48 33.55"/><polygon class="cls-5" points="63.09 34.93 79.57 63.91 69.68 96.15 56.6 96.15 46.58 63.7 63.09 34.93"/><polygon class="cls-6" points="80.39 65.35 97.92 96.15 70.94 96.15 80.39 65.35"/><polygon class="cls-5" points="69.31 97.36 63.16 117.39 56.97 97.36 69.31 97.36"/><polygon class="cls-7" points="55.34 96.15 27.97 96.15 45.76 65.14 55.34 96.15"/><polygon class="cls-4" points="55.71 97.36 62.19 118.33 28 97.36 55.71 97.36"/><polygon class="cls-4" points="70.57 97.36 98.32 97.36 64.14 118.33 70.57 97.36"/><polygon class="cls-7" points="98.81 95.27 80.88 63.77 86.8 44.49 98.81 95.27"/><polygon class="cls-6" points="39.38 44.49 45.27 63.56 27.8 94.02 39.38 44.49"/><g id="MONEY"><path class="cls-2" d="M63.94,86.31a3.08,3.08,0,0,0-.57-.35v1.63a.93.93,0,0,0,.6-.26.73.73,0,0,0,.2-.55.58.58,0,0,0-.23-.47Zm0,0"/><g class="cls-8"><path class="cls-2" d="M62.45,83.68a.57.57,0,0,0,.21.46,2.8,2.8,0,0,0,.54.35V83a.83.83,0,0,0-.59.22.71.71,0,0,0-.16.48Zm0,0"/><path class="cls-2" d="M63.31,78.25a7,7,0,1,0,7,7,7.05,7.05,0,0,0-7-7ZM64.94,88a2,2,0,0,1-1.17.61v.86h-1v-.8a4.73,4.73,0,0,1-.92-.11,2.69,2.69,0,0,1-.62-.22l.36-1.06a1.84,1.84,0,0,0,.46.2,4.06,4.06,0,0,0,.72.13V85.72l-.57-.29a2.07,2.07,0,0,1-.5-.38,1.66,1.66,0,0,1-.36-.53,1.83,1.83,0,0,1-.13-.73,1.7,1.7,0,0,1,.42-1.23A1.94,1.94,0,0,1,62.81,82v-.84h1V82a4.42,4.42,0,0,1,.71.11c.2.06.39.12.56.19l-.33,1a3.44,3.44,0,0,0-.4-.15,3.67,3.67,0,0,0-.54-.11v1.74a5.1,5.1,0,0,1,.57.29,2.25,2.25,0,0,1,.52.38,2,2,0,0,1,.37.52,1.74,1.74,0,0,1,.14.72A1.89,1.89,0,0,1,64.94,88Zm0,0"/></g></g><g id="MONEY-2" data-name="MONEY"><path class="cls-2" d="M63.94,70.29a3.07,3.07,0,0,0-.57-.34v1.62a.93.93,0,0,0,.6-.25.73.73,0,0,0,.2-.55.62.62,0,0,0-.23-.48Zm0,0"/><g class="cls-9"><path class="cls-2" d="M62.45,67.67a.59.59,0,0,0,.21.46,3.36,3.36,0,0,0,.54.35V67a.75.75,0,0,0-.59.22.7.7,0,0,0-.16.48Zm0,0"/><path class="cls-2" d="M63.31,62.24a7.05,7.05,0,1,0,7,7.05,7.05,7.05,0,0,0-7-7.05ZM64.94,72a2,2,0,0,1-1.17.61v.86h-1v-.81a4.73,4.73,0,0,1-.92-.11,2.32,2.32,0,0,1-.62-.21l.36-1.06a2.31,2.31,0,0,0,.46.2,4.06,4.06,0,0,0,.72.13V69.7c-.19-.08-.38-.18-.57-.28a2.36,2.36,0,0,1-.5-.38,1.77,1.77,0,0,1-.36-.53,1.85,1.85,0,0,1-.13-.74,1.71,1.71,0,0,1,.42-1.23A2,2,0,0,1,62.81,66v-.84h1v.8a3.53,3.53,0,0,1,.71.11,4.08,4.08,0,0,1,.56.19l-.33,1a3.44,3.44,0,0,0-.4-.15,2.71,2.71,0,0,0-.54-.11v1.73l.57.29a2.28,2.28,0,0,1,.52.39,1.81,1.81,0,0,1,.37.52,1.73,1.73,0,0,1,.14.71A1.9,1.9,0,0,1,64.94,72Zm0,0"/></g></g><g id="MONEY-3" data-name="MONEY"><path class="cls-2" d="M63.94,54.28a3.07,3.07,0,0,0-.57-.34v1.62a.93.93,0,0,0,.6-.25.75.75,0,0,0,.2-.55.59.59,0,0,0-.23-.48Zm0,0"/><g class="cls-10"><path class="cls-2" d="M62.45,51.65a.59.59,0,0,0,.21.47,2.78,2.78,0,0,0,.54.34V51a.79.79,0,0,0-.59.21.71.71,0,0,0-.16.48Zm0,0"/><path class="cls-2" d="M63.31,46.22a7,7,0,1,0,7,7.05,7.06,7.06,0,0,0-7-7.05ZM64.94,56a2,2,0,0,1-1.17.62v.86h-1v-.81a4.73,4.73,0,0,1-.92-.11,2.29,2.29,0,0,1-.62-.22l.36-1a1.88,1.88,0,0,0,.46.19,3.32,3.32,0,0,0,.72.13V53.69c-.19-.09-.38-.18-.57-.29a2.07,2.07,0,0,1-.5-.38,1.55,1.55,0,0,1-.36-.53,1.8,1.8,0,0,1-.13-.73,1.7,1.7,0,0,1,.42-1.23A2.06,2.06,0,0,1,62.81,50v-.84h1v.81a2.94,2.94,0,0,1,.71.11,3.07,3.07,0,0,1,.56.19l-.33,1-.4-.14a2.71,2.71,0,0,0-.54-.11v1.73c.19.09.38.18.57.29a2.58,2.58,0,0,1,.52.38,2,2,0,0,1,.37.52,1.78,1.78,0,0,1,.14.72A1.86,1.86,0,0,1,64.94,56Zm0,0"/></g></g></svg>